<svg width="20" height="20" viewBox="0 0 20 20" fill="none" xmlns="http://www.w3.org/2000/svg">
<circle cx="10" cy="10" r="10" fill="black"/>
<path d="M9.66922 0.298492C7.43128 0.375907 5.289 1.226 3.60579 2.70455H6.58238L9.66922 1.11523V0.298492ZM10.3307 0.298492V1.11523L13.4175 2.70455H16.3941C14.7109 1.226 12.5686 0.375907 10.3307 0.298492ZM2.92227 3.36677C1.91028 4.44084 1.15621 5.73177 0.71739 7.14141L2.4813 10.1876L5.01691 9.79028L7.33204 5.7949L6.40599 3.36677H2.92227ZM13.5939 3.36677L12.6679 5.7949L14.983 9.79028L17.5186 10.1876L19.2605 7.16348C18.8312 5.74801 18.0846 4.44941 17.0776 3.36677H13.5939ZM8.0817 6.23638L5.85477 10.1214L7.81712 13.5208H12.1828L14.1451 10.1214L11.9182 6.23638H8.0817ZM0.496902 8.06852C0.367209 8.70047 0.300734 9.34379 0.298462 9.98895C0.300271 11.5832 0.694035 13.1524 1.445 14.5583L2.26081 14.0726L2.10647 10.8719L0.496902 8.06852ZM19.503 8.09059L17.8934 10.8719L17.7391 14.0726L18.5549 14.5583C19.3059 13.1524 19.6996 11.5832 19.7014 9.98895C19.6977 9.35117 19.6313 8.71532 19.503 8.09059ZM7.81712 14.4037L6.11936 16.5008L7.81712 19.4366C8.53235 19.6074 9.26467 19.6963 9.99995 19.7015C10.7352 19.6963 11.4676 19.6074 12.1828 19.4366L13.8806 16.5008L12.1828 14.4037H7.81712ZM2.54744 14.6907L1.77573 15.1322C2.96093 17.037 4.76846 18.4722 6.89107 19.1938L5.34765 16.4787L2.54744 14.6907ZM17.4525 14.6907L14.6523 16.4787L13.1088 19.1717C15.2281 18.4558 17.0352 17.0288 18.2242 15.1322L17.4525 14.6907Z" fill="white"/>
</svg>
