<svg width="20" height="20" viewBox="0 0 20 20" fill="none" xmlns="http://www.w3.org/2000/svg">
<path d="M10 0C11.3542 0 12.6449 0.27016 13.8249 0.758402L13.8428 0.766539C15.0586 1.27268 16.154 2.01318 17.0703 2.93108C17.9915 3.8506 18.7337 4.9524 19.2415 6.17788C19.7314 7.35617 20 8.64838 20 10.0008C20 11.3549 19.7298 12.6455 19.2415 13.8254L19.2334 13.8433C18.7256 15.059 17.9867 16.1543 17.0687 17.0706C16.1491 17.9917 15.0472 18.7338 13.8216 19.2416C12.6432 19.7315 11.3509 20 9.99837 20C8.64583 20 7.35352 19.7298 6.1735 19.2416L6.1556 19.2335C4.93978 18.7273 3.8444 17.9868 2.92806 17.0706L2.92969 17.0673C2.00846 16.1461 1.26628 15.046 0.758464 13.8237C0.270182 12.6438 0 11.3532 0 9.99919C0 8.64513 0.270182 7.35454 0.758464 6.17463L0.766602 6.15673C1.27279 4.941 2.01335 3.84572 2.92969 2.92945H2.93132C3.85254 2.0083 4.9528 1.26617 6.17676 0.758402C7.35514 0.27016 8.64583 0 10 0ZM2.7653 15.3747L2.80436 15.3519C3.76465 14.8165 6.26465 14.6391 7.30306 13.9149C7.37956 13.801 7.46094 13.635 7.54069 13.4543C7.65951 13.1825 7.76856 12.8847 7.83691 12.6829C7.5472 12.3411 7.29818 11.9554 7.06055 11.5762L6.27441 10.3247C5.98796 9.89503 5.83822 9.50443 5.82845 9.1822C5.82357 9.03084 5.84961 8.89413 5.90658 8.77207C5.96517 8.64513 6.05469 8.53934 6.17676 8.45797C6.23372 8.41891 6.2972 8.38636 6.36719 8.36195C6.3151 7.68329 6.2972 6.82887 6.32975 6.11278C6.34603 5.94353 6.38021 5.77264 6.42578 5.60339C6.6276 4.88567 7.13053 4.30792 7.75391 3.91081C8.09733 3.69111 8.47494 3.52673 8.86719 3.41606C9.11784 3.34445 8.65397 2.54699 8.91276 2.51933C10.1611 2.39076 12.181 3.53161 13.0534 4.47392C13.4896 4.94589 13.7646 5.57246 13.8232 6.40085L13.7744 8.4417C13.9925 8.50842 14.1325 8.64676 14.1878 8.86972C14.2513 9.11872 14.1829 9.467 13.9714 9.94385C13.9681 9.95199 13.9632 9.96175 13.9583 9.96989L13.0615 11.446C12.7327 11.988 12.3975 12.5332 11.9629 12.9612C12.0036 13.0198 12.0443 13.0767 12.0833 13.1337C12.2607 13.3941 12.4398 13.6545 12.6693 13.8872C12.6774 13.8954 12.6839 13.9035 12.6888 13.9116C13.7207 14.6407 16.2321 14.8181 17.1956 15.3552L17.2347 15.378C18.3529 13.8775 19.0137 12.0173 19.0137 10.0024C19.0137 7.51404 18.0046 5.25999 16.3737 3.63089C14.7461 1.99854 12.4919 0.989503 10.0033 0.989503C7.51465 0.989503 5.26042 1.99854 3.63118 3.62926C1.99707 5.25673 0.987956 7.51078 0.987956 9.99919C0.987956 12.014 1.64876 13.8742 2.7653 15.3747Z" fill="#EEEEEE"/>
</svg>
