<svg width="20" height="9" viewBox="0 0 20 9" fill="none" xmlns="http://www.w3.org/2000/svg">
<path d="M17.9338 7.20866C20.3692 6.5477 20.5907 5.1965 18.9194 4.47821C18.6511 4.36289 16.7161 3.52186 16.4508 3.43682L16.3746 3.41239C16.177 3.34895 15.9725 3.34567 15.7845 3.39201C15.6682 3.24797 15.5055 3.13354 15.3079 3.07014L15.2317 3.04563C15.0341 2.98226 14.8296 2.97899 14.6416 3.02533C14.5252 2.88136 14.3626 2.76685 14.165 2.70338L14.0888 2.67894C13.8912 2.61558 13.6867 2.61223 13.4987 2.65864C13.3823 2.51459 13.2197 2.40016 13.0221 2.33669L12.9459 2.31225C12.7483 2.24889 12.5438 2.24554 12.3558 2.29188C12.2394 2.14791 12.0768 2.0334 11.8792 1.96993L11.803 1.94557C11.5748 1.8723 11.3374 1.87937 11.1269 1.95037C11.1195 1.94609 11.1116 1.94166 11.1049 1.93748C10.5071 1.56521 9.687 0.963329 9.13122 0.548702C7.38361 -0.755038 6.80633 0.589826 6.16069 1.23715C6.02514 1.37311 6.01977 1.53202 6.12503 1.6859C6.20517 1.80305 6.30015 1.91152 6.43759 2.08618C5.95262 2.1326 5.52198 2.1726 5.09166 2.2154C4.56951 2.26722 4.12911 2.11494 3.77018 1.76368C3.58684 1.58436 3.42729 1.38049 3.22524 1.22225C3.06287 1.09516 2.36791 0.838431 1.53058 1.12179C0.0114408 1.63591 -0.115638 5.64987 0.0610465 6.59199C0.175341 7.20121 0.374893 7.41424 0.707936 7.51172L0.825256 7.70963L0.775287 8.16739C0.749637 8.40195 0.891397 8.60087 1.09797 8.62012C1.30458 8.63934 1.48658 8.4706 1.51215 8.23604L1.56216 7.77843L1.67573 7.65446C2.21091 7.72613 2.74741 7.78528 3.2857 7.82659L3.42435 8.02588L3.4091 8.48576C3.40132 8.72141 3.55776 8.91071 3.76526 8.91652C3.97279 8.9224 4.14162 8.74241 4.14932 8.50677L4.16464 8.04696L4.29547 7.88202C4.55528 7.89018 5.86216 7.31363 8.55958 7.78525C9.09065 7.87811 9.63401 7.93883 10.1718 7.93976C10.2815 7.93991 10.3912 7.93961 10.501 7.93924L10.6379 8.12127L10.6405 8.58131C10.6419 8.81703 10.8056 9.00104 11.0132 9C11.2208 8.99899 11.3825 8.81345 11.3811 8.57766L11.3785 8.1177L11.5185 7.92724C12.1611 7.91443 12.8034 7.89189 13.4448 7.85945C13.5573 7.85371 13.6697 7.8476 13.7821 7.84112C13.7857 7.84578 13.7893 7.85036 13.7935 7.85472L13.9848 8.05266L14.0479 8.50897C14.0803 8.74286 14.267 8.9071 14.4729 8.88277C14.6789 8.85841 14.8149 8.65622 14.7826 8.42233L14.7195 7.96602L14.831 7.76565C15.5257 7.70315 16.2161 7.61084 16.896 7.46233C16.8986 7.46467 16.901 7.46721 16.9038 7.46937L17.1226 7.64135L17.2527 8.08537C17.3194 8.313 17.5287 8.45213 17.7291 8.40199C17.9296 8.35185 18.0344 8.13431 17.9677 7.90675L17.8376 7.46266L17.9327 7.21231C17.9332 7.21119 17.9334 7.20989 17.9338 7.20866ZM7.91354 6.03198C7.87886 6.06889 7.82869 6.08971 7.77654 6.08971C7.76904 6.08971 7.76154 6.08926 7.75404 6.08841C7.32194 6.03857 6.88005 5.98232 6.44062 5.92123C6.37528 5.91214 6.32047 5.87094 6.29748 5.81373C6.2745 5.75651 6.28704 5.69229 6.33015 5.64607L8.77273 3.02693C8.82576 2.97005 8.91332 2.95273 8.98688 2.98435C9.3367 3.13491 9.69261 3.27974 10.0446 3.41485C10.0984 3.43544 10.1381 3.47862 10.1516 3.53088C10.165 3.58314 10.1505 3.63823 10.1126 3.67895C9.29951 4.55167 8.62133 5.27908 7.91354 6.03198ZM10.4112 6.244C10.3766 6.28073 10.3266 6.30163 10.2743 6.30163C10.2696 6.30163 10.2649 6.30144 10.2602 6.3011C9.81303 6.26907 9.35537 6.23003 8.89989 6.18515C8.83282 6.17852 8.77531 6.13814 8.75042 6.08025C8.72558 6.02236 8.73752 5.95651 8.78148 5.90927C9.408 5.23554 10.1181 4.47192 10.8197 3.73039C10.8696 3.67764 10.9496 3.65917 11.0205 3.68386C11.409 3.81938 11.785 3.93891 12.138 4.03923C12.1966 4.05584 12.2421 4.09868 12.2591 4.15302C12.276 4.20741 12.2621 4.26604 12.2221 4.30891L12.0815 4.45959C11.5076 5.07451 10.9655 5.65534 10.4112 6.244ZM14.4588 4.71289L12.8731 6.35113C12.8386 6.38674 12.7894 6.40704 12.7378 6.40704C12.7365 6.40704 12.7353 6.40704 12.734 6.40701C12.4117 6.40086 11.9124 6.3876 11.3641 6.35936C11.2952 6.35579 11.2343 6.31638 11.2072 6.25767C11.1802 6.19893 11.1915 6.13113 11.2366 6.08275L12.3081 4.93192C12.5035 4.72183 12.7055 4.50459 12.9065 4.29226C12.9509 4.24522 13.02 4.22495 13.0858 4.23967C13.5461 4.34255 13.9672 4.40796 14.3373 4.43404C14.4062 4.43892 14.4661 4.47944 14.4919 4.53863C14.5177 4.59782 14.5048 4.66536 14.4588 4.71289Z" fill="white"/>
</svg>
