<svg width="26" height="18" viewBox="0 0 26 18" fill="none" xmlns="http://www.w3.org/2000/svg">
<path d="M0 0V18H26V0H0ZM13.4021 5.66686C15.0606 5.86668 16.3505 7.28474 16.3505 9C16.3505 10.7153 15.0606 12.1333 13.4021 12.3331V5.66686ZM0.804121 6.17909H3.75258V11.8209H0.804121V6.17909ZM12.5979 12.3331C10.9394 12.1333 9.64945 10.7153 9.64945 9C9.64945 7.28474 10.9394 5.86668 12.5979 5.66686V12.3331ZM12.5979 4.85565C10.495 5.05904 8.84533 6.83985 8.84533 9C8.84533 11.1602 10.495 12.9409 12.5979 13.1444V17.194H0.804121V12.6269H4.5567V11.5201C5.77038 11.3263 6.70104 10.2702 6.70104 9C6.70104 7.72985 5.77043 6.67372 4.5567 6.4799V5.37313H0.804121V0.805966H12.5979V4.85565ZM4.5567 10.6988V7.30118C5.32411 7.48365 5.89692 8.17581 5.89692 9C5.89692 9.82419 5.32411 10.5163 4.5567 10.6988ZM25.1959 11.8209H22.2474V6.17909H25.1959V11.8209ZM25.1959 5.37313H21.4433V6.4799C20.2296 6.67372 19.299 7.72985 19.299 9C19.299 10.2702 20.2296 11.3263 21.4433 11.5201V12.6269H25.1959V17.194H13.4021V13.1444C15.505 12.941 17.1547 11.1602 17.1547 9C17.1547 6.83985 15.505 5.05909 13.4021 4.85565V0.805966H25.1959V5.37313ZM21.4433 7.30118V10.6988C20.6759 10.5163 20.1031 9.82419 20.1031 9C20.1031 8.17581 20.6759 7.48365 21.4433 7.30118Z" fill="white"/>
</svg>
