<svg width="24" height="32" viewBox="0 0 24 32" fill="none" xmlns="http://www.w3.org/2000/svg">
<mask id="mask0_767_3" style="mask-type:luminance" maskUnits="userSpaceOnUse" x="0" y="0" width="24" height="32">
<path d="M0 32H23.6925V-7.05691e-07H0V32Z" fill="white"/>
</mask>
<g mask="url(#mask0_767_3)">
<path d="M19.0396 27.5058C17.4189 30.1327 14.8547 31.9998 11.8084 31.9998C8.87723 31.9998 6.29127 30.3389 4.75378 27.8085C4.75378 27.8085 1.09968 23.5086 1.60571 15.6295H22.0787C22.0787 15.6295 22.7075 22.685 19.0396 27.5058Z" fill="#193B67"/>
<path d="M18.5895 27.3366C17.0695 29.6549 14.6648 31.3027 11.8081 31.3027C9.05917 31.3027 6.634 29.837 5.19192 27.6037C5.19192 27.6037 2.0497 23.5087 2.23973 16.8551H21.4396C21.4396 16.8551 21.5029 23.4452 18.5895 27.3366Z" fill="#078543"/>
<path d="M4.20468 20.7205C4.20468 20.7205 -0.357562 15.8412 0.0224917 3.23134C0.0224917 3.23134 5.34537 4.24526 7.68975 -0.000182584C7.68975 -0.000182584 11.9355 3.73843 15.8641 -0.000182584C15.8641 -0.000182584 18.3352 4.24526 23.6581 3.23134C23.6581 3.23134 24.355 13.8768 19.4759 20.5304L4.20468 20.7205Z" fill="#193B67"/>
<path d="M0.656287 3.8018C0.656287 3.8018 5.3453 4.68895 7.81671 0.887083C7.81671 0.887083 11.175 3.92858 15.8008 0.887083C15.8008 0.887083 18.0819 4.4354 22.9612 3.86506C22.9612 3.86506 23.5948 13.7502 19.2226 19.9602H4.45815C4.45815 19.9602 0.275968 15.2709 0.656287 3.8018Z" fill="#078543"/>
<path fill-rule="evenodd" clip-rule="evenodd" d="M14.7116 7.23085C14.4756 6.15447 13.8202 5.23623 12.9251 4.65446C13.6217 4.68927 14.2723 4.89711 14.836 5.23517C14.3164 4.55586 13.5749 4.05594 12.7186 3.84412C12.8837 3.65197 13.067 3.47656 13.2669 3.32028C12.8624 3.38938 12.4858 3.53742 12.1528 3.74871C12.1422 3.74764 12.1313 3.74738 12.1209 3.74631C12.0438 3.49702 11.9333 3.26288 11.7985 3.04521V3.04388L11.7982 3.04468L11.798 3.04388V3.04521C11.6632 3.26288 11.5527 3.49702 11.4756 3.74631C11.465 3.74738 11.4546 3.74764 11.444 3.74871C11.1104 3.53742 10.7341 3.38938 10.3296 3.32028C10.5292 3.47656 10.7131 3.65197 10.8776 3.84412C10.0216 4.05594 9.28006 4.55586 8.76074 5.23517C9.32418 4.89711 9.97479 4.68927 10.6714 4.65446C9.77626 5.23623 9.12086 6.15447 8.88486 7.23085C9.27554 6.48403 9.8528 5.85096 10.5555 5.39304C10.1002 6.05029 9.80124 6.82369 9.7138 7.6606C9.69626 7.83017 9.68643 8.00185 9.68643 8.17567C9.68643 8.38908 9.70184 8.59878 9.72842 8.80502C9.79539 8.37872 9.91127 7.9689 10.0681 7.58034C10.2748 7.0674 10.5547 6.5922 10.8946 6.1667C10.7904 6.53559 10.7227 6.91937 10.6958 7.31457C10.6868 7.44453 10.6807 7.57529 10.6807 7.70738C10.6807 8.1164 10.7248 8.51479 10.8072 8.89937C10.8284 8.9985 10.8529 9.09657 10.8792 9.19358C10.8811 9.19995 10.8827 9.20607 10.8845 9.21245C10.8843 9.20554 10.8843 9.19863 10.8843 9.19198C10.8835 9.15584 10.8813 9.11996 10.8813 9.08355C10.8813 8.99053 10.8845 8.8983 10.8882 8.80608C10.9127 8.16504 11.0195 7.54473 11.2013 6.95737C11.2763 6.71445 11.3645 6.47712 11.4642 6.24616V7.32546L11.3653 7.24892L11.4642 7.78419V8.47227L11.3658 8.39599L11.4642 8.85445V9.54253L11.3658 9.46626L11.4642 9.92498V10.7661L11.3015 10.8424V10.9187H12.2947V10.8424L12.1326 10.7661V9.92498L12.2312 9.46626L12.1326 9.54253V8.85445L12.2312 8.39599L12.1326 8.47227V7.78419L12.2312 7.24892L12.1326 7.32546V6.24616C12.2323 6.47712 12.3205 6.71445 12.3954 6.95737C12.577 7.54473 12.6838 8.16504 12.7083 8.80608C12.7117 8.8983 12.7152 8.99053 12.7152 9.08355C12.7152 9.11996 12.713 9.15584 12.7125 9.19198C12.7125 9.19863 12.7122 9.20554 12.7122 9.21245C12.7138 9.20607 12.7157 9.19995 12.7176 9.19358C12.7439 9.09657 12.7675 8.9985 12.7893 8.89937C12.8717 8.51479 12.9158 8.1164 12.9158 7.70738C12.9158 7.57529 12.9097 7.44453 12.9009 7.31457C12.8738 6.91937 12.8061 6.53559 12.7019 6.1667C13.0421 6.5922 13.3217 7.0674 13.5287 7.58034C13.6852 7.9689 13.8008 8.37872 13.8683 8.80502C13.8947 8.59878 13.9103 8.38908 13.9103 8.17567C13.9103 8.00185 13.9005 7.83017 13.8827 7.6606C13.7955 6.82369 13.496 6.05029 13.0413 5.39304C13.7434 5.85096 14.3215 6.48403 14.7116 7.23085Z" fill="white"/>
<path fill-rule="evenodd" clip-rule="evenodd" d="M14.1788 13.7111C13.7772 14.0125 13.5712 13.8543 13.3799 13.5168L13.6762 13.2247C13.8277 13.0748 13.6661 12.8657 13.4769 13.0328L13.1144 13.3313C12.7628 12.9893 12.0734 12.3384 12.0734 12.3384C13.8923 10.6093 15.2953 10.0793 16.5569 10.0411C14.1512 9.71814 13.4418 10.4982 11.7451 12.0192C10.0484 10.4982 9.33963 9.71814 6.93359 10.0411C8.19495 10.0793 9.59822 10.6093 11.4172 12.3384C11.4172 12.3384 10.7275 12.9893 10.3759 13.3313L10.0134 13.0328C9.82439 12.8657 9.66254 13.0748 9.8143 13.2247L10.1104 13.5168C9.91928 13.8543 9.7133 14.0125 9.31146 13.7111C9.00449 13.352 8.1883 13.5673 8.70603 14.1151C9.05206 14.4271 10.0232 14.4917 10.4793 13.8801L10.7182 14.1153C10.9018 14.349 11.2697 14.3234 10.9172 13.9203L10.6775 13.6848C11.0406 13.2718 11.3972 12.981 11.7451 12.6533C12.0928 12.981 12.4497 13.2718 12.813 13.6848L12.5733 13.9203C12.2209 14.3234 12.5887 14.349 12.7726 14.1153L13.0113 13.8801C13.4673 14.4917 14.4382 14.4271 14.7845 14.1151C15.3022 13.5673 14.486 13.352 14.1788 13.7111Z" fill="white"/>
<path fill-rule="evenodd" clip-rule="evenodd" d="M19.7928 22.7484C19.7928 27.1227 16.2466 30.6692 11.872 30.6692C7.49763 30.6692 3.95117 27.1227 3.95117 22.7484C3.95117 18.3738 7.49763 14.8276 11.872 14.8276C16.2466 14.8276 19.7928 18.3738 19.7928 22.7484Z" fill="#193B67"/>
</g>
<mask id="mask1_767_3" style="mask-type:luminance" maskUnits="userSpaceOnUse" x="0" y="0" width="24" height="32">
<path d="M0 32H23.6925V-7.05691e-07H0V32Z" fill="white"/>
</mask>
<g mask="url(#mask1_767_3)">
<path d="M11.8727 15.3291C7.78169 15.3291 4.4537 18.6573 4.4537 22.7481C4.4537 26.8391 7.78169 30.1671 11.8727 30.1671C15.9637 30.1671 19.2917 26.8391 19.2917 22.7481C19.2917 18.6573 15.9637 15.3291 11.8727 15.3291ZM11.8727 30.3574C7.67698 30.3574 4.26367 26.9438 4.26367 22.7481C4.26367 18.5524 7.67698 15.1391 11.8727 15.1391C16.0685 15.1391 19.4818 18.5524 19.4818 22.7481C19.4818 26.9438 16.0685 30.3574 11.8727 30.3574Z" fill="#078543"/>
<path fill-rule="evenodd" clip-rule="evenodd" d="M17.232 22.7482C17.232 25.7078 14.8326 28.1072 11.873 28.1072C8.91306 28.1072 6.51367 25.7078 6.51367 22.7482C6.51367 19.7885 8.91306 17.3891 11.873 17.3891C14.8326 17.3891 17.232 19.7885 17.232 22.7482Z" fill="#078543"/>
<path fill-rule="evenodd" clip-rule="evenodd" d="M6.57324 22.7314C6.57324 25.678 8.97024 28.0747 11.9163 28.0747C14.8621 28.0747 17.2589 25.678 17.2589 22.7314C17.2589 19.7855 14.8621 17.3888 11.9163 17.3888C8.97024 17.3888 6.57324 19.7855 6.57324 22.7314Z" fill="#268951"/>
<path fill-rule="evenodd" clip-rule="evenodd" d="M6.72949 22.7314C6.72949 19.8714 9.05633 17.5448 11.9166 17.5448C14.7763 17.5448 17.1034 19.8714 17.1034 22.7314C17.1034 25.5919 14.7763 27.9185 11.9166 27.9185C9.05633 27.9185 6.72949 25.5919 6.72949 22.7314Z" fill="white"/>
<path fill-rule="evenodd" clip-rule="evenodd" d="M10.2211 18.6722C9.1381 19.1227 8.2956 19.9678 7.84831 21.0525C6.92448 23.2929 7.99687 25.8706 10.2389 26.7971C11.3238 27.2457 12.5195 27.2439 13.606 26.7926C14.6906 26.3416 15.5344 25.497 15.9812 24.4134C16.428 23.3296 16.4264 22.1352 15.9761 21.0511C15.5254 19.9636 14.6778 19.1182 13.5906 18.6685C12.5028 18.2191 11.3063 18.2204 10.2211 18.6722Z" fill="#268951"/>
<path fill-rule="evenodd" clip-rule="evenodd" d="M10.2989 26.6528C8.13607 25.7588 7.10142 23.2733 7.99309 21.1117C8.42417 20.0657 9.23664 19.2508 10.2814 18.816C11.328 18.3801 12.482 18.3788 13.5312 18.8126C14.58 19.2458 15.3972 20.0622 15.8323 21.1107C16.2668 22.1562 16.2684 23.3081 15.8368 24.3536C15.4063 25.3986 14.5927 26.2135 13.5464 26.6483C12.4987 27.0836 11.3453 27.0855 10.2989 26.6528Z" fill="white"/>
<path fill-rule="evenodd" clip-rule="evenodd" d="M11.8535 18.4097H11.9782L11.9784 17.4664H11.8535V18.4097Z" fill="#268951"/>
<path fill-rule="evenodd" clip-rule="evenodd" d="M16.1891 22.8502C16.907 22.442 17.1018 21.966 17.1018 21.966C16.9248 20.8256 16.7677 20.4763 16.1551 19.6065C16.1551 19.6065 15.5281 19.4125 14.9397 19.6437C14.9397 19.6437 14.746 20.3724 14.8539 21.4791L13.503 21.9538C12.7726 21.2851 11.9158 20.913 11.9158 20.913C11.9158 20.913 11.0589 21.2851 10.3286 21.9538L8.97739 21.4794C9.08609 20.3724 8.89155 19.6437 8.89155 19.6437C8.30339 19.4125 7.67697 19.6065 7.67697 19.6065C7.06357 20.4763 6.90676 20.8256 6.72949 21.966C6.72949 21.966 6.92457 22.442 7.64215 22.8502C7.64215 22.8502 8.22712 22.5361 8.93194 21.5955L10.2847 22.0707C10.2656 23.0495 10.6911 23.9173 10.7876 24.1004L9.81218 25.1468C8.81155 24.6928 8.07031 24.6402 8.07031 24.6402C7.65969 25.1212 7.63896 25.7833 7.63896 25.7833C8.21861 26.6226 8.65767 26.9298 9.56156 27.4412C9.56156 27.4412 10.0756 27.4114 10.6948 26.866C10.6948 26.866 10.5872 26.2021 9.9161 25.2185L10.9058 24.1557C11.0812 24.1886 11.4711 24.2522 11.9158 24.2647C12.3604 24.2516 12.7506 24.1884 12.9257 24.1557L13.9154 25.2185C13.2446 26.2021 13.1373 26.866 13.1373 26.866C13.7562 27.4114 14.2702 27.4412 14.2702 27.4412C15.1744 26.9298 15.6132 26.6226 16.1928 25.7833C16.1928 25.7833 16.1721 25.1212 15.7618 24.6402C15.7618 24.6402 15.0197 24.6928 14.0196 25.1468L13.044 24.0999C13.1407 23.916 13.5654 23.0487 13.546 22.0707L14.8993 21.5955C15.6047 22.5361 16.1891 22.8502 16.1891 22.8502Z" fill="#268951"/>
<path fill-rule="evenodd" clip-rule="evenodd" d="M11.4673 24.7785H10.675L10.5312 24.9887V27.5867H11.5452V24.7785H11.4673Z" fill="#193B67"/>
<path fill-rule="evenodd" clip-rule="evenodd" d="M11.3897 24.9346V27.4304H10.6875V25.0369C10.7034 25.0138 10.7335 24.9691 10.7574 24.9346H11.3897Z" fill="#268951"/>
<path fill-rule="evenodd" clip-rule="evenodd" d="M13.1153 24.7785H12.2861V27.5867H13.2998V24.9887L13.1563 24.7785H13.1153Z" fill="#193B67"/>
<path fill-rule="evenodd" clip-rule="evenodd" d="M13.0741 24.9348C13.098 24.9694 13.1286 25.014 13.1438 25.0371V27.4307H12.4424V24.9348H13.0741Z" fill="#268951"/>
<path fill-rule="evenodd" clip-rule="evenodd" d="M12.3633 24.7785H11.3887V27.5867H12.4417V24.7785H12.3633Z" fill="#193B67"/>
<path fill-rule="evenodd" clip-rule="evenodd" d="M12.2869 27.4307H11.5459V24.9348H12.2869V27.4307Z" fill="#268951"/>
<path fill-rule="evenodd" clip-rule="evenodd" d="M12.4615 23.8388H11.3368L10.5977 24.9189H13.2338L12.4945 23.8388H12.4615Z" fill="#193B67"/>
<path fill-rule="evenodd" clip-rule="evenodd" d="M12.4293 23.9634C12.4607 24.0094 12.8934 24.6416 12.9978 24.7942H10.835C10.9389 24.6416 11.3718 24.0094 11.4032 23.9634H12.4293Z" fill="#268951"/>
<path fill-rule="evenodd" clip-rule="evenodd" d="M13.8659 18.009H9.88672L11.3206 23.9639H12.511L13.9451 18.009H13.8659Z" fill="#193B67"/>
<path fill-rule="evenodd" clip-rule="evenodd" d="M13.7865 18.1335C13.7506 18.2824 12.435 23.7461 12.4124 23.8389H11.419C11.3964 23.7461 10.0808 18.2824 10.0449 18.1335H13.7865Z" fill="#268951"/>
</g>
</svg>
