<svg width="31" height="31" viewBox="0 0 31 31" fill="none" xmlns="http://www.w3.org/2000/svg">
<path d="M15.5001 31C24.0605 31 31 24.0602 31 15.5C31 6.93987 24.0605 0 15.5001 0C6.93976 0 1.15395e-09 6.93987 1.15395e-09 15.5C-0.000103332 24.0602 6.93976 31 15.5001 31Z" fill="white"/>
<path d="M28.3332 18.0951C28.4189 17.6679 28.4837 17.2378 28.5264 16.807C28.5684 16.3823 28.59 15.9464 28.59 15.5C28.59 11.8854 27.1249 8.61306 24.7561 6.24404C22.3872 3.87553 19.1147 2.41016 15.5001 2.41016C15.4481 2.41016 15.395 2.41047 15.341 2.41099L15.335 1.90104C15.3889 1.90032 15.444 1.8999 15.5001 1.8999C19.2555 1.8999 22.6554 3.42231 25.1166 5.88351C27.5778 8.3447 29.1002 11.7446 29.1002 15.5C29.1002 15.9527 29.0773 16.4054 29.0326 16.8569C28.9873 17.3145 28.9204 17.7612 28.8331 18.1946L28.3332 18.0951Z" fill="#D2122E"/>
<path d="M27.8659 18.0026C27.9482 17.594 28.0108 17.1795 28.0522 16.7604C28.0931 16.3471 28.1144 15.9269 28.1144 15.5C28.1144 12.0169 26.7024 8.86341 24.4195 6.58068C22.1371 4.29815 18.9836 2.8861 15.5004 2.8861C15.4722 2.8861 15.444 2.8863 15.4155 2.88641C15.3878 2.88672 15.3598 2.88672 15.331 2.88744L15.3296 2.75993C15.3575 2.75951 15.3863 2.7592 15.415 2.759C15.4434 2.75889 15.4719 2.75879 15.5004 2.75879C19.0187 2.75879 22.2043 4.185 24.5098 6.49078C26.8156 8.79635 28.2419 11.9818 28.2419 15.5001C28.2419 15.9285 28.2205 16.3531 28.1788 16.7727C28.1365 17.1989 28.0735 17.6178 27.991 18.0277L27.8659 18.0026Z" fill="#D2122E"/>
<path d="M29.1724 18.2753C29.2638 17.8221 29.3334 17.3626 29.3796 16.8977C29.4251 16.4393 29.4486 15.9731 29.4486 15.5C29.4486 11.6484 27.8873 8.16127 25.3631 5.63694C22.839 3.11281 19.3518 1.55165 15.5 1.55165C15.4718 1.55165 15.4436 1.55175 15.4151 1.55175C15.3874 1.55186 15.3592 1.55227 15.3307 1.55248L15.3291 1.42507C15.3571 1.42465 15.3857 1.42455 15.4147 1.42424C15.443 1.42424 15.4715 1.42383 15.5 1.42383C19.3869 1.42383 22.9059 2.99966 25.4534 5.54683C28.0005 8.0941 29.576 11.613 29.576 15.4999C29.576 15.9745 29.5523 16.4451 29.5062 16.91C29.4592 17.3819 29.389 17.8457 29.2974 18.3001L29.1724 18.2753Z" fill="#D2122E"/>
<path d="M2.43083 14.7618C2.42349 14.8913 2.41833 15.0141 2.41502 15.1305C2.41161 15.2553 2.40996 15.3787 2.40996 15.4999C2.40996 19.1146 3.87512 22.3872 6.24373 24.7559C8.61275 27.1244 11.8852 28.59 15.4999 28.59C15.8174 28.59 16.1384 28.5779 16.4618 28.5542C16.7911 28.5303 17.1084 28.4961 17.4143 28.4511L17.4878 28.9554C17.1532 29.0042 16.8229 29.0411 16.4978 29.0644C16.1742 29.0881 15.8414 29.0999 15.5 29.0999C11.7447 29.0999 8.34439 27.5776 5.8833 25.1164C3.42221 22.6551 1.8999 19.2553 1.8999 15.4999C1.8999 15.3694 1.90187 15.2415 1.90507 15.1165C1.909 14.9817 1.91416 14.854 1.92067 14.7341L2.43083 14.7618Z" fill="#D2122E"/>
<path d="M2.90449 14.8158C2.89839 14.9309 2.89385 15.0446 2.89085 15.157C2.88785 15.2714 2.8863 15.386 2.8863 15.5001C2.8863 18.9832 4.29825 22.1367 6.58088 24.4194C8.86352 26.7021 12.017 28.1138 15.5003 28.1138C15.8132 28.1138 16.1256 28.1023 16.4356 28.0796C16.75 28.0566 17.0591 28.0224 17.3624 27.9774L17.3809 28.1037C17.07 28.1496 16.758 28.1843 16.4447 28.2072C16.1345 28.2298 15.8193 28.2416 15.5003 28.2416C11.9819 28.2416 8.79645 26.8152 6.49067 24.5094C4.18489 22.204 2.75879 19.0185 2.75879 15.5001C2.75879 15.384 2.76024 15.2686 2.76334 15.1542C2.76623 15.0371 2.77098 14.922 2.77698 14.8093L2.90449 14.8158Z" fill="#D2122E"/>
<path d="M1.57469 14.6885C1.56694 14.8247 1.56105 14.96 1.55723 15.094C1.55341 15.2293 1.55144 15.3648 1.55144 15.5C1.55144 19.3517 3.11271 22.8389 5.63683 25.3631C8.16106 27.887 11.6482 29.4485 15.5 29.4485C15.8398 29.4485 16.1783 29.4359 16.5148 29.4119C16.8562 29.3874 17.1916 29.3508 17.5208 29.3032L17.5386 29.4291C17.2015 29.478 16.863 29.5152 16.5239 29.5395C16.1874 29.5633 15.8458 29.5761 15.5 29.5761C11.613 29.5761 8.09399 28.0005 5.54672 25.4531C2.99956 22.9058 1.42383 19.3871 1.42383 15.5001C1.42383 15.3624 1.42589 15.226 1.42972 15.0906C1.43375 14.9522 1.43953 14.8157 1.44728 14.6816L1.57469 14.6885Z" fill="#D2122E"/>
<path fill-rule="evenodd" clip-rule="evenodd" d="M19.1056 28.5057L18.7742 28.5932L18.7942 28.0286L19.1056 28.5057ZM18.861 27.6672L18.5498 27.7491L18.4702 29.2091L18.7544 29.1338L18.7648 28.8465L19.2461 28.7197L19.4049 28.9627L19.6938 28.8866L18.861 27.6672Z" fill="black"/>
<path fill-rule="evenodd" clip-rule="evenodd" d="M20.7003 27.0098L20.9234 26.917L21.4582 28.2012L21.2023 28.3081L20.868 27.5056L20.7586 28.0242L20.7196 28.0404L20.2742 27.7526L20.6085 28.5552L20.3524 28.6618L19.8174 27.3772L20.0403 27.2843L20.5688 27.6235L20.7003 27.0098Z" fill="black"/>
<path fill-rule="evenodd" clip-rule="evenodd" d="M22.3069 26.5667C22.1219 26.5696 22.0212 26.5874 21.939 26.6347C21.8528 26.6842 21.82 26.7551 21.8546 26.815C21.9595 26.9971 22.4208 26.6634 22.663 27.0845C22.7962 27.316 22.7177 27.5401 22.5028 27.6636C22.3346 27.7604 22.2196 27.7536 22.0874 27.7472L21.938 27.4872C22.1428 27.5221 22.2511 27.5141 22.3571 27.4534C22.4494 27.4001 22.4752 27.3313 22.4346 27.2605C22.3206 27.0624 21.8714 27.4172 21.6222 26.9842C21.5024 26.7754 21.5672 26.5544 21.7907 26.426C21.8982 26.3638 22.0122 26.3362 22.1715 26.3315L22.3069 26.5667Z" fill="black"/>
<path fill-rule="evenodd" clip-rule="evenodd" d="M23.6109 25.5201L23.2873 25.7606L23.9652 26.673L23.7425 26.8383L23.0647 25.9263L22.7411 26.1664L22.5889 25.9618L23.4588 25.3157L23.6109 25.5201Z" fill="black"/>
<path fill-rule="evenodd" clip-rule="evenodd" d="M25.4325 25.3974L24.8358 25.9616L23.8799 24.9505L24.468 24.3943L24.6433 24.5797L24.2567 24.9449L24.4572 25.157L24.826 24.8084L25.0012 24.9936L24.6324 25.3426L24.8623 25.5855L25.2571 25.212L25.4325 25.3974Z" fill="black"/>
<path fill-rule="evenodd" clip-rule="evenodd" d="M25.2613 23.9014L25.3517 23.7935C25.4187 23.7136 25.494 23.7064 25.5736 23.7736C25.6643 23.8495 25.6473 23.933 25.598 23.9919L25.5036 24.1045L25.2613 23.9014ZM24.8877 23.95L25.9536 24.8443L26.132 24.6317L25.6992 24.2681L25.7504 24.207C25.8471 24.092 26.0801 24.23 26.3849 24.3302L26.5811 24.0963C26.1677 23.9542 26.0145 23.87 25.8864 23.9117C25.9118 23.7673 25.8652 23.6448 25.748 23.5463C25.5886 23.4128 25.3545 23.3934 25.2077 23.5681L24.8877 23.95Z" fill="black"/>
<path fill-rule="evenodd" clip-rule="evenodd" d="M26.182 22.6958L26.2786 22.5461C26.4211 22.3251 26.6465 22.3484 26.8471 22.4779C27.0184 22.5883 27.1722 22.7866 27.0209 23.0214L26.9227 23.1735L26.182 22.6958ZM25.8174 22.7906L26.9866 23.545L27.236 23.1583C27.4767 22.7852 27.3397 22.4554 27.0036 22.2388C26.6832 22.032 26.304 22.0363 26.0836 22.3777L25.8174 22.7906Z" fill="black"/>
<path fill-rule="evenodd" clip-rule="evenodd" d="M27.7365 21.1952L27.588 21.5039L27.1714 21.1227L27.7365 21.1952ZM26.9396 20.8372L26.8003 21.127L27.8597 22.1347L27.987 21.8698L27.7747 21.6755L27.9905 21.2266L28.2785 21.2637L28.4079 20.9945L26.9396 20.8372Z" fill="black"/>
<path fill-rule="evenodd" clip-rule="evenodd" d="M27.6325 19.0094L27.7064 18.7793L29.0311 19.2051L28.9464 19.4693L28.1188 19.2037L28.4425 19.6229L28.4294 19.6634L27.922 19.8155L28.7495 20.0815L28.6646 20.3457L27.3398 19.92L27.4137 19.6899L28.0145 19.5078L27.6325 19.0094Z" fill="black"/>
<path fill-rule="evenodd" clip-rule="evenodd" d="M1.87391 11.704L3.35571 11.5758L3.07154 12.6188L1.87391 11.704ZM4.21616 13.5085L3.60774 13.039L4.02252 11.5164L4.77675 11.4505L5.03219 10.5134L1.1265 10.9282L0.848633 11.9484L3.95979 14.4507L4.21616 13.5085Z" fill="black"/>
<path fill-rule="evenodd" clip-rule="evenodd" d="M5.87408 9.9373C5.99777 9.75006 6.04592 9.60012 6.01905 9.48728C5.99198 9.37444 5.85754 9.23256 5.61554 9.06165L2.93311 7.16455L3.46279 6.41528L6.17106 8.33015C6.59049 8.62703 6.83456 8.90541 6.90317 9.1655C6.97168 9.4259 6.88747 9.73383 6.65042 10.0903L5.87408 9.9373Z" fill="black"/>
<path fill-rule="evenodd" clip-rule="evenodd" d="M7.14525 4.07917L8.38731 4.89881L7.51993 5.53999L7.14525 4.07917ZM7.86786 6.94646L7.67907 6.19874L8.94542 5.26285L9.57937 5.68156L10.3585 5.10558L7.04036 3.0105L6.19189 3.63763L7.08294 7.52637L7.86786 6.94646Z" fill="black"/>
<path fill-rule="evenodd" clip-rule="evenodd" d="M10.9138 4.82928L12.0025 2.6413L10.1997 1.23906L11.3227 0.986931L12.41 1.84201L13.0325 0.603151L14.1502 0.352051L13.1077 2.38234L15.0821 3.89339L13.9338 4.151L12.7149 3.19981L12.0256 4.57973L10.9138 4.82928Z" fill="black"/>
<path d="M6.1164 21.223C6.12095 21.2221 7.70071 20.8446 11.2135 22.3823C11.2723 22.4033 11.9038 22.6253 12.364 22.6909C12.3541 22.6606 12.3188 22.6042 12.217 22.5027C12.127 22.4123 12.0368 22.3223 12.217 22.1421C12.3974 21.9619 12.4876 22.0518 12.5776 22.1421C13.3115 22.8758 12.5648 23.1918 12.5628 23.193L12.4401 23.2149C11.9023 23.1703 11.0379 22.8596 11.0354 22.8591L11.0204 22.853C7.65452 21.3778 6.22811 21.7205 6.22397 21.721C6.09935 21.7487 5.97473 21.7758 5.921 21.5269C5.86737 21.2775 5.99189 21.2504 6.1164 21.223ZM13.638 15.6722C13.529 15.7682 13.2423 16.0455 13.202 16.3417L13.1843 16.4708L13.0704 16.5315C13.0689 16.5326 12.5236 16.828 11.8441 16.9414C11.7183 16.9619 11.5926 16.9831 11.5507 16.7319C11.509 16.4812 11.6346 16.4602 11.7603 16.4391C12.191 16.3673 12.5573 16.2138 12.7274 16.1339C12.8261 15.7842 13.0952 15.4883 13.2512 15.3394L13.0176 13.8601L13.418 13.6149L14.8064 14.6246C14.9075 14.6805 14.9451 14.7356 14.9506 14.79C14.9581 14.8369 14.943 14.8955 14.8895 14.974C14.5451 15.6388 14.7366 15.7482 14.7371 15.7486L14.7719 15.7735C15.1155 16.0642 15.2177 16.5502 15.2177 16.5515L15.2199 16.5613C15.4487 17.8725 15.0403 18.3636 14.9381 18.4635C14.7302 18.7197 14.4058 19.4814 14.3432 19.6303C14.1802 20.4573 13.3867 20.4792 13.22 20.4746C12.5218 20.6133 12.2704 20.7567 12.2697 20.7573L12.2447 20.7701C11.5385 21.0815 11.0036 20.8918 10.8507 20.8233C10.2434 20.6938 10.043 20.4078 10.0425 20.4071L10.0116 20.3472C9.79879 19.7625 9.4705 19.653 9.46947 19.6526L9.3868 19.6067C8.45649 18.8361 9.10935 17.9655 9.11121 17.9628L9.13508 17.9342C9.1885 17.8807 9.32077 17.6912 9.44384 17.509C9.37016 17.4891 9.3155 17.4313 9.3155 17.2643C9.3155 17.0093 9.44301 17.0093 9.57042 17.0093H9.79548C9.83847 16.9803 9.89396 16.9727 9.97528 17.0093H10.3143C10.4417 17.0093 10.5695 17.0093 10.5695 17.2643C10.5695 17.5192 10.4417 17.5192 10.3143 17.5192H10.0476C9.91153 17.7261 9.62963 18.1483 9.51039 18.2791C9.458 18.3588 9.21651 18.7821 9.68636 19.1928C9.83351 19.2631 10.2309 19.5024 10.473 20.1297C10.5115 20.1665 10.6388 20.2614 10.9805 20.3297L11.0553 20.3577C11.0564 20.3582 11.4324 20.5708 12.0366 20.3053C12.1224 20.2618 12.4665 20.1025 13.157 19.9684L13.2208 19.9632C13.2222 19.9632 13.7595 20.0079 13.8465 19.5157L13.8623 19.463C13.8636 19.46 14.2823 18.4464 14.563 18.1191L14.5969 18.0853C14.5976 18.0846 14.9246 17.8377 14.7182 16.652C14.7067 16.6031 14.6339 16.3234 14.4431 16.162L14.4453 16.1638C14.3348 16.0761 14.002 15.7291 14.35 14.9227L13.6153 14.3886L13.7654 15.3389C13.819 15.4282 13.8133 15.4893 13.7821 15.5384C13.772 15.5949 13.7354 15.6433 13.638 15.6722ZM20.1549 25.0771V25.0777V25.0782C20.1554 25.0953 20.162 25.2695 20.1756 25.2569L20.1817 25.2523C20.1829 25.2512 20.5925 24.9137 20.7519 23.3804L20.7569 23.3492C20.758 23.345 21.1054 21.8016 22.3007 23.28C22.3791 23.36 23.0694 24.0499 23.1073 23.4614C23.025 23.2152 22.6405 22.0646 22.5615 21.8421C22.4816 21.7029 22.0057 20.7769 23.4876 20.7495H23.5055C23.5082 20.7495 24.4313 20.7936 25.406 21.1478C25.5256 21.1914 25.6456 21.2349 25.559 21.474C25.4723 21.7131 25.3523 21.6698 25.2328 21.6261C24.3805 21.3165 23.563 21.2643 23.4838 21.2598C22.8028 21.276 23.008 21.5937 23.0085 21.5944L23.0282 21.6384C23.1002 21.8303 23.6035 23.3423 23.6051 23.3465L23.6191 23.4312C23.5877 25.3735 21.9316 23.6296 21.9266 23.6249L21.9116 23.6081C21.4171 22.9924 21.2765 23.3799 21.2557 23.4517C21.0727 25.1747 20.5121 25.639 20.5101 25.6404L20.5164 25.6356C19.8321 26.2514 19.6842 25.4978 19.6529 25.2021C19.6453 25.1682 19.6448 25.1309 19.6448 25.0934V25.0928C19.6437 25.0647 19.6428 25.0369 19.6448 25.01V23.6824C19.6448 22.6182 19.2354 22.9484 19.1715 23.0063C17.7225 24.6025 16.9136 27.1531 16.9114 27.1603C16.8723 27.2818 16.8335 27.4031 16.5913 27.3254C16.3493 27.2478 16.3884 27.1264 16.4271 27.0051C16.4296 26.9974 17.2726 24.338 18.7974 22.6607L18.8083 22.6496C18.8122 22.6462 20.1373 21.3245 20.1541 23.6382C20.1548 23.6528 20.1548 23.6674 20.1548 23.6824V23.6885V23.6944V23.7005V25.0771H20.1549ZM19.1665 23.011C19.1643 23.0131 19.1632 23.0145 19.1632 23.0145L19.1665 23.011ZM21.2529 23.4618C21.2529 23.4625 21.2529 23.4629 21.2529 23.4629V23.4618ZM10.9723 12.523C10.9715 12.524 10.6612 12.873 10.8158 12.8856C10.9698 12.8704 11.8872 12.811 11.8872 13.5661V13.5453C11.8874 13.5477 11.9881 14.4967 10.9541 14.2382L10.8694 14.2001C10.8692 14.2001 10.7963 14.1472 10.8203 14.7045C10.8239 14.7302 10.8244 14.7573 10.8245 14.7846L10.8246 14.7857C10.8264 14.8215 10.8284 14.8571 10.8246 14.8903V15.7731C11.0187 16.027 11.522 16.8063 10.3729 16.7993C10.3371 16.8054 10.298 16.8016 10.2585 16.7963C10.213 16.7942 10.1676 16.7922 10.1285 16.7784L9.62188 16.7082C9.49561 16.6913 9.36923 16.6736 9.40313 16.4217C9.43702 16.1695 9.56329 16.187 9.68957 16.2044L10.2856 16.2863C10.5095 16.2956 10.4738 16.1757 10.4266 16.0963C10.3511 16.0687 10.3263 16.0155 10.3184 15.954C10.2832 15.9003 10.2679 15.8416 10.3145 15.7668V14.8115C10.2348 13.3478 10.9238 13.6434 11.1144 13.7521C11.4018 13.8073 11.3772 13.5876 11.3772 13.587V13.5661C11.3772 13.3265 10.857 13.3938 10.8555 13.394L10.8246 13.3959C9.51194 13.3959 10.5888 12.1896 10.5919 12.1862C10.6764 12.0908 10.7611 11.9954 10.9513 12.1637C11.1416 12.3322 11.0569 12.4278 10.9723 12.523ZM9.49168 12.2952C9.49044 12.2941 9.06316 11.8455 9.00261 11.7245C8.98287 11.6854 8.96892 11.6509 8.9589 11.6215C8.8349 11.439 8.37134 10.6399 9.87081 10.784L9.91979 10.7929C9.93116 10.7963 13.8478 11.9155 19.9516 17.9552L19.9495 17.9532C19.9519 17.9556 20.8368 18.8076 19.6314 19.1661L19.6113 19.171C19.61 19.1714 19.1011 19.2674 19.1455 19.8003C19.2798 19.9929 19.5199 20.5058 18.5172 20.7627L18.4964 20.7666C18.4946 20.767 17.8461 20.869 17.5633 21.001L17.4994 21.022C17.4972 21.0224 16.7536 21.1667 16.8393 19.8824L16.8523 19.8197C16.8526 19.8182 17.0225 19.3087 16.7646 18.97C16.6886 18.8706 16.5729 18.8461 16.4697 18.8244C16.1205 18.7508 15.8384 18.6914 15.9041 17.9429C15.9041 17.9201 15.9081 17.6316 16.0081 17.3819C16.0553 17.2638 16.1027 17.1453 16.3387 17.2398C16.5748 17.3347 16.5275 17.4531 16.4801 17.5712C16.4142 17.7364 16.4142 17.9437 16.4142 17.9439L16.4119 17.9679C16.3817 18.2856 16.4673 18.3038 16.5731 18.3263C16.7642 18.3663 16.9792 18.4121 17.1689 18.6612C17.5355 19.1421 17.3921 19.7792 17.3478 19.9407C17.3175 20.4219 17.376 20.5039 17.4009 20.5172C17.7372 20.3779 18.3029 20.2825 18.3986 20.267C18.8005 20.1624 18.7157 20.0741 18.7153 20.0737L18.6487 19.9372C18.4943 18.9337 19.3813 18.7009 19.4956 18.6751C19.8513 18.5647 19.5953 18.3186 19.5948 18.3178L19.5926 18.3159C13.8308 12.6145 10.1034 11.3824 9.79538 11.2876C9.30434 11.2439 9.39083 11.351 9.39114 11.3511L9.44301 11.5046C9.44301 11.5047 9.44301 11.4662 9.45841 11.4972C9.4829 11.5462 9.861 11.9454 9.86193 11.9465C9.94935 12.0393 10.0368 12.1322 9.85139 12.3068C9.66632 12.4808 9.5791 12.3879 9.49168 12.2952ZM15.5975 19.8791C15.5967 19.8823 15.291 21.0401 14.9969 21.5379L14.983 21.5589C14.9815 21.5609 14.4749 22.2489 15.06 21.9292L15.0909 21.9142C15.0934 21.9132 15.9252 21.5844 16.4683 21.5166C16.5948 21.5008 16.7213 21.4849 16.7523 21.7382C16.7831 21.991 16.6565 22.0069 16.5302 22.0227C16.0862 22.0783 15.381 22.3478 15.2837 22.3859C12.8112 23.7301 14.4284 21.4569 14.5637 21.2702C14.8207 20.8276 15.1048 19.7525 15.1056 19.7496C15.1383 19.6264 15.1713 19.5031 15.4173 19.5678C15.6633 19.6326 15.6303 19.7559 15.5975 19.8791ZM22.2664 6.45696C22.8549 6.61909 25.2925 7.50517 25.2925 11.0582V11.0553C25.2928 11.0706 25.4268 16.43 20.4152 16.43H20.4341C20.4275 16.4304 18.1339 16.6368 16.993 13.9801L16.9848 13.9572C16.9832 13.9521 16.4029 12.1128 15.4289 12.1261L15.3721 12.1202C15.3714 12.1199 15.0906 12.0518 14.6777 12.3873C14.5788 12.4674 14.48 12.548 14.3195 12.3507C14.1591 12.1534 14.258 12.0729 14.357 11.9926C14.8739 11.5727 15.3232 11.5989 15.4464 11.6163C16.712 11.623 17.3915 13.5674 17.4629 13.7823C18.4581 16.095 20.3905 15.9201 20.3962 15.9196H20.4154C24.9035 15.9196 24.7827 11.075 24.7827 11.0611V11.0582C24.7827 8.18903 23.0596 7.27133 22.3439 7.01362V8.55235C23.6641 9.51624 23.6987 10.6126 23.6987 10.6158C23.705 10.7431 23.7111 10.8705 23.456 10.8825C23.2007 10.8944 23.1948 10.7671 23.1887 10.6398C23.1885 10.6372 23.1621 9.75629 22.0005 8.9321C21.8997 8.91557 21.8599 8.86886 21.8438 8.80976C21.8065 8.76408 21.7923 8.7057 21.8336 8.61642V6.78515C21.8256 6.75136 21.8247 6.70806 21.8336 6.65236C21.8342 6.57434 21.8402 6.49933 21.9113 6.45644C21.9659 6.39868 22.0383 6.40591 22.1123 6.42028C22.1834 6.42276 22.2324 6.43619 22.2664 6.45696ZM17.4683 13.7992C17.4687 13.8008 17.469 13.8016 17.4692 13.8018L17.4683 13.7992ZM9.91638 13.5701C9.91421 13.5733 9.18168 14.7879 9.10542 14.9783L9.06946 15.0412C9.06895 15.0419 8.86125 15.306 9.12857 15.3562L9.19532 15.3782C9.19563 15.3784 9.31147 15.4363 9.50687 15.4363C9.63439 15.4363 9.7619 15.4363 9.7619 15.6913C9.7619 15.9466 9.63449 15.9466 9.50687 15.9466C9.2658 15.9466 9.07845 15.8809 9.00374 15.8501C8.06444 15.6556 8.53936 14.9081 8.64848 14.7543C8.78891 14.4522 9.47784 13.3105 9.48001 13.3071C9.54573 13.1981 9.61145 13.0887 9.82958 13.2201C10.0479 13.3517 9.98221 13.4608 9.91638 13.5701ZM8.96871 15.8345C8.96861 15.8345 8.9683 15.8345 8.9683 15.8345H8.96871ZM14.7193 16.6556L14.7198 16.6587C14.7198 16.6587 14.7196 16.6578 14.7193 16.6556ZM14.4773 16.1863L14.478 16.1867C14.4781 16.1866 14.4778 16.1866 14.4773 16.1863ZM10.9438 10.1017C10.9463 10.1017 11.8443 10.1024 13.9643 8.72502L13.9563 8.72998C13.9635 8.72502 16.4605 6.96226 18.4522 6.94562H18.4613C18.4651 6.94583 19.8736 6.97931 20.8143 7.62917C20.9191 7.70161 21.0241 7.77415 20.8797 7.9833C20.7353 8.19255 20.6304 8.12001 20.5255 8.04767C19.7318 7.49939 18.5106 7.45774 18.4498 7.45609C16.617 7.4752 14.256 9.14166 14.249 9.14631L14.2411 9.15138C11.9939 10.6114 10.9526 10.6118 10.9495 10.6118C10.8221 10.6132 10.6946 10.6151 10.6915 10.3599C10.6888 10.105 10.8163 10.1034 10.9438 10.1017ZM20.9203 20.5158C20.9186 20.5158 20.3082 20.5621 20.3037 21.1049C20.3059 21.1436 20.3438 21.5567 20.8987 21.5567L20.9693 21.5679C20.9703 21.5681 21.3395 21.6892 21.5956 21.0009C21.6401 20.8816 21.6846 20.7618 21.9227 20.8504C22.161 20.9391 22.1163 21.0588 22.0717 21.1783C21.7061 22.1608 21.0473 22.1019 20.8717 22.0666C19.822 22.0511 19.7934 21.1222 19.7934 21.1196V21.1108C19.7934 20.0864 20.8735 20.0057 20.8765 20.0054C21.0036 19.9942 21.1306 19.9827 21.1525 20.2378C21.1744 20.4927 21.0473 20.5045 20.9203 20.5158ZM11.3765 24.2814C11.3809 24.2823 12.9085 24.5251 13.0967 26.5712C13.1082 26.6982 13.1199 26.825 12.867 26.8478C12.6139 26.871 12.6022 26.7438 12.5907 26.6169C12.4386 24.9649 11.296 24.7841 11.2928 24.7835C11.1671 24.7621 11.0414 24.7409 11.0833 24.4897C11.1252 24.2388 11.2508 24.2602 11.3765 24.2814Z" fill="black"/>
</svg>
