<svg width="28" height="32" viewBox="0 0 28 32" fill="none" xmlns="http://www.w3.org/2000/svg">
<path fill-rule="evenodd" clip-rule="evenodd" d="M13.5935 0.140869C17.8154 0.140869 21.9027 1.00942 25.7447 2.72093C26.5433 5.97078 27.0465 9.36065 27.0581 11.582C27.0585 11.622 27.0585 11.6622 27.0585 11.7024C27.0585 13.8915 26.7436 16.0303 26.1223 18.0617C25.5098 20.0608 24.5991 21.9561 23.4208 23.6833C22.2587 25.3888 20.8259 26.9538 19.1616 28.3351C17.3953 29.8014 15.3185 31.1198 13.5935 31.872C11.8686 31.1198 9.79176 29.8014 8.02492 28.3351C6.36096 26.9538 4.92778 25.3888 3.76612 23.6833C2.5879 21.9561 1.6772 20.0608 1.0648 18.0617C0.443323 16.0301 0.128418 13.8913 0.128418 11.7018L0.128797 11.582C0.140355 9.36103 0.643217 5.97097 1.44204 2.72093C5.2838 1.00942 9.3717 0.140869 13.5935 0.140869Z" fill="white"/>
<path fill-rule="evenodd" clip-rule="evenodd" d="M13.5942 12.6432C14.5285 12.6432 15.4098 12.8841 16.1709 13.3106H24.0162C24.0321 12.762 24.0225 12.1461 24.0115 11.5636C23.9656 9.16128 23.2672 5.10598 22.5827 2.29286C19.8001 1.3923 16.8142 0.86499 13.5958 0.86499L13.5942 12.6432Z" fill="#C42333"/>
<path fill-rule="evenodd" clip-rule="evenodd" d="M13.596 0.874268C10.4494 0.874268 7.55196 1.34378 4.6155 2.28907C3.89323 5.20431 3.29582 9.06445 3.2062 10.9175C3.07508 13.6313 3.27156 15.5926 3.81497 17.7397C4.12022 18.9464 4.52569 20.0812 5.04219 21.2302C5.59982 20.9367 6.17979 20.5695 6.76413 20.1331C7.37859 19.6748 7.91196 19.0895 8.3487 18.5338C8.28908 18.0205 8.30472 17.5013 8.39512 16.9926C7.30981 17.0305 6.69327 17.0445 6.20935 17.0445C5.62558 17.0445 5.09316 16.6381 4.83491 16.0159H4.56169C4.35554 16.0159 4.00615 15.8398 4.00615 15.1795C4.00615 14.5196 4.35554 14.3434 4.56169 14.3434H4.83415C5.09241 13.7193 5.62539 13.3115 6.20954 13.3115H11.0201C11.8069 12.8713 12.6938 12.6409 13.5954 12.6423L13.596 0.874268Z" fill="#C9222E"/>
<path fill-rule="evenodd" clip-rule="evenodd" d="M8.81774 27.3013C7.33473 25.8244 6.10997 24.1921 5.14081 22.4497C4.15725 20.6811 3.45886 18.7116 3.04637 16.7427C2.62214 14.7175 2.48875 12.6715 2.63123 10.5034C2.76519 8.4618 3.30387 5.36978 3.9693 2.50911C3.32989 2.73369 2.6985 2.98047 2.07627 3.249C1.37635 6.05947 0.884856 9.62498 0.874814 11.5743C0.863446 13.747 1.17267 15.852 1.77804 17.8316C2.41315 19.9071 3.25498 21.5963 4.38254 23.2514C5.50498 24.8988 6.89079 26.412 8.50132 27.7487C10.0061 28.9981 11.7224 30.0967 13.5919 31.023C13.5917 31.0232 13.5921 31.0228 13.5919 31.023C11.8139 29.9314 10.2035 28.6815 8.81774 27.3013ZM18.3672 27.3021C19.85 25.8252 21.075 24.1927 22.0437 22.4503C23.0273 20.6817 23.7257 18.7121 24.1384 16.7435C24.5624 14.7182 24.696 12.6723 24.5535 10.5041C24.4196 8.46237 23.8792 5.36732 23.2139 2.50684C23.8544 2.73197 24.4869 2.97932 25.1102 3.24844C25.8103 6.05871 26.2999 9.62574 26.3099 11.575C26.3215 13.7479 26.0121 15.853 25.4065 17.8324C24.816 19.7597 23.938 21.5869 22.802 23.2521C21.6796 24.8994 20.2938 26.4129 18.6832 27.7496C17.1786 28.9987 15.4626 30.0974 13.5928 31.0237C13.5927 31.0236 13.5928 31.0239 13.5928 31.0237C15.3712 29.932 16.9814 28.6822 18.3672 27.3021Z" fill="#3B5694"/>
<path fill-rule="evenodd" clip-rule="evenodd" d="M13.5899 12.907C10.8183 12.907 8.57129 15.1538 8.57129 17.925C8.57129 20.6968 10.8183 22.9436 13.5899 22.9436C16.3611 22.9436 18.6083 20.6968 18.6083 17.925C18.6083 15.1538 16.3611 12.907 13.5899 12.907Z" fill="#B9A75B"/>
<path fill-rule="evenodd" clip-rule="evenodd" d="M13.5935 23.2055C11.8883 23.2055 10.3689 22.3966 9.40313 21.1423C8.22385 21.8155 6.98583 22.3464 5.80029 22.71C6.73572 24.3545 7.89871 25.8917 9.29608 27.2985C10.557 28.5684 12.0002 29.7283 13.5935 30.7606V23.2055Z" fill="#C9222E"/>
<path fill-rule="evenodd" clip-rule="evenodd" d="M6.20426 16.7829C5.66142 16.7829 5.19702 16.3553 5.01285 15.7543H4.5566C4.43856 15.7543 4.26367 15.6114 4.26367 15.1805C4.26367 14.7497 4.43856 14.6068 4.5566 14.6068H5.01228C5.19645 14.0047 5.66104 13.575 6.20426 13.575H10.593C9.52763 14.3105 8.74586 15.4276 8.4446 16.7282C7.4726 16.7619 6.72702 16.7829 6.20426 16.7829Z" fill="#B9A75B"/>
<path fill-rule="evenodd" clip-rule="evenodd" d="M25.8547 2.61625C22.1274 0.946421 18.0257 0 13.5937 0C9.16174 0 5.05945 0.946421 1.33231 2.61625C0.472673 6.09518 0.0111152 9.46989 0.000315254 11.5691C-0.0114321 13.8136 0.305178 16.006 0.941809 18.0866C1.5581 20.0981 2.47442 22.0051 3.65981 23.7431C4.82848 25.458 6.26962 27.0322 7.94305 28.4212C9.51719 29.7278 11.6491 31.1614 13.5937 32C15.5381 31.1614 17.6701 29.7278 19.244 28.4212C20.9178 27.0322 22.3588 25.4579 23.5274 23.7431C24.7128 22.0051 25.6291 20.0981 26.2452 18.0866C26.8821 16.0062 27.1989 13.8136 27.1871 11.5691C27.1758 9.46989 26.7144 6.09518 25.8547 2.61625ZM22.8038 23.2501C21.6814 24.8978 20.2956 26.4109 18.6851 27.7476C17.1801 28.9968 15.4617 30.0962 13.5922 31.0225C11.7227 30.096 10.007 28.9968 8.50199 27.7476C6.89147 26.4107 5.50566 24.8978 4.38303 23.2501C4.29417 23.1198 4.20739 22.9879 4.12174 22.8554C5.76164 22.5786 7.57433 21.8827 9.24776 20.9289C8.82213 20.3167 8.5318 19.6208 8.39608 18.8877C7.97677 19.4029 7.47694 19.9256 6.90663 20.3514C5.98143 21.0422 4.8641 21.7277 3.65564 22.0994C2.86546 20.7547 2.23552 19.322 1.77871 17.8306C1.17335 15.8519 0.864125 13.7467 0.875494 11.574C0.885725 9.62469 1.37703 6.05899 2.07676 3.24852C5.72109 1.67533 9.59355 0.875747 13.5935 0.875747C17.5933 0.875747 21.466 1.67551 25.1101 3.24852C25.8102 6.05899 26.3013 9.62469 26.3118 11.574C26.3153 12.2423 26.2881 12.9104 26.2303 13.5762L16.5823 13.5758C17.7758 14.3992 18.6133 15.7011 18.8183 17.205L20.6579 16.7667C21.0686 16.6742 21.2384 16.397 21.281 16.1433L25.9099 15.8301C25.7764 16.505 25.6091 17.1727 25.4085 17.8308C24.8178 19.7579 23.9397 21.5849 22.8038 23.2501Z" fill="#B9A75B"/>
<path fill-rule="evenodd" clip-rule="evenodd" d="M13.9232 19.3126V22.0166C15.1851 21.9154 16.2858 21.2436 16.9677 20.2592L14.6264 18.9074C14.4362 19.1077 14.1919 19.2485 13.9232 19.3126ZM13.2584 13.8333C11.9955 13.9344 10.8941 14.6069 10.2124 15.5919L12.5494 16.9404C12.7405 16.7374 12.987 16.595 13.2584 16.5308V13.8333ZM13.5894 17.1941C13.3959 17.1941 13.2103 17.271 13.0734 17.4078C12.9366 17.5447 12.8597 17.7303 12.8597 17.9238C12.8597 18.1173 12.9366 18.3029 13.0734 18.4397C13.2103 18.5766 13.3959 18.6535 13.5894 18.6535C13.6852 18.6534 13.78 18.6345 13.8685 18.5978C13.957 18.5611 14.0374 18.5073 14.1051 18.4395C14.1728 18.3718 14.2265 18.2913 14.2631 18.2028C14.2997 18.1143 14.3185 18.0194 14.3185 17.9236C14.3185 17.8278 14.2997 17.733 14.263 17.6445C14.2264 17.556 14.1727 17.4756 14.105 17.4079C14.0373 17.3401 13.9569 17.2864 13.8685 17.2497C13.78 17.213 13.6852 17.1942 13.5894 17.1941ZM13.9232 13.8333V16.5308C14.1943 16.5951 14.4406 16.7375 14.6315 16.9404L16.9685 15.5921C16.2869 14.6071 15.1859 13.9348 13.9232 13.8333ZM13.2584 19.3128C12.9894 19.249 12.7448 19.1081 12.5547 18.9074L10.2134 20.2592C10.267 20.3366 10.3236 20.4122 10.3822 20.4853C11.0698 21.3455 12.0956 21.9234 13.2586 22.0166L13.2584 19.3128ZM14.961 18.3325L17.301 19.6836C17.7618 18.7387 17.8901 17.3872 17.3017 16.1678L14.9629 17.5168C15.042 17.783 15.0413 18.0666 14.961 18.3325Z" fill="white"/>
<path fill-rule="evenodd" clip-rule="evenodd" d="M10.6011 15.5159L12.5079 16.615C12.6533 16.4941 12.8185 16.3994 12.9962 16.335L12.9953 14.1333C12.0511 14.2748 11.1956 14.7688 10.6011 15.5159ZM14.1895 14.1354L14.1857 16.342C14.3636 16.4072 14.5224 16.4932 14.6679 16.6146L16.5793 15.5161C15.9864 14.7697 15.1323 14.2762 14.1895 14.1354ZM17.4151 17.5268C17.3798 17.1905 17.2991 16.8606 17.1752 16.5461L15.2612 17.6465C15.2848 17.774 15.2915 17.904 15.2809 18.0332C15.8394 17.8801 16.4022 17.7433 16.9687 17.6228C17.1176 17.5914 17.2664 17.5593 17.4151 17.5268Z" fill="#B9A75B"/>
<path fill-rule="evenodd" clip-rule="evenodd" d="M13.5938 30.7608C15.1874 29.7285 16.6335 28.565 17.8944 27.2953C19.3721 25.8072 20.5906 24.165 21.5518 22.4137C22.5276 20.6357 23.2167 18.6589 23.619 16.6839C23.6501 16.5311 23.6792 16.3854 23.7067 16.2329L21.4838 16.3921C21.3661 16.7039 21.1005 16.9347 20.7271 17.0187L20.7308 17.0179C20.7157 17.0215 19.9011 17.224 18.8501 17.466C18.863 17.617 18.8698 17.7699 18.8698 17.9242C18.8698 20.8413 16.5088 23.2055 13.5941 23.2055V30.7608H13.5938Z" fill="#C42333"/>
<path fill-rule="evenodd" clip-rule="evenodd" d="M14.0587 17.9236C14.0585 17.799 14.009 17.6797 13.9209 17.5917C13.8329 17.5036 13.7135 17.4541 13.589 17.4539C13.4645 17.454 13.3451 17.5035 13.257 17.5916C13.1689 17.6796 13.1193 17.799 13.1191 17.9236C13.1192 18.0482 13.1688 18.1677 13.2569 18.2559C13.3449 18.344 13.4644 18.3936 13.589 18.3938C13.7136 18.3936 13.833 18.3439 13.9211 18.2558C14.0091 18.1676 14.0586 18.0482 14.0587 17.9236Z" fill="#B9A75B"/>
<path fill-rule="evenodd" clip-rule="evenodd" d="M14.1852 21.7166C15.1297 21.5756 15.9857 21.0824 16.5813 20.3361L14.6614 19.2314C14.5198 19.3508 14.3586 19.4448 14.1851 19.5094C14.1852 19.5092 14.1887 21.7168 14.1852 21.7166Z" fill="#C42333"/>
<path fill-rule="evenodd" clip-rule="evenodd" d="M10.6021 20.3365L12.5137 19.23C12.6575 19.3488 12.8206 19.4422 12.9959 19.506L12.9913 21.7159C12.049 21.575 11.1952 21.0821 10.6021 20.3365Z" fill="#C9222E"/>
<path fill-rule="evenodd" clip-rule="evenodd" d="M17.4333 17.9277C17.4333 17.876 17.4321 17.8237 17.4299 17.772C17.2855 17.8036 17.1468 17.8334 17.0161 17.861C16.4613 17.9793 15.9101 18.1139 15.3633 18.2646L17.1722 19.3088C17.3454 18.869 17.434 18.4004 17.4333 17.9277Z" fill="#C42333"/>
<path fill-rule="evenodd" clip-rule="evenodd" d="M9.87686 16.1714C9.33534 17.3168 9.36964 18.6069 9.88444 19.6888L12.2178 18.3342C12.1371 18.0673 12.1363 17.7826 12.2157 17.5153L9.87686 16.1714Z" fill="white"/>
<path fill-rule="evenodd" clip-rule="evenodd" d="M10.0123 19.3137L11.9154 18.2077C11.8828 18.0216 11.883 17.8311 11.9158 17.645L10.0061 16.5489C9.65842 17.4381 9.66065 18.426 10.0123 19.3137ZM15.5018 9.33014C15.4966 9.43359 15.4703 9.77938 15.4614 9.88264H16.9819C16.8931 9.47546 16.8569 8.91216 16.841 8.49153L16.8176 7.61407C16.8146 7.53014 16.8383 7.46079 16.8864 7.41039C16.9077 7.38779 16.9333 7.36968 16.9617 7.35712C16.9902 7.34456 17.0208 7.33781 17.0518 7.33725C17.1229 7.33631 17.2421 7.33498 17.2514 7.58281L17.2843 8.51597C17.2999 8.93603 17.3057 9.5253 17.2502 9.88264H18.7327C18.7082 9.75513 18.666 9.44913 18.6561 9.365C18.8422 9.75929 19.2404 9.96127 19.7744 9.96127C20.0904 9.96127 20.3369 9.84759 20.5171 9.73523L20.5937 9.88264H23.3317C23.2099 9.47073 23.1349 8.89946 23.0868 8.47466C23.0868 8.47258 22.7122 5.40709 22.7122 5.40709L21.3015 5.17953C21.4152 5.56264 21.4999 6.15001 21.5477 6.57254L21.7589 8.53245C21.7993 8.8898 21.8359 9.27235 21.8326 9.65717L21.8323 9.70473L21.776 9.56622C21.6786 9.3273 21.6153 8.99136 21.5825 8.53908L21.5236 7.90984C21.4495 6.91416 20.9012 6.4598 19.7119 6.4598C19.5095 6.4598 19.0044 6.51039 18.6978 6.59812L18.7804 7.7325L19.0972 7.53772C19.357 7.37837 19.5662 7.31035 19.7966 7.31035C19.9853 7.31035 20.1082 7.38121 20.1655 7.50986C19.9025 7.55034 19.6462 7.62572 19.4032 7.73401C18.9828 7.92235 18.7078 8.19349 18.5976 8.519L18.5964 8.49153L18.5479 7.45189C18.5227 6.78001 18.1042 6.36109 17.4558 6.36109C17.1568 6.36109 16.8912 6.44673 16.6602 6.61233C16.6486 6.57375 16.6344 6.53602 16.6176 6.4994L16.5602 6.3789L15.3422 6.323C15.3974 6.54203 15.4726 7.15328 15.4887 7.39296C15.4239 7.06233 15.2515 6.70991 14.924 6.48178C14.6756 6.30879 14.3638 6.21728 14.0218 6.21728C13.5693 6.21728 13.1132 6.40694 12.8012 6.72507C12.4929 7.03921 12.3233 7.46951 12.3059 7.9754C12.1909 7.8494 12.0386 7.74178 11.8481 7.65311L11.2884 7.38652L11.2606 7.37306C11.1262 7.31035 11.1215 7.28856 11.1245 7.25256C11.1291 7.19515 11.2581 7.13357 11.4423 7.13357C11.6721 7.13357 12.005 7.24953 12.2745 7.42195L12.297 6.42058C12.0979 6.3302 11.8193 6.25688 11.4214 6.25688C11.214 6.25688 10.8144 6.28587 10.4703 6.48064C10.3754 6.53445 10.2891 6.59622 10.2134 6.66405L10.2287 6.3698C9.90489 6.33323 9.5574 6.32357 9.13336 6.71635C9.11931 6.63402 9.09924 6.55283 9.07329 6.47344L7.75797 6.55397C7.85593 6.9062 7.86767 7.44052 7.84115 7.91685C7.8316 8.10323 7.82212 8.28961 7.81273 8.47599C7.79795 8.73841 7.78298 9.00633 7.75645 9.25719C7.64694 8.91746 7.52605 8.45382 7.43492 8.06805L6.7854 5.14429L4.93045 5.40955C4.94637 5.44688 4.97271 5.54161 4.98502 5.63408C5.00113 5.75648 4.9962 6.0098 4.81961 6.52384C4.52195 7.39088 4.09317 8.67134 3.68429 9.55542C3.62706 9.67915 3.5293 9.88245 3.5293 9.88245H4.97422C4.99279 9.65622 5.0881 9.28239 5.18113 9.01069L6.14631 8.9853C6.1914 9.19504 6.25108 9.49271 6.26378 9.66626L6.27951 9.88245H9.18679C9.11801 9.4262 9.14454 8.79525 9.16462 8.43753C9.18717 8.03092 9.27224 7.77134 9.44049 7.59626C9.57085 7.46079 9.72641 7.4282 9.83517 7.42498C9.8202 7.96896 10.1781 8.22247 10.4962 8.3822L11.0645 8.67153C11.2689 8.77839 11.2646 8.83334 11.2619 8.86953C11.2536 8.97866 11.0893 9.02111 10.9383 9.0177C10.6421 9.01125 10.2327 8.80681 9.77075 8.32934L9.74611 9.6242C10.1122 9.82997 10.5555 9.90405 10.9591 9.90405C11.6179 9.90405 12.325 9.61757 12.5157 9.0033C12.8402 9.62382 13.4892 9.91031 14.1284 9.91031C14.7007 9.91012 15.1281 9.72614 15.5018 9.33014ZM5.53601 8.03357L5.79862 7.27757C5.87593 7.64439 5.91629 7.83671 5.95456 8.01974L5.53601 8.03357ZM13.6557 7.70862L13.6555 7.69801C13.6555 7.2573 13.8204 7.0845 13.9757 7.07029C14.0223 7.06593 14.1466 7.05437 14.2037 7.26109C14.2255 7.34142 14.2351 7.40168 14.2351 7.44753C14.2351 7.56728 14.1707 7.59039 14.0945 7.61749L14.0902 7.61919L13.6587 7.78479C13.6576 7.7594 13.6557 7.7342 13.6557 7.70862ZM15.1677 8.60843C14.8943 8.84224 14.6902 8.9978 14.3585 8.99117C14.0976 8.98586 13.9365 8.81022 13.8374 8.61317L15.4987 7.98923L15.5069 8.51389V8.51654C15.5135 8.6937 15.5154 8.86725 15.5124 9.03873V9.04517L15.1677 8.60843ZM20.1173 9.02414C19.8646 9.03342 19.8098 8.86176 19.806 8.73727C19.8072 8.60692 19.8504 8.4129 20.253 8.30414L20.2729 8.58001L20.2814 8.70487C20.2873 8.79374 20.293 8.87445 20.3017 8.96237C20.249 8.99818 20.188 9.02149 20.1173 9.02414Z" fill="#B9A75B"/>
<path fill-rule="evenodd" clip-rule="evenodd" d="M12.0705 6.57764C11.9424 6.53047 11.7361 6.4848 11.4246 6.4848C11.1683 6.4848 10.8425 6.5335 10.5845 6.67939C10.29 6.84613 10.0831 7.11272 10.0644 7.39465C10.0363 7.81415 10.2686 8.01404 10.5974 8.17908C10.8211 8.29143 11.0343 8.39962 11.1688 8.47011C11.3494 8.56465 11.5053 8.68023 11.4896 8.88941C11.4737 9.10181 11.2776 9.24543 10.9413 9.24543C10.6631 9.24543 10.262 9.08211 9.98935 8.83314L9.97741 9.48625C10.2156 9.60562 10.6049 9.67667 10.9576 9.67667C11.5694 9.67667 12.3256 9.39663 12.339 8.68175C12.3487 8.17301 11.9754 7.96251 11.7547 7.85981C11.5664 7.77179 11.3787 7.68242 11.1917 7.59171C11.0908 7.54263 10.8795 7.464 10.8981 7.23228C10.9161 7.01154 11.1679 6.90657 11.4405 6.90657C11.67 6.90657 11.8915 6.96986 12.0616 7.06194L12.0705 6.57764ZM6.61085 5.40063L5.21007 5.6011C5.24474 5.80194 5.19112 6.15057 5.03822 6.59602C4.74302 7.45604 4.26895 8.83844 3.89209 9.65526H4.77542C4.81881 9.39436 4.89327 9.12872 5.01794 8.78766L6.32796 8.75318C6.38575 9.01105 6.47443 9.4224 6.49129 9.65526H7.66072C7.5171 9.31952 7.3299 8.60596 7.21413 8.11598L6.61085 5.40063ZM5.21007 8.27249L5.85144 6.42739L6.2319 8.23838L5.21007 8.27249ZM9.99068 6.58257L9.96017 7.20404C9.75421 7.17733 9.48346 7.2228 9.27655 7.43823C9.08518 7.63756 8.966 7.92764 8.93815 8.42312C8.91541 8.83162 8.90082 9.27859 8.93474 9.65507H7.9328C7.99874 9.28408 8.0211 8.8411 8.04402 8.43221L8.06904 7.93162C8.09196 7.52425 8.09348 7.13811 8.03076 6.76598L8.90461 6.71217C8.94516 6.85807 8.96524 7.0555 8.95596 7.27301C9.33813 6.69929 9.71177 6.56969 9.99068 6.58257ZM22.5067 5.60508L21.6041 5.45918C21.6929 5.83699 21.728 6.13693 21.7738 6.54373L21.9855 8.50421C22.0313 8.91291 22.0636 9.28446 22.0603 9.65526H23.0376C22.9507 9.28427 22.9067 8.91291 22.8607 8.50421L22.5067 5.60508ZM18.4656 9.65526C18.4065 9.28427 18.3845 8.91291 18.3694 8.50421L18.3205 7.46665C18.3002 6.91585 17.9831 6.58901 17.4523 6.58901C17.1615 6.58901 16.8163 6.6828 16.5209 7.05607C16.512 6.97743 16.4669 6.71577 16.4121 6.60038L15.6173 6.56381C15.6857 6.94844 15.7073 7.33421 15.7224 7.7412L15.7342 8.50421C15.7496 8.88805 15.741 9.27248 15.7086 9.65526H16.71C16.6509 9.28427 16.6289 8.91291 16.6137 8.50421L16.59 7.62411C16.5785 7.31148 16.8121 7.11291 17.0529 7.10988C17.3313 7.10609 17.4684 7.29044 17.4789 7.57049L17.5115 8.50421C17.527 8.91291 17.5329 9.28446 17.5014 9.65526H18.4656ZM21.5649 9.65526C21.4449 9.36025 21.3854 8.96842 21.3555 8.55992L21.2973 7.93352C21.2418 7.19419 20.9309 6.68754 19.7082 6.68754C19.4969 6.68754 19.1872 6.72145 18.9391 6.77697L18.9802 7.34482C19.2287 7.19268 19.485 7.08297 19.8003 7.08297C20.126 7.08297 20.4087 7.21655 20.4358 7.70312C20.1197 7.73817 19.824 7.7935 19.4932 7.94185C19.1205 8.10859 18.7364 8.40948 18.773 8.92124C18.8133 9.4872 19.2404 9.73408 19.7785 9.73408C20.1838 9.73408 20.4672 9.52377 20.6203 9.36632C20.648 9.47072 20.688 9.57569 20.7336 9.65545H21.5649V9.65526ZM20.1158 9.24884C19.8338 9.26154 19.5888 9.11185 19.5788 8.74939C19.5699 8.42406 19.7927 8.13644 20.461 8.02636L20.4998 8.55992C20.5131 8.74352 20.5184 8.87331 20.5413 9.04952C20.4451 9.16472 20.2874 9.24107 20.1158 9.24884ZM14.7946 6.66878C14.5729 6.51455 14.3054 6.4452 14.0223 6.4452C13.3749 6.4452 12.5099 6.90468 12.5325 8.10726C12.5554 9.31421 13.4785 9.68255 14.1295 9.68255C14.701 9.68255 15.0473 9.48057 15.3297 9.1812L15.129 8.92731C14.9761 9.04705 14.7412 9.22649 14.3537 9.21853C13.9437 9.21057 13.6739 8.90514 13.5401 8.48147L15.3384 7.80619C15.2827 7.212 15.0796 6.86716 14.7946 6.66878ZM14.1714 7.83196L13.4563 8.10632C13.4381 7.97503 13.4286 7.84268 13.4279 7.71013C13.4237 6.96739 13.8235 6.85598 13.9545 6.84386C14.1758 6.82339 14.3527 6.94484 14.423 7.2012C14.5022 7.49091 14.4825 7.72055 14.1714 7.83196Z" fill="white"/>
</svg>
