<svg width="23" height="31" viewBox="0 0 23 31" fill="none" xmlns="http://www.w3.org/2000/svg">
<path d="M1.59424 2.84701V22.8332C1.59424 25.6149 5.20503 26.6171 8.10749 27.4222L8.12153 27.4271C8.74067 27.6002 9.32678 27.7642 9.85215 27.9328C9.8567 27.9328 10.4428 28.1294 10.9587 28.4714C11.1227 28.5789 11.2871 28.7102 11.4184 28.8271C11.5778 28.6867 11.7323 28.5698 11.8777 28.4714C12.375 28.148 12.9235 27.9563 12.9843 27.9373C13.5096 27.7642 14.0957 27.6002 14.7149 27.4317L14.7289 27.4271C17.6314 26.6216 21.2422 25.6195 21.2422 22.8377V2.84701C20.4591 2.6128 16.7594 1.59204 11.4184 1.59204C6.07243 1.59204 2.37736 2.6128 1.59424 2.84701Z" fill="#94BEE5"/>
<path d="M11.4186 30.068L10.9544 29.6326C10.776 29.4686 10.607 29.3281 10.4617 29.2344C10.054 28.9675 9.57073 28.8035 9.56617 28.8035C9.06433 28.6399 8.48771 28.4759 7.87352 28.3074H7.86403C6.34447 27.886 4.62372 27.4081 3.25449 26.6402C2.46188 26.1953 1.87083 25.7037 1.44416 25.1324C0.937766 24.4582 0.68457 23.6903 0.68457 22.8426V2.19138L1.14883 2.03688C1.31282 1.9807 5.25652 0.683594 11.4186 0.683594C17.5804 0.683594 21.5241 1.9807 21.6881 2.03688L22.1523 2.19138V22.8331C22.1523 23.6808 21.8946 24.4487 21.3927 25.1229C20.9661 25.6896 20.375 26.1862 19.5824 26.6311C18.2086 27.399 16.4875 27.8765 14.9683 28.2979H14.9588C14.3492 28.4664 13.7676 28.6259 13.2662 28.7944C13.2612 28.7944 12.7784 28.963 12.3752 29.2253C12.2299 29.3236 12.0609 29.4591 11.8825 29.6231L11.4186 30.068ZM1.13934 2.51442V22.8331C1.13934 23.5779 1.36444 24.2566 1.8101 24.8515C2.19919 25.3666 2.74316 25.8206 3.4796 26.2329C4.80176 26.9773 6.49479 27.4457 7.98588 27.8579H7.99537C8.61412 28.031 9.19568 28.1901 9.707 28.359C9.73016 28.3681 10.246 28.5416 10.7057 28.8411C10.8747 28.9535 11.0667 29.108 11.2592 29.2906L11.4137 29.436L11.5686 29.2906C11.7656 29.108 11.9531 28.9535 12.122 28.8411C12.5859 28.5367 13.1158 28.359 13.1208 28.359C13.6367 28.1901 14.2178 28.0265 14.837 27.8579H14.8465C16.3421 27.4457 18.0306 26.9727 19.3527 26.2329C20.0892 25.8206 20.6332 25.3666 21.0222 24.8515C21.4675 24.2566 21.6926 23.5779 21.6926 22.8331V2.51442L21.5381 2.46318C21.3787 2.41155 17.5052 1.13798 11.4186 1.13798C5.33169 1.13798 1.4582 2.41155 1.29421 2.46318L1.13934 2.51442Z" fill="#F0F0F0"/>
<path d="M11.4185 29.445L11.2636 29.3C11.1277 29.1736 10.9212 28.991 10.7101 28.8506C10.2459 28.5461 9.71594 28.3681 9.71138 28.3681C9.20006 28.1995 8.61888 28.0405 8.0043 27.867L7.99026 27.8625C6.49917 27.4502 4.80652 26.9772 3.48398 26.2374C1.90368 25.348 1.13916 24.238 1.13916 22.8331V2.51438L1.29404 2.46314C1.33162 2.44909 5.33151 1.13794 11.4185 1.13794C14.5976 1.13794 17.1767 1.49856 18.7805 1.79807C20.5248 2.12605 21.5004 2.44909 21.5425 2.46314L21.6974 2.51438V22.8331C21.6974 24.238 20.9329 25.348 19.3571 26.2328C18.035 26.9772 16.3419 27.4457 14.8508 27.8579L14.8368 27.8625C14.2226 28.031 13.641 28.195 13.1252 28.3635C13.1066 28.3681 12.5812 28.5507 12.1264 28.8456C11.9575 28.9534 11.77 29.1129 11.573 29.2955L11.4185 29.445ZM1.59431 2.84692V22.8331C1.59431 25.6148 5.2051 26.617 8.10755 27.4221L8.1216 27.4271C8.74073 27.6002 9.32684 27.7641 9.85222 27.9327C9.85677 27.9327 10.4429 28.1293 10.9588 28.4713C11.1228 28.5788 11.2871 28.7101 11.4185 28.827C11.5779 28.6866 11.7324 28.5697 11.8778 28.4713C12.3751 28.1479 12.9236 27.9562 12.9843 27.9372C13.5097 27.7641 14.0958 27.6002 14.7149 27.4316L14.729 27.4271C17.6314 26.6215 21.2422 25.6194 21.2422 22.8376V2.84692C20.4591 2.6127 16.7595 1.59195 11.4185 1.59195C6.0725 1.59195 2.37743 2.6127 1.59431 2.84692Z" fill="#480024"/>
<path d="M4.22499 4.87497L4.8297 4.55193L5.43023 4.87497L5.31293 4.19586L5.80034 3.71338L5.12996 3.61507L4.8297 2.99707L4.52487 3.61507L3.85449 3.71338L4.34228 4.19586L4.22499 4.87497Z" fill="white"/>
<path d="M8.103 9.91336C8.37479 9.91336 8.54372 9.7729 8.6891 9.57627C8.63748 9.56678 8.59079 9.56222 8.54372 9.55273C8.33266 9.82909 8.04188 9.91336 8.103 9.91336Z" fill="#7DA3C9"/>
<path d="M9.24269 12.6436C8.34227 12.6811 7.24483 13.079 6.79462 13.5239C6.40552 13.9126 6.70086 14.395 6.32581 14.7648C6.26469 14.8866 6.26963 15.0552 6.26963 15.1675C6.4526 15.1019 6.53231 14.9474 6.53231 14.9474C6.53231 14.9474 6.55091 15.2097 6.8136 15.2378C6.86978 15.472 7.01972 15.6686 7.0668 15.6686C7.09944 15.6686 7.03377 15.3501 7.13247 15.1489C7.19814 15.0833 7.24027 15.0176 7.27292 14.9428C7.23078 14.8259 7.24027 14.7135 7.25432 14.6714C7.25888 14.6619 7.26837 14.6574 7.27292 14.6665C7.28697 14.6805 7.3105 14.6946 7.33859 14.7135C7.38073 14.4417 7.35264 14.1563 7.60128 13.908C7.97633 13.5333 8.81601 13.1913 9.60825 13.0699C9.48184 12.9199 9.35505 12.77 9.24269 12.6436Z" fill="#7DA3C9"/>
<path d="M9.95066 7.26755C9.82881 7.30513 9.35051 7.66575 9.16754 7.84834C9.09731 7.91857 9.22865 8.1061 9.20018 8.13419C9.20018 8.13419 9.19563 8.13874 9.18614 8.13874C9.13945 8.13874 9.09731 8.1247 9.05518 8.10116C9.09731 8.28869 9.28484 8.48988 9.43478 8.61173C9.63179 8.45229 9.82881 8.33538 9.98824 8.20897C10.0304 8.16683 10.082 8.1247 10.1427 8.07307C10.2555 7.95122 10.3306 7.8157 10.3306 7.61906C10.3352 7.3708 10.2039 7.18821 9.95066 7.26755Z" fill="#7DA3C9"/>
<path d="M5.95065 15.5842C5.99734 15.5842 5.94116 15.3409 6.04441 15.186C6.06795 15.1909 6.0911 15.1955 6.11464 15.1955C6.12868 15.1955 6.14766 15.1955 6.16171 15.1909C6.10515 15.1112 6.03948 14.9893 6.01139 14.8584C5.84284 14.8398 5.77717 14.7274 5.74908 14.6477C5.73465 14.732 5.74908 14.8398 5.79122 14.9332C5.65494 15.205 5.88953 15.5842 5.95065 15.5842Z" fill="#7DA3C9"/>
<path d="M8.8015 7.16914C9.08772 7.04766 9.18604 6.69615 9.18604 6.48547C9.18604 6.3826 9.11126 6.32642 8.96094 6.32642C8.86262 6.32642 8.60942 6.33591 8.41696 6.3826C8.36572 6.45282 8.34674 6.5371 8.34674 6.63997C8.34218 6.82256 8.60942 7.04766 8.8015 7.16914Z" fill="#7DA3C9"/>
<path d="M11.1839 16.7173C11.1839 15.9262 11.6667 15.6358 11.6667 15.1348C11.6667 15.0224 11.5919 14.8163 11.5494 14.7646C11.5449 14.7646 11.5494 14.7696 11.5494 14.7696C11.6948 15.2426 11.3198 15.3971 11.048 16.1555C10.7101 16.2493 10.3491 16.5397 10.3491 17.0548C10.3491 17.598 10.7712 17.9913 11.1558 17.9913C11.2165 17.9913 11.2636 17.9723 11.2917 17.9632C11.2962 17.9632 11.2962 17.9632 11.3012 17.9632C11.2074 17.8133 11.1508 17.6352 11.1508 17.434C11.1508 17.2936 11.1793 17.1672 11.226 17.0594C11.1979 16.9656 11.1839 16.8532 11.1839 16.7173Z" fill="#7DA3C9"/>
<path d="M7.46533 10.7751C7.60123 10.9763 7.70904 11.192 7.75611 11.4072C7.88745 11.3089 7.96717 11.2436 7.96717 11.2436C7.77015 11.0469 7.63426 10.9202 7.46533 10.7751Z" fill="#7DA3C9"/>
<path d="M12.5298 18.1408C12.619 18.2486 12.6847 18.375 12.6847 18.5576C12.6847 18.7968 12.5955 18.9323 12.5579 18.9794C12.5533 18.9885 12.5579 18.998 12.5674 18.998C12.6516 19.012 12.98 19.0215 13.2943 18.5015C13.7115 18.7171 13.5991 19.0777 13.5661 19.162C13.5615 19.1711 13.571 19.1806 13.5801 19.1806C14.1241 19.162 14.2976 18.4267 14.2976 18.4267C14.3116 18.4267 14.3306 18.4221 14.3447 18.4221C14.3492 18.4031 14.3492 18.38 14.3492 18.361C14.3492 18.1598 13.9696 17.9958 13.4913 18.0474C13.4913 18.0474 13.3178 18.7827 12.7739 18.8013C12.7644 18.8013 12.7598 18.7918 12.7598 18.7827C12.7925 18.6981 12.9003 18.3564 12.5298 18.1408Z" fill="#7DA3C9"/>
<path d="M11.7558 18.9606C11.7604 18.9514 11.7558 18.942 11.7464 18.942C11.3432 18.9465 11.1743 18.7544 11.1416 18.6375C11.5588 18.8061 11.8075 18.7263 11.9479 18.6049C11.8591 18.628 11.7934 18.6235 11.7604 18.6189C11.7513 18.6189 11.7464 18.6049 11.7513 18.5999C11.7744 18.5673 11.8261 18.4925 11.8591 18.3661C11.648 18.3331 11.4415 18.1926 11.3056 17.9819C11.3056 17.9819 11.3056 17.9819 11.3056 17.9865C11.2635 18.1038 11.0524 18.5578 10.3304 18.2628C10.3631 18.3801 10.532 18.5718 10.9351 18.5673C10.9446 18.5673 10.9492 18.5768 10.9446 18.5859C10.8319 18.8155 10.6353 18.8672 10.4758 18.8672C10.2317 18.8672 9.99258 18.7263 9.72534 18.7263C9.19997 18.7263 8.95171 19.3823 8.09342 19.3823C8.21072 19.2555 8.20616 18.956 7.8873 18.956C7.31485 18.956 6.832 19.6492 6.07696 19.6632C6.07241 19.6632 6.06292 19.6632 6.05836 19.6632C6.04887 19.6632 6.04432 19.6632 6.03483 19.6632C6.03027 19.7053 6.03027 19.752 6.03027 19.7987C6.03027 20.0189 6.1005 20.3138 6.14264 20.3138C6.18477 20.3138 6.21286 19.9722 6.35825 19.8409C6.41937 19.902 6.49453 19.9487 6.5788 19.9862C6.65852 20.0238 6.75228 20.0424 6.86009 20.0424C6.86502 20.0424 6.87413 20.0424 6.87907 20.0424C7.63866 20.0284 8.12151 19.3352 8.68902 19.3352C9.00789 19.3352 9.01244 19.6351 8.89553 19.7615C9.75837 19.7615 10.0021 19.1059 10.5271 19.1059C10.7947 19.1059 11.0338 19.2464 11.2775 19.2464C11.4465 19.2415 11.6431 19.1902 11.7558 18.9606Z" fill="#7DA3C9"/>
<path d="M17.7722 17.4059C17.5376 17.593 17.0968 17.5509 17.0968 17.5509C17.3033 17.3869 17.4533 16.9189 17.2422 16.4785C17.2377 16.4694 17.2236 16.4694 17.2187 16.4785C17.0361 16.9094 16.6891 17.0828 16.3467 17.12C16.3278 17.139 16.3092 17.1576 16.2902 17.1717C16.2902 17.1717 16.7263 17.2138 16.9655 17.0267C16.975 17.0217 16.9845 17.0267 16.9845 17.0358C16.9609 17.6868 16.0841 18.1222 16.0841 18.1222C16.1919 18.23 16.4356 18.2114 16.5293 18.1503C16.5388 18.1457 16.5483 18.1503 16.5483 18.1643C16.5293 18.2957 16.3748 18.4126 16.2435 18.5436C15.1601 19.6254 15.4042 20.3186 14.8321 20.3186C14.8367 20.2951 14.8837 20.0939 14.6586 20.0939C14.3068 20.0939 14.0209 20.7586 13.6033 21.1754C13.3175 21.4612 12.9656 21.6438 12.567 21.6438C12.4311 21.6438 12.2903 21.5827 12.1825 21.5124C12.1639 21.5265 12.1498 21.5405 12.1309 21.5546C12.2387 21.7372 12.4497 21.7842 12.5856 21.7842C12.567 21.9573 12.5716 22.2523 12.6141 22.2944C12.6467 22.3275 12.7826 22.0465 12.9891 21.8966C13.097 21.9623 13.2329 22.0276 13.3737 22.0276C13.7673 22.0276 14.1238 21.8404 14.41 21.5595C14.8272 21.1427 15.1134 20.4776 15.4649 20.4776C15.6855 20.4776 15.6433 20.6792 15.6384 20.7024C16.2059 20.7024 15.9668 20.0096 17.0502 18.9277C17.1815 18.7968 17.336 18.6795 17.355 18.5485C17.355 18.539 17.3455 18.5295 17.336 18.5344C17.2422 18.5952 16.9985 18.6138 16.8907 18.5064C16.8907 18.5064 17.7676 18.0706 17.7911 17.4199C17.7911 17.4059 17.7816 17.401 17.7722 17.4059Z" fill="#7DA3C9"/>
<path d="M4.57178 9.92751C4.60442 10.082 4.73121 10.377 5.00794 10.377C5.13435 10.377 5.22356 10.3443 5.27974 10.2976C5.30783 10.3022 5.34086 10.3067 5.37844 10.3067C5.744 10.3067 5.82865 9.86677 6.28341 9.86677H6.28797C6.00668 9.63256 5.69237 9.48755 5.47675 9.48755C5.02199 9.48755 4.93734 9.92751 4.57178 9.92751Z" fill="#7DA3C9"/>
<path d="M5.1017 6.86971C5.1017 7.74052 5.54242 8.12468 5.57507 8.15733C5.58949 8.17137 5.5986 8.19035 5.60354 8.21351C5.84724 8.24654 6.0583 8.30727 6.24583 8.38205C6.105 8.19491 5.90836 7.82973 5.90836 7.24894C5.90836 7.07584 5.79106 6.93994 5.60809 6.93994C5.55191 6.81809 5.40159 6.56982 5.08766 6.56982C5.02198 6.56982 4.97036 6.57476 4.92822 6.5888C5.03603 6.6355 5.1017 6.7433 5.1017 6.86971Z" fill="#7DA3C9"/>
<path d="M19.8543 8.38197C19.7416 8.38197 19.6808 8.40095 19.6808 8.40095C19.6808 8.40095 20.4359 7.66111 20.4359 6.50901C20.4359 5.98439 20.3091 5.7832 20.2905 5.7832C20.2529 5.7832 20.2484 6.09676 20.0092 6.33591C19.8919 6.45282 19.7325 6.49952 19.5962 6.56063C19.4463 7.46447 18.8787 8.02135 18.8787 8.02135C18.8787 8.02135 18.9399 8.00275 19.0526 8.00275C19.3009 8.00275 19.4793 8.17623 19.4417 8.21343C19.4087 8.24645 19.0712 8.19938 18.7523 8.51332C18.7523 8.51332 18.3397 9.01439 17.6549 9.01439C16.9705 9.01439 16.3699 8.68186 16.3699 8.68186C16.1027 8.92063 15.9061 9.29075 15.9061 9.64188C15.9061 9.98846 16.0089 10.3115 16.2249 10.6486C16.4311 10.9671 16.7123 11.262 16.9891 11.5475C17.5425 12.1237 18.1192 12.7231 18.1192 13.5658C18.1192 13.9732 17.9833 14.3573 17.7346 14.6432C17.5987 14.8022 17.4298 14.9286 17.2377 15.0175C17.0361 15.1112 16.8061 15.1579 16.5624 15.1579C16.1965 15.1579 15.8871 15.0831 15.6104 14.9803C15.676 15.0129 15.7466 15.0455 15.8169 15.0831C16.239 15.2987 16.7173 15.5421 17.3736 15.5421C17.6173 15.5421 17.8424 15.4954 18.0489 15.4016C18.241 15.3128 18.4054 15.186 18.5458 15.0269C18.7945 14.7365 18.9304 14.3528 18.9304 13.95C18.9304 13.1069 18.3583 12.5124 17.8003 11.9317C17.5236 11.6462 17.2423 11.3509 17.0361 11.0328C16.8156 10.6907 16.7173 10.3722 16.7173 10.0257C16.7173 9.67453 16.9139 9.30479 17.1815 9.06564C17.1815 9.06564 17.7768 9.39817 18.4661 9.39817C19.1509 9.39817 19.5636 8.8971 19.5636 8.8971C19.8779 8.58354 20.2153 8.63023 20.2529 8.59759C20.281 8.55545 20.103 8.38197 19.8543 8.38197Z" fill="#7DA3C9"/>
<path d="M13.1392 3.20771C13.1442 3.20315 13.1442 3.19366 13.1347 3.18911C13.0455 3.15608 12.8534 3.0813 12.4123 3.0813C12.2999 3.0813 12.1921 3.09534 12.0889 3.12343C12.511 3.05776 12.8534 3.0999 13.1392 3.20771Z" fill="#7DA3C9"/>
<path d="M15.4418 16.7455C15.3055 16.5724 15.2212 16.3476 15.2212 16.0994C15.2212 15.5937 15.3852 15.369 15.4509 14.9192C15.2914 14.8539 15.146 14.7787 15.0056 14.7085C14.8788 14.6432 14.7615 14.5821 14.6446 14.5354C14.5789 14.9894 14.4146 15.2145 14.4146 15.7247C14.4146 16.3195 14.8743 16.7504 15.4133 16.7504C15.4277 16.7455 15.4368 16.7455 15.4418 16.7455Z" fill="#7DA3C9"/>
<path d="M15.1179 4.74353C15.1274 4.74353 15.132 4.75302 15.1274 4.76251C15.0572 4.88892 14.8647 5.02444 14.7053 5.02444C14.6301 5.02444 14.5835 5.01532 14.5835 5.01532C15.0432 5.42264 14.9775 6.5326 15.4649 6.5698C15.4744 6.5698 15.4789 6.58385 15.4744 6.59334C15.4042 6.65408 15.2914 6.70115 15.0993 6.70115C14.9259 6.70115 14.7805 6.61194 14.7805 6.61194C14.7805 6.61194 14.8837 6.77137 14.8837 6.99154C14.8837 7.21134 14.7945 7.26752 14.7945 7.58145C14.7945 7.85287 15.0572 8.0309 15.1229 8.07304C15.132 8.07797 15.132 8.08708 15.1229 8.09202C15.0853 8.12011 15.0196 8.13871 14.9023 8.13871C14.7664 8.13871 14.4943 8.04495 14.3398 7.89045C14.377 7.92803 14.5649 8.12922 14.5649 8.47124C14.5649 8.81289 14.4381 9.07519 14.4381 9.41722C14.4381 9.71672 14.6396 9.88071 14.6913 9.91829C14.6958 9.92285 14.6958 9.93234 14.6913 9.93689C14.6632 9.96043 14.607 9.99308 14.5132 9.99308C14.41 9.99308 14.0957 9.9274 13.9127 9.74937C14.0065 10.1476 13.7533 10.4615 13.7533 11.0279C13.7533 12.0676 14.5554 12.7372 14.6677 13.8518C14.8837 13.936 15.0853 14.0438 15.2869 14.1467C15.3476 14.1794 15.4087 14.2074 15.4698 14.2355C15.343 13.1445 14.5599 12.4328 14.5599 11.4071C14.5599 10.8407 14.8131 10.5268 14.7194 10.129C14.9023 10.3116 15.2166 10.3723 15.3195 10.3723C15.3476 10.3723 15.3711 10.3677 15.3947 10.3628C15.3666 10.2785 15.343 10.1943 15.3244 10.11C15.2774 10.0307 15.2398 9.9274 15.2398 9.79644C15.2398 9.6279 15.2728 9.47795 15.3009 9.33294C15.3104 9.29081 15.3195 9.24374 15.329 9.2016C15.3525 9.08924 15.3666 8.97687 15.3666 8.85047C15.3666 8.50844 15.1791 8.30725 15.1415 8.26967C15.2823 8.41013 15.526 8.49933 15.6668 8.51338C15.709 8.46175 15.7557 8.41013 15.8027 8.35888C15.704 8.27461 15.5917 8.13415 15.5917 7.95612C15.5917 7.64219 15.6809 7.586 15.6809 7.36583C15.6809 7.14604 15.5776 6.98661 15.5776 6.98661C15.5776 6.98661 15.723 7.07582 15.8965 7.07582C16.0886 7.07582 16.2013 7.02875 16.2716 6.96801C16.281 6.95852 16.2761 6.94941 16.2621 6.94447C15.7747 6.90727 15.8403 5.79731 15.3806 5.38999C15.3806 5.38999 15.4277 5.3991 15.5025 5.3991C15.6619 5.3991 15.8544 5.26359 15.9246 5.13718C15.9292 5.12769 15.9246 5.1182 15.9151 5.1182C15.1836 5.081 14.8647 3.73682 13.6504 3.49805C14.2691 3.98508 14.5835 4.72037 15.1179 4.74353Z" fill="#7DA3C9"/>
<path d="M4.22027 24.9264C4.02819 24.819 3.87331 24.7252 3.87331 24.7252C3.92038 24.7252 3.99061 24.7203 4.03768 24.6455C4.07488 24.5799 4.10335 24.4584 4.14055 24.313C4.15004 24.2803 4.15953 24.2428 4.16902 24.2101C4.0001 24.1069 3.83573 23.9994 3.66718 23.8871C3.63909 23.9102 3.61062 23.9292 3.58253 23.9524C3.46561 24.0461 3.36236 24.1209 3.32023 24.182C3.2686 24.2568 3.29175 24.3225 3.31529 24.3646C3.31529 24.3646 3.20293 24.2803 3.034 24.1634C2.86052 24.0416 2.76221 23.9713 2.76221 23.9713C2.9076 23.9713 3.03856 23.8821 3.33427 23.6764C3.62505 23.4703 3.91089 23.2547 4.19218 23.0394C4.21571 23.0208 4.23925 23.0018 4.25785 22.9737C4.27683 22.9457 4.27189 22.9271 4.27189 22.9221C4.49244 23.0721 4.71261 23.2125 4.93772 23.3484C4.93772 23.3484 4.91456 23.353 4.89558 23.386C4.88154 23.4141 4.86749 23.4422 4.86294 23.4703C4.77373 23.8119 4.69401 24.1539 4.61885 24.5005C4.54407 24.8516 4.52053 25.0061 4.57672 25.1326C4.5676 25.128 4.43133 25.0483 4.22027 24.9264ZM4.40817 23.372C4.44082 23.2687 4.45942 23.2125 4.46891 23.1985C4.45942 23.208 4.42677 23.2455 4.33756 23.3249C4.18307 23.4608 4.02819 23.5921 3.86875 23.7276C3.99061 23.8119 4.11739 23.8916 4.23925 23.9664C4.29087 23.7652 4.34705 23.5686 4.40817 23.372Z" fill="#480024"/>
<path d="M5.16238 25.4464C4.81543 25.2774 4.68408 25.1184 4.68408 25.1229C4.68408 25.1229 4.71711 25.0762 4.77784 24.9593C4.84845 24.828 4.88603 24.7486 4.88603 24.7486C4.91868 24.9031 4.9889 25.0762 5.24704 25.2027C5.42507 25.2869 5.5845 25.3196 5.65017 25.1791C5.7018 25.0668 5.63613 24.992 5.53781 24.8751C5.48125 24.8094 5.43 24.7392 5.37838 24.6735C5.22805 24.4814 5.13429 24.2848 5.25159 24.0646C5.40647 23.7746 5.69231 23.7465 6.08634 23.9336C6.36763 24.0646 6.49441 24.1914 6.49441 24.1914C6.49441 24.1914 6.46632 24.2426 6.4147 24.369C6.35814 24.5004 6.33498 24.5752 6.33498 24.5752C6.28791 24.4021 6.20364 24.2616 6.01611 24.1724C5.85668 24.0976 5.73938 24.0881 5.6832 24.2005C5.63157 24.3038 5.69725 24.3785 5.80505 24.5095C5.85174 24.5657 5.89882 24.6219 5.94551 24.678C6.11899 24.8796 6.21768 25.0576 6.11899 25.3055C5.95044 25.6756 5.57501 25.6476 5.16238 25.4464Z" fill="#480024"/>
<path d="M7.97632 25.0341C7.97632 25.0295 7.96721 25.0014 7.9061 24.9453C7.85447 24.8936 7.76526 24.842 7.64341 24.8048C7.59672 24.7908 7.55458 24.7767 7.50751 24.7627C7.44184 24.9639 7.37617 25.165 7.31505 25.3712C7.09944 26.0457 7.10893 26.0598 7.13702 26.1721C7.14157 26.1862 7.14651 26.2048 7.15106 26.2188C7.15106 26.2188 7.05275 26.1862 6.81359 26.1019C6.57444 26.0222 6.47119 25.9846 6.47119 25.9846C6.48524 25.9755 6.49928 25.966 6.50877 25.9565C6.5976 25.8908 6.61658 25.8768 6.86029 25.1931C6.93089 25.0014 6.99618 24.8094 7.06679 24.6173C7.01972 24.6032 6.97758 24.5846 6.93089 24.5706C6.81359 24.5284 6.71034 24.5144 6.63518 24.5235C6.55546 24.533 6.52737 24.547 6.52282 24.5516C6.52282 24.5516 6.55546 24.4863 6.60253 24.369C6.64923 24.2567 6.66327 24.21 6.66327 24.21C7.12297 24.3971 7.59178 24.5516 8.06553 24.6829C8.06553 24.6829 8.04693 24.7342 8.01846 24.8469C7.99037 24.9639 7.98126 25.0295 7.97632 25.0341Z" fill="#480024"/>
<path d="M8.65169 26.6215C8.00446 26.4902 7.76531 26.0878 7.9107 25.5586C8.03749 25.1043 8.37989 24.7436 8.98953 24.8655C9.55211 24.9733 9.80075 25.3149 9.73508 25.8627C9.68345 26.3311 9.36458 26.7574 8.65169 26.6215ZM8.94702 25.1137C8.68927 25.0621 8.52528 25.2261 8.42658 25.6661C8.32826 26.1019 8.41253 26.3171 8.69382 26.3733C8.98004 26.4295 9.14403 26.2514 9.21919 25.8115C9.28942 25.3711 9.20515 25.165 8.94702 25.1137Z" fill="#480024"/>
<path d="M11.7278 25.1651C11.6808 25.2494 11.6667 25.2775 11.6762 26.0036C11.6808 26.2891 11.6857 26.5749 11.6903 26.8604C11.6903 26.8604 11.6105 26.8559 11.4276 26.8559C11.2306 26.8559 11.0806 26.8559 11.0806 26.8559C10.865 26.4622 10.6725 26.0644 10.4945 25.6662C10.4569 25.5773 10.4334 25.4836 10.4334 25.4745C10.4193 25.6381 10.4102 25.8021 10.3962 25.9661C10.3396 26.6733 10.3537 26.6824 10.4053 26.7856C10.4148 26.7997 10.4193 26.8137 10.4288 26.8278C10.4288 26.8278 10.3396 26.8183 10.1475 26.7997C9.94105 26.7807 9.86133 26.7761 9.86133 26.7761C9.87082 26.7621 9.88031 26.7526 9.89435 26.7386C9.95509 26.6592 9.97863 26.6357 10.0538 25.9099C10.124 25.2072 10.1145 25.1932 10.0724 25.0949C10.0678 25.0808 10.0583 25.0668 10.0538 25.0527C10.0538 25.0527 10.1475 25.0717 10.3818 25.0903C10.5788 25.1044 10.6775 25.1044 10.6775 25.1044C10.851 25.5026 11.043 25.8958 11.2495 26.2846C11.3012 26.3779 11.3198 26.4576 11.3243 26.4717C11.3243 26.3077 11.3293 26.1441 11.3293 25.9801C11.3338 25.2729 11.3243 25.2634 11.2731 25.1651C11.2636 25.1511 11.259 25.137 11.2495 25.123C11.2495 25.123 11.3243 25.1279 11.4982 25.1279C11.6762 25.1279 11.7514 25.1184 11.7514 25.1184C11.7419 25.137 11.7324 25.1511 11.7278 25.1651Z" fill="#480024"/>
<path d="M14.0632 25.4415C14.0161 25.8442 13.9599 26.2516 13.8897 26.6543C13.8897 26.6543 13.7629 26.6733 13.5378 26.7059C13.3222 26.7386 13.1768 26.7576 13.1768 26.7576C12.9987 26.3875 12.8298 26.0177 12.6704 25.6431C12.5345 25.3151 12.4734 25.1701 12.3701 25.0903C12.3701 25.0903 12.4639 25.0903 12.7125 25.0668C12.9703 25.0387 13.069 25.0201 13.069 25.0201C13.0409 25.0482 12.9938 25.0949 13.0079 25.1841C13.0173 25.2684 13.0785 25.4043 13.1532 25.5728C13.2705 25.8348 13.3924 26.102 13.5142 26.3639C13.5427 26.425 13.5659 26.4953 13.5708 26.5044C13.5708 26.4953 13.5754 26.425 13.5849 26.3548C13.627 26.069 13.6646 25.7786 13.7021 25.4931C13.7207 25.3056 13.7393 25.1606 13.7207 25.0763C13.7067 24.9875 13.6505 24.9544 13.6129 24.9404C13.6129 24.9404 13.7113 24.9313 13.9223 24.8892C14.1193 24.8516 14.1991 24.8235 14.1991 24.8235C14.1239 24.9313 14.1053 25.0858 14.0632 25.4415Z" fill="#480024"/>
<path d="M15.0059 26.4109C14.7618 26.4716 14.659 26.4997 14.659 26.4997C14.6635 26.4857 14.6681 26.4671 14.6776 26.453C14.7151 26.3498 14.7246 26.3312 14.5557 25.6194C14.3913 24.9312 14.3822 24.9217 14.3071 24.842C14.2976 24.8329 14.2835 24.8188 14.2744 24.8093C14.2744 24.8093 14.3632 24.7953 14.5792 24.7391C14.8089 24.678 14.8841 24.6499 14.8841 24.6548C14.8791 24.6689 14.8746 24.6875 14.8746 24.7015C14.851 24.8048 14.8415 24.8234 15.034 25.5257C15.2215 26.2093 15.2356 26.2143 15.3198 26.2936C15.3339 26.3031 15.3434 26.3171 15.3574 26.3266C15.3529 26.3217 15.2496 26.3498 15.0059 26.4109Z" fill="#480024"/>
<path d="M16.8252 25.7223C16.8343 25.7504 16.8438 25.7834 16.8533 25.8115C16.5204 25.9474 16.178 26.0689 15.8405 26.1767C15.6902 26.2234 15.6245 26.2469 15.6245 26.2469C15.6294 26.2329 15.634 26.2143 15.6385 26.2002C15.667 26.097 15.6761 26.0738 15.4605 25.3761C15.2495 24.7015 15.2354 24.6921 15.1557 24.6173C15.1462 24.6078 15.1322 24.5937 15.123 24.5846C15.123 24.5846 15.2073 24.5656 15.437 24.4909C15.6621 24.4161 15.7323 24.3831 15.7323 24.3831C15.7278 24.402 15.7278 24.4161 15.7232 24.4347C15.6997 24.5425 15.7042 24.5892 15.8872 25.1138C15.9715 25.348 16.0512 25.5868 16.1358 25.8206C16.1966 25.7975 16.2577 25.7785 16.3188 25.7553C16.6563 25.6289 16.6749 25.5446 16.7265 25.3807C16.7219 25.3807 16.7455 25.4744 16.8252 25.7223Z" fill="#480024"/>
<path d="M18.2181 25.0668C18.2321 25.0949 18.2412 25.123 18.2553 25.1511C17.9319 25.3245 17.6084 25.4836 17.2755 25.629C17.1301 25.6943 17.0645 25.7224 17.0645 25.7224C17.069 25.7083 17.069 25.6897 17.0736 25.6757C17.0926 25.5679 17.0971 25.5447 16.8113 24.8751C16.5296 24.2241 16.5156 24.2195 16.4267 24.1538C16.4127 24.1443 16.4032 24.1349 16.3892 24.1257C16.3892 24.1257 16.4734 24.0977 16.694 23.9993C16.9096 23.901 16.9798 23.8589 16.9798 23.8589C16.9798 23.8775 16.9753 23.8915 16.9753 23.9101C16.9612 24.0179 16.9707 24.0696 17.2099 24.5657C17.3177 24.7908 17.4255 25.0201 17.5333 25.2448C17.5944 25.2167 17.6506 25.1886 17.7117 25.1605C18.0397 24.9966 18.0492 24.9077 18.0818 24.7437C18.0773 24.7392 18.1103 24.833 18.2181 25.0668Z" fill="#480024"/>
<path d="M19.7792 24.2055C19.5962 24.3365 19.4463 24.4394 19.4463 24.4394C19.4653 24.3972 19.4933 24.3319 19.4417 24.2568C19.3996 24.196 19.3009 24.1163 19.1836 24.0226C19.1555 23.9994 19.1274 23.9759 19.0993 23.9573C18.9353 24.0647 18.7664 24.1725 18.5975 24.2758C18.607 24.3084 18.6165 24.346 18.621 24.3786C18.6586 24.5236 18.6821 24.65 18.7193 24.7112C18.7664 24.7909 18.8366 24.7954 18.8788 24.7954C18.8788 24.7954 18.7569 24.8657 18.5834 24.964C18.4005 25.0668 18.3022 25.128 18.3022 25.128C18.3583 24.9966 18.3348 24.8376 18.2695 24.4864C18.2038 24.1349 18.1287 23.7887 18.0444 23.4421C18.0349 23.414 18.0304 23.386 18.0114 23.3579C17.9973 23.3298 17.9738 23.3248 17.9692 23.3248C18.1943 23.1893 18.4145 23.0489 18.6351 22.8989C18.6351 22.8989 18.6305 22.9221 18.6491 22.9502C18.6681 22.9786 18.6867 22.9972 18.7102 23.0158C18.982 23.2406 19.2633 23.4562 19.545 23.6669C19.8308 23.8775 19.9622 23.9664 20.1075 23.9664C20.1121 23.9713 19.9808 24.0647 19.7792 24.2055ZM18.438 23.3905C18.3583 23.3203 18.3162 23.2782 18.3067 23.2641C18.3116 23.2782 18.3302 23.3248 18.3633 23.4372C18.4194 23.6342 18.4756 23.8309 18.5318 24.032C18.6586 23.9573 18.7805 23.8775 18.9023 23.7978C18.7478 23.6623 18.5929 23.5264 18.438 23.3905Z" fill="#480024"/>
<path d="M9.51904 23.3624V23.1798C9.69746 23.1798 9.78666 23.1141 9.79122 22.9832H9.9833V24.0836H9.74908V23.3157C9.7115 23.3438 9.63179 23.3624 9.51904 23.3624Z" fill="white"/>
<path d="M10.5603 24.0647C10.4947 24.0416 10.4385 23.9995 10.4009 23.9524C10.3633 23.9011 10.3447 23.84 10.3447 23.7698C10.3447 23.6483 10.415 23.5546 10.5509 23.4934V23.4889C10.4476 23.4327 10.3964 23.3579 10.3964 23.2547C10.3964 23.1939 10.415 23.1423 10.4476 23.0956C10.4806 23.0489 10.5273 23.0159 10.5884 22.9927C10.6495 22.9692 10.7152 22.9597 10.79 22.9597C10.8652 22.9597 10.9308 22.9692 10.9916 22.9927C11.0527 23.0159 11.0998 23.0489 11.1324 23.0956C11.1651 23.1423 11.184 23.1939 11.184 23.2547C11.184 23.353 11.1324 23.4327 11.0292 23.4889V23.4934C11.1651 23.5546 11.2357 23.6483 11.2357 23.7698C11.2357 23.84 11.2167 23.9057 11.1795 23.9524C11.1419 24.004 11.0853 24.0416 11.02 24.0647C10.9544 24.0883 10.8792 24.1023 10.7949 24.1023C10.7057 24.1023 10.6306 24.0928 10.5603 24.0647ZM10.6401 23.8776C10.6776 23.9102 10.7243 23.9292 10.79 23.9292C10.8511 23.9292 10.9027 23.9102 10.9403 23.8776C10.9775 23.845 10.9965 23.8028 10.9965 23.7512C10.9965 23.6996 10.9775 23.6574 10.9403 23.6248C10.9027 23.5921 10.8557 23.5781 10.79 23.5781C10.7243 23.5781 10.6776 23.5921 10.6401 23.6248C10.6025 23.6574 10.5839 23.6996 10.5839 23.7512C10.5839 23.7979 10.6025 23.845 10.6401 23.8776ZM10.6587 23.3811C10.6868 23.4092 10.7338 23.4187 10.79 23.4187C10.8462 23.4187 10.8887 23.4046 10.9213 23.3811C10.9494 23.353 10.9684 23.3203 10.9684 23.2736C10.9684 23.2266 10.9544 23.1939 10.9213 23.1658C10.8933 23.1378 10.8462 23.1283 10.79 23.1283C10.7338 23.1283 10.6917 23.1423 10.6587 23.1658C10.6306 23.1939 10.612 23.2266 10.612 23.2736C10.6165 23.3158 10.6306 23.353 10.6587 23.3811Z" fill="white"/>
<path d="M11.7183 23.7325C11.7513 23.6152 11.798 23.5074 11.8542 23.4091C11.9107 23.3108 11.9715 23.236 12.0371 23.1798V23.1752H11.4932V22.9832H12.2858V23.1612C12.1639 23.2595 12.0747 23.3905 12.009 23.559C11.9434 23.7276 11.9107 23.901 11.9107 24.0836H11.6621C11.6666 23.9663 11.6807 23.8494 11.7183 23.7325Z" fill="white"/>
<path d="M12.961 23.8399H12.4546V23.6152L12.961 22.9832H13.1952V23.6528H13.3546V23.8449H13.1952V24.0836H12.961V23.8399ZM12.961 23.6482V23.2455L12.6372 23.6482H12.961Z" fill="white"/>
<path d="M9.27533 5.02938C9.16297 5.14174 9.17701 5.28219 9.07832 5.38051C9.03618 5.42265 8.98 5.45074 8.90484 5.45074C8.75945 5.45074 8.66113 5.32889 8.66113 5.20741C8.66113 5.081 8.80652 4.96826 9.20017 4.96826C9.24724 4.96826 9.30342 4.96826 9.35505 4.9732C9.32696 4.98231 9.29887 5.00129 9.27533 5.02938Z" fill="#7496BD"/>
<path d="M19.0477 8.00284C18.9354 8.00284 18.8743 8.02144 18.8743 8.02144C18.8743 8.02144 19.6293 7.28159 19.6293 6.12987C19.6293 5.60526 19.5025 5.40407 19.4839 5.40407C19.4463 5.40407 19.4418 5.71762 19.2026 5.95639C19.0291 6.12987 18.7524 6.14847 18.5975 6.30297C18.7478 5.98449 18.6397 5.55857 18.6165 5.55857C18.5975 5.55857 18.607 5.7833 18.3208 6.06876C18.1382 6.25135 17.7206 6.38269 17.3737 6.72433C17.5191 6.38725 17.3923 6.03611 17.3596 6.03611C17.327 6.03611 17.3596 6.2373 17.1626 6.43432C16.9796 6.61691 16.6281 6.70573 16.3655 6.9726C15.9999 7.33777 16.0656 7.89048 16.0656 8.09205C16.0656 8.11065 16.0656 8.12925 16.0656 8.14823C16.0139 8.18543 15.9623 8.22757 15.9107 8.2697C15.4981 8.63033 15.2775 9.10787 15.2775 9.64653C15.2775 10.6768 15.9433 11.3699 16.5344 11.9879C16.7971 12.2597 17.0408 12.5171 17.2188 12.784C17.4018 13.0603 17.4864 13.3131 17.4864 13.5754C17.4864 13.8282 17.4018 14.0765 17.2518 14.2496C17.0829 14.4462 16.8532 14.5446 16.5579 14.5446C16.0511 14.5446 15.681 14.3574 15.287 14.1562C15.0854 14.053 14.8839 13.9452 14.6679 13.8609C14.5555 12.7513 13.7534 12.0768 13.7534 11.0374C13.7534 10.4706 14.0066 10.1571 13.9128 9.75889C14.0958 9.94148 14.4101 10.0026 14.5134 10.0026C14.6022 10.0026 14.6587 9.96957 14.6914 9.94641C14.696 9.94148 14.696 9.93237 14.6914 9.92743C14.6398 9.89023 14.4382 9.72624 14.4382 9.42636C14.4382 9.08471 14.565 8.82241 14.565 8.48038C14.565 8.13874 14.3771 7.93717 14.3399 7.89997C14.4944 8.05447 14.7666 8.14823 14.9025 8.14823C15.0198 8.14823 15.0854 8.12925 15.123 8.10116C15.1276 8.0966 15.1276 8.08711 15.123 8.08256C15.0573 8.04042 14.7946 7.86239 14.7946 7.59097C14.7946 7.27704 14.8839 7.22086 14.8839 7.00069C14.8839 6.78052 14.7806 6.62146 14.7806 6.62146C14.7806 6.62146 14.926 6.71029 15.0995 6.71029C15.2915 6.71029 15.4043 6.6636 15.4745 6.60286C15.484 6.59337 15.4791 6.58388 15.465 6.57933C14.9776 6.54174 15.0433 5.43216 14.5836 5.02447C14.5836 5.02447 14.6303 5.03396 14.7054 5.03396C14.8649 5.03396 15.0573 4.89806 15.1276 4.77165C15.1321 4.76254 15.1276 4.75305 15.1181 4.75305C14.2366 4.70636 13.9553 2.75823 11.967 3.1515C12.0702 3.00649 12.2623 2.88464 12.328 2.8425C12.3375 2.83795 12.3375 2.8239 12.328 2.81897C12.2388 2.78632 12.0467 2.71154 11.606 2.71154C11.1508 2.71154 10.7336 2.95486 10.4945 3.26386C10.6023 3.04863 10.471 2.77683 10.3491 2.64093C10.3445 2.63182 10.3305 2.63638 10.3256 2.64587C10.3115 2.70205 10.2648 2.81897 10.1897 2.89413C9.83322 3.24982 9.19093 3.47948 9.19093 4.22388C9.19093 4.22388 8.97987 4.35978 8.69858 4.55186C8.41236 4.74356 8.26242 5.048 8.26242 5.14632C8.15461 5.2025 7.7044 5.53503 7.3434 5.89566C7.33391 5.90515 7.33391 5.91919 7.33846 5.9283C7.37604 5.98942 7.40413 6.0642 7.41818 6.10634C7.42311 6.12494 7.44627 6.12987 7.46031 6.11583C7.50739 6.06876 7.6057 5.98449 7.65277 5.97044C7.57306 6.05016 7.54497 6.14847 7.54497 6.27033C7.54497 6.54174 8.14512 6.92135 8.1827 6.88377C8.21079 6.85568 8.11247 6.57933 8.2013 6.4905C8.3372 6.3546 8.81588 6.34055 8.96089 6.34055C9.11121 6.34055 9.186 6.39674 9.186 6.49961C9.186 6.75243 9.04061 7.22541 8.58129 7.22541C8.39376 7.22541 8.27646 7.04776 8.24344 7.07585C8.21535 7.10394 8.23888 7.3708 8.3 7.45963C8.3 7.45963 8.24837 7.52074 8.24837 7.64715C8.24837 7.97475 8.79235 8.39611 8.84853 8.33993C8.88611 8.30273 8.73616 7.93261 8.82993 7.93261C8.88117 7.93261 9.02656 8.14329 9.19549 8.14329C9.20498 8.14329 9.20498 8.13874 9.20953 8.13874C9.23762 8.11065 9.10172 7.92312 9.17688 7.8529C9.35947 7.67031 9.83816 7.30968 9.96001 7.27248C10.2132 7.19277 10.3445 7.37536 10.3445 7.62362C10.3445 8.17632 9.75844 8.28868 9.27976 8.76167C8.80146 9.23921 8.70769 9.91832 8.10754 9.91832C8.02782 9.91832 8.5532 9.77294 8.70314 9.25326C7.13234 9.2673 6.8651 8.39156 5.60823 8.22301C5.60367 8.20441 5.59418 8.18543 5.58014 8.16683C5.54711 8.13418 5.10639 7.74547 5.10639 6.87921C5.10639 6.70573 4.98909 6.56984 4.8065 6.56984C4.74994 6.44836 4.6 6.2001 4.28568 6.2001C3.9858 6.2001 3.91064 6.34055 3.92924 6.3546C3.94822 6.3732 4.07462 6.32651 4.2295 6.48101C4.31871 6.56984 4.35629 6.67309 4.37034 6.74331C4.33276 6.79001 4.30922 6.84163 4.30922 6.90237C4.30922 6.90237 4.15434 6.87428 4.0044 7.01473C3.93873 6.97753 3.83092 6.93539 3.66693 6.93539C3.23532 6.93539 3.14649 7.32373 3.16509 7.34271C3.18369 7.36131 3.25886 7.27248 3.3902 7.27248C3.54014 7.27248 3.69958 7.39396 3.78423 7.46456C3.77474 7.56288 3.79334 7.65626 3.85901 7.72193C3.85901 7.72193 3.65288 7.78267 3.6153 8.07307C3.60581 8.07307 3.59632 8.078 3.58721 8.08256C3.01515 8.24161 3.12296 8.68651 3.14649 8.68651C3.16965 8.68651 3.19774 8.49443 3.46043 8.49443C3.54963 8.49443 3.62479 8.50392 3.68098 8.51796C3.78423 8.7146 3.96682 8.76167 4.09816 8.76167C4.21546 8.76167 4.3282 8.73358 4.42652 8.73358C4.55786 8.73358 4.63758 8.81292 4.63758 8.99551C4.63758 9.26275 4.37945 9.18303 4.26253 9.29995C4.18281 9.37967 4.17332 9.44989 4.17332 9.5577C4.17332 9.56226 4.17332 9.56681 4.17332 9.57175C4.13574 9.58086 4.09816 9.59035 4.06058 9.59035C3.88255 9.59035 3.77929 9.43129 3.75576 9.45445C3.72311 9.48747 3.83092 9.99766 4.19192 9.99766C4.31871 9.99766 4.40792 9.96502 4.4641 9.91832C4.49219 9.92288 4.52484 9.92743 4.56242 9.92743C4.92835 9.92743 5.01263 9.48747 5.46739 9.48747C5.9176 9.48747 6.79449 10.115 6.92128 10.8969C6.92128 10.9061 6.93532 10.911 6.93988 10.9061C7.13689 10.7424 7.1274 10.4987 7.1274 10.4987C7.4979 10.7986 7.65277 10.9391 7.96215 11.2435C7.96215 11.2435 6.15675 12.6295 6.06299 12.6856C5.98327 12.7323 5.94114 12.7559 5.84282 12.7559C5.58963 12.7559 5.50991 12.3299 5.10183 12.3299C5.02212 12.3299 4.96594 12.3531 4.91886 12.3907C4.87673 12.3812 4.8251 12.3766 4.75943 12.3766C4.28113 12.3766 4.19686 13.0182 4.23899 13.0182C4.28568 13.0182 4.31871 12.8542 4.54382 12.8542C4.57191 12.8542 4.60455 12.8591 4.63264 12.8637C4.63264 12.9855 4.67971 13.1024 4.75943 13.1632C4.75943 13.1632 4.62809 13.2103 4.55293 13.3648C3.9858 13.3834 3.99491 14.053 4.05147 14.053C4.08905 14.053 4.11221 13.7721 4.44056 13.7721C4.4641 13.7721 4.49674 13.7816 4.52484 13.7956C4.5814 14.0439 4.75488 14.1794 4.95645 14.1794C4.90482 14.2731 4.91431 14.4231 4.97049 14.5541C4.83915 14.8304 5.07374 15.2051 5.13448 15.2051C5.18155 15.2051 5.12537 14.9614 5.22824 14.8069C5.25178 14.8118 5.27531 14.8164 5.29885 14.8164C5.59418 14.8164 5.72059 14.5681 5.72059 14.5681C5.72059 14.5681 5.73957 14.8304 6.00226 14.8585C6.05844 15.0927 6.20838 15.2893 6.25545 15.2893C6.2881 15.2893 6.22243 14.9709 6.32112 14.7697C6.69617 14.395 6.40084 13.9125 6.78993 13.5287C7.23521 13.0838 8.33265 12.6856 9.23762 12.6481C9.56598 13.0136 10.0162 13.5709 10.2223 13.7113C10.2223 13.7113 10.2132 13.7204 10.1992 13.7345C9.64114 14.2917 8.60938 13.8047 8.0654 14.3479C7.84979 14.5635 7.8217 14.7602 7.51688 14.7602C7.41362 14.7602 7.31493 14.7086 7.27279 14.6664C7.26824 14.6619 7.25419 14.6619 7.25419 14.6713C7.23521 14.7366 7.22116 14.9523 7.38553 15.1159C7.57306 15.3034 7.80765 15.2707 7.86839 15.2377C7.71845 15.4393 7.39009 15.4298 7.19801 15.3174C7.18852 15.3129 7.17447 15.322 7.17903 15.3315C7.32935 15.9123 7.92951 15.7999 7.92951 15.7999C8.05591 16.4225 8.67049 16.6802 8.67049 17.097C8.67049 17.2139 8.62342 17.3449 8.5251 17.4432C8.29051 17.6774 7.77463 17.8319 7.21205 17.8319C6.30708 17.8319 6.29303 17.1904 5.80031 17.1904C5.73463 17.1904 5.6739 17.1999 5.61278 17.2139C5.54255 17.1342 5.38768 17.0408 5.19104 17.0408C4.89077 17.0408 4.71236 17.3825 4.75488 17.4246C4.77803 17.4482 4.86724 17.3403 5.00314 17.3403C5.06881 17.3403 5.15346 17.3965 5.18611 17.4903C5.16257 17.5184 5.13941 17.551 5.12043 17.5886C5.06881 17.5746 5.00807 17.5651 4.92835 17.5651C4.36085 17.5651 4.37034 18.2206 4.43107 18.2206C4.4641 18.2206 4.53888 17.9773 4.81561 18.01C4.75943 18.1128 4.73134 18.2256 4.73134 18.352C4.73134 18.3706 4.73134 18.3892 4.73134 18.4082C4.6 18.483 4.50168 18.6234 4.50168 18.7874C4.50168 19.0262 4.54837 19.1431 4.5814 19.1431C4.62353 19.1431 4.66111 18.8671 4.86724 18.7779C4.961 18.9043 5.0969 19.0026 5.25633 19.0448C5.23773 19.1245 5.21913 19.2509 5.21913 19.4289C5.21913 19.6491 5.28936 19.9441 5.33149 19.9441C5.37363 19.9441 5.40172 19.602 5.54711 19.4711C5.60823 19.5318 5.68339 19.5789 5.76766 19.6161C5.84738 19.6537 5.94114 19.6723 6.04895 19.6723C6.0535 19.6723 6.06299 19.6723 6.06793 19.6723C6.82751 19.6582 7.31037 18.9654 7.87788 18.9654C8.19675 18.9654 8.2013 19.2649 8.084 19.3913C8.94684 19.3913 9.19093 18.7358 9.71592 18.7358C9.98316 18.7358 10.2223 18.8762 10.4664 18.8762C10.6258 18.8762 10.8228 18.825 10.9352 18.5953C10.9401 18.5858 10.9352 18.5767 10.9257 18.5767C10.5226 18.5813 10.3537 18.3892 10.321 18.2723C11.043 18.5627 11.2541 18.1128 11.2962 17.9959C11.3012 17.9864 11.2917 17.9773 11.2776 17.9819C11.2495 17.9959 11.1979 18.01 11.1417 18.01C10.7522 18.01 10.3351 17.6167 10.3351 17.0735C10.3351 16.5584 10.6915 16.268 11.0339 16.1742C11.3012 15.4158 11.6808 15.2613 11.5354 14.7883V14.7837C11.5779 14.835 11.6527 15.0411 11.6527 15.1534C11.6527 15.6545 11.1698 15.9404 11.1698 16.7364C11.1698 17.6307 11.8683 17.5981 11.8683 18.1975C11.8683 18.4363 11.7795 18.5718 11.7419 18.6189C11.7373 18.628 11.7419 18.6375 11.7514 18.6375C11.8356 18.6515 12.164 18.661 12.4779 18.1409C12.8955 18.3565 12.7827 18.7172 12.7501 18.8014C12.7452 18.8109 12.7547 18.82 12.7641 18.82C13.3081 18.8014 13.4816 18.0661 13.4816 18.0661C13.9599 18.0145 14.3399 18.1785 14.3399 18.3801C14.3399 18.8998 13.3689 19.8689 12.6609 19.8689C12.3982 19.8689 12.3044 19.5929 12.0748 19.5929C11.9059 19.5929 11.8261 19.6723 11.7745 19.7755C11.6808 19.7334 11.587 19.7144 11.4982 19.7144C11.2731 19.7144 11.076 19.8408 11.0054 20.1172C10.7006 20.2155 10.6399 20.6885 10.668 20.7215C10.6915 20.7446 10.8414 20.4964 11.0901 20.5526C11.1322 20.6232 11.1839 20.6793 11.226 20.7215C11.1744 20.7496 11.1227 20.7822 11.062 20.843C10.7617 21.1428 10.8369 21.4754 10.865 21.5035C10.8976 21.5361 10.9493 21.3862 11.0339 21.3019C11.0996 21.2366 11.1933 21.1664 11.3198 21.1755C11.423 21.3676 11.6432 21.4192 11.784 21.4192C11.7654 21.5923 11.77 21.8872 11.8121 21.9294C11.8451 21.9624 11.981 21.6811 12.1871 21.5316C12.2953 21.5968 12.4312 21.6625 12.5717 21.6625C12.9657 21.6625 13.3222 21.4754 13.608 21.1945C14.0256 20.7777 14.3114 20.1126 14.6633 20.1126C14.8839 20.1126 14.8413 20.3138 14.8368 20.3373C15.4043 20.3373 15.1651 19.6442 16.2482 18.5627C16.3795 18.4313 16.5344 18.3144 16.553 18.1834C16.553 18.174 16.5439 18.1645 16.5344 18.169C16.4406 18.2301 16.1965 18.2487 16.0887 18.1409C16.0887 18.1409 16.9656 17.7055 16.9891 17.0549C16.9891 17.0454 16.9751 17.0359 16.9705 17.0454C16.7359 17.2325 16.2952 17.1904 16.2952 17.1904C16.5013 17.0268 16.6517 16.5584 16.4406 16.118C16.4357 16.1089 16.4216 16.1089 16.4171 16.118C16.2155 16.6005 15.7979 16.7645 15.4229 16.7645C14.8839 16.7645 14.4242 16.3287 14.4242 15.7388C14.4242 15.2332 14.5881 15.0035 14.6538 14.5495C14.7711 14.6007 14.8884 14.6573 15.0148 14.7226C15.4369 14.9382 15.9152 15.1815 16.572 15.1815C16.8157 15.1815 17.0408 15.1348 17.2473 15.0411C17.4394 14.9523 17.6033 14.8258 17.7442 14.6664C17.9928 14.376 18.1287 13.9922 18.1287 13.5895C18.1287 12.7464 17.5566 12.1519 16.9986 11.5711C16.7219 11.2857 16.4406 10.9903 16.2341 10.6722C16.0139 10.3302 15.9152 10.0117 15.9152 9.66513C15.9152 9.31399 16.1123 8.94426 16.3795 8.70549C16.3795 8.70549 16.9751 9.03764 17.6645 9.03764C18.3493 9.03764 18.7619 8.53656 18.7619 8.53656C19.0758 8.22301 19.4137 8.2697 19.4513 8.23706C19.4744 8.17632 19.2964 8.00284 19.0477 8.00284ZM9.2752 5.0294C9.16284 5.14176 9.17688 5.28222 9.07819 5.38054C9.03605 5.42267 8.97987 5.45076 8.90471 5.45076C8.75932 5.45076 8.661 5.32891 8.661 5.20744C8.661 5.08103 8.80639 4.96828 9.20004 4.96828C9.24711 4.96828 9.30329 4.96828 9.35492 4.97322C9.32683 4.98233 9.29874 5.00131 9.2752 5.0294Z" fill="#FFE505"/>
<path d="M21.9035 1.38594C21.735 1.32975 17.688 0 11.4185 0C5.14857 0 1.10199 1.32975 0.933067 1.38594L0 1.69987V22.8332C0 23.8308 0.299887 24.7392 0.895486 25.5307C1.37834 26.1767 2.03961 26.7295 2.9165 27.221C4.36089 28.0311 6.12416 28.5227 7.67636 28.9536L7.68547 28.9585C8.29056 29.127 8.85806 29.2815 9.34092 29.4406C9.34548 29.4406 9.749 29.581 10.0774 29.7967C10.1897 29.8714 10.3351 29.9884 10.4805 30.1243L11.4136 31L12.3466 30.1243C12.492 29.9884 12.6374 29.8714 12.7452 29.7967C13.05 29.5951 13.4395 29.4546 13.4816 29.4406C13.9694 29.2815 14.5366 29.1221 15.1371 28.9585L15.1462 28.9536C16.7033 28.5227 18.4662 28.0311 19.9061 27.221C20.783 26.7295 21.4442 26.1767 21.9271 25.5307C22.5227 24.7343 22.8226 23.8259 22.8226 22.8332V1.69987L21.9035 1.38594ZM22.1522 22.8332C22.1522 23.6809 21.8944 24.4488 21.3926 25.123C20.9659 25.6897 20.3749 26.1862 19.5823 26.6311C18.2085 27.3991 16.4874 27.8766 14.9682 28.298H14.9587C14.349 28.4665 13.7675 28.626 13.266 28.7945C13.2611 28.7945 12.7782 28.963 12.3751 29.2254C12.2297 29.3237 12.0608 29.4592 11.8824 29.6232L11.4136 30.0586L10.9493 29.6232C10.7713 29.4592 10.6023 29.3187 10.457 29.2254C10.0489 28.9585 9.56603 28.7945 9.56147 28.7945C9.05963 28.6305 8.48264 28.4665 7.86844 28.298H7.85895C6.33977 27.8766 4.61864 27.3991 3.24941 26.6311C2.45718 26.1862 1.86613 25.6943 1.43946 25.123C0.933067 24.4488 0.679871 23.6809 0.679871 22.8332V2.19146L1.14413 2.03696C1.30812 1.98077 5.25182 0.683667 11.4136 0.683667C17.5753 0.683667 21.519 1.98077 21.6834 2.03696L22.1476 2.19146V22.8332H22.1522Z" fill="#480024"/>
</svg>
