<svg width="19" height="31" viewBox="0 0 19 31" fill="none" xmlns="http://www.w3.org/2000/svg">
<path d="M9.4355 0C14.6517 0 18.8765 6.9403 18.8765 15.5C18.8765 24.0597 14.6517 31 9.4355 31C4.21926 31 0 24.0597 0 15.5C0 6.9403 4.22477 0 9.4355 0Z" fill="white"/>
<path d="M2.68232 24.2966C4.24664 27.7227 6.68677 29.9314 9.42983 29.9314C14.1228 29.9314 17.9565 23.4483 17.9565 15.5C17.9565 12.3714 17.3616 9.46857 16.3536 7.10005L16.1939 6.73651C14.6406 3.29391 12.1894 1.0686 9.43534 1.0686C4.74238 1.0686 0.908691 7.55172 0.908691 15.5C0.908691 18.6452 1.50908 21.559 2.52259 23.933L2.68232 24.2966Z" fill="white"/>
<path d="M9.4357 1.0686C12.1843 1.0686 14.6354 3.29391 16.1997 6.73101L2.52845 23.933C1.51495 21.559 0.914557 18.6452 0.914557 15.5C0.909049 7.55172 4.74274 1.0686 9.4357 1.0686Z" fill="#0D68B1"/>
<path d="M16.3593 7.1001C17.3618 9.46861 17.9622 12.3714 17.9622 15.5001C17.9622 23.4484 14.134 29.9315 9.4355 29.9315C6.69243 29.9315 4.2468 27.7172 2.68799 24.2966L16.3593 7.1001Z" fill="#1E1E1E"/>
<path d="M17.0642 15.825C17.0697 15.8471 17.0146 15.9352 16.9761 15.9848C16.1774 17.0038 14.8224 17.3783 13.3737 17.136C11.7874 16.8661 10.4709 15.77 8.65323 15.4064C8.53756 15.3568 8.74687 15.2962 8.77441 15.2852C8.9672 15.2246 9.38031 15.2742 9.62818 15.3183C11.0383 15.5772 12.3547 16.3373 13.7373 16.508C15.0537 16.6678 15.9956 16.2492 16.9706 15.8305C17.0257 15.792 17.0587 15.803 17.0642 15.825Z" fill="#1E1E1E"/>
<path d="M16.8992 14.3874C16.9102 14.3984 16.8937 14.4205 16.8827 14.448C15.8692 16.3814 12.8948 15.6873 10.664 14.7124C10.4106 14.6022 10.1737 14.4645 9.90933 14.3764C9.33648 14.1836 8.78016 14.1726 8.28442 14.0679C8.25688 14.0624 8.19629 14.0569 8.19629 14.0404C8.19629 14.0239 8.30094 13.9798 8.4056 13.9302C9.0115 13.6328 9.85976 13.7815 10.7025 14.0404C11.5893 14.3158 12.4651 14.762 13.3299 14.9823C14.7951 15.3568 15.8747 14.9217 16.8662 14.3929C16.8827 14.3819 16.8992 14.3819 16.8992 14.3874Z" fill="#1E1E1E"/>
<path d="M16.6125 13.1039C16.6345 13.126 16.6125 13.159 16.6125 13.159C16.0231 14.0624 14.7342 14.4259 13.4673 14.2001C12.9936 14.1174 12.5034 13.9081 12.0076 13.7209C10.6857 13.2196 9.12134 12.5421 7.72226 12.7569C7.66167 12.7129 7.79387 12.6247 7.82141 12.6027C8.26206 12.2392 9.06075 12.0739 9.79884 12.1951C11.1869 12.4264 12.5309 13.4234 13.9024 13.6492C14.9875 13.831 15.7201 13.4069 16.5353 13.1094C16.5298 13.115 16.5959 13.0929 16.6125 13.1039Z" fill="#1E1E1E"/>
<path d="M16.1828 12.0299C16.1883 12.052 16.1497 12.096 16.1497 12.096C15.4392 12.8066 14.3981 13.0875 13.2084 12.8011C12.0461 12.5257 11.0767 11.716 9.88694 11.4185C9.01114 11.1982 8.21796 11.2423 7.38623 11.3084C7.46885 11.066 7.76079 10.8567 8.00315 10.7465C9.1874 10.2012 10.6416 10.8457 11.8754 11.4626C12.4427 11.7435 13.0321 12.074 13.5939 12.2117C14.5964 12.4596 15.329 12.1621 16.1442 12.0024C16.1497 12.0079 16.1828 12.0134 16.1828 12.0299Z" fill="#1E1E1E"/>
<path d="M16.4252 18.502C15.6595 19.8295 13.1313 20.0498 11.5009 18.9262C11.2034 18.7168 10.9115 18.491 10.7517 18.2046C10.7407 18.1936 10.7407 18.177 10.7407 18.177C10.7462 18.1715 10.7628 18.1825 10.7793 18.1881C11.5174 18.4414 12.1673 18.8215 12.9385 19.0088C14.3045 19.3503 15.4722 18.9812 16.348 18.4524C16.348 18.4524 16.3976 18.4249 16.4252 18.4414C16.4417 18.4635 16.4252 18.502 16.4252 18.502Z" fill="#1E1E1E"/>
<path d="M16.8989 17.1578C15.6155 19.1793 11.4789 18.4743 9.61711 16.7998C9.61711 16.7998 9.54 16.7392 9.55652 16.7227C9.56754 16.7062 9.66668 16.7502 9.66668 16.7502C10.9666 17.2019 12.4098 17.6205 13.6766 17.7362C14.9766 17.8629 16.0341 17.5765 16.8769 17.0642C16.8769 17.0642 16.9154 17.0367 16.9265 17.0532C16.932 17.0642 16.9154 17.1028 16.8989 17.1578Z" fill="#1E1E1E"/>
<path d="M9.85957 7.15523C5.29329 6.92389 1.39351 10.4712 1.16216 15.0815C0.930821 19.6918 4.44504 23.6137 9.01682 23.845C13.5886 24.0763 17.4829 20.5291 17.7142 15.9187C17.9456 11.3139 14.4258 7.38658 9.85957 7.15523ZM16.899 14.3875C16.91 14.3985 16.8935 14.4205 16.8825 14.4481C15.869 16.3814 12.8946 15.6874 10.6638 14.7124C10.4104 14.6023 10.1735 14.4646 9.90914 14.3764C9.87058 14.3654 9.83203 14.3489 9.79898 14.3434C9.78796 14.3379 9.77144 14.3324 9.76042 14.3324C9.73288 14.3214 9.71085 14.3214 9.68882 14.3103C9.67229 14.3048 9.66127 14.2993 9.64475 14.2993C9.62272 14.2938 9.60068 14.2883 9.57865 14.2828C9.56213 14.2773 9.5456 14.2718 9.52908 14.2718C9.50705 14.2663 9.48501 14.2608 9.46849 14.2608C9.45196 14.2553 9.43544 14.2498 9.41891 14.2498C9.39688 14.2443 9.38036 14.2387 9.35832 14.2387C9.3418 14.2332 9.32528 14.2277 9.30875 14.2277C9.28672 14.2222 9.27019 14.2167 9.24816 14.2167C9.23164 14.2112 9.21511 14.2112 9.19859 14.2057C9.18206 14.2002 9.16003 14.2002 9.14351 14.1947C9.12698 14.1892 9.10495 14.1892 9.08842 14.1837C9.0719 14.1782 9.04987 14.1782 9.03334 14.1726C9.01131 14.1671 8.99479 14.1671 8.97275 14.1616C8.95623 14.1561 8.9397 14.1561 8.92318 14.1506C8.89013 14.1451 8.85708 14.1396 8.82403 14.1396C8.81302 14.1396 8.79649 14.1341 8.79098 14.1341C8.76344 14.1286 8.74141 14.1231 8.71938 14.1231C8.70836 14.1231 8.69184 14.1176 8.68082 14.1176C8.65879 14.1121 8.63675 14.1065 8.62023 14.1065C8.60921 14.1065 8.59269 14.101 8.57616 14.101C8.55413 14.0955 8.5321 14.09 8.51557 14.09C8.50456 14.0845 8.48803 14.0845 8.47702 14.079C8.45498 14.0735 8.43295 14.068 8.41643 14.068C8.40541 14.0625 8.38889 14.0625 8.37787 14.057C8.35584 14.0515 8.3338 14.046 8.31728 14.046C8.30626 14.0405 8.28974 14.0404 8.28423 14.0349C8.27872 14.0349 8.27322 14.0349 8.27322 14.0294C8.25669 14.0239 8.21813 14.0184 8.1961 14.0129C8.19059 14.0129 8.19059 14.0129 8.18508 14.0129C8.17958 14.0074 8.17407 14.0019 8.17407 14.0019C8.17407 13.9854 8.27872 13.9413 8.38889 13.8917C8.3999 13.8862 8.41092 13.8807 8.41643 13.8807C8.42194 13.8752 8.42744 13.8752 8.43295 13.8697C8.92869 13.6494 9.56764 13.71 10.2396 13.8807C10.2451 13.8807 10.2506 13.8807 10.2506 13.8862C10.2782 13.8917 10.3002 13.8972 10.3223 13.9027C10.3333 13.9027 10.3333 13.9083 10.3443 13.9083C10.3663 13.9138 10.3884 13.9193 10.4104 13.9248C10.4214 13.9303 10.4269 13.9303 10.4379 13.9358C10.46 13.9413 10.482 13.9468 10.4985 13.9523C10.5095 13.9578 10.515 13.9578 10.5261 13.9633C10.5481 13.9688 10.5701 13.9744 10.5866 13.9799C10.5977 13.9854 10.6032 13.9854 10.6142 13.9909C10.6417 14.0019 10.6748 14.0074 10.6968 14.0184C11.5836 14.2938 12.4594 14.74 13.3242 14.9603C14.7894 15.3349 15.869 14.8997 16.8605 14.3709C16.8825 14.382 16.899 14.382 16.899 14.3875ZM16.6126 13.1041C16.6346 13.1261 16.6126 13.1591 16.6126 13.1591C16.0232 14.0625 14.7398 14.426 13.4674 14.2002C12.9937 14.1176 12.5035 13.9083 12.0078 13.721C10.6858 13.2197 9.12147 12.5422 7.7224 12.757C7.66181 12.713 7.794 12.6248 7.82154 12.6028C8.2622 12.2393 9.06088 12.074 9.79898 12.1952C11.187 12.4266 12.531 13.4235 13.9026 13.6494C14.9877 13.8311 15.7203 13.407 16.5355 13.1096C16.53 13.1151 16.5961 13.093 16.6126 13.1041ZM16.183 12.03C16.1885 12.052 16.1499 12.0961 16.1499 12.0961C15.4393 12.8066 14.3983 13.0875 13.2085 12.8011C12.0463 12.5257 11.0769 11.716 9.88711 11.4186C9.01131 11.1982 8.21813 11.2423 7.3864 11.3084C7.46902 11.066 7.76095 10.8567 8.00331 10.7466C9.18757 10.2013 10.6417 10.8457 11.8756 11.4626C12.4429 11.7435 13.0323 12.074 13.5941 12.2117C14.5966 12.4596 15.3292 12.1622 16.1444 12.0024C16.1499 12.0079 16.183 12.0134 16.183 12.03ZM9.38587 23.0353C9.37485 23.0353 9.35832 23.0353 9.3418 23.0353C9.27019 23.0353 9.19859 23.0298 9.12698 23.0243C8.11348 22.9747 7.13853 22.7268 6.23519 22.2862C5.35939 21.8621 4.58274 21.2837 3.92727 20.5511C3.27179 19.8295 2.77055 18.9978 2.44006 18.0834C2.09855 17.136 1.94983 16.1446 1.99941 15.1311C2.04898 14.1176 2.29685 13.1426 2.7375 12.2393C3.16163 11.3635 3.73999 10.5868 4.47258 9.93135C5.19415 9.27588 6.02588 8.77464 6.94024 8.44415C7.88764 8.10264 8.87911 7.95392 9.89262 8.00349C10.9061 8.05307 11.8811 8.30093 12.7844 8.74159C13.6602 9.16572 14.4369 9.74407 15.0923 10.4767C15.3016 10.7135 15.4999 10.9559 15.6817 11.2148C15.208 11.4075 14.7618 11.6058 14.2331 11.5563C13.5005 11.4791 12.6798 11.1156 11.9031 10.7466C10.2011 9.92584 8.3283 9.2208 7.08345 10.394C6.97329 10.4987 6.80804 10.7025 6.72542 10.8733C6.66483 11.0165 6.66483 11.1982 6.57119 11.369C6.40594 11.683 6.03139 11.9088 5.80005 12.2228C5.67336 12.388 5.55769 12.5422 5.46405 12.735C5.33185 13.0104 5.22169 13.418 5.05644 13.6714C4.90221 13.9138 4.61028 14.1947 4.36792 14.426C4.17513 14.6078 3.73448 14.8887 3.6794 15.1806C3.60779 15.5221 4.03743 15.6378 4.03192 15.9187C4.02641 16.128 3.77855 16.2988 3.7455 16.4751C3.70694 16.6844 3.79507 16.7174 3.90523 16.9322C3.87769 17.0534 3.72897 16.9928 3.72897 17.1581C3.76202 17.3564 3.90523 17.439 3.89422 17.7034C3.87769 18.0008 3.6794 18.2542 3.70143 18.4911C3.75651 19.119 5.24923 19.1961 5.99834 19.444C7.01735 19.7855 7.56817 20.5456 8.08594 21.2396C8.22364 21.4214 8.42194 21.6693 8.57616 21.8951C8.65328 22.0108 8.91767 22.468 9.13249 22.7819C11.3468 22.7379 13.2361 22.0328 14.9712 20.2537H15.3622C13.5886 22.132 11.6387 22.9417 9.38587 23.0353ZM16.4253 18.5021C15.6597 19.8295 13.1314 20.0499 11.501 18.9262C11.479 18.9152 11.4624 18.8987 11.4404 18.8821C11.4294 18.8766 11.4294 18.8711 11.4184 18.8711C11.4074 18.8601 11.3908 18.8546 11.3798 18.8436C11.3688 18.8381 11.3688 18.8326 11.3578 18.8271C11.3468 18.816 11.3303 18.8105 11.3247 18.7995C11.3137 18.794 11.3082 18.7885 11.2972 18.783C11.2862 18.772 11.2752 18.7665 11.2642 18.7554C11.2531 18.7444 11.2476 18.7444 11.2366 18.7334C11.2256 18.7224 11.2146 18.7169 11.2091 18.7059C11.1981 18.6949 11.1925 18.6949 11.1815 18.6838C11.1705 18.6728 11.1595 18.6673 11.154 18.6563C11.143 18.6453 11.1375 18.6453 11.1264 18.6343C11.1154 18.6232 11.1044 18.6177 11.0989 18.6067C11.0879 18.5957 11.0824 18.5957 11.0714 18.5847C11.0603 18.5737 11.0548 18.5682 11.0438 18.5572C11.0328 18.5461 11.0273 18.5461 11.0218 18.5351C11.0108 18.5241 11.0053 18.5186 10.9943 18.5076C10.9832 18.4966 10.9832 18.4966 10.9722 18.4855C10.9612 18.4745 10.9557 18.469 10.9447 18.458C10.9337 18.447 10.9337 18.4415 10.9226 18.436C10.9116 18.425 10.9061 18.4194 10.8951 18.4084C10.8841 18.3974 10.8841 18.3919 10.8731 18.3864C10.8621 18.3754 10.8565 18.3699 10.851 18.3589C10.84 18.3478 10.84 18.3423 10.829 18.3313C10.818 18.3203 10.818 18.3148 10.807 18.3038C10.8015 18.2928 10.796 18.2873 10.7904 18.2762C10.7794 18.2652 10.7794 18.2597 10.7684 18.2487C10.7629 18.2377 10.7574 18.2322 10.7519 18.2212C10.7464 18.2101 10.7409 18.1991 10.7354 18.1936C10.7299 18.1881 10.7244 18.1771 10.7188 18.1661C10.7188 18.1606 10.7133 18.1551 10.7133 18.1551C10.7078 18.1495 10.7078 18.144 10.7078 18.144C10.7023 18.133 10.6968 18.1275 10.6968 18.1165C10.7078 18.122 10.7078 18.122 10.7188 18.1275C10.7299 18.1275 10.7354 18.133 10.7464 18.1385C10.7629 18.144 10.7849 18.1495 10.8015 18.1606C10.8235 18.1716 10.8455 18.1716 10.8621 18.1826C10.8896 18.1936 10.9116 18.2046 10.9392 18.2101C10.9612 18.2212 10.9832 18.2267 10.9998 18.2377C11.0273 18.2487 11.0493 18.2597 11.0769 18.2652C11.0989 18.2762 11.1209 18.2817 11.1375 18.2928C11.165 18.3038 11.187 18.3148 11.2146 18.3258C11.2366 18.3368 11.2586 18.3423 11.2752 18.3533C11.3027 18.3644 11.3303 18.3754 11.3523 18.3864C11.3743 18.3974 11.3908 18.4029 11.4129 18.4139C11.4404 18.425 11.468 18.4415 11.4955 18.4525C11.512 18.4635 11.5341 18.469 11.5506 18.48C11.5946 18.4966 11.6277 18.5131 11.6718 18.5351C11.6938 18.5461 11.7158 18.5516 11.7323 18.5627C11.7599 18.5737 11.7874 18.5847 11.8095 18.5957C11.8315 18.6067 11.8535 18.6177 11.8756 18.6233C11.8976 18.6288 11.9196 18.6453 11.9472 18.6508C11.9692 18.6618 11.9912 18.6728 12.0133 18.6783C12.0353 18.6838 12.0573 18.6949 12.0794 18.7059C12.1069 18.7169 12.1234 18.7279 12.151 18.7334C12.173 18.7444 12.195 18.7499 12.2171 18.761C12.2446 18.772 12.2666 18.7775 12.2887 18.7885C12.3107 18.7995 12.3327 18.805 12.3548 18.816C12.3823 18.8271 12.4043 18.8326 12.4319 18.8436C12.4539 18.8546 12.476 18.8601 12.4925 18.8656C12.52 18.8766 12.5476 18.8821 12.5751 18.8932C12.5971 18.9042 12.6137 18.9042 12.6357 18.9152C12.6632 18.9262 12.6963 18.9317 12.7293 18.9427C12.7459 18.9482 12.7624 18.9537 12.7789 18.9592C12.8285 18.9703 12.8725 18.9868 12.9221 18.9978C14.2881 19.3393 15.4559 18.9703 16.3317 18.4415C16.3317 18.4415 16.3812 18.4139 16.4088 18.4305C16.4418 18.4635 16.4253 18.5021 16.4253 18.5021ZM16.899 17.1581C15.6156 19.1796 11.479 18.4745 9.61721 16.8C9.61721 16.8 9.54009 16.7395 9.55662 16.7229C9.56763 16.7064 9.66678 16.7505 9.66678 16.7505C10.9667 17.2021 12.4099 17.6208 13.6767 17.7364C14.9767 17.8631 16.0342 17.5767 16.877 17.0644C16.877 17.0644 16.9155 17.0369 16.9266 17.0534C16.9321 17.0644 16.9155 17.103 16.899 17.1581ZM16.9761 15.9793C16.1774 16.9983 14.8224 17.3729 13.3738 17.1305C11.7874 16.8606 10.471 15.7645 8.65328 15.401C8.60371 15.3789 8.60921 15.3569 8.64226 15.3349C8.67531 15.3073 8.75243 15.2853 8.76895 15.2798C8.96174 15.2192 9.37485 15.2688 9.62272 15.3128C11.0328 15.5717 12.3493 16.3319 13.7318 16.5026C15.0483 16.6623 15.9902 16.2437 16.9651 15.8251C17.0257 15.7976 17.0532 15.8031 17.0588 15.8251C17.0643 15.8416 17.0092 15.9298 16.9761 15.9793Z" fill="white"/>
<path d="M3.84468 7.49113L3.6574 6.65939L3.66291 6.65389L4.30736 7.17716L3.84468 7.49113ZM4.49464 7.32038L4.91877 7.66739L5.1391 7.52418L3.64087 6.35645L3.41504 6.51067L3.82264 8.41099L4.03195 8.27329L3.90527 7.72247L4.49464 7.32038Z" fill="white"/>
<path d="M3.84468 7.49113L3.6574 6.65939L3.66291 6.65389L4.30736 7.17716L3.84468 7.49113ZM4.49464 7.32038L4.91877 7.66739L5.1391 7.52418L3.64087 6.35645L3.41504 6.51067L3.82264 8.41099L4.03195 8.27329L3.90527 7.72247L4.49464 7.32038Z" fill="white"/>
<path d="M4.17529 5.91588L5.48624 5.29346L5.56886 5.49726L5.02906 5.75064L5.68453 7.20479L5.46971 7.30945L4.80873 5.85529L4.26893 6.11417L4.17529 5.91588Z" fill="white"/>
<path d="M4.17529 5.91588L5.48624 5.29346L5.56886 5.49726L5.02906 5.75064L5.68453 7.20479L5.46971 7.30945L4.80873 5.85529L4.26893 6.11417L4.17529 5.91588Z" fill="white"/>
<path d="M6.42252 6.09763L6.48311 5.24387H6.48862L6.9513 5.94341L6.42252 6.09763ZM7.09452 6.13068L7.40297 6.59337L7.65635 6.51626L6.56022 4.94092L6.30134 5.01803L6.1416 6.95691L6.37845 6.8853L6.41701 6.32347L7.09452 6.13068Z" fill="white"/>
<path d="M6.42252 6.09763L6.48311 5.24387H6.48862L6.9513 5.94341L6.42252 6.09763ZM7.09452 6.13068L7.40297 6.59337L7.65635 6.51626L6.56022 4.94092L6.30134 5.01803L6.1416 6.95691L6.37845 6.8853L6.41701 6.32347L7.09452 6.13068Z" fill="white"/>
<path d="M8.10235 6.18561L8.99468 6.07545L9.02222 6.29027L7.89304 6.43348L7.67822 4.6268L7.90957 4.59375L8.10235 6.18561Z" fill="white"/>
<path d="M8.10235 6.18561L8.99468 6.07545L9.02222 6.29027L7.89304 6.43348L7.67822 4.6268L7.90957 4.59375L8.10235 6.18561Z" fill="white"/>
<path d="M9.79342 5.57989L10.1459 4.80875H10.1514L10.3442 5.62947L9.79342 5.57989ZM10.4048 5.8553L10.5315 6.40061L10.7904 6.42815L10.3167 4.55537L10.0468 4.52783L9.22607 6.27943L9.46843 6.30697L9.69978 5.79471L10.4048 5.8553Z" fill="white"/>
<path d="M9.79342 5.57989L10.1459 4.80875H10.1514L10.3442 5.62947L9.79342 5.57989ZM10.4048 5.8553L10.5315 6.40061L10.7904 6.42815L10.3167 4.55537L10.0468 4.52783L9.22607 6.27943L9.46843 6.30697L9.69978 5.79471L10.4048 5.8553Z" fill="white"/>
<path d="M12.6686 5.02353L12.889 5.08963L12.3822 6.83572L12.1233 6.75309L11.6717 5.07861H11.6662L11.2586 6.4887L11.0327 6.4226L11.5395 4.67651L11.8149 4.75914L12.2555 6.42811V6.43362L12.6686 5.02353Z" fill="white"/>
<path d="M12.6686 5.02353L12.889 5.08963L12.3822 6.83572L12.1233 6.75309L11.6717 5.07861H11.6662L11.2586 6.4887L11.0327 6.4226L11.5395 4.67651L11.8149 4.75914L12.2555 6.42811V6.43362L12.6686 5.02353Z" fill="white"/>
<path d="M13.1867 5.18872L14.4921 5.81114L14.404 6.00944L13.8587 5.75055L13.1977 7.20471L12.9829 7.10006L13.6439 5.6459L13.0986 5.38701L13.1867 5.18872Z" fill="white"/>
<path d="M13.1867 5.18872L14.4921 5.81114L14.404 6.00944L13.8587 5.75055L13.1977 7.20471L12.9829 7.10006L13.6439 5.6459L13.0986 5.38701L13.1867 5.18872Z" fill="white"/>
<path d="M14.3158 6.98988L14.9878 6.48313L14.9933 6.48863L14.7785 7.30384L14.3158 6.98988ZM14.7234 7.53519L14.5802 8.07499L14.8006 8.22371L15.2577 6.33991L15.0319 6.18018L13.4951 7.32037L13.7044 7.46358L14.1451 7.12758L14.7234 7.53519Z" fill="white"/>
<path d="M14.3158 6.98988L14.9878 6.48313L14.9933 6.48863L14.7785 7.30384L14.3158 6.98988ZM14.7234 7.53519L14.5802 8.07499L14.8006 8.22371L15.2577 6.33991L15.0319 6.18018L13.4951 7.32037L13.7044 7.46358L14.1451 7.12758L14.7234 7.53519Z" fill="white"/>
<path d="M6.10311 26.4226L5.82219 26.329L6.29589 24.7867L5.80566 24.6269L5.87176 24.4121C6.22429 24.5002 6.37301 24.5113 6.56579 24.1863L6.7751 24.2524L6.10311 26.4226Z" fill="white"/>
<path d="M7.95928 25.8718C7.772 25.8443 7.51862 25.7617 7.5682 25.3265C7.60675 25.0236 7.79403 24.8363 8.05292 24.8694C8.36688 24.9134 8.47154 25.1503 8.444 25.4092C8.38891 25.8553 8.10249 25.8884 7.95928 25.8718ZM7.88767 26.1197C8.09147 26.1472 8.32282 26.0756 8.42196 25.9104L8.42747 25.9214C8.28977 26.4943 8.10249 26.7366 7.79954 26.6981C7.5737 26.6705 7.45803 26.5108 7.47456 26.2794L7.19915 26.2464C7.17161 26.4667 7.26525 26.8688 7.78301 26.9349C8.53763 27.0286 8.70288 26.004 8.73042 25.7617C8.77449 25.3926 8.79101 24.7096 8.08596 24.616C7.62328 24.5554 7.33685 24.8914 7.28728 25.3045C7.22669 25.7507 7.48007 26.0701 7.88767 26.1197Z" fill="white"/>
<path d="M7.95928 25.8718C7.772 25.8443 7.51862 25.7617 7.5682 25.3265C7.60675 25.0236 7.79403 24.8363 8.05292 24.8694C8.36688 24.9134 8.47154 25.1503 8.444 25.4092C8.38891 25.8553 8.10249 25.8884 7.95928 25.8718ZM7.88767 26.1197C8.09147 26.1472 8.32282 26.0756 8.42196 25.9104L8.42747 25.9214C8.28977 26.4943 8.10249 26.7366 7.79954 26.6981C7.5737 26.6705 7.45803 26.5108 7.47456 26.2794L7.19915 26.2464C7.17161 26.4667 7.26525 26.8688 7.78301 26.9349C8.53763 27.0286 8.70288 26.004 8.73042 25.7617C8.77449 25.3926 8.79101 24.7096 8.08596 24.616C7.62328 24.5554 7.33685 24.8914 7.28728 25.3045C7.22669 25.7507 7.48007 26.0701 7.88767 26.1197Z" fill="white"/>
<path d="M10.6696 25.8279C10.7026 26.4007 10.5759 26.7478 10.262 26.7698C9.9425 26.7918 9.77726 26.4558 9.74421 25.8885C9.71116 25.3156 9.83785 24.9686 10.1518 24.9466C10.4713 24.9301 10.6365 25.2606 10.6696 25.8279ZM10.967 25.8114C10.9395 25.3377 10.7742 24.6547 10.1408 24.6932C9.50736 24.7373 9.42474 25.4368 9.45228 25.9105C9.47982 26.3842 9.64506 27.0672 10.2785 27.0287C10.9119 26.9846 10.9946 26.2796 10.967 25.8114Z" fill="white"/>
<path d="M10.6696 25.8279C10.7026 26.4007 10.5759 26.7478 10.262 26.7698C9.9425 26.7918 9.77726 26.4558 9.74421 25.8885C9.71116 25.3156 9.83785 24.9686 10.1518 24.9466C10.4713 24.9301 10.6365 25.2606 10.6696 25.8279ZM10.967 25.8114C10.9395 25.3377 10.7742 24.6547 10.1408 24.6932C9.50736 24.7373 9.42474 25.4368 9.45228 25.9105C9.47982 26.3842 9.64506 27.0672 10.2785 27.0287C10.9119 26.9846 10.9946 26.2796 10.967 25.8114Z" fill="white"/>
<path d="M11.3247 24.55L12.7954 24.1204L12.8615 24.3627C12.7128 24.6547 12.3988 25.4974 12.52 26.5219L12.228 26.6101C12.1344 25.9876 12.3052 25.0898 12.5751 24.4784L11.4073 24.8199L11.3247 24.55Z" fill="white"/>
<path d="M11.3247 24.55L12.7954 24.1204L12.8615 24.3627C12.7128 24.6547 12.3988 25.4974 12.52 26.5219L12.228 26.6101C12.1344 25.9876 12.3052 25.0898 12.5751 24.4784L11.4073 24.8199L11.3247 24.55Z" fill="white"/>
</svg>
