<svg width="25" height="32" viewBox="0 0 25 32" fill="none" xmlns="http://www.w3.org/2000/svg">
<path fill-rule="evenodd" clip-rule="evenodd" d="M2.48771e-07 20.2825C-0.000231187 20.9787 0.161022 21.6654 0.471083 22.2887C0.781145 22.912 1.23156 23.4549 1.78692 23.8747L12.5024 32L23.224 23.8716C23.7775 23.4512 24.2263 22.9085 24.5353 22.2859C24.8442 21.6632 25.0049 20.9776 25.0049 20.2825V0H2.48771e-07V20.2825Z" fill="#F9DC30"/>
<path fill-rule="evenodd" clip-rule="evenodd" d="M0.708651 20.2825C0.711746 21.4737 1.26763 22.5918 2.21463 23.3065L12.5024 31.108L22.7934 23.3035C23.2601 22.9502 23.6386 22.4935 23.8994 21.9694C24.1601 21.4453 24.2959 20.8679 24.2962 20.2825V0.711747H0.708651V20.2825Z" fill="#33348E"/>
<path fill-rule="evenodd" clip-rule="evenodd" d="M12.5026 31.1082L22.7935 23.3037C23.2603 22.9504 23.6388 22.4937 23.8995 21.9696C24.1603 21.4455 24.2961 20.8681 24.2964 20.2827V0.711747L2.21153 23.3035L12.5026 31.1082Z" fill="#CD3529"/>
<path fill-rule="evenodd" clip-rule="evenodd" d="M21.9261 3.13704L18.8439 6.28937V26.3L21.9261 23.9632V3.13704ZM16.4738 8.71175L13.3915 11.8672V30.433L16.4738 28.0962V8.71175ZM11.0211 14.2894L7.939 17.4417V27.6472L11.0211 29.984V14.2894ZM5.5687 19.867L2.21153 23.3035L5.5687 25.851V19.867ZM2.37049 10.2665L2.05585 11.137L1.13035 11.1676L1.8603 11.7326L1.60375 12.6246L2.37049 12.1024L3.13412 12.6246L2.87757 11.7326L3.60753 11.1676L2.68202 11.137L2.37049 10.2665ZM14.3598 7.19667L14.0452 8.07028L13.1195 8.09778L13.8527 8.66586L13.5931 9.55787L14.3598 9.03548L15.1266 9.55787L14.8669 8.66586L15.6 8.09778L14.6714 8.07028L14.3598 7.19667ZM20.3528 1.06607L20.0385 1.93969L19.1128 1.96718L19.8457 2.53527L19.586 3.42418L20.3528 2.90489L21.1195 3.42418L20.8599 2.53527L21.5933 1.96718L20.6676 1.93969L20.3528 1.06607ZM2.37049 1.06607L2.05585 1.93969L1.13035 1.96718L1.8603 2.53527L1.60375 3.42418L2.37049 2.90489L3.13412 3.42418L2.87757 2.53527L3.60753 1.96718L2.68202 1.93969L2.37049 1.06607ZM11.3603 1.06607L11.0485 1.93969L10.1199 1.96718L10.8532 2.53527L10.5935 3.42418L11.3603 2.90489L12.1268 3.42418L11.8672 2.53527L12.6004 1.96718L11.6747 1.93969L11.3603 1.06607ZM2.37049 19.4639L2.05585 20.3375L1.13035 20.3652L1.8603 20.9332L1.60375 21.8222L2.37049 21.3029L3.13412 21.8222L2.87757 20.9332L3.60753 20.3652L2.68202 20.3375L2.37049 19.4639ZM8.3698 13.3242L8.05517 14.1978L7.12966 14.2253L7.86271 14.7934L7.60307 15.6823L8.3698 15.163L9.13635 15.6823L8.87671 14.7934L9.60994 14.2253L8.68443 14.1978L8.3698 13.3242ZM4.02904 16.6965V4.02904H16.4093L4.02904 16.6965Z" fill="white"/>
<path fill-rule="evenodd" clip-rule="evenodd" d="M7.18775 7.9878C7.14496 8.12218 7.08087 8.62926 7.06557 8.68717C7.04718 8.74525 6.8946 8.76965 6.81194 8.68425C6.72945 8.59868 6.58889 8.20156 6.40572 7.9878V9.67695C6.5248 9.77764 6.72035 9.81733 6.83943 9.81442C6.96761 10.1107 7.10199 10.3885 7.35872 10.6605C7.28243 11.0698 7.3924 11.3204 7.64586 11.5403C7.89931 11.7603 7.64895 12.0076 7.55427 12.0107C6.90662 12.0139 8.46467 12.2002 8.47668 12.1268C8.48888 12.0534 8.48579 11.9588 8.4552 11.8794C8.32082 11.5098 8.29023 11.2989 8.48579 10.9752C8.86469 11.0424 8.92878 10.7521 8.72704 10.5049C8.60505 10.2024 8.76382 10.2024 8.47359 9.8481C8.18645 9.49669 8.00018 8.59867 8.21394 8.24144C8.3973 7.93299 8.52257 7.73125 8.10087 7.77404C7.9878 7.68846 7.90842 7.57557 7.79243 7.54498C7.67626 7.5113 7.59087 7.59688 7.48399 7.56938C7.30064 7.5235 7.12038 7.108 6.99838 7.5113C6.95851 7.64258 7.23345 7.85033 7.18775 7.9878Z" fill="black"/>
<path fill-rule="evenodd" clip-rule="evenodd" d="M6.49421 8.09778L6.5004 11.5831C6.5126 11.8246 6.64078 11.9222 6.85163 11.9284L8.14366 11.9651C8.33612 11.9713 8.70574 12.2095 8.14985 12.2064L4.79596 12.2002C4.5791 12.194 4.72567 11.9986 4.97931 11.9924L5.72146 11.9282C5.90172 11.922 5.9904 11.7938 5.9904 11.5433V7.59051C5.98653 7.53264 5.96527 7.4773 5.9294 7.43173C6.02408 7.44084 6.11876 7.44393 6.21654 7.44393C6.33562 7.44393 6.45178 7.43792 6.56485 7.42263C6.52427 7.46975 6.49967 7.52852 6.49457 7.59051V8.09778H6.49421Z" fill="#5E3729"/>
<path fill-rule="evenodd" clip-rule="evenodd" d="M7.30064 7.25166L7.28844 7.23636L7.05009 7.37383L6.9738 7.36764C6.73856 7.43483 6.48201 7.47142 6.21617 7.47142C5.07071 7.47142 4.13902 6.80247 4.13902 5.98075C4.13902 5.15921 5.07071 4.49007 6.21617 4.49007C7.36181 4.49007 8.29642 5.15902 8.29642 5.98075C8.29642 6.51861 7.89622 6.98892 7.30064 7.25166Z" fill="#43644A"/>
<path fill-rule="evenodd" clip-rule="evenodd" d="M5.88643 5.27847C5.92356 5.27804 5.95905 5.26309 5.98529 5.23681C6.01153 5.21054 6.02643 5.17503 6.02681 5.1379C6.02639 5.1008 6.01146 5.06534 5.98522 5.03911C5.95899 5.01287 5.92353 4.99794 5.88643 4.99752C5.86797 4.99745 5.84969 5.00103 5.83262 5.00806C5.81556 5.01509 5.80005 5.02542 5.787 5.03848C5.77395 5.05153 5.76361 5.06703 5.75658 5.08409C5.74956 5.10116 5.74597 5.11945 5.74605 5.1379C5.74595 5.15637 5.74951 5.17468 5.75653 5.19177C5.76355 5.20885 5.77388 5.22438 5.78694 5.23745C5.79999 5.25052 5.8155 5.26087 5.83258 5.26791C5.84966 5.27495 5.86796 5.27854 5.88643 5.27847ZM4.99133 5.67849C5.02846 5.67812 5.06397 5.66321 5.09024 5.63697C5.11652 5.61073 5.13147 5.57524 5.13189 5.53811C5.13194 5.51964 5.12834 5.50134 5.12129 5.48426C5.11424 5.46719 5.10389 5.45167 5.09083 5.43861C5.07777 5.42555 5.06225 5.41519 5.04518 5.40815C5.0281 5.4011 5.0098 5.3975 4.99133 5.39755C4.9728 5.39728 4.95441 5.40073 4.93725 5.4077C4.92008 5.41467 4.90449 5.42502 4.8914 5.43813C4.8783 5.45123 4.86798 5.46684 4.86103 5.48401C4.85408 5.50119 4.85065 5.51959 4.85095 5.53811C4.85095 5.6144 4.91194 5.67849 4.99133 5.67849ZM5.77026 6.60109C5.78874 6.60114 5.80703 6.59753 5.82411 6.59049C5.84119 6.58344 5.8567 6.57309 5.86976 6.56002C5.88283 6.54696 5.89318 6.53145 5.90023 6.51437C5.90727 6.4973 5.91088 6.479 5.91083 6.46052C5.91036 6.42339 5.89539 6.38791 5.86914 6.36165C5.84288 6.33539 5.8074 6.32043 5.77026 6.31996C5.7518 6.31991 5.73351 6.32351 5.71644 6.33056C5.69938 6.33761 5.68387 6.34797 5.67083 6.36103C5.65778 6.3741 5.64744 6.38961 5.64041 6.40669C5.63339 6.42376 5.62981 6.44206 5.62988 6.46052C5.62953 6.47906 5.63293 6.49748 5.63986 6.51468C5.64679 6.53188 5.65711 6.5475 5.67022 6.56062C5.68332 6.57374 5.69893 6.58409 5.71612 6.59104C5.73331 6.59799 5.75172 6.60141 5.77026 6.60109ZM7.09598 6.5949C7.13365 6.5949 7.16977 6.57993 7.1964 6.5533C7.22304 6.52667 7.238 6.49054 7.238 6.45288C7.238 6.41521 7.22304 6.37909 7.1964 6.35245C7.16977 6.32582 7.13365 6.31085 7.09598 6.31085C7.05831 6.31085 7.02219 6.32582 6.99555 6.35245C6.96892 6.37909 6.95396 6.41521 6.95396 6.45288C6.95396 6.49054 6.96892 6.52667 6.99555 6.5533C7.02219 6.57993 7.05831 6.5949 7.09598 6.5949ZM6.50641 5.93523C6.52511 5.93559 6.5437 5.93222 6.56109 5.92533C6.57848 5.91843 6.59433 5.90814 6.6077 5.89505C6.62107 5.88197 6.63171 5.86635 6.63898 5.84912C6.64625 5.83188 6.65002 5.81337 6.65007 5.79466C6.64945 5.75704 6.63401 5.72118 6.60712 5.69486C6.58022 5.66855 6.54403 5.6539 6.50641 5.6541C6.46928 5.65452 6.43379 5.66947 6.40755 5.69575C6.38131 5.72202 6.3664 5.75753 6.36602 5.79466C6.36595 5.81312 6.36953 5.83142 6.37656 5.8485C6.38359 5.86557 6.39392 5.88109 6.40697 5.89415C6.42002 5.90722 6.43552 5.91757 6.45259 5.92462C6.46965 5.93167 6.48794 5.93527 6.50641 5.93523ZM7.56028 5.6601C7.57874 5.66015 7.59704 5.65655 7.6141 5.6495C7.63117 5.64245 7.64667 5.63209 7.65972 5.61903C7.67277 5.60596 7.6831 5.59045 7.69013 5.57337C7.69715 5.5563 7.70073 5.538 7.70066 5.51954C7.70066 5.44325 7.63657 5.37916 7.56028 5.37916C7.48399 5.37916 7.41971 5.44343 7.41971 5.51954C7.41967 5.53801 7.42327 5.55631 7.43032 5.57339C7.43736 5.59046 7.44772 5.60598 7.46078 5.61904C7.47384 5.6321 7.48936 5.64246 7.50643 5.6495C7.52351 5.65655 7.54181 5.66015 7.56028 5.6601Z" fill="#CD3529"/>
</svg>
