<svg width="32" height="32" viewBox="0 0 32 32" fill="none" xmlns="http://www.w3.org/2000/svg">
<path fill-rule="evenodd" clip-rule="evenodd" d="M15.9997 31.7389C24.6919 31.7389 31.7387 24.6921 31.7387 15.9997C31.7387 7.30752 24.6919 0.260742 15.9997 0.260742C7.30752 0.260913 0.260742 7.30769 0.260742 15.9999C0.260742 24.6921 7.30752 31.7389 15.9997 31.7389Z" fill="white"/>
<path d="M16 31.4781C20.2742 31.4781 24.1437 29.7457 26.9448 26.9448C29.7457 24.1437 31.4781 20.2742 31.4781 16C31.4781 11.726 29.7457 7.85615 26.9448 5.05533C24.1437 2.25434 20.2742 0.521851 16 0.521851C11.7258 0.521851 7.85615 2.25434 5.05533 5.05533C2.25434 7.85615 0.521851 11.726 0.521851 16C0.521851 20.2742 2.25434 24.1437 5.05533 26.9448C7.85615 29.7457 11.726 31.4781 16 31.4781ZM16 32C11.582 32 7.5818 30.209 4.68639 27.3138C1.79099 24.418 0 20.4184 0 16C0 11.582 1.79099 7.58197 4.68639 4.68639C7.58197 1.79116 11.5821 0 16 0C20.4182 0 24.4182 1.79099 27.3136 4.68639C30.209 7.5818 31.9998 11.5818 31.9998 15.9998C31.9998 20.418 30.2088 24.4179 27.3136 27.3133C24.4184 30.209 20.4182 32 16 32Z" fill="#346BA5"/>
<path d="M16.0002 25.2227C18.5472 25.2227 20.853 24.1904 22.5219 22.5218C24.1906 20.8527 25.2228 18.5471 25.2228 15.9999C25.2228 13.4529 24.1906 11.1469 22.5219 9.4784C20.8529 7.80954 18.5472 6.77729 16.0002 6.77729C13.4531 6.77729 11.1472 7.80954 9.47854 9.4784C7.80968 11.1471 6.77744 13.4529 6.77744 15.9999C6.77744 18.5471 7.80968 20.8527 9.47854 22.5218C11.1474 24.1904 13.4532 25.2227 16.0002 25.2227ZM16.0002 30.7003C11.9412 30.7003 8.26619 29.0547 5.6058 26.3942C2.9454 23.7339 1.2998 20.0589 1.2998 15.9997C1.2998 11.9407 2.9454 8.26571 5.6058 5.60531C8.26619 2.94492 11.9412 1.29932 16.0002 1.29932C20.0592 1.29932 23.7343 2.94492 26.3948 5.60531C29.055 8.26571 30.7006 11.9407 30.7006 15.9997C30.7006 20.0587 29.055 23.7339 26.3948 26.3942C23.7344 29.0547 20.0592 30.7003 16.0002 30.7003Z" fill="#CC2229"/>
<path fill-rule="evenodd" clip-rule="evenodd" d="M3.04937 11.5115L3.98412 9.38514L4.64862 9.67728L4.0941 10.9387L4.63408 11.176L5.10804 10.0982L5.73252 10.3727L5.25873 11.4505L6.52205 12.0059L6.14182 12.8708L3.04937 11.5115ZM7.51427 7.97114L8.25522 7.51958C8.41583 7.72706 8.52376 7.93162 8.57901 8.13345C8.63408 8.33529 8.63836 8.53164 8.59218 8.72253C8.54582 8.91358 8.43533 9.11301 8.26035 9.321C8.04672 9.575 7.83206 9.74758 7.61586 9.83875C7.39967 9.93009 7.13985 9.94736 6.83625 9.89057C6.53282 9.83396 6.2205 9.67061 5.89962 9.40071C5.47185 9.04083 5.22897 8.66232 5.17115 8.2643C5.11334 7.86663 5.24214 7.48024 5.55754 7.10532C5.80367 6.81266 6.06297 6.63803 6.33544 6.58107C6.60808 6.52429 6.91527 6.56944 7.25719 6.71654L6.88038 7.48332C6.78272 7.43936 6.70541 7.41456 6.64828 7.40841C6.55889 7.39648 6.46795 7.40628 6.38316 7.43697C6.29991 7.46847 6.22641 7.52133 6.17004 7.59022C6.03269 7.75357 6.0002 7.94018 6.07289 8.1497C6.12574 8.30655 6.26788 8.48221 6.49947 8.67703C6.78631 8.9182 7.01602 9.04426 7.18843 9.05486C7.36101 9.06564 7.50674 9.00047 7.62544 8.85936C7.74107 8.72184 7.78571 8.58176 7.7592 8.43894C7.73234 8.29612 7.65076 8.14013 7.51427 7.97114ZM10.2691 4.34709L10.6466 4.17502C10.7752 4.11635 10.8773 4.1001 10.9527 4.12661C11.028 4.15295 11.0861 4.21094 11.1272 4.30039C11.1712 4.39686 11.1787 4.48272 11.1494 4.55764C11.1202 4.63273 11.0391 4.70029 10.9066 4.76101L10.5352 4.93034L10.2691 4.34709ZM10.5232 7.19323L11.9999 6.51984C12.0628 6.4911 12.1842 6.41875 12.3645 6.30262C12.499 6.21607 12.5922 6.13294 12.6437 6.05375C12.7246 5.92735 12.7694 5.78521 12.7784 5.62734C12.7877 5.46947 12.7557 5.31074 12.6832 5.15133C12.5937 4.95548 12.4728 4.81437 12.32 4.72783C12.1673 4.64128 11.9795 4.61665 11.757 4.65411C11.8639 4.54447 11.932 4.43056 11.961 4.31254C12.0036 4.13602 11.9836 3.95694 11.9007 3.77495C11.8018 3.55824 11.6472 3.40926 11.4368 3.32767C11.2264 3.24609 10.9885 3.26593 10.7229 3.3872L9.12035 4.11823L10.5232 7.19323ZM10.802 5.51548L11.2362 5.31758C11.3858 5.24934 11.503 5.22932 11.5876 5.25737C11.6721 5.28543 11.7353 5.34495 11.7766 5.43577C11.8213 5.53378 11.8266 5.62546 11.7932 5.71081C11.7595 5.79633 11.6692 5.87244 11.5223 5.93932L11.0861 6.13841L10.802 5.51548ZM14.1789 4.56243L14.3556 3.31587L14.8438 4.47691L14.1789 4.56243ZM15.3504 5.71012L16.3262 5.58475L14.7629 2.38129L13.7462 2.5118L13.0432 6.00637L13.9957 5.88407L14.071 5.31245L15.1311 5.17647L15.3504 5.71012ZM16.3592 2.24121L17.3925 2.39224L17.8338 3.60989L18.6081 2.57013L19.6343 2.7203L18.1798 4.49213L17.9751 5.89246L17.0424 5.75579L17.2471 4.35564L16.3592 2.24121ZM20.7311 3.12242L23.004 4.19828L22.6957 4.84978L21.2719 4.17587L21.0424 4.66078L22.3643 5.28645L22.0696 5.90888L20.7478 5.28337L20.4632 5.88493L21.9287 6.57834L21.6017 7.26935L19.2869 6.17399L20.7311 3.12242ZM24.4358 6.12507L24.7412 6.40216C24.8684 6.51762 24.9356 6.61802 24.9426 6.70303C24.9493 6.78803 24.9163 6.87082 24.8431 6.95155C24.7969 7.0039 24.7357 7.04075 24.6678 7.05708C24.6055 7.07353 24.5392 7.06474 24.4834 7.03263C24.3719 6.97276 24.3 6.92846 24.2682 6.89955L23.9749 6.63324L24.4358 6.12507ZM22.6255 8.12046L23.5463 7.10566L23.6077 7.16142C23.6711 7.21906 23.7106 7.28987 23.7255 7.37403C23.7361 7.43765 23.7199 7.53994 23.6768 7.68105L23.3554 8.78256L24.1415 9.49598L24.4632 8.46613C24.4793 8.41431 24.4937 8.33289 24.506 8.22205C24.5186 8.11105 24.521 8.03357 24.5133 7.98944C24.5036 7.92478 24.4716 7.83926 24.4162 7.73322C24.5434 7.80095 24.6548 7.84166 24.7499 7.85568C24.8987 7.87781 25.0506 7.86223 25.1919 7.81036C25.3369 7.75819 25.4722 7.66275 25.5977 7.52403C25.7421 7.36479 25.8295 7.19819 25.8603 7.0239C25.8911 6.84944 25.868 6.69037 25.7915 6.54635C25.7151 6.40233 25.5693 6.23283 25.3545 6.03767L24.1964 4.98696L21.928 7.4876L22.6255 8.12046ZM27.1486 7.9631L27.5842 8.72595L26.5292 10.6486L28.1531 9.7209L28.592 10.4896L25.6573 12.1668L25.2182 11.398L26.2643 9.48811L24.6527 10.409L24.2137 9.64034L27.1486 7.9631ZM5.59568 16.807L5.88594 17.9953L4.02055 18.937L6.10949 18.9107L6.39924 20.0969L3.14926 20.8903L2.96881 20.1523L5.44739 19.5469L2.82941 19.5801L2.66572 18.9107L5.00524 17.7356L2.52667 18.3409L2.3457 17.6003L5.59568 16.807ZM7.732 22.1605L8.2506 22.9298L6.59833 24.0437C6.44158 24.1506 6.26933 24.2329 6.0876 24.2876C5.91676 24.3393 5.73672 24.3533 5.55993 24.3286C5.38479 24.3036 5.23889 24.2525 5.12258 24.175C4.95975 24.0667 4.80735 23.9072 4.66555 23.6966C4.57685 23.5633 4.49692 23.4243 4.42626 23.2806C4.34827 23.1243 4.30482 22.9789 4.29593 22.8447C4.28704 22.7104 4.30756 22.5688 4.35733 22.4198C4.40728 22.2708 4.47672 22.1442 4.56601 22.0399C4.71002 21.8731 4.85045 21.744 4.98643 21.652L6.6387 20.5385L7.1573 21.3078L5.46535 22.4483C5.31397 22.5499 5.22144 22.6674 5.1874 22.8005C5.15319 22.9334 5.18125 23.0668 5.27138 23.2004C5.3605 23.3326 5.47253 23.4086 5.60731 23.4276C5.74209 23.4465 5.88628 23.4045 6.04005 23.301L7.732 22.1605ZM8.64246 23.3434L9.33553 23.8671L9.12412 26.0255L10.2393 24.5506L10.9379 25.0785L8.92195 27.745L8.22341 27.2172L8.43191 25.0735L7.32509 26.5376L6.62655 26.0098L8.64246 23.3434ZM12.7169 27.8396L13.4012 28.3584C13.2683 28.5816 13.119 28.7549 12.9531 28.8789C12.787 29.0025 12.6079 29.078 12.4153 29.1046C12.2227 29.131 11.9988 29.1016 11.7438 29.0157C11.4325 28.9108 11.1958 28.7759 11.0335 28.6098C10.8713 28.4437 10.7612 28.2106 10.7034 27.9106C10.6455 27.6106 10.6827 27.2639 10.815 26.8703C10.9912 26.3459 11.2522 25.985 11.5976 25.7876C11.9431 25.5902 12.3455 25.5688 12.8053 25.7235C13.164 25.8441 13.4188 26.0194 13.57 26.2499C13.7211 26.4805 13.7907 26.7798 13.7792 27.1479L12.9365 27.0785C12.9416 26.9729 12.9365 26.8924 12.9213 26.8376C12.8999 26.7511 12.858 26.671 12.799 26.6042C12.7397 26.539 12.6644 26.4904 12.5805 26.4632C12.3803 26.396 12.1966 26.4338 12.03 26.5768C11.9048 26.682 11.7944 26.8768 11.6988 27.1604C11.5806 27.5119 11.5476 27.7695 11.6005 27.9321C11.6532 28.0948 11.766 28.2055 11.939 28.2636C12.1074 28.3204 12.2527 28.3107 12.3744 28.2345C12.4962 28.1584 12.6105 28.0266 12.7169 27.8396ZM14.5349 26.2869L15.4653 26.2877L15.464 27.458L16.4788 27.459L16.4801 26.2891L17.4151 26.2901L17.4111 29.6335L16.476 29.6325L16.4777 28.2802L15.4631 28.2788L15.4616 29.6311L14.5309 29.6301L14.5349 26.2869ZM18.0052 26.1692L20.3736 25.4058L20.5925 26.0847L19.1089 26.5631L19.2719 27.0685L20.6493 26.6245L20.8583 27.2729L19.4807 27.717L19.6827 28.344L21.2098 27.8516L21.4419 28.5718L19.03 29.3492L18.0052 26.1692ZM20.8484 25.1843L21.5529 24.6753L23.5557 25.5103L22.4716 24.0112L23.1814 23.4977L25.1407 26.208L24.4309 26.7212L22.4418 25.8933L23.5175 27.3816L22.8077 27.8947L20.8484 25.1843ZM24.5522 21.8423L25.7091 19.6388L26.3407 19.9706L25.6159 21.3506L26.0859 21.5976L26.7586 20.316L27.3624 20.6327L26.6895 21.9142L27.2724 22.2202L28.0185 20.7997L28.6883 21.1515L27.5103 23.3951L24.5522 21.8423ZM25.8333 19.4312L26.0064 18.4726L28.4949 18.2328L26.2448 17.1505L26.4122 16.221L29.5047 17.9143L29.3263 18.9042L25.8333 19.4312Z" fill="white"/>
<path fill-rule="evenodd" clip-rule="evenodd" d="M7.22898 21.4341L7.63658 22.0375L6.6748 22.2329L7.22898 21.4341Z" fill="white"/>
<path fill-rule="evenodd" clip-rule="evenodd" d="M15.9996 24.8452C20.8844 24.8452 24.8447 20.8849 24.8447 15.9999C24.8447 11.1149 20.8844 7.15479 15.9996 7.15479C11.1144 7.15479 7.1543 11.1149 7.1543 15.9999C7.1543 20.8849 11.1146 24.8452 15.9996 24.8452Z" fill="#346BA5"/>
<path fill-rule="evenodd" clip-rule="evenodd" d="M16.391 8.18364V11.8137L18.195 14.8394V11.2877L16.391 8.18364ZM14.174 8.96616V12.5962L15.9779 15.6219V12.0702L14.174 8.96616ZM11.9567 9.74868V13.3787L13.7609 16.4045V12.8528L11.9567 9.74868ZM9.73951 10.5312V14.1612L11.5437 17.1868V13.6351L9.73951 10.5312ZM7.52246 13.6743V14.9438L9.32645 17.9697V14.4176L8.14334 12.2115L7.52246 13.6743ZM18.6082 7.40112V11.0312L20.4122 14.0569V10.505L18.6082 7.40112ZM20.8251 8.72704L22.6294 10.4486V13.3525L20.8251 10.2486V8.72704ZM15.6911 23.6036V20.0518L13.887 16.948V20.5781L15.6911 23.6036ZM17.908 22.8213V19.2694L16.104 16.1653V19.7952L17.908 22.8213ZM20.1252 22.0386V18.4867L18.3212 15.383V19.0129L20.1252 22.0386ZM22.3424 21.2561V17.7044L20.5385 14.6003V18.2305L22.3424 21.2561ZM24.5597 18.1128V16.5825L22.7557 13.818V17.4478L23.9386 19.3149L24.5597 18.1128ZM13.4739 24.3078V20.8346L11.6699 17.7304V21.4389L13.4739 24.3078ZM11.2568 23.2429L9.45268 21.6777V18.5127L11.2568 21.6951V23.2429Z" fill="white"/>
<path d="M16.0003 24.454C18.3349 24.454 20.4484 23.5076 21.9782 21.9778C23.5081 20.448 24.4544 18.3345 24.4544 15.9999C24.4544 13.6653 23.5081 11.5518 21.9782 10.022C20.4484 8.49215 18.3349 7.54595 16.0003 7.54595C13.6658 7.54595 11.5522 8.49215 10.0224 10.022C8.49257 11.5518 7.54636 13.6653 7.54636 15.9999C7.54636 18.3345 8.49257 20.4482 10.0224 21.9778C11.5522 23.5075 13.6658 24.454 16.0003 24.454ZM16.0003 25.2364C13.4499 25.2364 11.1407 24.2024 9.46905 22.5312C7.79762 20.8599 6.76367 18.5505 6.76367 15.9999C6.76367 13.4495 7.79762 11.1402 9.46905 9.46881C11.1405 7.79738 13.4499 6.76343 16.0003 6.76343C18.5507 6.76343 20.8601 7.79738 22.5314 9.46881C24.2027 11.1402 25.2366 13.4495 25.2366 15.9999C25.2366 18.5503 24.2027 20.8597 22.5314 22.5312C20.8601 24.2026 18.5507 25.2364 16.0003 25.2364Z" fill="white"/>
</svg>
