<svg width="33" height="32" viewBox="0 0 33 32" fill="none" xmlns="http://www.w3.org/2000/svg">
<path d="M16.5161 9.99048C22.5774 9.99048 27.5209 14.9342 27.5209 20.9953C27.5209 27.0565 22.5774 32 16.5161 32C10.4549 32 5.51123 27.0565 5.51123 20.9953C5.51123 14.9342 10.4549 9.99048 16.5161 9.99048Z" fill="black"/>
<path d="M5.66504 20.9955C5.66504 15.0121 10.533 10.1443 16.5163 10.1443C22.4998 10.1443 27.3674 15.0121 27.3674 20.9955C27.3674 26.9789 22.4996 31.8467 16.5163 31.8467C10.533 31.8467 5.66504 26.9789 5.66504 20.9955Z" fill="#ADB9C0"/>
<path d="M7.1499 20.9956C7.1499 26.16 11.3516 30.3617 16.5161 30.3617C21.6805 30.3617 25.8822 26.1599 25.8822 20.9956C25.8822 15.8309 21.6805 11.6294 16.5161 11.6294C11.3516 11.6294 7.1499 15.8309 7.1499 20.9956Z" fill="black"/>
<path d="M7.3042 20.9954C7.3042 15.9158 11.4367 11.7834 16.5162 11.7834C21.5958 11.7834 25.7281 15.9158 25.7281 20.9954C25.7281 26.0749 21.5958 30.2074 16.5162 30.2074C11.4367 30.2072 7.3042 26.0747 7.3042 20.9954Z" fill="white"/>
<path d="M7.81787 20.9955C7.81787 25.7917 11.72 29.6937 16.5161 29.6937C21.3125 29.6937 25.2145 25.7917 25.2145 20.9955C25.2145 16.1991 21.3125 12.2971 16.5161 12.2971C11.7198 12.2971 7.81787 16.1991 7.81787 20.9955Z" fill="black"/>
<path d="M7.98047 20.9954C7.98047 16.2888 11.8095 12.4597 16.5161 12.4597C21.2227 12.4597 25.0516 16.2886 25.0516 20.9954C25.0516 25.7018 21.2227 29.5308 16.5161 29.5308C11.8095 29.5307 7.98047 25.7018 7.98047 20.9954Z" fill="white"/>
<path d="M25.0595 21.0659C25.0596 21.0423 25.0604 21.019 25.0604 20.9954C25.0604 20.9672 25.0596 20.9393 25.0593 20.9114H17.2371L24.9077 19.3857C24.8981 19.3351 24.8882 19.2846 24.8775 19.2342L17.2672 20.7481L24.4319 17.7803C24.4126 17.7327 24.3929 17.685 24.3727 17.6378L17.2072 20.6057L23.651 16.3002C23.6227 16.2574 23.5941 16.2147 23.5651 16.1723L17.1216 20.4778L22.5984 15.001C22.5622 14.9644 22.5258 14.9281 22.489 14.8921L17.0125 20.3684L21.315 13.9297C21.2725 13.9009 21.2298 13.8724 21.1868 13.8444L16.8844 20.2831L19.6844 13.5232L19.5421 13.4641L16.7421 20.2237L18.0196 13.8006L17.8684 13.7704L16.6162 20.0648V13.4314H16.4109V20.0651L15.1169 13.5606L14.9659 13.5907L16.2854 20.2241L13.4155 13.2961L13.273 13.3552L16.1427 20.2832L11.8422 13.8469C11.7991 13.8751 11.7563 13.9035 11.714 13.9324L16.0145 20.3686L10.5408 14.8949C10.504 14.9309 10.4676 14.9672 10.4315 15.0038L15.9054 20.4778L9.46582 16.175C9.43683 16.2174 9.40818 16.2601 9.37987 16.3029L15.8202 20.606L8.6593 17.6399C8.63905 17.6871 8.6194 17.7347 8.60005 17.7822L15.7605 20.7481L8.15486 19.2355C8.14436 19.2858 8.13446 19.3363 8.12471 19.3869L15.7896 20.9116H7.97337C7.97307 20.9396 7.97217 20.9675 7.97217 20.9956C7.97217 21.019 7.97292 21.0425 7.97322 21.0661H15.669L8.11796 22.5681C8.12726 22.6188 8.13671 22.6693 8.14706 22.7197L15.7601 21.2054L8.58685 24.1767C8.60605 24.2244 8.62525 24.272 8.64535 24.3194L15.8196 21.3479L9.36277 25.6621C9.39097 25.705 9.41917 25.7479 9.44812 25.7903L15.9054 21.4757L10.413 26.9681C10.449 27.005 10.4852 27.0413 10.5219 27.0774L16.0146 21.5849L11.6969 28.0467C11.7393 28.0756 11.782 28.1043 11.8249 28.1325L16.1427 21.6702L13.1667 28.855C13.2139 28.8751 13.2615 28.8948 13.3092 28.9141L16.5137 21.1781L19.7189 28.9161C19.7664 28.8969 19.8141 28.8774 19.8612 28.8571L16.8844 21.6705L21.2039 28.135C21.2468 28.1068 21.2895 28.0783 21.332 28.0492L17.0125 21.5847L22.5081 27.0803C22.5445 27.0441 22.581 27.0077 22.617 26.9711L17.1217 21.4757L23.5829 25.793C23.6117 25.7504 23.6401 25.7077 23.6683 25.6648L17.2071 21.3474L24.3866 24.3212C24.4067 24.274 24.4259 24.2263 24.4451 24.1786L17.2668 21.2052L24.8855 22.7206C24.8957 22.6702 24.9055 22.6197 24.9147 22.5692L17.3578 21.0661H25.0595V21.0659Z" fill="black"/>
<path d="M12.3158 11.5115C11.7384 11.3699 11.2496 11.3035 10.923 11.3459C9.94567 11.4733 8.77316 11.9555 7.56135 12.5403C6.78422 12.9153 5.81975 13.4057 3.89111 14.5437L5.68746 14.6788L5.49981 16.1792C6.56388 15.4823 7.98764 14.5048 9.30294 13.9414C9.85838 13.7036 10.3943 13.5395 10.8758 13.5015C11.2391 13.4729 11.5475 13.5659 11.9061 13.656C13.4712 14.0499 14.9779 14.4951 16.5162 14.4951V12.2888C15.0565 12.2888 13.5042 11.803 12.3158 11.5115Z" fill="#4A914E"/>
<path d="M23.1711 15.538C20.8936 16.3934 18.592 16.8454 16.5155 16.8454C14.439 16.8454 12.1374 16.3933 9.85992 15.538L9.77367 15.5056L9.75702 15.5964C8.59471 21.9361 10.8524 27.4353 16.4674 31.9415L16.5155 31.9801L16.5638 31.9415C22.1787 27.4353 24.4363 21.9361 23.274 15.5964L23.2573 15.5056L23.1711 15.538Z" fill="black"/>
<path d="M16.5156 16.9997C18.5836 16.9997 20.871 16.5539 23.1369 15.7136C23.3218 16.7501 23.416 17.7644 23.416 18.7549C23.416 23.7109 21.1032 28.081 16.5156 31.7807C11.9282 28.081 9.61523 23.7109 9.61523 18.7548C9.61523 17.7644 9.70943 16.7501 9.89438 15.7136C12.1602 16.5539 14.4478 16.9997 16.5156 16.9997Z" fill="white"/>
<path d="M16.5157 30.9924V17.7886C14.3618 17.7886 12.431 17.4379 10.4772 16.7727C9.74626 22.3956 12.0053 26.8986 16.5157 30.9924Z" fill="#CD3529"/>
<path d="M16.5114 19.4465C18.5846 19.4465 20.2755 21.1374 20.2755 23.2107C20.2755 25.2839 18.5847 26.975 16.5114 26.975C14.4381 26.975 12.7471 25.2839 12.7471 23.2107C12.7471 21.1374 14.4381 19.4465 16.5114 19.4465Z" fill="#ECB731"/>
<path d="M12.6699 23.2108C12.6699 25.329 14.3931 27.0521 16.5113 27.0521C18.6294 27.0521 20.3527 25.3288 20.3527 23.2108C20.3527 21.0925 18.6294 19.3694 16.5113 19.3694C14.3931 19.3694 12.6699 21.0925 12.6699 23.2108ZM12.8243 23.2108C12.8243 21.1777 14.4783 19.5237 16.5113 19.5237C18.5443 19.5237 20.1982 21.1776 20.1982 23.2108C20.1982 25.2438 18.5443 26.8976 16.5113 26.8976C14.4783 26.8976 12.8243 25.2438 12.8243 23.2108Z" fill="black"/>
<path d="M12.6772 23.1383C12.9063 23.5664 13.2985 23.9884 13.8115 24.3584L13.9017 24.2333C13.4077 23.8771 13.0312 23.4734 12.8131 23.0657L12.6772 23.1383ZM14.4893 23.8571L14.6068 23.7572C13.7421 22.7395 13.9324 21.0113 15.04 19.8228L14.9272 19.7175C13.7673 20.9624 13.5748 22.7807 14.4893 23.8571ZM16.2044 21.5925L16.3518 21.5476C16.068 20.6162 16.3482 20.0312 17.2887 19.5917L17.2233 19.4519C16.2117 19.9247 15.8973 20.5848 16.2044 21.5925ZM18.1711 23.0215C19.0549 23.9377 19.2518 25.3817 18.6099 26.2404L18.7335 26.3328C19.4303 25.4006 19.232 23.8988 18.2821 22.9141L18.1711 23.0215ZM19.0298 22.0741C19.6843 22.6149 20.0611 23.4439 20.0378 24.2914L20.192 24.2956C20.2166 23.4008 19.819 22.5259 19.1281 21.9552L19.0298 22.0741ZM16.9598 24.0029C17.5837 25.1613 17.4855 26.3464 16.7211 26.8851L16.8101 27.0112C17.6404 26.4261 17.7579 25.1589 17.0957 23.9297L16.9598 24.0029Z" fill="black"/>
<path d="M15.52 25.823L15.4971 25.9756C16.1773 26.0782 17.0993 25.7687 17.468 24.9934L17.3288 24.9272C16.9919 25.6354 16.1454 25.9172 15.52 25.823Z" fill="black"/>
<path d="M22.5233 16.7016C21.7051 16.9801 20.9214 17.1942 20.1277 17.3554L20.1051 17.3601L11.9458 25.4939L11.9732 25.5446C12.3964 26.3284 12.908 27.1128 13.4939 27.8758L13.5473 27.9454L22.7602 18.7609L22.76 18.7285C22.7561 18.0857 22.7107 17.425 22.6249 16.7646L22.6127 16.6711L22.5233 16.7016Z" fill="black"/>
<path d="M22.4805 16.8774C22.5567 17.49 22.5993 18.1019 22.6041 18.6984L13.5635 27.711C13.0173 26.993 12.5377 26.2572 12.1367 25.5211C12.2189 25.4392 20.1498 17.5331 20.1811 17.5016C20.9434 17.3456 21.6974 17.1402 22.4805 16.8774Z" fill="#0094D6"/>
<path d="M13.8767 26.2768L14.0918 26.0617C14.1761 26.1382 14.2652 26.1771 14.3599 26.1777C14.4548 26.1787 14.54 26.1414 14.615 26.0665C14.6976 25.984 14.7396 25.894 14.7413 25.7964C14.7429 25.6986 14.7038 25.6098 14.6235 25.5297C14.5535 25.4595 14.4806 25.4232 14.4061 25.4214C14.3314 25.419 14.2192 25.4598 14.0699 25.5424L14.0317 25.5654C13.8586 25.6693 13.7011 25.7128 13.5595 25.6953C13.499 25.6892 13.44 25.673 13.3849 25.6473C13.3302 25.621 13.2805 25.5854 13.2379 25.5421C13.1048 25.4091 13.0396 25.26 13.0415 25.0936C13.0441 24.9278 13.1131 24.7764 13.2497 24.6398C13.3762 24.5133 13.5149 24.4479 13.666 24.4437C13.8173 24.4391 13.961 24.4968 14.0972 24.6165L13.8733 24.8405C13.8076 24.7824 13.7357 24.7548 13.6571 24.7569C13.5782 24.7596 13.5085 24.7914 13.4468 24.8531C13.381 24.9191 13.3484 24.9938 13.3495 25.0768C13.3505 25.161 13.3843 25.236 13.4509 25.3026C13.4744 25.3263 13.5002 25.3441 13.5283 25.3576C13.5568 25.3705 13.5872 25.3777 13.6211 25.3797C13.69 25.3834 13.7911 25.3449 13.9241 25.2643C13.9853 25.227 14.0339 25.1995 14.0687 25.1814C14.2162 25.1103 14.3549 25.0836 14.4845 25.0999C14.6139 25.1167 14.7297 25.176 14.8323 25.2786C14.982 25.4283 15.0573 25.5945 15.0578 25.7772C15.0585 25.9596 14.9837 26.1261 14.834 26.2758C14.6928 26.4171 14.5342 26.4876 14.3582 26.4883C14.1821 26.4889 14.0216 26.4184 13.8767 26.2768ZM16.4184 24.6293L16.191 24.8565L15.9288 24.5945L16.1563 24.3671L16.4184 24.6293ZM18.1634 22.8841L17.3812 23.6664L15.8306 22.1158L16.0704 21.8759L17.4069 23.2126L17.9492 22.6702L18.1634 22.8841ZM19.2583 21.7894L19.0309 22.0169L18.7687 21.7547L18.9961 21.5274L19.2583 21.7894ZM19.5575 19.688L19.6335 19.6119C19.7573 19.4882 19.8279 19.3827 19.845 19.295C19.8624 19.2071 19.8311 19.1229 19.7501 19.0418C19.6785 18.9701 19.6013 18.941 19.5191 18.9543C19.4367 18.9674 19.3469 19.0233 19.2482 19.1219L19.1198 19.2503L19.5575 19.688ZM20.2464 20.3818L20.435 20.1933C20.546 20.0823 20.6081 19.9815 20.6217 19.8903C20.6357 19.7994 20.6016 19.7135 20.5205 19.6325C20.4326 19.5444 20.339 19.5051 20.2388 19.5143C20.1386 19.5236 20.0354 19.581 19.929 19.6874L19.7405 19.8761L20.2464 20.3818ZM19.0262 18.9201C19.2028 18.7437 19.373 18.6462 19.5374 18.6264C19.7012 18.6072 19.8525 18.6668 19.9908 18.8052C20.0549 18.8693 20.0961 18.9407 20.1153 19.0197C20.1344 19.0986 20.1314 19.1823 20.106 19.2717C20.2092 19.2137 20.3169 19.1933 20.4285 19.211C20.5403 19.2287 20.6409 19.2821 20.7303 19.3715C20.8009 19.4414 20.8557 19.5255 20.8911 19.6184C20.9256 19.7111 20.9388 19.8033 20.9297 19.896C20.9196 19.9861 20.8908 20.073 20.8452 20.1513C20.799 20.2317 20.718 20.3293 20.6028 20.4445L20.2211 20.8263L18.6706 19.2758L19.0262 18.9201ZM22.3191 18.7284L22.0917 18.956L21.8296 18.6939L22.057 18.4666L22.3191 18.7284Z" fill="#ECB731"/>
<path d="M22.5296 16.6996C20.5022 17.3901 18.5914 17.7115 16.5159 17.7115C14.4405 17.7115 12.5296 17.3901 10.5023 16.6996L10.4132 16.6692L10.4009 16.7626C9.70399 22.1227 11.6307 26.6625 16.4641 31.0495L16.5159 31.0965L16.5678 31.0495C21.4012 26.6625 23.3278 22.1227 22.6309 16.7626L22.6186 16.6692L22.5296 16.6996ZM10.4172 18.838C10.4172 18.1958 10.4619 17.5413 10.5447 16.8751C12.5542 17.5495 14.4546 17.8657 16.5159 17.8657C18.5771 17.8657 20.4776 17.5494 22.487 16.8751C22.57 17.5413 22.6145 18.1957 22.6145 18.8378C22.6145 23.2508 20.6412 27.1245 16.5159 30.8865C12.3907 27.1245 10.4172 23.251 10.4172 18.838Z" fill="black"/>
<path d="M29.1411 14.5437C27.2124 13.4056 26.2478 12.9154 25.4708 12.5404C24.2589 11.9557 23.0865 11.4733 22.109 11.346C21.7826 11.3034 21.2936 11.37 20.7163 11.5116C19.5279 11.803 17.9756 12.2889 16.5161 12.2889V14.4954C18.0545 14.4954 19.5613 14.0502 21.1264 13.6564C21.485 13.5662 21.7932 13.4731 22.1565 13.5019C22.6379 13.5398 23.174 13.7039 23.7292 13.9418C25.0445 14.5052 26.4683 15.4826 27.5324 16.1796L27.3447 14.6792L29.1411 14.5437Z" fill="#CD3529"/>
<path d="M20.6981 11.4366L20.0321 11.6067C18.9421 11.8903 17.7067 12.2116 16.5162 12.2116C15.3256 12.2116 14.0903 11.8902 13.0002 11.6065L12.3344 11.4366C11.712 11.2839 11.234 11.2277 10.9133 11.2695C10.0649 11.3801 9.02096 11.7505 7.52805 12.471C6.79518 12.8247 5.84631 13.3004 3.85212 14.4773L3.64062 14.6023L5.60106 14.7497L5.40262 16.3358L5.9138 15.9995C6.91997 15.3359 8.17228 14.51 9.3334 14.0126C9.92543 13.7591 10.4465 13.613 10.8819 13.5785C11.195 13.5538 11.4648 13.6229 11.7774 13.703L12.4824 13.8829C13.8615 14.2375 15.1642 14.5724 16.5164 14.5724C17.8686 14.5724 19.1711 14.2375 20.5503 13.8829L21.2553 13.703C21.5678 13.6229 21.8378 13.5538 22.1508 13.5785C22.5862 13.6129 23.1072 13.759 23.6992 14.0126C24.8605 14.5099 26.1126 15.3359 27.1189 15.9995L27.6303 16.3359L27.4315 14.7499L29.3921 14.6024L29.1805 14.4775C27.1864 13.3006 26.2374 12.8248 25.5045 12.4711C24.0115 11.7507 22.9674 11.3802 22.1193 11.2697C21.7985 11.2277 21.3203 11.2839 20.6981 11.4366ZM20.071 11.7558L20.7348 11.5863C21.3384 11.4383 21.7974 11.3832 22.0992 11.4224C22.9305 11.5307 23.9599 11.8969 25.4375 12.6097C26.1407 12.9492 27.0466 13.4035 28.8896 14.4853L27.2584 14.608L27.4356 16.0229L27.2038 15.8705C26.1926 15.2034 24.934 14.3735 23.7599 13.8706C23.1441 13.6067 22.6216 13.4608 22.1629 13.4246C21.8244 13.3978 21.5295 13.4734 21.2172 13.5533L20.5119 13.7333C19.1426 14.0854 17.8492 14.4179 16.5164 14.4179C15.1837 14.4179 13.8903 14.0854 12.5206 13.7333L11.8155 13.5533C11.5032 13.4734 11.2083 13.3978 10.8698 13.4246C10.4111 13.4608 9.88868 13.6067 9.27265 13.8706C8.09879 14.3734 6.84018 15.2034 5.82891 15.8705L5.59716 16.0229L5.77431 14.608L4.14311 14.4853C5.9861 13.4033 6.89207 12.949 7.59525 12.6097C9.07271 11.8969 10.1021 11.5307 10.9334 11.4224C11.235 11.3831 11.694 11.4383 12.2978 11.5863L12.9616 11.7558C14.0607 12.0417 15.3062 12.3658 16.5165 12.3658C17.7268 12.3658 18.9719 12.0418 20.071 11.7558Z" fill="black"/>
<path d="M24.0078 13.437L23.8051 13.3552L23.8972 12.9927C23.9138 12.9306 23.9324 12.869 23.9529 12.808C23.9344 12.8395 23.9073 12.8776 23.8722 12.9219L23.8557 12.9424L23.5972 13.2714L23.4528 13.213L23.4952 12.7969C23.4958 12.7912 23.4967 12.7825 23.4982 12.771C23.5033 12.7146 23.5104 12.6685 23.5189 12.6336C23.5045 12.6627 23.49 12.6913 23.4754 12.7197C23.4604 12.748 23.4451 12.7759 23.4292 12.804L23.2437 13.1287L23.0423 13.0473L23.4861 12.3019L23.7004 12.3885L23.6548 12.847L23.6535 12.8628C23.651 12.8974 23.6454 12.9318 23.6367 12.9654C23.6437 12.9519 23.6529 12.9372 23.6638 12.9216C23.6748 12.9061 23.6884 12.8875 23.7052 12.8661L23.9916 12.5062L24.2067 12.5932L24.0078 13.437ZM22.0371 11.9934L22.268 12.0258L22.2099 12.4387C22.2032 12.4823 22.1985 12.5261 22.196 12.5701C22.1955 12.597 22.1975 12.6199 22.2024 12.6388C22.2083 12.6617 22.2224 12.6817 22.2419 12.6951C22.2623 12.7095 22.2885 12.7189 22.32 12.7233C22.3517 12.7278 22.3793 12.7258 22.4028 12.7176C22.4252 12.7099 22.4441 12.6946 22.4562 12.6744C22.4663 12.6576 22.4745 12.6361 22.4813 12.6103C22.491 12.5673 22.4987 12.5239 22.5042 12.4801L22.5125 12.4221L22.5623 12.0672L22.7925 12.0996L22.7294 12.5485C22.7163 12.6415 22.7012 12.7095 22.6836 12.7522C22.6678 12.7925 22.6429 12.8286 22.6109 12.8577C22.5771 12.8878 22.5336 12.9081 22.4807 12.9183C22.4276 12.9283 22.3649 12.9282 22.2926 12.9181C22.22 12.9079 22.1595 12.8907 22.1115 12.8664C22.0674 12.8454 22.0297 12.8129 22.0026 12.7722C21.9801 12.7353 21.9662 12.6937 21.962 12.6507C21.9567 12.6048 21.9608 12.5352 21.974 12.4422L21.9863 12.3538L22.0371 11.9934ZM20.6797 13.1547L20.4577 12.3265L20.6755 12.2682L21.1025 12.6103C21.1108 12.6174 21.1253 12.6322 21.1463 12.6547C21.1672 12.6774 21.1906 12.7044 21.2168 12.7362C21.2047 12.7068 21.1932 12.6772 21.1825 12.6472C21.1741 12.6241 21.1667 12.6006 21.1604 12.5767L21.0508 12.1677L21.2674 12.1098L21.4892 12.9379L21.2726 12.996L20.8451 12.6522C20.8295 12.6383 20.8147 12.6235 20.8009 12.6079C20.7802 12.5854 20.7571 12.5586 20.7313 12.5275C20.7451 12.5611 20.7565 12.5908 20.7658 12.6171C20.7751 12.6432 20.7824 12.6667 20.7881 12.6876L20.8976 13.0965L20.6797 13.1547ZM19.2979 12.6277L19.5231 12.5674L19.6309 12.9703C19.6468 13.0296 19.6597 13.0717 19.6696 13.0968C19.6795 13.1217 19.6905 13.1419 19.7025 13.1574C19.7168 13.1762 19.7375 13.1891 19.7607 13.1937C19.7851 13.1989 19.8129 13.1976 19.8436 13.1892C19.8745 13.1809 19.8991 13.1683 19.9176 13.1517C19.9351 13.1359 19.9466 13.1145 19.95 13.0911C19.9525 13.0682 19.9519 13.045 19.9482 13.0222C19.9403 12.9788 19.9303 12.9358 19.9183 12.8934L19.9032 12.8368L19.8105 12.4906L20.035 12.4305L20.1524 12.8685C20.1767 12.9592 20.1893 13.0278 20.1898 13.0738C20.1905 13.12 20.182 13.1616 20.1641 13.1994C20.1449 13.2403 20.1125 13.276 20.0678 13.306C20.0228 13.336 19.9651 13.3605 19.8946 13.3794C19.8237 13.3983 19.7616 13.4061 19.7077 13.4025C19.6588 13.4004 19.6114 13.3851 19.5706 13.3582C19.5354 13.3331 19.5064 13.3003 19.4857 13.2624C19.4631 13.222 19.4395 13.1566 19.4152 13.0657L19.3923 12.9796L19.2979 12.6277ZM17.8368 13.5067C17.8778 13.5396 17.9169 13.5627 17.9535 13.5759C17.9903 13.5892 18.0249 13.5931 18.0581 13.5873C18.0857 13.5836 18.1111 13.57 18.1295 13.549C18.1376 13.5399 18.1436 13.529 18.1468 13.5172C18.1501 13.5055 18.1506 13.4931 18.1482 13.4811C18.1433 13.4529 18.131 13.4328 18.1112 13.4206C18.0914 13.4085 18.0498 13.3995 17.9867 13.3941C17.9001 13.3864 17.8365 13.3675 17.7959 13.3378C17.7554 13.3081 17.7296 13.2621 17.7186 13.2C17.7044 13.1193 17.7197 13.0486 17.765 12.988C17.8098 12.9276 17.8755 12.8898 17.9616 12.8746C18.0083 12.8664 18.0534 12.865 18.0974 12.87C18.1413 12.8752 18.1841 12.8871 18.2259 12.906L18.183 13.0842C18.1553 13.0674 18.125 13.0551 18.0935 13.0477C18.0658 13.0415 18.0372 13.0406 18.0092 13.0452C17.9849 13.0483 17.9624 13.0595 17.9453 13.077C17.9381 13.0841 17.9328 13.0929 17.9298 13.1026C17.9268 13.1123 17.9263 13.1225 17.9282 13.1325C17.9295 13.1422 17.9331 13.1515 17.9386 13.1596C17.9441 13.1677 17.9514 13.1745 17.96 13.1793C17.9774 13.1893 18.0089 13.1962 18.0542 13.2001L18.0651 13.2012C18.1635 13.2099 18.23 13.227 18.2649 13.252C18.2891 13.2698 18.3092 13.2926 18.3239 13.3188C18.3395 13.3459 18.3501 13.3773 18.3564 13.4125C18.3721 13.5021 18.3555 13.5793 18.3063 13.644C18.257 13.7089 18.1835 13.75 18.0854 13.7671C18.0304 13.7775 17.974 13.7769 17.9193 13.7655C17.8635 13.7521 17.8107 13.7286 17.7635 13.696L17.8368 13.5067ZM16.6049 13.0246L16.8374 13.0083L16.8663 13.4244C16.8707 13.4856 16.8753 13.5294 16.8801 13.5558C16.8852 13.582 16.892 13.6041 16.9008 13.6215C16.9112 13.6427 16.929 13.6593 16.9508 13.6683C16.9737 13.678 17.0012 13.6819 17.0331 13.6797C17.0649 13.6774 17.0916 13.6698 17.1129 13.6569C17.1332 13.6447 17.1485 13.6259 17.1563 13.6036C17.1626 13.5852 17.1662 13.5625 17.1675 13.5357C17.1682 13.4916 17.1667 13.4475 17.163 13.4035L17.1588 13.345L17.1339 12.9876L17.3657 12.9714L17.3973 13.4236C17.4039 13.5174 17.4032 13.587 17.3949 13.6324C17.3878 13.6751 17.3709 13.7156 17.3456 13.7508C17.3189 13.7874 17.2803 13.8162 17.2307 13.8372C17.1809 13.8581 17.1194 13.8709 17.0466 13.876C16.9734 13.8811 16.9109 13.8769 16.8587 13.8633C16.8112 13.8518 16.7676 13.8278 16.7327 13.7937C16.703 13.7623 16.6807 13.7246 16.6676 13.6834C16.6531 13.6396 16.6426 13.5708 16.636 13.477L16.6297 13.3882L16.6049 13.0246ZM9.07664 13.4185L8.7417 12.6292L9.22528 12.4239L9.29863 12.5968L9.02489 12.7131L9.08294 12.85L9.34108 12.7405L9.41293 12.9097L9.15479 13.0192L9.21133 13.1526L9.48523 13.0363L9.56022 13.2132L9.07664 13.4185ZM10.8931 12.8797L10.6741 12.8874L10.6442 12.0305L10.8883 12.0221C10.9837 12.0188 11.051 12.021 11.0902 12.0288C11.129 12.0369 11.1623 12.0518 11.1901 12.0737C11.2226 12.0986 11.2478 12.1304 11.2658 12.1691C11.2838 12.2078 11.2934 12.2511 11.2952 12.2989C11.2978 12.3451 11.291 12.3913 11.2753 12.4347C11.2603 12.4743 11.2372 12.5068 11.2061 12.5329C11.1826 12.5524 11.1545 12.567 11.122 12.5763C11.0896 12.5856 11.0371 12.5917 10.9649 12.5941L10.9252 12.5955L10.883 12.597L10.8931 12.8797ZM10.8766 12.4086L10.9211 12.4069C10.9774 12.405 11.0162 12.3958 11.0377 12.3796C11.0594 12.3634 11.0696 12.3369 11.0684 12.2998C11.0671 12.2638 11.0552 12.2387 11.033 12.2243C11.0108 12.2099 10.9717 12.2036 10.9163 12.2055L10.8695 12.2072L10.8766 12.4086ZM11.6869 12.9742L11.9087 12.1461L12.1344 12.2066L11.9643 12.8412L12.245 12.9163L12.1932 13.1098L11.6869 12.9742ZM12.773 12.3724L12.9981 12.4327L12.8903 12.8356C12.8782 12.878 12.8683 12.921 12.8604 12.9643C12.8567 12.9909 12.8559 13.0138 12.8586 13.0332C12.8616 13.0566 12.873 13.0782 12.8907 13.0938C12.9092 13.1104 12.9339 13.1232 12.9648 13.1314C12.9959 13.1397 13.0233 13.141 13.0478 13.1358C13.0709 13.1309 13.0916 13.1181 13.1061 13.0995C13.1181 13.084 13.1289 13.0638 13.139 13.0389C13.1489 13.0137 13.1616 12.9717 13.1775 12.9124L13.1928 12.8559L13.2855 12.5097L13.5101 12.5698L13.3928 13.0077C13.3685 13.0984 13.3451 13.164 13.3224 13.2045C13.2999 13.2447 13.2717 13.2765 13.2375 13.3003C13.1968 13.3273 13.1495 13.3426 13.1007 13.3444C13.0469 13.348 12.9846 13.3402 12.9141 13.3213C12.8432 13.3024 12.7854 13.278 12.7406 13.248C12.6993 13.2218 12.6659 13.1849 12.644 13.1412C12.6266 13.1037 12.618 13.062 12.6185 13.0158C12.6189 12.9696 12.6312 12.901 12.6557 12.8103L12.6788 12.7242L12.773 12.3724ZM13.6998 13.4868L13.8925 12.6514L14.1306 12.7063C14.2237 12.7279 14.2878 12.7471 14.3224 12.7642C14.3571 12.7813 14.3856 12.8029 14.4076 12.8293C14.4324 12.859 14.4487 12.8935 14.4568 12.9325C14.4648 12.9717 14.4637 13.0125 14.454 13.0552C14.439 13.1199 14.4111 13.1689 14.37 13.2021C14.3289 13.2352 14.2762 13.2516 14.2125 13.2507L14.3622 13.6399L14.1049 13.5805L13.989 13.2091L13.9134 13.5363L13.6998 13.4868ZM14.0149 13.0954L14.0572 13.1052C14.1063 13.1164 14.1441 13.1164 14.1705 13.1049C14.1969 13.0935 14.2143 13.0698 14.2227 13.0341C14.2323 12.9922 14.2287 12.9598 14.2114 12.9373C14.1945 12.9147 14.1612 12.8977 14.1112 12.8863L14.0656 12.8758L14.0149 13.0954ZM14.7184 13.699L14.8675 12.8545L15.0999 12.8955L14.9511 13.7398L14.7184 13.699Z" fill="black"/>
<path d="M10.9162 12.1971L10.8608 12.1991L10.8685 12.4176L10.9216 12.4158C10.9799 12.4137 11.0197 12.4043 11.0431 12.3867C11.0671 12.3689 11.0785 12.3396 11.0771 12.2997C11.0759 12.2612 11.0627 12.2334 11.0378 12.2172C11.0137 12.2018 10.9739 12.1952 10.9162 12.1971ZM10.9168 12.2144C10.97 12.2126 11.0077 12.2183 11.0284 12.2318C11.0485 12.2448 11.0588 12.2672 11.0599 12.3005L11.06 12.3065C11.06 12.3374 11.0507 12.3597 11.0327 12.3732C11.0125 12.3884 10.975 12.3969 10.9208 12.3987L10.8848 12.4001L10.8784 12.2157L10.9168 12.2144ZM14.0574 12.874L14.0047 13.1022L14.0553 13.1139C14.1067 13.1257 14.1456 13.1254 14.1741 13.113C14.203 13.1005 14.2221 13.0746 14.2311 13.0362C14.2413 12.9918 14.2371 12.9568 14.2185 12.9324C14.2002 12.9079 14.1657 12.8902 14.1133 12.8781L14.0595 12.8656L14.0574 12.874ZM14.0722 12.8862L14.1094 12.8949C14.1571 12.9058 14.1892 12.922 14.2047 12.9427C14.215 12.9574 14.2201 12.975 14.2192 12.9928C14.2192 13.0048 14.2177 13.0179 14.2143 13.0324C14.2066 13.0651 14.1909 13.087 14.167 13.0974C14.1426 13.108 14.1063 13.108 14.0592 13.0972L14.0253 13.0894L14.0722 12.8862Z" fill="#4A914E"/>
<path d="M14.7466 7.34519V7.35449H14.7559C14.8153 7.35449 14.9647 7.2732 15.0967 7.20135C15.1742 7.1592 15.2476 7.1193 15.2824 7.1076L15.2765 7.09005C15.2402 7.1022 15.1697 7.1406 15.0878 7.18515C14.9698 7.24935 14.8267 7.32644 14.7662 7.33349C14.7688 7.08135 14.8459 6.92851 15.0698 6.73651L15.0577 6.72241C14.825 6.92176 14.7466 7.07895 14.7466 7.34519Z" fill="black"/>
<path d="M20.3993 7.36037C20.2293 7.42052 20.0453 7.38137 19.9464 7.18532C19.7651 7.34252 19.5426 7.36472 19.2483 7.24907L18.0298 5.59087L18.2152 3.91408C18.524 4.07202 18.868 4.10397 19.01 4.08912C19.9293 3.99357 19.157 3.29264 20.4875 2.68726C20.9631 1.80994 21.7359 1.51145 22.1787 1.42415C24.3825 0.989317 27.2852 1.21971 29.5488 1.20081L32.4454 1.17666C32.2664 1.61795 31.6462 1.89379 31.0182 2.03208C30.8517 2.43512 30.6391 2.65876 30.131 2.86546C30.0986 3.02535 29.9804 3.49274 28.8578 3.88978C28.6192 4.53881 27.4592 5.00889 26.4144 5.20479C26.152 5.72497 25.2305 5.88891 24.7839 5.82262C24.7437 5.96646 24.4212 6.14586 24.2949 6.13146C24.3168 6.1904 24.3396 6.44555 24.0216 6.3797C24.0833 6.58204 24.0416 6.69469 23.9492 6.75244C23.8537 6.81213 23.704 6.81333 23.558 6.79459C23.5283 6.91638 23.4268 6.96213 23.3093 6.96663C23.1761 6.97158 23.0227 6.92343 22.9297 6.87213C22.9321 7.04193 22.8175 7.09503 22.6624 7.08393C22.4873 7.07148 22.2879 6.98178 22.2118 6.89868C22.1826 7.08168 22.0161 7.15682 21.8389 7.16462C21.7177 7.17002 21.5916 7.14377 21.5011 7.09923C21.4887 7.24532 21.3604 7.30052 21.2521 7.30247C21.0453 7.30622 20.7958 7.11573 20.7534 6.99183C20.697 7.16822 20.5539 7.30562 20.3993 7.36037Z" fill="#ECB731"/>
<path d="M22.1617 1.34004C21.797 1.41493 21.453 1.56835 21.1535 1.78964C20.8541 2.01093 20.6065 2.29477 20.4278 2.62145C19.7114 2.95504 19.5868 3.32702 19.4972 3.59972C19.4198 3.83506 19.3772 3.9648 19.0007 4.0038C18.8652 4.0179 18.5425 3.9852 18.2539 3.83761L18.1431 3.78106L17.9404 5.61475L19.1935 7.31975L19.2164 7.32875C19.4987 7.43975 19.7278 7.424 19.9202 7.29965C20.0378 7.45474 20.227 7.51219 20.4274 7.4411C20.5676 7.39145 20.6891 7.289 20.7681 7.1606C20.8854 7.283 21.0798 7.3913 21.2531 7.3883C21.3756 7.38605 21.5003 7.3268 21.5555 7.2077C21.6455 7.23635 21.7446 7.2545 21.8421 7.2503C22.0361 7.2416 22.1796 7.16375 22.2508 7.03716C22.3629 7.10646 22.5183 7.15955 22.6557 7.16945C22.7763 7.17815 22.8694 7.15235 22.9324 7.09281C22.9611 7.06581 22.9815 7.03251 22.9951 6.99456C23.0902 7.02981 23.2053 7.05651 23.3119 7.05246C23.457 7.04691 23.5588 6.98631 23.6113 6.88431C23.7776 6.89811 23.9056 6.88056 23.9941 6.82521C24.0649 6.78112 24.1358 6.69937 24.1358 6.54982C24.1358 6.52672 24.133 6.50107 24.1295 6.47468C24.2329 6.47093 24.2948 6.43028 24.3296 6.38978C24.376 6.33593 24.3914 6.26618 24.3914 6.20543C24.5441 6.16793 24.7519 6.04644 24.8356 5.91189C25.3046 5.95809 26.1653 5.79595 26.4642 5.28221C27.4335 5.09532 28.6312 4.64113 28.9202 3.95745C29.6623 3.68881 30.0914 3.34277 30.2003 2.92834C30.6639 2.73319 30.9017 2.5106 31.0782 2.10576C31.5429 1.99912 32.3062 1.74697 32.5245 1.20894L32.5728 1.08984L29.5477 1.11504C28.9454 1.12014 28.3062 1.10754 27.6292 1.09434C25.8285 1.05909 23.7874 1.0192 22.1617 1.34004ZM19.0186 4.1745C19.5058 4.12395 19.5808 3.89536 19.6603 3.65326C19.7455 3.39377 19.8515 3.07083 20.5227 2.76544L20.5491 2.75344L20.5628 2.72809C20.7282 2.41701 20.9603 2.14633 21.2425 1.93543C21.5247 1.72454 21.85 1.57864 22.1952 1.50818C23.8025 1.19094 25.7463 1.22889 27.6262 1.26564C28.3044 1.27899 28.945 1.29144 29.5495 1.28634L32.3013 1.26339C32.104 1.56113 31.6416 1.80682 30.9998 1.94812L30.956 1.95772L30.9389 1.99912C30.7737 2.399 30.5616 2.59745 30.0986 2.78569L30.056 2.80309L30.0467 2.84809C29.9701 3.22683 29.5603 3.54992 28.8289 3.80866L28.7909 3.82216L28.7771 3.85996C28.5548 4.46429 27.4222 4.92837 26.3982 5.12022L26.3565 5.12802L26.3375 5.16597C26.0909 5.6548 25.2032 5.7979 24.7964 5.7376L24.7216 5.7265L24.7012 5.7994C24.674 5.89659 24.3967 6.05664 24.3044 6.04614L24.1657 6.03039L24.2143 6.16119C24.2206 6.17798 24.2279 6.24488 24.1997 6.27773C24.1672 6.31538 24.085 6.30503 24.0388 6.29558L23.8972 6.26633L23.9393 6.40463C24.004 6.61672 23.9282 6.66397 23.9033 6.67957C23.8592 6.70717 23.7653 6.73477 23.5687 6.70927L23.4925 6.69952L23.4744 6.77407C23.4676 6.80182 23.4495 6.87531 23.3058 6.88071C23.1879 6.88521 23.0496 6.84021 22.971 6.79672L22.8417 6.72532L22.8436 6.87306C22.8444 6.91731 22.8346 6.94926 22.815 6.96771C22.789 6.99216 22.737 7.00296 22.6681 6.99801C22.5109 6.98676 22.3345 6.90591 22.2745 6.84036L22.1547 6.70927L22.1266 6.88476C22.1011 7.04346 21.9329 7.07436 21.8346 7.07856C21.7319 7.08306 21.6185 7.06131 21.5384 7.02186L21.4257 6.96636L21.4149 7.09146C21.4052 7.2047 21.2862 7.2158 21.2498 7.2164C21.0738 7.21955 20.8629 7.04886 20.8338 6.96366L20.7498 6.71842L20.6709 6.96531C20.6255 7.10721 20.5074 7.23035 20.3699 7.2791C20.2982 7.30445 20.1211 7.3424 20.0224 7.1465L19.9727 7.04811L19.8895 7.12026C19.7357 7.25375 19.5523 7.2698 19.3001 7.1756L18.1179 5.56675L18.2869 4.03755C18.5788 4.1592 18.8756 4.18935 19.0186 4.1745Z" fill="black"/>
<path d="M13.9786 6.88999C13.8172 6.95764 13.6874 6.98764 13.5642 6.98314C13.4407 6.97849 13.3314 6.93904 13.2265 6.86704C13.1079 7.07628 12.928 7.16673 12.7584 7.16583C12.5662 7.16463 12.4065 7.03819 12.3238 6.84934C12.2107 7.01764 11.9673 7.29948 11.7123 7.29633C11.6124 7.29513 11.5283 7.23093 11.4875 7.05723C11.39 7.10523 11.2589 7.14948 11.1441 7.15833C10.9964 7.16958 10.8752 7.12218 10.8857 6.94879C10.7501 7.03279 10.5411 7.11198 10.3879 7.11273C10.2526 7.11333 10.1608 7.05289 10.2011 6.88054C10.169 6.91519 9.95271 7.02814 9.78577 7.01029C9.69832 7.00099 9.62468 6.95584 9.59798 6.84469C9.45413 6.86329 9.29439 6.82879 9.17469 6.74779C9.05499 6.6668 8.9752 6.539 8.99185 6.37131C8.57141 6.46655 8.56076 6.14031 8.58251 6.08151C8.44541 6.05047 8.22207 5.96647 8.16237 5.82247C7.62344 5.80837 6.92356 5.77792 6.54947 5.31159C6.54947 5.31159 6.56267 5.27274 6.54062 5.27169C5.68835 5.23494 4.47819 4.79516 4.23954 4.14613C3.22978 3.76769 2.91269 3.35715 2.82389 3.15016C2.27386 2.96446 1.82117 2.76032 1.70207 2.33358C1.04044 2.22889 0.261368 1.76855 0.115723 1.29381L3.28047 1.27612C5.54405 1.26352 8.44646 1.02262 10.6506 1.45746C11.0934 1.54491 12.0254 2.03599 12.5008 2.91331C13.3203 2.93221 13.5693 4.25217 14.2036 4.26402C14.4322 4.26822 14.7907 4.05013 15.0818 3.51135C14.966 3.54609 14.8457 3.56343 14.7248 3.56279C14.6225 3.5622 14.5207 3.54684 14.4227 3.51719C14.9353 3.2856 14.9044 2.88766 14.9138 2.72192C14.7949 2.77487 14.5907 2.79017 14.4343 2.73932C14.5306 2.61452 14.6284 2.36388 14.5817 2.19109C14.4419 2.31018 14.3371 2.36358 14.1952 2.39343C14.2036 2.24493 14.1878 2.11849 14.1343 1.99774C13.8995 1.46766 13.1391 1.64345 13.1544 1.07467C13.248 1.17997 13.3807 1.26592 13.5313 1.26592C13.6101 1.26592 13.6886 1.23802 13.7584 1.16842C13.793 1.12413 13.8113 1.06935 13.8104 1.01317C13.8109 0.932176 13.7792 0.848629 13.7342 0.785931C13.6122 0.616136 13.4367 0.564537 13.26 0.570087C12.9909 0.578187 12.7194 0.718283 12.6303 0.771981C12.6652 0.303396 13.092 0.0865024 13.4794 0.0854524C13.7053 0.0848524 13.9555 0.1684 14.0749 0.316145C14.3374 0.130001 14.6173 0.116801 14.9738 0.304296C15.3723 0.513539 16.2813 0.761781 16.721 0.645985C16.6233 0.867678 16.3584 0.944626 16.2321 0.978675C16.5587 0.974925 16.8774 1.01227 17.1178 1.08847C16.9354 1.17457 16.781 1.27987 16.6233 1.36596C16.9056 1.39101 17.1802 1.40481 17.413 1.52136C17.2225 1.56576 17.1054 1.6427 17.0751 1.7426C17.2152 1.8725 17.466 1.8716 17.7174 1.94089C17.9535 2.00599 18.1899 2.13289 18.3355 2.48808C18.1932 2.48808 18.0463 2.50698 17.9229 2.56412C18.2485 2.82182 18.4771 3.07351 18.56 3.2967C18.4114 3.30345 18.2782 3.33135 18.1557 3.3903C18.4356 3.60404 18.683 3.82439 18.8297 4.06483C18.6577 4.08597 18.4876 4.12017 18.3208 4.16712C18.5977 4.36602 18.8051 4.59176 18.9124 4.8175C18.8015 4.79336 18.6641 4.78031 18.5533 4.79201C18.8548 5.08315 19.1029 5.40759 19.1899 5.70773C19.0808 5.66528 18.9601 5.64068 18.8332 5.62523C18.911 5.85262 18.9634 6.08016 18.9787 6.30756C19.4549 6.66425 19.7239 7.05453 19.6829 7.68392C19.5739 7.62361 19.4553 7.58237 19.3324 7.56197C19.5049 7.86421 19.4941 8.15505 19.3807 8.50214C19.2941 8.39489 19.2032 8.31884 19.1078 8.27415C19.1083 8.64583 19.0562 8.95258 18.9404 9.18132L18.8063 8.95993C18.6421 9.31346 18.3015 9.74575 17.9907 9.6457C17.7187 9.91794 17.4847 9.99414 17.0556 10.1893C16.9936 10.1209 16.9037 10.0625 16.8218 9.99924C16.7031 10.1008 16.6112 10.2095 16.5167 10.3525C16.434 10.238 16.3428 10.1365 16.2392 10.0534L15.8981 10.1803C15.1648 9.6784 14.4917 9.54536 14.5681 8.82883C14.4805 8.86003 14.4023 8.94448 14.3039 9.03867C14.2217 8.80033 14.2159 8.38559 14.2616 8.02515C14.1263 8.0445 14.0668 8.06085 13.9472 8.1222C13.9391 7.98616 13.9321 7.67537 14.1023 7.33338C13.9193 7.37972 13.8763 7.44962 13.7809 7.53722C13.7807 7.30083 13.8544 7.06983 13.9786 6.88999Z" fill="#ECB731"/>
<path d="M13.4793 3.83739e-06C13.0568 0.0012038 12.5842 0.241346 12.545 0.76588L12.5326 0.931625L12.6748 0.845677C12.7861 0.77848 13.035 0.662833 13.2627 0.655933C13.442 0.650384 13.5735 0.709482 13.6649 0.836378C13.7027 0.889026 13.7252 0.955024 13.7249 1.01277C13.7247 1.05327 13.7135 1.08762 13.6916 1.11492C13.6706 1.13592 13.6456 1.15251 13.6181 1.16374C13.5907 1.17497 13.5612 1.18061 13.5315 1.18032C13.3848 1.18032 13.2726 1.07847 13.2188 1.01787L13.0748 0.855577L13.0688 1.07247C13.059 1.43591 13.3277 1.54961 13.5648 1.6501C13.7595 1.7326 13.9608 1.8178 14.0559 2.03259C14.1012 2.13474 14.1177 2.24468 14.1096 2.38868L14.1033 2.50043L14.2128 2.47748C14.3153 2.45646 14.4128 2.41603 14.5 2.35838C14.4828 2.47523 14.4293 2.60572 14.3664 2.68702L14.292 2.78347L14.4077 2.82097C14.5317 2.86131 14.6889 2.86521 14.8228 2.83792C14.8108 3.01986 14.7565 3.27245 14.3874 3.43925L14.1797 3.53299L14.3978 3.59944C14.5036 3.63139 14.6135 3.648 14.7241 3.64879C14.785 3.64939 14.8465 3.64459 14.9082 3.63589C14.6626 4.01343 14.387 4.18187 14.2052 4.17842C13.9506 4.17377 13.7496 3.89718 13.5368 3.60424C13.2855 3.25835 13.0002 2.87151 12.5518 2.83402C12.0751 1.99089 11.1688 1.47251 10.6672 1.37351C8.98862 1.04232 6.88014 1.10157 5.01959 1.15392C4.40701 1.17117 3.82833 1.18752 3.27995 1.19052L0 1.20882L0.0338989 1.31906C0.191394 1.8331 0.980219 2.28773 1.64005 2.40788C1.79439 2.84646 2.27318 3.05271 2.76351 3.21995C2.87361 3.44495 3.20135 3.84108 4.17647 4.21292C4.46266 4.8882 5.65977 5.30009 6.4732 5.35304L6.48265 5.36534C6.87954 5.86002 7.60836 5.89332 8.1131 5.90682C8.20084 6.04047 8.37994 6.11261 8.49229 6.14591C8.49484 6.21401 8.51583 6.29621 8.57358 6.36206C8.62773 6.42385 8.73213 6.4828 8.91032 6.4672C8.92547 6.6082 8.99777 6.73149 9.12677 6.81879C9.24346 6.89784 9.39451 6.93849 9.5418 6.93414C9.5862 7.02608 9.6663 7.08383 9.77684 7.09553C9.88904 7.10768 10.017 7.07048 10.1161 7.02654C10.1241 7.05608 10.1359 7.08338 10.1544 7.10678C10.2031 7.16813 10.2819 7.19903 10.3882 7.19858C10.524 7.19798 10.6879 7.14473 10.819 7.08203C10.8315 7.11413 10.8495 7.14233 10.8736 7.16618C10.9354 7.22708 11.0286 7.25318 11.1508 7.24388C11.2363 7.23743 11.3363 7.20788 11.4335 7.16993C11.5064 7.34962 11.6347 7.38112 11.7112 7.38217C11.9689 7.38532 12.1933 7.15808 12.3163 7.00359C12.4238 7.15808 12.58 7.25063 12.7579 7.25168C12.9537 7.25273 13.1285 7.15043 13.2525 6.97614C13.3509 7.02953 13.4517 7.06493 13.5608 7.06913C13.6416 7.07105 13.7223 7.0614 13.8005 7.04048C13.7315 7.19723 13.6955 7.36648 13.6947 7.53772V7.73826L13.8864 7.55497C13.9055 7.53637 13.9232 7.52017 13.941 7.50487C13.8744 7.7054 13.8474 7.91696 13.8614 8.1278L13.8692 8.2592L13.9862 8.19905C14.0591 8.16155 14.1068 8.14355 14.1653 8.1302C14.1551 8.2388 14.1473 8.35489 14.1473 8.47594C14.1473 8.69043 14.1675 8.90763 14.2224 9.06722L14.2662 9.19457L14.402 9.06332C14.43 9.03617 14.4553 9.01307 14.4805 8.99042C14.5063 9.46021 14.8735 9.6744 15.3301 9.93509C15.4971 10.0305 15.6697 10.129 15.849 10.2517L15.8857 10.2768L16.2188 10.1529C16.3042 10.2273 16.3806 10.3113 16.4465 10.4034L16.5191 10.5039L16.5877 10.4004C16.6562 10.2951 16.7372 10.1986 16.8289 10.1128L16.8353 10.1178C16.895 10.1617 16.9514 10.2034 16.9915 10.2475L17.0332 10.2937L17.2732 10.1865C17.5807 10.0503 17.789 9.95459 18.0173 9.7365C18.3104 9.78645 18.6144 9.48961 18.812 9.13652L18.9464 9.35866L19.0163 9.22067C19.1195 9.01682 19.1739 8.75373 19.1871 8.42839C19.2299 8.46349 19.272 8.50564 19.3131 8.55649L19.4122 8.67963L19.4613 8.52934C19.5199 8.34994 19.5495 8.19095 19.5495 8.04335C19.5495 7.91796 19.5199 7.80171 19.4769 7.68741C19.5318 7.70631 19.5867 7.73046 19.6414 7.76001L19.759 7.82346L19.7677 7.69011C19.7707 7.64557 19.7721 7.60192 19.7721 7.55917C19.7721 7.03643 19.5516 6.6415 19.0578 6.26261C19.0434 6.09356 19.0059 5.91732 18.9513 5.73298C19.0278 5.74783 19.0986 5.76507 19.1579 5.78817L19.3197 5.85132L19.2714 5.68438C19.1861 5.38994 18.9668 5.10435 18.7574 4.8807C18.8031 4.8855 18.8492 4.89225 18.8934 4.90185L19.0641 4.93905L18.9891 4.78125C18.897 4.58731 18.7335 4.39442 18.5178 4.21517C18.6252 4.19102 18.7328 4.16357 18.8393 4.15052L18.9716 4.13447L18.9021 4.02078C18.7613 3.78979 18.5372 3.58639 18.3303 3.42065C18.4016 3.4013 18.4773 3.3872 18.5631 3.38315L18.6806 3.3779L18.6396 3.2678C18.5651 3.06696 18.3785 2.84227 18.096 2.60092C18.1744 2.58346 18.2545 2.5747 18.3348 2.57482H18.4626L18.4142 2.45648C18.2456 2.04534 17.9649 1.92129 17.7395 1.8592L17.4979 1.80655C17.3752 1.78345 17.2672 1.76185 17.1884 1.7182C17.233 1.67215 17.3174 1.63255 17.432 1.6057L17.6633 1.55171L17.4509 1.44551C17.2805 1.36031 17.096 1.32716 16.9016 1.30631L17.329 1.07067L17.1434 1.00782C16.9915 0.959524 16.8067 0.927425 16.607 0.909576C16.6846 0.854377 16.7554 0.78073 16.7992 0.681583L16.8709 0.518688L16.699 0.563986C16.2938 0.670483 15.411 0.43799 15.0136 0.229197C14.6617 0.0444025 14.3658 0.0447024 14.0868 0.214947C13.9304 0.0691517 13.6802 -0.000596144 13.4793 3.83739e-06ZM13.4798 0.171599C13.6959 0.170999 13.9133 0.252896 14.0082 0.370492L14.0589 0.43319L14.1246 0.386542C14.3663 0.215247 14.6158 0.213447 14.934 0.380542C15.2908 0.568036 16.0252 0.77698 16.5173 0.75778C16.4267 0.826028 16.313 0.868477 16.2098 0.896226L15.5551 1.07262L16.2331 1.06482C16.469 1.06212 16.6924 1.08177 16.8845 1.11972L16.7542 1.19142L16.3468 1.42751L16.6156 1.45196L16.6931 1.45871C16.8605 1.47296 17.0206 1.48871 17.1682 1.52606C17.0624 1.58755 17.011 1.65895 16.993 1.7182L16.9774 1.7695L17.0168 1.80595C17.1307 1.91154 17.294 1.94229 17.4668 1.97469L17.6946 2.02404C17.8713 2.07279 18.0657 2.15904 18.2048 2.41403C18.0852 2.42498 17.9754 2.44583 17.8868 2.48663L17.76 2.54527L17.8695 2.63197C18.1437 2.84901 18.3308 3.05181 18.4286 3.2285C18.3159 3.24425 18.2108 3.26915 18.1185 3.3134L17.9922 3.374L18.1035 3.4589C18.3752 3.66634 18.5561 3.83823 18.6801 4.00263C18.5525 4.02363 18.4244 4.04943 18.2976 4.08483L18.1257 4.13282L18.2706 4.23692C18.4776 4.38557 18.6395 4.54621 18.7493 4.70836C18.6811 4.70171 18.6125 4.70126 18.5442 4.70701L18.3612 4.72621L18.4935 4.854C18.7565 5.10794 18.941 5.35319 19.0437 5.57488C18.9775 5.55995 18.9107 5.54844 18.8433 5.54038L18.7076 5.52388L18.7518 5.65333C18.8328 5.89002 18.8789 6.10616 18.8928 6.31376L18.8955 6.35306L18.927 6.37661C19.3983 6.72969 19.5997 7.07783 19.6009 7.55467C19.5159 7.51957 19.4304 7.49092 19.3455 7.47772L19.1693 7.45012L19.2576 7.60492C19.3386 7.74666 19.3785 7.88676 19.3785 8.0444C19.3785 8.1332 19.3611 8.231 19.3357 8.33434C19.2738 8.27705 19.2104 8.228 19.1439 8.19695L19.0215 8.13965L19.0217 8.279C19.0217 8.56369 18.9885 8.80128 18.9248 8.99117L18.7959 8.77848L18.7281 8.92458C18.5579 9.29116 18.2507 9.6402 18.0164 9.56491L17.9666 9.54886L17.9294 9.58591C17.7101 9.80535 17.5196 9.8898 17.2039 10.0296L17.0717 10.0887C17.0288 10.0502 16.984 10.0138 16.9375 9.97979L16.8188 9.89085L16.7656 9.93479C16.6723 10.0147 16.5923 10.1076 16.5134 10.2142C16.4425 10.1275 16.3702 10.0495 16.2923 9.98729L16.2544 9.95699L15.9078 10.0858C15.7359 9.97079 15.5659 9.8724 15.4153 9.78615C14.9595 9.52591 14.6475 9.34771 14.6475 8.93568C14.6475 8.90463 14.6493 8.87238 14.6529 8.83863L14.6673 8.70288L14.5387 8.74878C14.4709 8.77293 14.4119 8.82168 14.3514 8.87718C14.3301 8.76303 14.3184 8.62339 14.3184 8.47069C14.3184 8.33164 14.3276 8.18315 14.346 8.03675L14.3603 7.92516L14.2488 7.94091C14.1594 7.95366 14.0984 7.96701 14.0325 7.99116C14.0366 7.77111 14.0835 7.56277 14.1785 7.37212L14.2617 7.20503L14.0807 7.25078C13.9955 7.27238 13.9361 7.29953 13.8887 7.32998C13.9164 7.18883 13.9694 7.05413 14.0487 6.93924L14.2155 6.69819L13.9451 6.81129C13.7924 6.87519 13.6757 6.90189 13.5668 6.89769C13.4624 6.89379 13.3694 6.86154 13.2743 6.79659L13.1972 6.74379L13.1517 6.82479C13.0592 6.98784 12.9159 7.08098 12.7588 7.08008C12.6079 7.07918 12.4745 6.98004 12.4024 6.81504L12.3398 6.67195L12.2527 6.80154C12.1247 6.99174 11.9068 7.21298 11.7133 7.21058C11.6852 7.21028 11.6113 7.20938 11.5709 7.03763L11.5463 6.93264L11.4494 6.98019C11.3477 7.03028 11.2281 7.06568 11.1375 7.07273C11.0691 7.07783 11.0181 7.06763 10.9938 7.04378C10.9762 7.02638 10.9686 6.99624 10.9711 6.95379L10.9812 6.78834L10.8402 6.87579C10.7199 6.95049 10.5256 7.02624 10.3872 7.02683C10.3383 7.02699 10.3023 7.01724 10.2883 6.99969C10.2745 6.98259 10.2732 6.94704 10.2843 6.89979L10.3462 6.63625L10.1397 6.82029C10.1125 6.84444 9.92999 6.93924 9.79469 6.92484C9.73035 6.91794 9.69645 6.88794 9.6813 6.82464L9.6633 6.74964L9.5868 6.75954C9.46171 6.77574 9.32206 6.74394 9.22261 6.6766C9.14777 6.6259 9.06182 6.53335 9.07712 6.37961L9.08882 6.26126L8.97287 6.28751C8.88557 6.30716 8.76858 6.31751 8.70708 6.25391C8.67033 6.21596 8.66178 6.16076 8.66178 6.12971C8.66178 6.12026 8.66268 6.11291 8.66358 6.10901L8.68593 6.02337L8.60148 5.99757C8.45614 5.96457 8.28154 5.88537 8.24164 5.78937L8.22034 5.73808L8.1647 5.73658C7.69866 5.72428 6.99953 5.70388 6.63519 5.27624C6.63354 5.26034 6.63189 5.24354 6.62109 5.22794C6.61248 5.21541 6.60104 5.20509 6.5877 5.19779C6.57436 5.1905 6.55949 5.18644 6.5443 5.18594C5.66457 5.14799 4.53466 4.69951 4.32017 4.11648L4.30667 4.07958L4.26992 4.06578C3.23795 3.67909 2.97021 3.27305 2.90301 3.11631L2.88786 3.08106L2.85141 3.06891C2.26853 2.87211 1.88679 2.67667 1.78479 2.31068L1.76994 2.25758L1.7155 2.24903C1.09392 2.15064 0.454636 1.7611 0.249742 1.37891C0.494385 1.37771 3.281 1.36196 3.281 1.36196C3.83118 1.35896 4.41091 1.34261 5.02454 1.32536C6.87579 1.27331 8.97422 1.21437 10.6341 1.54181C11.0973 1.63315 11.9869 2.14524 12.4256 2.95431L12.4493 2.99811L12.4991 2.99931C12.8922 3.00831 13.1495 3.36245 13.3982 3.70504C13.6368 4.03353 13.8623 4.34372 14.2022 4.35002C14.4416 4.35437 14.8353 4.14827 15.1575 3.55234L15.2554 3.37115L15.0579 3.42935C14.9501 3.46157 14.8382 3.47769 14.7258 3.4772C14.7063 3.47705 14.6887 3.47 14.6695 3.46865C14.9782 3.2354 14.9926 2.93016 14.998 2.76937L15.0054 2.58892L14.8792 2.64367C14.8075 2.67547 14.6889 2.68642 14.5743 2.67412C14.6316 2.56357 14.6796 2.42183 14.6796 2.28878C14.6796 2.24738 14.6751 2.20704 14.6647 2.16894L14.6293 2.03799L14.5261 2.12589C14.4348 2.20389 14.3616 2.24993 14.2793 2.28008C14.2748 2.16279 14.255 2.05839 14.2128 1.96299C14.0903 1.6861 13.8467 1.58305 13.6317 1.49201C13.4862 1.43036 13.3824 1.37711 13.3169 1.30166C13.3862 1.33331 13.4583 1.35176 13.5312 1.35176C13.6392 1.35176 13.7387 1.30931 13.8191 1.22907C13.8714 1.16457 13.8959 1.09257 13.8963 1.01367C13.8968 0.919325 13.8632 0.818078 13.8039 0.735881C13.6805 0.564136 13.4915 0.477139 13.2575 0.484189C13.0664 0.490039 12.8805 0.556037 12.7522 0.613785C12.8595 0.313344 13.1835 0.172348 13.4798 0.171599Z" fill="black"/>
<path d="M14.8458 8.33884C14.832 8.83022 14.6767 9.7218 14.2387 10.0344C13.8687 10.2985 13.3407 10.1167 13.0659 10.488L13.1003 10.7104C13.515 10.7148 13.6014 10.7451 14.0442 10.4368C13.7593 10.6389 13.5795 10.7679 13.5455 11.1021C13.6569 11.1256 13.7104 11.2237 13.7859 11.2697C13.921 11.1274 14.089 10.9696 14.2731 10.6642C14.2486 10.9032 14.134 11.0709 14.134 11.3006C14.2313 11.2836 14.3309 11.2836 14.4282 11.3006C14.5141 11.1124 14.7379 10.689 14.7379 10.4712C14.9949 10.4712 15.1734 10.4259 15.415 10.3845C15.5242 10.3659 15.6422 10.3947 15.7871 10.3716C15.8006 10.2636 15.7883 10.1688 15.7883 10.0722C15.5192 9.98789 15.485 9.90479 15.1623 9.75314C15.0463 9.4971 15.1983 9.08416 15.2812 8.65743C15.1342 8.57613 15.0139 8.44639 14.9544 8.27539C14.9184 8.29129 14.8818 8.31334 14.8458 8.33884Z" fill="#ECB731"/>
<path d="M14.9204 8.19696L14.7547 8.29281L14.7601 8.33646C14.7461 8.83699 14.5825 9.68372 14.1889 9.96466C14.0418 10.0697 13.8646 10.0965 13.6771 10.1249C13.4283 10.1625 13.171 10.2017 12.9969 10.437L12.9756 10.4656L13.0263 10.795L13.1959 10.7976C13.3416 10.8001 13.4482 10.801 13.5561 10.779C13.507 10.8652 13.4728 10.9654 13.4598 11.0934L13.452 11.17L13.5273 11.1859C13.5747 11.1958 13.6093 11.2291 13.6495 11.2675L13.8022 11.3935L13.8478 11.3287L13.8994 11.2749C13.9537 11.2186 14.0148 11.1538 14.079 11.0787C14.0592 11.151 14.0488 11.2256 14.0479 11.3005V11.4013L14.1475 11.3851C14.2352 11.3696 14.3248 11.3695 14.4125 11.3848L14.4773 11.3968L14.5582 11.226C14.6794 10.9732 14.7845 10.7352 14.812 10.5543C14.9866 10.5483 15.1286 10.5238 15.2876 10.4944L15.4294 10.4691L15.5746 10.465C15.6407 10.4673 15.7159 10.4698 15.8004 10.4563L15.8714 10.4451L15.8721 10.3822L15.8765 10.1612L15.8723 10.011L15.8138 9.99031C15.6715 9.94561 15.602 9.90301 15.5063 9.84391C15.4179 9.78841 15.3265 9.73774 15.2326 9.69212C15.2142 9.6387 15.2052 9.58254 15.2059 9.52607C15.2059 9.37038 15.2512 9.17778 15.298 8.97769L15.379 8.61125L15.3224 8.58245C15.1844 8.50595 15.085 8.39016 15.0352 8.24736L15.001 8.14941L14.9204 8.19696ZM13.7026 10.2945C13.9018 10.2643 14.1078 10.233 14.2883 10.1042C14.7434 9.77926 14.9005 8.92804 14.9266 8.42001C14.9873 8.53055 15.0766 8.624 15.1849 8.6957L15.1312 8.93869C15.082 9.14808 15.0346 9.34983 15.0346 9.52622C15.0346 9.62222 15.0487 9.71057 15.0839 9.78871L15.097 9.81751L15.1255 9.83101C15.2256 9.87791 15.3227 9.93111 15.4162 9.99031C15.5014 10.0428 15.5795 10.089 15.704 10.1336L15.7049 10.1684L15.7028 10.2919C15.6608 10.294 15.6194 10.2951 15.58 10.2937L15.4003 10.3L15.2563 10.3258C15.0832 10.3578 14.9338 10.3852 14.7376 10.3852H14.6519V10.471C14.6519 10.633 14.4962 10.9578 14.4032 11.1517L14.3756 11.2099C14.3276 11.2049 14.2793 11.2037 14.231 11.2063C14.2423 11.1316 14.2606 11.0592 14.284 10.9852C14.3144 10.8895 14.3459 10.7905 14.3579 10.6726L14.3969 10.2913L14.1992 10.6195C14.0445 10.8765 13.9036 11.0233 13.779 11.1525L13.7683 11.1433C13.7311 11.1079 13.6893 11.0777 13.6441 11.0533C13.6891 10.8025 13.8352 10.6894 14.0935 10.5063L13.995 10.3659C13.6119 10.6326 13.5244 10.6311 13.1988 10.6254L13.1737 10.6251L13.1569 10.5166C13.2891 10.3615 13.4805 10.3281 13.7026 10.2945Z" fill="black"/>
<path d="M13.502 11.6497C13.4386 11.5537 13.3976 11.2692 13.5157 11.1084C13.589 11.1376 13.7378 11.1817 13.7972 11.2495C13.7089 11.3359 13.5587 11.5222 13.502 11.6497Z" fill="#ECB731"/>
<path d="M13.4469 11.0575C13.308 11.2467 13.3453 11.5677 13.4308 11.6971L13.5172 11.8277L13.5806 11.6845C13.6327 11.5672 13.7774 11.389 13.8574 11.3107L13.9156 11.2539L13.8619 11.1927C13.799 11.1211 13.6799 11.0773 13.5928 11.0455L13.4869 11.0058L13.4469 11.0575ZM13.5265 11.3823C13.5265 11.3239 13.5392 11.2671 13.5599 11.2165C13.5944 11.2294 13.6331 11.2452 13.6681 11.2629C13.6238 11.3128 13.5767 11.3731 13.5323 11.436C13.5305 11.4175 13.5265 11.4013 13.5265 11.3823ZM16.0856 7.76092C16.1744 7.85272 16.2981 8.14671 16.2981 8.4281C16.2981 8.4821 16.2935 8.5358 16.2833 8.5874C16.2546 8.73109 16.1834 8.83954 16.0746 8.91378C16.0157 8.72839 15.8709 8.42135 15.6498 8.28306L15.5802 8.23941L15.5337 8.3072C15.4742 8.39405 15.4395 8.5025 15.4182 8.62129C15.2379 8.55425 15.0964 8.42195 15.0358 8.24766L15.0053 8.16051L14.9207 8.19711C14.7833 8.25666 14.6467 8.3909 14.5564 8.4797L14.5448 8.4905C14.4188 8.3369 14.3638 8.20251 14.3591 8.02326L14.3564 7.92202L14.1079 7.97076L14.1548 8.13546L14.1991 8.12691C14.2238 8.32475 14.305 8.4905 14.4737 8.67334L14.5321 8.73634L14.5889 8.68309L14.6765 8.6018C14.7409 8.53865 14.8309 8.45135 14.9195 8.39375C14.9734 8.50036 15.0502 8.59373 15.1444 8.66716C15.2386 8.7406 15.3479 8.7923 15.4644 8.81854L15.5618 8.84104L15.5691 8.74129C15.5756 8.65366 15.5979 8.56792 15.635 8.48825C15.8159 8.65969 15.9267 8.97963 15.9342 9.05223L15.9461 9.16878L16.0535 9.12213C16.2669 9.02943 16.4046 8.85604 16.4514 8.62054C16.5248 8.25186 16.3568 7.79452 16.209 7.64167L16.0856 7.76092ZM16.1175 2.96917C16.0221 3.36876 15.8177 3.47975 15.5976 3.53495C15.6194 3.46071 15.632 3.38046 15.632 3.30216C15.632 3.24591 15.626 3.19116 15.6132 3.14137L15.5645 2.94952L15.4581 3.11647C15.3167 3.33846 15.1176 3.45426 14.8499 3.47046L14.8603 3.64145C15.0968 3.6272 15.2934 3.5435 15.4493 3.39456C15.4379 3.47436 15.4176 3.5519 15.3816 3.60545L15.2676 3.77465L15.4683 3.73745C15.7122 3.69215 16.0329 3.6305 16.2098 3.22971C16.2225 3.28161 16.23 3.33261 16.23 3.38391C16.23 3.43056 16.2257 3.47766 16.2188 3.5264L16.1931 3.70835L16.3491 3.611C16.6334 3.43326 16.694 3.24681 16.7027 2.98462L16.5314 2.97892C16.526 3.14257 16.5008 3.25221 16.4001 3.35451C16.3962 3.23016 16.3662 3.09547 16.2743 2.94412L16.1661 2.76608L16.1175 2.96917ZM14.3947 0.575246C14.2561 0.577345 14.1649 0.657893 14.1568 0.785539C14.1521 0.860537 14.1919 0.921435 14.2304 0.980383C14.2696 1.04038 14.3099 1.10218 14.3099 1.18378H14.4814C14.4814 1.05133 14.4193 0.956084 14.374 0.886786C14.3518 0.852887 14.3266 0.814488 14.3278 0.796489C14.3293 0.773689 14.3309 0.74774 14.3974 0.74669C14.4994 0.74504 14.6189 0.817188 14.7574 0.900885C14.9744 1.03213 15.2445 1.19533 15.6278 1.19803L15.6291 1.02658C15.293 1.02418 15.0556 0.880636 14.846 0.75419C14.6848 0.656843 14.5459 0.572846 14.3947 0.575246Z" fill="black"/>
<path d="M14.3442 0.71845C14.3769 0.898594 14.5224 1.12029 14.7647 1.18119C14.8323 1.19828 14.9591 1.21658 15.047 1.14714C15.0836 1.11819 15.1272 1.06239 15.1259 0.961292L14.9544 0.963542C14.9546 0.980791 14.9525 1.00329 14.9408 1.01274C14.9202 1.02894 14.865 1.02984 14.8064 1.01514C14.6454 0.974492 14.5368 0.819696 14.5128 0.687851L14.3442 0.71845ZM17.2729 2.71054C17.365 2.81553 17.4088 2.91288 17.4173 3.00948C17.2703 2.90703 17.0985 2.84598 16.948 2.84763L16.95 3.01908C17.0995 3.01728 17.2957 3.10787 17.4269 3.23912L17.5259 3.33812L17.5691 3.20507C17.6354 3.00003 17.5807 2.80143 17.4016 2.59744L17.2729 2.71054ZM17.5169 3.69361C17.5457 3.74686 17.5771 3.8349 17.5892 3.93225C17.4956 3.82995 17.387 3.756 17.2223 3.71551L17.1815 3.882C17.3581 3.92535 17.4563 4.00455 17.5853 4.20854L17.6815 4.36049L17.7389 4.19009C17.8193 3.95145 17.7289 3.72571 17.6678 3.61231L17.5169 3.69361ZM15.3294 4.68298L15.3527 4.85442L15.4749 4.73217C15.6112 4.59583 15.8832 4.47163 15.9999 4.45423L15.9748 4.28474C15.8688 4.30034 15.6661 4.38194 15.5007 4.49293C15.5181 4.35734 15.5785 4.24139 15.6795 4.16924L15.58 4.0299C15.3866 4.16789 15.293 4.41193 15.3294 4.68298ZM16.8937 4.70053C16.9416 4.78152 16.9656 4.89372 16.9656 5.00682C16.9656 5.05121 16.9588 5.09471 16.9513 5.13761C16.8306 4.93092 16.6662 4.76787 16.48 4.67893L16.4061 4.83357C16.6054 4.92882 16.7854 5.13821 16.8874 5.3932L16.9528 5.557L17.0412 5.40415C17.1686 5.18351 17.1686 4.82877 17.041 4.61338L16.8937 4.70053ZM17.9056 4.63003C17.9654 4.74447 17.9954 4.87137 17.9954 5.01432C17.9954 5.01972 17.9939 5.02587 17.9938 5.03126C17.8745 4.88622 17.732 4.74012 17.5103 4.65103L17.4464 4.81002C17.678 4.90317 17.806 5.06636 17.9413 5.23916L18.1093 5.4526L18.1429 5.26511C18.1928 4.98942 18.1649 4.75557 18.0574 4.55068L17.9056 4.63003ZM18.032 5.5867C18.0893 5.66425 18.1112 5.75364 18.1112 5.84019C18.1112 5.86779 18.1051 5.89344 18.1012 5.92014C17.9932 5.76819 17.8259 5.6014 17.6182 5.5354L17.5661 5.69874C17.7928 5.77059 17.9882 6.01943 18.049 6.16478L18.1214 6.33817L18.2048 6.16973C18.292 5.99378 18.3352 5.70879 18.1699 5.48485L18.032 5.5867ZM15.0978 5.98704L15.1139 6.17708L15.2451 6.03893C15.3863 5.89044 15.654 5.70564 15.8403 5.66589L15.8046 5.49835C15.6385 5.5339 15.44 5.6515 15.2817 5.77719C15.317 5.5861 15.4271 5.43265 15.6036 5.35361L15.5335 5.19731C15.2346 5.33111 15.0678 5.6338 15.0978 5.98704ZM14.3582 4.96857V5.13146L14.4924 5.03921C14.6421 4.93617 14.8505 4.82292 14.9382 4.79652L14.889 4.63243C14.8058 4.65748 14.6667 4.73007 14.5406 4.80597C14.5638 4.62493 14.6355 4.38449 14.8467 4.26284L14.7611 4.11449C14.3973 4.32404 14.3582 4.78152 14.3582 4.96857ZM18.1466 6.62707C18.2698 6.73041 18.4342 6.92781 18.4924 7.14365L18.5318 7.29004L18.6368 7.18085C18.8498 6.9596 18.7814 6.67926 18.7521 6.55942L18.7449 6.52867L18.5774 6.56452L18.5857 6.60007C18.5981 6.65016 18.6152 6.72051 18.6152 6.79671C18.6152 6.84051 18.6094 6.88656 18.5938 6.93171C18.5124 6.76492 18.3978 6.61653 18.257 6.49567L18.1466 6.62707ZM17.0112 7.0367L17.02 7.2218L17.1553 7.09535C17.3273 6.93441 17.5141 6.81801 17.6953 6.75861L17.642 6.59587C17.4985 6.64281 17.3534 6.72216 17.2136 6.82566C17.2574 6.68016 17.3447 6.53812 17.4587 6.48532L17.3869 6.32977C17.1395 6.44392 16.9993 6.78561 17.0112 7.0367ZM16.0938 6.52027C16.2151 6.56542 16.3431 6.74271 16.4007 6.91506C16.246 6.80526 16.1032 6.76311 15.9825 6.72876L15.8839 6.69936L15.8301 6.86196L15.9357 6.89361C16.0966 6.93936 16.263 6.98645 16.4541 7.1864L16.5823 7.32079L16.6012 7.136C16.6297 6.85611 16.3956 6.44977 16.1535 6.35962L16.0938 6.52027ZM14.0034 0.516406L13.998 0.297413L14.1693 0.293213L14.1746 0.512206L14.0034 0.516406ZM14.1689 5.85759L14.1642 6.03383L14.4005 5.85789C14.4602 5.81259 14.5124 5.77374 14.567 5.74119C14.4899 5.91219 14.4483 6.08513 14.4483 6.25388C14.4483 6.30818 14.4524 6.36202 14.4606 6.41527L14.63 6.38917C14.5922 6.14348 14.6597 5.87784 14.8256 5.6209L14.9399 5.44375L14.7342 5.491C14.5926 5.52355 14.4932 5.57965 14.3972 5.6473C14.4726 5.4793 14.6147 5.32781 14.7632 5.28731L14.718 5.12201C14.4336 5.19986 14.177 5.5435 14.1689 5.85759Z" fill="black"/>
<path d="M14.5881 6.47728L14.5039 6.32804L14.5194 6.31934L14.6037 6.46843L14.5881 6.47728Z" fill="black"/>
<path d="M13.8823 6.87575L14.0266 6.96815C14.2277 6.65361 14.5259 6.46191 14.8246 6.45502L14.8207 6.28372C14.4596 6.29182 14.1176 6.50781 13.8823 6.87575ZM3.19482 1.32727C3.64826 2.0078 4.06645 2.37619 4.97677 2.37469C5.70245 2.37349 6.53462 2.13515 7.0851 1.97735L7.038 1.81251C6.49652 1.96775 5.67845 2.20205 4.97662 2.20325C4.13889 2.2046 3.76736 1.87746 3.33747 1.23218L3.19482 1.32727Z" fill="black"/>
<path d="M4.13916 2.21677C4.40615 2.75765 4.89529 3.01774 5.63446 3.01159C6.52229 3.00439 6.90837 2.9009 7.35551 2.7812L7.31111 2.6156C6.87538 2.7323 6.49904 2.8331 5.63311 2.84015C4.95693 2.8457 4.5311 2.6234 4.29276 2.14087L4.13916 2.21677ZM7.25051 3.67472C7.48631 4.14046 8.06154 4.3938 8.87016 4.3881C9.4067 4.38435 10.016 4.2639 10.5858 4.04896L10.5254 3.88861C9.97383 4.09666 9.38555 4.2132 8.86896 4.2168C8.12874 4.22205 7.6081 4.00201 7.40336 3.59732L7.25051 3.67472Z" fill="black"/>
<path d="M5.47363 2.99204C5.82432 3.40633 6.57595 3.69597 7.34407 3.71307C7.63447 3.71952 8.64063 3.71577 9.39061 3.39658L9.32356 3.23894C8.60494 3.54463 7.62952 3.54808 7.34782 3.54178C6.5185 3.52333 5.86287 3.18659 5.60443 2.88135L5.47363 2.99204ZM8.12615 4.297C8.243 4.58874 8.46439 4.79424 8.78433 4.90808C9.53071 5.17343 10.6356 4.86594 11.1817 4.56265L11.0985 4.4128C10.5954 4.69209 9.53011 4.99133 8.84178 4.74654C8.57014 4.64994 8.38279 4.4773 8.28515 4.23311L8.12615 4.297ZM10.14 5.39902C10.2187 5.54826 10.3642 5.65626 10.5609 5.71116C10.9009 5.80611 11.3702 5.73306 11.7019 5.53342L11.6137 5.38657C11.3239 5.56086 10.9005 5.62806 10.6071 5.54601C10.4548 5.50357 10.3486 5.42722 10.2916 5.31907L10.14 5.39902Z" fill="black"/>
<path d="M9.25635 4.97453C9.34065 5.10188 9.53804 5.39992 10.068 5.44432C10.4493 5.47611 10.9466 5.37292 11.5465 5.13742L11.4839 4.97798C10.9087 5.20387 10.4371 5.30317 10.0824 5.27347C9.63524 5.23612 9.48179 5.00438 9.39929 4.87988L9.25635 4.97453ZM10.8529 5.69151C10.8655 5.84225 11.0501 6.01505 11.2919 6.10219C11.4566 6.16159 11.8792 6.25969 12.2446 5.88755L12.1223 5.76755C11.8264 6.06875 11.4838 5.98925 11.3501 5.94095C11.1482 5.86805 11.029 5.73876 11.0239 5.67711L10.8529 5.69151Z" fill="black"/>
<path d="M12.7156 6.10465C12.654 6.25359 12.4497 6.34944 12.2068 6.34329C12.0039 6.33819 11.7475 6.25674 11.6362 6.0436L11.4844 6.12295C11.6064 6.35634 11.8815 6.50648 12.2026 6.51458C12.4654 6.52118 12.6853 6.42684 12.8065 6.27219C12.9445 6.40599 13.1161 6.48354 13.2944 6.48174C13.4914 6.47979 13.6825 6.38484 13.8512 6.21264C13.99 6.24099 14.1299 6.23889 14.2681 6.19614L14.2174 6.0325C14.0963 6.07125 13.9665 6.07396 13.8439 6.0403L13.7933 6.02665L13.7582 6.0655C13.6147 6.22419 13.4537 6.30879 13.2926 6.31029C13.1329 6.31179 12.976 6.22944 12.8622 6.0844L12.7716 5.9689L12.7156 6.10465ZM1.7433 2.24932L1.71045 2.41761C2.50062 2.57166 3.51159 2.48301 4.30417 2.38821L4.28377 2.21812C3.50364 2.31127 2.50992 2.39901 1.7433 2.24932ZM2.83511 3.05569L2.79447 3.22204C3.63204 3.42708 4.8785 3.39978 5.69388 3.15874L5.64528 2.99434C4.8551 3.22804 3.64704 3.25429 2.83511 3.05569ZM4.23607 4.21561C5.67048 4.73579 7.57392 4.4133 8.1232 4.30215L8.08915 4.13431C7.55097 4.24321 5.68713 4.55955 4.29442 4.05466L4.23607 4.21561ZM6.5931 5.18173V5.35317C7.34337 5.35317 8.43909 5.14918 8.84768 4.93348L8.76773 4.78199C8.38539 4.98373 7.30812 5.18173 6.5931 5.18173ZM8.1682 5.74031L8.16175 5.9116C8.54049 5.92585 9.47541 5.69681 9.86899 5.39832L9.7655 5.26167C9.40491 5.53496 8.51499 5.75321 8.1682 5.74031ZM8.59793 5.99785L8.58428 6.16855C9.13237 6.21234 9.95809 6.09505 10.4813 5.62001L10.3661 5.49312C9.8834 5.93125 9.11197 6.0388 8.59793 5.99785ZM9.53391 6.77003L9.64475 6.90082C9.7628 6.80063 9.89164 6.64748 9.99829 6.48084L9.854 6.38844C9.75755 6.53903 9.63785 6.68183 9.53391 6.77003ZM10.1288 6.82522L10.2365 6.95842C10.3536 6.86377 10.4513 6.74903 10.5534 6.58643L10.4084 6.49539C10.3169 6.64118 10.2305 6.74288 10.1288 6.82522ZM10.8423 6.86182L10.8249 6.88117L10.953 6.99502L10.9703 6.97582L11.1762 6.73973L11.0436 6.63128L10.8423 6.86182ZM11.5773 7.09687L11.4453 6.98767L11.7087 6.66908L11.8407 6.77813L11.5773 7.09687ZM6.38745 2.12617C6.5163 2.44266 6.83654 2.76755 7.19923 2.77625C7.65371 2.7872 8.30109 2.58906 8.80988 2.28337L8.72168 2.13652C8.23825 2.42706 7.62806 2.61516 7.20328 2.60511C6.91439 2.59821 6.654 2.32642 6.54615 2.06152L6.38745 2.12617Z" fill="black"/>
<path d="M8.29512 2.8883C8.04523 2.88815 7.84033 2.79636 7.66874 2.60781L7.54199 2.72316C7.74494 2.9462 7.99828 3.05945 8.29497 3.0596C8.7895 3.06005 9.34044 2.75286 9.81382 2.45197L9.72202 2.30737C9.29574 2.57826 8.7484 2.8889 8.29512 2.8883Z" fill="black"/>
<path d="M10.2277 2.79706C9.92684 3.00466 9.61575 3.21945 9.31846 3.2289C9.09917 3.2358 8.89968 3.12885 8.70888 2.90161L8.57764 3.01186C8.80458 3.2817 9.04862 3.40874 9.32386 3.40019C9.6717 3.38924 10.0038 3.15975 10.3251 2.93791L10.4752 2.83501L10.3797 2.69312L10.2277 2.79706Z" fill="black"/>
<path d="M10.0315 3.46996C9.75147 3.48541 9.66252 3.37786 9.61228 3.27077L9.45703 3.34336C9.55828 3.55966 9.74922 3.657 10.041 3.64095C10.3671 3.62295 10.76 3.43201 11.0923 3.13007L10.9769 3.00317C10.673 3.27962 10.3197 3.45406 10.0315 3.46996Z" fill="black"/>
<path d="M10.4675 3.71842C10.4158 3.70441 10.3675 3.67985 10.3258 3.64629C10.284 3.61274 10.2496 3.5709 10.2248 3.52342L10.0742 3.60502C10.1096 3.67276 10.1587 3.73244 10.2183 3.7803C10.2779 3.82816 10.3468 3.86316 10.4206 3.88311C10.7081 3.96516 11.1039 3.86421 11.5967 3.58312L11.5118 3.43433C10.9496 3.75487 10.6336 3.76567 10.4675 3.71842Z" fill="black"/>
<path d="M10.4248 3.82761C10.4794 4.01046 10.5907 4.1402 10.756 4.21325C11.231 4.42324 11.9761 4.0874 12.1207 4.01796L12.0464 3.86361C11.7514 4.00536 11.1622 4.20545 10.8253 4.05651C10.7063 4.00386 10.6291 3.91296 10.589 3.77856L10.4248 3.82761Z" fill="black"/>
<path d="M10.8999 4.2622C11.2027 4.80534 11.6376 4.87493 12.5622 4.52814L12.502 4.3678C11.5602 4.72104 11.274 4.58139 11.0496 4.17896L10.8999 4.2622Z" fill="black"/>
<path d="M11.5732 4.71973C11.6566 4.92328 11.8077 5.06727 12.0105 5.13627C12.3085 5.23752 12.706 5.17017 13.0741 4.95613L12.9878 4.80793C12.6622 4.99752 12.3174 5.05962 12.0657 4.97397C11.9092 4.92088 11.7969 4.81333 11.7319 4.65479L11.5732 4.71973Z" fill="black"/>
<path d="M12.3506 5.1635C12.4403 5.3684 12.5915 5.50954 12.7763 5.56084C12.9984 5.62264 13.2617 5.55424 13.5573 5.366C13.6638 5.59774 13.8228 5.64529 14.05 5.64229L14.0478 5.47084C13.8526 5.47354 13.759 5.4497 13.6804 5.21135L13.6443 5.10126L13.5496 5.16815C13.26 5.3729 13.0152 5.44955 12.8222 5.39585C12.6501 5.348 12.5561 5.20565 12.5073 5.09481L12.3506 5.1635ZM27.6177 1.9761C26.8829 1.9749 26.2393 1.89661 25.7047 1.74346L25.6576 1.90816C26.2075 2.0658 26.8668 2.1462 27.6176 2.1474C28.4121 2.14875 28.9233 1.89016 29.3817 1.25538L29.2428 1.15503C28.8151 1.74706 28.3596 1.9773 27.6177 1.9761Z" fill="black"/>
<path d="M26.7356 2.78308C26.3846 2.78548 25.9237 2.71723 25.471 2.59604L25.4268 2.76148C25.8936 2.88643 26.371 2.95677 26.7367 2.95437C27.4337 2.94987 27.9045 2.68783 28.3112 2.07825L28.1687 1.98315C27.7925 2.54714 27.3775 2.77888 26.7356 2.78308ZM22.3076 3.823C22.72 4.09479 23.3442 4.45598 24.0035 4.45643C24.4668 4.45658 24.895 4.27823 25.276 3.92634L25.1598 3.8005C24.8067 4.12674 24.4284 4.28528 24.0035 4.28498C23.3904 4.28468 22.7959 3.93954 22.402 3.6799L22.3076 3.823Z" fill="black"/>
<path d="M25.2559 3.74918C24.7818 3.76298 23.8304 3.49269 23.3595 3.13645L23.2562 3.2731C23.7618 3.65589 24.7491 3.93548 25.2609 3.92048C26.0857 3.89633 26.8939 3.2956 27.2096 2.92271L27.0788 2.81201C26.7823 3.1624 26.0251 3.72683 25.2559 3.74918ZM21.7937 4.29112C22.0336 4.73645 22.6442 5.06509 23.2457 5.07229C23.7824 5.07874 24.2145 4.8422 24.4631 4.40646L24.3141 4.32156C24.0224 4.83335 23.5208 4.9043 23.2478 4.901C22.7047 4.89455 22.1567 4.60386 21.9446 4.20997L21.7937 4.29112ZM21.9179 5.71412C21.632 5.72312 21.307 5.62202 21.109 5.46243L21.0015 5.59592C21.2326 5.78222 21.5944 5.89592 21.9233 5.88557C22.2389 5.87567 22.4861 5.75417 22.6193 5.54343L22.4744 5.45193C22.3369 5.66912 22.0667 5.70932 21.9179 5.71412Z" fill="black"/>
<path d="M21.1383 4.92205C21.7133 5.47013 22.2518 5.53808 22.6024 5.49863C23.0555 5.44763 23.3727 5.20464 23.4662 5.06349L23.3234 4.96885C23.2615 5.06229 22.9891 5.28264 22.5833 5.32823C22.2691 5.36363 21.7838 5.30034 21.2565 4.79785L21.1383 4.92205ZM21.336 6.00516C21.1843 6.01971 20.961 5.99376 20.7585 5.78752L20.6362 5.90752C20.8863 6.16206 21.1636 6.19386 21.3525 6.17571C21.659 6.14631 21.9121 5.96842 21.9944 5.81632L21.8438 5.73487C21.7828 5.84707 21.5713 5.98251 21.336 6.00516Z" fill="black"/>
<path d="M20.066 6.16454C20.005 6.31619 19.9168 6.41398 19.8301 6.42613C19.7419 6.43858 19.6622 6.36313 19.6109 6.29759L19.4761 6.40318C19.6193 6.58633 19.7606 6.60913 19.8542 6.59593C19.9735 6.57898 20.0792 6.49348 20.1614 6.35473C20.3061 6.51313 20.5067 6.59488 20.7239 6.57223C20.979 6.54553 21.1944 6.38413 21.2729 6.16109L21.1112 6.10439C21.0548 6.26519 20.8956 6.38188 20.7062 6.40168C20.5055 6.42268 20.3277 6.33179 20.2187 6.15209L20.1299 6.006L20.066 6.16454ZM28.5398 1.99887C28.9213 2.12727 29.3882 2.20001 29.8899 2.20886C30.2865 2.21576 30.6882 2.18201 31.052 2.11107L31.0191 1.94292C30.6671 2.01162 30.2777 2.04432 29.8929 2.03757C29.4085 2.02902 28.9595 1.95942 28.5944 1.83643L28.5398 1.99887ZM28.4806 3.02814C27.9673 3.02154 27.4963 2.93349 27.2208 2.79265L27.1426 2.94519C27.4449 3.09969 27.9318 3.19238 28.4783 3.19958C29.0537 3.20693 29.6482 3.11949 30.1521 2.95329L30.0984 2.79055C29.6123 2.95104 29.0377 3.03534 28.4806 3.02814ZM26.486 4.24355C25.901 4.2521 25.3398 4.19255 24.9058 4.07601L24.8614 4.2416C25.3101 4.36205 25.8879 4.4237 26.4882 4.41515C27.363 4.4027 28.2037 4.247 28.8562 3.97716L28.7906 3.81876C28.1578 4.08051 27.3393 4.2314 26.486 4.24355ZM23.8849 4.86933C24.2224 5.19977 25.6137 5.38816 26.4461 5.29322L26.4267 5.12297C25.5909 5.21852 24.2782 5.01453 24.0049 4.74693L23.8849 4.86933ZM23.2395 5.22017C23.6222 5.51041 24.3965 5.9064 24.7885 5.89155L24.782 5.7204C24.4655 5.73225 23.7361 5.38171 23.3431 5.08352L23.2395 5.22017ZM22.5492 5.54191C22.9545 6.03269 23.7326 6.29819 24.4415 6.18749L24.415 6.0183C23.7629 6.12014 23.05 5.8794 22.6813 5.43286L22.5492 5.54191ZM23.1495 6.32249L23.232 6.45418C23.3172 6.59128 23.4138 6.74652 23.5009 6.85827L23.6359 6.75282C23.5546 6.64828 23.4606 6.49708 23.3776 6.36373L23.2939 6.22994L23.1495 6.32249ZM22.6303 6.43168L22.7109 6.60883C22.7626 6.72957 22.8117 6.84372 22.8724 6.91002L22.9986 6.79422C22.9576 6.74937 22.9122 6.64363 22.8684 6.54133L22.7826 6.35308L22.6303 6.43168ZM21.9834 6.54013L22.0426 6.69627C22.1106 6.88422 22.1377 6.95217 22.1659 6.98382L22.2967 6.87327C22.2795 6.84762 22.2321 6.71652 22.2039 6.63808L22.1377 6.46558L21.9834 6.54013ZM21.4113 7.11161L21.2231 6.75837L21.3746 6.67782L21.5627 7.03091L21.4113 7.11161ZM25.5789 2.5753C25.1474 2.5855 24.7628 2.35451 24.3175 2.08707L24.2293 2.23391C24.6974 2.51515 25.1019 2.75815 25.583 2.7466C25.9295 2.73835 26.3864 2.41271 26.5233 2.07672L26.3646 2.01207C26.2536 2.28431 25.857 2.56855 25.5789 2.5753Z" fill="black"/>
<path d="M23.397 2.593L23.4393 2.61685C23.9928 2.92764 24.7507 3.35333 25.4405 2.74989L25.3276 2.6209C24.7289 3.14453 24.0604 2.76909 23.5233 2.46745L23.4808 2.4436L23.397 2.593Z" fill="black"/>
<path d="M22.4155 2.84508C22.7593 3.07637 23.0307 3.25891 23.4386 3.27181C23.6921 3.27961 23.9602 3.26311 24.2045 2.97242L24.0733 2.86218C23.8778 3.09452 23.6726 3.10757 23.4439 3.10037C23.1019 3.08957 22.8778 2.94947 22.5111 2.70288L22.4155 2.84508Z" fill="black"/>
<path d="M21.7886 3.18925C21.9522 3.33789 22.4241 3.53784 22.8213 3.52584C23.0688 3.51834 23.2518 3.42699 23.3506 3.26184L23.2035 3.17395C23.1352 3.28809 23.005 3.34884 22.816 3.35454C22.4723 3.36504 22.0394 3.18565 21.9038 3.0625L21.7886 3.18925Z" fill="black"/>
<path d="M22.0988 3.74532C21.902 3.74532 21.6599 3.66387 21.3788 3.50353L21.2939 3.65232C21.6013 3.82767 21.872 3.91662 22.0987 3.91677C22.378 3.91692 22.5988 3.78177 22.7372 3.52618L22.5866 3.44458C22.477 3.64707 22.3172 3.74547 22.0988 3.74532Z" fill="black"/>
<path d="M21.7112 4.13068C21.5273 4.14718 21.3122 4.10398 21.1211 4.01218L21.0469 4.16653C21.2648 4.27137 21.5126 4.32042 21.7265 4.30122C22.007 4.27602 22.2197 4.13788 22.3413 3.90193L22.1889 3.82349C22.0943 4.00723 21.9338 4.11058 21.7112 4.13068Z" fill="black"/>
<path d="M21.2604 4.68439C21.0798 4.68589 20.8455 4.61734 20.5229 4.4687L20.4512 4.62439C20.7975 4.78384 21.0551 4.85749 21.2617 4.85569C21.6241 4.85269 21.8086 4.60879 21.9414 4.37075L21.7917 4.28735C21.6336 4.57129 21.4845 4.68259 21.2604 4.68439ZM20.6574 6.90522H20.8289V7.00407H20.6574V6.90522Z" fill="black"/>
<path d="M20.7698 5.09816C20.6053 5.11016 20.3984 5.05496 20.255 4.96061L20.0788 4.84466L20.1244 5.05076C20.1502 5.1679 20.1379 5.27245 20.0894 5.34475C20.0753 5.36682 20.0567 5.3857 20.0348 5.40022C20.013 5.41473 19.9884 5.42454 19.9625 5.42905C19.8728 5.4448 19.7705 5.40175 19.6664 5.30425L19.5493 5.4292C19.7326 5.60079 19.8911 5.61564 19.9922 5.59779C20.0408 5.58918 20.0872 5.57072 20.1284 5.54356C20.1696 5.5164 20.2048 5.48111 20.2319 5.43985C20.2802 5.36785 20.3044 5.27815 20.3069 5.18035C20.4581 5.24575 20.6315 5.27995 20.7824 5.26885C21.0217 5.2513 21.2045 5.12366 21.2972 4.90901L21.1399 4.84106C21.0716 4.99871 20.9471 5.08511 20.7698 5.09816ZM17.0081 8.3976C17.0136 8.65365 17.1035 8.87159 17.268 9.02773L17.3805 9.13438L17.415 8.96234C17.4326 8.87489 17.451 8.78969 17.5058 8.67794C17.5512 8.72069 17.5943 8.76659 17.6342 8.82179L17.7105 8.92769L17.8338 8.72009C17.9025 8.59845 17.9904 8.4513 18.153 8.34331C18.2614 8.40615 18.4062 8.54325 18.498 8.6316L18.6793 8.79869L18.726 8.69684C18.8176 8.5272 18.9189 8.43285 19.0449 8.33371L19.113 8.3742L19.2117 8.23411L19.0248 8.12341L18.9852 8.16211C18.8778 8.24446 18.7488 8.34886 18.6336 8.5239L18.6168 8.5083C18.4987 8.3946 18.3202 8.22286 18.1824 8.16301L18.1429 8.14591L18.1056 8.16721C17.8808 8.29621 17.7713 8.4831 17.6916 8.62395C17.6437 8.56875 17.5904 8.5185 17.5325 8.47395L17.4564 8.41665L17.4074 8.49825C17.3544 8.58437 17.313 8.67705 17.2841 8.77394C17.2188 8.66744 17.1822 8.541 17.1791 8.3937L17.1789 8.3718C17.1789 8.08276 17.2998 7.82282 17.3843 7.73552L17.2611 7.61643C17.1333 7.74917 17.001 8.06791 17.0081 8.3976Z" fill="black"/>
<path d="M12.733 10.9637C12.7194 10.8074 12.8361 10.508 13.0642 10.4231C13.0537 10.52 13.0574 10.652 13.1042 10.7385C12.9705 10.766 12.8259 10.871 12.733 10.9637Z" fill="#ECB731"/>
<path d="M13.0346 10.3428C12.7696 10.4413 12.6307 10.7752 12.6479 10.9711L12.6638 11.1541L12.7939 11.0245C12.8723 10.9464 13.0052 10.8465 13.1219 10.8225L13.235 10.7992L13.18 10.6977C13.1438 10.6308 13.1407 10.5166 13.1498 10.4322L13.1647 10.2942L13.0346 10.3428ZM12.9793 10.579C12.9821 10.6147 12.9886 10.6488 12.998 10.6855C12.9523 10.7032 12.9084 10.7252 12.8668 10.7511C12.8938 10.6888 12.929 10.6276 12.9793 10.579Z" fill="black"/>
<path d="M14.3596 11.7785C14.2153 11.714 14.0644 11.5337 14.1361 11.3123C14.2279 11.2952 14.3507 11.2844 14.4425 11.3184C14.4011 11.4714 14.3429 11.648 14.3596 11.7785Z" fill="#ECB731"/>
<path d="M14.1209 11.2278L14.0708 11.2371L14.0551 11.2857C13.9723 11.5412 14.1324 11.7707 14.325 11.8568L14.4644 11.919L14.4452 11.7675C14.4329 11.6727 14.4726 11.5317 14.5074 11.4074L14.547 11.2647L14.4729 11.2379C14.3606 11.1965 14.2196 11.2095 14.1209 11.2278ZM14.3354 11.3874C14.3141 11.4627 14.2974 11.5391 14.2853 11.6163C14.24 11.5667 14.2041 11.5023 14.2041 11.4246C14.2041 11.4138 14.2083 11.4018 14.2098 11.3906C14.2571 11.385 14.2983 11.384 14.3354 11.3874Z" fill="black"/>
<path d="M16.2286 10.4636C16.2077 10.271 15.9657 10.0897 15.7935 10.0921C15.8103 10.1878 15.7996 10.274 15.7975 10.3642C15.9459 10.379 16.1242 10.4206 16.2286 10.4636Z" fill="#ECB731"/>
<path d="M15.7923 10.0064L15.6916 10.0079L15.709 10.1072C15.7203 10.1705 15.7174 10.2314 15.7144 10.2959L15.7089 10.443L15.7891 10.4496C15.9272 10.4634 16.0984 10.5026 16.196 10.5429L16.3297 10.5981L16.3141 10.4544C16.288 10.2138 16.0004 10.0035 15.7923 10.0064ZM15.8886 10.2093C15.8886 10.2063 15.888 10.2029 15.8878 10.1999C15.9508 10.224 16.0118 10.2687 16.061 10.323C16.0032 10.3095 15.9449 10.2984 15.8862 10.2899C15.8874 10.2635 15.8886 10.2369 15.8886 10.2093ZM14.6181 9.43686L14.6229 9.60815L14.9266 9.6068L15.1153 9.60755L15.1141 9.43611L14.9278 9.43551L14.6181 9.43686ZM14.7207 9.31326L14.7177 9.14197L15.1602 9.13387L15.1633 9.30516L14.7207 9.31326ZM15.1705 8.83717L14.785 8.84482L14.7877 9.01612L15.2265 9.00727L15.304 8.88817C15.2812 8.83477 15.2442 8.83552 15.1705 8.83717ZM13.9004 10.1732C13.7723 10.2011 13.6403 10.214 13.5156 10.2389C13.5293 10.2528 13.5476 10.2621 13.566 10.2713L13.5788 10.4757C13.6683 10.5012 13.6518 10.3889 13.7412 10.3889L13.905 10.3383C13.9049 10.325 13.9041 10.2566 13.9004 10.1732ZM13.593 10.6827C13.6656 10.662 13.7414 10.6281 13.8353 10.5728C13.8346 10.566 13.8343 10.5592 13.8342 10.5524C13.7576 10.5524 13.6554 10.5779 13.6043 10.6163C13.6043 10.6308 13.6001 10.6548 13.593 10.6827ZM13.8377 10.5897C13.7189 10.6862 13.6323 10.7832 13.584 10.9217C13.6953 10.9203 13.8194 10.9218 13.8981 10.9611C13.9322 10.8591 13.8554 10.6965 13.8377 10.5897ZM14.2356 10.8528C14.2077 10.9517 14.1726 11.043 14.1519 11.141L14.3131 11.0721C14.3259 11.0211 14.4618 10.8483 14.5257 10.8483C14.4961 10.8185 14.3364 10.841 14.2356 10.8528ZM15.6766 10.0553C15.4698 10.008 15.4452 9.89494 15.1957 9.7694C15.226 10.0323 15.3543 10.2203 15.661 10.2203C15.672 10.1762 15.6757 10.1177 15.6766 10.0553Z" fill="black"/>
<path d="M18.301 8.34389C18.3148 8.83542 18.4038 9.61675 18.8418 9.92949C19.2118 10.1935 19.4994 10.1054 19.7642 10.343L19.742 10.6096C19.2753 10.4576 19.4532 10.5995 19.0774 10.4924C19.3623 10.6945 19.4526 10.7006 19.4868 11.0348C19.3753 11.0584 19.3219 11.1565 19.2463 11.2025C19.1112 11.0602 18.8649 10.9918 18.681 10.6864C18.7054 10.9252 18.7419 11.1488 18.7419 11.3786C18.6446 11.3616 18.545 11.3616 18.4477 11.3786C18.3616 11.1904 18.1602 10.7669 18.1602 10.5491C17.9033 10.5491 17.8923 10.2805 17.6507 10.2392C17.5415 10.2205 17.3789 10.3051 17.2338 10.2821C17.2203 10.1741 17.2328 10.0793 17.2328 9.98289C17.5017 9.89859 17.5806 9.7261 17.9036 9.5743C18.0193 9.31841 17.9193 8.98362 17.8365 8.55688C17.9073 8.40374 18.0171 8.33504 18.1456 8.23364C18.1818 8.24954 18.2652 8.31854 18.301 8.34389Z" fill="#ECB731"/>
<path d="M18.0928 8.1665L18.0423 8.20565C17.9326 8.28995 17.829 8.3696 17.7589 8.52109L17.7469 8.54659L17.7912 8.76454C17.8338 8.96958 17.8705 9.14732 17.8705 9.29867C17.8705 9.37847 17.8581 9.44956 17.833 9.51466C17.6926 9.58501 17.5957 9.65836 17.5117 9.72376C17.4127 9.80055 17.3347 9.8613 17.2072 9.9012L17.1487 9.9195L17.1445 10.0719L17.1504 10.3648L17.2206 10.3671C17.3137 10.3819 17.4061 10.3614 17.488 10.3432C17.5465 10.3303 17.6019 10.3182 17.6364 10.324C17.7208 10.3386 17.7667 10.3899 17.8249 10.4548C17.8852 10.5222 17.961 10.5996 18.085 10.6243C18.1108 10.8297 18.2321 11.115 18.352 11.3758L18.3976 11.4753L18.4633 11.4634C18.551 11.4481 18.6407 11.4482 18.7283 11.4637L18.8279 11.4797V11.379C18.8279 11.239 18.8141 11.1034 18.7984 10.9647C18.8767 11.0379 18.9554 11.0928 19.0249 11.1394C19.0889 11.1823 19.144 11.2194 19.1843 11.262L19.2394 11.3202L19.2913 11.2762L19.3825 11.2009C19.4227 11.1625 19.4573 11.1292 19.5047 11.1193L19.5802 11.1034L19.5722 11.0266C19.5502 10.809 19.4996 10.7092 19.3997 10.6198C19.451 10.6195 19.523 10.629 19.7156 10.6917L19.8186 10.7251L19.8536 10.3081L19.8218 10.2796C19.6738 10.1467 19.5232 10.1064 19.3637 10.0635C19.2163 10.0239 19.0639 9.9828 18.892 9.86025C18.5017 9.58186 18.4021 8.88093 18.3871 8.342L18.3859 8.30075L18.3113 8.24465L18.1282 8.12061L18.0928 8.1665ZM18.1466 8.3417L18.1495 8.3396C18.1723 8.35589 18.195 8.37219 18.2177 8.3885C18.238 8.96058 18.3553 9.68761 18.7924 9.99945C18.9895 10.1401 19.1647 10.1872 19.3193 10.2289C19.4515 10.2645 19.5668 10.2982 19.6753 10.3833L19.6658 10.4971C19.4831 10.4442 19.4168 10.4461 19.3562 10.4497C19.3067 10.4527 19.2599 10.4554 19.1015 10.4103L18.5981 10.2667L19.1455 10.6434C19.3141 10.7572 19.3654 10.8009 19.3924 10.9852C19.3456 11.0097 19.3025 11.0406 19.2643 11.077L19.2482 11.0907C19.2073 11.0575 19.1648 11.0263 19.1209 10.9971C19.001 10.9165 18.8651 10.8253 18.7552 10.6425L18.5527 10.306L18.6181 10.8889C18.634 11.0251 18.6467 11.1552 18.6521 11.2855C18.6018 11.2824 18.5513 11.2834 18.5011 11.2885C18.4139 11.0988 18.2465 10.7299 18.2465 10.5496V10.4637H18.1607C18.0678 10.4637 18.0235 10.4191 17.9532 10.3404C17.8891 10.2687 17.8093 10.1794 17.6658 10.1548C17.598 10.1433 17.5267 10.159 17.4514 10.1757C17.4064 10.1856 17.3616 10.1923 17.3184 10.1959L17.3164 10.0788L17.3175 10.0422C17.4402 9.99375 17.5278 9.92865 17.6173 9.85905C17.7057 9.79035 17.797 9.71941 17.9406 9.65206L17.9692 9.63871L17.9823 9.60991C18.0256 9.51466 18.0421 9.41087 18.0421 9.29927C18.0421 9.12767 18.0027 8.93718 17.9596 8.72974L17.9275 8.57134C17.9787 8.47339 18.0498 8.41625 18.1466 8.3417Z" fill="black"/>
<path d="M19.5302 11.5493C19.5938 11.4534 19.6346 11.1688 19.5166 11.0078C19.4434 11.0371 19.3081 11.138 19.2485 11.2057C19.3369 11.2922 19.4615 11.4216 19.5302 11.5493Z" fill="#ECB731"/>
<path d="M19.4848 10.928C19.3923 10.9651 19.2472 11.0771 19.1841 11.149L19.1304 11.21L19.1886 11.2669C19.2369 11.314 19.3834 11.4575 19.4548 11.5898L19.5228 11.7159L19.6018 11.5965C19.6873 11.4672 19.7247 11.1463 19.5858 10.957L19.5465 10.9036L19.4848 10.928ZM19.4781 11.1274C19.4953 11.1746 19.5061 11.2256 19.5061 11.2775C19.5061 11.3041 19.501 11.3267 19.498 11.3515C19.458 11.3014 19.4156 11.2533 19.371 11.2073C19.4046 11.1788 19.4427 11.1505 19.4781 11.1274Z" fill="black"/>
<path d="M20.1207 10.8743C20.1345 10.718 20.0177 10.4185 19.7896 10.3337C19.7861 10.426 19.7782 10.5125 19.7495 10.6051C19.8772 10.6571 20.0231 10.7996 20.1207 10.8743Z" fill="#ECB731"/>
<path d="M19.7036 10.3303C19.7001 10.4209 19.6925 10.498 19.6673 10.5796L19.644 10.6545L19.7168 10.6842C19.7981 10.7175 19.8983 10.8015 19.9788 10.869L20.1941 11.0448L20.2061 10.8816C20.2232 10.6856 20.0844 10.3517 19.8194 10.2532L19.7084 10.2119L19.7036 10.3303ZM19.863 10.4822C19.9146 10.5303 19.9556 10.5886 19.9835 10.6534C19.9399 10.6199 19.8938 10.5897 19.8456 10.5631C19.8516 10.5361 19.8596 10.5082 19.863 10.4822Z" fill="black"/>
<path d="M18.5273 11.8119C18.6717 11.7474 18.8225 11.5673 18.7508 11.3457C18.659 11.3286 18.536 11.3178 18.4443 11.3519C18.4857 11.5052 18.5441 11.6816 18.5273 11.8119Z" fill="#ECB731"/>
<path d="M18.4149 11.2713L18.3408 11.2986L18.3801 11.4408C18.4151 11.5653 18.4547 11.7064 18.4425 11.8011L18.4232 11.9526L18.5627 11.8903C18.7554 11.8042 18.9155 11.5749 18.8327 11.3193L18.8171 11.2707L18.7668 11.2614C18.6683 11.243 18.5271 11.2299 18.4149 11.2713ZM18.6779 11.4242C18.6794 11.4354 18.6834 11.4474 18.6834 11.4582C18.6834 11.5359 18.6476 11.6002 18.6023 11.6499C18.5902 11.5726 18.5735 11.4962 18.5522 11.421C18.5894 11.4175 18.6306 11.4185 18.6779 11.4242Z" fill="black"/>
<path d="M16.86 10.4518C16.8464 10.2592 17.0477 10.0018 17.2391 10.0042C17.2223 10.0999 17.2329 10.1863 17.235 10.2763C17.0867 10.3133 16.9644 10.3916 16.86 10.4518Z" fill="#ECB731"/>
<path d="M16.9347 10.0682C16.827 10.1824 16.7655 10.3316 16.7743 10.4577L16.7841 10.5951L16.9413 10.5036C17.0329 10.4499 17.1369 10.3892 17.2558 10.3595L17.3233 10.3427L17.3182 10.2079C17.3152 10.1434 17.3124 10.0825 17.3235 10.0192L17.3412 9.91971L17.2402 9.91836C17.1357 9.91686 17.0272 9.97011 16.9347 10.0682ZM17.0593 10.1858C17.0863 10.1573 17.1154 10.1354 17.1441 10.1189V10.1212C17.1441 10.1534 17.1456 10.1848 17.1469 10.2155V10.2179C17.0944 10.2359 17.0431 10.2539 16.9974 10.277C17.0154 10.2455 17.0335 10.2133 17.0593 10.1858ZM18.1667 9.34763L17.9476 9.35078L17.9465 9.52207L18.1708 9.51907L18.4624 9.51697L18.467 9.34553L18.1667 9.34763ZM17.9837 9.27758L17.9786 9.10629L18.4067 9.09354L18.4118 9.26498L17.9837 9.27758ZM17.8727 8.87214L17.9398 9.01869C17.972 9.01614 18.277 8.99424 18.3499 8.99544L18.3526 8.824C18.3484 8.824 17.9243 8.82145 17.8727 8.87214ZM19.1081 10.1248C19.2362 10.1527 19.3883 10.1816 19.5129 10.2064C19.425 10.2966 19.4282 10.1936 19.4177 10.3626C19.3281 10.3881 19.3406 10.3283 19.2512 10.3283L19.0876 10.2778C19.0874 10.2644 19.1044 10.208 19.1081 10.1248ZM19.0858 10.5048C19.2045 10.6014 19.4001 10.7831 19.4486 10.9215C19.3373 10.9202 19.2374 10.8854 19.1588 10.9247C19.1815 10.6821 19.0076 10.7163 19.0858 10.5048ZM18.6182 10.8639C18.6461 10.9626 18.6812 11.0541 18.7019 11.1519L18.5407 11.0832C18.5281 11.0321 18.4589 10.8593 18.3952 10.8593C18.4247 10.8297 18.5176 10.8521 18.6182 10.8639ZM17.3839 9.93486C17.5908 9.88761 17.6155 9.77452 17.8649 9.64897C17.8346 9.91191 17.7062 10.0999 17.3997 10.0999C17.3887 10.0559 17.3848 9.99726 17.3839 9.93486ZM15.7556 13.1488L15.8132 13.1527C15.8796 13.1574 15.924 13.1676 15.9461 13.1829C15.9681 13.1982 15.9779 13.2232 15.9755 13.2574C15.9732 13.29 15.9593 13.3122 15.9338 13.3237C15.9083 13.3354 15.8624 13.3389 15.7964 13.3342L15.7428 13.3305L15.7556 13.1488ZM15.734 13.8709C15.846 13.8787 15.927 13.8809 15.9769 13.8776C16.0267 13.8743 16.069 13.8656 16.1038 13.8514C16.1464 13.8346 16.1802 13.8086 16.2049 13.7738C16.2297 13.739 16.2438 13.6978 16.2471 13.6501C16.2517 13.5832 16.2357 13.5284 16.1991 13.486C16.1623 13.4434 16.1092 13.4173 16.0396 13.4074C16.1029 13.3965 16.1499 13.377 16.1805 13.3488C16.2111 13.3206 16.228 13.281 16.2318 13.2297C16.2351 13.192 16.2278 13.1543 16.2106 13.1206C16.1926 13.0873 16.1656 13.0597 16.1326 13.041C16.0978 13.0214 16.0602 13.0075 16.021 12.9996C15.9772 12.99 15.8999 12.9813 15.7886 12.9735L15.5183 12.9546L15.4556 13.8512L15.734 13.8709ZM15.7316 13.491L15.8294 13.4977C15.8951 13.5023 15.9395 13.5128 15.9627 13.5295C15.9859 13.546 15.9963 13.5733 15.9936 13.6111C15.9912 13.6448 15.9764 13.6681 15.9488 13.681C15.9212 13.6937 15.8756 13.6979 15.8117 13.6934L15.7179 13.687L15.7316 13.491Z" fill="black"/>
</svg>
