<svg width="25" height="32" viewBox="0 0 25 32" fill="none" xmlns="http://www.w3.org/2000/svg">
<path d="M10.4902 30.2474C8.81444 29.4436 8.01938 29.2983 6.76258 28.8111C2.48792 27.0499 0.196624 24.4338 0.316341 19.5179C0.931899 14.5252 2.98376 12.2853 2.06042 9.13063C1.74408 7.94232 1.02593 6.70264 0 5.81355C1.9407 4.1976 3.35132 2.85548 4.53978 0C7.06179 2.01761 9.84893 0.606996 12.1829 0.564186C14.5083 0.606846 17.2954 2.02617 19.8261 0.00856193C21.0144 2.85548 22.4166 4.1976 24.3743 5.81355C23.3314 6.70264 22.6131 7.94232 22.3139 9.14775C21.3734 12.2768 23.4253 14.5252 24.0494 19.5181C24.1606 24.434 21.8693 27.05 17.6203 28.8196C16.3465 29.307 15.5428 29.4437 13.8756 30.2645C12.9267 30.7433 12.4648 31.4442 12.1827 32C11.9093 31.4357 11.4392 30.7432 10.4902 30.2474Z" fill="black"/>
<path d="M8.48074 29.1871C6.86494 28.7598 5.82188 28.2295 4.69336 27.5799V0.410306C5.71073 0.983055 6.42032 1.37645 8.48074 1.27386V10.473C8.60045 10.319 8.72017 10.131 8.87399 9.8403C9.9256 10.7722 10.8234 10.2592 12.1826 10.1994C13.5335 10.2592 14.4311 10.7808 15.4827 9.8403C15.6025 10.1395 15.7307 10.3534 15.8676 10.4815V1.27371C17.9194 1.38486 18.7231 0.991617 19.655 0.410156V27.5799C18.5264 28.2126 17.4919 28.7598 15.859 29.1957V20.4669C14.9187 21.0995 14.5765 21.1081 13.4738 21.433C12.824 21.6809 12.4565 21.9203 12.1742 22.3992C11.9007 21.9117 11.533 21.6639 10.8833 21.433C9.76338 21.0995 9.41279 21.0569 8.48089 20.4583V29.1871H8.48074Z" fill="white"/>
<path d="M18.2968 8.28417L17.9719 6.56577C17.9462 6.00159 17.399 5.87331 17.1339 6.45462V8.48935C17.1596 8.64317 17.1938 8.71151 17.3135 8.82267H15.9284C16.0653 8.67742 16.091 8.69454 16.1081 8.47223V3.59058C16.091 3.4623 16.0483 3.41107 15.9284 3.30848H17.3135C17.2366 3.39395 17.1597 3.45388 17.1339 3.59058V5.81337L18.8096 3.61626C18.8694 3.51367 18.8524 3.3941 18.6899 3.29136H19.656C19.5877 3.32561 19.4082 3.3941 19.2799 3.56504L17.9121 5.41171C18.3396 5.3689 18.6303 5.32624 18.8353 5.88187C19.1945 7.54904 19.1859 8.97678 19.716 8.06186C19.4596 9.29297 18.3823 8.89116 18.2968 8.28417ZM4.6626 8.79593C4.89572 8.64437 4.96737 8.58549 4.98525 8.33283V3.61776C4.98525 3.4662 4.89572 3.34844 4.72539 3.26417C6.55388 3.26417 7.21721 3.19673 7.77298 3.76932C8.32876 4.35033 8.15842 5.08291 7.47722 5.68059C8.62452 6.18574 8.56188 7.92021 7.83577 8.40013C7.12768 8.83799 6.91258 8.79593 4.6626 8.79593Z" fill="black"/>
<path d="M10.148 8.27566C9.71193 7.62871 9.84877 6.92919 10.3189 6.62336C10.7122 6.39609 11.3449 6.42223 11.3449 7.2616C11.3363 7.73371 10.8574 7.89113 10.5926 7.67257C10.1992 8.27581 11.1825 9.00147 12.4991 8.07468V3.57216C12.0801 3.58958 11.6869 3.58958 11.2594 3.65087L11.4132 3.32732C12.1399 3.32732 12.9778 3.32732 13.7643 3.3186C13.6788 3.43231 13.5848 3.49345 13.542 3.66829L13.5505 8.20567C11.7724 8.83504 10.9259 9.14102 10.148 8.27566ZM5.96826 5.52278V3.47092C6.68551 3.47092 7.107 3.82135 7.11601 4.47131C7.09799 5.18931 6.73042 5.53975 5.96826 5.52278ZM5.97667 8.4125V5.83912C7.09318 5.84768 7.41733 6.53158 7.42619 7.19851C7.41718 7.96788 6.93095 8.42963 5.97667 8.4125Z" fill="white"/>
<path d="M6.45244 27.2884V26.927C6.74685 26.9181 6.8161 26.9445 6.8161 26.7684V24.1858L6.40918 24.1769C6.82496 23.8597 7.07596 23.6305 7.61296 23.1458V26.7859C7.60425 26.9445 7.73418 26.927 8.0026 26.927V27.2884H6.45244Z" fill="black"/>
<path d="M15.3382 25.2924C15.3406 22.5338 12.4921 22.5327 12.4927 25.2915C12.4903 28.05 15.3387 28.0514 15.3382 25.2928V25.2924Z" fill="white"/>
<path d="M14.5599 25.2922C14.5584 27.7595 13.2622 27.7589 13.2622 25.2917C13.2637 22.8244 14.5599 22.8245 14.5599 25.2919V25.2922ZM16.9874 24.8382H17.0718C17.3616 24.8382 17.5828 24.7906 17.7197 24.6598C17.8726 24.5447 17.9571 24.3622 17.9571 24.1323C17.9571 23.9179 17.8887 23.7554 17.7882 23.6403C17.6836 23.5054 17.5307 23.4578 17.3254 23.4578C17.2087 23.4578 17.0879 23.4736 16.9874 23.5253C16.8666 23.5729 16.8144 23.6046 16.8144 23.6403C16.8144 23.6562 16.8506 23.6879 16.9351 23.7713C17.0035 23.8348 17.0356 23.934 17.0356 24.0173C17.0356 24.1324 17.0035 24.2156 16.9351 24.2792C16.8506 24.3466 16.7661 24.3783 16.6454 24.3783C16.5248 24.3783 16.4241 24.3466 16.3556 24.2632C16.2712 24.1799 16.2349 24.065 16.2349 23.934C16.2349 23.7198 16.3395 23.5412 16.5608 23.3904C16.7822 23.2436 17.0518 23.1604 17.3776 23.1604C17.7357 23.1604 18.0253 23.2595 18.2628 23.442C18.5003 23.6403 18.6209 23.8704 18.6209 24.1482C18.6209 24.3624 18.5524 24.5449 18.3995 24.6918C18.2627 24.8226 18.0414 24.9536 17.7517 25.021C18.0575 25.1044 18.3149 25.2352 18.4839 25.4296C18.6529 25.6121 18.7415 25.8582 18.7415 26.1398C18.7415 26.485 18.6208 26.7626 18.3633 26.9769C18.1098 27.1911 17.7879 27.2903 17.3775 27.2903C17.0355 27.2903 16.7658 27.207 16.5405 27.0601C16.303 26.8936 16.2026 26.6992 16.2026 26.4492C16.2026 26.3025 16.2347 26.1874 16.3193 26.0883C16.4077 25.9891 16.5245 25.9415 16.6613 25.9415C16.7658 25.9415 16.8665 25.9732 16.935 26.0407C17.0033 26.1042 17.0355 26.2033 17.0355 26.3025C17.0355 26.4175 16.9872 26.5326 16.8986 26.6158L16.7658 26.7468C16.7658 26.7983 16.8303 26.8459 16.9509 26.8776C17.0717 26.9293 17.2084 26.961 17.3775 26.961C17.5827 26.961 17.7677 26.8936 17.8884 26.7468C18.0091 26.5999 18.0734 26.4016 18.0734 26.1557C18.0734 25.8424 17.989 25.5963 17.82 25.4298C17.6671 25.2671 17.4096 25.1839 17.1037 25.1839C17.0876 25.1839 17.0715 25.1996 17.0352 25.1996H16.9869V24.8382H16.9874Z" fill="black"/>
<path d="M11.006 25.4703C10.9042 25.5854 10.7906 25.6647 10.6576 25.7322C10.5401 25.7837 10.3912 25.8155 10.2424 25.8155C9.90966 25.8155 9.66287 25.6845 9.44747 25.4546C9.24769 25.2045 9.1499 24.8952 9.1499 24.4985C9.1499 24.1057 9.24769 23.7924 9.47886 23.5463C9.69426 23.3003 9.99183 23.1655 10.3403 23.1655C10.7553 23.1655 11.0882 23.3321 11.3348 23.6614C11.5698 23.9747 11.6991 24.4151 11.6991 24.9943C11.6991 25.6649 11.5502 26.2242 11.2683 26.6526C10.9864 27.0812 10.6065 27.2954 10.1601 27.2954C9.90951 27.2954 9.69411 27.2279 9.51401 27.0812C9.34563 26.9502 9.24769 26.7836 9.24769 26.5893C9.24769 26.4386 9.29861 26.3234 9.36515 26.2441C9.44747 26.1609 9.54525 26.1093 9.66272 26.1093C9.77628 26.1093 9.8625 26.1449 9.92498 26.2085C10.0112 26.2759 10.0426 26.3591 10.0426 26.4544C10.0426 26.5377 10.0112 26.6209 9.94466 26.6845C9.89389 26.7519 9.86249 26.7836 9.86249 26.8034C9.86249 26.8511 9.89374 26.8828 9.97605 26.9344C10.0426 26.9661 10.1248 26.9978 10.2266 26.9978C10.4576 26.9978 10.6418 26.8511 10.7905 26.5893C10.9197 26.3076 11.0059 25.9467 11.0059 25.4864L11.006 25.4703Z" fill="white"/>
<path d="M10.4424 23.4946C10.227 23.4946 10.0783 23.578 9.96072 23.7605C9.86293 23.9232 9.81201 24.1691 9.81201 24.4985C9.81201 24.8118 9.86293 25.0579 9.97649 25.2404C10.0783 25.403 10.2427 25.4863 10.4582 25.4863C10.6736 25.4863 10.8225 25.4029 10.9203 25.2563C11.0221 25.1094 11.073 24.8596 11.073 24.55C11.073 24.205 11.0222 23.9549 10.9046 23.7764C10.8065 23.5938 10.6422 23.4946 10.4424 23.4946Z" fill="black"/>
<path d="M11.467 21.4007C10.7612 21.1042 10.4264 21.0507 9.89691 20.8709C8.09635 20.2214 7.13111 19.2566 7.18158 17.4436C7.44099 15.6022 8.30514 14.7762 7.91625 13.6127C7.78301 13.1743 7.48049 12.7173 7.04834 12.3892C7.86593 11.7933 8.46001 11.2982 8.96065 10.2451C10.0231 10.9893 11.197 10.4689 12.1801 10.4533C13.1596 10.4689 14.3336 10.9924 15.3995 10.2484C15.9002 11.2984 16.4908 11.7933 17.3153 12.3892C16.8759 12.7171 16.5734 13.1743 16.4474 13.619C16.0513 14.773 16.9156 15.6022 17.1785 17.4436C17.2253 19.2566 16.2602 20.2214 14.4703 20.8741C13.9338 21.0537 13.5952 21.1042 12.8931 21.4069C12.4933 21.5835 12.2989 21.842 12.1801 22.0469C12.0649 21.8389 11.8668 21.5835 11.467 21.4007Z" fill="#CD3529"/>
<path d="M12.0884 20.2789C10.7546 20.2446 9.15597 19.3129 8.87388 17.4833C8.72006 16.4574 9.05338 15.1922 10.2675 14.2176C10.0966 14.4312 9.86571 14.6535 9.72031 15.1153C9.47246 15.8591 9.53224 16.4745 9.77168 17.0817C10.3018 18.0733 11.0797 18.6889 12.1142 18.723C13.6701 18.6291 14.3968 17.5004 14.5763 16.9534C14.7217 16.526 14.9611 15.8932 14.4566 14.8246C14.2942 14.4912 14.0291 14.2176 14.0291 14.2176C14.7472 14.7135 15.5508 15.7649 15.4398 17.3295C15.3369 18.8083 13.9863 20.2189 12.0884 20.2789ZM12.1659 14.0297L11.927 13.2688H11.1483L11.7588 12.7556L11.52 11.9417L12.1836 12.4106L12.8119 11.9594L12.5818 12.7469L13.2013 13.2689H12.4226L12.1659 14.0297Z" fill="white"/>
</svg>
