<svg width="32" height="33" viewBox="0 0 32 33" fill="none" xmlns="http://www.w3.org/2000/svg">
<path d="M0 16.0076C0 7.16767 7.16262 -0.000164032 16.0026 -0.000164032C24.8426 -0.000164032 32 7.16767 32 16.0076C32 24.8476 24.8374 32.0103 15.9974 32.0103C7.15741 32.0103 0 24.8424 0 16.0076Z" fill="#FDE100"/>
<path d="M16.0006 0.761396C7.58779 0.761396 0.774178 7.59584 0.774178 16.0087C0.774178 24.4215 7.58779 31.2351 16.0006 31.2351C24.4134 31.2351 31.2271 24.4215 31.2271 16.0087C31.2271 7.59584 24.4187 0.761396 16.0006 0.761396ZM16.0006 1.6157C23.9446 1.6157 30.378 8.06467 30.378 16.0087C30.378 23.9527 23.9498 30.386 16.0006 30.386C8.05661 30.386 1.60765 23.9579 1.60765 16.0087C1.60765 8.05946 8.05661 1.6157 16.0006 1.6157ZM11.2342 3.939L15.1515 16.0503H16.8393L20.6993 3.939H18.3447L15.9902 12.0236L13.6513 3.939H11.2342ZM5.18114 9.8983V21.843H8.93176C11.9687 21.843 13.5106 18.1653 11.3957 15.8993V15.8836C11.3957 15.8732 11.4113 15.868 11.4113 15.868C13.1668 13.8885 12.4271 10.3932 9.16096 9.90351H5.18114V9.8983ZM20.6993 9.8983V21.843H24.4707C27.5077 21.843 29.0496 18.1653 26.9347 15.8993V15.8836C26.9347 15.8732 26.9503 15.868 26.9503 15.868C28.7058 13.8885 27.9661 10.3932 24.6999 9.90351H20.6993V9.8983ZM7.37421 12.133H9.22347C10.4216 12.133 10.6664 14.4303 9.2964 14.8001H7.37421V12.133ZM22.9288 12.133H24.7572C25.9554 12.133 26.2054 14.4303 24.8302 14.8001H22.9288V12.133ZM7.37421 16.9359H9.00468C10.3591 16.9359 10.8539 19.3998 9.09324 19.7437H7.369V16.9359H7.37421ZM22.9288 16.9359H24.5437C25.8981 16.9359 26.3929 19.3998 24.6322 19.7437H22.9288V16.9359ZM13.6461 22.1034C12.6772 22.1034 11.8854 22.8952 11.8854 23.8641V26.5104C11.8854 27.4793 12.6772 28.2711 13.6461 28.2711H13.6825C14.6514 28.2711 15.4432 27.4793 15.4432 26.5104V23.8641C15.4432 22.8952 14.6514 22.1034 13.6825 22.1034H13.6461ZM18.3031 22.1034C17.3342 22.1034 16.5059 22.8587 16.5059 23.8277V24.2652C16.5059 25.2341 17.3915 26.0155 18.3031 26.0416C18.3031 26.0416 18.6729 26.0363 18.8657 25.9322L18.8813 26.5312C18.8813 26.8333 18.6365 27.099 18.3395 27.0938C18.0947 27.0886 17.7613 26.9636 17.7613 26.6562C17.7613 26.6562 17.8134 26.2551 17.5269 26.2551H16.5111C16.5059 26.3541 16.5111 26.4114 16.5111 26.5468C16.5111 27.4637 17.2977 28.2711 18.3604 28.2711C19.3657 28.2607 20.0638 27.4897 20.0638 26.4948V23.8485C20.0638 22.8796 19.3084 22.1086 18.3395 22.1086H18.3031V22.1034ZM18.3239 23.3536C18.6417 23.3536 18.8865 23.5932 18.8865 23.8954V24.2392C18.8865 24.5413 18.6469 24.7809 18.3447 24.7809C18.027 24.7809 17.7665 24.5413 17.7665 24.2392V23.8954C17.7613 23.5932 18.0218 23.3536 18.3239 23.3536ZM13.6461 23.3692C13.969 23.3692 14.2243 23.6089 14.2243 23.911V26.5416C14.2243 26.8438 13.9638 27.0834 13.6617 27.0834C13.3439 27.0834 13.0991 26.8438 13.0991 26.5416V23.911C13.1043 23.6089 13.3439 23.3692 13.6461 23.3692Z" fill="#231F20"/>
</svg>
