<svg width="32" height="32" viewBox="0 0 32 32" fill="none" xmlns="http://www.w3.org/2000/svg">
<path d="M32.0002 16C32.0002 24.8374 24.8364 32 16.0003 32C7.16332 32.0002 0 24.8373 0 16C0 7.16378 7.16332 0 16 0C24.8364 0 32.0002 7.16378 32.0002 16Z" fill="#DBA111"/>
<path d="M31.4662 16C31.4662 24.542 24.5419 31.4662 15.9998 31.4662C7.45761 31.4662 0.533203 24.5422 0.533203 16C0.533203 7.45785 7.45776 0.533447 15.9999 0.533447C24.5418 0.533447 31.4662 7.45785 31.4662 16Z" fill="#034694"/>
<path d="M27.0217 16C27.0217 22.0874 22.0869 27.0212 15.9998 27.0212C9.91221 27.0212 4.97754 22.0873 4.97754 16C4.97754 9.91215 9.91237 4.97778 15.9998 4.97778C22.087 4.97763 27.0217 9.91231 27.0217 16Z" fill="#DBA111"/>
<path d="M26.6883 16C26.6883 21.9033 21.9023 26.6884 15.9998 26.6884C10.0966 26.6884 5.31152 21.9032 5.31152 16C5.31152 10.097 10.0968 5.31152 15.9998 5.31152C21.9024 5.31168 26.6883 10.097 26.6883 16Z" fill="white"/>
<path d="M6.84146 25.2213C6.95955 25.3341 7.25071 25.6113 7.25071 25.6113L7.52966 25.3175L6.69772 24.5247L6.59063 24.6366L5.47363 25.8077L5.89755 26.2116C5.89755 26.2116 6.25593 25.836 6.38684 25.6991L6.75928 26.0537L7.03838 25.7607L6.6664 25.4055C6.73591 25.332 6.77119 25.295 6.84146 25.2213ZM8.84769 26.5585C8.81011 26.3338 8.68393 26.1354 8.49328 26.0002C8.40141 25.9339 8.29737 25.8864 8.18711 25.8605C8.07685 25.8345 7.96255 25.8305 7.85076 25.8488C7.60894 25.8899 7.39156 26.0307 7.23849 26.2452C7.08588 26.4608 7.02432 26.7122 7.06541 26.955C7.1033 27.1789 7.22826 27.376 7.4186 27.5116C7.60894 27.647 7.83854 27.701 8.06295 27.6633C8.30477 27.6224 8.52215 27.4815 8.67461 27.2663C8.79667 27.0961 8.86037 26.9007 8.86037 26.7056C8.86037 26.6569 8.85624 26.607 8.84769 26.5585ZM7.65309 27.1806C7.45893 27.0431 7.61918 26.7556 7.73268 26.5975C7.84542 26.4382 8.06463 26.1919 8.25879 26.3292C8.46166 26.4742 8.27208 26.7878 8.18119 26.9152C8.08968 27.0437 7.85642 27.3257 7.65309 27.1806ZM10.1553 27.0026C9.70759 26.7762 9.19003 26.9617 8.95203 27.4331C8.83302 27.6687 8.80965 27.9271 8.88634 28.1601C8.95722 28.3763 9.1109 28.5528 9.31927 28.6576C9.42016 28.7098 9.53042 28.7414 9.64364 28.7506C9.75685 28.7598 9.87076 28.7463 9.97874 28.7111C10.2112 28.6355 10.4054 28.4635 10.5236 28.2281C10.7626 27.7554 10.6038 27.229 10.1553 27.0026ZM9.66023 28.3125C9.60768 28.3297 9.55788 28.3243 9.50151 28.2964C9.4126 28.251 9.38144 28.1702 9.38144 28.0799C9.38144 27.9551 9.44163 27.8078 9.4925 27.7073C9.58079 27.5325 9.76014 27.257 9.97309 27.3644C10.0292 27.3931 10.0628 27.4302 10.0797 27.4821C10.1153 27.5895 10.0796 27.7661 9.98363 27.9552C9.888 28.1434 9.76716 28.2771 9.66023 28.3125ZM11.0798 27.6508L10.9974 27.887C10.9974 27.887 11.208 27.9609 11.272 27.982L10.8197 29.2737L11.3715 29.4673C11.3715 29.4673 11.7439 28.4074 11.8243 28.1766L12.0995 28.2724L12.2332 27.8914L11.131 27.5047L11.0798 27.6508ZM13.3716 28.1628L12.6255 28.0055L12.5936 28.157L12.2602 29.74L13.0193 29.9011C13.2619 29.9512 13.4217 29.8917 13.5127 29.8328C13.6284 29.7575 13.7095 29.6335 13.7407 29.4858C13.7492 29.4454 13.7533 29.4065 13.7533 29.3681C13.7533 29.2614 13.7193 29.165 13.6582 29.0822C13.7437 29.0143 13.8047 28.9186 13.83 28.7989C13.8364 28.7679 13.8401 28.7329 13.8401 28.6966C13.8406 28.4937 13.7248 28.2366 13.3716 28.1628ZM13.1661 29.3715C13.1582 29.4077 13.1438 29.4555 13.1163 29.4734C13.091 29.4897 13.0425 29.4919 12.9794 29.4783C12.9794 29.4783 12.9507 29.4719 12.9168 29.4653C12.941 29.351 12.9573 29.275 12.9808 29.1607C13.0132 29.1683 13.0548 29.1766 13.0548 29.1766C13.1527 29.1972 13.1715 29.2695 13.1715 29.322C13.1715 29.3432 13.1689 29.3611 13.1661 29.3715ZM13.1153 28.5243C13.1809 28.5392 13.2289 28.5631 13.2474 28.5912C13.2565 28.607 13.2609 28.6252 13.2601 28.6434C13.2601 28.6563 13.2584 28.6712 13.255 28.6891C13.2451 28.7355 13.2315 28.7999 13.1023 28.7734C13.1023 28.7734 13.0864 28.7693 13.0641 28.7644C13.0845 28.6683 13.0943 28.6207 13.1153 28.5243ZM14.7486 28.4207L13.9383 30.0795L14.4009 30.115L14.5761 29.7455C14.674 29.7536 14.7721 29.7604 14.868 29.7681L14.9944 30.1599L15.6097 30.2077L14.922 28.0758L14.7486 28.4207ZM16.5753 29.745L16.5186 28.3989L15.934 28.4235L16.008 30.195L17.1795 30.1465L17.1619 29.7213C17.1619 29.7212 16.7434 29.7389 16.5753 29.745ZM18.179 29.5754C18.1411 29.3357 17.9702 28.2444 17.9702 28.2444L17.817 28.2689L17.3917 28.3352L17.6662 30.0876L18.825 29.9057L18.7587 29.4853C18.7587 29.485 18.3452 29.5501 18.179 29.5754ZM21.5338 28.3969C21.5291 28.5487 21.4396 28.6796 21.2999 28.7348C21.2225 28.7656 21.1487 28.7656 21.0745 28.7342C20.961 28.6856 20.8554 28.5625 20.7922 28.4044C20.7181 28.2178 20.7026 28.0593 20.7514 27.9482C20.785 27.87 20.8505 27.8118 20.9512 27.7718C21.0603 27.7285 21.1635 27.7684 21.305 27.8515L21.4348 27.9282L21.6507 27.5878L21.5225 27.5037C21.2873 27.3488 20.9959 27.3175 20.7437 27.418C20.5099 27.5112 20.3284 27.6856 20.2324 27.9088C20.1351 28.1349 20.1351 28.3941 20.2341 28.6395C20.4203 29.1049 20.9463 29.3344 21.4064 29.15C21.739 29.0174 21.927 28.7649 21.9509 28.4198L21.9617 28.2658L21.5384 28.2345L21.5338 28.3969ZM22.8984 27.9129C22.7787 27.7001 22.2405 26.735 22.2405 26.735L22.1059 26.811L21.7294 27.0213L22.5946 28.5692L23.6172 27.9979L23.4103 27.6262C23.4105 27.6262 23.0445 27.8303 22.8984 27.9129ZM24.0362 25.5257L23.911 25.6174L23.6913 25.7791L24.4094 26.7579C24.4423 26.802 24.4423 26.8315 24.439 26.8489C24.4322 26.8995 24.3796 26.954 24.3333 26.9876C24.2965 27.0117 24.2523 27.0219 24.2087 27.0164C24.1717 27.011 24.1424 26.9907 24.1164 26.9557L23.4067 25.9881L22.9337 26.3343L23.6399 27.2973C23.7447 27.44 23.8747 27.524 24.0266 27.5474C24.1969 27.5739 24.3908 27.516 24.5707 27.383C24.941 27.1124 24.9349 26.7528 24.7733 26.5326L24.0362 25.5257ZM26.1906 25.1698C26.0815 25.057 25.9473 25.0062 25.8064 25.0138C25.7986 24.9002 25.7505 24.7932 25.6709 24.7118C25.5229 24.5592 25.1923 24.4403 24.8879 24.7364L24.3402 25.2662L25.5742 26.54L26.1312 26.0002C26.3093 25.8276 26.3484 25.6604 26.3504 25.5526C26.3535 25.414 26.2966 25.2787 26.1906 25.1698ZM25.2585 25.1267C25.2768 25.1464 25.2996 25.1693 25.2996 25.2011C25.2996 25.2272 25.2852 25.2594 25.2426 25.3002L25.2152 25.3277C25.1462 25.2559 25.1133 25.2225 25.0432 25.1502C25.1667 25.0372 25.218 25.0856 25.2585 25.1267ZM25.5507 25.5654C25.6506 25.469 25.747 25.5538 25.7745 25.5825C25.8011 25.6093 25.8312 25.6468 25.8312 25.6794V25.6806C25.8306 25.7107 25.8052 25.7526 25.7592 25.797C25.7592 25.797 25.7378 25.8178 25.7125 25.8415C25.6321 25.7581 25.5773 25.702 25.4966 25.619C25.5205 25.5949 25.5507 25.5654 25.5507 25.5654Z" fill="#DBA111"/>
<path d="M6.83801 25.0568C6.88628 25.1032 7.24665 25.447 7.24665 25.447L7.3655 25.3217L6.70159 24.6885L6.6747 24.7166L5.63867 25.8035L5.89394 26.0473C5.89394 26.0473 6.33542 25.5846 6.38293 25.534L6.75582 25.8892L6.87482 25.7644L6.50178 25.4095C6.54516 25.364 6.79539 25.1013 6.83801 25.0568ZM8.42597 26.0945C8.26144 25.9772 8.06453 25.9306 7.87114 25.963C7.65895 25.9993 7.46861 26.1234 7.33387 26.3128C7.19883 26.503 7.1446 26.7234 7.18065 26.9347C7.21304 27.1287 7.32196 27.2998 7.48664 27.4162C7.56627 27.4738 7.65653 27.5151 7.75221 27.5376C7.84789 27.5602 7.94709 27.5635 8.04406 27.5474C8.25503 27.5121 8.44568 27.3876 8.58011 27.1994C8.68765 27.0474 8.74448 26.8756 8.74448 26.7053C8.74448 26.6629 8.74081 26.6196 8.73394 26.5772C8.70109 26.3838 8.59187 26.2123 8.42597 26.0945ZM8.27611 26.9828C8.16475 27.1386 7.87496 27.4808 7.58654 27.2755C7.29889 27.0716 7.52712 26.6859 7.63818 26.529C7.74939 26.3724 8.03933 26.0305 8.32637 26.2346C8.61494 26.4407 8.38732 26.8265 8.27611 26.9828ZM10.1035 27.1067C9.71498 26.9104 9.26494 27.0737 9.05642 27.4863C8.95132 27.6938 8.93054 27.9196 8.99715 28.1244C9.0584 28.3106 9.19146 28.4625 9.37218 28.5535C9.55335 28.6458 9.75607 28.6624 9.94305 28.601C10.1464 28.5341 10.3159 28.3832 10.4212 28.1759C10.6294 27.763 10.493 27.303 10.1035 27.1067ZM9.44948 28.3994C9.13494 28.2411 9.30237 27.8248 9.38913 27.6539C9.4756 27.4822 9.711 27.1009 10.0252 27.2605C10.1088 27.3021 10.1647 27.3646 10.1911 27.446C10.2529 27.6342 10.1528 27.8779 10.0874 28.0074C10.0223 28.1357 9.88531 28.3607 9.69649 28.4228C9.61614 28.4501 9.53258 28.4419 9.44948 28.3994ZM11.1905 27.6887L11.1459 27.8149L11.4207 27.9116C11.3963 27.9805 10.9679 29.2022 10.9679 29.2022L11.301 29.3193C11.301 29.3193 11.7299 28.0977 11.7536 28.0285L12.0284 28.1244L12.086 27.9622L11.2027 27.6522L11.1905 27.6887ZM13.3486 28.2763L12.7163 28.1429L12.7077 28.1811L12.3989 29.6513L13.044 29.7868C13.208 29.8213 13.3445 29.8039 13.45 29.7348C13.5414 29.6753 13.6026 29.5801 13.6277 29.4618C13.6341 29.4295 13.6378 29.3989 13.6378 29.3688C13.6378 29.2402 13.5741 29.1311 13.4601 29.0535C13.5919 29.0156 13.6863 28.9186 13.7169 28.7746C13.7221 28.7523 13.7251 28.7257 13.7251 28.6954C13.725 28.548 13.6475 28.3392 13.3486 28.2763ZM13.1275 28.4063C13.2339 28.4286 13.3073 28.4694 13.3448 28.5272C13.3665 28.5601 13.377 28.5986 13.377 28.6432C13.377 28.665 13.3741 28.6876 13.369 28.7122C13.328 28.9078 13.1698 28.9059 13.0791 28.8861C13.0791 28.8861 12.9827 28.8662 12.9271 28.8545C12.9401 28.7941 13.0133 28.4452 13.0259 28.3852C13.0663 28.3933 13.1275 28.4063 13.1275 28.4063ZM13.079 29.0625C13.2586 29.1003 13.2867 29.242 13.2867 29.3279C13.2867 29.3647 13.2809 29.3913 13.2803 29.3955C13.2621 29.4805 13.2297 29.5381 13.1801 29.57C13.1275 29.6051 13.0518 29.6119 12.956 29.5923C12.956 29.5923 12.8409 29.5677 12.7794 29.5555L12.8917 29.0233C12.9442 29.034 13.079 29.0625 13.079 29.0625ZM14.8539 28.4716L14.1188 29.977L14.3305 29.9929C14.3305 29.9929 14.4863 29.6653 14.5068 29.6238L14.9556 29.6588C14.9698 29.7018 15.082 30.0507 15.082 30.0507L15.4469 30.079L14.9006 28.3858L14.8539 28.4716ZM14.7732 29.0769C14.8085 29.1905 14.8771 29.4098 14.8999 29.4811C14.827 29.4759 14.6599 29.4629 14.5879 29.4574L14.7732 29.0769ZM16.4642 29.8662L16.4072 28.5201L16.3698 28.5216L16.0549 28.5344L16.1195 30.0744L17.0589 30.0342L17.0505 29.8421C17.0508 29.8421 16.5321 29.8639 16.4642 29.8662ZM18.0828 29.7095C18.0712 29.6368 17.8735 28.3768 17.8735 28.3768L17.8358 28.3829L17.5252 28.4319L17.7639 29.9542L18.6925 29.8075L18.6629 29.6174C18.6629 29.6177 18.1494 29.6982 18.0828 29.7095ZM21.6501 28.3994C21.6446 28.5998 21.5268 28.7697 21.3434 28.8435C21.2366 28.8858 21.1312 28.8846 21.0293 28.8406C20.8857 28.7799 20.7601 28.636 20.6841 28.4472C20.5984 28.2317 20.5849 28.043 20.6445 27.9015C20.6909 27.7951 20.7794 27.715 20.9086 27.6637C21.0774 27.596 21.2329 27.6732 21.364 27.7511L21.3968 27.7702L21.4914 27.6215L21.4598 27.6001C21.256 27.4666 21.0043 27.4387 20.7875 27.5256C20.582 27.6079 20.4224 27.7598 20.3397 27.9544C20.2546 28.1515 20.2554 28.3798 20.3426 28.5952C20.5047 29.0019 20.9624 29.2018 21.3643 29.0416C21.6558 28.9246 21.814 28.7133 21.8351 28.4112L21.8382 28.3723L21.6518 28.3595L21.6501 28.3994ZM22.854 28.0709C22.8178 28.0074 22.1961 26.8938 22.1961 26.8938L22.1619 26.9129L21.888 27.0661L22.6387 28.4105L23.4594 27.9523L23.3663 27.7839C23.3664 27.7842 22.9119 28.0372 22.854 28.0709ZM24.0114 25.6877L23.9798 25.7109L23.8539 25.8032L24.5034 26.6881C24.547 26.7479 24.5639 26.807 24.5547 26.8654C24.5392 26.9706 24.4434 27.0519 24.4031 27.0803C24.3416 27.1233 24.2662 27.1413 24.1919 27.1307C24.1235 27.1208 24.0674 27.0844 24.0224 27.0241L23.3812 26.1494L23.0972 26.3588L23.7344 27.2274C23.8203 27.3446 23.9246 27.4138 24.045 27.4313C24.2346 27.4601 24.4127 27.3545 24.5022 27.2891C24.8096 27.0632 24.8137 26.7804 24.6809 26.6005L24.0114 25.6877ZM26.1076 25.2505C25.9884 25.1271 25.836 25.0991 25.6779 25.1599C25.6906 25.1239 25.6974 25.0861 25.6979 25.0479C25.6979 24.9563 25.6615 24.8671 25.588 24.7918C25.489 24.6897 25.2321 24.5637 24.9695 24.8191L24.5054 25.2687L25.577 26.3748L26.0515 25.9147C26.1708 25.7998 26.2334 25.6761 26.235 25.5507C26.2368 25.4415 26.1924 25.3379 26.1076 25.2505ZM25.4156 25.2025C25.4156 25.2801 25.3652 25.3437 25.3242 25.3836C25.3242 25.3836 25.253 25.4528 25.2128 25.4923C25.1696 25.448 24.9212 25.192 24.8786 25.1465C24.9075 25.1185 24.9528 25.0754 24.9528 25.0754C25.0978 24.934 25.2251 24.925 25.3419 25.0461C25.3959 25.1013 25.4156 25.1538 25.4156 25.2025ZM25.7108 26.0053C25.6669 25.9599 25.3772 25.6604 25.3328 25.615C25.3711 25.5783 25.4701 25.4818 25.4701 25.4818C25.6591 25.2998 25.8508 25.4926 25.8589 25.5016C25.9188 25.5631 25.9478 25.6214 25.9478 25.6793V25.6817C25.947 25.7453 25.9102 25.8119 25.8402 25.8811C25.8405 25.881 25.7483 25.9697 25.7108 26.0053Z" fill="white"/>
<path d="M8.89155 5.45963L8.24491 5.63408L8.31915 5.86567C8.40851 6.1466 8.3277 6.44082 8.1088 6.63269C7.98704 6.73947 7.8462 6.7885 7.6913 6.77781C7.45558 6.76192 7.18947 6.60931 6.97988 6.36948C6.73302 6.08641 6.60959 5.81403 6.62547 5.58336C6.63617 5.41471 6.71805 5.26715 6.87524 5.12951C7.04878 4.97751 7.26876 4.98347 7.5671 5.04274L7.7883 5.08643L7.93159 4.46698L7.70886 4.41275C7.22965 4.2942 6.73012 4.41061 6.37357 4.7227C5.67545 5.3336 5.61862 6.33098 6.24112 7.043C6.81979 7.70447 7.82359 7.77672 8.47817 7.20432C8.94944 6.79263 9.11366 6.26575 8.95342 5.68281L8.89155 5.45963ZM10.6477 2.21572L9.98716 2.52675C9.98716 2.52675 10.3559 3.30828 10.4827 3.5776C10.2944 3.6662 10.1117 3.75236 9.92315 3.84142L9.42698 2.79057L8.55715 3.20119L9.88175 6.0111L10.7523 5.60063C10.7523 5.60063 10.3419 4.73156 10.2099 4.44971C10.3982 4.36142 10.5808 4.27511 10.7698 4.18605L11.3121 5.33635L12.1824 4.92572L10.8581 2.11643L10.6477 2.21572ZM13.593 3.95645C13.5506 3.74731 13.5074 3.53436 13.4656 3.32539L14.4486 3.1271L14.323 2.50307L13.3395 2.70181C13.3009 2.51055 13.2688 2.34985 13.2298 2.15874L14.2732 1.94808L14.1472 1.3242L13.9183 1.37018L12.1605 1.72566L12.7751 4.77097L14.7775 4.36631L14.6519 3.74258C14.6519 3.74258 13.8739 3.89931 13.593 3.95645ZM16.4333 1.25195L15.4701 1.23193L15.4654 1.46428L15.4052 4.33789L17.4267 4.38021L17.4413 3.70744C17.4413 3.70744 16.6652 3.69095 16.3815 3.68514L16.4333 1.25195ZM19.5542 2.81867C19.3043 2.63521 19.2313 2.56142 19.2565 2.46121C19.269 2.40927 19.3255 2.24337 19.505 2.28783C19.613 2.31563 19.7204 2.37261 19.7685 2.60481L19.8211 2.86267L20.457 2.64773L20.4171 2.44731C20.3389 2.05425 20.0065 1.7194 19.5889 1.61521C19.2899 1.54097 18.9903 1.58054 18.7446 1.72826C18.6338 1.79381 18.5371 1.88077 18.4603 1.98405C18.3834 2.08733 18.3279 2.20488 18.297 2.32984C18.1373 2.9667 18.5669 3.27329 18.8504 3.47647C19.1413 3.68453 19.2155 3.76595 19.1712 3.9398C19.1645 3.96636 19.1525 3.99132 19.1361 4.01322C19.1196 4.03512 19.0989 4.05352 19.0753 4.06735C19.0168 4.10157 18.9439 4.11394 18.8843 4.09851C18.7316 4.06078 18.6651 3.98853 18.601 3.7907L18.5229 3.55377L17.8848 3.81468L17.9464 4.01725C18.066 4.41091 18.3515 4.659 18.8189 4.77602C19.3441 4.90739 19.9812 4.66587 20.1399 4.03512C20.3055 3.37121 19.8533 3.03835 19.5542 2.81867ZM21.8516 4.47553L22.7462 4.92786L23.0335 4.35989C23.0335 4.35989 22.3833 4.03145 22.1392 3.90787C22.2266 3.73357 22.301 3.58707 22.3881 3.41338L23.3386 3.89351L23.6251 3.32554L21.8168 2.41187L21.7123 2.61871L20.4152 5.1842L22.2388 6.10505L22.5263 5.53738L21.5619 5.05038C21.6573 4.85988 21.7558 4.66618 21.8516 4.47553ZM25.4529 4.76578L22.5552 6.26484L23.1096 6.74695C23.1096 6.74695 23.588 6.4926 23.7619 6.40125L24.2089 6.79018C24.1465 6.97503 23.9696 7.49472 23.9696 7.49472L24.7331 8.15939L25.9719 4.50639L25.4529 4.76578Z" fill="#DBA111"/>
<path d="M8.78297 5.6486L8.44139 5.74132L8.46644 5.81862C8.5749 6.15958 8.47698 6.51613 8.21011 6.74955C8.05689 6.88398 7.878 6.9457 7.68048 6.93302C7.40047 6.91423 7.10304 6.74619 6.86259 6.47137C6.58793 6.15683 6.45166 5.84596 6.46969 5.57206C6.4839 5.36431 6.58579 5.1758 6.77262 5.01234C7.0178 4.79802 7.32699 4.83728 7.59677 4.89044L7.67086 4.9048L7.74556 4.58125L7.67132 4.56276C7.24083 4.45705 6.794 4.56017 6.47504 4.83957C5.84398 5.39226 5.79326 6.29493 6.35756 6.94066C6.8797 7.53781 7.78497 7.60319 8.37585 7.08716C8.80435 6.71136 8.94841 6.25323 8.80313 5.72391L8.78297 5.6486ZM10.7137 2.3552L10.194 2.60069L10.6891 3.65108C10.5779 3.70393 9.96061 3.9951 9.84863 4.0475C9.79135 3.92513 9.35399 2.99695 9.35399 2.99695L8.76341 3.27513L9.95603 5.80411L10.5463 5.52623L10.0037 4.37578C10.1157 4.32308 10.7324 4.03252 10.8442 3.97952C10.9024 4.10341 11.3868 5.13027 11.3868 5.13027L11.9762 4.85163L10.7835 2.32266L10.7137 2.3552ZM13.4712 4.13915C13.4469 4.01771 13.3072 3.32585 13.2832 3.20425L14.2659 3.00581L14.2014 2.68638L13.2181 2.88436C13.1946 2.76521 13.0713 2.15645 13.0479 2.03745C13.1782 2.01072 14.0904 1.8271 14.0904 1.8271L14.0258 1.50752L12.3432 1.8468L12.8967 4.58782L14.5951 4.24486L14.5306 3.92513L13.4712 4.13915ZM16.2749 1.40395L15.6224 1.38989L15.6211 1.46688L15.5635 4.18559L17.2756 4.22195L17.2834 3.85899L16.2236 3.83668C16.2272 3.69171 16.2749 1.4041 16.2749 1.40395ZM19.5426 2.13797C19.7499 2.18991 19.8698 2.32846 19.9205 2.5738L19.9383 2.65965L20.2786 2.54477L20.2658 2.47771C20.1986 2.1427 19.912 1.85643 19.5516 1.76584C19.293 1.70137 19.035 1.73514 18.8248 1.86132C18.7315 1.91664 18.6502 1.98991 18.5854 2.07689C18.5207 2.16387 18.4739 2.26282 18.4476 2.36803C18.3136 2.90224 18.6618 3.15093 18.941 3.35059C19.2236 3.5527 19.394 3.69095 19.3213 3.97753C19.31 4.02414 19.2895 4.06798 19.2608 4.10638C19.232 4.14477 19.1958 4.17692 19.1543 4.20087C19.0618 4.25625 18.9514 4.2736 18.8463 4.24929C18.6399 4.19766 18.5341 4.08691 18.4536 3.83943L18.4273 3.7603L18.0741 3.9042L18.0949 3.97188C18.1974 4.30918 18.4469 4.52289 18.8572 4.62585C19.308 4.73829 19.8544 4.53435 19.9891 3.99739C20.1294 3.43416 19.7597 3.16193 19.4607 2.94333C19.2068 2.75589 19.0535 2.63063 19.1057 2.42379C19.1517 2.23879 19.3051 2.07839 19.5426 2.13797ZM22.3198 3.20532L23.2694 3.68499L23.4171 3.39367L21.8857 2.62009L21.8507 2.68913L20.6245 5.11622L22.1703 5.89729L22.3175 5.60628L21.3539 5.11897C21.4095 5.00822 21.728 4.37899 21.7835 4.26808C21.9013 4.32781 22.6779 4.72011 22.6779 4.72011L22.8259 4.42894C22.8259 4.42894 22.0484 4.0368 21.9306 3.97692L22.3198 3.20532ZM25.5243 4.90373L22.8298 6.29814L23.131 6.55997L23.7833 6.21427L24.3898 6.74191C24.361 6.82716 24.1496 7.44584 24.1496 7.44584L24.6611 7.89023L25.702 4.82032L25.5243 4.90373ZM24.0951 6.05372C24.2226 5.98773 24.5482 5.81862 24.7471 5.71535C24.6731 5.92647 24.5512 6.27416 24.5045 6.40935C24.3683 6.2905 24.2318 6.17196 24.0951 6.05372Z" fill="white"/>
<path d="M23.6444 15.5803C23.4235 14.9949 22.6624 14.7407 21.9431 15.012C21.6432 15.1249 21.3974 15.3137 21.23 15.5363C21.7049 14.1807 23.6395 13.893 23.6395 12.6318C23.6395 10.5181 20.6377 11.1102 21.0745 12.6321C21.0745 11.9415 22.1733 11.815 22.1733 12.6321C22.1733 13.4496 20.2571 13.9853 20.2571 15.366C20.2571 16.8881 21.7793 17.0289 21.625 18.4208C21.5989 18.6609 21.3411 18.9764 20.9671 18.9764C18.6356 18.9764 19.4679 16.1061 18.6534 15.2326L18.6958 14.643C19.1668 14.932 20.4164 14.2552 19.5938 13.2239C19.5938 13.7311 18.5377 13.7032 18.5377 12.7447C18.5377 11.4482 19.75 12.1247 19.8087 12.4111C19.7506 11.9388 19.7286 11.639 19.8064 11.3671C19.153 11.5778 19.0918 11.2 19.1744 11.0538C19.2691 10.885 19.3956 10.6875 19.6503 10.6875C19.7878 10.6875 19.8704 10.7066 19.9191 10.7402C20.0006 10.7959 20.0601 10.6687 20.0485 10.7871C20.1183 10.6808 20.0902 10.8137 20.1581 10.7069C20.2267 10.6009 20.3194 10.4809 20.4819 10.3212L20.4749 10.0822L20.6652 10.1521L20.8478 9.8563C20.6506 9.44736 20.3829 9.64427 20.1859 9.13725C20.021 9.09463 17.4533 9.37373 17.528 8.34946C17.3187 8.34946 16.8228 8.46433 17.1297 8.88122C16.8911 8.90994 16.7191 8.63894 16.3593 9.37189C16.81 9.28742 16.5767 9.79123 16.5767 9.93467C16.5767 10.8632 15.3404 10.8477 15.3404 10.4127C15.0424 10.7023 15.2115 11.3353 15.662 11.4913C15.662 11.4913 15.4906 12.1685 15.0676 12.5979C14.4396 12.5729 13.4321 12.4638 12.8525 11.916C12.6026 11.68 12.4042 11.551 12.2351 11.4852V11.1783C12.4825 11.0572 12.7538 10.8428 13.0358 10.4846C13.2557 10.2159 13.375 9.87143 13.3429 9.50556C13.3387 9.46233 13.3326 9.41932 13.3246 9.37663C13.3221 9.36319 13.3189 9.3502 13.3157 9.33691C13.3096 9.30763 13.3023 9.27863 13.2937 9.24999C13.2897 9.23594 13.2858 9.22127 13.2813 9.20767C13.2719 9.17897 13.2614 9.15063 13.2499 9.12274C13.2451 9.11113 13.2416 9.0986 13.2361 9.08776C13.2204 9.05097 13.203 9.01494 13.184 8.97975C13.1759 8.96539 13.1674 8.9521 13.1594 8.93881C13.1464 8.91758 13.1341 8.89604 13.1205 8.87542C13.1092 8.85888 13.0977 8.84248 13.0861 8.82623C13.0742 8.81049 13.0615 8.79445 13.0491 8.77872C13.0355 8.76191 13.0219 8.74389 13.0074 8.72739C12.9978 8.7164 12.9877 8.7058 12.9772 8.69562C12.9161 8.62883 12.8486 8.56829 12.7755 8.5149L12.756 8.50069C12.73 8.48236 12.7034 8.46464 12.6756 8.44738C12.6739 8.44631 12.6724 8.44554 12.6712 8.44417C12.3956 8.27559 12.0736 8.19873 11.7516 8.22465C10.9407 8.28927 10.3379 8.96662 10.4056 9.73822C10.4583 10.3392 10.9013 10.8192 11.4778 10.9722C11.2757 11.0848 11.1049 11.1502 11.0663 11.1502C11.0727 11.1542 11.0811 11.1591 11.0901 11.165L11.098 11.169C11.106 11.174 11.1152 11.1792 11.1246 11.1844L11.1323 11.1885L11.1737 11.2092L11.1813 11.2122C11.199 11.2208 11.2172 11.2286 11.2357 11.2354C11.2708 11.2501 11.3107 11.2634 11.3541 11.2758C11.3603 11.2776 11.3668 11.279 11.3719 11.2805C11.3895 11.2849 11.4074 11.2891 11.426 11.2935L11.4448 11.2972C11.4679 11.3011 11.4925 11.3054 11.5169 11.3083C11.5191 11.3083 11.521 11.3095 11.523 11.3095V11.4841C11.5139 11.4861 11.5056 11.4872 11.4971 11.4884C11.2332 11.5316 11.0618 11.6128 10.9844 11.8479C10.9074 12.0836 10.9867 12.169 11.1101 12.3343C11.0058 12.5208 10.7323 12.5906 11.0892 13.0026C11.0632 13.1583 11.0961 13.4062 11.3226 13.4813C11.3964 13.5064 11.4581 13.5197 11.523 13.531L11.5227 16.6206C11.2968 16.7402 11.1854 16.8898 11.1237 17.0288C11.1237 17.0288 10.9424 16.6263 10.9546 17.4238C11.1607 17.2639 11.0794 17.609 11.0794 17.609C10.7988 17.9726 11.1552 17.9528 11.1552 17.9528C11.3968 17.7113 11.3475 18.0621 11.3475 18.0621C11.3475 18.4901 11.5215 18.6572 11.5227 18.658V21.0118L11.3176 21.0125L11.3196 21.6619L11.6787 21.6613C11.4774 21.745 11.3445 21.9439 11.3637 22.1636C11.3881 22.4405 11.644 22.6468 11.9356 22.6243C12.227 22.6009 12.4434 22.3579 12.4185 22.0802C12.402 21.8885 12.2751 21.732 12.1023 21.6601L12.4335 21.6592L12.4321 21.0095L12.2346 21.0105L12.2349 18.9223C12.2757 18.9446 12.3197 18.96 12.3675 18.9704C12.3866 18.9739 12.4055 18.9765 12.4248 18.9779C12.4333 18.9791 12.442 18.9791 12.4508 18.9796C12.3974 18.7049 12.5617 18.5231 12.5617 18.5231C12.6458 18.3963 12.7679 18.2973 12.9063 18.2275C13.3207 18.0199 13.8864 18.0722 14.0554 18.4107C15.1265 18.1284 16.0469 17.0517 16.0469 17.0517L16.5741 17.949C15.4563 18.3227 13.0213 20.4395 14.7116 21.1726C14.711 21.3859 14.6825 22.9699 13.6669 22.844C12.2043 22.6636 11.8396 23.2687 12.1203 23.9489C11.9883 24.5227 12.4301 24.7219 12.4301 24.7219C12.3637 24.3906 12.523 24.116 13.1273 24.1196C13.1243 24.724 13.5147 24.833 13.5147 24.833C13.5175 24.3154 13.8772 24.1237 14.1967 24.1252C14.1942 24.5516 14.6899 24.7138 14.6899 24.7138C14.6899 24.7138 14.5644 24.2222 15.1244 24.1252C16.5425 23.878 15.2106 22.4196 17.3671 22.0177C17.3671 22.0177 16.2935 21.8556 16.2935 21.2689C16.2935 20.7346 17.2654 20.3691 17.6001 20.3691C18.2864 21.6804 19.0322 21.6908 19.2274 21.7001C19.5311 22.0397 19.4294 23.184 18.9905 23.1614C17.3844 23.0753 17.443 24.0523 17.6231 24.2521C17.6025 24.6315 17.8978 24.8505 17.8978 24.8505C17.8978 24.444 18.2844 24.3296 18.7805 24.3565C18.7545 24.8533 19.0707 24.9274 19.0707 24.9274C19.0794 24.4277 19.4492 24.3427 19.7118 24.3565C19.6926 24.7068 20.0401 24.8102 20.0401 24.8102C20.0401 24.8102 20.0058 24.3657 20.474 24.3657C21.3618 24.365 20.0724 22.4624 21.805 20.5807C20.283 21.2854 19.4732 19.5242 19.4732 19.1861C20.2555 20.1014 22.7921 20.2843 22.7921 18.7205C22.7921 17.2266 21.1503 16.67 21.9182 16.0985C22.365 15.7662 23.2437 16.4374 22.7411 17.1307C23.462 16.8637 23.8638 16.1655 23.6429 15.5808M13.9153 15.6274C13.3415 15.9646 12.9567 16.3915 12.4336 16.5783C12.3542 16.6064 12.2908 16.614 12.2358 16.6105V13.6946C12.3744 13.7076 12.7341 13.7568 13.1547 13.9306C13.5713 14.1579 13.5713 14.6277 13.0456 14.739C13.3777 15.3751 14.5286 15.0637 14.7796 14.5456C14.9024 14.5348 15.011 14.7542 15.1132 14.9615C14.9513 15.0453 14.6209 15.212 13.9153 15.6274ZM20.338 10.7933C20.2751 10.8792 20.2127 10.9641 20.1582 11.0373C20.2315 11.1598 20.3379 11.2591 20.4651 11.3237C20.5924 11.3884 20.7353 11.4158 20.8774 11.4027C21.0767 11.3837 21.2604 11.2866 21.3881 11.1325C21.5159 10.9784 21.5774 10.7799 21.5592 10.5805C21.5566 10.5654 21.5548 10.5518 21.5528 10.5372C21.5085 10.7521 21.2552 10.9342 20.9327 10.9637C20.6892 10.9864 20.4683 10.9163 20.338 10.7933Z" fill="#D1D3D4"/>
<path d="M11.0663 9.03848C11.0663 9.03894 11.0652 9.04001 11.0652 9.04108H11.0649C11.0654 9.04021 11.0659 9.03935 11.0663 9.03848ZM11.0927 21.2689C11.0934 21.2685 11.0944 21.2685 11.0947 21.2677C11.0943 21.2688 11.0935 21.2688 11.0927 21.2689ZM10.8552 21.1973L11.2143 21.1968C11.1714 21.2148 11.1312 21.2387 11.0949 21.2679C11.1303 21.2543 11.1682 21.2459 11.2085 21.2459C11.295 21.2459 11.3778 21.2802 11.4389 21.3413C11.5 21.4024 11.5344 21.4853 11.5344 21.5717C11.5344 21.6581 11.5 21.741 11.4389 21.8021C11.3778 21.8632 11.295 21.8975 11.2085 21.8975C11.1394 21.8976 11.0722 21.8754 11.0166 21.8344C10.961 21.7934 10.92 21.7356 10.8996 21.6696V21.6991C10.9242 21.9767 11.1797 22.1831 11.4716 22.1591C11.7626 22.1365 11.9791 21.8928 11.9551 21.6155C11.938 21.4246 11.8113 21.268 11.6386 21.1961L11.9696 21.1947L11.9681 20.545L11.7705 20.5462V18.4576C11.6743 18.4074 11.5969 18.3275 11.5498 18.2297C11.5027 18.1319 11.4885 18.0216 11.5092 17.915C11.6328 17.915 11.7434 17.9471 11.8173 17.9977C11.7032 18.249 11.987 18.5149 11.987 18.5149C11.9338 18.2403 12.0976 18.0591 12.0976 18.0591C12.1827 17.932 12.3044 17.833 12.4424 17.763C12.8574 17.5551 13.4227 17.6075 13.5915 17.9459C14.6626 17.6639 15.5832 16.5869 15.5832 16.5869L16.1107 17.4838C17.3471 17.4838 16.9165 16.5577 16.836 16.4769C17.1203 16.4769 17.5207 16.6864 17.5207 17.15C17.5207 18.2888 14.2103 18.4512 14.2103 19.8333C14.2103 20.4136 14.7858 20.6344 14.7858 20.6344C14.7858 21.8945 13.9204 22.643 13.3284 22.643C12.3819 22.643 11.657 22.4513 11.657 23.4834H11.987C11.6735 23.797 11.9661 24.2566 11.9661 24.2566C11.8999 23.9256 12.0597 23.6516 12.6641 23.6546H13.0412C12.8017 23.894 12.9416 24.2576 13.0518 24.3686C13.0541 23.8503 13.4132 23.6589 13.7331 23.6606H14.0068C13.9324 23.7339 14.0519 24.0747 14.2265 24.2487C14.2265 24.2487 14.1003 23.7576 14.6611 23.6606C16.0786 23.4136 14.7468 21.9551 16.9032 21.5526C16.9032 21.5526 15.8302 21.391 15.8302 20.8035C15.8302 20.2702 16.8016 19.9038 17.1357 19.9038C17.3992 19.8663 17.6501 19.8756 17.8645 19.9217C17.9518 20.7685 18.9239 20.7271 19.1355 20.7271C19.96 21.5517 18.9259 22.8754 18.9259 22.8754C17.6604 22.8754 17.1597 23.0501 17.1597 23.7871H17.3991C17.2648 23.9219 17.3409 24.2929 17.4336 24.3853C17.4336 23.9786 17.821 23.865 18.317 23.8912H18.5778C18.4507 24.0183 18.4728 24.3277 18.6077 24.462C18.6151 23.9621 18.9855 23.8772 19.2483 23.8912H19.4658C19.3844 23.9733 19.4658 24.234 19.5773 24.3459C19.5773 24.3459 19.5428 23.9009 20.0107 23.9004C20.8985 23.9004 19.6085 21.9971 21.3425 20.1154C19.8205 20.8204 19.0098 19.0586 19.0098 18.7205C19.7922 19.6364 22.3292 19.8191 22.3292 18.2557C22.3292 16.9942 21.159 16.4013 21.256 15.9035C21.2726 15.7177 21.3582 15.5449 21.4958 15.419C21.6335 15.2932 21.8133 15.2234 21.9998 15.2235C22.1979 15.2236 22.3877 15.3024 22.5277 15.4425C22.6677 15.5827 22.7463 15.7726 22.7462 15.9707C22.7464 16.1197 22.702 16.2654 22.6186 16.3889C22.5352 16.5124 22.4167 16.6081 22.2784 16.6636C22.2791 16.6636 22.2791 16.663 22.2791 16.663C22.2784 16.6636 22.2775 16.6645 22.2775 16.6657C22.9978 16.3987 23.4 15.7004 23.1803 15.1157C22.9587 14.5304 22.1975 14.2755 21.4787 14.5468C21.1775 14.6604 20.9331 14.8485 20.7655 15.0715C21.2397 13.7161 23.1747 13.4289 23.1747 12.1671C23.1747 10.0534 20.1728 10.6457 20.6095 12.1677C20.6095 12.1449 20.6109 12.1221 20.6135 12.1003C20.69 11.2399 22.2279 11.0641 22.2279 12.1857C22.2279 13.1438 20.2582 13.675 20.2582 14.9641C20.2582 16.2881 21.7129 16.6192 21.7129 18.0125C21.7129 18.1784 21.6252 18.8929 20.6587 18.8929C19.7262 18.8929 19.2779 18.3716 19.0232 17.6912C18.5483 16.7734 18.7226 15.3408 18.1876 14.768L18.2299 14.1788C18.7012 14.4681 19.9513 13.7908 19.1302 12.7595C19.1302 13.2672 18.0732 13.2385 18.0732 12.2806C18.0732 10.9841 19.2849 11.6605 19.3434 11.9466C19.2852 11.4747 19.2626 11.1741 19.3422 10.9031C18.6879 11.1131 18.6276 10.7357 18.7088 10.5892C18.8046 10.4199 18.9311 10.2228 19.1853 10.2228C19.5526 10.2228 19.5293 10.3577 19.5099 10.5476C19.6503 10.3354 19.6902 10.1758 20.0165 9.85668L20.0096 9.61699L20.1989 9.68742L20.383 9.39136C20.1861 8.98242 19.9183 9.18009 19.7203 8.67262C19.5562 8.62969 17.3975 8.43034 17.4721 7.40576C17.2811 7.40576 16.7611 8.06447 17.1126 8.41705H16.6644C16.4247 8.44561 15.8655 8.27819 15.5062 9.01083C16.3902 8.1271 16.9638 10.2357 15.3359 10.2357V10.2351C15.0957 10.2357 14.8896 10.1355 14.8756 9.96605C14.7134 10.6776 15.739 10.8991 15.739 10.8991C15.739 11.1105 15.2253 12.2552 14.9755 12.5047C15.1438 12.6732 15.1959 13.6893 14.4179 13.6893C14.6985 12.9306 13.8735 12.2877 13.0718 11.8624H13.0728C12.9277 11.8075 12.7896 11.7402 12.6615 11.6596C12.1694 11.4346 11.7693 11.3081 11.7693 11.3081V10.7132C12.0168 10.5919 12.2881 10.3774 12.5701 10.0194C12.7902 9.75097 12.9089 9.40649 12.8767 9.04032C12.8732 8.99694 12.867 8.95382 12.8581 8.91123C12.8561 8.89794 12.853 8.88526 12.8503 8.87197C12.844 8.84276 12.8366 8.81381 12.828 8.7852C12.8153 8.74189 12.8007 8.69917 12.7841 8.65719C12.7794 8.64543 12.7753 8.63412 12.7704 8.62236C12.7544 8.58596 12.737 8.55024 12.7181 8.51527C12.7106 8.50046 12.7016 8.48716 12.6938 8.47326C12.6809 8.45218 12.6683 8.43125 12.6547 8.41063C12.6434 8.39444 12.6324 8.37733 12.6202 8.36098C12.6083 8.34525 12.5962 8.32921 12.5835 8.31409C12.5702 8.29627 12.5562 8.27895 12.5415 8.26215C12.5319 8.25113 12.5219 8.24043 12.5116 8.23007C12.4746 8.19008 12.4353 8.15233 12.3938 8.11702C12.3897 8.11381 12.3862 8.10908 12.3821 8.10618C12.3586 8.08648 12.3344 8.06772 12.3095 8.04996C12.3029 8.04583 12.2968 8.04034 12.2902 8.0356C12.264 8.017 12.2372 7.99922 12.2099 7.98229C12.2082 7.98152 12.2067 7.98015 12.205 7.97938C11.9295 7.81055 11.6076 7.73363 11.2855 7.75971C11.213 7.76552 11.1424 7.7785 11.0735 7.79332C10.6065 7.9722 10.2669 8.51879 10.2669 9.16558C10.2669 9.7751 10.5691 10.2948 10.9941 10.5023C10.9999 10.5038 11.006 10.5061 11.0121 10.5078C10.8095 10.6203 10.6387 10.6857 10.5999 10.6857C10.6065 10.6897 10.6152 10.6946 10.6244 10.7008C10.627 10.7019 10.6293 10.7033 10.6319 10.7047C10.6401 10.7092 10.6485 10.7141 10.6589 10.7196C10.6615 10.721 10.6636 10.7224 10.6665 10.7233C10.6786 10.7297 10.6928 10.7374 10.7075 10.7445C10.7101 10.7452 10.7127 10.7464 10.715 10.7479C10.7278 10.754 10.7418 10.7593 10.7567 10.7656C10.7996 10.7833 10.8436 10.7985 10.8883 10.8111L10.9064 10.816C10.9233 10.8205 10.9414 10.8246 10.9598 10.8284C10.9661 10.8301 10.9725 10.8311 10.9791 10.8325C11.0023 10.8368 11.0263 10.8411 11.0513 10.8441C11.0533 10.844 11.0552 10.8446 11.0568 10.8457C11.2114 10.8583 11.3943 10.82 11.3943 10.82V11.1651C11.3665 11.1651 11.1238 11.0867 11.0568 11.0201C11.0486 11.0213 11.0397 11.023 11.0309 11.0245C10.7677 11.0676 10.5961 11.1486 10.5188 11.3838C10.4417 11.6196 10.521 11.7048 10.6442 11.8702C10.5391 12.0561 10.2664 12.1263 10.6227 12.5386C10.5973 12.6939 10.6299 12.9423 10.8561 13.0176C10.93 13.0427 10.9919 13.0554 11.0565 13.0668C11.1907 13.0668 11.394 13.1786 11.394 13.4571V16.1124C11.516 16.1195 11.6486 16.136 11.769 16.1465V13.23C11.9077 13.2433 12.2676 13.2926 12.6876 13.4658C12.692 13.4682 12.6962 13.4708 12.7003 13.4738C12.6999 13.4735 12.6995 13.4735 12.6995 13.473C12.7378 13.4778 12.7768 13.4862 12.8154 13.4976C13.0951 13.5835 13.2693 13.8262 13.2038 14.0413C13.1385 14.2556 12.8578 14.3603 12.5787 14.2744C12.9102 14.911 14.0617 14.5995 14.3127 14.0815C14.4349 14.0706 14.5436 14.29 14.646 14.497C14.646 14.497 14.9344 14.6076 15.6484 14.6076C15.6484 14.6076 12.7568 16.4537 11.9207 16.4537C11.5634 16.4537 10.7709 16.4537 10.7709 16.7239C10.553 16.7239 10.2393 17.0941 10.2393 17.3058C10.4452 17.145 10.6128 17.145 10.6128 17.145C10.7883 17.145 10.8871 17.1975 10.8871 17.1975C10.8228 17.2611 10.5342 17.5869 10.5342 17.8394C10.7759 17.5974 10.8813 17.5985 10.8813 17.5985C10.8813 17.5985 11.1337 17.5658 11.2237 17.6566C11.163 17.7171 11.0564 17.9358 11.0564 18.1946C11.0564 18.1946 11.2062 17.9053 11.3937 17.9053V20.6808C11.3937 20.7657 11.0107 20.847 10.8529 20.847M10.973 12.8001C10.9015 12.8028 10.8679 12.7101 10.8673 12.6765C10.8656 12.6426 10.8923 12.5482 10.9633 12.5456C11.1328 12.5398 11.4716 12.6211 11.4728 12.6544C11.4742 12.6874 11.1422 12.7938 10.973 12.8001ZM10.8637 12.342C10.7654 12.3351 10.7331 12.2022 10.7365 12.1554C10.7396 12.1098 10.791 11.9828 10.8894 11.9902C11.1237 12.0076 11.5784 12.1712 11.5744 12.2172C11.5715 12.2641 11.0978 12.3592 10.8637 12.342ZM10.8234 11.7551C10.7194 11.7276 10.711 11.5788 10.7234 11.5294C10.7365 11.4804 10.8169 11.3548 10.9213 11.382C11.1693 11.4469 11.6247 11.7135 11.612 11.7624C11.5991 11.8114 11.0715 11.82 10.8234 11.7551ZM11.5914 10.1012C11.6344 9.99844 11.6253 9.85821 11.5985 9.72622L11.5852 9.72652C11.5143 9.72654 11.4441 9.7126 11.3786 9.68549C11.3131 9.65838 11.2536 9.61863 11.2035 9.56851C11.1533 9.51839 11.1135 9.45889 11.0864 9.3934C11.0592 9.32791 11.0453 9.25771 11.0452 9.18682C11.0408 9.13736 11.0478 9.08755 11.0652 9.04108C11.0652 9.04001 11.066 9.03894 11.0665 9.03864C11.0986 8.92581 11.1666 8.82653 11.2602 8.75581C11.3538 8.68509 11.4679 8.64677 11.5852 8.64665C11.7284 8.64681 11.8657 8.70381 11.9669 8.80512C12.0681 8.90643 12.125 9.04377 12.125 9.18697C12.125 9.53099 11.8827 9.84782 11.5914 10.1012Z" fill="#034694"/>
<path d="M19.6934 10.5728C19.7664 10.6954 19.8727 10.7947 19.9999 10.8593C20.1271 10.924 20.27 10.9512 20.4121 10.9379C20.6115 10.9191 20.7953 10.822 20.9231 10.6678C21.0509 10.5136 21.1123 10.315 21.0937 10.1156C21.0922 10.1009 21.0895 10.0867 21.0876 10.072C21.0435 10.2867 20.7891 10.4692 20.4674 10.4988C20.2227 10.5218 20.0024 10.4516 19.8722 10.3288C19.8098 10.4148 19.7468 10.4998 19.6934 10.5728Z" fill="#ED1C24"/>
<path d="M18.6854 9.17261L18.9461 9.18636L18.8157 9.36524C18.8157 9.36539 18.6415 9.42039 18.6854 9.17261ZM18.0635 9.17261H18.4391C18.4391 9.17261 18.4255 9.47554 18.6999 9.50288L18.6415 9.59943C18.6415 9.59943 17.9045 9.40679 18.0635 9.17261Z" fill="white"/>
<path d="M11.6119 11.7626C11.6249 11.7137 11.1693 11.4472 10.9213 11.3823C10.8166 11.3552 10.7364 11.4808 10.7234 11.5298C10.7107 11.579 10.7193 11.728 10.8232 11.7555C11.0714 11.8201 11.5992 11.8115 11.6119 11.7626ZM11.5745 12.2174C11.5783 12.1713 11.1238 12.0078 10.8895 11.9904C10.7911 11.9831 10.7396 12.11 10.7366 12.1557C10.7334 12.2026 10.7654 12.3352 10.864 12.3422C11.0978 12.3593 11.5716 12.2643 11.5745 12.2174ZM11.0584 10.8459V11.0202C11.1252 11.0871 11.3681 11.1652 11.3957 11.1652V10.8201C11.3959 10.8202 11.2132 10.8586 11.0584 10.8459ZM10.9634 12.5455C10.8922 12.5484 10.8655 12.6427 10.8673 12.6765C10.8679 12.7101 10.902 12.8026 10.973 12.8C11.1422 12.7939 11.4741 12.6875 11.4727 12.6541C11.4715 12.621 11.1327 12.5396 10.9634 12.5455ZM10.6147 17.1446C10.3343 17.5077 10.5361 17.8391 10.5361 17.8391C10.5361 17.5864 10.8247 17.2608 10.8892 17.1973C10.889 17.1971 10.7902 17.1446 10.6147 17.1446ZM11.5088 17.9151C11.4834 18.0455 11.5106 18.1807 11.5843 18.2912C11.6581 18.4017 11.7724 18.4786 11.9026 18.5052C11.9226 18.5098 11.9414 18.5123 11.961 18.5146L11.9866 18.5153C11.9866 18.5153 11.7028 18.2497 11.8169 17.9982C11.7428 17.9472 11.6324 17.9151 11.5088 17.9151ZM10.9958 10.5026C10.571 10.2953 10.2687 9.7755 10.2687 9.16598C10.2687 8.51918 10.6084 7.9726 11.0752 7.79372C10.3744 7.94923 9.87988 8.57189 9.94175 9.27398C9.99414 9.86899 10.4288 10.3445 10.9958 10.5026ZM15.5078 9.01093C15.9589 8.92599 16.1118 9.32699 16.1118 9.47074C16.1118 10.0144 15.6885 10.2333 15.3375 10.2355V10.2358C16.9657 10.2356 16.392 8.1272 15.5078 9.01093ZM14.4195 13.6899C15.1977 13.6899 15.1453 12.6736 14.9771 12.5049C15.2267 12.2554 15.7406 11.1108 15.7406 10.8994C15.7406 10.8994 14.7134 10.6779 14.8776 9.96523C14.8773 9.96477 14.8773 9.96447 14.8773 9.96386L14.8636 9.96141C14.5836 10.2567 14.7539 10.8726 15.1978 11.0263C15.1978 11.0263 15.0266 11.7035 14.6034 12.1331C14.1823 12.1167 13.5918 12.0613 13.0734 11.8628C13.8749 12.2883 14.7001 12.9313 14.4195 13.6899ZM11.3798 8.81004C11.5809 8.794 11.7582 8.93668 11.7753 9.12886C11.7918 9.32012 11.6421 9.48922 11.4406 9.50526C11.2387 9.52146 11.0613 9.37878 11.0451 9.18675C11.0452 9.32991 11.1022 9.46717 11.2034 9.56835C11.3047 9.66953 11.442 9.72635 11.5852 9.72631L11.5986 9.726C11.6253 9.85799 11.6345 9.99838 11.5914 10.101C11.8827 9.84776 12.125 9.53093 12.125 9.1866C12.1457 9.11238 12.1503 9.03459 12.1385 8.95846C12.1266 8.88232 12.0986 8.80961 12.0563 8.7452C12.014 8.68079 11.9584 8.62618 11.8932 8.58504C11.8281 8.54391 11.7549 8.51719 11.6786 8.50669C11.6022 8.4962 11.5245 8.50216 11.4507 8.52419C11.3769 8.54622 11.3086 8.58379 11.2505 8.6344C11.1924 8.685 11.1458 8.74745 11.1138 8.81756C11.0818 8.88767 11.0653 8.96381 11.0652 9.04087C11.1122 8.91606 11.2315 8.82211 11.3798 8.81004ZM17.1142 8.41729C16.7621 8.06487 17.2823 7.40601 17.4735 7.40601C17.2644 7.40601 16.3584 7.99918 16.666 8.41729H17.1142ZM12.5806 14.2743C12.8597 14.3602 13.1404 14.2556 13.2057 14.0412C13.2712 13.8263 13.0969 13.5837 12.8173 13.4975C12.7794 13.4863 12.7406 13.4781 12.7014 13.473C13.1051 13.7033 13.1004 14.1651 12.5806 14.2743ZM11.7709 11.3085C11.7709 11.3085 12.171 11.4351 12.663 11.66C12.5648 11.5997 12.4727 11.5298 12.3882 11.4513C12.1385 11.2153 11.9397 11.0865 11.7709 11.0211V11.3085ZM11.9226 16.4535C12.759 16.4535 15.6505 14.6074 15.6505 14.6074C14.9362 14.6074 14.6479 14.4968 14.6479 14.4968C14.4866 14.5809 14.1557 14.747 13.4505 15.1622C12.8766 15.5 12.492 15.9271 11.9687 16.1136C11.8892 16.1425 11.8256 16.1492 11.7711 16.1463C11.6507 16.1361 11.5181 16.1194 11.396 16.1122V13.4572C11.396 13.1787 11.1927 13.0668 11.0587 13.0668V16.1567C10.8327 16.2766 10.7213 16.4257 10.6602 16.5649C10.6602 16.5649 10.2291 16.5074 10.2413 17.3056C10.2413 17.0937 10.5554 16.7236 10.7729 16.7236C10.7728 16.4535 11.5653 16.4535 11.9226 16.4535ZM19.1354 20.7281C18.9235 20.7281 17.9515 20.7693 17.8644 19.9227C17.6498 19.8764 17.3987 19.8674 17.1356 19.9049C17.8227 21.2162 18.5687 21.2266 18.7638 21.2368C19.0673 21.5756 18.9656 22.7196 18.5268 22.6969C16.9204 22.611 16.9793 23.5887 17.1596 23.7885C17.1596 23.0518 17.6602 22.877 18.9258 22.877C18.9257 22.8764 19.9599 21.5527 19.1354 20.7281ZM19.4657 23.8921H19.2482C19.2298 24.2433 19.5772 24.3467 19.5772 24.3467C19.4657 24.2351 19.3843 23.9743 19.4657 23.8921ZM17.4329 24.3864C17.3406 24.2939 17.2642 23.923 17.3984 23.7879H17.1591C17.1391 24.1678 17.4329 24.3864 17.4329 24.3864ZM22.2279 12.1859C22.2279 11.0642 20.6895 11.2406 20.6136 12.1018C20.6814 11.4704 21.7093 11.3772 21.7093 12.1681C21.7093 12.9855 19.7923 13.5206 19.7923 14.9019C19.7923 16.424 21.3141 16.5649 21.1601 17.9562C21.1342 18.1971 20.8763 18.512 20.5023 18.512C19.7011 18.512 19.2723 18.1718 19.0231 17.6913C19.2778 18.3716 19.7262 18.893 20.6588 18.893C21.6253 18.893 21.713 18.1786 21.713 18.0127C21.713 16.6195 20.2579 16.2882 20.2579 14.9642C20.2584 13.6752 22.2279 13.1441 22.2279 12.1859ZM10.8832 17.5981C10.8832 18.0277 11.0583 18.1941 11.0583 18.1941C11.0583 17.9353 11.1648 17.7162 11.2256 17.656C11.1357 17.5656 10.8832 17.5981 10.8832 17.5981ZM22 15.2239C21.8135 15.2237 21.6336 15.2935 21.4959 15.4193C21.3582 15.5452 21.2726 15.718 21.2561 15.9039C21.2738 15.8124 21.335 15.7234 21.4539 15.6344C21.9015 15.3018 22.7782 15.9717 22.2782 16.6638C22.4165 16.6083 22.5349 16.5126 22.6183 16.3891C22.7017 16.2656 22.7461 16.1199 22.746 15.9709C22.7461 15.773 22.6676 15.583 22.5277 15.443C22.3878 15.3029 22.198 15.2241 22 15.2239ZM18.5774 23.8921H18.3166C18.2897 24.3883 18.6073 24.4628 18.6073 24.4628C18.4727 24.3287 18.4501 24.0192 18.5774 23.8921ZM11.2083 21.246C11.1678 21.246 11.1302 21.2544 11.0945 21.2681C11.0322 21.3146 10.982 21.3753 10.948 21.4452C10.9141 21.5151 10.8974 21.5922 10.8994 21.6699C10.9198 21.7359 10.9608 21.7936 11.0164 21.8346C11.072 21.8756 11.1392 21.8977 11.2083 21.8976C11.2511 21.8976 11.2935 21.8892 11.333 21.8728C11.3725 21.8565 11.4084 21.8325 11.4387 21.8022C11.469 21.7719 11.493 21.736 11.5093 21.6965C11.5257 21.657 11.5341 21.6146 11.5341 21.5718C11.5341 21.529 11.5257 21.4866 11.5093 21.4471C11.493 21.4076 11.469 21.3716 11.4387 21.3414C11.4084 21.3111 11.3725 21.2871 11.333 21.2708C11.2935 21.2544 11.2511 21.246 11.2083 21.246ZM13.0408 23.6553H12.6638C12.6606 24.2596 13.0515 24.3693 13.0515 24.3693C12.9411 24.2583 12.8013 23.8947 13.0408 23.6553ZM14.2101 19.8337C14.2101 18.4515 17.5204 18.2892 17.5204 17.1504C17.5204 16.6868 17.1202 16.4773 16.8357 16.4773C16.9161 16.558 17.3469 17.4842 16.1104 17.4842C14.9924 17.8581 12.5575 19.9748 14.2477 20.7082C14.2469 20.9212 14.2183 22.5049 13.2032 22.3804C11.741 22.1992 11.3762 22.8037 11.6568 23.4842C11.6568 22.452 12.3817 22.6439 13.3282 22.6439C13.9201 22.6439 14.7855 21.8955 14.7855 20.6351C14.7854 20.6347 14.2101 20.4142 14.2101 19.8337ZM11.3959 20.6809V17.9052C11.2083 17.9052 11.0586 18.1947 11.0586 18.1947V20.5626V20.5474L10.8536 20.548L10.8553 20.8471C11.0129 20.8469 11.3959 20.7655 11.3959 20.6809ZM11.9657 24.2574C11.9657 24.2574 11.673 23.7975 11.9866 23.4841H11.6567C11.5241 24.0583 11.9657 24.2574 11.9657 24.2574ZM14.0064 23.6613H13.7327C13.7306 24.0879 14.2261 24.2496 14.2261 24.2496C14.0517 24.0756 13.932 23.7346 14.0064 23.6613Z" fill="#6A7AB5"/>
<path d="M4.80123 19.0532L4.78305 18.9971L4.77526 18.9389C4.74853 18.7392 4.70025 18.3674 4.41321 18.3008C4.33653 18.2831 4.25724 18.2921 4.17246 18.3269C4.19553 18.2386 4.19293 18.1586 4.16513 18.0854C4.05942 17.8102 3.68469 17.8138 3.48335 17.8163H3.42423L3.36588 17.8056C3.1682 17.7692 2.79944 17.7005 2.64805 17.9528C2.60726 18.0202 2.59122 18.0984 2.5981 18.1895C2.52156 18.1401 2.44426 18.1178 2.36635 18.1218C2.07152 18.1375 1.95909 18.4947 1.89875 18.6873L1.88027 18.7429L1.85292 18.795C1.75638 18.9722 1.57734 19.301 1.77074 19.5235C1.82237 19.5831 1.89188 19.6228 1.98063 19.6439C1.91051 19.702 1.86514 19.7681 1.84544 19.8443C1.76844 20.1285 2.07397 20.3458 2.23742 20.4626L2.28539 20.4977L2.32679 20.5394C2.46534 20.6862 2.72305 20.9574 2.99421 20.8425C3.06616 20.8116 3.12543 20.758 3.17309 20.6802C3.20716 20.765 3.25589 20.828 3.32173 20.8712C3.56859 21.0313 3.86953 20.8083 4.03146 20.6893L4.07928 20.6543L4.13244 20.6282C4.31422 20.5412 4.65275 20.3804 4.62723 20.0868C4.62051 20.0078 4.58752 19.9358 4.52855 19.8666C4.61944 19.8613 4.69414 19.8336 4.7551 19.7843C4.9847 19.5991 4.86539 19.2441 4.80123 19.0532Z" fill="white"/>
<path d="M3.51097 19.2912C5.15912 20.2654 4.65164 19.1939 4.61529 19.0355C4.57878 18.8778 4.56487 17.6928 3.51097 19.2912ZM3.4074 19.535C2.99051 21.4028 3.85224 20.5897 3.99125 20.5067C4.13011 20.4232 5.25276 20.0437 3.4074 19.535ZM3.14281 19.5122C1.23665 19.6923 2.27696 20.2609 2.39932 20.3674C2.52183 20.4733 3.22912 21.4241 3.14281 19.5122ZM3.08293 19.253C2.32233 17.4962 2.10281 18.6612 2.03941 18.8106C1.97617 18.9591 1.29042 19.9264 3.08293 19.253Z" fill="#ED1C24"/>
<path d="M30.306 18.7951L30.2787 18.743L30.2602 18.6872C30.1997 18.4946 30.0871 18.1371 29.7935 18.1217C29.7145 18.118 29.6375 18.1399 29.5611 18.1886C29.5682 18.0982 29.5514 18.0201 29.5115 17.9527C29.3595 17.7002 28.9913 17.769 28.7935 17.8053L28.7345 17.816H28.6756C28.4752 17.8133 28.1001 17.8099 27.9947 18.0852C27.966 18.1583 27.9639 18.2385 27.9863 18.3267C27.9029 18.292 27.8236 18.283 27.7463 18.3007C27.4596 18.367 27.4104 18.739 27.385 18.9387L27.376 18.9969L27.3583 19.0529C27.2938 19.2439 27.175 19.5989 27.4043 19.7845C27.4651 19.8337 27.5396 19.8612 27.6308 19.8667C27.5717 19.9359 27.5387 20.0083 27.5322 20.087C27.5068 20.3806 27.8449 20.5413 28.0269 20.6282L28.0797 20.6543L28.1273 20.6893C28.2895 20.8085 28.5908 21.0312 28.837 20.8712C28.9038 20.8279 28.9521 20.7651 28.9858 20.6801C29.0337 20.7579 29.0925 20.8112 29.1652 20.8424C29.436 20.9573 29.6942 20.6861 29.8326 20.5394L29.874 20.4977L29.9215 20.4625C30.0854 20.3459 30.3906 20.1284 30.3141 19.8444C30.2935 19.7683 30.2492 19.7017 30.1785 19.644C30.2667 19.6229 30.3366 19.5832 30.3879 19.5236C30.5817 19.3009 30.403 18.9723 30.306 18.7951Z" fill="white"/>
<path d="M28.8487 19.1167C27.4135 17.8506 28.5887 18.0017 28.7502 17.9873C28.911 17.9739 30.0428 17.6205 28.8487 19.1167ZM28.6489 19.2911C27.0009 20.2653 27.5071 19.1938 27.5444 19.0354C27.5805 18.8778 27.5941 17.6928 28.6489 19.2911ZM28.7521 19.535C29.1693 21.4028 28.3075 20.5896 28.1681 20.5067C28.0293 20.4231 26.9072 20.0437 28.7521 19.535ZM29.0164 19.5122C30.9224 19.6923 29.8829 20.2609 29.7601 20.3674C29.6385 20.4732 28.9301 21.424 29.0164 19.5122ZM29.0757 19.253C29.8366 17.4962 30.0558 18.6612 30.1194 18.8106C30.1825 18.959 30.8682 19.9263 29.0757 19.253Z" fill="#ED1C24"/>
<path d="M29.4459 19.3079C29.4441 19.2925 29.4392 19.2792 29.4371 19.2642C29.5902 19.152 29.7554 19.0316 29.7554 19.0316L29.7396 18.996L29.3618 19.0621C29.3159 18.9862 29.2529 18.922 29.1779 18.8746C29.1028 18.8272 29.0178 18.798 28.9295 18.7892C28.8908 18.6728 28.8524 18.5564 28.8143 18.4399L28.7755 18.4431C28.7755 18.4431 28.7495 18.6268 28.7231 18.8067C28.6108 18.837 28.5106 18.9009 28.4357 18.9899C28.3965 19.0384 28.3651 19.0928 28.3429 19.151C28.1563 19.151 27.9594 19.1518 27.9594 19.1518L27.9512 19.1903C27.9512 19.1903 28.1346 19.2797 28.3044 19.3628C28.305 19.3784 28.3028 19.3935 28.3044 19.4091C28.3171 19.5569 28.3873 19.6937 28.4999 19.7904L28.3734 20.1848L28.4062 20.2045C28.4062 20.2045 28.561 20.0444 28.6986 19.9031C28.7706 19.9265 28.8471 19.9359 28.9246 19.9291C29.0025 19.9231 29.0764 19.8999 29.1436 19.8649C29.3033 19.9798 29.4834 20.1099 29.4834 20.1099L29.5127 20.0844C29.5127 20.0844 29.4105 19.8915 29.3196 19.7189C29.4135 19.6035 29.4588 19.4561 29.4459 19.3079Z" fill="white"/>
<path d="M28.8463 19.0211C28.8019 19.0245 28.7587 19.0368 28.7192 19.0573C28.6797 19.0779 28.6447 19.1062 28.6164 19.1405C28.5806 19.1832 28.5559 19.234 28.5445 19.2885C28.533 19.343 28.5352 19.3995 28.5508 19.4529C28.5664 19.5064 28.5949 19.5552 28.6339 19.595C28.6728 19.6347 28.721 19.6643 28.7741 19.681C28.8272 19.6977 28.8836 19.7011 28.9384 19.6908C28.9931 19.6805 29.0444 19.6568 29.0878 19.622C29.1312 19.5871 29.1654 19.542 29.1872 19.4908C29.209 19.4396 29.2179 19.3837 29.2129 19.3283C29.2091 19.284 29.1966 19.2409 29.1761 19.2015C29.1556 19.1621 29.1275 19.1271 29.0934 19.0985C29.0594 19.07 29.02 19.0485 28.9776 19.0352C28.9352 19.0219 28.8906 19.0171 28.8463 19.0211ZM3.31075 19.1167C4.74626 17.8506 3.5706 18.0017 3.40944 17.9873C3.24797 17.9739 2.11631 17.6205 3.31075 19.1167Z" fill="#ED1C24"/>
<path d="M3.8538 19.362C4.02458 19.2791 4.20729 19.1894 4.20729 19.1894L4.19858 19.1511C4.19858 19.1511 4.00213 19.1503 3.8153 19.1503C3.79327 19.092 3.76201 19.0376 3.72273 18.9892C3.64792 18.9001 3.54756 18.8361 3.43523 18.806L3.38344 18.4424L3.34403 18.4392C3.34403 18.4392 3.2869 18.6152 3.23022 18.7884C3.14172 18.7971 3.05645 18.8262 2.98119 18.8736C2.90593 18.9209 2.84276 18.9852 2.79668 19.0613L2.41844 18.9953L2.40332 19.0309C2.40332 19.0309 2.5683 19.1512 2.72122 19.2635C2.71877 19.2786 2.71434 19.2922 2.71266 19.3071C2.6999 19.4553 2.7455 19.6026 2.83976 19.7177C2.74795 19.8903 2.64591 20.0832 2.64591 20.0832L2.676 20.1086C2.676 20.1086 2.8558 19.9783 3.01529 19.8636C3.0822 19.8985 3.15613 19.9212 3.23404 19.9277C3.31035 19.9345 3.38724 19.9257 3.45998 19.9016L3.75175 20.2032L3.78582 20.1833L3.65872 19.7896C3.77099 19.6925 3.8411 19.5556 3.85426 19.4077C3.85624 19.3927 3.8538 19.3776 3.8538 19.362Z" fill="white"/>
<path d="M3.54406 19.1406C3.5158 19.1061 3.48083 19.0778 3.44129 19.0572C3.40174 19.0367 3.35844 19.0244 3.314 19.0211C3.26976 19.0172 3.22518 19.022 3.18281 19.0353C3.14044 19.0487 3.10112 19.0702 3.06708 19.0987C3.03304 19.1273 3.00496 19.1622 2.98445 19.2016C2.96394 19.241 2.95139 19.2841 2.94753 19.3283C2.93989 19.419 2.96784 19.5058 3.02543 19.5756C3.06863 19.6267 3.12595 19.6638 3.1902 19.6824C3.25445 19.701 3.32276 19.7001 3.38653 19.68C3.4503 19.6598 3.50669 19.6213 3.54861 19.5692C3.59053 19.5171 3.61611 19.4537 3.62212 19.3871C3.62969 19.2978 3.60163 19.2092 3.54406 19.1406Z" fill="#ED1C24"/>
<path d="M3.52024 11.152C2.71794 11.0103 1.94954 11.5489 1.80778 12.3514C1.66617 13.1543 2.2042 13.9225 3.00666 14.0641C3.80973 14.2059 4.57843 13.6674 4.71973 12.8647C4.8618 12.0622 4.32347 11.294 3.52024 11.152Z" fill="white"/>
<path d="M3.85484 12.2703C3.83367 12.2569 3.81269 12.2433 3.7919 12.2294C3.67061 12.149 3.43276 11.9918 3.42619 11.9871C3.39334 11.9645 3.36126 11.9429 3.32964 11.9217C3.23529 11.8574 3.1389 11.7961 3.04062 11.7379C3.00757 11.719 2.974 11.7009 2.93995 11.6839C2.79864 11.6125 2.66314 11.5694 2.50335 11.5554C2.37952 11.645 2.2723 11.7556 2.18652 11.8821C2.55407 12.0147 2.91306 12.2275 3.66037 12.6916C3.7033 12.5932 3.84628 12.2888 3.85484 12.2703ZM3.51021 13.0628C3.52533 13.0256 3.59086 12.8594 3.61775 12.7954C2.8518 12.3197 2.49617 12.1091 2.12786 11.9788C2.06994 12.0836 2.02691 12.196 2 12.3126C2.2102 12.6013 2.77374 12.8849 3.51021 13.0628ZM3.42726 11.8539C3.71399 11.6843 4.03999 11.7304 4.29143 11.8163C4.19754 11.6939 4.0826 11.5892 3.95199 11.5071C3.7143 11.4596 3.38632 11.4524 3.12509 11.66C3.22011 11.7156 3.31818 11.7807 3.42726 11.8539Z" fill="#ED1C24"/>
<path d="M2.28308 13.2241C2.32142 13.2504 2.36083 13.2754 2.40238 13.299C2.48701 13.3456 2.57821 13.3859 2.67293 13.4204C2.71295 13.4358 2.75358 13.4496 2.79468 13.4629C2.93812 13.5102 3.26809 13.5958 3.29253 13.6014L3.4679 13.1671C2.89688 13.0255 2.27162 12.7776 1.97465 12.4554C1.95659 12.6007 1.96351 12.7481 1.99512 12.8911C2.05791 13.0278 2.15842 13.1366 2.28308 13.2241ZM3.31178 13.7209L3.19262 13.6903C3.07456 13.6608 2.95721 13.6284 2.84066 13.5933C2.90008 13.72 2.99342 13.8187 3.09302 13.895C3.22321 13.9124 3.35528 13.9099 3.4847 13.8876C3.3935 13.8162 3.31178 13.7209 3.31178 13.7209ZM4.50607 12.2312C4.47927 12.1427 4.44323 12.0574 4.39853 11.9765C4.1732 11.8763 3.83056 11.7781 3.53114 11.9246L3.94391 12.1973C4.03006 12.1896 4.10935 12.1872 4.18191 12.189C4.22148 12.1896 4.25829 12.1918 4.29327 12.1953C4.37439 12.2024 4.44329 12.2154 4.50607 12.2312ZM4.29465 12.3068C4.28258 12.9855 3.96254 13.509 3.68681 13.8367C4.11836 13.6867 4.45872 13.3147 4.54365 12.8343C4.57116 12.6755 4.56899 12.5129 4.53724 12.3549C4.45822 12.3306 4.37694 12.3145 4.29465 12.3068ZM3.02199 11.6024C3.21523 11.4321 3.44346 11.3745 3.65412 11.3697C3.60027 11.3521 3.54524 11.3382 3.48944 11.3283C3.20086 11.2773 2.90351 11.3259 2.64619 11.4661C2.77894 11.4923 2.89901 11.5388 3.02199 11.6024Z" fill="#ED1C24"/>
<path d="M3.96034 12.3074C3.86211 12.5119 3.80437 12.6372 3.7564 12.7512C3.74158 12.7857 3.72738 12.8191 3.71286 12.8541C3.68995 12.9113 3.61937 13.0889 3.61937 13.0889L3.57752 13.1934L3.39512 13.645C3.44553 13.7119 3.50648 13.7663 3.56637 13.8086C3.83721 13.4997 4.17451 12.9802 4.18475 12.3002C4.11631 12.2978 4.0413 12.3004 3.96034 12.3074ZM2.70433 13.5484C2.61304 13.5176 2.52371 13.4813 2.43684 13.4397C2.46892 13.5385 2.51506 13.6266 2.56134 13.7018C2.65865 13.7643 2.76543 13.8133 2.87939 13.8485C2.80576 13.7655 2.74206 13.667 2.70433 13.5484ZM2.30302 13.3666C2.24233 13.3303 2.18474 13.289 2.13086 13.2432C2.19118 13.3508 2.26648 13.4493 2.3545 13.5358C2.33274 13.4809 2.31552 13.4243 2.30302 13.3666Z" fill="#ED1C24"/>
<path d="M27.2795 12.8648C27.4214 13.6676 28.1893 14.2059 28.9919 14.0643C29.7948 13.9227 30.3326 13.1543 30.1917 12.3515C30.05 11.5492 29.2817 11.0107 28.4788 11.1522C27.6759 11.2941 27.1378 12.0624 27.2795 12.8648Z" fill="white"/>
<path d="M28.1446 12.2703L28.208 12.2294C28.3625 12.1274 28.5165 12.0248 28.6703 11.9217C28.7644 11.857 28.8608 11.7957 28.9593 11.7379C28.9937 11.7185 29.027 11.7002 29.0596 11.6839C29.2006 11.6125 29.3366 11.5694 29.4962 11.5554C29.6201 11.6447 29.7271 11.7553 29.8122 11.8821C29.4449 12.0147 29.087 12.2275 28.3386 12.6916C28.2958 12.5932 28.1535 12.2888 28.1446 12.2703ZM28.4894 13.0628C28.4741 13.0256 28.4081 12.8594 28.3828 12.7954C29.1472 12.3197 29.5039 12.1091 29.872 11.9788C29.9289 12.0815 29.9719 12.1933 30.0001 12.3126C29.7894 12.6013 29.2257 12.8849 28.4894 13.0628ZM28.5723 11.8539C28.2853 11.6843 27.9596 11.7304 27.708 11.8163C27.8022 11.6939 27.9174 11.5892 28.0482 11.5071C28.2856 11.4596 28.6133 11.4524 28.8742 11.66C28.7717 11.7217 28.6711 11.7863 28.5723 11.8539Z" fill="#ED1C24"/>
<path d="M29.7157 13.2241C29.6774 13.2511 29.6377 13.2761 29.5967 13.299C29.5126 13.3456 29.4215 13.3859 29.3269 13.4204C29.2865 13.4358 29.2455 13.4496 29.2046 13.4629C29.0616 13.5102 28.7316 13.5958 28.7069 13.6014C28.7012 13.5888 28.5772 13.2832 28.5315 13.1671C29.1022 13.0255 29.727 12.7776 30.0251 12.4554C30.0426 12.6008 30.0355 12.7481 30.0041 12.8911C29.9415 13.0278 29.8411 13.1366 29.7157 13.2241ZM28.6879 13.7209L28.8062 13.6903C28.9247 13.6608 29.0424 13.6285 29.1594 13.5933C29.0989 13.72 29.006 13.8187 28.9067 13.895C28.7766 13.9124 28.6446 13.9099 28.5153 13.8876C28.6058 13.8162 28.6879 13.7209 28.6879 13.7209ZM27.4935 12.2312C27.52 12.1425 27.5563 12.0571 27.6017 11.9765C27.8262 11.8763 28.1682 11.7781 28.4678 11.9246L28.0554 12.1972C27.9762 12.19 27.8967 12.1872 27.8172 12.189C27.7799 12.1895 27.7426 12.1916 27.7055 12.1953C27.634 12.2016 27.5631 12.2136 27.4935 12.2312ZM27.7049 12.3068C27.7167 12.9855 28.0376 13.509 28.3134 13.8367C27.8806 13.6867 27.5399 13.3147 27.4559 12.8343C27.428 12.6755 27.4302 12.5128 27.4626 12.3549C27.5415 12.3306 27.6227 12.3145 27.7049 12.3068ZM28.9779 11.6024C28.7845 11.4321 28.5556 11.3745 28.3454 11.3697C28.3993 11.352 28.4544 11.3381 28.5103 11.3283C28.7987 11.2773 29.0959 11.3259 29.3531 11.4661C29.2208 11.4922 29.1006 11.5388 28.9779 11.6024Z" fill="#ED1C24"/>
<path d="M28.0397 12.3074C28.1109 12.4539 28.1792 12.6019 28.2445 12.7512L28.2867 12.8541C28.3099 12.9113 28.3805 13.0889 28.3805 13.0889L28.422 13.1934L28.6048 13.645C28.5564 13.7079 28.4987 13.7631 28.4337 13.8086C28.1628 13.4997 27.8251 12.9802 27.8154 12.3002C27.8836 12.2978 27.9589 12.3004 28.0397 12.3074ZM29.2955 13.5484C29.3869 13.5176 29.4762 13.4813 29.5632 13.4397C29.5319 13.5317 29.4899 13.6196 29.4381 13.7018C29.3394 13.7648 29.2326 13.8141 29.1206 13.8485C29.1941 13.7655 29.2578 13.667 29.2955 13.5484ZM29.6972 13.3666C29.7576 13.33 29.815 13.2888 29.869 13.2432C29.8087 13.3509 29.7334 13.4494 29.6452 13.5358C29.6668 13.4808 29.6841 13.4243 29.6972 13.3666Z" fill="#ED1C24"/>
</svg>
