<svg width="32" height="32" viewBox="0 0 32 32" fill="none" xmlns="http://www.w3.org/2000/svg">
<path d="M16 0C7.17969 0 0 7.17969 0 16C0 24.8203 7.17969 32 16 32C24.8203 32 32 24.8203 32 16C31.9922 7.17969 24.8203 0 16 0Z" fill="#00285E"/>
<path d="M30.3281 16C30.3281 8.08594 23.9141 1.67188 15.9922 1.67188C8.07812 1.67188 1.65625 8.08594 1.65625 16C1.65625 23.9141 8.07812 30.3359 15.9922 30.3359C23.9141 30.3281 30.3281 23.9141 30.3281 16Z" fill="white"/>
<path d="M25.125 16C25.125 10.9609 21.0391 6.875 16 6.875C10.9609 6.875 6.875 10.9609 6.875 16C6.875 21.0391 10.9609 25.125 16 25.125C21.0391 25.125 25.125 21.0391 25.125 16Z" fill="#6CADDF"/>
<path d="M16 25.8437C10.5703 25.8437 6.15625 21.4219 6.15625 15.9922C6.15625 10.5625 10.5703 6.14844 16 6.14844C21.4297 6.14844 25.8516 10.5625 25.8516 15.9922C25.8438 21.4297 21.4297 25.8437 16 25.8437ZM16 6.70312C10.875 6.70312 6.70312 10.875 6.70312 16C6.70312 21.125 10.875 25.2969 16 25.2969C21.125 25.2969 25.2969 21.125 25.2969 16C25.2969 10.875 21.125 6.70312 16 6.70312Z" fill="#00285E"/>
<path d="M16 31.3438C7.53906 31.3438 0.65625 24.4609 0.65625 16C0.65625 7.53906 7.53906 0.65625 16 0.65625C24.4609 0.65625 31.3438 7.53906 31.3438 16C31.3359 24.4609 24.4609 31.3438 16 31.3438ZM16 0.984375C7.71875 0.984375 0.992187 7.71875 0.992187 16C0.992187 24.2734 7.72656 31.0078 16 31.0078C24.2734 31.0078 31.0078 24.2734 31.0078 16C31.0078 7.71875 24.2734 0.984375 16 0.984375Z" fill="#6CADDF"/>
<path d="M3.19531 15.6484L2.9375 15.7109L2.86719 15.4453L3.29688 15.3203H3.51562V16.8203H3.19531V15.6484ZM3.89062 16.4062C3.89062 16.2188 3.97656 16.1172 4.13281 16.0469C4.01562 15.9766 3.94531 15.8828 3.94531 15.7188V15.7109C3.94531 15.4844 4.15625 15.3047 4.46875 15.3047C4.78125 15.3047 4.99219 15.4844 4.99219 15.7109V15.7188C4.99219 15.875 4.92188 15.9766 4.80469 16.0469C4.95312 16.125 5.04688 16.2188 5.04688 16.3984V16.4062C5.04688 16.6797 4.80469 16.8438 4.47656 16.8438C4.14844 16.8438 3.89062 16.6641 3.89062 16.4062ZM4.71875 16.3828C4.71875 16.2656 4.60938 16.1953 4.46094 16.1953C4.3125 16.1953 4.20312 16.2656 4.20312 16.375C4.20312 16.4766 4.29688 16.5625 4.46094 16.5625C4.625 16.5625 4.71875 16.4844 4.71875 16.3828ZM4.67969 15.7578C4.67969 15.6641 4.60156 15.5781 4.46875 15.5781C4.33594 15.5781 4.25781 15.6562 4.25781 15.75V15.7578C4.25781 15.8594 4.34375 15.9375 4.46875 15.9375C4.59375 15.9375 4.67969 15.8594 4.67969 15.7578ZM27.4766 16.2031C27.3984 16.2656 27.3047 16.3047 27.1719 16.3047C26.8516 16.3047 26.6406 16.125 26.6406 15.8281V15.8203C26.6406 15.5234 26.875 15.2969 27.2109 15.2969C27.4141 15.2969 27.5234 15.3438 27.6406 15.4609C27.75 15.5703 27.8125 15.7266 27.8125 16.0234V16.0312C27.8125 16.5156 27.5859 16.8438 27.1641 16.8438C26.9453 16.8438 26.8047 16.7734 26.6719 16.6641L26.8438 16.4141C26.9531 16.5 27.0469 16.5391 27.1719 16.5391C27.3984 16.5391 27.4609 16.3281 27.4766 16.2031ZM27.4844 15.8125C27.4844 15.6797 27.3906 15.5781 27.2266 15.5781C27.0625 15.5781 26.9766 15.6719 26.9766 15.8047V15.8125C26.9766 15.9453 27.0781 16.0391 27.2344 16.0391C27.3906 16.0312 27.4844 15.9375 27.4844 15.8125ZM28.8594 16.4922H28.1328L28.0781 16.2578L28.8906 15.3125H29.1641V16.2266H29.3672V16.4922H29.1641V16.8125H28.8516V16.4922H28.8594ZM28.8594 16.2266V15.7656L28.4609 16.2266H28.8594Z" fill="#6CADDF"/>
<path d="M16 25.2969C10.875 25.2969 6.70312 21.125 6.70312 16C6.70312 10.875 10.875 6.70312 16 6.70312C21.125 6.70312 25.2969 10.875 25.2969 16C25.2969 21.125 21.125 25.2969 16 25.2969ZM16 7.04687C11.0625 7.04687 7.04687 11.0625 7.04687 16C7.04687 20.9375 11.0625 24.9531 16 24.9531C20.9375 24.9531 24.9531 20.9375 24.9531 16C24.9531 11.0625 20.9375 7.04687 16 7.04687Z" fill="white"/>
<path fill-rule="evenodd" clip-rule="evenodd" d="M15.8281 7.99219C11.2422 7.99219 8.59375 8.59375 8.59375 8.59375C8.59375 8.59375 7.53906 12.6172 8.14062 17.7656C8.39062 19.9297 10.1484 24.5781 15.9766 26.1719C21.8047 24.5859 23.5625 19.9297 23.8125 17.7656C24.4141 12.6094 23.3594 8.59375 23.3594 8.59375C23.3594 8.59375 20.7109 7.99219 16.125 7.99219H15.8281Z" fill="#00285E"/>
<path fill-rule="evenodd" clip-rule="evenodd" d="M23.0078 16.5703C22.9531 18.1328 22.7109 22.8047 15.9688 25.375C9.28125 22.875 8.92969 18.0391 8.92969 16.5703H23.0078Z" fill="#97C1E7"/>
<path fill-rule="evenodd" clip-rule="evenodd" d="M22.8047 16.3125C22.9844 12.4375 22.3281 9.29688 22.3281 9.29688C22.3281 9.29688 19.8125 8.8125 15.9766 8.8125C12.1328 8.8125 9.57812 9.34375 9.57812 9.34375C9.57812 9.34375 8.88281 12.5 9.07031 16.3047H22.8047V16.3125Z" fill="white"/>
<path d="M16.1797 25.2344L9.0625 16.6328C8.80469 18.4062 10.2422 23.6328 16.1797 25.2344ZM11.1875 16.5781L17.7734 24.5234C18.4375 24.2031 18.9297 23.8906 19.3984 23.5156L13.6484 16.5781H11.1875ZM15.7578 16.5859L20.625 22.4531C21.1016 21.9141 21.5078 21.4219 21.7969 20.9062L18.2188 16.5859H15.7578ZM22.8906 16.5859L20.4609 16.5781L22.5 19.0391C22.8516 18.2812 22.8906 17.0078 22.8906 16.5859Z" fill="#6CADDF"/>
<path d="M18.8437 19.8047C18.8281 19.75 18.7812 19.7031 18.7266 19.6797L18.3203 19.5391C18.2812 19.5234 18.25 19.5312 18.2109 19.5391C18.1797 19.3984 18.1016 19.2734 17.9844 19.1875C17.9687 19.1797 17.9531 19.1641 17.9375 19.1562C17.9141 19.1406 17.8828 19.125 17.8516 19.1094C17.7969 19.0859 17.7422 19.0703 17.6953 19.0547C17.5781 19.0156 17.4609 18.9766 17.3125 18.875C17.1719 18.7734 17.1094 18.6797 17.0469 18.5938C17.0312 18.5703 17.0156 18.5547 17 18.5312C16.9609 18.4688 16.9062 18.4141 16.8516 18.3672C16.75 18.2969 16.625 18.2578 16.5 18.2578C16.4687 18.2578 16.4453 18.2656 16.4141 18.2656V18.2578C16.4219 18.2109 16.4062 18.1562 16.3828 18.1172L16.1328 17.7812C16.0937 17.7344 16.0391 17.7031 15.9766 17.7031C15.9141 17.7031 15.8594 17.7266 15.8281 17.7734L15.5625 18.1094C15.5312 18.1484 15.5156 18.2031 15.5234 18.2578C15.5 18.2578 15.4844 18.25 15.4609 18.25C15.3359 18.25 15.2109 18.2891 15.1094 18.3594C15.0937 18.3672 15.0781 18.3828 15.0703 18.3906C15.0469 18.4141 15.0234 18.4297 15 18.4609C14.9609 18.5078 14.9297 18.5469 14.8984 18.5938C14.8203 18.6953 14.7578 18.7891 14.6016 18.8984C14.4609 19 14.3516 19.0312 14.25 19.0625L14.1797 19.0859C14.1094 19.1016 14.0391 19.1328 13.9766 19.1797C13.8516 19.2656 13.7734 19.3984 13.7422 19.5469C13.7031 19.5312 13.6562 19.5312 13.6094 19.5391L13.2109 19.6719C13.1562 19.6875 13.1094 19.7344 13.0859 19.7891C13.0703 19.8438 13.0781 19.9062 13.1094 19.9531L13.3516 20.3047C13.3828 20.3437 13.4219 20.3672 13.4687 20.3828C13.4062 20.5156 13.3906 20.6797 13.4375 20.8203C13.4453 20.8359 13.4531 20.8516 13.4531 20.8672C13.4609 20.8984 13.4766 20.9297 13.5 20.9609C13.5312 21.0078 13.5625 21.0547 13.5937 21.0938C13.6719 21.1953 13.7422 21.2891 13.7969 21.4687C13.8516 21.6328 13.8437 21.7422 13.8437 21.8516V21.9297C13.8359 22.0078 13.8438 22.0781 13.875 22.1484C13.9219 22.2891 14.0234 22.4062 14.1406 22.4766C14.125 22.5078 14.1094 22.5391 14.1172 22.5703V22.9922C14.1172 23.0547 14.1484 23.1094 14.1953 23.1406C14.2422 23.1719 14.3047 23.1875 14.3594 23.1719L14.7734 23.0547C14.8125 23.0469 14.8359 23.0156 14.8594 22.9922C14.9844 23.1094 15.1562 23.1641 15.3203 23.1562C15.3516 23.1562 15.3828 23.1484 15.4219 23.1406C15.4766 23.125 15.5312 23.1094 15.5781 23.0938C15.6953 23.0547 15.8125 23.0156 16 23.0156C16.1719 23.0156 16.2734 23.0547 16.3828 23.0859L16.4531 23.1094C16.5234 23.1406 16.6016 23.1484 16.6719 23.1484C16.8203 23.1484 16.9688 23.0859 17.0781 22.9844C17.1016 23.0156 17.125 23.0312 17.1641 23.0469L17.5703 23.1719C17.625 23.1875 17.6875 23.1797 17.7422 23.1484C17.7891 23.1172 17.8203 23.0625 17.8203 23L17.8281 22.5781C17.8281 22.5469 17.8203 22.5156 17.8047 22.4844C17.9297 22.4141 18.0312 22.2969 18.0703 22.1562C18.0781 22.1406 18.0781 22.125 18.0859 22.1016C18.0937 22.0703 18.1016 22.0391 18.1016 22C18.1094 21.9453 18.1094 21.8906 18.1094 21.8359C18.1094 21.7109 18.1094 21.5938 18.1641 21.4141C18.2187 21.25 18.2812 21.1641 18.3516 21.0781C18.3672 21.0547 18.3828 21.0391 18.3984 21.0156C18.4453 20.9609 18.4844 20.8906 18.5078 20.8203C18.5547 20.6719 18.5391 20.5078 18.4687 20.3672C18.5078 20.3516 18.5391 20.3359 18.5625 20.3047L18.8125 19.9609C18.8516 19.9219 18.8672 19.8672 18.8437 19.8047Z" fill="#00285E"/>
<path d="M15.75 20.7188C15.75 20.5859 15.8594 20.4844 15.9922 20.4844C16.125 20.4844 16.2344 20.5938 16.2344 20.7188C16.2344 20.8516 16.125 20.9531 15.9922 20.9531C15.8594 20.9531 15.75 20.8438 15.75 20.7188Z" fill="#FFC758"/>
<path d="M15.9844 18.7031C15.9453 18.5547 15.8516 18.4297 15.7344 18.3594L15.9844 18.0391L16.2188 18.3594C16.1016 18.4375 16.0234 18.5547 15.9844 18.7031ZM14.0703 20.0938C13.9453 20.0078 13.8594 19.8984 13.8125 19.7656L13.4375 19.8906L13.6641 20.2188C13.7734 20.1406 13.9219 20.0938 14.0703 20.0938ZM14.8125 22.3047C14.6953 22.3984 14.5625 22.4453 14.4141 22.4453V22.8438L14.8047 22.7266C14.7578 22.6016 14.7578 22.4531 14.8125 22.3047ZM17.1562 22.3125C17.2109 22.4531 17.2109 22.5938 17.1641 22.7266L17.5469 22.8438L17.5547 22.4453C17.4219 22.4531 17.2812 22.4063 17.1562 22.3125ZM17.8828 20.1016C18.0391 20.0938 18.1719 20.1328 18.2812 20.2188L18.5156 19.8984L18.1328 19.7656C18.1016 19.8906 18.0078 20.0156 17.8828 20.1016ZM15.5 22.3203C15.3203 22.3203 15.1797 22.1797 15.1797 22C15.1797 21.9766 15.1562 21.9688 15.1406 21.9844C15.0234 22.125 14.9375 22.25 14.9297 22.3984C14.9219 22.6172 15.1094 22.7969 15.3359 22.7969H15.375C15.3984 22.7969 15.4141 22.7969 15.4453 22.7891C15.6016 22.75 15.7422 22.6719 16.0078 22.6719C16.2344 22.6719 16.3516 22.7344 16.4688 22.7656C16.5156 22.7812 16.5703 22.7969 16.625 22.7969C16.8516 22.7969 17.0312 22.6172 17.0312 22.3984C17.0312 22.2422 16.9375 22.125 16.8203 21.9844C16.8125 21.9688 16.7891 21.9844 16.7891 22C16.7891 22.1719 16.6406 22.3203 16.4688 22.3203C16.3359 22.3203 16.1641 22.2031 15.9922 22.2031C15.8438 22.2031 15.6328 22.3203 15.5 22.3203ZM15.2891 21.8828C15.2891 22.0313 15.4062 22.1484 15.5547 22.1484C15.5703 22.1484 15.5859 22.1484 15.6094 22.1406C15.6172 22.1406 15.625 22.1406 15.6328 22.1328H15.6406C15.7344 22.1016 15.8203 22.0625 15.9844 22.0625C16.1484 22.0625 16.2266 22.1094 16.3203 22.1328C16.3516 22.1406 16.3828 22.1484 16.4141 22.1484C16.5625 22.1484 16.6797 22.0313 16.6797 21.8828C16.6797 21.8438 16.6719 21.8047 16.6562 21.7734C16.6484 21.7578 16.6406 21.7422 16.6328 21.7344C16.6328 21.7344 16.1797 21.1172 16.1641 21.1016C16.1406 21.0703 16.1094 21.0859 16.0938 21.0938C16.0703 21.1016 16.0156 21.1172 15.9766 21.1172C15.9375 21.1172 15.8906 21.1094 15.8672 21.0938C15.8359 21.0781 15.8125 21.0703 15.7969 21.1016C15.7812 21.125 15.4531 21.5703 15.3516 21.7109C15.3125 21.7578 15.2891 21.8125 15.2891 21.8828ZM17.375 21.6797C17.3203 21.8516 17.1406 21.9375 16.9688 21.8828C16.9453 21.875 16.9297 21.8906 16.9453 21.9141C17.0469 22.0625 17.1328 22.1875 17.2812 22.2422C17.4922 22.3125 17.7266 22.1953 17.7891 21.9844C17.7969 21.9688 17.7969 21.9609 17.7969 21.9453C17.8047 21.9297 17.8047 21.9063 17.8125 21.8828C17.8281 21.7188 17.7891 21.5703 17.875 21.3125C17.9453 21.1016 18.0391 21.0078 18.1094 20.9063C18.1406 20.8672 18.1719 20.8203 18.1875 20.7734C18.2578 20.5625 18.1406 20.3281 17.9297 20.2656C17.7812 20.2188 17.6328 20.2734 17.4609 20.3359C17.4453 20.3438 17.4453 20.3594 17.4688 20.3672C17.6406 20.4219 17.7344 20.6016 17.6797 20.7734C17.6406 20.8984 17.4766 21.0234 17.4219 21.1875C17.375 21.3203 17.4219 21.5469 17.375 21.6797ZM16.8906 21.7422C17.0312 21.7891 17.1875 21.7109 17.2344 21.5703C17.2422 21.5547 17.2422 21.5391 17.2422 21.5156V21.4844C17.2422 21.3906 17.2266 21.2891 17.2734 21.1406C17.3281 20.9844 17.3906 20.9219 17.4453 20.8438C17.4609 20.8203 17.4766 20.7891 17.4922 20.7578C17.5391 20.6172 17.4609 20.4688 17.3203 20.4219C17.2812 20.4141 17.2422 20.4062 17.2109 20.4141C17.1953 20.4141 17.1797 20.4141 17.1641 20.4219C17.1641 20.4219 16.4297 20.6562 16.4062 20.6641C16.375 20.6797 16.375 20.7109 16.375 20.7266C16.375 20.75 16.3672 20.8047 16.3594 20.8438C16.3516 20.875 16.3281 20.9219 16.3047 20.9453C16.2812 20.9688 16.2656 20.9922 16.2891 21.0156C16.3125 21.0391 16.625 21.4844 16.7344 21.625C16.7734 21.6797 16.8281 21.7188 16.8906 21.7422ZM17.3281 19.6953C17.4766 19.7969 17.5078 20 17.3984 20.1406C17.3828 20.1562 17.3984 20.1797 17.4219 20.1719C17.6016 20.125 17.7422 20.0781 17.8359 19.9531C17.9688 19.7734 17.9297 19.5234 17.75 19.3906C17.7422 19.3828 17.7266 19.375 17.7109 19.3672C17.6953 19.3516 17.6797 19.3438 17.6484 19.3359C17.5 19.2734 17.3438 19.2578 17.125 19.1016C16.9453 18.9688 16.8828 18.8516 16.8047 18.75C16.7812 18.7109 16.7422 18.6719 16.6953 18.6328C16.5156 18.5 16.2578 18.5391 16.1328 18.7188C16.0469 18.8438 16.0469 19 16.0547 19.1797C16.0547 19.1953 16.0781 19.2031 16.0859 19.1797C16.1875 19.0391 16.3906 19.0078 16.5391 19.1094C16.6484 19.1875 16.7188 19.3828 16.8594 19.4766C16.9844 19.5938 17.2188 19.6172 17.3281 19.6953ZM17.2422 20.1797C17.3281 20.0625 17.3047 19.8906 17.1797 19.8047C17.1719 19.7969 17.1562 19.7813 17.1328 19.7734C17.125 19.7734 17.1172 19.7656 17.1094 19.7656H17.1016C17.0078 19.7344 16.9141 19.7188 16.7812 19.625C16.6484 19.5312 16.6094 19.4453 16.5547 19.375C16.5391 19.3516 16.5156 19.3281 16.4922 19.3047C16.375 19.2188 16.2031 19.2422 16.1172 19.3672C16.0938 19.3984 16.0781 19.4297 16.0703 19.4688C16.0703 19.4844 16.0625 19.5 16.0625 19.5156V20.3047C16.0625 20.3438 16.0938 20.3438 16.1172 20.3516C16.1406 20.3594 16.1953 20.3828 16.2188 20.3984C16.25 20.4219 16.2812 20.4531 16.2969 20.4766C16.3125 20.5 16.3281 20.5234 16.3594 20.5078C16.3906 20.4922 16.9141 20.3281 17.0781 20.2734C17.1484 20.2656 17.2031 20.2266 17.2422 20.1797ZM15.4219 19.1328C15.5625 19.0312 15.7656 19.0625 15.875 19.2031C15.8906 19.2188 15.9141 19.2188 15.9141 19.1953C15.9219 19.0156 15.9219 18.8594 15.8359 18.7344C15.7109 18.5547 15.4531 18.5156 15.2734 18.6484C15.2578 18.6562 15.25 18.6641 15.2422 18.6719C15.2266 18.6797 15.2109 18.6953 15.1953 18.7188C15.0859 18.8438 15.0234 18.9844 14.8047 19.1406C14.625 19.2734 14.4922 19.2969 14.375 19.3281C14.3281 19.3438 14.2734 19.3594 14.2344 19.3906C14.0547 19.5234 14.0078 19.7734 14.1484 19.9531C14.2422 20.0781 14.3906 20.125 14.5625 20.1719C14.5781 20.1797 14.5859 20.1562 14.5781 20.1406C14.4766 20 14.5078 19.7969 14.6484 19.6953C14.7578 19.6172 14.9609 19.6094 15.1016 19.5078C15.2109 19.4297 15.3125 19.2109 15.4219 19.1328ZM15.8594 19.3672C15.7734 19.25 15.6016 19.2188 15.4844 19.3047C15.4688 19.3125 15.4609 19.3203 15.4453 19.3359L15.4219 19.3594C15.3672 19.4375 15.3203 19.5234 15.1875 19.6172C15.0547 19.7109 14.9609 19.7188 14.875 19.7578C14.8438 19.7656 14.8125 19.7812 14.7891 19.7969C14.6719 19.8828 14.6406 20.0469 14.7266 20.1719C14.75 20.2031 14.7812 20.2266 14.8125 20.2422C14.8281 20.25 14.8359 20.2578 14.8516 20.2578C14.8516 20.2578 15.5859 20.4922 15.6094 20.5C15.6484 20.5078 15.6641 20.4844 15.6719 20.4688C15.6875 20.4531 15.7188 20.4062 15.75 20.3828C15.7812 20.3594 15.8203 20.3438 15.8516 20.3359C15.8828 20.3281 15.9062 20.3203 15.9062 20.2891V19.5391C15.9141 19.4844 15.8984 19.4219 15.8594 19.3672ZM14.2969 20.7656C14.2422 20.5938 14.3359 20.4141 14.5 20.3594C14.5234 20.3516 14.5234 20.3281 14.5078 20.3203C14.3359 20.2578 14.1875 20.2031 14.0469 20.25C13.8359 20.3125 13.7188 20.5469 13.7891 20.7578C13.7891 20.7734 13.7969 20.7813 13.8047 20.7969C13.8125 20.8125 13.8203 20.8359 13.8359 20.8594C13.9219 21 14.0391 21.1016 14.125 21.3594C14.1953 21.5703 14.1719 21.7031 14.1719 21.8281C14.1641 21.875 14.1719 21.9297 14.1875 21.9844C14.2578 22.1953 14.4844 22.3125 14.6953 22.2422C14.8438 22.1953 14.9297 22.0703 15.0312 21.9141C15.0391 21.8984 15.0234 21.8828 15.0078 21.8906C14.8359 21.9453 14.6562 21.8516 14.6016 21.6875C14.5625 21.5625 14.6172 21.3672 14.5625 21.2031C14.5156 21.0547 14.3359 20.8906 14.2969 20.7656ZM14.6484 20.4297C14.5078 20.4766 14.4297 20.625 14.4766 20.7656C14.4766 20.7812 14.4844 20.7969 14.5 20.8125C14.5078 20.8203 14.5078 20.8281 14.5156 20.8281C14.5156 20.8281 14.5156 20.8359 14.5234 20.8359C14.5781 20.9141 14.6484 20.9844 14.7031 21.1328C14.7578 21.2891 14.7344 21.375 14.7422 21.4688C14.7422 21.5 14.7422 21.5312 14.7578 21.5625C14.8047 21.7031 14.9531 21.7813 15.0938 21.7344C15.1328 21.7266 15.1641 21.7031 15.1875 21.6797L15.2188 21.6484C15.2188 21.6484 15.6719 21.0312 15.6797 21.0078C15.7031 20.9766 15.6797 20.9531 15.6641 20.9375C15.6484 20.9219 15.6172 20.875 15.6094 20.8359C15.6016 20.8047 15.5938 20.7578 15.5938 20.7266C15.5938 20.6953 15.5938 20.6719 15.5625 20.6641C15.5312 20.6562 15.0078 20.4844 14.8438 20.4297C14.7812 20.4141 14.7188 20.4062 14.6484 20.4297Z" fill="#EE3124"/>
<path d="M18.2344 12.4531L19.8828 11.8828C19.8828 11.8828 19.7422 12.5703 19.7812 13.1016C19.8281 13.7891 20.2266 14.3125 20.2266 14.3125L18.1953 15.0156L18.2344 12.4531Z" fill="#FFC758"/>
<path d="M20.2266 14.3125C20.2266 14.3125 19.8672 13.7969 19.8047 13.1953C19.7578 12.7422 19.8047 12.3516 19.8828 11.8828C19.8125 12.1953 19.5469 13.0781 18.8047 13.8984C18.5078 14.2266 18.375 14.5156 18.3203 14.7188L18.2891 10.8359C18.2891 10.8359 17.8984 10.9766 17.8594 10.9844C17.8125 11 17.7891 11.0313 17.7891 11.0391C17.7891 11.0625 17.7734 11.0781 17.7422 11.0859C17.7109 11.0938 17.4844 11.1797 17.3281 11.2266C17.2969 11.2344 17.3125 11.2656 17.3281 11.2656C17.5156 11.2578 17.7812 11.2344 17.8047 11.2344C17.8438 11.2266 17.8594 11.2109 17.8594 11.1875V11.1797C17.8672 11.1484 17.8906 11.125 17.9219 11.125C17.9453 11.125 18.0859 11.1094 18.1719 11.0938L18.1328 15.2734H18.3203V14.9766L20.2266 14.3125Z" fill="#D4A11E"/>
<path d="M12.9219 15.125C12.9219 15.125 12.6172 14.8984 12.5312 14.4688C12.4453 14.0312 12.6641 13.7812 12.6641 13.7812L14.6641 13.0938C14.6641 13.0938 14.5391 13.4922 14.6562 13.9453C14.8047 14.5156 15.1094 14.8984 15.1094 14.8984C15.1094 14.8984 14.375 14.7578 13.6641 14.8516C12.9922 14.9375 12.9219 15.125 12.9219 15.125ZM10.625 14.625C10.625 14.625 10.875 13.9453 11.6016 13.2031C12.1562 12.6406 12.5156 12.4766 12.5156 12.4766C12.5156 12.4766 12.1953 12.9375 12.0625 13.6953C11.9766 14.1641 12.0703 14.7578 12.0703 14.7578C12.0703 14.7578 11.6953 14.6797 11.2656 14.6328C10.9062 14.5938 10.625 14.625 10.625 14.625Z" fill="#FFC758"/>
<path d="M12.5156 12.4766C12.5156 12.4766 12.2031 12.9375 12.0703 13.6953C11.9844 14.1641 12.0781 14.7578 12.0781 14.7578C12.0781 14.7578 11.9844 14.7344 11.7656 14.6875C10.875 14.4844 12.5156 12.4766 12.5156 12.4766ZM13.6875 13.0234L13.6719 11.2266C13.6328 11.2422 13.2812 11.3594 13.2422 11.375C13.1953 11.3906 13.1719 11.4219 13.1719 11.4375C13.1719 11.4609 13.1562 11.4766 13.125 11.4844C13.0938 11.4922 12.8672 11.5703 12.7109 11.625C12.6797 11.6328 12.6953 11.6641 12.7109 11.6641C12.8906 11.6562 13.1641 11.6328 13.1875 11.6328C13.2266 11.625 13.2422 11.6094 13.25 11.5859V11.5781C13.2578 11.5469 13.2812 11.5234 13.3125 11.5234C13.3359 11.5234 13.4688 11.5078 13.5625 11.5L13.5469 13.0312H13.6875V13.0234ZM16.0156 11.3984H16.1563V9.67188C16.1563 9.67188 15.7656 9.8125 15.7266 9.82031C15.6797 9.83594 15.6562 9.86719 15.6562 9.875C15.6562 9.89844 15.6406 9.91406 15.6094 9.92188C15.5781 9.92969 15.3516 10.0078 15.1953 10.0625C15.1641 10.0703 15.1797 10.1016 15.1953 10.1016C15.3828 10.0938 15.6484 10.0703 15.6719 10.0703C15.7109 10.0625 15.7266 10.0469 15.7344 10.0234C15.7422 9.99219 15.7656 9.96875 15.7969 9.96875C15.8203 9.96875 15.9453 9.95312 16.0391 9.94531L16.0156 11.3984Z" fill="#D4A11E"/>
<path d="M15.6641 10.0781H15.6719C15.7109 10.0703 15.7266 10.0547 15.7266 10.0312C15.7266 10.0078 15.7422 9.99219 15.7656 9.98438L15.7188 9.83594C15.6719 9.85156 15.6562 9.88281 15.6562 9.89062C15.6562 9.91406 15.6406 9.92188 15.6172 9.92969L15.6641 10.0781ZM13.1797 11.625H13.1875C13.2266 11.6172 13.2422 11.6016 13.2422 11.5781C13.25 11.5547 13.2578 11.5391 13.2812 11.5313L13.2344 11.3828C13.1875 11.3984 13.1719 11.4297 13.1719 11.4375C13.1719 11.4609 13.1562 11.4687 13.1328 11.4766L13.1797 11.625ZM17.7891 11.2344H17.7969C17.8359 11.2266 17.8516 11.2109 17.8516 11.1875C17.8594 11.1641 17.8672 11.1484 17.8906 11.1406L17.8437 10.9922C17.7969 11.0078 17.7812 11.0391 17.7812 11.0469C17.7812 11.0703 17.7656 11.0781 17.7422 11.0859L17.7891 11.2344Z" fill="#FFC758"/>
<path d="M15.1094 14.8984C15.1094 14.8984 14.7891 14.4297 14.6641 13.9297C14.5547 13.5 14.6641 13.0938 14.6641 13.0938C14.6641 13.0938 14.4531 13.8281 13.9453 14.2266C13.5938 14.5078 12.7266 14.7656 12.9297 15.125C12.9609 15.0781 13.0469 14.9844 13.3984 14.8984C13.4375 14.8906 13.4844 14.8828 13.5312 14.875V15.4688H13.7188V14.8516C14.3672 14.7812 15.1094 14.8984 15.1094 14.8984Z" fill="#D4A11E"/>
<path d="M12.7109 13.6562C12.7109 13.6562 12.4766 13.5156 12.5078 13.0625C12.5391 12.5938 12.7734 12.3906 12.7734 12.375L14.3281 11.8438C14.3281 11.8438 14.2109 12.0781 14.2969 12.4297C14.3906 12.8516 14.6641 13.0938 14.6641 13.0938C14.6641 13.0938 13.8828 13.1016 13.1797 13.3438C12.8359 13.4609 12.7109 13.6562 12.7109 13.6562Z" fill="#FFC758"/>
<path d="M13.6328 12.6797C14.0781 12.3125 14.3203 11.8438 14.3203 11.8438C14.3203 11.8438 14.2578 12.1406 14.3047 12.4062C14.3906 12.8594 14.6562 13.0938 14.6562 13.0938C14.6562 13.0938 14.0234 13.1016 13.3438 13.2969C12.8906 13.4219 12.75 13.6016 12.7109 13.6641C12.5625 13.3203 13.1797 13.0547 13.6328 12.6797Z" fill="#D4A11E"/>
<path d="M15.4062 15.2422C15.4062 15.2422 14.9766 14.9219 14.875 14.3203C14.7891 13.8438 15.1094 13.5 15.1094 13.5L17.5391 12.6641C17.5391 12.6641 17.4062 13.2031 17.5312 13.7188C17.6719 14.2969 18.2031 15.0156 18.2031 15.0156C18.2031 15.0156 17.1953 14.7266 16.3203 14.8359C15.4844 14.9453 15.4062 15.2422 15.4062 15.2422ZM14.9141 11.3906C14.8984 11.0234 15.1562 10.7266 15.1641 10.7109L16.9062 10.1016C16.9062 10.1016 16.7891 10.375 16.8203 10.6094C16.875 11.0547 17.125 11.2891 17.125 11.2891C17.125 11.2891 16.4375 11.25 15.6328 11.5312C15.1875 11.6875 15.1406 11.8984 15.1406 11.8984C15.1406 11.8984 14.9297 11.8438 14.9141 11.3906Z" fill="#FFC758"/>
<path d="M16.2891 10.9219C16.6016 10.6484 16.9062 10.1094 16.9062 10.1094C16.9062 10.1094 16.7891 10.3828 16.8203 10.6172C16.875 11.0625 17.125 11.2969 17.125 11.2969C17.125 11.2969 16.3828 11.2891 15.6719 11.5391C15.3672 11.6484 15.1719 11.8125 15.1484 11.9062C15.0469 11.5625 15.8594 11.2969 16.2891 10.9219Z" fill="#D4A11E"/>
<path d="M15.1641 13.3984C15.1641 13.3984 14.9141 13.1094 14.8672 12.6562C14.8203 12.1875 15.0938 12 15.1172 11.9844L17.1328 11.2891C17.1328 11.2891 17.0781 11.4375 17.125 11.8438C17.1719 12.1875 17.5078 12.6562 17.5078 12.6562C17.5078 12.6562 16.4297 12.6875 15.7656 12.9453C15.3438 13.1094 15.1641 13.3984 15.1641 13.3984Z" fill="#FFC758"/>
<path d="M16.5 12.2344C16.9375 11.8594 17.1328 11.2969 17.1328 11.2969C17.1328 11.2969 17.0781 11.6172 17.1328 11.8672C17.2344 12.3047 17.5469 12.6719 17.5469 12.6719C17.5469 12.6719 16.6094 12.6875 15.9297 12.9141C15.4844 13.0625 15.2109 13.3281 15.1719 13.4062C15.0703 13.0234 16.0625 12.6094 16.5 12.2344Z" fill="#D4A11E"/>
<path d="M18.2422 15.0547C18.2422 15.0547 17.6953 14.3438 17.5312 13.7188C17.4297 13.3047 17.5078 12.8359 17.5391 12.6719C17.4766 12.8906 17.2578 13.6016 16.7188 14.1016C16.2031 14.5781 15.1875 14.8047 15.4062 15.25C15.4453 15.1797 15.5625 15.0078 15.9766 14.9062L15.9687 15.4766H16.1641V14.8672C17.0625 14.7266 18.2422 15.0547 18.2422 15.0547Z" fill="#D4A11E"/>
<path fill-rule="evenodd" clip-rule="evenodd" d="M19.1797 16.3906C19.3047 16.3672 19.4297 16.3359 19.6172 16.2891C19.6094 16.2812 19.5937 16.2734 19.5859 16.2656C19.3828 16.0391 19.4141 15.7969 19.5391 15.6797C19.9922 15.2578 19.9844 14.9453 19.9844 14.9453C19.9844 14.9453 18.8828 15.1719 17.4297 15.25C17.3359 15.2578 17 15.4062 16.8984 15.4062C16.6953 15.4141 16.4922 15.4219 16.2812 15.4219C13.5391 15.4453 12.7734 15.25 11.875 15.0859C10.9609 14.9141 10.5625 14.7344 10.5625 14.7344L10.5312 14.8281C10.5312 14.8281 11.25 15.1094 11.7656 15.3594C11.875 15.4141 12.3047 16.0547 12.4453 16.2734H9.1875C9.00781 12.5391 9.72656 9.48438 9.72656 9.48438C9.72656 9.48438 12.2188 8.95312 15.9688 8.95312V8.55469C11.9922 8.55469 9.34375 9.11719 9.34375 9.11719C9.34375 9.11719 8.1875 13.1953 8.79687 18.0547C9.05469 20.0781 10.7266 23.8672 15.9531 25.625L16.1797 25.3047L15.9531 24.9844C11.0312 23.3359 9.59375 20 9.34375 18.1016C9.28906 17.6797 9.25 17.2578 9.21875 16.8516H15.9766V16.2812H12.5078C12.5859 16.0312 12.8281 15.9688 13.1328 16.0391C13.4453 16.1172 13.7578 16.1953 14.0547 16.1797C14.7969 16.1406 14.6875 15.9453 14.7578 15.9453C15.5234 15.9922 15.8125 16.1797 16.4766 16.1641C17.0859 16.1562 17.2969 15.9922 17.3516 15.9922C18.0938 15.9844 18.375 16.3281 19.1172 16.3906H19.1797Z" fill="#FFC758"/>
<path fill-rule="evenodd" clip-rule="evenodd" d="M22.5859 9.11719C22.5859 9.11719 19.9453 8.55469 15.9688 8.55469V8.95312C19.7188 8.95312 22.2031 9.48438 22.2031 9.48438C22.2031 9.48438 22.9297 12.5391 22.7422 16.2734H19.4766C19.2188 16.0234 19.3672 15.6953 19.4531 15.6172C19.8359 15.2734 19.8359 15.0391 19.8359 15.0391C19.8359 15.0391 18.9531 15.2578 17.5 15.3203C17.4062 15.3203 17 15.5078 16.8984 15.5078C16.6953 15.5156 16.4141 15.5234 16.2031 15.5234C14.3125 15.5234 13.3828 15.4844 11.7422 15.1328C11.7734 15.1719 11.7891 15.1875 11.8203 15.2344C11.8281 15.25 12.5391 15.4297 12.5469 15.4453C12.6562 15.5938 12.7969 15.6953 12.9688 15.7891C13.2344 15.9297 13.625 16.0469 13.9453 16.0703C14.6875 16.1172 14.5469 15.8359 14.6172 15.8359C15.375 15.8203 15.8672 16.0938 16.5312 16.0859C17.1406 16.0781 17.1562 15.8828 17.2188 15.8828C17.8203 15.8516 18.4297 16.1094 18.9531 16.2812H15.9688V16.8516H22.7031C22.6719 17.2656 22.6328 17.6797 22.5781 18.1016C22.3281 20.0078 20.8906 23.3359 15.9688 24.9844V25.625C21.1953 23.8672 22.875 20.0859 23.125 18.0547C23.7422 13.1953 22.5859 9.11719 22.5859 9.11719Z" fill="#D4A11E"/>
<path d="M3.76562 10.875L4.03906 10.3516L5.27344 10.2656L4.64844 9.19531L4.92188 8.67969L7.11719 9.83594L6.86719 10.3125L5.42969 9.5625L6.04688 10.6719L6.03906 10.6797L4.78906 10.8047L6.21094 11.5547L5.96094 12.0312L3.76562 10.875ZM6.27344 6.96875L6.61719 6.60156L9.16406 7.53906L8.77344 7.95312L8.21094 7.73438L7.49219 8.5L7.74219 9.04688L7.35938 9.45312L6.27344 6.96875ZM7.73438 7.55469L6.92188 7.24219L7.28125 8.03125L7.73438 7.55469ZM8.24219 5.16406L8.67188 4.90625L10.4609 5.60938L9.67188 4.30469L10.1328 4.02344L11.4141 6.14062L11.0156 6.38281L9.17188 5.65625L9.99219 7.00781L9.53125 7.28906L8.24219 5.16406ZM11.5781 4.73438C11.3828 4.04688 11.7266 3.34375 12.4609 3.13281C12.9062 3 13.2266 3.07812 13.5078 3.22656L13.2812 3.71094C13.0469 3.59375 12.8359 3.54688 12.5938 3.61719C12.1953 3.73438 12 4.14844 12.1172 4.5625V4.57031C12.2344 4.97656 12.6172 5.23438 13.0234 5.11719C13.2969 5.03906 13.4297 4.88281 13.5703 4.65625L14 4.89844C13.8281 5.23438 13.6016 5.47656 13.1484 5.60938C12.4531 5.8125 11.7734 5.42188 11.5781 4.73438ZM14.5547 2.74219L15.0938 2.72656L15.125 3.71094L16.125 3.6875L16.1016 2.70312L16.6484 2.6875L16.7109 5.17188L16.1641 5.1875L16.1406 4.1875L15.1328 4.21875L15.1641 5.21094L14.6172 5.22656L14.5547 2.74219ZM19.8594 5.50781L20.3125 5.28906C20.4375 5.54688 20.6016 5.75781 20.8594 5.875C21.0625 5.96875 21.2188 5.94531 21.2812 5.8125V5.80469C21.3438 5.67969 21.2891 5.57812 20.9609 5.3125C20.5625 4.98438 20.3281 4.72656 20.5312 4.28125V4.27344C20.7188 3.86719 21.1719 3.75 21.6328 3.96094C21.9609 4.10938 22.1953 4.34375 22.3359 4.63281L21.9062 4.89062C21.7734 4.65625 21.6094 4.48438 21.4219 4.39844C21.2344 4.3125 21.0938 4.35156 21.0391 4.46094V4.46875C20.9688 4.61719 21.0469 4.71094 21.3906 4.99219C21.7891 5.32031 21.9766 5.60938 21.7891 6V6.00781C21.5859 6.45312 21.125 6.54688 20.6406 6.32812C20.3125 6.15625 20.0234 5.875 19.8594 5.50781ZM23.4844 5.65625L22.8828 5.19531L23.1875 4.79688L24.8203 6.03906L24.5156 6.44531L23.9141 5.98438L22.7188 7.55469L22.2813 7.22656L23.4844 5.65625ZM27.4062 9.17969L27.9141 10.1953C28.0547 10.4766 28.0859 10.7344 28.0156 10.9531C27.9531 11.1406 27.8125 11.2891 27.6016 11.3984H27.5938C27.2344 11.5781 26.9141 11.5 26.6641 11.2656L26.1406 12.2031L25.8516 11.6328L26.3203 10.7969L26.125 10.4141L25.4141 10.7734L25.1719 10.2891L27.4062 9.17969ZM26.8203 10.7031C26.9375 10.9375 27.1328 11.0156 27.3203 10.9219H27.3281C27.5391 10.8203 27.5703 10.6172 27.4531 10.3828L27.2109 9.89844L26.5781 10.2188L26.8203 10.7031ZM18.2031 4.40625L19.1172 4.60156L19.375 4.16406L18.3125 3.92969L18.4141 3.4375L19.7109 3.71875L19.8203 3.25L17.9844 2.85156L17.4609 5.27344L19.3125 5.67969L19.4141 5.20312L18.0938 4.91406L18.2031 4.40625ZM25.5703 6.78125L23.6641 8.375L24.8828 9.82031L25.25 9.50781L24.3906 8.47656L24.7891 8.14062L25.3984 8.86719L25.8906 8.70312L25.1641 7.82812L25.5469 7.50781L26.3984 8.52344L26.7734 8.21094L25.5703 6.78125ZM11.7891 27.9375C11.7891 27.2109 12.3281 26.625 13.1094 26.625C13.5859 26.625 13.8672 26.7812 14.1094 27.0156L13.7578 27.4219C13.5625 27.2422 13.3672 27.1406 13.1094 27.1406C12.6797 27.1406 12.375 27.4922 12.375 27.9297V27.9375C12.375 28.3672 12.6719 28.7344 13.1094 28.7344C13.3984 28.7344 13.5781 28.6172 13.7734 28.4375L14.125 28.7969C13.8672 29.0781 13.5781 29.25 13.0859 29.25C12.3438 29.2344 11.7891 28.6562 11.7891 27.9375ZM14.6641 26.6641H15.2188V29.1875H14.6641V26.6641ZM15.7422 27.1797V26.6641H17.8359V27.1797H17.0703V29.1953H16.5156V27.1797H15.7422ZM19.0391 28.1953L18.0703 26.6641H18.7188L19.3203 27.6797L19.9297 26.6641H20.5625L19.5938 28.1797V29.1875H19.0391V28.1953Z" fill="#00285E"/>
</svg>
