<svg width="27" height="31" viewBox="0 0 27 31" fill="none" xmlns="http://www.w3.org/2000/svg">
<path d="M24.8437 21.8818H23.4539V1.7088L21.6768 0H7.43216L0 7.19521V11.9024L1.65412 13.6021H3.08041V21.859H0.432897C0.432897 21.859 0 21.9 0 22.4195V29.2912L1.72703 31H26.2746C26.2746 31 26.6118 30.9635 26.6118 30.4805V23.5861L24.8437 21.8818Z" fill="#261E1D"/>
<path d="M0.619948 29.1044H24.6708V22.4468H21.4765V0.624268H7.6101L0.556152 7.47772V11.6882H3.71858V22.4742H0.633618L0.619948 29.1044Z" fill="#FEF201"/>
<path d="M19.8816 6.27482V11.4969C19.8816 11.4969 20.3418 17.6623 12.5861 22.21C12.5861 22.21 5.73725 18.8106 5.23145 11.702V6.27937C5.22689 6.27482 12.0074 2.02787 19.8816 6.27482Z" fill="#261E1D"/>
<path d="M18.733 6.38859L5.93749 12.2304C5.93749 12.2304 5.8418 11.6335 5.8418 10.9317V6.62099C5.8418 6.62554 11.9069 3.10768 18.733 6.38859Z" fill="#FEF201"/>
<path d="M9.21399 15.6208V18.9154C9.21399 18.9154 7.59177 17.2385 7.29102 16.4411L9.21399 15.5662V15.6208Z" fill="#FEF201"/>
<path d="M12.5859 14.0578V21.5446L10.8589 20.3598V14.7869L12.5859 14.0259V14.0578Z" fill="#FEF201"/>
<path d="M15.9578 12.5129V18.9836L14.249 20.4828V13.2785L15.9578 12.4856V12.5129Z" fill="#FEF201"/>
<path d="M19.3257 11.0002L17.6807 11.6929V16.7145C17.6807 16.7145 19.3029 14.6366 19.3257 11.0002Z" fill="#FEF201"/>
<path d="M18.564 8.38457V9.65137L17.3428 10.2027V8.6671H17.124L17.3336 8.32534L17.7392 8.11572V9.62858L18.1539 9.41897V8.52584L18.564 8.38457Z" fill="#FEF201"/>
<path d="M18.5641 8.17948L18.1631 8.31618V7.91063L18.5641 7.74658V8.17948Z" fill="#FEF201"/>
<path d="M15.9575 10.8498L17.0603 10.3258V9.89288C17.0603 9.89288 17.0329 9.11367 16.0942 9.43265V9.75162C16.0942 9.75162 16.7322 9.5329 16.7322 10.1025L15.9575 10.426V10.8498Z" fill="#FEF201"/>
<path d="M15.6796 10.9364V10.0433C15.6796 10.0433 15.5383 9.61953 15.1009 9.90205L14.7227 10.1025V11.0002L14.308 11.2099C14.308 11.2099 13.8888 11.383 13.8888 11.0321C13.8888 10.6813 13.8888 10.4534 13.8888 10.4534L13.4832 10.7314V11.0959C13.4832 11.0959 13.383 11.9526 14.2989 11.6245L15.0553 11.2828V10.3167C15.0553 10.3167 15.0416 10.1755 15.1966 10.1755C15.1966 10.1755 15.3333 10.1618 15.3333 10.3122V11.0777L15.6796 10.9364Z" fill="#FEF201"/>
<path d="M14.9137 11.9297L14.5127 12.0664V11.6609L14.9137 11.4968V11.9297Z" fill="#FEF201"/>
<path d="M14.3761 12.1622L13.9751 12.3035V11.8934L14.3761 11.7339V12.1622Z" fill="#FEF201"/>
<path d="M12.8588 12.2306V10.3076L12.4487 10.5309L12.312 10.8681H12.5171V12.381L12.8588 12.2306Z" fill="#FEF201"/>
<path d="M12.1753 10.7268V12.1303C12.1753 12.1303 12.1571 12.7956 11.1455 12.9915V12.5814C11.1455 12.5814 11.8336 12.4174 11.8336 12.1075V10.8635L12.1753 10.7268Z" fill="#FEF201"/>
<path d="M11.5556 11.0002V12.0939L11.1455 12.3126V11.1369L11.5556 11.0002Z" fill="#FEF201"/>
<path d="M10.8581 11.9023V13.1509L8.25161 14.3539V12.7955H8.04199L8.20148 12.4947L8.59792 12.3125V13.8071L9.76902 13.2694V12.9914C9.76902 12.9914 9.75991 12.5676 9.16752 12.9413L8.87133 13.078L8.97614 12.7408C8.97614 12.7408 9.5503 12.3671 9.8875 12.4856C10.2247 12.6041 10.088 13.1281 10.088 13.1281L10.4617 12.9641V12.0299L10.8581 11.9023Z" fill="#FEF201"/>
<path d="M10.8265 11.6883L10.4482 11.8204V11.424L10.8265 11.269V11.6883Z" fill="#FEF201"/>
<path d="M10.3709 11.875L9.99268 12.0072V11.6107L10.3709 11.4558V11.875Z" fill="#FEF201"/>
<path d="M6.83008 14.9873L7.93283 14.4632V14.0303C7.93283 14.0303 7.90549 13.2511 6.96678 13.5701V13.8891C6.96678 13.8891 7.60474 13.6703 7.60474 14.2399L6.83008 14.5635V14.9873Z" fill="#FEF201"/>
<path d="M11.3968 7.14954C11.4773 7.14954 11.5426 7.07814 11.5426 6.99005C11.5426 6.90197 11.4773 6.83057 11.3968 6.83057C11.3163 6.83057 11.251 6.90197 11.251 6.99005C11.251 7.07814 11.3163 7.14954 11.3968 7.14954Z" fill="#261E1D"/>
<path d="M10.4534 6.26101L10.5172 5.97393C10.5172 5.97393 11.4651 5.25396 11.7567 5.85545V6.4524L8.86768 7.77387V7.44123L9.63322 7.12681V6.84428C9.63322 6.84428 9.57854 6.5572 8.86768 7.01744V6.75315C8.86768 6.75315 9.43728 6.20633 9.84283 6.60277C9.92941 6.72581 9.91574 7.022 9.91574 7.022L11.4833 6.25645V5.98305C11.4833 5.98305 11.4332 5.64584 10.4443 6.32025L10.4534 6.26101Z" fill="#261E1D"/>
<path d="M7.71023 7.29536C7.71023 7.29536 7.50062 8.10647 7.96997 8.10647C8.5578 8.10647 8.66261 7.63712 8.66261 7.63712V6.83057L7.71023 7.29536ZM8.38464 7.61434C8.38464 7.61434 8.33452 7.83307 8.05199 7.83307C7.82415 7.83307 7.9244 7.45485 7.9244 7.45485L8.38464 7.24068V7.61434Z" fill="#261E1D"/>
<path d="M7.97443 6.94007C8.05496 6.94007 8.12025 6.86867 8.12025 6.78058C8.12025 6.6925 8.05496 6.62109 7.97443 6.62109C7.8939 6.62109 7.82861 6.6925 7.82861 6.78058C7.82861 6.86867 7.8939 6.94007 7.97443 6.94007Z" fill="#261E1D"/>
<path d="M8.30256 6.78968C8.38309 6.78968 8.44837 6.71827 8.44837 6.63019C8.44837 6.54211 8.38309 6.4707 8.30256 6.4707C8.22202 6.4707 8.15674 6.54211 8.15674 6.63019C8.15674 6.71827 8.22202 6.78968 8.30256 6.78968Z" fill="#261E1D"/>
<path d="M7.70996 10.9364L14.3356 7.87879C14.3356 7.87879 14.6363 7.70563 14.4905 7.37754C14.3447 7.05401 14.0166 7.19527 14.0166 7.19527L12.8911 7.76031C12.8911 7.76031 12.7954 7.79677 12.7954 7.69652V7.04489C12.7954 7.04489 12.7452 6.63022 12.1848 6.85351V5.22217L11.9751 5.29508V8.38915L12.1848 8.31624V7.27729C12.1848 7.27729 12.1939 7.15426 12.4217 7.15426C12.4217 7.15426 12.5858 7.14059 12.5858 7.25906V7.79221C12.5858 7.79221 12.5766 7.97448 12.8136 7.97448C13.0505 7.97448 14.0713 7.43222 14.0713 7.43222C14.0713 7.43222 14.2444 7.34564 14.2444 7.56437C14.2444 7.56437 14.2581 7.67829 13.6931 7.89246L7.71452 10.6721V10.9364H7.70996Z" fill="#261E1D"/>
<path d="M11.3968 7.3457L10.8773 7.56443V7.83328C10.8773 7.83328 11.3011 7.50975 11.4742 7.62823V7.77404C11.4742 7.77404 11.0687 7.85607 10.8773 8.16137V8.44845C10.8773 8.44845 10.8408 8.72186 11.251 8.72186C11.6611 8.72186 11.7568 8.27074 11.7568 8.27074V7.76949C11.7568 7.77404 11.7795 7.3457 11.3968 7.3457ZM11.4925 8.28441V8.32086L11.4834 8.34365L11.4606 8.3801L11.4378 8.412L11.4104 8.43934L11.3785 8.45757L11.3466 8.47124L11.3011 8.48035L11.2646 8.48491H11.2464H11.2191L11.1963 8.48035L11.178 8.47124L11.1553 8.4439L11.1461 8.42567L11.137 8.40288L11.1325 8.37099L11.1279 8.33909V8.30719V8.28896L11.1325 8.26618L11.1416 8.22061L11.1461 8.19327L11.497 8.02923V8.28441H11.4925Z" fill="#261E1D"/>
<path d="M10.6628 8.70342V7.14499C10.5261 7.13588 10.4577 7.2179 10.4577 7.2179V7.76928C9.87898 7.91965 9.83797 8.17483 9.83797 8.17483V8.60773C9.83797 8.8538 9.7924 9.20923 10.0886 9.20923C10.6947 9.20923 10.6628 8.70342 10.6628 8.70342ZM10.4577 8.8538C10.4577 8.8538 10.1251 9.09075 10.043 8.91759V8.24774C10.043 8.24774 10.1387 8.0837 10.4577 8.03357V8.8538Z" fill="#261E1D"/>
<path d="M9.59195 9.21832V7.65989C9.45525 7.65077 9.3869 7.7328 9.3869 7.7328V8.28417C8.80818 8.43454 8.76717 8.68973 8.76717 8.68973V9.12262C8.76717 9.36869 8.7216 9.72412 9.0178 9.72412C9.62385 9.72868 9.59195 9.21832 9.59195 9.21832ZM9.3869 9.37325C9.3869 9.37325 9.05425 9.6102 8.97223 9.43704V8.76719C8.97223 8.76719 9.06792 8.60315 9.3869 8.55302V9.37325Z" fill="#261E1D"/>
<path d="M7.9697 9.82916L8.53019 9.50107C8.53019 9.50107 8.67145 8.79932 8.22488 8.79932C7.70996 8.79932 7.70996 9.30968 7.70996 9.30968V9.97953C7.70996 9.97953 7.70996 10.2347 7.99248 10.2438C8.35703 10.2438 8.52107 9.98409 8.52107 9.98409V9.75625C8.52107 9.75625 8.06995 10.0251 7.9697 9.97497C7.83299 9.91118 7.9697 9.82916 7.9697 9.82916ZM8.23399 9.0226C8.36614 9.0226 8.32513 9.33246 8.32513 9.33246C8.32513 9.33246 8.05172 9.54663 7.98793 9.54663C7.92413 9.54663 7.91957 9.3598 7.91957 9.3598C7.91502 9.11829 8.23399 9.0226 8.23399 9.0226Z" fill="#261E1D"/>
<path d="M6.59349 8.71723V7.94713C6.59349 7.94713 6.60717 7.7284 7.10841 7.55069L7.43195 7.43677V10.8498C7.43195 10.8498 7.44562 11.1506 6.95804 11.2782C6.95804 11.2782 6.33376 11.5333 6.33376 11.1004V9.81542C6.33376 9.81542 6.28363 9.47366 7.00361 9.33696V9.62404C7.00361 9.62404 6.55248 9.72884 6.5297 9.9977V10.8498V10.9182C6.5297 10.9182 6.58438 11.1506 6.81678 11.0503C7.04918 10.9501 7.23601 10.9045 7.23601 10.6675V7.80131C7.23601 7.80131 6.88513 7.8241 6.88513 8.05194V8.63521L6.59349 8.71723Z" fill="#261E1D"/>
<path d="M3.99157 26.0603H2.89793V25.5773H3.16679V24.552H2.76123L3.09843 24.0645H3.65437V25.5773H3.99157V26.0603Z" fill="#261E1D"/>
<path d="M4.47455 26.0603V24.5475H3.92773V24.0645H5.43604V24.552H4.88922V26.0603H4.47455Z" fill="#261E1D"/>
<path d="M6.19688 26.0603V24.5475H5.64551V24.0645H7.15837V24.552H6.607V26.0603H6.19688Z" fill="#261E1D"/>
<path d="M8.87646 26.0603V24.0645H9.29569V24.8209H9.91086V24.0645H10.321V26.0603H9.91086V25.3039H9.28658V26.0603H8.87646Z" fill="#261E1D"/>
<path d="M7.43213 26.0603V25.5819H7.71009V24.5429H7.43213V24.0645H8.46197V24.5475H8.19312V25.5773H8.46197V26.0603H7.43213Z" fill="#261E1D"/>
<path d="M11.6879 24.0645H11.3826L10.5806 26.0603H11.0681L11.2231 25.714H11.8565L11.9795 26.0603H12.5127L11.6879 24.0645ZM11.3917 25.3221L11.5284 24.8665L11.7015 25.3221H11.3917Z" fill="#261E1D"/>
<path d="M14.3037 25.0077C14.3037 24.0508 13.4106 24.0645 13.4106 24.0645H12.6587V26.0604H13.4835C14.3812 26.0604 14.3037 25.0077 14.3037 25.0077ZM13.4561 25.5728H13.0597V24.5475H13.4242C13.4242 24.5475 13.8571 24.5384 13.8571 25.0305C13.8526 25.0305 13.889 25.5728 13.4561 25.5728Z" fill="#261E1D"/>
<path d="M16.7962 24.8847H17.2382C17.2382 24.0553 16.3405 24.0645 16.3405 24.0645C15.3562 24.0645 15.3972 25.0624 15.3972 25.0624C15.3972 26.0786 16.3268 26.0603 16.3268 26.0603C17.1516 26.0603 17.2382 25.2538 17.2382 25.2538H16.7916C16.7916 25.2538 16.6959 25.5819 16.3177 25.5819C15.9395 25.5819 15.8164 25.272 15.8164 24.9986C15.8164 24.9986 15.8392 24.5475 16.3587 24.5475C16.7551 24.552 16.7962 24.8847 16.7962 24.8847Z" fill="#261E1D"/>
<path d="M17.5298 26.0603V24.0645H18.0265V25.5864H18.7875V26.0603H17.5298Z" fill="#261E1D"/>
<path d="M18.9878 24.0644V25.3448C18.9878 25.3448 18.9832 26.0603 19.7625 26.0603C19.7625 26.0603 20.5007 26.0648 20.5007 25.3221V24.0644H20.0222V25.354C20.0222 25.354 20.0313 25.5772 19.7442 25.5772C19.7442 25.5772 19.4617 25.6091 19.4617 25.3357V24.0598H18.9878V24.0644Z" fill="#261E1D"/>
<path d="M21.9774 25.0168C21.9774 25.0168 22.2144 24.9849 22.2144 24.6204C22.2144 24.0827 21.6767 24.0645 21.6767 24.0645H21.54H20.8428V26.0603H21.6038C22.0822 26.0603 22.2782 25.8143 22.2782 25.4361C22.2827 25.0533 21.9774 25.0168 21.9774 25.0168ZM21.3258 24.83V24.4791H21.6265C21.6265 24.4791 21.8043 24.4837 21.8043 24.7161C21.8043 24.7161 21.8316 24.8984 21.6357 24.8984H21.3258V24.83ZM21.6858 25.5636H21.3212V25.5135V25.231H21.6721C21.6721 25.231 21.8817 25.2356 21.8817 25.4178C21.8817 25.4178 21.9136 25.5636 21.6858 25.5636Z" fill="#261E1D"/>
<path d="M8.11621 26.8806H8.39418V27.9834H8.11621V26.8806Z" fill="#261E1D"/>
<path d="M8.67236 27.988V26.8853H8.94577V27.309C8.99134 27.35 9.03691 27.35 9.08703 27.309V26.8853H9.28753V27.2999C9.32399 27.3318 9.36044 27.3318 9.3969 27.2999V26.8853H9.63385V27.2361C9.63385 27.2361 9.66119 27.505 9.35589 27.505C9.21462 27.505 9.1964 27.4366 9.1964 27.4366C9.1964 27.4366 9.10982 27.5733 8.95033 27.505V27.988H8.67236Z" fill="#261E1D"/>
<path d="M10.4582 27.9879H10.007C10.007 27.9879 9.76098 27.9925 9.76098 27.6325C9.76098 27.6325 9.77921 27.4365 9.85667 27.4365C9.85667 27.4365 9.72908 27.3135 9.76098 27.1631C9.76098 27.1631 9.82022 26.8806 10.1574 26.8806H10.4582V27.154H10.1073C10.0389 27.154 10.0389 27.3636 10.1073 27.3636H10.4582V27.5687H10.0481C10.0116 27.5687 10.0116 27.7783 10.0481 27.7783H10.4582V27.9879Z" fill="#261E1D"/>
<path d="M11.0781 27.9879V27.1631H10.668V26.8806H10.7181H11.356V27.9879H11.0781Z" fill="#261E1D"/>
<path d="M12.377 27.6462H12.7916V27.988H12.377V27.6462Z" fill="#261E1D"/>
<path d="M14.1814 27.9879V26.8943H13.9445L13.6118 27.2041V27.3636H13.8989V27.9879H14.1814Z" fill="#261E1D"/>
<path d="M14.8055 26.8944C14.8055 26.8944 14.3726 26.8397 14.3726 27.3318C14.3726 27.6554 14.7417 27.6463 14.7417 27.6463C14.7417 27.6463 14.5958 27.988 14.5229 27.988H14.8556C14.8556 27.988 15.1928 27.6827 15.1928 27.2908C15.1928 26.8989 14.8055 26.8944 14.8055 26.8944ZM14.7827 27.4594C14.6961 27.4594 14.6232 27.3865 14.6232 27.2999C14.6232 27.2134 14.6961 27.1405 14.7827 27.1405C14.8693 27.1405 14.9422 27.2134 14.9422 27.2999C14.9422 27.3911 14.8738 27.4594 14.7827 27.4594Z" fill="#261E1D"/>
<path d="M16.6329 27.9879L16.9929 27.2543V26.8943H16.3003V27.1586H16.7332L16.3185 27.9879H16.6329Z" fill="#261E1D"/>
<path d="M15.3477 27.2998C15.3477 27.2998 15.3477 26.8897 15.7213 26.8897C15.7213 26.8897 16.095 26.8441 16.095 27.2998C16.0676 27.5641 15.7213 27.7783 15.7213 27.7783H16.095V27.9833H15.3932V27.7509L15.817 27.3727C15.817 27.3727 15.8489 27.1585 15.7031 27.1585C15.6256 27.1585 15.612 27.3044 15.612 27.3044H15.3477V27.2998Z" fill="#261E1D"/>
</svg>
