<svg width="32" height="32" viewBox="0 0 32 32" fill="none" xmlns="http://www.w3.org/2000/svg">
<path d="M20.2745 0.26646C18.8012 1.28927 17.3808 1.76571 15.8046 1.76571C14.2283 1.76571 12.8079 1.28927 11.3345 0.26646L10.9506 0L10.5611 0.257979C8.89579 1.36068 7.54274 1.56241 5.47817 1.56241C4.76637 1.56241 4.00102 1.42807 3.26502 1.17388L2.77473 1.00461L2.47644 1.42886C2.3178 1.6545 2.19992 1.79783 2.086 1.9364C1.94561 2.10708 1.81298 2.26839 1.65722 2.51873L1.40778 2.91969L1.69171 3.29702C2.95345 4.9738 3.4296 6.69887 3.4296 8.32273C3.4296 11.3509 1.77391 14.0267 0.469881 15.3798L0 15.8674L0.479266 16.3457C0.736341 16.6023 1.19424 17.0773 1.57292 17.4754L1.55771 17.684L1.55438 17.722C1.53883 18.0114 1.53099 18.3012 1.53086 18.591C1.53086 21.6662 2.43981 24.223 4.23865 26.2005C6.32125 28.4901 9.57768 29.857 13.4263 30.0698C14.382 30.9402 15.3533 31.6626 15.3968 31.6949L15.8082 32L16.2191 31.6938C16.2622 31.6616 17.2282 30.9396 18.1828 30.0696C22.0314 29.8569 25.2877 28.4901 27.3703 26.2004C29.1691 24.2229 30.0781 21.6661 30.0781 18.5911C30.0781 18.3058 30.0702 18.0161 30.0546 17.7219L30.0542 17.7151L30.0507 17.6774C30.0507 17.6774 30.0371 17.4906 30.0361 17.4753C30.3867 17.1068 30.8594 16.6153 31.1297 16.3455L31.6088 15.8672L31.139 15.3797C29.8352 14.0265 28.1794 11.3504 28.1794 8.32228C28.1794 6.69853 28.6555 4.97352 29.9171 3.29691L30.2009 2.91975L29.9518 2.51885C29.796 2.26827 29.6633 2.10697 29.5229 1.93617C29.4091 1.79766 29.2912 1.65439 29.1327 1.42881L28.8345 1.00438L28.3442 1.17371C27.608 1.4279 26.8427 1.56224 26.131 1.56224C24.0662 1.56224 22.7131 1.36051 21.048 0.25781L20.6584 0L20.2745 0.26646Z" fill="black"/>
<path d="M15.8072 31.1414C15.8072 31.1414 14.7071 30.3254 13.7133 29.397C7.21149 29.1275 1.83141 25.4813 2.24249 17.7586C2.2668 17.5549 2.24617 17.5686 2.28145 17.2209C1.90864 16.8265 1.29176 16.1829 0.965995 15.8578C3.29815 13.4378 6.01952 7.90215 2.24221 2.88255C2.49058 2.48323 2.67036 2.35082 3.04001 1.82502C3.795 2.08571 4.63452 2.25131 5.47806 2.25131C7.64417 2.25131 9.12313 2.03636 10.9414 0.832284C12.3789 1.83017 13.9378 2.45456 15.8046 2.45456C17.6713 2.45456 19.2301 1.83017 20.6675 0.832284C22.4857 2.0363 23.9647 2.25131 26.131 2.25131C26.9743 2.25131 27.814 2.08577 28.569 1.82502C28.9386 2.35076 29.1184 2.48323 29.3666 2.88255C25.5895 7.90215 28.311 13.4378 30.6429 15.8578C30.3172 16.1829 29.7002 16.8265 29.3275 17.2209C29.3626 17.5685 29.3422 17.5549 29.3664 17.7586C29.7775 25.4813 24.3972 29.1273 17.8958 29.397C16.9019 30.3254 15.8072 31.1414 15.8072 31.1414Z" fill="#E2B900"/>
<path d="M3.47579 17.298H3.38403L3.34491 17.6303L3.3167 17.8442C3.16495 20.819 3.90666 23.2223 5.52074 24.9927C7.37211 27.0235 10.3715 28.1805 14.1947 28.3389C14.1985 28.339 14.259 28.3394 14.259 28.3394C15.4061 28.3456 16.4895 28.3515 17.4113 28.339C21.2374 28.1806 24.2368 27.0235 26.0881 24.9927C27.7023 23.2224 28.4439 20.8192 28.2926 17.8496C28.2922 17.8443 28.2638 17.6294 28.2638 17.6294L28.2251 17.302L28.1329 17.2981L3.47579 17.298Z" fill="black"/>
<path d="M3.5675 17.5045L3.5489 17.6622L3.52249 17.8603C3.50994 18.104 3.50361 18.3479 3.5035 18.5919C3.5035 21.1686 4.23198 23.2725 5.6734 24.8535C6.01788 25.2315 6.40363 25.5783 6.82794 25.8935V17.5045H3.5675ZM28.0867 17.8656L28.0598 17.6611L28.0413 17.5045H24.7809V25.8936C25.2053 25.5784 25.5911 25.2315 25.9355 24.8536C27.3772 23.2722 28.1056 21.1679 28.1056 18.5945C28.1055 18.3557 28.0994 18.1127 28.0867 17.8656Z" fill="#004B95"/>
<path d="M10.4186 17.5045H6.82794V25.8935C7.82147 26.6319 9.02809 27.1959 10.4186 27.5757V17.5045ZM21.1904 17.5045V27.5756C22.5812 27.1956 23.7876 26.6317 24.7809 25.8936V17.5045H21.1904Z" fill="#A4234B"/>
<path d="M12.3627 22.6716C12.3627 21.4288 13.0216 20.3399 14.0092 19.735V17.5045H10.4186V27.5757C11.5071 27.8731 12.7084 28.0572 14.0092 28.1231V25.6084C13.0217 25.0035 12.3627 23.9146 12.3627 22.6716ZM17.5997 17.5045V19.7349C18.5872 20.3399 19.2462 21.4287 19.2462 22.6716C19.2462 23.9144 18.5872 25.0034 17.5997 25.6084V28.1229C18.9007 28.0569 20.102 27.8728 21.1904 27.5756V17.5045H17.5997Z" fill="#004B95"/>
<path d="M17.5997 19.7349V17.5045H14.0092V19.735C14.5318 19.4146 15.1464 19.2298 15.8044 19.2298C16.4623 19.2299 17.0771 19.4146 17.5997 19.7349ZM14.0092 25.6084V28.1231C14.0726 28.1264 14.1357 28.1299 14.1995 28.1325L14.26 28.1329C15.4062 28.139 16.4887 28.1449 17.4056 28.1326C17.4707 28.1299 17.535 28.1262 17.5997 28.1229V25.6084C17.077 25.9285 16.4623 26.1135 15.8044 26.1135C15.1465 26.1135 14.5318 25.9286 14.0092 25.6084Z" fill="#A4234B"/>
<path d="M14.048 23.2962C13.4253 22.729 13.4233 21.5765 13.5906 20.8109C13.6371 20.5977 13.6956 20.389 13.756 20.1505C13.0239 20.746 12.5561 21.6543 12.5561 22.6716C12.5556 23.089 12.6357 23.5026 12.7921 23.8895C12.8474 23.8967 12.9037 23.9007 12.9608 23.9007C13.4418 23.9007 13.8345 23.6785 14.048 23.2962ZM17.3922 23.5448C17.2856 24.0892 16.7034 24.4971 16.1548 24.8243C15.5895 25.1615 14.6777 25.3358 13.9916 25.3676C14.5094 25.7163 15.1331 25.92 15.8044 25.92C17.0295 25.92 18.0961 25.2418 18.6492 24.2406C18.5523 23.4392 17.7905 23.3451 17.3922 23.5448Z" fill="#E2B900"/>
<path d="M13.7397 25.1794C14.4174 25.1847 15.4589 25.0142 16.0558 24.6582C16.8274 24.1978 17.4269 23.7065 17.1421 23.0255C16.9981 22.6813 16.5196 22.283 15.8992 22.7224C15.8596 23.2307 15.232 23.6791 14.7814 23.6214C14.5531 23.5921 14.3618 23.52 14.2024 23.4157C13.9492 23.8484 13.4958 24.094 12.9609 24.094C12.9346 24.094 12.9083 24.0933 12.8823 24.0918C13.0868 24.5116 13.3792 24.8826 13.7397 25.1794ZM15.796 20.6473C16.3333 20.4246 17.078 20.7141 17.6454 21.0309C18.1811 21.3302 18.7404 21.8887 19.047 22.4753C18.946 20.7816 17.5478 19.4378 15.8325 19.4234C15.3199 19.76 15.3899 20.3946 15.796 20.6473Z" fill="#E2B900"/>
<path d="M15.7052 22.7199C15.04 22.2348 15.0809 21.4714 15.3671 21.0179C15.4373 20.9067 15.5191 20.8192 15.6099 20.7523C15.2232 20.4436 15.1458 19.8446 15.5204 19.4354C14.976 19.4824 14.4524 19.6667 13.9987 19.9711C13.8568 20.5811 13.6762 21.1382 13.6853 21.7754C13.6974 22.6341 14.0529 23.3331 14.806 23.4297C15.1574 23.4747 15.6645 23.1008 15.7052 22.7199Z" fill="#E2B900"/>
<path d="M19.0393 22.9704C18.8539 22.2983 18.1876 21.5554 17.5511 21.1999C16.7664 20.7615 15.908 20.5231 15.5306 21.1213C15.2883 21.5052 15.2546 22.1393 15.8042 22.5526C16.5513 22.0366 17.1481 22.5384 17.3204 22.951C17.3757 23.0831 17.4038 23.2088 17.4087 23.3284C17.8496 23.1732 18.5663 23.2731 18.787 23.9613C18.9232 23.6465 19.0083 23.312 19.0393 22.9704Z" fill="#E2B900"/>
<path d="M12.8433 13.5531H10.5726V16.7458H11.2645V15.4285H12.2066V14.7545H11.2645V14.2317H12.8766V13.5532L12.8433 13.5531ZM14.1638 15.1494C14.1638 16.149 14.7132 16.7948 15.5635 16.7948C16.1179 16.7948 16.5171 16.551 16.7501 16.0705L16.7634 16.0429L16.1816 15.6978L16.1646 15.7263C15.9986 16.0042 15.8406 16.1074 15.5814 16.1074C15.158 16.1074 14.8735 15.7224 14.8735 15.1494C14.8735 14.5584 15.1431 14.1913 15.577 14.1913C15.8291 14.1913 16.0062 14.2965 16.1189 14.5129L16.1336 14.5411L16.774 14.2456L16.7592 14.2151C16.5342 13.7499 16.1285 13.504 15.5858 13.504C14.7485 13.504 14.1638 14.1806 14.1638 15.1494ZM20.6225 15.0166C20.8158 14.8795 20.9293 14.6643 20.9293 14.4125C20.9293 13.8744 20.5461 13.5531 19.9045 13.5531H18.4377V16.7458H19.891C20.6082 16.7458 21.0362 16.356 21.0362 15.7032C21.0362 15.3975 20.8835 15.1525 20.6225 15.0166ZM19.1161 14.1959H19.8777C20.1884 14.1959 20.2282 14.3379 20.2282 14.4617C20.2282 14.6377 20.1238 14.7232 19.909 14.7232H19.1161L19.1161 14.1959ZM19.9133 16.0852H19.1161V15.3436H19.9133C20.1953 15.3436 20.3267 15.4607 20.3267 15.7121C20.3267 15.9562 20.1838 16.0852 19.9133 16.0852ZM20.6318 2.13948C19.085 3.07517 17.5059 3.53064 15.8042 3.53188C14.1028 3.53069 12.5238 3.07517 10.9769 2.13948L10.9252 2.10822L10.8727 2.13795C9.11063 3.13374 7.56027 3.32851 5.47778 3.32851C4.97731 3.32851 4.46101 3.27825 3.94302 3.17909L3.71981 3.13634L3.83447 3.33259C5.97395 6.99382 5.21443 10.5335 4.2006 12.8583L4.13756 13.0029H27.4713L27.4082 12.8583C26.3944 10.5335 25.6349 6.99382 27.7742 3.33259L27.8889 3.13634L27.6658 3.17909C27.1479 3.27825 26.6315 3.32851 26.131 3.32851C24.0485 3.32851 22.4981 3.13374 20.7361 2.13795L20.6835 2.10822L20.6318 2.13948Z" fill="black"/>
<path d="M8.64776 3.24043C7.67046 3.47229 6.65776 3.53505 5.47783 3.53505C5.03159 3.53505 4.57267 3.48885 4.11195 3.41191C4.65861 4.38938 5.00643 5.35662 5.20374 6.29412H8.64782L8.64776 3.24043ZM15.7012 6.29412V3.7366C14.4656 3.72252 13.293 3.47172 12.1502 2.97685V6.29412H15.7012ZM5.30144 9.7966C5.13878 10.9177 4.8142 11.9339 4.44965 12.7963H8.64782V9.7966H5.30144ZM12.1502 12.7963H15.7012V9.7966H12.1502V12.7963Z" fill="white"/>
<path d="M12.1502 6.29412V2.97685C11.7372 2.79808 11.328 2.58827 10.9214 2.34505C10.1438 2.77858 9.40643 3.06047 8.64776 3.24043L8.64782 6.29412H5.20374C5.34225 6.95225 5.41203 7.62293 5.41197 8.29548C5.41197 8.81285 5.37143 9.31433 5.30144 9.7966H8.64782V12.7963H12.1502V9.7966H15.7012V6.29412H12.1502Z" fill="#DB2F36"/>
<path d="M20.6873 2.34505L20.6823 2.34793V12.7962H21.9135V2.91811C21.5102 2.76518 21.1046 2.57764 20.6873 2.34505ZM18.2198 3.41372V12.7963H19.4511V2.98002C19.0513 3.15317 18.6399 3.29809 18.2198 3.41372ZM15.9076 3.7366V12.7963H16.9886V3.66061C16.63 3.70693 16.2691 3.7323 15.9076 3.7366ZM23.145 3.28046V12.7963H24.3761V3.4655C23.9527 3.42621 23.5451 3.36645 23.145 3.28046ZM26.1969 8.29553C26.1969 6.76699 26.5503 5.10435 27.4969 3.41191C27.0362 3.4888 26.5772 3.53505 26.131 3.53505C25.9524 3.53505 25.7789 3.53295 25.6075 3.52967V12.7963H27.1592C26.6378 11.5628 26.1969 10.0156 26.1969 8.29553Z" fill="#FFDF00"/>
<path d="M24.3761 3.4655V12.7963H25.6075V3.52967C25.1785 3.52153 24.77 3.50203 24.3761 3.4655ZM16.9886 3.66061V12.7963H18.2198V3.41372C17.8157 3.5247 17.4043 3.6072 16.9886 3.66061ZM19.4511 2.98002V12.7963L20.6823 12.7962V2.34793C20.2749 2.59138 19.8648 2.80131 19.4511 2.98002ZM21.9135 2.91811V12.7962L23.145 12.7963V3.28046C22.726 3.19095 22.3142 3.06982 21.9135 2.91811Z" fill="#DB2F36"/>
</svg>
