<svg width="31" height="31" viewBox="0 0 31 31" fill="none" xmlns="http://www.w3.org/2000/svg">
<path d="M15.4951 31C24.0337 31 30.9951 24.0386 30.9951 15.5C30.9951 6.96633 24.0337 0 15.4951 0C6.96148 0 0 6.96628 0 15.5C0 24.0385 6.96148 31 15.4951 31Z" fill="#3E4549"/>
<path d="M15.4952 30.5287C23.774 30.5287 30.5241 23.774 30.5241 15.4999C30.5241 7.22584 23.774 0.47583 15.4952 0.47583C7.22125 0.47583 0.471191 7.22579 0.471191 15.4999C0.471191 23.774 7.22125 30.5287 15.4952 30.5287Z" fill="white"/>
<path d="M15.4952 25.7117C21.1203 25.7117 25.7069 21.1202 25.7069 15.5C25.7069 9.87983 21.1203 5.29321 15.4952 5.29321C9.87509 5.29321 5.28857 9.87973 5.28857 15.5C5.28863 21.1202 9.87509 25.7117 15.4952 25.7117Z" fill="#454545"/>
<path d="M6.88916 10.9712C8.49016 7.94244 11.644 5.85115 15.2786 5.76929C14.2017 7.21652 12.8652 8.51449 11.3316 9.45692C10.4084 10.0193 9.41809 10.4569 8.36989 10.7213C7.87965 10.8462 7.38921 10.9232 6.88916 10.9712Z" fill="#E20025"/>
<path d="M14.0911 25.1345C9.39404 24.4471 5.76416 20.3847 5.76416 15.5C5.76416 14.1635 6.03824 12.8846 6.52853 11.7212C6.54298 11.952 6.55748 12.1827 6.58154 12.4086C6.82191 14.8029 7.69689 17.2547 9.02861 19.4902C10.3316 21.6635 12.0719 23.6298 14.0911 25.1345Z" fill="#E20025"/>
<path d="M24.4662 11.7212C24.9567 12.8846 25.2306 14.1635 25.2306 15.5C25.2306 20.3847 21.6009 24.4471 16.9038 25.1345C18.923 23.6298 20.6634 21.6635 21.9662 19.4902C23.3172 17.226 24.1971 14.7355 24.4229 12.3125C24.4422 12.1154 24.4566 11.9183 24.4662 11.7212Z" fill="#E20025"/>
<path d="M15.7114 5.76904C19.3508 5.8509 22.5046 7.94224 24.1055 10.971C23.6921 10.9326 23.2787 10.8701 22.8652 10.7787C21.7305 10.5239 20.6537 10.0623 19.6635 9.45663C18.1297 8.51434 16.7932 7.21628 15.7114 5.76904Z" fill="#E20025"/>
<path d="M8.18262 11H22.8125C21.6537 10.7405 20.5575 10.2693 19.5481 9.64901C17.9711 8.68262 16.596 7.34615 15.4951 5.85571C14.399 7.34615 13.0288 8.68272 11.447 9.64901C10.4375 10.2693 9.34138 10.7405 8.18262 11Z" fill="#163962"/>
<path d="M10.5047 16.4568H7.80273C8.18737 17.4521 8.66336 18.4327 9.22581 19.3704C10.5816 21.6395 12.4181 23.6781 14.5575 25.1875C14.697 25.202 14.8315 25.2116 14.971 25.2212C15.0479 24.7547 15.0094 22.6009 14.9951 22.4999C14.8989 22.3894 14.8028 22.3223 14.6922 22.2788C14.5719 22.2356 14.4278 22.2164 14.2499 22.2116C14.0817 22.2116 13.9422 22.226 13.8076 22.2548C13.673 22.2787 13.5336 22.3222 13.3653 22.3798C13.2114 22.4279 13.0865 22.476 12.9518 22.476C12.8075 22.476 12.673 22.4231 12.5191 22.2741C12.4903 22.25 12.4663 22.226 12.4374 22.1971C12.322 22.0817 12.2066 21.9662 12.0769 21.9662C11.9181 21.9711 11.7739 21.9519 11.6442 21.9134C11.5144 21.875 11.3942 21.8076 11.2933 21.7163C11.0672 21.4999 11.0672 21.1971 11.0721 20.9518C11.0721 20.8462 11.0721 20.7594 11.0528 20.721C11.0239 20.6585 10.923 20.5816 10.798 20.5094C10.6633 20.4277 10.5095 20.3508 10.3893 20.2979C10.1729 20.2017 10.0384 20.0383 9.95673 19.846C9.88452 19.6633 9.86052 19.4469 9.86532 19.2401C9.87018 19.1488 9.87018 19.0623 9.85567 18.9854C9.84607 18.9229 9.83162 18.87 9.80292 18.841L9.79812 18.8363C9.73071 18.7594 9.65866 18.6776 9.6057 18.5766C9.5481 18.471 9.5097 18.3459 9.5097 18.197C9.5097 18.0671 9.5481 17.9565 9.61055 17.8748C9.68761 17.7739 9.79812 17.716 9.89908 17.716C10.1395 17.7066 10.375 17.9373 10.5241 18.0913C10.5385 18.1008 10.5481 18.1152 10.5624 18.1248C10.6298 18.197 10.7116 18.2738 10.7933 18.3364C10.875 18.394 10.9568 18.4422 11.0384 18.4615C11.2019 18.4998 11.3318 18.495 11.4423 18.4902C11.4471 18.4902 11.452 18.4902 11.4616 18.4902C11.6587 18.4854 11.8028 18.5095 11.9231 18.5863C12.0433 18.6585 12.1298 18.7739 12.2164 18.9565C12.3125 19.1489 12.3895 19.1489 12.5289 19.1489C12.577 19.1441 12.6251 19.1441 12.6827 19.1489C12.9952 19.1634 13.0721 19.3075 13.1972 19.543C13.2164 19.5816 13.2356 19.6201 13.2596 19.6536C13.3077 19.7403 13.351 19.8075 13.3991 19.8652C13.4423 19.9134 13.4808 19.947 13.5145 19.971C13.5673 20 13.6155 20.0096 13.6732 20.0239C13.7693 20.0432 13.8799 20.0673 14.053 20.1779C14.1588 20.2452 14.2308 20.3413 14.2837 20.4517C14.3318 20.5576 14.3607 20.6731 14.3847 20.7883C14.4377 21.0191 14.476 21.2258 14.5578 21.3797C14.6347 21.5288 14.7549 21.644 14.976 21.726C14.976 21.7018 14.9808 21.6777 14.9808 21.644C15.0192 20.923 15.0337 20.4662 14.9953 20.1634C14.9664 19.8892 14.8895 19.7499 14.7453 19.6536C14.303 19.346 13.8414 19.0383 13.4183 18.7595C13.0001 18.495 12.6155 18.2594 12.3125 18.1104C12.2598 18.1008 12.202 18.0913 12.1443 18.0865C12.077 18.0816 12.0194 18.0816 11.9616 18.0768C11.9376 18.0768 11.9231 18.0768 11.9039 18.0768C11.6203 18.072 11.3559 18.0624 11.0626 17.8604C10.8895 17.7402 10.7646 17.6007 10.6973 17.4471C10.6347 17.2979 10.6298 17.1346 10.7069 16.9805C10.7213 16.9518 10.7358 16.9325 10.7453 16.9134C10.7742 16.8557 10.7885 16.8315 10.7405 16.7835C10.6636 16.7112 10.5818 16.6151 10.5289 16.5094C10.5191 16.4952 10.5095 16.4761 10.5047 16.4568Z" fill="#163962"/>
<path d="M14.3989 16.4568H11.8604C11.9228 16.5387 12.0142 16.5577 12.1105 16.5819C12.2065 16.6011 12.3075 16.6251 12.4133 16.6877C12.495 16.7358 12.5719 16.8029 12.6345 16.8896C12.6969 16.9761 12.7451 17.0866 12.7738 17.2166C12.7834 17.2646 12.7882 17.2934 12.7931 17.3223C12.8123 17.4281 12.8267 17.5002 12.9566 17.601C13.4373 17.9569 13.9036 18.2598 14.3267 18.5385C14.6296 18.7308 14.9085 18.9136 15.1536 19.0915L15.1489 19.0867C15.1537 19.0867 15.1585 19.0915 15.1633 19.0915C15.1681 19.0387 15.1632 18.9713 15.1536 18.8993C15.1392 18.8125 15.1199 18.7165 15.1008 18.6395C14.7402 18.2068 14.5142 17.9087 14.3797 17.6539C14.2354 17.3751 14.1969 17.1491 14.221 16.8656C14.2306 16.7502 14.2643 16.6396 14.3363 16.5386C14.3508 16.5096 14.3748 16.4807 14.3989 16.4568Z" fill="#163962"/>
<path d="M19.4856 16.4568H16.5335C16.4905 16.5096 16.447 16.5625 16.4037 16.6058C16.4999 16.7165 16.5672 16.8222 16.6153 16.928C16.6827 17.0675 16.7067 17.1972 16.7067 17.327C16.7018 17.5963 16.5818 17.8317 16.4134 18.0435C16.2644 18.2405 16.0769 18.4088 15.8991 18.5578C15.8847 18.63 15.875 18.7213 15.875 18.8078C15.875 18.9041 15.8847 18.9954 15.8991 19.0626C15.9038 19.0626 15.9086 19.0674 15.9134 19.0723C15.9182 19.0723 15.9231 19.0723 15.9279 19.0723C15.9327 19.0723 15.9327 19.0723 15.9375 19.0674H15.9424C15.9999 19.0339 16.12 18.9665 16.2403 18.8993C16.8317 18.5673 17.5384 18.1732 18.2259 17.6732C18.2885 17.6251 18.3269 17.5771 18.3558 17.5194C18.3798 17.457 18.3894 17.3849 18.3894 17.2982C18.3942 17.1637 18.4326 17.0434 18.4903 16.9473C18.5625 16.8271 18.6635 16.7358 18.7596 16.6781C18.8846 16.6059 19.024 16.6059 19.1586 16.6107C19.2741 16.6107 19.3845 16.6155 19.4327 16.5433C19.4519 16.5193 19.4663 16.4856 19.4856 16.4568Z" fill="#163962"/>
<path d="M15.9614 25.2261C16.12 25.2164 16.2787 25.2068 16.4374 25.1875C18.5768 23.678 20.4134 21.6394 21.7692 19.3703C22.3316 18.4328 22.8077 17.4521 23.1922 16.4568H20.7932C20.7693 16.5096 20.7404 16.5577 20.7116 16.601C20.6587 16.6828 20.601 16.7502 20.5433 16.8175C20.4472 16.9328 20.4424 17.0914 20.4424 17.2452C20.4424 17.5433 20.4424 17.8365 19.9664 18.0241C19.7981 18.0867 19.673 18.1203 19.5528 18.1395C19.4327 18.1636 19.3219 18.1636 19.173 18.1683C19.0672 18.1731 18.9662 18.178 18.875 18.1924C18.7835 18.2067 18.7019 18.2308 18.6201 18.2838C18.4423 18.3895 18.2357 18.5098 18.0145 18.6347C17.3943 18.9906 16.649 19.4232 16.3029 19.7261C16.1684 19.8415 16.0818 19.9761 16.0289 20.2407C15.976 20.5242 15.9664 20.9571 15.9856 21.6637C15.9904 21.7501 15.9904 21.779 15.9904 21.779C15.9999 21.7837 16.053 21.7549 16.1154 21.7262C16.231 21.6686 16.3655 21.5723 16.4713 21.476C16.5674 21.3896 16.6346 21.3128 16.6442 21.2742C16.6491 21.2501 16.6587 21.1973 16.6684 21.1397C16.7309 20.8368 16.8221 20.38 17.0674 20.2214C17.1877 20.1397 17.3174 20.1204 17.4519 20.1012C17.5386 20.0915 17.625 20.0772 17.6972 20.0483C17.7308 20.0386 17.7646 19.9522 17.803 19.8513C17.8943 19.6108 18.0049 19.3176 18.3992 19.3032C18.4472 19.2983 18.4953 19.2983 18.5434 19.2983C18.7261 19.2983 18.8752 19.2983 18.976 19.0964C19.0674 18.9137 19.1442 18.8031 19.2549 18.7309C19.3655 18.654 19.5 18.6348 19.6972 18.6396C19.7163 18.6396 19.7356 18.6396 19.7499 18.6396C19.8943 18.6444 20.178 18.654 20.327 18.6204C20.4376 18.5963 20.4712 18.5579 20.524 18.4954C20.553 18.4618 20.5819 18.428 20.625 18.3848C20.6443 18.3657 20.6636 18.3464 20.6827 18.3271C20.8075 18.1974 20.9135 18.0868 21.1395 18.0916C21.2164 18.0963 21.3076 18.1059 21.3894 18.1493C21.4856 18.202 21.553 18.2935 21.553 18.457C21.553 18.5483 21.5143 18.6636 21.4616 18.7742C21.4086 18.8896 21.3269 19.0098 21.2549 19.0915L21.2501 19.0963C21.2211 19.125 21.1924 19.2021 21.1682 19.2982C21.1394 19.4184 21.1202 19.553 21.125 19.6444C21.1298 19.8512 21.1202 20.0386 21.0625 20.202C21 20.3799 20.8799 20.5195 20.6587 20.6155C20.5769 20.654 20.4856 20.6828 20.4039 20.7117C20.2308 20.7694 20.0625 20.8271 20 20.9184C19.9759 20.952 19.9665 21.0675 19.952 21.1974C19.9279 21.4472 19.9039 21.7452 19.7067 21.88C19.6057 21.9522 19.4856 21.9857 19.3509 22.0048C19.221 22.0241 19.0817 22.0241 18.9279 22.0241C18.8605 22.0241 18.7932 22.0577 18.7211 22.1012C18.62 22.1683 18.5241 22.2743 18.4519 22.3607C18.1634 22.7116 17.928 22.6058 17.6346 22.4761C17.5672 22.4473 17.5001 22.4185 17.4278 22.3894C17.3172 22.3559 17.2019 22.3174 17.0769 22.2933C16.9615 22.2694 16.8413 22.2501 16.7307 22.2549C16.5479 22.2549 16.3893 22.2694 16.2547 22.3126C16.1345 22.351 16.0335 22.4184 15.9375 22.5193C15.9085 22.702 15.9134 24.226 15.9182 24.5433C15.923 24.7692 15.9326 24.9953 15.9614 25.2261Z" fill="#163962"/>
<path d="M24.2547 11.2307H6.74023C6.75944 12.8798 7.10562 14.5721 7.71612 16.2307H10.4469C10.4469 16.221 10.4469 16.2165 10.4469 16.2116C10.4469 16.1634 10.4469 16.1155 10.4565 16.0721C10.4805 15.9374 10.543 15.8364 10.6295 15.7693C10.7161 15.7019 10.8219 15.6732 10.9373 15.6732C10.9853 15.6681 11.0334 15.6732 11.0816 15.6829C11.1873 15.7019 11.2931 15.7309 11.394 15.7886C11.495 15.8462 11.5864 15.9279 11.6584 16.0432C11.7018 16.1155 11.7305 16.1732 11.7545 16.2308H14.4229C14.3363 16.1108 14.2594 15.976 14.2018 15.8319C14.1151 15.6202 14.067 15.3944 14.0863 15.1588C14.0959 15.0289 14.1392 14.9088 14.2162 14.7982C14.2739 14.7116 14.3555 14.6252 14.4565 14.5434C14.4517 14.5193 14.4469 14.4954 14.4421 14.4713C14.3411 14.0483 14.2114 13.4954 14.995 12.9809C15.0094 12.6925 15.0478 12.4713 15.1391 12.2982C15.2401 12.1011 15.3891 11.9665 15.6247 11.88H15.7016C15.9373 11.9665 16.1053 12.1155 16.2065 12.3319C16.3026 12.5242 16.3362 12.7693 16.3169 13.0627C16.9901 13.7117 16.7496 14.2214 16.615 14.4953C16.7016 14.5867 16.7785 14.6924 16.8362 14.8078C16.9227 14.9762 16.971 15.154 16.9805 15.2886C16.9949 15.5193 16.9227 15.7742 16.8121 16.005C16.7786 16.0819 16.7353 16.1588 16.6921 16.2309H19.6151C19.6343 16.2021 19.6536 16.1684 19.6728 16.1348C19.7449 16.0194 19.817 15.9376 19.9084 15.8799C19.9997 15.8223 20.1006 15.7934 20.2112 15.7838C20.2928 15.779 20.3795 15.7886 20.4563 15.8078C20.5526 15.8319 20.6439 15.8752 20.7161 15.9375C20.7881 16.0097 20.841 16.0963 20.8458 16.2069C20.8458 16.2166 20.8458 16.2212 20.8458 16.2308H23.2786C23.8892 14.5721 24.2354 12.8799 24.2547 11.2307Z" fill="#FFED00"/>
<path d="M15.721 25.2308C15.644 25.2355 15.5719 25.2355 15.495 25.2355C15.4037 25.2355 15.3123 25.2355 15.2257 25.2308C15.2354 25.1202 15.2402 24.899 15.245 24.7885C15.2547 24.5192 15.2547 24.2115 15.2547 23.9374C15.2547 23.8895 15.2595 23.846 15.2595 23.8029C15.2595 23.5529 15.2595 23.2644 15.2547 23.0097C15.2498 22.7548 15.2354 22.5337 15.2113 22.4231L15.1873 22.3749C15.0624 22.2212 14.9277 22.1249 14.7739 22.0673C14.6248 22.0097 14.4566 21.9904 14.2498 21.9856C14.0719 21.9807 13.9181 21.9999 13.7643 22.0288C13.6105 22.0623 13.4662 22.1059 13.2931 22.1635C13.1585 22.2067 13.0479 22.25 12.9518 22.2451C12.8653 22.2451 12.7787 22.2116 12.673 22.1106C12.6489 22.0866 12.6249 22.0624 12.6008 22.0385C12.4518 21.8893 12.298 21.7405 12.072 21.7405C11.9374 21.7405 11.8172 21.7309 11.7114 21.6971C11.6105 21.6683 11.5239 21.6203 11.447 21.5481C11.2932 21.404 11.2979 21.154 11.2979 20.957C11.2979 20.8223 11.2979 20.7068 11.2595 20.6204C11.2067 20.5144 11.072 20.4086 10.9181 20.3128C10.7739 20.2259 10.6104 20.1491 10.4806 20.0913C10.3268 20.0239 10.2257 19.9039 10.168 19.7596C10.1056 19.6105 10.0911 19.4279 10.0959 19.2452C10.0959 19.1491 10.0959 19.0433 10.0816 18.9518C10.0671 18.8412 10.0335 18.7499 9.96137 18.6778L9.96612 18.6828C9.90847 18.6154 9.84601 18.5481 9.80276 18.4664C9.7642 18.3942 9.73535 18.303 9.73535 18.1972C9.73535 18.1202 9.7594 18.0579 9.79301 18.0145C9.82666 17.9712 9.87002 17.9423 9.90842 17.9423C10.0479 17.9375 10.2401 18.125 10.3653 18.2499C10.3797 18.2645 10.3892 18.274 10.3988 18.2885C10.4757 18.3654 10.5622 18.4471 10.6585 18.5191C10.7593 18.5962 10.8748 18.6587 10.9902 18.6828C11.1825 18.726 11.3268 18.7211 11.447 18.7211C11.4518 18.7211 11.4614 18.7211 11.4662 18.7211C11.6201 18.7163 11.7258 18.7307 11.8027 18.7788C11.8798 18.8269 11.9422 18.9133 12.0143 19.0575C12.173 19.3798 12.298 19.3798 12.5335 19.3749C12.5721 19.3749 12.6201 19.3749 12.673 19.3749C12.8557 19.3844 12.9085 19.4853 12.9951 19.6536C13.0144 19.6873 13.0336 19.721 13.0625 19.769C13.1154 19.8651 13.173 19.9469 13.2259 20.0095C13.2836 20.0816 13.3412 20.1343 13.399 20.168C13.4855 20.2162 13.5527 20.2306 13.625 20.2451C13.7019 20.2642 13.7932 20.2835 13.9325 20.3699C13.995 20.4132 14.0432 20.4758 14.0768 20.5479C14.1152 20.6344 14.1442 20.7354 14.1634 20.8314C14.2162 21.0863 14.2547 21.2979 14.3556 21.4854C14.4566 21.6824 14.6153 21.8364 14.8989 21.9373C15.0384 21.9901 15.1105 21.9661 15.1633 21.8797C15.2019 21.822 15.2019 21.7546 15.2065 21.6536C15.2451 20.9229 15.2642 20.4567 15.2258 20.1342C15.1826 19.7834 15.0768 19.6006 14.8749 19.4662C14.4278 19.1585 13.9662 18.8458 13.5384 18.572C13.1105 18.2931 12.7114 18.0526 12.399 17.8988L12.3702 17.8891C12.2932 17.8749 12.2259 17.8652 12.1634 17.8604C12.101 17.8555 12.0336 17.8507 11.9711 17.8507C11.9567 17.8507 11.9327 17.8507 11.9086 17.8507C11.6634 17.841 11.4278 17.8362 11.1922 17.6728C11.0575 17.5767 10.9567 17.471 10.9085 17.3603C10.8701 17.269 10.8653 17.1729 10.9134 17.0815C10.923 17.0624 10.9326 17.0383 10.9422 17.0191C11.0335 16.8557 11.0769 16.7834 10.8942 16.6152C10.8317 16.5624 10.7739 16.4853 10.7307 16.4037C10.697 16.3411 10.673 16.2737 10.673 16.2065C10.673 16.1729 10.6778 16.1392 10.6827 16.1104C10.6923 16.0335 10.7259 15.9806 10.7692 15.9517C10.8125 15.9181 10.8749 15.899 10.9423 15.899C10.9759 15.899 11.0095 15.9036 11.0432 15.9086C11.1249 15.9229 11.2067 15.9468 11.2836 15.9855C11.3509 16.0238 11.4182 16.0815 11.4663 16.1632C11.5191 16.2498 11.5432 16.3172 11.5673 16.3795C11.5961 16.442 11.6154 16.4998 11.6586 16.5622C11.7692 16.7353 11.9087 16.769 12.0625 16.8026C12.1394 16.8218 12.2212 16.8363 12.2981 16.8844C12.3558 16.9182 12.4087 16.9614 12.4472 17.0239C12.4952 17.0863 12.5289 17.1633 12.5528 17.269C12.5577 17.2977 12.5625 17.3315 12.5721 17.3603C12.5962 17.519 12.6155 17.6296 12.8221 17.7834C13.298 18.1393 13.774 18.4469 14.2067 18.7258C14.5048 18.9228 14.7837 19.1006 15.024 19.2737C15.0624 19.2978 15.096 19.3171 15.1297 19.3267C15.1681 19.3364 15.2065 19.3364 15.2451 19.3267C15.2835 19.3171 15.3172 19.293 15.3412 19.2546C15.3556 19.2353 15.3605 19.2161 15.3701 19.1969C15.3941 19.1055 15.3892 18.9901 15.3701 18.8699C15.3557 18.7545 15.3412 18.6152 15.2884 18.5093C14.9326 18.0816 14.7067 17.7929 14.5816 17.5478C14.4614 17.3169 14.4278 17.1248 14.4471 16.8844C14.4567 16.8073 14.4758 16.7305 14.5239 16.6631C14.6104 16.5383 14.7451 16.4709 14.8749 16.3939C14.6826 16.1968 14.5191 16.0046 14.4133 15.7449C14.3412 15.567 14.298 15.37 14.3123 15.1776C14.322 15.0863 14.3508 15.0045 14.4037 14.9277C14.4854 14.8074 14.596 14.721 14.7113 14.6344C14.6633 14.4132 14.5912 14.1969 14.6007 13.9709C14.6103 13.5623 14.8941 13.3123 15.2209 13.1055C15.2257 12.8748 15.2353 12.6103 15.3363 12.3988C15.4037 12.2641 15.5094 12.1728 15.6632 12.1055C15.8171 12.1777 15.9325 12.2834 16.0045 12.4277C16.1103 12.6536 16.1008 12.9084 16.0816 13.1537C16.3075 13.3603 16.5238 13.6104 16.5334 13.9372C16.5382 14.168 16.4228 14.3555 16.3363 14.5622C16.4663 14.6632 16.5575 14.7593 16.6343 14.9084C16.7017 15.0478 16.745 15.1968 16.7547 15.3074C16.7643 15.4949 16.7017 15.7064 16.6055 15.9085C16.4758 16.1824 16.3075 16.3939 16.0767 16.591C16.2066 16.7208 16.3315 16.8507 16.4085 17.0239C16.4566 17.1248 16.4759 17.2257 16.4759 17.3218C16.4711 17.5334 16.3749 17.7303 16.2354 17.9035C16.0913 18.0912 15.899 18.2593 15.721 18.4084C15.6489 18.5236 15.6489 18.6728 15.6489 18.8073C15.6489 18.9227 15.6585 19.0381 15.6825 19.1246C15.6873 19.1439 15.6969 19.1678 15.7114 19.1823C15.7353 19.2254 15.7739 19.2593 15.8221 19.2785C15.8749 19.2976 15.9326 19.3073 15.9903 19.2928C16.0094 19.2881 16.0335 19.2785 16.0528 19.2641C16.1873 19.187 16.2691 19.1438 16.3507 19.0957C16.947 18.7639 17.668 18.36 18.3603 17.8553C18.4614 17.7832 18.524 17.7015 18.5625 17.6054C18.6008 17.5139 18.6153 17.413 18.62 17.3024C18.62 17.211 18.6489 17.1295 18.6874 17.0621C18.7404 16.9755 18.8076 16.9132 18.8701 16.8745C18.9423 16.8313 19.0528 16.8361 19.1538 16.8361C19.3365 16.841 19.5095 16.8458 19.6249 16.6678C19.6682 16.6005 19.7018 16.5428 19.7403 16.4708C19.7739 16.4083 19.8172 16.3361 19.8654 16.2544C19.9181 16.1677 19.9712 16.1103 20.0287 16.0717C20.0865 16.0333 20.1489 16.0188 20.2259 16.014C20.2884 16.0092 20.3459 16.014 20.4038 16.0285C20.4662 16.0428 20.519 16.0717 20.5624 16.1055C20.5959 16.1343 20.6152 16.1727 20.6152 16.2207C20.6198 16.24 20.6152 16.2641 20.6104 16.2881C20.5959 16.3555 20.5623 16.418 20.5189 16.4757C20.4805 16.5382 20.4228 16.6054 20.3699 16.668C20.2161 16.8507 20.2161 17.0478 20.2161 17.2449C20.2161 17.4661 20.2161 17.6824 19.8843 17.8074C19.7305 17.8699 19.6199 17.8988 19.5141 17.918C19.4132 17.9323 19.3074 17.9372 19.1681 17.942C19.0527 17.9468 18.9469 17.9468 18.8361 17.9662C18.7209 17.9855 18.6102 18.019 18.4996 18.0864C18.341 18.1825 18.1295 18.3027 17.9034 18.4372C17.2736 18.798 16.514 19.2353 16.1486 19.5526C15.9803 19.7066 15.8649 19.8699 15.8072 20.1968C15.7495 20.4997 15.735 20.9468 15.7591 21.6728C15.764 21.8796 15.8266 21.9708 15.9323 21.9997C16.0236 22.0238 16.1099 21.9805 16.2158 21.9276C16.3504 21.8602 16.5043 21.7545 16.6245 21.6438C16.7494 21.5333 16.8455 21.4133 16.8648 21.3266C16.8744 21.269 16.884 21.2305 16.8937 21.1824C16.9466 20.9181 17.0234 20.5191 17.1917 20.4083C17.2687 20.3603 17.3744 20.346 17.4851 20.3267C17.5811 20.3124 17.6773 20.2977 17.7783 20.2593C17.9033 20.2161 17.9561 20.0815 18.0139 19.9323C18.0812 19.7546 18.1629 19.5381 18.4082 19.5285C18.4562 19.5237 18.5043 19.5237 18.5427 19.5237C18.8071 19.5237 19.0187 19.5237 19.1821 19.1968C19.2543 19.0526 19.3072 18.9659 19.3745 18.9179H19.3793C19.4468 18.8747 19.538 18.865 19.6918 18.865C19.706 18.865 19.7205 18.8699 19.7446 18.8699C19.8984 18.8747 20.1965 18.8841 20.3792 18.8409C20.562 18.8026 20.6148 18.74 20.7014 18.6391C20.7207 18.6103 20.7494 18.5815 20.783 18.5477C20.807 18.5236 20.8264 18.5045 20.8455 18.4852C20.9322 18.3939 21.0043 18.3169 21.134 18.3217C21.1821 18.3217 21.2399 18.3265 21.2782 18.3458C21.3023 18.3602 21.3216 18.3939 21.3216 18.4564C21.3216 18.5141 21.2975 18.591 21.2542 18.6775C21.2108 18.7738 21.1483 18.8699 21.086 18.9372L21.0906 18.9324C21.0282 18.9949 20.9802 19.1103 20.9465 19.2401C20.9128 19.3796 20.8936 19.5381 20.8936 19.6486C20.8984 19.8314 20.8936 19.9949 20.8504 20.1245C20.807 20.245 20.7207 20.3411 20.5667 20.4083C20.4993 20.4418 20.4129 20.4708 20.3312 20.495C20.1242 20.567 19.9224 20.6343 19.8166 20.7881C19.7542 20.8746 19.7398 21.0141 19.7253 21.1776C19.706 21.3795 19.6869 21.6151 19.5761 21.692C19.5089 21.7402 19.4177 21.7641 19.3168 21.7786C19.2061 21.7977 19.0762 21.7977 18.9273 21.7977C18.8118 21.7977 18.7012 21.8411 18.5954 21.9132C18.4706 21.9948 18.3552 22.1152 18.2734 22.2161C18.0954 22.4324 17.9319 22.3602 17.7252 22.2689C17.653 22.2352 17.581 22.2016 17.4994 22.1775C17.384 22.1343 17.2541 22.1006 17.1244 22.0717C16.9896 22.0429 16.8549 22.0237 16.7253 22.0237C16.5234 22.0284 16.3455 22.0429 16.1868 22.0958C16.0185 22.1535 15.8743 22.2448 15.7445 22.3938L15.7205 22.4418C15.6772 22.6294 15.6821 23.1389 15.6869 23.5958C15.6869 23.6776 15.6869 23.7592 15.6869 23.8312C15.6869 24.0573 15.6869 24.3122 15.6917 24.5477C15.6917 24.6248 15.6965 24.7017 15.6965 24.7737C15.7017 24.8894 15.7114 25.1154 15.721 25.2308Z" fill="#39A642"/>
<path d="M15.7452 13.6251C15.6539 13.7549 15.5867 13.8895 15.5336 14.0338C15.5192 14.0817 15.5001 14.1347 15.4903 14.1827C15.4903 14.1924 15.4855 14.202 15.4808 14.2164C15.4663 14.2886 15.4567 14.3606 15.4519 14.4375C15.4326 14.7837 15.5192 15.0769 15.6057 15.3655C15.673 15.5769 15.7355 15.7934 15.7644 16.0337C15.7644 16.0482 15.7644 16.0625 15.7691 16.0769C15.8412 16.0386 15.9182 15.976 15.9952 15.8799C16.0288 15.8319 16.0674 15.7934 16.1201 15.8318C16.1731 15.8702 16.1491 15.9232 16.1104 15.9711C16.0047 16.1107 15.8895 16.1971 15.7787 16.2355C15.7837 16.4038 15.774 16.5864 15.7499 16.7549C15.7211 16.9279 15.6681 17.0866 15.5912 17.2068C15.5529 17.2596 15.4951 17.3029 15.4471 17.2644C15.3893 17.2213 15.4327 17.1683 15.4663 17.1155C15.5288 17.0193 15.5721 16.8798 15.601 16.7308C15.625 16.577 15.6297 16.4184 15.6297 16.2692C15.5577 16.274 15.4856 16.2597 15.4231 16.2356C15.3414 16.202 15.2741 16.1491 15.226 16.0818C15.1539 15.9953 15.1153 15.8799 15.125 15.7645C15.1299 15.7117 15.1491 15.6635 15.2115 15.6779C15.2789 15.6875 15.274 15.7308 15.2692 15.7886C15.2692 15.8607 15.2933 15.9329 15.3365 15.9904C15.3751 16.0338 15.4231 16.0722 15.4808 16.0964C15.524 16.1108 15.5673 16.1203 15.6202 16.1156C15.6155 16.0964 15.6155 16.0722 15.6106 16.053C15.5866 15.8222 15.5241 15.6156 15.4615 15.4088C15.3702 15.1058 15.2789 14.8031 15.2982 14.4329C15.3029 14.3607 15.3125 14.2982 15.3221 14.2309C15.2885 14.202 15.2597 14.1733 15.2308 14.1347C15.1971 14.0867 15.1731 14.0434 15.1539 13.9568C15.1442 13.9184 15.1394 13.8655 15.2066 13.8511C15.2691 13.8367 15.2885 13.8848 15.2981 13.9231C15.3124 13.9856 15.3269 14.0145 15.3509 14.0434C15.3557 14.053 15.3605 14.0578 15.3653 14.0626C15.375 14.0385 15.3845 14.0098 15.3941 13.9808C15.4471 13.827 15.524 13.6877 15.6201 13.5433C15.6392 13.5097 15.6826 13.4809 15.7308 13.5145C15.7741 13.5433 15.7692 13.5914 15.7452 13.6251Z" fill="#454545"/>
<path d="M20.1247 19.5912C19.5817 20.2453 19.096 20.4904 18.6682 20.7116C18.3219 20.8894 18.0143 21.048 17.7355 21.3991C17.7067 21.4374 17.6393 21.4471 17.6009 21.4135C17.5623 21.3798 17.5575 21.3174 17.5865 21.2836C17.8893 20.8989 18.2163 20.7307 18.5816 20.5432C18.9952 20.3315 19.4567 20.0912 19.9808 19.4663C20.0096 19.4327 20.0722 19.4231 20.1153 19.4566C20.1537 19.4903 20.1585 19.5528 20.1247 19.5912Z" fill="#454545"/>
<path d="M11.0671 19.2835C11.5912 19.9325 12.0527 20.173 12.4661 20.3894C12.8266 20.5816 13.1488 20.7499 13.4468 21.1345C13.4757 21.1729 13.4853 21.2307 13.4324 21.2693C13.3844 21.298 13.3266 21.2883 13.2977 21.2498C13.0285 20.8989 12.7207 20.7354 12.3795 20.5575C11.9516 20.3315 11.466 20.0817 10.9179 19.4037C10.8891 19.3654 10.8939 19.3028 10.9323 19.2693C10.9709 19.2354 11.0382 19.245 11.0671 19.2835Z" fill="#454545"/>
<path d="M27.0719 23.7883L27.3893 24.0096L27.1873 24.298L26.8701 24.0769L27.0719 23.7883Z" fill="#3E4549"/>
<path d="M27.4761 23.2114L27.7933 23.4326L27.5913 23.7211L27.2739 23.5L27.4761 23.2114Z" fill="#3E4549"/>
<path d="M26.6153 24.1443L26.4037 24.4423L25.0912 23.524C24.8651 23.3654 24.7017 23.2115 24.6056 23.0673C24.5046 22.923 24.4614 22.7501 24.471 22.5576C24.4805 22.3653 24.5624 22.1587 24.7162 21.9375C24.8652 21.7259 25.0238 21.5769 25.1922 21.4952C25.3604 21.4086 25.5336 21.3894 25.7114 21.4277C25.8941 21.4661 26.1008 21.572 26.3413 21.7404L27.6537 22.6585L27.447 22.9566L26.1343 22.0383C25.9373 21.9038 25.7788 21.8171 25.6586 21.7882C25.543 21.7594 25.4229 21.7739 25.3123 21.8267C25.197 21.8796 25.0959 21.971 25.0045 22.1009C24.8508 22.3221 24.7931 22.5142 24.8268 22.6826C24.8605 22.8461 25.0191 23.0238 25.3028 23.2259L26.6153 24.1443Z" fill="#3E4549"/>
<path d="M29.553 17.9421L29.9376 18.0047L29.8799 18.3557L29.5 18.2932L29.553 17.9421Z" fill="#3E4549"/>
<path d="M29.6634 17.2451L30.0481 17.3076L29.9903 17.6587L29.6104 17.5961L29.6634 17.2451Z" fill="#3E4549"/>
<path d="M29.2981 18.4617L29.2404 18.827L27.6586 18.5769C27.3846 18.5337 27.1731 18.4665 27.0192 18.3799C26.8654 18.2885 26.7549 18.1588 26.6778 17.9809C26.601 17.7982 26.5865 17.5769 26.6251 17.3174C26.6683 17.0579 26.7452 16.8559 26.8606 16.7068C26.9712 16.5578 27.1204 16.4617 27.2981 16.4184C27.476 16.375 27.7116 16.375 28.0001 16.4233L29.5817 16.6732L29.5242 17.0338L27.947 16.7838C27.7067 16.7454 27.5287 16.7406 27.4087 16.7693C27.2884 16.7935 27.1923 16.856 27.1106 16.952C27.0337 17.0531 26.9808 17.1779 26.9568 17.3365C26.9135 17.601 26.9471 17.803 27.0482 17.9327C27.154 18.0674 27.375 18.1589 27.7164 18.2116L29.2981 18.4617Z" fill="#3E4549"/>
<path d="M26.769 14.2499L29.5382 14.1538L29.5527 14.5144L27.1103 14.6009L27.1537 15.9663L26.8268 15.9759L26.769 14.2499Z" fill="#3E4549"/>
<path d="M29.3415 12.7979L29.4281 13.1537L27.8752 13.5383C27.6059 13.6056 27.38 13.6297 27.2069 13.6105C27.0339 13.5864 26.8753 13.5095 26.7358 13.3749C26.5964 13.2402 26.4954 13.0432 26.4329 12.7835C26.3656 12.5336 26.3608 12.3124 26.409 12.1344C26.452 11.9519 26.5483 11.8027 26.6974 11.697C26.8464 11.5864 27.0627 11.495 27.3462 11.423L28.8993 11.0383L28.9907 11.3941L27.4377 11.7788C27.2022 11.8365 27.0387 11.9037 26.9377 11.9711C26.8368 12.0433 26.7694 12.1393 26.7357 12.2595C26.7021 12.3797 26.7069 12.5191 26.7454 12.673C26.8078 12.9326 26.9136 13.1057 27.0626 13.1874C27.2068 13.2691 27.4472 13.2691 27.7886 13.1826L29.3415 12.7979Z" fill="#3E4549"/>
<path d="M25.125 9.49501L27.5723 8.19214L27.7452 8.51432L26.5337 9.16338L28.3943 9.73068L28.6251 10.1681L27.0867 9.67292L26.2022 11.5191L25.9762 11.0913L26.7502 9.55751L26.149 9.36535L25.2982 9.81724L25.125 9.49501Z" fill="#3E4549"/>
<path d="M15.5575 3.25463L15.9085 3.24988C15.9133 3.38924 15.9422 3.50465 15.9951 3.59601C16.0528 3.69212 16.1393 3.76913 16.2595 3.83153C16.3796 3.89403 16.5191 3.93249 16.6778 3.94214C16.8171 3.95179 16.9422 3.94214 17.0528 3.90849C17.1634 3.87478 17.2451 3.82193 17.3027 3.75467C17.3604 3.68246 17.3942 3.60561 17.3991 3.51915C17.4039 3.4326 17.3846 3.35569 17.3364 3.28828C17.2933 3.22092 17.2115 3.15847 17.1009 3.11041C17.0287 3.07191 16.87 3.01906 16.6201 2.9373C16.3701 2.86039 16.1922 2.78829 16.0962 2.73058C15.971 2.64887 15.875 2.55746 15.8173 2.45176C15.7596 2.34594 15.7354 2.22584 15.7451 2.10082C15.7547 1.96136 15.8028 1.8316 15.8943 1.71619C15.9808 1.60078 16.101 1.51912 16.2596 1.46622C16.4134 1.41336 16.5866 1.39411 16.774 1.40376C16.9761 1.41816 17.1538 1.46622 17.3076 1.54312C17.4615 1.62003 17.5721 1.72584 17.6491 1.8604C17.7259 1.99507 17.7597 2.14408 17.7549 2.30274L17.4039 2.30754C17.3942 2.12963 17.3412 1.99496 17.2355 1.89885C17.1345 1.7979 16.9761 1.74509 16.7645 1.73059C16.5432 1.71619 16.3797 1.74504 16.2741 1.81715C16.1683 1.8892 16.1104 1.98541 16.101 2.10082C16.0914 2.20178 16.1249 2.28349 16.1923 2.35074C16.2548 2.42295 16.4375 2.49986 16.7308 2.58642C17.0192 2.67773 17.2213 2.74983 17.327 2.80749C17.4857 2.89404 17.5963 2.995 17.6635 3.11511C17.7357 3.23532 17.7646 3.36994 17.755 3.5142C17.7405 3.66321 17.6924 3.79782 17.5963 3.92278C17.505 4.04785 17.3752 4.13921 17.2117 4.20166C17.0482 4.26417 16.8703 4.28822 16.6732 4.27387C16.4231 4.25457 16.2164 4.20651 16.0531 4.11995C15.8896 4.03345 15.7646 3.91324 15.6779 3.76422C15.5911 3.61046 15.5527 3.4374 15.5575 3.25463Z" fill="#3E4549"/>
<path d="M12.2017 4.64421L11.5767 1.94237L13.5286 1.49048L13.6007 1.8077L12.0093 2.17789L12.1969 3.00486L13.692 2.65873L13.7642 2.97606L12.2738 3.32219L12.4853 4.24043L14.144 3.86064L14.2161 4.17797L12.2017 4.64421Z" fill="#3E4549"/>
<path d="M11.4569 4.71624C11.5771 4.49037 11.6108 4.22595 11.5579 3.91822L11.1828 3.98067C11.2309 4.2163 11.2165 4.41331 11.1347 4.58168C11.053 4.74989 10.9183 4.87496 10.7309 4.95671C10.577 5.02402 10.4136 5.04807 10.2453 5.02877C10.0771 5.00957 9.92808 4.93266 9.79332 4.79805C9.65881 4.66819 9.5434 4.49042 9.44719 4.27875C9.37503 4.11054 9.32692 3.93742 9.31257 3.75475C9.29332 3.57684 9.32697 3.40862 9.41838 3.25471C9.50974 3.10575 9.6491 2.98553 9.84622 2.89898C10.0144 2.82197 10.1731 2.80287 10.3222 2.83652C10.4712 2.87492 10.6155 2.96633 10.7549 3.12495L11.053 2.90378C10.8799 2.69706 10.6779 2.5721 10.4472 2.51919C10.2164 2.46624 9.97603 2.49514 9.72121 2.6105C9.50014 2.71146 9.31732 2.85103 9.17801 3.03369C9.03855 3.22111 8.96164 3.43273 8.94714 3.6731C8.93274 3.91827 8.9857 4.16819 9.10095 4.43272C9.21161 4.67309 9.35578 4.87981 9.53849 5.05292C9.72116 5.22114 9.92313 5.3269 10.1443 5.3605C10.3066 5.38522 10.4821 5.36809 10.6724 5.30992L10.702 5.64433C10.7837 5.61057 10.8461 5.58662 10.8895 5.58172C10.928 5.57697 10.9616 5.58172 10.9808 5.59148C11.0001 5.60108 11.0145 5.62023 11.024 5.63953C11.0914 5.77889 10.8846 5.90875 10.8029 5.94235C10.7693 5.95681 10.7163 5.98086 10.6394 6.00971L10.6346 6.19238C10.7163 6.17313 10.875 6.12017 10.9664 6.07697C11.1346 6.00491 11.2452 5.9135 11.2981 5.81254C11.3509 5.71158 11.3605 5.61537 11.3222 5.52892C11.2932 5.46641 11.2452 5.42306 11.173 5.39911C11.101 5.37015 11.0144 5.37505 10.8749 5.41831L10.861 5.24044C10.8689 5.23698 10.8767 5.23425 10.8846 5.23079C11.1492 5.11522 11.3415 4.94226 11.4569 4.71624Z" fill="#3E4549"/>
<path d="M7.64919 7.26908L5.94238 5.08644L6.23096 4.86042L6.93282 5.7595L8.06748 4.87007L7.36546 3.97109L7.65869 3.74512L9.36549 5.93251L9.07211 6.15853L8.26929 5.12969L7.13479 6.01432L7.93756 7.04322L7.64919 7.26908Z" fill="#3E4549"/>
<path d="M8.24987 25.1393L9.12975 24.4807L8.77882 25.5336L9.62975 26.173H8.56715L8.24987 27.1441L7.93259 26.173H6.875L7.72107 25.5336L7.37494 24.4807L8.24987 25.1393Z" fill="#3E4549"/>
<path d="M17.6298 26.9903L17.5527 26.6969L19.173 26.2932L19.2355 26.5335C19.1201 26.7403 19.0143 27.0046 18.9279 27.3268C18.8414 27.6441 18.7933 27.9662 18.7835 28.2835C18.7741 28.5094 18.7933 28.7498 18.8364 28.9998L18.5192 29.0817C18.4758 28.8845 18.4567 28.6345 18.4567 28.3363C18.4615 28.0384 18.5048 27.7451 18.5767 27.4518C18.6489 27.1586 18.7404 26.9037 18.8556 26.6872L17.6298 26.9903Z" fill="#3E4549"/>
<path d="M11.8892 28.9326L11.5864 28.8413L12.1296 26.952L11.5815 26.7884L11.6584 26.5337C11.9903 26.6203 12.168 26.6297 12.3796 26.375L12.6056 26.4375L11.8892 28.9326Z" fill="#3E4549"/>
<path d="M22.7497 25.1393L21.8651 24.4807L22.2162 25.5336L21.3652 26.173H22.4277L22.7497 27.1441L23.067 26.173H24.1247L23.2787 25.5336L23.62 24.4807L22.7497 25.1393Z" fill="#3E4549"/>
<path d="M6.8315 22.8798L4.5575 24.4712L3.48535 22.9376L3.75458 22.7502L4.61521 23.9857L5.32187 23.4904L4.5719 22.428L4.84102 22.2356L5.58629 23.3029L6.61993 22.5818L6.8315 22.8798Z" fill="#3E4549"/>
<path d="M4.13918 16.25L1.36523 16.1537L1.43729 14.1587L1.76422 14.1682L1.70651 15.7981L2.55269 15.8318L2.61034 14.3028L2.93247 14.3077L2.87962 15.8412L3.82185 15.875L3.88441 14.1778L4.21129 14.1874L4.13918 16.25Z" fill="#3E4549"/>
<path d="M4.58166 18.8605L1.84616 19.2933L1.78355 18.9231L3.70673 17.1442L1.55769 17.4857L1.50488 17.1394L4.24038 16.7019L4.29803 17.0769L2.37496 18.8557L4.52885 18.5145L4.58166 18.8605Z" fill="#3E4549"/>
<path d="M5.56734 21.0818L3.03372 22.2068L2.22119 20.3751L2.51932 20.2453L3.18268 21.7405L3.96155 21.3943L3.33659 19.9953L3.63462 19.8607L4.25973 21.2644L5.1202 20.8799L4.42794 19.3222L4.72602 19.1924L5.56734 21.0818Z" fill="#3E4549"/>
<path d="M15.5864 28.1829C15.5623 27.8752 15.572 27.6299 15.62 27.4376C15.6632 27.25 15.7449 27.0961 15.8603 26.9857C15.9757 26.8751 16.1247 26.8078 16.3124 26.7933C16.4517 26.7838 16.572 26.7981 16.6826 26.8461C16.7932 26.8893 16.8845 26.9663 16.9615 27.0625C17.0383 27.1634 17.1008 27.2838 17.1537 27.4327C17.2065 27.5768 17.2451 27.7789 17.2643 28.0337C17.2932 28.3365 17.2836 28.5818 17.2354 28.7742C17.1922 28.9617 17.1105 29.1155 16.9951 29.2261C16.8797 29.3367 16.7307 29.4039 16.5431 29.4183C16.2931 29.4425 16.0912 29.3703 15.9326 29.2022C15.7449 29.0048 15.6295 28.6636 15.5864 28.1829ZM15.9133 28.1539C15.9518 28.577 16.0239 28.851 16.1344 28.9808C16.245 29.1154 16.3749 29.1731 16.5191 29.1586C16.6632 29.1491 16.7786 29.0673 16.8651 28.9183C16.9517 28.7693 16.9759 28.4856 16.9422 28.0625C16.9038 27.6395 16.8315 27.3605 16.721 27.2307C16.6056 27.101 16.4807 27.0433 16.3315 27.0578C16.1873 27.0675 16.0767 27.1394 15.9997 27.2693C15.9036 27.4375 15.8749 27.7308 15.9133 28.1539Z" fill="#3E4549"/>
<path d="M13.2549 28.6299L13.5577 28.6395C13.5673 28.7837 13.601 28.8895 13.6683 28.9665C13.7308 29.0386 13.8222 29.0819 13.9327 29.0963C14.0289 29.1059 14.1154 29.0963 14.1971 29.0579C14.2742 29.0243 14.3414 28.9714 14.3943 28.9041C14.4519 28.8367 14.5049 28.7406 14.5529 28.6203C14.5963 28.4955 14.6298 28.3704 14.6443 28.2405C14.6443 28.2263 14.6492 28.207 14.6492 28.1781C14.577 28.2695 14.4808 28.3417 14.3654 28.3898C14.2453 28.4379 14.1251 28.4571 14 28.4379C13.7838 28.4138 13.6154 28.3128 13.4857 28.1445C13.3607 27.9714 13.3125 27.7599 13.3414 27.5099C13.3751 27.2455 13.4761 27.0485 13.6492 26.9089C13.8222 26.7696 14.0242 26.7118 14.2549 26.7406C14.4232 26.7599 14.5674 26.8273 14.6972 26.933C14.8221 27.0388 14.9088 27.1783 14.9616 27.356C15.0144 27.5291 15.0192 27.7743 14.9808 28.0868C14.9425 28.4137 14.8751 28.6733 14.779 28.8561C14.6827 29.0435 14.5577 29.1781 14.4088 29.2597C14.2549 29.3463 14.0818 29.3752 13.8942 29.3511C13.6923 29.3271 13.5385 29.2501 13.4232 29.1253C13.3125 29.0001 13.2549 28.8317 13.2549 28.6299ZM14.678 27.6539C14.7019 27.4761 14.6731 27.3269 14.5866 27.2067C14.5048 27.0915 14.3942 27.0242 14.2596 27.0048C14.1202 26.9905 13.9904 27.0338 13.875 27.1347C13.7549 27.2356 13.6875 27.3752 13.6636 27.5578C13.6443 27.7212 13.6779 27.8606 13.7645 27.9711C13.851 28.0866 13.9664 28.1539 14.1107 28.1731C14.2548 28.1875 14.3799 28.1539 14.4855 28.0626C14.5914 27.9712 14.6587 27.8367 14.678 27.6539Z" fill="#3E4549"/>
<path d="M5.90892 9.36546L4.42334 6.79322L4.67331 6.4856L7.54337 7.34617L7.27894 7.67315L6.42327 7.39428L5.6925 8.29821L6.15394 9.06258L5.90892 9.36546ZM5.52909 8.02403L6.12044 7.29327C6.12044 7.29327 4.91373 6.88938 4.76947 6.82687C4.88488 6.96629 5.52909 8.02403 5.52909 8.02403Z" fill="#3E4549"/>
<path d="M4.94224 11.2787L2.49512 9.97584L2.98061 9.05756C3.08162 8.87009 3.18738 8.73543 3.29319 8.64892C3.40375 8.56241 3.52871 8.51426 3.66332 8.50476C3.80278 8.49511 3.92785 8.51916 4.03841 8.57681C4.14417 8.63452 4.22582 8.71628 4.28833 8.82199C4.35078 8.92769 4.37963 9.05281 4.37489 9.19697C4.49979 9.07191 4.63446 8.9998 4.77877 8.9758C4.92779 8.95175 5.07205 8.9758 5.21621 9.05281C5.32687 9.11046 5.42298 9.19217 5.49509 9.29313C5.56719 9.39414 5.6104 9.49505 5.62975 9.59606C5.64415 9.69707 5.63455 9.80763 5.6057 9.92773C5.57685 10.048 5.51919 10.1875 5.43748 10.346L4.94224 11.2787ZM4.82203 10.7979L5.14896 10.1922C5.20181 10.0864 5.24032 10.0094 5.25472 9.96619C5.27877 9.88448 5.29322 9.80757 5.28842 9.74032C5.28362 9.67291 5.25952 9.61046 5.21626 9.5432C5.17306 9.4807 5.11525 9.42779 5.03355 9.38939C4.94709 9.34134 4.85083 9.32203 4.75947 9.33174C4.66816 9.34139 4.5864 9.37979 4.5143 9.45184C4.44224 9.5192 4.36529 9.62976 4.28358 9.78843L3.98555 10.3509L4.82203 10.7979ZM3.69217 10.1971L3.9759 9.66811C4.05286 9.52875 4.09601 9.41814 4.11041 9.34598C4.12971 9.24987 4.12486 9.16812 4.08646 9.09606C4.05281 9.02396 3.9951 8.96625 3.9086 8.9182C3.82689 8.87484 3.74513 8.85569 3.66342 8.86049C3.58172 8.87009 3.50961 8.90369 3.447 8.96145C3.3846 9.02396 3.30764 9.13931 3.21628 9.31723L2.95671 9.80758L3.69217 10.1971Z" fill="#3E4549"/>
<path d="M4.25468 13.8268L1.55273 13.2018L1.83156 12.0047C1.88436 11.7643 1.95182 11.5864 2.02868 11.471C2.10563 11.3604 2.21619 11.2787 2.35566 11.2307C2.49512 11.1825 2.63939 11.1778 2.7883 11.2113C2.98061 11.2595 3.12963 11.3556 3.23058 11.5095C3.3316 11.6633 3.37485 11.8749 3.3508 12.144C3.4181 12.0575 3.47576 11.9998 3.53351 11.9614C3.65373 11.8748 3.79794 11.8076 3.96135 11.745L4.80278 11.4469L4.70182 11.8941L4.05756 12.1248C3.8701 12.1873 3.72583 12.2449 3.62492 12.2931C3.52396 12.3411 3.44701 12.3892 3.40375 12.4325C3.3557 12.4806 3.31719 12.5286 3.29319 12.5814C3.27389 12.6199 3.25464 12.6824 3.23549 12.7785L3.13938 13.1921L4.33644 13.471L4.25468 13.8268ZM2.82675 13.1201L3.00472 12.3508C3.04307 12.1874 3.05752 12.0575 3.04307 11.9566C3.02872 11.8556 2.99507 11.7739 2.92766 11.7114C2.86525 11.644 2.79315 11.6008 2.70184 11.5816C2.57678 11.5527 2.46137 11.5719 2.35561 11.649C2.25465 11.721 2.17774 11.8606 2.12964 12.0576L1.93252 12.9134L2.82675 13.1201Z" fill="#3E4549"/>
<path d="M22.7261 6.7114L24.7213 4.78833L25.5723 5.67291C25.7453 5.85083 25.8608 5.99984 25.9137 6.12965C25.9665 6.25471 25.9713 6.38922 25.9376 6.53354C25.8992 6.6777 25.827 6.79807 25.7164 6.90857C25.5723 7.04319 25.4136 7.11054 25.226 7.11534C25.0386 7.11534 24.8416 7.03364 24.6299 6.87017C24.6635 6.97113 24.6829 7.05759 24.6829 7.12494C24.6875 7.2691 24.6684 7.42777 24.6299 7.60089L24.4231 8.47112L24.1009 8.13933L24.2644 7.47107C24.3076 7.27881 24.3366 7.1298 24.3558 7.01913C24.3703 6.90857 24.3703 6.81727 24.3558 6.75471C24.3462 6.69225 24.3221 6.63445 24.2934 6.58159C24.2741 6.54804 24.226 6.49508 24.1634 6.42783L23.8655 6.12005L22.9807 6.97593L22.7261 6.7114ZM24.0961 5.89893L24.6444 6.46623C24.7597 6.58634 24.8654 6.67295 24.9521 6.71625C25.0434 6.75946 25.1346 6.76911 25.2211 6.75466C25.3126 6.73535 25.3896 6.69695 25.452 6.63439C25.5481 6.54309 25.5915 6.43253 25.5867 6.30757C25.5818 6.17776 25.5048 6.04304 25.3653 5.89403L24.7548 5.26422L24.0961 5.89893Z" fill="#3E4549"/>
<path d="M20.8703 4.00953C21.0913 3.6057 21.375 3.35092 21.7165 3.24517C22.0577 3.13455 22.4038 3.17776 22.7454 3.36527C22.9663 3.49034 23.1395 3.6538 23.2597 3.86052C23.3799 4.06724 23.4328 4.29321 23.4231 4.53843C23.4135 4.7788 23.3367 5.02392 23.202 5.26435C23.0675 5.51437 22.8944 5.70669 22.6876 5.8413C22.4809 5.98076 22.2598 6.05287 22.0241 6.05287C21.7838 6.04807 21.5627 5.99036 21.3512 5.875C21.1251 5.74514 20.9473 5.58168 20.8318 5.37011C20.7118 5.15869 20.6588 4.93267 20.6732 4.6923C20.6876 4.44707 20.75 4.22105 20.8703 4.00953ZM21.1971 4.197C21.0338 4.49033 20.9856 4.76435 21.0481 5.01917C21.1155 5.27395 21.2646 5.46626 21.5002 5.60088C21.7454 5.73069 21.9906 5.75954 22.2405 5.67298C22.4907 5.59133 22.7021 5.39416 22.8751 5.08173C22.9859 4.88461 23.0434 4.6923 23.0627 4.50958C23.0771 4.32681 23.0386 4.15865 22.9569 4.00468C22.875 3.85087 22.75 3.73071 22.5915 3.64415C22.3655 3.51919 22.1251 3.48554 21.8751 3.55279C21.625 3.61535 21.3991 3.83167 21.1971 4.197Z" fill="#3E4549"/>
<path d="M18.0288 4.4182L18.8845 1.77881L19.8797 2.10569C20.0576 2.15854 20.1875 2.21155 20.274 2.2596C20.3942 2.32201 20.4901 2.39891 20.5575 2.49032C20.6248 2.57688 20.6681 2.68259 20.6874 2.81245C20.7065 2.93741 20.6922 3.06728 20.649 3.19704C20.5768 3.41826 20.4471 3.58647 20.2499 3.69708C20.0576 3.80289 19.7739 3.79809 19.4037 3.67778L18.7259 3.45671L18.3797 4.52876L18.0288 4.4182ZM18.8266 3.14903L19.5094 3.3701C19.7355 3.44231 19.9085 3.45181 20.0286 3.399C20.1537 3.34615 20.2402 3.24519 20.2884 3.09143C20.322 2.98082 20.3268 2.87501 20.2981 2.77885C20.2643 2.68264 20.2114 2.60573 20.1248 2.55283C20.0721 2.51928 19.9664 2.47597 19.8076 2.42312L19.1346 2.2067L18.8266 3.14903Z" fill="#3E4549"/>
<path d="M26.3268 18.8367L28.9182 19.8318L28.5431 20.8029C28.4663 21 28.3795 21.149 28.2836 21.2452C28.1824 21.3462 28.0672 21.4087 27.9324 21.4327C27.7979 21.4617 27.6729 21.452 27.5526 21.404C27.442 21.3607 27.3458 21.2933 27.2738 21.1972C27.197 21.0962 27.1537 20.976 27.1393 20.8316C27.0335 20.9712 26.9133 21.0627 26.7691 21.1009C26.625 21.1443 26.4758 21.1395 26.3268 21.0769C26.2066 21.0338 26.1057 20.9616 26.0192 20.8703C25.9325 20.7789 25.8796 20.6875 25.8509 20.5914C25.8219 20.4953 25.8172 20.3798 25.8316 20.2595C25.8461 20.1345 25.8846 19.9904 25.947 19.8222L26.3268 18.8367ZM26.4998 19.2982L26.2545 19.9424C26.2113 20.053 26.1871 20.13 26.1777 20.178C26.1632 20.2645 26.1584 20.3366 26.1729 20.4038C26.1825 20.4713 26.2161 20.5291 26.2642 20.5914C26.317 20.649 26.3796 20.6924 26.4661 20.7259C26.5624 20.7595 26.6537 20.7693 26.745 20.7452C26.8364 20.7259 26.9084 20.6732 26.971 20.5962C27.0334 20.5241 27.0961 20.3991 27.1632 20.2355L27.3893 19.6394L26.4998 19.2982ZM27.697 19.7549L27.4804 20.3174C27.4227 20.4663 27.3939 20.5817 27.3843 20.6539C27.3795 20.75 27.3987 20.8316 27.442 20.8991C27.4852 20.9664 27.5477 21.0193 27.639 21.053C27.7257 21.0866 27.8073 21.0962 27.8892 21.077C27.971 21.0627 28.0381 21.0193 28.0911 20.9519C28.1439 20.8847 28.2064 20.7595 28.2786 20.5721L28.4804 20.0577L27.697 19.7549Z" fill="#3E4549"/>
</svg>
