<svg width="31" height="31" viewBox="0 0 31 31" fill="none" xmlns="http://www.w3.org/2000/svg">
<path d="M1.1365e-05 15.5194C-0.010243 6.95814 6.91997 0.0102657 15.4818 1.1364e-05C24.0424 -0.010243 30.9903 6.92054 31.0011 15.4818C31.0114 24.0419 24.08 30.9897 15.5194 31C6.95814 31.0108 0.0108354 24.0795 0.00058105 15.5194H1.1365e-05Z" fill="#AE9962"/>
<path d="M0.667003 15.5187C0.657318 7.32662 7.29016 0.677257 15.4822 0.667003C23.6737 0.657318 30.322 7.29016 30.3322 15.4822C30.3419 23.6737 23.7102 30.3225 15.5181 30.3322C7.32605 30.3419 0.676687 23.7096 0.667003 15.5181V15.5187Z" fill="black"/>
<path d="M4.82423 15.5138C4.81682 9.60616 9.5999 4.81112 15.5075 4.80372C21.4152 4.79688 26.2102 9.57996 26.217 15.4882C26.2244 21.3947 21.4414 26.1903 15.5337 26.1977C9.62553 26.2051 4.83163 21.4214 4.82423 15.5144V15.5138Z" fill="#AE9962"/>
<path d="M28.1712 9.372C28.2026 9.57936 28.1695 9.7759 28.0704 9.96675C27.9901 10.1189 27.8852 10.2482 27.7542 10.3558C27.6243 10.4612 27.4927 10.5478 27.36 10.6185C27.0239 10.7905 26.7037 10.8686 26.4012 10.852C25.9933 10.831 25.6937 10.6287 25.4954 10.2459L24.9377 9.15551L27.4688 7.86119L28.0265 8.95214C28.1046 9.1088 28.1536 9.24837 28.1712 9.37143V9.372ZM27.2916 8.60007L25.6395 9.44435L25.8885 9.93257C26.0161 10.1815 26.2263 10.2926 26.5248 10.2658C26.6861 10.2504 26.8592 10.1941 27.0478 10.0989C27.3064 9.96732 27.483 9.82717 27.5782 9.6745C27.675 9.52524 27.6625 9.32984 27.5406 9.08715L27.2916 8.59893V8.60007ZM26.1403 6.29968C26.1813 6.40906 26.195 6.51958 26.1819 6.6358C26.1716 6.72866 26.1466 6.81867 26.1067 6.90526C26.0674 6.99014 26.0076 7.07047 25.9255 7.14908C25.827 7.2408 25.7073 7.30803 25.5638 7.34677C25.4236 7.38607 25.2812 7.36556 25.1325 7.28866C25.1838 7.42025 25.1918 7.53875 25.157 7.64585C25.124 7.75067 25.0351 7.87145 24.8893 8.00988L24.7497 8.14034C24.6563 8.22807 24.5959 8.29016 24.5674 8.33175C24.5247 8.39328 24.5087 8.45537 24.523 8.52146L24.4711 8.56988L24.0251 8.09248C24.0575 8.03779 24.0866 7.99507 24.1094 7.96089C24.1572 7.89537 24.2108 7.83442 24.2717 7.77517L24.462 7.59173C24.5936 7.46697 24.658 7.36101 24.6585 7.271C24.6597 7.18497 24.601 7.07901 24.4808 6.94856L24.0621 6.50021L23.248 7.26188L22.8521 6.83861L24.928 4.89655L25.8805 5.91515C26.0127 6.0627 26.101 6.18974 26.1409 6.30025L26.1403 6.29968ZM24.9633 5.65651L24.4056 6.17834L24.8653 6.66998C24.9565 6.76683 25.0362 6.82949 25.1046 6.85798C25.2242 6.90754 25.341 6.87734 25.459 6.7691C25.5843 6.65175 25.6304 6.53212 25.5957 6.40679C25.5763 6.33785 25.5222 6.25696 25.4345 6.16125L24.9628 5.65651H24.9633ZM21.9759 5.90831C21.6808 5.99205 21.3572 5.93281 21.0034 5.73171C20.6525 5.52947 20.4378 5.27938 20.3614 4.97972C20.2475 4.60202 20.3181 4.19356 20.5722 3.7475C20.832 3.29631 21.1504 3.02969 21.5321 2.94766C21.8272 2.86334 22.1514 2.92316 22.5046 3.12483C22.8555 3.32707 23.0697 3.57716 23.146 3.87681C23.264 4.2454 23.1927 4.65443 22.9341 5.10847C22.68 5.54941 22.3621 5.81488 21.9759 5.90945V5.90831ZM21.8694 5.34831C22.0756 5.26742 22.2596 5.08796 22.4191 4.8111C22.5775 4.5348 22.6402 4.28813 22.6071 4.06652C22.5746 3.84776 22.4579 3.68027 22.2528 3.56064C22.0494 3.44214 21.8443 3.42505 21.6347 3.50538C21.4284 3.58627 21.245 3.76573 21.0838 4.04202C20.9243 4.31946 20.861 4.56841 20.8958 4.78831C20.93 5.00821 21.0485 5.17684 21.2541 5.29476C21.4575 5.41325 21.662 5.42978 21.8688 5.34831H21.8694ZM18.8495 4.42485C18.592 4.59063 18.2644 4.62823 17.8679 4.53936C17.4725 4.44878 17.1951 4.27218 17.0339 4.00784C16.8146 3.68084 16.7633 3.26896 16.8755 2.76821C16.9917 2.26119 17.2185 1.91311 17.5591 1.72227C17.8166 1.55592 18.1436 1.51775 18.5413 1.60719C18.9355 1.69777 19.2135 1.87494 19.3747 2.13871C19.594 2.45602 19.6459 2.86847 19.5308 3.37834C19.4169 3.87397 19.1907 4.22204 18.8495 4.42485ZM18.5834 3.92011C18.7578 3.78225 18.8808 3.55779 18.952 3.24503C19.0232 2.93512 19.0107 2.68105 18.9144 2.47881C18.8193 2.27885 18.6586 2.15238 18.4279 2.09769C18.1989 2.04585 17.9967 2.088 17.8212 2.22587C17.6474 2.3643 17.5238 2.58933 17.4509 2.90037C17.3791 3.21256 17.3911 3.46892 17.4896 3.66945C17.5859 3.86941 17.7488 3.99645 17.9807 4.04943C18.2097 4.10184 18.4091 4.05854 18.5834 3.92011ZM13.3064 1.4904L13.9274 1.44654L15.1978 3.3453L15.0565 1.36564L15.6085 1.3269L15.8102 4.16223L15.2177 4.20381L13.9166 2.27315L14.0601 4.28699L13.5081 4.3263L13.3059 1.49097L13.3064 1.4904ZM11.8987 2.321L10.4774 2.81264L10.6745 3.38347L11.9796 2.93228L12.1409 3.39828L10.8357 3.84947L11.0744 4.5405L12.5624 4.02607L12.7288 4.50916L10.6933 5.21273L9.7647 2.52609L11.7347 1.84532L11.8993 2.321H11.8987ZM7.90696 3.54981L8.45101 3.15388L8.72731 5.14778L9.35624 6.01142L8.876 6.36121L8.24706 5.49757L6.40755 4.64247L6.97382 4.23059L8.17927 4.88402L7.90753 3.55038L7.90696 3.54981ZM5.92958 5.7357L4.94403 6.87222L5.40035 7.26701L6.30501 6.22449L6.67815 6.5475L5.77292 7.59059L6.32552 8.0697L7.35608 6.88076L7.74232 7.21517L6.33121 8.84276L4.18407 6.98046L5.55017 5.40585L5.93015 5.7357H5.92958ZM2.49609 9.89895L3.4093 8.10217L3.85422 8.3289L3.20877 9.5993L3.79213 9.89554L4.35725 8.78351L4.79705 9.00683L4.23192 10.1189L5.29382 10.6595L5.0272 11.1853L2.49609 9.90009V9.89895Z" fill="#AE9962"/>
<path d="M5.72491 21.2995C5.73231 21.4157 5.71351 21.5262 5.6668 21.6333C5.62977 21.7193 5.58021 21.7974 5.5164 21.8692C5.45317 21.9387 5.37284 21.9973 5.27201 22.0492C5.15067 22.1079 5.01679 22.138 4.86753 22.1329C4.72226 22.1295 4.5918 22.0685 4.4716 21.9506C4.48299 22.0913 4.45565 22.2075 4.39128 22.2993C4.32804 22.3904 4.20841 22.4793 4.02953 22.5693L3.85748 22.6525C3.74183 22.7094 3.66493 22.751 3.62676 22.7824C3.56808 22.8285 3.53504 22.8838 3.52877 22.9504L3.4644 22.9817L3.17728 22.395C3.22513 22.3517 3.26501 22.3192 3.29691 22.2936C3.36072 22.244 3.43022 22.2018 3.50599 22.1631L3.74127 22.0435C3.90363 21.9626 3.99648 21.88 4.02326 21.7934C4.04946 21.7125 4.02383 21.594 3.94749 21.4333L3.67803 20.8825L2.67709 21.373L2.42188 20.8517L4.9752 19.6018L5.58818 20.8545C5.67136 21.0346 5.7175 21.1821 5.72377 21.2989L5.72491 21.2995ZM4.78778 20.3413L4.10188 20.6768L4.39811 21.2812C4.45679 21.4009 4.51433 21.4835 4.5713 21.5313C4.67213 21.6128 4.79233 21.6191 4.93703 21.5496C5.09085 21.4738 5.1706 21.3735 5.17345 21.2436C5.17459 21.1713 5.14668 21.0784 5.09085 20.9616L4.78721 20.3413H4.78778Z" fill="#AE9962"/>
<path d="M5.99776 25.6097C5.69127 25.6028 5.39902 25.4513 5.1193 25.1562C4.84301 24.86 4.71141 24.558 4.72565 24.2493C4.72679 23.8545 4.91365 23.4847 5.28736 23.1332C5.66791 22.7772 6.0496 22.6154 6.4387 22.6479C6.74519 22.6541 7.038 22.8057 7.31715 23.1025C7.59345 23.3981 7.72504 23.6995 7.7108 24.0088C7.71536 24.3951 7.5285 24.7654 7.14852 25.1237C6.77652 25.4712 6.39426 25.6336 5.99776 25.6102V25.6097ZM6.05985 25.0428C6.28146 25.0252 6.50877 24.9078 6.74291 24.6896C6.97534 24.4726 7.10694 24.2544 7.13998 24.0328C7.17302 23.814 7.11035 23.6198 6.9497 23.4443C6.78848 23.2728 6.59707 23.1953 6.37489 23.2113C6.15328 23.2284 5.92598 23.3457 5.69013 23.5634C5.45599 23.7815 5.32325 24.0014 5.29249 24.2225C5.26116 24.4424 5.32439 24.6383 5.48618 24.8121C5.6474 24.9836 5.83711 25.0593 6.05929 25.0428H6.05985Z" fill="#AE9962"/>
<path d="M8.53633 24.3972L10.4693 25.6488L10.1953 26.071L9.48201 25.6095L8.2099 27.5726L7.70801 27.2479L8.98011 25.2848L8.26288 24.8199L8.53633 24.3972Z" fill="#AE9962"/>
<path d="M11.0684 25.8972L13.2595 26.6059L13.1051 27.085L12.2955 26.8235L11.5749 29.0487L11.0064 28.8647L11.727 26.6389L10.9141 26.3758L11.0684 25.8972Z" fill="#AE9962"/>
<path d="M16.042 29.1104L16.0249 29.6214L13.8721 29.5479L13.9678 26.708L16.0511 26.7781L16.0346 27.28L14.5306 27.2298L14.5107 27.8337L15.8905 27.8798L15.8739 28.3732L14.4936 28.3265L14.4697 29.0574L16.042 29.1104Z" fill="#AE9962"/>
<path d="M18.7931 26.3634C18.9082 26.3822 19.0113 26.4255 19.1042 26.495C19.1811 26.5503 19.2455 26.6163 19.3013 26.6944C19.3543 26.7713 19.3936 26.863 19.4215 26.9741C19.4517 27.1046 19.4505 27.2424 19.4118 27.386C19.3748 27.5267 19.287 27.6406 19.1458 27.7312C19.2853 27.7523 19.3919 27.8041 19.4676 27.8879C19.5423 27.9699 19.6009 28.1061 19.6482 28.3009L19.6909 28.4872C19.7206 28.6125 19.7439 28.6963 19.7667 28.7407C19.7986 28.8085 19.8442 28.8529 19.9086 28.8734L19.9245 28.9429L19.2882 29.0911C19.2574 29.0347 19.2352 28.9885 19.2164 28.952C19.1834 28.878 19.1572 28.8011 19.1366 28.7185L19.0723 28.4621C19.029 28.2855 18.9703 28.1773 18.8923 28.1317C18.8193 28.0873 18.6974 28.0856 18.5248 28.1243L17.9272 28.2633L18.1796 29.3491L17.6139 29.4801L16.9707 26.7115L18.3288 26.3959C18.5237 26.3549 18.6775 26.3435 18.7931 26.364V26.3634ZM17.6481 27.0607L17.8207 27.8053L18.4758 27.6526C18.6057 27.623 18.7003 27.5854 18.7589 27.5398C18.8615 27.4606 18.8934 27.3444 18.8592 27.1877C18.8205 27.0208 18.7396 26.9206 18.6137 26.8886C18.5447 26.8716 18.4468 26.8778 18.3209 26.9057L17.6486 27.0618L17.6481 27.0607Z" fill="#AE9962"/>
<path d="M21.5217 25.0871C21.7268 25.0444 21.925 25.0678 22.1216 25.1572C22.2777 25.229 22.4121 25.3275 22.5266 25.4523C22.6389 25.5771 22.7317 25.7035 22.8092 25.8323C22.9989 26.1598 23.0935 26.4737 23.0935 26.7768C23.0929 27.1853 22.9083 27.4958 22.5352 27.7134L21.475 28.3269L20.0508 25.867L21.1104 25.2529C21.2625 25.1669 21.3992 25.1105 21.5217 25.086V25.0871ZM20.7976 26.006L21.7268 27.6114L22.2013 27.3374C22.4435 27.1972 22.5426 26.9813 22.5004 26.6845C22.4776 26.525 22.4121 26.3552 22.3079 26.1701C22.1632 25.9206 22.0133 25.7502 21.8561 25.6636C21.7017 25.5742 21.508 25.597 21.2716 25.732L20.7982 26.0066L20.7976 26.006Z" fill="#AE9962"/>
<path d="M23.2843 23.6476L23.7412 23.156L26.5082 24.3546L26.0695 24.8263L25.5169 24.5626L24.8031 25.3288L25.0965 25.8711L24.6738 26.3263L23.2832 23.6471L23.2843 23.6476ZM24.5536 24.8793L25.0452 24.3512L23.9851 23.8487L24.553 24.8793H24.5536Z" fill="#AE9962"/>
<path d="M25.7022 20.3071L26.1021 19.5522L28.6133 20.8836L28.3541 21.373L26.5841 20.4307C26.5368 20.4051 28.0778 21.8617 28.0778 21.8617L27.8123 22.3904C27.8123 22.3904 25.7062 21.9472 25.7563 21.9711L27.5428 22.9179L27.2842 23.4073L24.7725 22.076L25.1769 21.312L27.348 21.8105L25.7016 20.3071H25.7022Z" fill="#AE9962"/>
<path d="M13.1098 14.7589L13.1035 9.36174L15.478 9.35889V14.7361L13.1098 14.7589Z" fill="#E2001A"/>
<path d="M27.4814 15.6014C27.4809 15.2129 27.7953 14.899 28.1833 14.8984C28.5713 14.8979 28.8851 15.2118 28.8857 15.5997C28.8863 15.9871 28.573 16.3027 28.185 16.3033C27.7965 16.3039 27.4814 15.9894 27.4814 15.602V15.6014Z" fill="#AE9962"/>
<path d="M15.4814 8.56532L9.49627 8.64393L9.49684 9.36573L10.2072 9.36459C10.2072 9.36459 10.9934 9.36402 10.9951 10.4766C10.9963 11.5824 11.0076 20.8637 11.0076 20.8637C11.0088 21.6538 10.3417 21.7051 10.0842 21.7051C9.55096 21.7051 9.55096 21.7057 9.55096 21.7057L9.5521 22.473L14.6861 22.4668L14.685 21.6994C14.685 21.6994 14.2093 21.7005 14.0327 21.7005C14.0327 21.7005 13.1052 21.6316 13.1041 20.8472C13.1029 19.8793 13.0978 15.5479 13.0978 15.5479L15.4774 15.5514V25.7618C9.87682 25.7687 5.35352 21.1132 5.34669 15.5132C5.33985 9.91319 9.87739 5.36768 15.4774 5.36084L15.4808 8.56589L15.4814 8.56532Z" fill="#E2001A"/>
<path d="M15.4781 25.7612C21.0781 25.7543 25.6464 21.0875 25.6396 15.4875C25.6327 9.88748 21.0781 5.35279 15.4781 5.35963L15.4815 8.56467L20.37 8.50885L20.8087 11.9839L20.0191 11.9851C20.0191 11.9851 19.8493 10.7904 19.0489 10.1695C18.5151 9.75532 17.8434 9.33546 16.6779 9.3366C16.0512 9.33717 15.4787 9.35369 15.4787 9.35369V14.7355C15.6764 14.7355 16.4768 14.5122 16.4768 13.5694C16.4768 13.1968 16.4654 13.1939 16.4654 13.1939L17.1273 13.1934L17.9819 17.8329L17.1917 17.854C17.0465 17.3008 16.6875 15.4254 15.4775 15.5502V25.7606L15.4781 25.7612Z" fill="white"/>
<path d="M2.08984 15.6014C2.08927 15.2129 2.40374 14.899 2.7917 14.8984C3.17965 14.8979 3.49355 15.2118 3.49412 15.5997C3.49469 15.9871 3.18079 16.3027 2.79341 16.3033C2.40488 16.3039 2.08984 15.9894 2.08984 15.602V15.6014Z" fill="#AE9962"/>
<path d="M15.4707 5.14551V25.9259" stroke="#AE9962" stroke-width="0.69"/>
</svg>
