<svg width="24" height="31" viewBox="0 0 24 31" fill="none" xmlns="http://www.w3.org/2000/svg">
<path d="M0 15.5L11.8647 0L23.7287 15.5L11.8643 31L0 15.5Z" fill="white"/>
<path d="M0.540039 15.5001L11.8642 0.705811L23.1888 15.5001L11.8642 30.2945L0.540039 15.5001Z" fill="#5A348B"/>
<path d="M2.15967 15.5L11.8665 2.81909L21.573 15.5L11.8662 28.1809L2.15967 15.5Z" fill="white"/>
<path d="M16.8789 11.2008L15.6265 9.56373C15.4646 9.35122 15.2452 9.23037 15.0157 9.22724C14.7862 9.22411 14.565 9.33895 14.3997 9.547C13.7072 10.4178 12.9711 11.489 12.4835 12.7497C12.7041 10.852 13.202 8.81825 13.8606 7.25581L12.0351 4.86963L10.2097 7.25581C10.8683 8.82142 11.3662 10.8552 11.5864 12.7497C11.0964 11.4858 10.3627 10.4178 9.67023 9.547C9.50497 9.33909 9.28381 9.22433 9.05439 9.22746C8.82498 9.23059 8.6057 9.35136 8.4438 9.56373L7.19141 11.2013L9.22183 13.8548V11.4008C9.83124 11.6382 11.0809 12.5873 11.5244 13.8548H10.728V14.3935H11.6124L10.8735 15.1834C10.8299 15.2302 10.7942 15.2884 10.7688 15.3542C10.7434 15.42 10.7287 15.492 10.7258 15.5657C10.7229 15.6393 10.7317 15.7129 10.7518 15.7818C10.7718 15.8508 10.8027 15.9135 10.8423 15.9659L12.0403 17.5356L13.2356 15.9659C13.2755 15.9136 13.3065 15.851 13.3267 15.782C13.347 15.7131 13.3559 15.6393 13.3529 15.5656C13.35 15.4919 13.3353 15.4198 13.3097 15.3539C13.2841 15.2881 13.2483 15.23 13.2044 15.1834L12.4655 14.3935H13.3499V13.8548H12.5535C12.9946 12.5873 14.2467 11.6382 14.8561 11.4008V13.8548L16.8865 11.2008H16.8789Z" fill="#E2241C"/>
<path d="M3.729 15.7261H8.61117L11.8659 19.8878L15.1207 15.7261H20.0029L11.8659 26.1303L3.729 15.7261Z" fill="#5A348B"/>
</svg>
