<svg width="25" height="34" viewBox="0 0 25 34" fill="none" xmlns="http://www.w3.org/2000/svg">
<path d="M12.824 33.05C16.1088 33.05 19.0784 31.2483 21.2251 28.3434C23.3718 25.4385 24.6981 21.4279 24.6981 17C24.6981 12.5721 23.3718 8.56145 21.2251 5.65658C19.0784 2.75171 16.1088 0.95 12.824 0.95C9.53934 0.95 6.56967 2.75171 4.42297 5.65658C2.27626 8.56145 0.95 12.5721 0.95 17C0.95 21.4279 2.27626 25.4385 4.42297 28.3434C6.56967 31.2483 9.53934 33.05 12.824 33.05Z" fill="white" stroke="#7B7B7B" stroke-width="0.1" stroke-linejoin="round"/>
<path d="M7.58737 20.5126C7.58737 21.9561 8.17239 23.263 9.11822 24.2085C10.0639 25.1544 11.3707 25.7394 12.8142 25.7394C14.2575 25.7394 15.5641 25.1544 16.5101 24.2085C17.4559 23.263 18.0409 21.9561 18.0409 20.5126L18.0486 20.402C18.0492 20.3956 18.3263 18.2169 16.4187 16.7918L17.5875 15.2255C20.1569 17.1453 20.0386 20.0409 19.9966 20.5464C19.9876 22.5162 19.1854 24.2992 17.893 25.5916C16.593 26.8913 14.7974 27.6954 12.8142 27.6954C10.831 27.6954 9.03518 26.8914 7.73532 25.5916C6.43545 24.2918 5.63135 22.4959 5.63135 20.5126H7.58737ZM15.3939 9.01341C15.3944 8.65744 15.3245 8.30488 15.1883 7.97599C15.0521 7.64711 14.8522 7.34839 14.6002 7.09701C14.3488 6.84498 14.0501 6.64512 13.7212 6.50892C13.3923 6.37271 13.0398 6.30284 12.6838 6.30332C12.3278 6.30286 11.9752 6.37274 11.6463 6.50894C11.3174 6.64515 11.0187 6.845 10.7673 7.09701C10.5153 7.34842 10.3154 7.64715 10.1792 7.97602C10.043 8.3049 9.97312 8.65744 9.97357 9.01341H8.01768C8.01768 7.72504 8.54009 6.55851 9.38449 5.71411C10.2289 4.86971 11.3954 4.34717 12.6838 4.34717C13.972 4.34717 15.1387 4.86958 15.9831 5.71398C16.8275 6.55838 17.3499 7.72504 17.3499 9.01327L15.3939 9.01341Z" fill="#FFC72D"/>
<path fill-rule="evenodd" clip-rule="evenodd" d="M5.98693 18.3469C5.60395 19.3839 5.64059 20.5064 5.64059 20.5064L7.58025 20.5043C7.58025 20.5043 7.60067 19.2512 7.88588 18.3447L5.98693 18.3469Z" fill="#FFC72D"/>
<path d="M17.7977 15.3493C17.1353 14.7105 16.3563 14.205 15.5032 13.8603C14.678 13.5278 13.7726 13.3446 12.8194 13.3446C8.85777 13.3446 5.64596 16.5564 5.64596 20.5182C5.64596 24.4798 8.85777 27.6916 12.8194 27.6916C16.7812 27.6916 19.9931 24.4798 19.9931 20.5182C19.9931 20.2957 19.9822 19.8586 19.9611 19.4349C19.9464 19.1451 19.9287 18.886 19.9091 18.7593L21.842 18.4691C21.8758 18.6875 21.9004 19.0114 21.917 19.3434C21.9363 19.7348 21.947 20.1265 21.9492 20.5183C21.9492 25.5602 17.8615 29.6479 12.8194 29.6479C7.77738 29.6479 3.68994 25.5602 3.68994 20.5183C3.68994 15.4762 7.77752 11.3887 12.8194 11.3887C13.9878 11.3881 15.1454 11.6125 16.229 12.0497C17.315 12.488 18.3067 13.131 19.15 13.9436L17.7977 15.3493Z" fill="#CA2E31"/>
<path d="M17.1118 18.4536L21.7843 18.4592V20.4149L17.1118 20.4096V18.4536Z" fill="#CA2E31"/>
<path fill-rule="evenodd" clip-rule="evenodd" d="M9.50439 18.7422H9.56309C9.95919 18.7422 10.0649 18.5365 10.0737 18.3806H10.4118V20.4638H10.0002V19.0274H9.50439V18.7422ZM11.4317 19.0692C11.4317 18.7697 11.623 18.7169 11.7289 18.7169C11.9406 18.7169 12.0437 18.8635 12.0437 19.1015C12.0437 19.3479 11.8849 19.4507 11.7406 19.4507C11.5848 19.4507 11.4317 19.3834 11.4317 19.0692ZM11.0613 19.9821C11.0965 20.313 11.3524 20.5196 11.7082 20.5196C12.0847 20.5196 12.466 20.2571 12.466 19.4507C12.466 19.1573 12.4544 18.3808 11.7318 18.3808C11.323 18.3808 11.0201 18.6174 11.0201 19.1279C11.0201 19.4774 11.2524 19.7808 11.6523 19.7808C11.7935 19.7808 11.9552 19.7454 12.0495 19.6041L12.0553 19.6099C12.0523 20.0463 11.8817 20.1894 11.7111 20.1894C11.5847 20.1894 11.4935 20.1281 11.4699 19.9849V19.9821H11.0613ZM13.0788 19.4488C13.0788 18.9132 13.1435 18.7114 13.3794 18.7114C13.6152 18.7114 13.68 18.9132 13.68 19.4488C13.68 19.9845 13.6152 20.1895 13.3794 20.1895C13.1435 20.1895 13.0788 19.9845 13.0788 19.4488ZM12.6562 19.4488C12.6562 20.1776 12.8878 20.5196 13.3792 20.5196C13.8706 20.5196 14.1025 20.1776 14.1025 19.4488C14.1025 18.7201 13.8706 18.3812 13.3792 18.3812C12.8878 18.3812 12.6562 18.7201 12.6562 19.4488ZM14.7047 19.2143C14.7807 19.1612 14.8748 19.0994 15.0774 19.0994C15.3561 19.0994 15.7081 19.2938 15.7081 19.7714C15.7081 20.0551 15.5645 20.5196 14.9511 20.5196C14.6252 20.5196 14.2929 20.325 14.2722 19.9058H14.684C14.7014 20.0754 14.7926 20.1895 14.9745 20.1895C15.171 20.1895 15.2856 20.0229 15.2856 19.8007C15.2856 19.6167 15.1975 19.4296 14.9803 19.4296C14.9246 19.4296 14.7838 19.4325 14.7045 19.5787L14.3368 19.5612L14.481 18.4165H15.6258V18.7628H14.7777L14.7047 19.2143Z" fill="black"/>
<path fill-rule="evenodd" clip-rule="evenodd" d="M9.96367 8.99292L8.01116 8.99982C7.87525 11.173 9.83127 12.3955 9.83127 12.3955L16.4426 16.8167L17.6345 15.2582L11.3796 11.2818C11.3796 11.2818 9.96367 10.4328 9.96367 8.99292Z" fill="#FFC72D"/>
</svg>
