<svg width="25" height="32" viewBox="0 0 25 32" fill="none" xmlns="http://www.w3.org/2000/svg">
<path d="M4.9463 16.6493C5.1492 16.5275 5.32891 16.4116 5.52021 16.3073C6.61007 15.6812 7.76949 15.2464 9.02166 15.0725C9.79847 14.9623 10.5753 14.9333 11.3521 15.0087C12.9579 15.1652 14.442 15.6696 15.7579 16.6203C16.2738 16.9913 16.7318 17.4319 17.1376 17.9247C17.1666 17.9594 17.2014 17.9942 17.155 18.0522C17.1144 18.1044 17.0854 18.1102 17.0217 18.087C16.3434 17.8377 15.642 17.6638 14.9289 17.542C14.8593 17.5304 14.8246 17.542 14.8362 17.6174C14.842 17.6522 14.8362 17.6812 14.8362 17.716C14.8362 22.0058 14.8362 26.3015 14.8362 30.5913C14.8362 30.6899 14.8072 30.7478 14.726 30.7942C13.984 31.2348 13.2246 31.6348 12.4362 31.9826C12.384 32.0058 12.3376 32.0058 12.2854 31.9826C11.6767 31.716 11.0912 31.4145 10.5115 31.0899C10.3434 30.9971 10.1753 30.8986 10.0014 30.8174C9.90282 30.771 9.87384 30.7015 9.87384 30.6029C9.87963 30.2899 9.88543 29.9768 9.88543 29.6638C9.89123 25.8783 9.89123 22.0928 9.89123 18.3131C9.89123 18.1565 9.89123 18.1565 9.7521 18.2145C7.9492 19.0319 6.59268 20.3189 5.72891 22.1102C5.38108 22.8348 5.17239 23.6 5.07384 24.3942C4.99268 25.0435 4.98688 25.6928 5.07384 26.342C5.08543 26.4174 5.04485 26.458 4.98688 26.487C4.91152 26.5218 4.89413 26.4464 4.86514 26.4116C3.76949 25.1189 2.84775 23.7102 2.10572 22.1913C1.36369 20.6841 0.818763 19.1073 0.46514 17.4667C0.297024 16.6841 0.175285 15.8899 0.0999227 15.0899C0.0535459 14.6319 0.0245604 14.1681 0.0187633 13.7102C-0.0218164 9.94204 0.0187633 6.17393 0.00137202 2.40001C0.00137202 2.32465 0.0245604 2.29567 0.0941257 2.26668C1.63615 1.66958 3.21876 1.19422 4.83615 0.823202C4.91731 0.805811 4.9521 0.817405 4.9521 0.910159C4.9463 1.15364 4.9521 1.39712 4.9521 1.64059C4.9521 6.58552 4.9521 11.5304 4.9521 16.4754C4.9463 16.5275 4.9463 16.5797 4.9463 16.6493Z" fill="#001FF9"/>
<path d="M19.7811 8.49855C19.7811 5.92464 19.7811 3.36812 19.7811 0.8C20.3782 0.933333 20.9695 1.07826 21.5492 1.24058C22.5811 1.53043 23.5956 1.86667 24.5985 2.24928C24.6912 2.28406 24.7202 2.32464 24.7202 2.42899C24.7144 6.09855 24.7202 9.76812 24.7144 13.4319C24.7144 14.4174 24.6159 15.3971 24.4651 16.371C24.2101 17.9942 23.7579 19.5652 23.126 21.0841C22.4361 22.7304 21.5492 24.2551 20.4535 25.6696C20.297 25.8667 20.1405 26.0638 19.984 26.2609C19.955 26.2957 19.9318 26.3362 19.8738 26.3014C19.8274 26.2725 19.7695 26.2609 19.7753 26.1913C19.7811 26.1565 19.7753 26.1275 19.7753 26.0928C19.7753 22.1217 19.7753 18.1507 19.7753 14.1855C19.7753 14.087 19.7463 14.0174 19.6825 13.942C18.9057 13.0667 17.9898 12.3652 16.9463 11.8319C16.0072 11.3565 15.0159 11.0493 13.9782 10.887C13.2535 10.771 12.5231 10.742 11.7985 10.7768C10.4419 10.8406 9.13759 11.142 7.88542 11.6638C7.75209 11.7217 7.61875 11.7797 7.49122 11.8377C7.45064 11.8551 7.41586 11.8783 7.38107 11.8203C7.35209 11.7739 7.3289 11.7391 7.36948 11.6812C7.69991 11.2058 8.08252 10.7768 8.49991 10.3768C8.90571 9.98841 9.35209 9.64638 9.82165 9.34493C9.89122 9.29855 9.89701 9.24638 9.89701 9.18261C9.89701 6.22609 9.89701 3.26377 9.89701 0.307246C9.89701 0.0927536 9.89701 0.0927536 10.1115 0.0753623C10.9637 0.0115942 11.8159 0 12.668 0C13.3579 0 14.0535 0.0405797 14.7434 0.0753623C14.813 0.0811594 14.8419 0.0985507 14.8361 0.168116C14.8303 0.214493 14.8361 0.266667 14.8361 0.318841C14.8361 2.74783 14.8361 5.18261 14.8361 7.61159C14.8361 7.72754 14.8651 7.74493 14.9753 7.73913C16.5869 7.66377 18.1521 7.88406 19.6651 8.45797C19.6941 8.46956 19.7289 8.48116 19.7811 8.49855Z" fill="#001FF9"/>
</svg>
