<svg width="32" height="32" viewBox="0 0 32 32" fill="none" xmlns="http://www.w3.org/2000/svg">
<path d="M32.0024 15.181V16.8164C31.9914 16.8729 31.9757 16.9287 31.97 16.9856C31.9181 17.4919 31.8922 18.0021 31.8125 18.5041C31.5228 20.3297 30.9436 22.0593 30.0477 23.6805C28.3892 26.679 26.0203 28.9391 22.9372 30.4266C20.0798 31.8043 17.0653 32.2594 13.9164 31.8619C12.0689 31.6341 10.2779 31.074 8.62974 30.2087C5.48938 28.5591 3.12549 26.1372 1.58108 22.9435C0.163243 20.0126 -0.279387 16.9174 0.166443 13.6952C0.350539 12.3821 0.702175 11.0981 1.21276 9.87438C2.32463 7.1807 4.15245 4.84264 6.49816 3.11353C8.84388 1.38442 11.618 0.330189 14.5201 0.0650613C14.7423 0.0451518 14.9638 0.0216871 15.186 0H16.8214C16.8776 0.0110213 16.9338 0.0252424 16.9903 0.0327084C17.7348 0.129056 18.4874 0.187007 19.2219 0.32744C21.0632 0.678699 22.78 1.36806 24.3742 2.35394C26.9432 3.94195 28.9146 6.08198 30.2884 8.77403C31.2006 10.5647 31.7603 12.5139 31.9373 14.5158C31.9576 14.7373 31.9803 14.9591 32.0024 15.181ZM17.1958 25.0525V6.91498C17.6644 7.02164 18.1202 7.09986 18.5599 7.22784C18.9997 7.35583 19.4363 7.53466 19.8843 7.69465L20.8485 5.62869C17.6107 4.19521 14.396 4.19521 11.1586 5.62869C11.4903 6.33974 11.8117 7.02662 12.1345 7.7174C13.0009 7.3185 13.883 7.05293 14.818 6.94378V25.0525C13.9317 24.9501 13.0969 24.6902 12.2828 24.3329C12.2725 24.3798 12.265 24.404 12.2629 24.425C12.2028 25.1325 12.1487 25.8403 12.0791 26.5468C12.0638 26.7032 12.0943 26.7708 12.2504 26.823C13.3567 27.1918 14.5102 27.3997 15.6756 27.4402C16.4742 27.4711 17.2737 27.4079 18.0576 27.2521C18.641 27.1355 19.2127 26.9592 19.7893 26.8088C19.896 26.7807 19.9465 26.7377 19.9316 26.5987C19.8761 26.0693 19.8434 25.5374 19.8 25.007C19.7819 24.7873 19.7581 24.5683 19.7346 24.3258C18.9059 24.6941 18.0771 24.9402 17.1958 25.0525ZM20.0588 15.4469L20.0912 15.4583C20.4073 19.0562 20.7244 22.6548 21.0426 26.2734C21.1107 26.2463 21.1771 26.2149 21.2413 26.1795C21.8535 25.7884 22.4633 25.3927 23.0776 25.0041C23.2138 24.9181 23.238 24.8093 23.2241 24.6604C23.1462 23.8362 23.0776 23.0111 23.0026 22.1866C22.903 21.0912 22.7985 19.9962 22.7008 18.9008C22.6119 17.9054 22.5301 16.9099 22.4437 15.9144C22.3845 15.2313 22.3237 14.5484 22.2613 13.8655C22.1952 13.1413 22.1191 12.4175 22.0636 11.6925C22.0477 11.4863 22.0068 11.2816 22.1092 11.0675C22.6424 9.94726 23.159 8.81811 23.6873 7.69501C23.7396 7.58373 23.7151 7.52578 23.6283 7.45858C23.2582 7.17416 22.8949 6.87872 22.5209 6.59856C22.3097 6.44035 22.0825 6.30348 21.8585 6.1538C21.8333 6.1954 21.8194 6.2146 21.8094 6.23557C20.6405 8.73563 19.4725 11.2362 18.3054 13.7372C18.2607 13.8328 18.2365 13.9367 18.2343 14.0422C18.23 15.7307 18.2292 17.4192 18.2318 19.1077C18.2318 19.1625 18.2378 19.2173 18.2414 19.272L18.2741 19.2759C18.8692 17.9993 19.4642 16.723 20.0588 15.4469ZM10.1589 6.1538C9.5109 6.54906 8.9 7.00206 8.33359 7.50729C8.30123 7.53609 8.30159 7.63706 8.32434 7.68718C8.84981 8.82487 9.38097 9.95971 9.90715 11.097C9.94636 11.1758 9.96565 11.2629 9.96332 11.3509C9.91603 11.9819 9.86128 12.6123 9.80511 13.2426C9.72689 14.1204 9.64335 14.9975 9.56513 15.8735C9.50042 16.5981 9.44212 17.3234 9.37741 18.0479C9.29955 18.9197 9.21636 19.79 9.13885 20.6628C9.08375 21.2814 9.03646 21.9011 8.98207 22.5197C8.91665 23.2621 8.84448 24.0041 8.78475 24.7467C8.78475 24.7854 8.793 24.8237 8.80894 24.8589C8.82488 24.8942 8.84814 24.9256 8.87719 24.9512C9.15876 25.167 9.44247 25.3824 9.74111 25.5737C10.1279 25.8226 10.5297 26.0466 10.9616 26.3029C11.2816 22.6516 11.5998 19.0502 11.9166 15.4505L11.9486 15.4451C12.5428 16.7207 13.137 17.9963 13.7312 19.2716L13.7692 19.2642V19.0779C13.7692 17.4069 13.7692 15.7359 13.7657 14.065C13.7639 13.9363 13.7354 13.8094 13.6818 13.6924C12.8799 11.9671 12.0749 10.2431 11.2667 8.52018C10.9012 7.73874 10.535 6.95764 10.1589 6.1538ZM7.43944 8.42135C5.52778 10.5236 4.1654 13.798 4.66278 17.5292C4.98773 19.9681 6.01378 22.0799 7.73524 23.9113C7.77079 23.549 7.80208 23.2404 7.82981 22.9311C7.88811 22.2712 7.94962 21.6117 7.99868 20.9512C8.01575 20.7229 8.0641 20.5046 7.93931 20.2664C7.0217 18.5115 6.69177 16.6504 6.97441 14.6846C7.16516 13.3272 7.66508 12.0317 8.43562 10.8979C8.49997 10.8027 8.51135 10.7287 8.46122 10.6235C8.25039 10.1808 8.04846 9.73466 7.84261 9.28847C7.71177 9.00548 7.58023 8.72354 7.43944 8.42135ZM24.264 23.8842C28.2288 19.9553 28.6462 12.9141 24.5712 8.43023C24.5392 8.49174 24.5075 8.54614 24.4812 8.60302C24.1744 9.26856 23.8726 9.93624 23.5569 10.5982C23.4975 10.7234 23.5085 10.8062 23.5835 10.9182C24.7973 12.7396 25.2879 14.749 25.0863 16.9198C24.9726 18.1439 24.5964 19.299 24.0198 20.3869C23.9841 20.4592 23.9685 20.5398 23.9746 20.6202C24.024 21.2089 24.0813 21.7973 24.1349 22.3857C24.1797 22.8731 24.2196 23.3602 24.264 23.8842Z" fill="black"/>
<path d="M16.001 29.6854C23.5594 29.6854 29.6867 23.5582 29.6867 15.9998C29.6867 8.44147 23.5594 2.31421 16.001 2.31421C8.44269 2.31421 2.31543 8.44147 2.31543 15.9998C2.31543 23.5582 8.44269 29.6854 16.001 29.6854Z" fill="#00259A"/>
<path d="M17.1989 25.0526C18.0802 24.9403 18.9093 24.6939 19.7394 24.3259C19.7629 24.568 19.7867 24.7881 19.8049 25.0067C19.8482 25.5375 19.8809 26.0694 19.9364 26.5988C19.9506 26.7357 19.9008 26.7808 19.7942 26.8086C19.2175 26.9593 18.6458 27.1353 18.0624 27.2522C17.2785 27.4079 16.479 27.4709 15.6804 27.44C14.515 27.3994 13.3616 27.1916 12.2553 26.8231C12.0988 26.7709 12.0686 26.703 12.0839 26.5469C12.155 25.8405 12.2076 25.1322 12.2677 24.4251C12.2698 24.402 12.2773 24.3796 12.2873 24.3327C13.1018 24.6903 13.9365 24.9502 14.8229 25.0523V6.94425C13.8878 7.05304 13.0058 7.31861 12.139 7.71787C11.8165 7.02708 11.4951 6.3395 11.1631 5.6288C14.4002 4.19567 17.6141 4.19567 20.8519 5.6288C20.522 6.33487 20.203 7.01926 19.8877 7.69441C19.4397 7.53442 19.0085 7.35701 18.5634 7.22796C18.1182 7.0989 17.6678 7.02033 17.1989 6.91474V25.0526Z" fill="white"/>
<path d="M20.0617 15.4465C19.4672 16.7229 18.8727 17.9991 18.278 19.2752L18.2453 19.2713C18.2421 19.2165 18.236 19.1618 18.2357 19.107C18.2357 17.4188 18.2366 15.7304 18.2385 14.0419C18.2404 13.9363 18.2646 13.8323 18.3096 13.7368C19.475 11.2351 20.6431 8.73457 21.8137 6.23522C21.8233 6.21425 21.8375 6.19541 21.8624 6.15381C22.0867 6.30313 22.3139 6.44036 22.5247 6.59822C22.8991 6.87873 23.2625 7.1731 23.6326 7.45859C23.7193 7.52543 23.7438 7.58373 23.6916 7.69466C23.1633 8.81812 22.6474 9.94692 22.113 11.0672C22.011 11.2805 22.0519 11.4863 22.0679 11.6925C22.1244 12.4175 22.1994 13.141 22.2652 13.8655C22.3275 14.5481 22.3883 15.2311 22.4476 15.9144C22.5343 16.9099 22.6161 17.9054 22.705 18.9008C22.8028 19.9966 22.9073 21.0912 23.0068 22.1866C23.0815 23.0114 23.149 23.8363 23.228 24.6607C23.2422 24.8093 23.2177 24.9185 23.0818 25.0045C22.4675 25.3927 21.8578 25.7884 21.2452 26.1799C21.1809 26.215 21.1147 26.2463 21.0468 26.2737C20.7283 22.6545 20.4108 19.0566 20.0944 15.4579L20.0617 15.4465ZM10.162 6.15381C10.5382 6.95765 10.9044 7.73874 11.2695 8.51983C12.0754 10.2441 12.8805 11.9688 13.6849 13.6938C13.7386 13.8108 13.767 13.9377 13.7685 14.0664C13.7738 15.7374 13.772 17.4083 13.772 19.0793V19.266L13.734 19.2731C13.14 17.9977 12.5458 16.7223 11.9514 15.4469L11.9197 15.4519C11.603 19.0526 11.2862 22.6531 10.9648 26.3047C10.5328 26.048 10.1311 25.8229 9.74428 25.5751C9.44564 25.3839 9.16193 25.1688 8.88036 24.9526C8.85136 24.9271 8.82811 24.8957 8.81211 24.8605C8.79612 24.8253 8.78775 24.7872 8.78756 24.7485C8.84765 24.0055 8.91982 23.2639 8.98524 22.5215C9.03963 21.9025 9.08692 21.2832 9.14202 20.6642C9.21953 19.7925 9.30272 18.9222 9.38058 18.0497C9.44529 17.3251 9.50359 16.5999 9.5683 15.875C9.64652 14.9975 9.72971 14.1204 9.80828 13.2441C9.86445 12.6137 9.9192 11.983 9.96649 11.352C9.96882 11.2641 9.94953 11.1771 9.91032 11.0985C9.38414 9.96078 8.85263 8.82594 8.32751 7.68826C8.3044 7.63849 8.30405 7.53716 8.3364 7.50836C8.90295 7.00284 9.51397 6.54948 10.162 6.15381Z" fill="white"/>
<path d="M7.44281 8.42163C7.58324 8.72383 7.71514 9.00576 7.84562 9.2884C8.05147 9.73352 8.25341 10.1804 8.46459 10.6234C8.51437 10.7283 8.50334 10.8012 8.43899 10.8979C7.66845 12.0314 7.16841 13.3266 6.97743 14.6839C6.69514 16.6503 7.02471 18.5115 7.94268 20.2656C8.06747 20.5042 8.01876 20.7225 8.00205 20.9504C7.95263 21.6109 7.89148 22.2704 7.83282 22.9303C7.80545 23.2396 7.7738 23.5486 7.73861 23.9105C6.01786 22.0788 4.9911 19.9681 4.66615 17.5281C4.16877 13.7979 5.53079 10.5242 7.44281 8.42163ZM24.2674 23.8842C24.2226 23.3605 24.1831 22.8731 24.1394 22.3863C24.0868 21.7976 24.0285 21.2095 23.9794 20.6204C23.9731 20.5402 23.9887 20.4597 24.0245 20.3876C24.6016 19.2993 24.9777 18.1446 25.0911 16.9205C25.2927 14.7493 24.8021 12.7399 23.5883 10.9185C23.5133 10.8061 23.5023 10.7237 23.5617 10.5985C23.8756 9.93653 24.1774 9.26885 24.4842 8.60366C24.5102 8.54678 24.5418 8.49238 24.5742 8.43087C28.6492 12.9141 28.2322 19.9556 24.2674 23.8842Z" fill="white"/>
</svg>
