<svg width="17" height="32" viewBox="0 0 17 32" fill="none" xmlns="http://www.w3.org/2000/svg">
<path d="M12.8118 19.8702C12.8118 26.0682 10.202 27.6407 4.86291 30.2505C5.54487 30.6951 6.46422 31.259 8.0367 32C12.1298 30.0721 16.0734 27.5213 16.0734 20.7593V6.4354H12.8118V19.8702ZM9.69838 6.4354H0V9.28262H6.4354V18.3882C6.4354 22.5404 6.16783 22.9259 0.77115 25.3574C1.17182 26.3454 1.72205 27.2661 2.40264 28.0866C8.51147 25.3574 9.69838 23.9647 9.69838 19.2486V6.4354ZM1.27473 0V2.52065C1.27473 3.17379 0.889156 3.61837 0.118005 3.61837H0V3.0846H0.08919C0.444578 3.0846 0.653145 2.90622 0.653145 2.52065V0.533768H0.08919V0H1.27473ZM2.37245 3.0846H2.93641V0H3.52918V3.0256C3.52918 3.41117 3.32198 3.58955 2.93641 3.58955H2.37245C1.98688 3.58955 1.77968 3.38236 1.77968 3.0256V0H2.37245V3.0846ZM5.16067 2.22426V0.0301874H5.75344V2.25445C5.75344 3.26298 5.21967 3.61837 4.30033 3.61837H4.00394V0H4.59671V2.99541H4.6269C5.01248 3.0256 5.16067 2.66884 5.16067 2.22426ZM6.85116 0.563955V1.51349H7.53312L7.41512 2.01707H6.82235V3.05579H7.7115L7.62231 3.58955H6.25839V0H7.5935L7.68269 0.533768H6.85254V0.563955H6.85116ZM9.25381 0H9.81776V3.58818H9.25381V2.37245L8.68985 1.12654H8.65966V3.58818H8.09571V0H8.65966L9.22362 1.36392H9.25381V0ZM11.8925 0.563955H11.3285V3.61837H10.7357V0.563955H10.1718L10.261 0.0301874H11.8033L11.8925 0.563955ZM12.783 3.0846H13.3469V0.0301874H13.9397V3.05579C13.9397 3.44136 13.7325 3.61974 13.3469 3.61974H12.783C12.3974 3.61974 12.1902 3.41255 12.1902 3.05579V0.0301874H12.783V3.0846ZM14.3843 2.43146H14.9771V3.1436H15.5108V2.64002C15.5108 2.40264 15.4518 2.28464 15.2734 2.16526L14.7095 1.80987C14.5023 1.66168 14.4131 1.4243 14.4131 1.24592V0.59277C14.4131 0.207195 14.6505 0.0288152 14.9771 0.0288152H15.541C15.9266 0.0288152 16.105 0.23601 16.105 0.59277V1.03735L15.541 1.18554V0.474765H15.0374V1.00853C15.0374 1.18691 15.0964 1.30492 15.2748 1.4243L15.8086 1.75087C16.046 1.89906 16.164 2.10626 16.164 2.40401V3.08597C16.164 3.47155 15.9266 3.61974 15.6 3.61974H15.0662C14.6807 3.61974 14.4735 3.47155 14.4735 3.08597V2.43283L14.3843 2.43146Z" fill="white"/>
</svg>
