<svg width="48" height="32" viewBox="0 0 48 32" fill="none" xmlns="http://www.w3.org/2000/svg">
<path d="M23.8884 31.9997C26.2451 31.9997 29.2261 29.2615 29.2261 29.2615C32.5189 26.3153 32.5535 21.7056 32.5535 21.7056V10.8059H15.1816V21.7056C15.1816 21.7056 15.2163 26.3153 18.509 29.2615C18.509 29.2615 21.4898 31.9997 23.8468 31.9997H23.8884Z" fill="#00ACEC"/>
<path d="M21.818 30.0989V15.9197H17.6777V26.1421L21.818 30.0989Z" fill="#00ACEC"/>
<path d="M21.8413 15.9197H25.9814V30.0989H21.8413V15.9197Z" fill="white"/>
<path d="M30.143 25.8489V15.9197H26.0029V30.0989L30.143 25.8489Z" fill="#00ACEC"/>
<path d="M23.8537 28.9628C22.1928 28.9628 20.0921 27.0331 20.0921 27.0331C17.7716 24.9568 17.7473 21.7083 17.7473 21.7083V16.7743H29.9896V21.7083C29.9896 21.7083 29.9653 24.9571 27.6447 27.0331C27.6447 27.0331 25.5441 28.9628 23.8832 28.9628H23.8537ZM23.8872 31.0233C26.0299 31.0233 28.7396 28.534 28.7396 28.534C31.733 25.8558 31.7645 21.665 31.7645 21.665V11.4897H15.9722V21.665C15.9722 21.665 16.0037 25.8558 18.997 28.534C18.997 28.534 21.7068 31.0233 23.8494 31.0233H23.8872Z" fill="white"/>
<path d="M0 0C0 0 1.35567 2.07004 3.6639 2.07004C3.6639 2.07004 4.23191 3.38906 6.32027 3.38906C6.32027 3.38906 6.65008 4.5615 8.35366 4.5615C8.35366 4.5615 8.64683 5.44078 10.2588 5.44078C10.2588 5.44078 10.4054 6.02711 11.7244 6.02711C11.7244 6.02711 12.4937 6.90661 13.7947 6.90661C13.7947 6.90661 14.0878 7.49294 15.1137 7.49294C15.1137 7.49294 15.5899 8.07927 16.2678 8.07927C16.2678 8.07927 16.6769 8.6656 17.2937 8.6656C17.2937 8.6656 17.7884 9.5632 19.8034 9.5632C19.8034 9.5632 19.3454 10.1127 18.5211 10.1127C18.5211 10.1127 18.576 10.4425 18.9059 10.5341C18.9059 10.5341 18.6493 10.8639 18.1732 10.8639C18.1732 10.8639 18.4846 11.5966 19.3639 11.5966C20.2434 11.5966 20.0235 11.3401 20.6829 11.5966C20.6829 11.5966 21.1227 11.963 20.5547 12.311C20.5547 12.311 20.9761 12.4272 21.4342 11.7429C21.4342 11.7429 21.6722 12.0178 21.3975 12.311C21.3975 12.311 21.9043 12.3782 22.2768 11.5966C22.2768 11.5966 22.8631 11.8714 22.2768 12.311C22.2768 12.311 22.9058 12.3782 23.1744 11.5966C23.1744 11.5966 23.6879 11.3933 24.0539 11.5966C24.3837 11.7798 23.7424 12.2926 23.7424 12.2926C23.7424 12.2926 24.4387 12.5308 24.6402 11.5966C24.6402 11.5966 25.318 11.5783 24.9149 12.311C24.9149 12.311 25.5195 12.3293 25.5195 11.5966C25.5195 11.5966 26.4721 11.5722 25.9226 12.2562C25.9226 12.2562 26.7286 12.2745 26.6736 11.0838C26.6736 11.0838 26.6003 10.6257 26.1056 10.6257C26.1056 10.6257 27.0399 10.4242 27.4246 9.54488C27.4246 9.54488 28.1207 9.89301 28.8719 9.54488C28.8719 9.54488 29.7881 9.63649 30.2093 8.81218C30.2093 8.81218 30.9605 8.9038 31.3817 8.07949C31.3817 8.07949 32.2243 8.15278 32.8473 7.34658C32.8473 7.34658 33.6289 7.40155 34.0685 6.76047C34.0685 6.76047 35.4851 6.85208 35.9249 6.02755C35.9249 6.02755 37.2073 6.21078 37.702 5.29486C37.702 5.29486 38.8928 5.44145 39.4608 4.41559C39.4608 4.41559 40.8348 4.54385 41.6407 3.38973C41.6407 3.38973 43.3079 3.55464 44.1322 2.21729C44.1322 2.21729 46.532 2.47381 47.8144 0.000670349H31.0704C31.0704 0.000670349 29.092 -0.0726211 27.6997 1.31969C27.6997 1.31969 25.5381 3.81116 23.8343 3.81116C23.8343 3.81116 22.9731 4.04935 20.9763 2.05238C20.9763 2.05238 19.1809 0.000670349 16.7446 0.000670349H0V0Z" fill="#FFF22D"/>
<path d="M20.5473 11.1439C20.5473 11.1439 20.9258 11.2661 20.9258 11.547C20.9258 11.547 21.1457 11.2295 20.8159 11.0096L20.5473 11.1439ZM21.3931 11.1318C21.3931 11.1318 21.8938 11.3028 21.8938 11.5836C21.8938 11.5836 21.9917 11.2172 21.6617 10.9973L21.3931 11.1318ZM24.0646 11.1439C24.0646 11.1439 24.3944 11.2418 24.3944 11.5224C24.3944 11.5224 24.6633 11.2293 24.3334 11.0096L24.0646 11.1439ZM22.2938 11.1562C22.2938 11.1562 22.8433 11.3517 22.6357 11.5714C22.6357 11.5714 23.2341 11.2661 22.5747 10.9973L22.2938 11.1562ZM24.9318 11.1439C24.9318 11.1439 25.2494 11.2538 25.2494 11.5224C25.2494 11.5224 25.5669 11.2172 25.225 10.863C25.225 10.8632 24.9196 10.973 24.9318 11.1439ZM25.6645 11.1439C25.6645 11.1439 26.1164 11.2538 26.0797 11.4004C26.0797 11.4004 26.3362 11.1805 26.092 10.863C26.092 10.8632 25.7501 10.8143 25.6645 11.1439ZM22.7335 10.851L23.1731 10.4235C23.1731 10.4235 23.3807 10.5701 24.1869 10.5701C24.1869 10.5701 24.2479 10.851 22.7335 10.851ZM19.0696 10.851L19.4482 10.5091C19.4482 10.5091 19.3872 10.5824 20.523 10.5824C20.523 10.5821 20.4374 10.851 19.0696 10.851ZM19.6558 10.2526L20.8282 9.54422C20.8282 9.54422 21.8907 8.95789 22.4402 8.95789C22.4402 8.95789 23.2461 8.93354 23.2461 9.54422C23.2461 9.54422 23.2218 10.2648 21.4997 10.2648C21.4999 10.2646 19.7047 10.3502 19.6558 10.2526ZM23.6495 10.2526L25.7012 8.79924C25.7012 8.79924 25.9454 8.64059 26.3729 8.64059C26.3729 8.64059 26.8003 8.64059 26.8003 8.94583C26.8003 8.94583 26.9226 10.1306 24.6633 10.3381C24.663 10.3381 24.0526 10.3989 23.6495 10.2526ZM23.9058 8.8236C23.9058 8.8236 24.9073 8.8846 25.0782 8.2252C25.0782 8.2252 25.0172 8.40843 24.2843 8.42072L23.9058 8.8236ZM22.2938 8.64037L22.4524 8.37156C22.4524 8.37156 23.0631 8.4205 23.1731 8.07839L23.7471 8.37156C23.7471 8.37178 23.7471 9.12883 22.2938 8.64037ZM20.535 8.65266L20.8282 8.2252H21.4022C21.4022 8.2252 21.4509 8.35949 21.8418 8.35949C21.8418 8.35949 21.8663 8.79924 20.535 8.65266ZM25.5057 8.35949C25.5057 8.35949 25.9454 8.07862 25.9454 7.49251L25.518 7.63909C25.518 7.63887 25.2127 8.31056 25.5057 8.35949ZM23.7471 7.78545C23.7471 7.78545 23.845 8.44507 25.0538 7.91974L24.9318 7.63887L23.7471 7.78545ZM21.5365 7.19934C21.5365 7.19934 21.5609 7.33364 21.8297 7.34593C21.8297 7.34593 21.732 7.82232 20.9871 7.77339C20.9871 7.77339 21.0481 7.39464 21.5365 7.19934ZM21.7075 7.93203C21.7075 7.93203 22.0373 8.26185 23.0142 7.91974L22.721 7.50458C22.7213 7.50458 21.9153 7.55351 21.7075 7.93203ZM22.6113 6.78395C22.6113 6.78395 22.7823 6.91847 23.1366 6.91847C23.1366 6.91847 22.477 7.6268 22.0009 7.05276L22.6113 6.78395ZM23.3197 7.48022C23.3197 7.48022 24.3089 7.60222 24.6264 7.05276L24.1866 6.75959C24.1869 6.75959 23.3197 7.08941 23.3197 7.48022ZM25.9577 8.35949C25.9577 8.35949 26.5684 8.38385 27.1179 7.77316C27.1179 7.77316 27.1056 7.55329 26.837 7.49229C26.837 7.49229 26.6048 7.48 26.4095 7.63887C26.4095 7.63887 25.9943 8.20084 25.9577 8.35949ZM26.1043 6.6253C26.1043 6.6253 26.2509 6.77188 26.2509 7.33364H26.8249C26.8249 7.33364 26.4341 7.07734 26.3854 6.61301L26.1043 6.6253ZM25.7988 6.61301C25.7988 6.61301 25.8109 6.93053 25.9454 7.04047C25.9454 7.04047 25.7378 7.43128 24.9439 7.33364L25.2248 6.90618L25.7988 6.61301ZM24.7973 6.60072L25.0782 6.17326C25.0782 6.17326 25.4934 6.24655 25.9454 6.02668C25.9454 6.0269 25.8598 6.60072 24.7973 6.60072ZM24.9439 5.58715L25.2248 5.29399C25.2248 5.29399 25.2858 5.44057 25.9454 5.44057C25.9454 5.44057 25.2737 6.30778 24.9439 5.58715ZM24.3455 5.88032L24.6264 6.1612C24.6264 6.1612 24.4798 6.60072 23.1731 6.60072L23.3197 6.17326C23.3197 6.17349 24.2112 6.27113 24.3455 5.88032ZM17.8972 5.29399C17.8972 5.29399 17.9828 5.6238 18.3247 5.72145H22.8678C22.8678 5.72145 23.2953 6.07561 24.3334 5.72145C24.3334 5.72145 24.6266 5.66045 24.7732 5.14741C24.7732 5.14741 24.6023 5.19634 24.48 4.84217C24.48 4.84217 23.8327 4.82988 23.3076 5.29399H17.8972ZM17.1522 5.29399C17.3598 5.6238 17.604 5.72145 17.604 5.72145H11.8761C11.8761 5.72145 11.3874 5.70916 11.0089 5.29399H17.1522ZM18.3247 6.0269C18.3857 6.369 18.6178 6.45436 18.6178 6.45436H13.354C13.354 6.45436 13.0242 6.47872 12.7677 6.0269H18.3247ZM19.0817 6.0269C19.0817 6.0269 19.1671 6.35671 19.4969 6.45436H21.8661L21.7075 6.74753C21.7075 6.74753 22.6357 6.84518 22.8676 6.0269H19.0817ZM14.5265 6.75959C14.5265 6.75959 14.8196 7.11376 15.1128 7.18705H19.79C19.79 7.18705 19.5215 7.11376 19.3749 6.75959H14.5265ZM19.961 6.75959C19.961 6.75959 19.9976 7.01589 20.3762 7.18705H20.9625C21.2677 7.07712 21.2556 6.75959 21.2556 6.75959H19.961ZM15.8455 7.49251C15.8455 7.49251 15.9065 7.65116 16.1264 7.77339H20.6698C20.6698 7.77339 20.8163 7.70009 20.8163 7.49251H15.8455ZM16.8591 8.09068C16.8591 8.09068 16.8347 8.21291 17.0177 8.35949H20.2298C20.4007 8.35949 20.3884 8.07862 20.3884 8.07862L16.8591 8.09068ZM17.9093 8.66495C17.9093 8.66495 18.0436 8.90918 18.349 8.94583H19.6435C19.8267 8.86024 19.79 8.66495 19.79 8.66495H17.9093ZM25.3714 3.9629H32.6869C32.6869 3.9629 33.1999 3.82861 33.4319 3.38886H27.1301L27.8874 2.64388H34.7511C34.7511 2.64388 35.3129 2.57058 35.6181 2.06983H28.73C28.73 2.06983 29.475 1.32485 29.9881 1.32485L37.5235 1.32977C37.5235 1.32977 38.0975 1.25134 38.4027 0.604227H30.4888C30.4888 0.604227 29.0965 0.701875 27.7165 2.06983C27.7162 2.06983 26.5195 3.46215 25.3714 3.9629ZM39.1354 0.604227C39.1354 0.604227 39.0498 1.05604 38.4148 1.33692L45.2906 1.33938C45.2906 1.33938 46.0599 1.15369 46.3164 0.604004L39.1354 0.604227ZM36.3631 2.06983C36.3631 2.06983 36.3754 2.35071 35.7767 2.64388H42.3596C42.3596 2.64388 43.019 2.57058 43.2388 2.06983H36.3631ZM34.1648 3.38886C34.1648 3.38886 34.1891 3.69431 33.5907 3.9629H39.5872C39.5872 3.9629 40.2469 4.03619 40.7474 3.38886H34.1648ZM31.3802 4.26813C31.3802 4.26813 31.5267 4.50007 31.5267 4.85446H37.3769C37.3769 4.85446 38.2318 4.95211 38.7082 4.26813H31.3802ZM9.25037 4.41471C9.25037 4.41471 9.33595 4.75659 9.8367 4.84217H15.6989C15.6989 4.84217 15.4547 4.75659 15.2471 4.41471H9.25037ZM7.19865 3.40115C7.19865 3.40115 7.45517 3.9629 8.07815 3.9629H14.2212C14.2212 3.9629 13.7817 3.74302 13.6472 3.38886L7.19865 3.40115ZM4.56061 2.05754C4.56061 2.05754 4.90249 2.64388 5.43988 2.64388H12.0227C12.0227 2.64388 11.6075 2.49729 11.4364 2.06983L4.56061 2.05754ZM1.62939 0.604227C1.62939 0.604227 1.95921 1.32485 2.65525 1.32485H9.38466C9.38466 1.32485 8.88391 1.04398 8.79833 0.604227H1.62939Z" fill="white"/>
<path d="M24.3346 4.26866V4.69612C24.3346 4.69612 23.4676 4.68383 23.321 4.98928H23.1378C23.1378 4.98928 22.9179 5.038 22.869 4.8427H16.7261C16.7261 4.8427 16.2987 4.83041 16.1398 4.41524H22.002L21.5502 3.96343H15.2728C15.2728 3.96343 14.7111 3.87807 14.5278 3.38938H20.8419L20.0846 2.6444H13.2088C13.2088 2.6444 12.6471 2.59547 12.4638 2.07036H19.2176C19.2176 2.07036 18.5582 1.32538 17.9352 1.32538H10.4242C10.4242 1.32538 9.6915 1.27644 9.54492 0.604754H17.3123C17.3123 0.604754 18.7289 0.580398 20.5243 2.3633C20.5243 2.3633 22.3198 4.26866 23.3333 4.26866H24.3346ZM33.4455 5.3068C33.4455 5.3068 33.5801 5.39239 33.5801 5.72197H36.2058C36.2058 5.72197 36.5843 5.70968 36.7921 5.29452L33.4455 5.3068ZM33.4333 6.45489C33.4333 6.45489 33.7021 6.3206 33.7387 6.02743H35.1797C35.1797 6.02743 35.192 6.36953 34.7402 6.45489H33.4333ZM28.304 7.18758C28.304 7.18758 28.6461 7.10222 28.8903 6.76012H33.2869C33.2869 6.76012 33.0547 7.18758 32.5296 7.18758H28.304ZM27.5833 7.77391C27.5833 7.77391 27.7789 7.73727 27.8642 7.49304H31.9676C31.9676 7.49304 31.8944 7.77391 31.6745 7.77391H27.5833ZM26.9849 8.36002C26.9849 8.36002 27.1559 8.34773 27.2781 8.07914H30.9297C30.9297 8.07914 30.8564 8.34773 30.6366 8.36002H26.9849ZM27.8642 8.66548C27.8642 8.66548 27.9862 8.75083 28.0108 8.95864H29.6107C29.6107 8.95864 29.6351 8.79999 29.7573 8.66548H27.8642Z" fill="white"/>
<path d="M31.0762 5.13554C31.0762 5.13554 31.1738 4.26855 30.2213 4.26855H24.7988C24.7988 4.26855 24.8842 5.13554 25.9836 5.13554H26.9848C26.9848 5.13554 26.3864 5.34312 26.2642 5.72187H26.5574C26.5574 5.72187 26.2642 5.95404 26.2642 6.3082H26.8383C26.8383 6.3082 26.5207 6.62572 26.8383 6.89453C26.8383 6.89453 27.3024 7.41964 28.4504 6.58908C28.4504 6.58908 28.9389 6.27156 29.1954 6.3082C29.1954 6.3082 29.4153 6.28385 29.4886 6.45479H32.9816C32.9816 6.45479 32.774 6.02733 32.1389 5.91739H29.904V5.69036L32.5541 5.68545C32.5541 5.68545 33.0305 5.7098 33.1404 6.01526C33.1404 6.01526 33.0718 5.14828 32.3465 5.14828H31.0813C31.0813 5.14828 30.6367 5.58802 30.2092 5.58802C30.2092 5.58802 29.7574 5.60031 29.7574 5.28257H28.5972C28.5972 5.28257 28.6582 5.13599 28.9271 5.13599H31.0762V5.13554Z" fill="white"/>
<path d="M19.0974 13.6064L18.937 14.2658H18.8914C18.8809 14.1631 18.863 14.0808 18.8373 14.0189C18.7993 13.9296 18.7484 13.8605 18.6847 13.812C18.6264 13.7654 18.5542 13.7397 18.4796 13.7392C18.4083 13.7392 18.3459 13.7676 18.2923 13.8241C18.2669 13.8491 18.2467 13.879 18.2328 13.9119C18.219 13.9448 18.2118 13.9801 18.2116 14.0158C18.2116 14.086 18.2304 14.1555 18.268 14.2232C18.3053 14.2913 18.394 14.3934 18.5334 14.5304C18.6449 14.6397 18.72 14.734 18.7584 14.8126C18.7969 14.8915 18.8161 14.9771 18.8161 15.0691C18.8161 15.1728 18.7895 15.2685 18.7365 15.3556C18.6836 15.4432 18.6063 15.5107 18.5044 15.5587C18.3963 15.608 18.2786 15.6325 18.1598 15.6307C18.0805 15.6307 17.981 15.6184 17.8617 15.594C17.7424 15.5697 17.6629 15.5574 17.6237 15.5574C17.5949 15.5569 17.5662 15.5621 17.5393 15.5726C17.5066 15.5876 17.4762 15.6071 17.449 15.6307H17.394L17.5569 14.8888H17.6094C17.6208 15.0198 17.6461 15.1315 17.6847 15.2236C17.7234 15.3156 17.7788 15.3873 17.851 15.439C17.9229 15.4903 18.0047 15.5163 18.097 15.5163C18.188 15.5163 18.2644 15.485 18.3256 15.4224C18.355 15.3938 18.3783 15.3596 18.3941 15.3218C18.41 15.284 18.418 15.2433 18.4177 15.2023C18.4177 15.1306 18.4002 15.0618 18.3658 14.9959C18.3312 14.9299 18.2521 14.8341 18.1287 14.7087C18.0052 14.5831 17.9198 14.4707 17.8727 14.3718C17.839 14.2982 17.8217 14.2181 17.8222 14.1371C17.8222 13.993 17.8767 13.8688 17.9853 13.7638C18.0939 13.6587 18.2367 13.6064 18.4132 13.6064C18.4923 13.6064 18.5969 13.6248 18.7267 13.6612C18.8029 13.6826 18.857 13.6934 18.8885 13.6934C18.9153 13.6934 18.9392 13.6878 18.96 13.6759C18.981 13.6643 19.0053 13.6411 19.033 13.6064H19.0974ZM19.2167 15.159C19.247 15.1586 19.2771 15.1645 19.305 15.1764C19.3328 15.1884 19.3579 15.206 19.3785 15.2282C19.4227 15.2743 19.4449 15.3299 19.4449 15.3949C19.4449 15.4602 19.4223 15.5158 19.3776 15.5619C19.3571 15.5839 19.3322 15.6015 19.3045 15.6134C19.2768 15.6253 19.2469 15.6312 19.2167 15.6309C19.1868 15.6314 19.157 15.6254 19.1295 15.6135C19.102 15.6016 19.0774 15.584 19.0572 15.5619C19.0358 15.5397 19.0189 15.5136 19.0076 15.485C18.9964 15.4563 18.9909 15.4257 18.9915 15.3949C18.9915 15.3297 19.0134 15.2741 19.0572 15.2282C19.0773 15.206 19.102 15.1883 19.1295 15.1764C19.157 15.1644 19.1867 15.1585 19.2167 15.159ZM21.3659 13.6064L21.2054 14.2658H21.1598C21.1493 14.1631 21.1312 14.0808 21.1058 14.0189C21.0678 13.9296 21.0168 13.8605 20.9531 13.812C20.8949 13.7654 20.8226 13.7398 20.748 13.7392C20.6767 13.7392 20.6144 13.7676 20.5608 13.8241C20.5071 13.8806 20.4803 13.9445 20.4803 14.0158C20.4803 14.086 20.4991 14.1555 20.5366 14.2232C20.574 14.2913 20.6627 14.3934 20.8021 14.5304C20.9138 14.6397 20.9887 14.734 21.0271 14.8126C21.0655 14.8915 21.085 14.9771 21.085 15.0691C21.085 15.1728 21.0584 15.2685 21.0054 15.3556C20.9525 15.4432 20.8752 15.5107 20.7733 15.5587C20.6714 15.6065 20.5565 15.6307 20.4287 15.6307C20.3494 15.6307 20.25 15.6184 20.1306 15.594C20.0111 15.5697 19.9318 15.5574 19.8929 15.5574C19.8639 15.5569 19.8352 15.5621 19.8082 15.5726C19.7756 15.5876 19.7452 15.6071 19.7181 15.6307H19.663L19.8258 14.8888H19.8781C19.8895 15.0198 19.9148 15.1315 19.9534 15.2236C19.9923 15.3156 20.0477 15.3873 20.1195 15.439C20.1914 15.4903 20.2734 15.5163 20.3657 15.5163C20.4566 15.5163 20.5328 15.485 20.5943 15.4224C20.6237 15.3938 20.647 15.3596 20.6628 15.3218C20.6786 15.284 20.6866 15.2433 20.6864 15.2023C20.6864 15.1306 20.6689 15.0618 20.6345 14.9959C20.5999 14.9299 20.5208 14.8341 20.3972 14.7087C20.2736 14.5831 20.1883 14.4707 20.1411 14.3718C20.1076 14.2981 20.0904 14.2181 20.0909 14.1371C20.0909 13.993 20.1452 13.8688 20.2538 13.7638C20.3626 13.6587 20.5051 13.6064 20.6819 13.6064C20.761 13.6064 20.8656 13.6248 20.9954 13.6612C21.0716 13.6826 21.1257 13.6934 21.1572 13.6934C21.1821 13.6939 21.2068 13.6879 21.2287 13.6759C21.2497 13.6643 21.274 13.6411 21.3015 13.6064H21.3659ZM21.485 15.159C21.5486 15.159 21.6025 15.1822 21.6467 15.2282C21.691 15.2743 21.7131 15.3299 21.7131 15.3949C21.7131 15.4602 21.6905 15.5158 21.6458 15.5619C21.6009 15.6079 21.5475 15.6309 21.485 15.6309C21.4224 15.6309 21.3692 15.6079 21.3254 15.5619C21.304 15.5397 21.2872 15.5136 21.2759 15.485C21.2646 15.4563 21.2591 15.4257 21.2597 15.3949C21.2597 15.3297 21.2818 15.2741 21.3254 15.2282C21.3456 15.206 21.3702 15.1884 21.3977 15.1764C21.4252 15.1645 21.455 15.1585 21.485 15.159ZM23.3968 15.5893H21.9082L21.9225 15.5388C22.0101 15.5388 22.0746 15.5207 22.1155 15.4848C22.1566 15.4486 22.1944 15.3677 22.2286 15.2414L22.5725 13.9919C22.5915 13.9231 22.6011 13.869 22.6011 13.8297C22.6011 13.7917 22.5875 13.7611 22.5602 13.7381C22.5329 13.715 22.4789 13.7016 22.3978 13.6978L22.4134 13.6473H23.3088L23.2931 13.6978C23.2073 13.6998 23.143 13.7202 23.1007 13.7588C23.0583 13.7975 23.0203 13.8761 22.987 13.995L22.6724 15.136C22.6324 15.281 22.6123 15.3692 22.6123 15.4007C22.6123 15.42 22.6225 15.4378 22.6431 15.4546C22.6637 15.4714 22.6967 15.4796 22.7425 15.4796C22.8954 15.4796 23.0422 15.4432 23.1836 15.3704C23.3251 15.2977 23.4448 15.1889 23.5432 15.0446H23.6026L23.3968 15.5893ZM24.3851 14.843L24.8919 14.2122L24.8552 14.843H24.3851ZM24.8414 15.2092C24.8367 15.3158 24.8237 15.3907 24.803 15.4338C24.782 15.4769 24.7587 15.5053 24.7332 15.5187C24.7207 15.5245 24.6751 15.5315 24.5963 15.5391L24.5806 15.5896H25.3888L25.4018 15.5391C25.3442 15.5344 25.3028 15.5172 25.2778 15.4874C25.2528 15.4577 25.2403 15.4104 25.2403 15.3451C25.2403 15.3279 25.2418 15.2776 25.2447 15.1947L25.3091 13.6064H25.2449L23.9284 15.2475C23.8327 15.3672 23.7599 15.4463 23.7094 15.4845C23.6704 15.5128 23.6253 15.5314 23.5778 15.5391L23.5635 15.5896H24.1174V15.5391C24.0631 15.5362 24.0242 15.5252 24.001 15.5053C23.9775 15.4859 23.9659 15.4644 23.9659 15.4412C23.9659 15.4191 23.9706 15.3972 23.9802 15.375C23.9916 15.3464 24.0102 15.3143 24.0361 15.2787L24.1666 15.1163L24.2868 14.9666H24.8559L24.8414 15.2092ZM27.5007 13.7021L26.0722 15.4796H26.1839C26.4062 15.4796 26.5848 15.445 26.7199 15.3755C26.8549 15.306 26.9796 15.1912 27.094 15.0309H27.1512L26.9566 15.5896H25.5086V15.5346L26.9331 13.7622H26.7586C26.5354 13.7622 26.3698 13.791 26.2619 13.8487C26.1542 13.9063 26.0617 14.0042 25.9841 14.1423H25.9298L26.0887 13.6476H27.5009L27.5007 13.7021ZM27.6998 13.6981L27.7154 13.6476H28.6264L28.6092 13.6981C28.5261 13.6981 28.4628 13.7175 28.4195 13.7559C28.3761 13.7944 28.3382 13.875 28.3058 13.9973L27.9628 15.2401C27.938 15.3286 27.9254 15.388 27.9254 15.4177C27.9248 15.4334 27.928 15.4489 27.9347 15.4631C27.9414 15.4772 27.9515 15.4895 27.9641 15.4988C27.9967 15.5239 28.0586 15.5373 28.1502 15.5391L28.1359 15.5896H27.2133L27.229 15.5391C27.3206 15.5391 27.3878 15.5205 27.4307 15.4834C27.4736 15.4463 27.5127 15.3652 27.548 15.2401L27.8908 13.9973C27.9118 13.9202 27.9225 13.8618 27.9225 13.8223C27.9232 13.8063 27.9201 13.7903 27.9134 13.7757C27.9066 13.7611 27.8965 13.7484 27.8839 13.7385C27.8584 13.7182 27.797 13.7048 27.6998 13.6981ZM29.9126 13.8087C29.9593 13.8672 29.9827 13.9615 29.9827 14.092C29.9827 14.3005 29.9387 14.538 29.8507 14.8048C29.7626 15.0716 29.6491 15.274 29.5099 15.4119C29.4769 15.4456 29.4373 15.4723 29.3936 15.4902C29.35 15.5081 29.3031 15.5169 29.2559 15.516C29.1801 15.516 29.118 15.4863 29.0697 15.4269C29.0215 15.3675 28.9973 15.2794 28.9973 15.1634C28.9973 15.0274 29.0221 14.8575 29.0717 14.654C29.1214 14.4504 29.1743 14.2893 29.2306 14.1709C29.2869 14.0525 29.3423 13.9613 29.3969 13.8976C29.4512 13.8339 29.5037 13.7886 29.5544 13.7613C29.6051 13.7343 29.6661 13.7206 29.7383 13.7206C29.8078 13.7209 29.8657 13.7501 29.9126 13.8087ZM29.7072 15.5096C29.8909 15.4012 30.0565 15.226 30.2037 14.9842C30.351 14.7425 30.4245 14.5011 30.4245 14.2607C30.4245 14.1535 30.3964 14.0469 30.34 13.9414C30.2863 13.8384 30.2043 13.7528 30.1036 13.6947C30.0065 13.6371 29.8957 13.6066 29.7828 13.6064C29.5913 13.6064 29.3971 13.6708 29.2 13.7995C29.0025 13.9288 28.8409 14.1058 28.7299 14.3141C28.6137 14.5284 28.5556 14.7411 28.5556 14.9521C28.5556 15.0566 28.5786 15.1641 28.6248 15.2743C28.6711 15.3847 28.7404 15.4714 28.8327 15.535C28.9249 15.5987 29.046 15.6305 29.1958 15.6305C29.3978 15.6307 29.5682 15.5902 29.7072 15.5096Z" fill="#405F96"/>
</svg>
