<svg width="51" height="32" viewBox="0 0 51 32" fill="none" xmlns="http://www.w3.org/2000/svg">
<path d="M49.6958 13.5919C48.2962 12.9134 45.8588 12.131 45.8588 12.131C45.755 12.1044 45.5448 12.0353 45.5448 12.0353C45.6033 11.9501 45.6486 11.8596 45.6832 11.7612C45.7683 11.4632 45.7497 11.1146 45.5554 11.0055C45.5554 11.0055 46.6171 11.064 46.8486 10.9762C47.5032 10.7234 47.7533 9.85598 47.5245 9.24397C47.4048 8.922 46.8912 8.72243 46.7874 8.45368C46.6863 8.19824 46.6198 7.99867 46.3484 7.86296C45.9067 7.64211 44.7891 7.44786 44.2968 7.49044C43.8817 7.52769 43.8019 8.00133 43.5465 8.11043C42.5194 8.54681 42.0617 8.34193 42.0723 9.85864C42.0723 9.90387 42.0776 9.94645 42.083 9.98902C41.7104 9.81074 40.7818 9.36105 40.3534 9.17213V0H9.98185V9.16947C9.55078 9.35839 8.62213 9.80808 8.25226 9.98636C8.26025 9.94379 8.26291 9.89855 8.26291 9.85598C8.27355 8.34193 7.81588 8.54681 6.78877 8.10777C6.53332 7.99601 6.45349 7.52503 6.03839 7.48778C5.54613 7.4452 4.42855 7.63945 3.98684 7.8603C3.71277 7.99867 3.65157 8.19824 3.54779 8.45102C3.44402 8.71977 2.93312 8.922 2.81072 9.24131C2.58188 9.85598 2.83201 10.7234 3.48659 10.9736C3.71809 11.0614 4.77979 11.0055 4.77979 11.0055C4.58554 11.1172 4.56692 11.4632 4.65206 11.7612C4.684 11.857 4.73189 11.9501 4.79043 12.0353C4.79043 12.0353 4.58022 12.1044 4.47645 12.131C4.47645 12.131 2.04172 12.9134 0.639426 13.5919C0.639426 13.5919 -1.0396 14.3742 1.04388 14.2225C1.145 14.2225 2.70695 14.1028 4.33276 13.8633L4.32211 13.9538C4.32211 14.4753 4.43387 14.4726 4.87292 14.6217L4.85962 14.7148C4.31147 14.8265 3.2205 14.933 2.83999 15.1831C2.42489 15.4598 1.28869 15.2443 0.604834 16.1623C0.426554 16.4045 0.125872 17.1362 0.301491 17.3757C0.588869 17.7642 2.23597 18.3363 2.4515 18.3389C2.96771 18.3496 3.01827 17.9318 3.38282 17.687C3.55843 17.5673 3.76598 17.6471 3.96023 17.5965C4.25293 17.5194 4.41258 17.2586 4.67069 17.1256C4.8197 17.0484 5.14167 16.9765 5.34656 17.0936C6.25127 17.6444 9.02393 16.9446 9.98983 16.3832V21.3537C9.98983 23.1232 10.216 23.7991 10.7588 24.7331L10.8041 24.8076C13.8934 29.379 19.1327 32 25.1729 32C31.2132 32 36.4445 29.387 39.5258 24.8289L39.5711 24.757C40.1245 23.8044 40.3534 23.1206 40.3534 21.3537V16.3858C41.3166 16.9473 44.0893 17.6471 44.994 17.0963C45.1989 16.9792 45.5208 17.0511 45.6699 17.1282C45.9253 17.2586 46.0876 17.522 46.3803 17.5992C46.5746 17.6498 46.7821 17.5699 46.9577 17.6897C47.3223 17.9371 47.3755 18.3549 47.8891 18.3416C48.1046 18.3363 49.7517 17.7668 50.0391 17.3783C50.2147 17.1389 49.9167 16.4071 49.7357 16.165C49.0545 15.247 47.9183 15.4598 47.5006 15.1858C47.12 14.9383 46.0291 14.8265 45.4809 14.7148L45.4676 14.619C45.9067 14.47 46.0211 14.4726 46.0184 13.9511L46.0078 13.8606C47.6363 14.1001 49.1956 14.2199 49.2967 14.2199C51.3802 14.3689 49.7011 13.5892 49.7011 13.5892L49.6958 13.5919Z" fill="white"/>
<path d="M23.6858 17.9399C22.1319 17.9399 20.6072 17.5089 19.29 16.6893C20.8413 18.661 23.2947 19.7227 25.8119 19.5072C28.3291 19.2917 30.5616 17.8308 31.7484 15.625H31.7404C31.594 15.5824 31.3759 15.4972 31.1204 15.3988C30.8357 15.287 30.3168 15.0874 30.1412 15.0662C30.0906 15.0981 30.0427 15.1353 29.9975 15.1726C29.8991 15.2551 29.7953 15.3296 29.6862 15.3988C28.1242 17.0246 25.9556 17.9426 23.6885 17.9399H23.6858Z" fill="#DADADA"/>
<path d="M46.8193 10.1089C46.9097 9.97848 46.9097 9.73367 46.8406 9.59265C46.7607 9.42767 46.5159 9.38244 46.3589 9.3239C46.1647 9.36647 46.3802 9.53411 46.2126 9.60595L45.8374 9.55805C45.6006 9.31591 46.0955 9.3505 46.1221 9.22012C46.162 9.03386 45.9837 8.8609 46.1008 8.6773C46.0849 8.6294 46.0503 8.58949 46.0024 8.56554C45.8081 8.49635 44.6533 8.22228 44.491 8.23293L44.4431 8.2888C44.4883 8.35267 44.6852 8.52829 44.6932 8.54425C44.7704 8.68262 44.2515 8.78107 44.1637 8.7997C43.7486 8.88485 42.639 9.01789 42.8013 9.66715C42.8785 9.97316 43.9801 10.7475 44.1158 11.0854C44.1451 11.1573 44.2887 11.3089 44.193 11.3755C43.9907 11.5112 42.9689 11.3302 42.9131 11.4872C42.9689 11.6974 43.5783 11.8597 43.7752 11.9342C44.0094 12.022 44.2222 12.0886 44.4697 11.9688C44.7438 11.8358 44.922 11.4766 44.8741 11.1759C44.8183 10.9683 44.7331 10.7714 44.616 10.5905C44.5362 10.484 43.863 9.95985 44.0519 9.88801C44.2781 9.95985 44.5868 9.89599 44.7464 10.1089C45.1695 10.2259 45.6219 10.3004 46.0529 10.3776C46.3323 10.4282 46.6463 10.351 46.8113 10.1089H46.8193ZM37.57 15.271C37.6099 15.1912 37.6125 15.0981 37.578 15.0156C37.546 14.9757 37.5034 14.9464 37.4529 14.9331C37.2586 14.9756 37.0617 15.0635 36.8409 15.0076C36.6387 15.0076 36.3114 14.8293 36.2209 15.0981C36.1863 15.271 36.0878 15.4147 36.0453 15.5797C36.0453 15.6675 36.1304 15.7526 36.2129 15.7925C36.338 15.8192 36.4923 15.8883 36.6041 15.8671C36.8116 15.7234 36.7983 15.4599 37.0085 15.3109C37.1203 15.3375 37.1336 15.4892 37.2586 15.4759C37.3917 15.4626 37.5061 15.3854 37.5726 15.2683H37.57V15.271ZM42.639 12.0726C42.6762 11.8784 42.4527 11.8464 42.3197 11.8039C41.9977 11.7001 41.6784 11.599 41.3538 11.5085C41.1143 11.442 40.8748 11.3169 40.638 11.2664C40.3373 11.2052 40.0978 11.1972 39.8876 10.9337L39.9355 10.9071C40.2202 11.0189 40.6806 11.261 40.9786 11.0641C41.1196 10.971 41.2686 10.7182 41.2021 10.5479C41.1515 10.4202 40.9919 10.4016 40.8828 10.3537C40.4145 10.1514 39.9541 9.90397 39.4965 9.67779C38.5279 9.19883 37.562 8.71987 36.5961 8.23559C36.157 8.01473 35.6594 7.76195 35.1778 7.65817C34.7867 7.57302 34.3396 7.68212 33.9964 7.88435C33.6531 8.08924 33.6664 8.56022 33.411 8.50966C33.3711 8.47241 33.3471 8.41919 33.3471 8.36597C33.246 8.20632 32.924 8.65601 32.6659 8.78639C32.0885 9.07377 31.072 10.1701 30.6569 10.6916C30.3935 11.0242 30.2871 11.442 30.1913 11.8411L30.2472 11.9156C30.3749 11.9449 30.4893 11.8943 30.6011 11.8411C30.7075 11.8677 30.6969 11.9981 30.7554 12.0753C31.1758 12.6367 32.2987 12.3121 32.9107 12.517C32.9187 12.5542 32.9107 12.5888 32.8682 12.5915C32.5941 12.6261 32.2295 12.5702 31.9475 12.5622C31.2982 12.5462 30.649 12.5383 30.0024 12.5037L29.9252 12.5462C29.8667 12.6766 29.5101 13.4323 29.4516 13.4962C29.3637 13.592 29.236 13.6612 29.1429 13.7649C28.8928 14.0417 28.7092 14.3796 28.3925 14.5951C28.2967 14.659 28.1078 14.6963 28.0652 14.8027L28.1131 14.8586C29.071 14.9357 29.1668 13.9406 29.8108 13.717C29.8267 13.7224 29.8401 13.733 29.848 13.7463C29.856 13.7596 29.8587 13.7782 29.8534 13.7942C29.6804 13.9672 29.5367 14.1641 29.4223 14.3796C29.0471 15.13 28.781 14.9011 28.4218 15.2471L28.4777 15.3296C29.5394 15.2976 29.731 14.7096 30.0769 14.6617C30.3722 14.6217 31.4765 15.1326 31.8437 15.2338C32.0273 15.2843 32.2083 15.3455 32.4025 15.3455C32.4664 15.3455 32.5542 15.3109 32.61 15.3136C32.7511 15.3189 32.7777 15.569 33.0917 15.4253C33.2779 15.3375 33.2912 15.0741 33.3152 14.8958C33.3445 14.6803 33.073 14.4967 33.0917 14.3796C33.1183 14.2146 33.3285 14.4355 33.3764 14.2891C33.4057 14.2013 33.2966 14.0257 33.2433 13.9565C33.1023 13.7809 32.7085 13.4776 32.7644 13.2195C32.7883 13.1822 32.8256 13.1556 32.8682 13.145L34.1534 13.3019C34.1986 13.3073 34.3929 13.7596 34.3955 13.8049C34.3982 13.874 34.2119 14.3397 34.172 14.4302C34.0656 14.683 33.8766 14.8666 33.8793 15.1593C33.882 15.5185 34.1268 15.8537 34.3104 16.1491C34.5126 16.4817 34.8372 16.3221 35.1299 16.4179C35.2497 16.4578 35.38 16.5403 35.4998 16.5935C35.883 16.7664 36.2794 16.9101 36.6866 17.0166C36.9047 17.0671 37.24 16.9953 37.3677 16.7957C37.4609 16.6494 37.1442 16.6041 37.2853 16.4445C37.3598 16.3593 37.4529 16.3646 37.5567 16.3753C37.7802 16.3992 38.9244 16.5376 39.0441 16.4099C39.084 16.3673 39.0228 16.3088 38.9882 16.2928C38.7567 16.181 38.4002 16.1305 38.15 16.0586C37.844 15.9735 37.5247 15.9522 37.2187 15.8591C36.958 15.7792 36.9739 16.0453 36.7877 16.1624C36.5083 16.3407 35.7526 15.9868 35.6621 15.6648C35.5743 15.3588 35.8563 14.9703 36.0586 14.7628C36.2182 14.6005 36.4098 14.5765 36.5668 14.4541C36.6653 14.3743 36.5961 14.22 36.5961 14.1162C36.7504 13.9246 37.3305 14.2279 37.57 14.1641C37.8281 14.0922 37.6365 13.757 37.8547 13.6904C38.0489 13.7463 38.2006 13.882 38.3895 13.9512C38.5306 14.0018 38.778 14.0284 38.8685 14.1508C38.943 14.2492 38.8685 14.3849 38.8472 14.4887C38.9164 14.6164 39.1319 14.6537 39.265 14.675C39.4778 14.7042 39.712 14.6936 39.9302 14.7149C40.1484 14.7388 40.3666 14.8 40.5795 14.8187L41.3006 14.8878C41.4762 14.9703 41.258 15.1193 41.4176 15.452C41.2447 15.428 40.5395 15.2178 40.457 15.452C41.0824 16.0267 42.5006 16.4365 43.3388 16.5536C43.8524 16.6254 44.3952 16.6094 44.9114 16.5669C44.9806 16.5669 45.0471 16.5482 45.1056 16.5083C45.1056 16.511 45.3824 16.2822 45.5287 16.3061C45.731 16.338 45.9651 16.7212 46.3855 16.8809C46.6703 17.0405 46.9443 16.7638 47.1652 16.8888C47.4366 17.0405 47.6069 17.8068 48.0406 17.6871C48.1284 17.6632 48.5036 17.5328 48.5568 17.4849C48.7005 17.3678 48.4584 17.0645 48.3333 16.8596C48.2881 16.7984 48.2588 16.7478 48.2056 16.7372C47.7027 16.6094 47.9395 16.04 47.2184 15.907C46.8938 15.8484 46.8139 15.8192 46.492 15.7606C46.4042 15.7447 46.2046 15.7872 46.194 15.6622L46.2498 15.601L46.8272 15.5877L46.8139 15.5132C45.8906 15.3987 44.9832 15.138 44.0599 15.0315C43.9907 14.9916 43.9029 14.7814 43.9136 14.7149C43.9428 14.5499 44.2089 14.8586 44.3446 14.5286C44.4245 14.337 44.2329 14.1747 44.3872 14.0816C44.7943 14.1348 45.1988 14.1827 45.6059 14.2412C43.3122 13.6984 40.9999 13.2461 38.7062 12.7086C38.2086 12.5915 37.7004 12.5143 37.2107 12.3653L37.2187 12.3094C39.241 12.5888 41.2447 13.0731 43.2776 13.286V13.2354C42.1547 13.0225 41.0398 12.7405 39.9169 12.5409C38.2379 12.2429 36.5508 11.9954 34.8665 11.74C33.7675 11.575 32.65 11.3701 31.543 11.277L31.5084 11.3515C31.5829 11.442 31.6867 11.4845 31.7878 11.5378C31.8038 11.5591 31.8011 11.5883 31.7798 11.6069C31.6388 11.591 31.0082 11.6309 31.0082 11.4845C31.2423 11.2637 31.3009 11.1519 31.6415 11.1812C32.171 11.2291 32.7032 11.3063 33.2354 11.3728C36.2794 11.7613 39.3421 12.1631 42.3676 12.6793C45.5553 13.2248 47.2423 13.4696 49.8633 13.9672C48.9746 13.6505 44.9593 12.5383 42.9104 12.1897C42.8146 12.1737 42.6922 12.1897 42.647 12.0779L42.6417 12.0833L42.639 12.0726ZM41.8913 15.6063C42.0429 15.6116 42.1973 15.6302 42.3463 15.6595C42.6869 15.7287 43.0275 15.7553 43.3761 15.8537C43.4399 15.883 43.4852 15.9389 43.4985 16.0081C43.4745 16.0373 43.4373 16.0533 43.4 16.0533L42.0429 15.7101L41.8913 15.6116V15.6063ZM34.4062 15.0528L34.7813 14.18C34.7946 14.1135 34.8532 14.0656 34.9197 14.063C35.0022 14.0896 35.1086 14.1029 35.1352 14.2013L34.8133 14.8852C34.5898 15.1752 34.7494 15.5744 34.8266 15.8617C34.8159 15.899 34.7813 15.9283 34.7414 15.9309C34.5179 15.7101 34.3183 15.4014 34.4008 15.0555L34.4062 15.0528ZM31.5483 14.4408C31.4632 14.5047 31.3142 14.4701 31.2051 14.4541C31.0747 14.3823 31.0481 14.2333 31.0321 14.0922C31.0295 14.055 31.0454 14.0177 31.0747 13.9938C31.2264 13.9938 31.3754 14.031 31.4765 14.1508C31.5191 14.2439 31.5989 14.3424 31.5483 14.4408ZM36.1118 10.8752L36.2981 10.9603C36.2981 10.9603 33.544 10.5719 32.2136 10.3829C32.1577 10.3776 31.9847 10.359 32.014 10.2632C32.0486 10.2392 32.0912 10.2313 32.1311 10.2366L36.1091 10.8779L36.1118 10.8752ZM36.8196 9.65917L36.7903 9.68578C36.0878 9.55007 35.3641 9.38776 34.6749 9.19883C34.6217 9.18553 34.4993 9.17488 34.5153 9.09506C34.768 9.04716 35.9229 9.34784 36.2129 9.4463C36.3406 9.48887 36.4178 9.4596 36.5482 9.4463C36.6493 9.50218 36.7424 9.57402 36.8196 9.65917ZM12.7544 15.0129C12.7171 15.0954 12.7198 15.1885 12.7624 15.2683C12.8262 15.3828 12.9433 15.4599 13.0764 15.4759C13.2014 15.4892 13.2147 15.3375 13.3265 15.3109C13.534 15.4626 13.5207 15.7234 13.731 15.8671C13.8427 15.8883 13.9944 15.8192 14.1221 15.7925C14.2046 15.7526 14.2897 15.6675 14.2897 15.5797C14.2472 15.4147 14.1487 15.271 14.1141 15.0981C14.0237 14.8293 13.6964 15.0076 13.4941 15.0076C13.2706 15.0635 13.0764 14.973 12.8821 14.9331C12.8316 14.9464 12.789 14.9757 12.7571 15.0156H12.7544V15.0129ZM22.2139 14.8559L22.2618 14.8C22.2192 14.6936 22.0303 14.659 21.9345 14.5925C21.6179 14.3769 21.4369 14.039 21.1841 13.7623C21.091 13.6612 20.9606 13.5867 20.8755 13.4935C20.8196 13.4323 20.463 12.6766 20.4018 12.5436L20.3247 12.501C19.6754 12.5356 19.0261 12.5436 18.3795 12.5596C18.1002 12.5675 17.7356 12.6234 17.4589 12.5888C17.4163 12.5835 17.4083 12.5516 17.4163 12.5143C18.031 12.3094 19.1512 12.6367 19.5716 12.0726C19.6275 11.9981 19.6195 11.8651 19.726 11.8384C19.8377 11.8943 19.9548 11.9449 20.0799 11.913L20.1357 11.8384C20.0373 11.4393 19.9335 11.0189 19.6701 10.6889C19.2523 10.1674 18.2385 9.07111 17.6611 8.78373C17.4003 8.65601 17.081 8.20366 16.9799 8.36331C16.9799 8.41919 16.956 8.46975 16.9161 8.507C16.6633 8.55756 16.6712 8.08392 16.3307 7.88169C15.9927 7.67946 15.5404 7.57302 15.1466 7.65551C14.6649 7.75929 14.1673 8.01473 13.7283 8.23293C12.765 8.71721 11.7991 9.19883 10.8306 9.67779C10.3729 9.90397 9.91256 10.1514 9.44424 10.3537C9.33248 10.4016 9.17549 10.4175 9.12493 10.5479C9.05841 10.7182 9.20476 10.9683 9.34845 11.0641C9.64647 11.261 10.1068 11.0189 10.3915 10.9071L10.4394 10.9337C10.2292 11.1972 9.99239 11.2025 9.68904 11.2664C9.44956 11.3169 9.21008 11.4393 8.97326 11.5085C8.64863 11.599 8.32932 11.7001 8.00735 11.8039C7.87431 11.8464 7.65079 11.8784 7.68804 12.0726C7.64281 12.1844 7.52041 12.1657 7.42462 12.1844C5.37572 12.5329 1.36042 13.6452 0.47168 13.9618C3.09267 13.4643 4.77968 13.2195 7.96744 12.674C10.9902 12.1551 14.0556 11.7533 17.0997 11.3675C17.6292 11.3009 18.1614 11.2238 18.6935 11.1759C19.0341 11.144 19.0927 11.2584 19.3268 11.4792C19.3268 11.6282 18.6962 11.591 18.5552 11.6016C18.5365 11.583 18.5312 11.5537 18.5472 11.5324C18.6483 11.4766 18.7521 11.4367 18.8266 11.3462L18.792 11.2717C17.6851 11.3648 16.5675 11.567 15.4685 11.7347C13.7842 11.9901 12.0945 12.2376 10.4181 12.5356C9.29257 12.7352 8.18031 13.0199 7.05741 13.2301V13.278C9.08768 13.0651 11.0913 12.5808 13.1163 12.3014L13.1243 12.3573C12.6347 12.5037 12.1238 12.5782 11.6288 12.6953C9.33514 13.2328 7.02282 13.6878 4.72912 14.2279C5.13358 14.1721 5.5407 14.1215 5.94515 14.0683C6.09949 14.1614 5.9079 14.3237 5.98773 14.5153C6.1261 14.8453 6.39219 14.5339 6.41879 14.7016C6.42944 14.7681 6.34163 14.9783 6.27244 15.0182C5.34911 15.1273 4.44174 15.3854 3.51841 15.4998L3.50511 15.5744L4.08252 15.5877L4.1384 15.6489C4.12776 15.7739 3.93085 15.7313 3.84038 15.7473C3.51575 15.8059 3.43592 15.8351 3.11396 15.8937C2.39285 16.0294 2.63233 16.5988 2.12676 16.7239C2.07354 16.7372 2.04427 16.7824 1.99904 16.8463C1.87664 17.0512 1.63449 17.3545 1.77552 17.4716C1.82608 17.5221 2.20393 17.6499 2.29174 17.6738C2.72546 17.7935 2.89576 17.0272 3.16717 16.8755C3.39069 16.7505 3.65944 17.0272 3.94682 16.8676C4.36724 16.7079 4.6014 16.3274 4.80363 16.2928C4.94998 16.2688 5.22671 16.5003 5.22671 16.495C5.28259 16.5349 5.35177 16.5536 5.42096 16.5536C5.93717 16.5961 6.47999 16.6121 6.99355 16.5403C7.83173 16.4232 9.24733 16.0161 9.87264 15.4386C9.79282 15.2045 9.08502 15.4147 8.91206 15.4386C9.07171 15.106 8.85618 14.957 9.02914 14.8745L9.7529 14.8054C9.96578 14.7867 10.184 14.7229 10.4022 14.7016C10.6204 14.6803 10.8545 14.6909 11.0674 14.6617C11.2004 14.643 11.416 14.6031 11.4852 14.4754C11.4665 14.3716 11.3894 14.2359 11.4639 14.1375C11.557 14.0151 11.8045 13.9885 11.9428 13.9379C12.1318 13.8687 12.2834 13.7303 12.4777 13.6771C12.6985 13.7437 12.5043 14.0816 12.7624 14.1508C12.9992 14.2146 13.5819 13.9113 13.7363 14.1029C13.7363 14.204 13.6644 14.361 13.7655 14.4408C13.9225 14.5632 14.1141 14.5872 14.2738 14.7495C14.476 14.957 14.7581 15.3429 14.6703 15.6515C14.5798 15.9708 13.8241 16.3247 13.5447 16.1491C13.3584 16.032 13.3771 15.7686 13.1136 15.8458C12.8076 15.9389 12.4883 15.9602 12.1823 16.0453C11.9295 16.1145 11.5703 16.1677 11.3415 16.2795C11.3069 16.2955 11.2457 16.354 11.2856 16.3966C11.4053 16.5243 12.5495 16.3859 12.773 16.362C12.8768 16.3513 12.9699 16.346 13.0444 16.4312C13.1828 16.5935 12.8662 16.6361 12.962 16.7824C13.0897 16.982 13.4249 17.0538 13.6431 17.0033C14.0503 16.8942 14.4467 16.7531 14.8299 16.5802C14.9496 16.527 15.08 16.4445 15.1998 16.4046C15.4925 16.3088 15.8171 16.4658 16.0193 16.1358C16.2029 15.8378 16.4477 15.5052 16.4504 15.1459C16.4531 14.8532 16.2668 14.6696 16.1577 14.4169C16.1178 14.3237 15.9342 13.8581 15.9342 13.7915C15.9368 13.7463 16.1337 13.294 16.1763 13.2886L17.4615 13.1316C17.5041 13.1423 17.5414 13.1689 17.5653 13.2062C17.6212 13.4643 17.2247 13.7649 17.0863 13.9432C17.0331 14.0097 16.924 14.1854 16.956 14.2758C17.0039 14.4222 17.2141 14.2013 17.2407 14.3663C17.262 14.4834 16.9906 14.667 17.0172 14.8825C17.0411 15.0635 17.0518 15.3242 17.2407 15.412C17.552 15.5557 17.5786 15.3056 17.7223 15.3003C17.7782 15.2976 17.866 15.3322 17.9299 15.3322C18.1241 15.3349 18.305 15.2737 18.4886 15.2205C18.8532 15.122 19.9601 14.6084 20.2555 14.6484C20.6014 14.6963 20.7956 15.2843 21.8547 15.3162L21.9106 15.2338C21.5513 14.8878 21.2826 15.1167 20.9101 14.3663C20.7983 14.1508 20.652 13.9539 20.479 13.7809C20.4737 13.7649 20.4763 13.749 20.4843 13.733C20.4923 13.7197 20.5056 13.7091 20.5216 13.7037C21.1628 13.9273 21.2613 14.9198 22.2192 14.8453L22.2139 14.8559ZM8.44108 15.6063L8.28941 15.7047L6.93235 16.048C6.8951 16.048 6.85784 16.032 6.8339 16.0028C6.84986 15.9362 6.8951 15.8804 6.9563 15.8484C7.30487 15.7526 7.64547 15.7234 7.98607 15.6542C8.13508 15.6249 8.28941 15.6089 8.44108 15.601V15.6063ZM15.9262 15.0528C16.0113 15.3987 15.8065 15.7074 15.5856 15.9283C15.5457 15.9256 15.5138 15.8963 15.5005 15.8591C15.5776 15.569 15.7373 15.1726 15.5138 14.8825L15.1944 14.2013C15.2237 14.1055 15.3275 14.0896 15.41 14.063C15.4792 14.063 15.535 14.1135 15.5483 14.18L15.9235 15.0528H15.9262ZM15.8144 9.09772C15.8304 9.17488 15.708 9.18553 15.6548 9.20149C14.9656 9.39042 14.2418 9.55539 13.5394 9.68844L13.5101 9.66183C13.5873 9.57668 13.6804 9.50484 13.7815 9.44896C13.9119 9.46226 13.9864 9.49153 14.1168 9.44896C14.4068 9.35316 15.5617 9.04982 15.8144 9.09772ZM18.1188 10.3856C16.791 10.5798 14.0343 10.963 14.0343 10.963L14.2206 10.8779L18.1986 10.2366C18.2412 10.2313 18.2811 10.2419 18.3157 10.2632C18.345 10.359 18.172 10.375 18.1161 10.3829L18.1188 10.3856ZM19.3002 14.0976C19.2869 14.2386 19.2576 14.3876 19.1273 14.4594C19.0208 14.4727 18.8692 14.51 18.784 14.4461C18.7334 14.3477 18.8133 14.2492 18.8558 14.1561C18.957 14.0364 19.106 13.9991 19.2576 13.9991C19.2869 14.023 19.3029 14.0603 19.3002 14.0976ZM7.52573 9.66981C7.68804 9.02055 6.57845 8.89017 6.16335 8.80236C6.0782 8.78373 5.55932 8.68528 5.63383 8.54691C5.64181 8.53095 5.83872 8.35533 5.88395 8.29147L5.83606 8.23559C5.6764 8.22228 4.52157 8.49636 4.32467 8.5682C4.27943 8.58949 4.24218 8.6294 4.22621 8.67996C4.34329 8.86356 4.16501 9.03652 4.20492 9.22278C4.23153 9.3505 4.72646 9.31857 4.48964 9.56072L4.11445 9.60861C3.94682 9.53677 4.16235 9.36913 3.9681 9.32656C3.81377 9.38243 3.56897 9.43299 3.48648 9.59531C3.4173 9.73634 3.4173 9.97848 3.50777 10.1115C3.67274 10.3537 3.98673 10.4282 4.26613 10.3803C4.69719 10.3031 5.14954 10.2313 5.57263 10.1115C5.73228 9.89865 6.04095 9.96251 6.26712 9.89067C6.45605 9.96251 5.78284 10.4867 5.70301 10.5931C5.58859 10.7741 5.50078 10.9683 5.4449 11.1759C5.39435 11.4739 5.57529 11.8331 5.84936 11.9688C6.09416 12.0886 6.31236 12.0247 6.54386 11.9342C6.74076 11.8597 7.34745 11.7001 7.40599 11.4872C7.35011 11.3302 6.32832 11.5138 6.1261 11.3755C6.0303 11.3116 6.17399 11.1573 6.20326 11.0854C6.33897 10.7501 7.44058 9.97316 7.51775 9.66715L7.52573 9.66981ZM2.40882 15.8883C2.37422 15.7766 1.68771 15.9016 1.65046 16.032C1.59458 16.2236 2.16667 16.4791 2.40882 15.8883ZM0.873476 17.0671C0.913389 17.099 0.955964 17.1283 1.0012 17.1523C1.14755 17.2294 1.28592 17.3678 1.38171 17.2427C1.43227 17.1789 1.70102 16.7212 1.75157 16.5482C1.77286 16.4791 1.72496 16.3779 1.55733 16.3726H1.52274C1.08635 16.4152 0.947981 16.7877 0.870815 17.0698L0.873476 17.0671ZM48.6819 16.0294C48.6446 15.899 47.9581 15.7766 47.9235 15.8857C48.1683 16.4737 48.7378 16.221 48.6819 16.0294ZM48.5781 16.5456C48.6287 16.7185 48.8974 17.1762 48.948 17.2401C49.0464 17.3651 49.1821 17.2268 49.3285 17.1496C49.3737 17.1257 49.419 17.099 49.4589 17.0671C49.3817 16.7851 49.2433 16.4125 48.807 16.37H48.7724C48.6047 16.3753 48.5568 16.4764 48.5781 16.5456Z" fill="#DD0741"/>
<path d="M39.5504 21.3564V16.942H38.7176V21.3564C38.7176 22.9263 38.534 23.2936 38.1641 23.9322C35.3462 28.1071 30.5725 30.3875 25.1656 30.3875C19.7586 30.3875 14.9876 28.1071 12.1671 23.9322C11.7972 23.2962 11.6136 22.9263 11.6136 21.3564V16.9287H10.7808V21.3538C10.7808 23.0221 10.983 23.5437 11.446 24.3419L11.4753 24.3898C14.5566 28.9506 19.6762 31.2097 25.1656 31.2097C30.655 31.2097 35.7746 28.948 38.8559 24.3872L38.8852 24.3393C39.3482 23.5437 39.5504 23.0195 39.5504 21.3511V21.3564ZM18.8965 8.90872C19.2132 8.21954 19.5671 7.549 19.9582 6.89974C19.3489 7.49046 18.846 8.17697 18.4708 8.93533C18.5506 9.00185 18.6304 9.07103 18.7102 9.14554C18.7714 9.06571 18.8327 8.98855 18.8992 8.90872H18.8965ZM31.7833 26.2738L33.1669 25.4143L32.8556 24.922L31.9908 25.4595L30.7482 21.5959L30.4501 21.1223L29.0665 21.9817L29.3778 22.474L30.2453 21.9365L31.4879 25.8001L31.7859 26.2738H31.7833ZM31.1021 9.63781C30.3756 9.14022 29.2927 8.60804 29.2927 8.60804C28.5237 9.68038 27.8824 11.0028 27.8824 11.0028C28.2602 11.7852 28.827 12.6686 29.1383 13.2167C29.5587 12.6074 29.729 12.0353 29.9898 11.2131C30.1787 10.617 30.4368 10.2924 31.0967 9.64047L31.1021 9.63781ZM24.6973 11.0321C24.6973 11.0321 23.7686 9.56862 22.7947 8.47499C22.7947 8.47499 20.7458 9.3797 19.9901 9.76819L19.9582 10.3217C19.9689 10.3589 20.2376 10.7447 20.3547 11.1625L20.5862 11.8863C20.6128 11.9688 20.6394 12.0433 20.6394 12.0433C20.69 12.1923 20.7618 12.3759 20.847 12.5675C20.9241 12.7457 21.0146 12.916 21.113 13.0837C21.1902 13.2141 21.2887 13.3338 21.4057 13.4349L21.4164 13.4429C21.5202 13.5307 21.6426 13.5946 21.7729 13.6318C22.1268 13.7303 22.526 13.8314 22.9597 13.9352C22.9597 13.9352 24.2529 11.8969 24.7026 11.0321H24.6973ZM25.1656 4.79763C24.3487 4.79763 23.5398 4.93067 22.7655 5.19144L24.1837 6.29837C24.1837 6.29837 25.9133 6.13606 27.4673 6.33297C27.6349 6.06421 27.7653 5.77418 27.8584 5.47083C29.5055 6.24516 30.7987 7.60488 31.4746 9.28125C31.6023 9.15884 31.7327 9.04443 31.8604 8.93533C30.6125 6.40215 28.0128 4.79496 25.1656 4.79496V4.79763ZM34.7821 24.2195L35.1999 23.8098L31.6156 20.2362L31.5943 20.2149L31.1766 20.6247L34.7608 24.1983L34.7821 24.2195ZM35.0748 20.3133L36.4931 21.1994L36.2483 21.5853L32.9115 19.5044L33.1563 19.1186L33.6033 19.398L33.9173 18.9084L33.6273 18.7274C33.3798 18.5731 33.0685 18.5625 32.8104 18.6955C32.5523 18.8286 32.3846 19.0893 32.374 19.3794C32.3633 19.6694 32.507 19.9408 32.7545 20.0951L35.7746 21.9764C36.1551 22.2132 36.6607 22.1015 36.9002 21.7236C37.1397 21.3458 37.0252 20.8482 36.6447 20.6087L34.8885 19.5124L34.4548 20.1936L34.9524 20.5049L35.0721 20.316L35.0748 20.3133ZM29.0691 27.3567L28.4066 25.2121L28.8776 25.071C29.0186 25.0285 29.1383 24.9327 29.2075 24.8049C29.2767 24.6772 29.29 24.5255 29.2474 24.3845L28.7392 22.7401C28.6673 22.5086 28.4545 22.3516 28.2097 22.3516C28.1538 22.3516 28.1006 22.3596 28.0474 22.3755L27.0176 22.6842L28.505 27.4978L28.5157 27.527L29.0745 27.3567H29.0691ZM28.2336 24.6586L27.744 23.0727L28.1831 22.9397L28.6727 24.5282L28.2336 24.6613V24.6586ZM26.693 27.8251L26.2512 22.7773L25.6658 22.8279L26.1076 27.8756L26.693 27.8251ZM24.4817 27.3328L23.4413 27.2104L23.6382 25.5633L24.4179 25.6564L24.4871 25.079L23.7074 24.9859L23.9043 23.3361L24.9447 23.4612L25.0139 22.8838L23.9416 22.7587C23.6382 22.7241 23.3615 22.9397 23.3269 23.2403L22.8559 27.1785C22.8213 27.4791 23.0369 27.7506 23.3402 27.7878L24.4126 27.9129L24.4791 27.3355L24.4817 27.3328ZM25.1656 19.5364C27.9196 19.5364 30.4501 18.0329 31.7433 15.6275H31.7354C31.589 15.5849 31.3708 15.4998 31.1154 15.4013L31.0781 15.388C30.4289 16.5455 29.4683 17.5008 28.3055 18.15L27.7121 16.4976L24.4871 16.5828L23.2231 18.3363C23.2231 18.3363 23.75 18.7301 24.6999 19.0601C23.1992 19.0468 21.741 18.5678 20.5303 17.6897C20.5676 17.6578 20.6021 17.6258 20.6367 17.5886C20.6367 17.5886 19.764 16.3433 19.2291 15.396L19.2158 15.4013C18.963 15.4998 18.7448 15.5849 18.5958 15.6248H18.5878C19.881 18.033 22.4116 19.539 25.1656 19.5364ZM21.7064 26.8938L20.7166 26.5585L22.196 22.3197L21.6426 22.1307L19.9715 26.9177L21.5148 27.4446L21.7064 26.8964V26.8938ZM18.2153 23.1206C18.2393 23.1233 18.2632 23.1259 18.2872 23.1259C18.4149 23.1259 18.524 23.07 18.6304 22.9476L19.6762 21.7476C19.7719 21.6385 19.8225 21.4948 19.8119 21.3484C19.8012 21.2021 19.732 21.069 19.6203 20.9732L18.8034 20.2761L15.4613 24.1131L16.2755 24.8076C16.3873 24.9034 16.531 24.9513 16.68 24.9407C16.829 24.93 16.9647 24.8608 17.0605 24.7491L18.0636 23.5969C18.2233 23.4133 18.2739 23.2643 18.2206 23.1179L18.2153 23.1206ZM17.7576 23.0913L17.7443 23.1073L16.6347 24.3792L16.2542 24.0546L17.3771 22.764L17.7576 23.0887V23.0913ZM18.1115 22.6523L17.763 22.3543L18.8593 21.0956L19.2078 21.391L18.1115 22.6496V22.6523ZM15.581 20.7497L15.8445 21.1223L14.3224 22.176C14.2133 22.2611 14.1282 22.3702 14.0696 22.4926L14.0617 22.5086L14.4129 23.0035L14.4368 22.9556C14.4927 22.8385 14.5486 22.7294 14.6604 22.6523L16.0414 21.697C16.2409 21.5586 16.3261 21.4229 16.3128 21.2686C16.3633 21.2899 16.4192 21.3005 16.4751 21.3032C16.5762 21.3005 16.6747 21.2633 16.7545 21.2021L18.0636 20.2947C18.1834 20.2122 18.2659 20.0845 18.2925 19.9408C18.3191 19.7971 18.2845 19.6481 18.1994 19.531L17.582 18.6556L13.3858 21.5613L13.7211 22.0376L15.581 20.7524V20.7497ZM16.0307 20.4091L16.0493 20.3958L17.441 19.4326L17.7284 19.8397L17.7097 19.853L16.3181 20.8163L16.0307 20.4091ZM38.7176 8.42443L39.5504 8.8076V0.792969H10.7808V8.80228L11.6136 8.41379V1.61785H38.7149V8.42177L38.7176 8.42443Z" fill="#001F47"/>
</svg>
