<svg width="44" height="34" viewBox="0 0 44 34" fill="none" xmlns="http://www.w3.org/2000/svg">
<path fill-rule="evenodd" clip-rule="evenodd" d="M7.93834 29.6142L7.75928 26.1889L8.45502 26.1523L8.60364 28.9951L10.3336 28.9044L10.3641 29.4867L7.93834 29.6142Z" fill="black"/>
<path fill-rule="evenodd" clip-rule="evenodd" d="M11.8185 28.8758L12.4597 29.0657C12.3458 29.2957 12.1911 29.4626 11.9937 29.5657C11.7973 29.6697 11.5625 29.7039 11.2896 29.6706C10.8582 29.6173 10.5565 29.4376 10.3837 29.1293C10.2479 28.883 10.2008 28.5867 10.243 28.2421C10.2935 27.8298 10.4408 27.5202 10.6846 27.3136C10.9277 27.1066 11.2139 27.0233 11.5424 27.0639C11.9116 27.1093 12.1877 27.2674 12.3715 27.5384C12.5544 27.8093 12.6108 28.1956 12.5402 28.6988L10.8952 28.4967C10.876 28.6918 10.9099 28.8503 10.998 28.9708C11.0862 29.0919 11.2062 29.162 11.3568 29.1805C11.4597 29.1933 11.5492 29.176 11.6263 29.1286C11.7035 29.0797 11.7682 28.996 11.8185 28.8758ZM11.9373 28.2155C11.9561 28.0238 11.9252 27.8731 11.844 27.7626C11.7628 27.6521 11.6548 27.5883 11.5208 27.5718C11.4539 27.5621 11.3857 27.5672 11.321 27.5868C11.2563 27.6065 11.1968 27.6402 11.1467 27.6855C11.0407 27.7779 10.9771 27.9146 10.9565 28.0946L11.9373 28.2155ZM13.6486 30.0361L13.2758 27.3616L13.9493 27.5299L14.0974 28.8844L14.127 29.3318C14.1883 29.2348 14.2282 29.171 14.2451 29.1397C14.2839 29.0763 14.3239 29.0132 14.3647 28.9511L15.1348 27.8262L15.7952 27.9908L14.2262 30.18L13.6486 30.0361ZM17.1583 30.1938L17.762 30.4822C17.6134 30.6915 17.4345 30.832 17.2237 30.9028C17.0132 30.9745 16.776 30.9716 16.5119 30.8958C16.0942 30.7756 15.8243 30.551 15.7018 30.2193C15.6062 29.9545 15.606 29.6545 15.7014 29.3212C15.8155 28.922 16.0092 28.6395 16.2825 28.4732C16.555 28.3068 16.8506 28.2698 17.1686 28.3609C17.5263 28.4635 17.7744 28.6631 17.9135 28.9595C18.0518 29.2554 18.047 29.6462 17.8991 30.132L16.3058 29.6739C16.2564 29.8643 16.2652 30.026 16.3335 30.1584C16.4016 30.2919 16.5092 30.3798 16.6551 30.4218C16.7546 30.4504 16.8459 30.4473 16.9293 30.4125C17.013 30.3774 17.0897 30.3047 17.1583 30.1938ZM17.3788 29.5603C17.4271 29.374 17.4201 29.2202 17.3572 29.0986C17.3287 29.0405 17.2881 28.9891 17.2382 28.9479C17.1883 28.9066 17.1303 28.8764 17.0678 28.8593C17.0033 28.8391 16.9351 28.8334 16.8682 28.8427C16.8012 28.852 16.7372 28.876 16.6806 28.913C16.5615 28.9874 16.4772 29.1126 16.4289 29.2869L17.3788 29.5603ZM19.1221 31.4928L18.4731 31.3661L18.9501 28.9078L19.5527 29.0251L19.485 29.3744C19.6203 29.2294 19.7344 29.1388 19.8267 29.1022C19.921 29.0661 20.0238 29.0577 20.1228 29.0781C20.271 29.1072 20.4049 29.176 20.5262 29.2847L20.2152 29.8124C20.1201 29.7208 20.0251 29.6654 19.9313 29.6473C19.8397 29.6293 19.7586 29.639 19.6857 29.6773C19.6122 29.7148 19.5457 29.7957 19.4839 29.92C19.4223 30.0443 19.3508 30.3156 19.2696 30.7335L19.1221 31.4928ZM20.7152 31.7549L20.7757 28.2971L21.4376 28.3088L21.4056 30.1435L22.1945 29.2754L23.0093 29.2899L22.1392 30.1893L23.0264 31.7952L22.3138 31.7826L21.7044 30.6471L21.3914 30.9646L21.3772 31.7664L20.7152 31.7549ZM25.5496 31.3487L25.4783 30.9804C25.4139 31.1292 25.3134 31.2596 25.1858 31.3597C25.0546 31.4633 24.9084 31.5311 24.7467 31.5627C24.5816 31.595 24.4274 31.5868 24.2824 31.5406C24.1432 31.4976 24.0222 31.4097 23.9384 31.2905C23.8543 31.1703 23.79 30.9946 23.7452 30.7628L23.4434 29.2076L24.0922 29.081L24.3117 30.2105C24.3787 30.5566 24.4319 30.7659 24.4716 30.8395C24.5099 30.9125 24.5654 30.9655 24.6371 30.9994C24.7093 31.0327 24.7939 31.039 24.8913 31.0201C24.9979 31.001 25.0959 30.9489 25.1714 30.8713C25.2472 30.7928 25.2925 30.7062 25.3076 30.6096C25.322 30.5122 25.2957 30.288 25.2275 29.9362L25.0261 28.8993L25.6754 28.7727L26.1524 31.2314L25.5496 31.3487ZM26.5904 30.3555L27.2004 30.0749C27.2629 30.1908 27.345 30.2696 27.4467 30.3097C27.5475 30.3503 27.6727 30.3494 27.8224 30.3065C27.9871 30.259 28.1021 30.1933 28.1673 30.1088C28.1885 30.0818 28.2028 30.05 28.209 30.0163C28.2152 29.9825 28.2131 29.9478 28.2029 29.915C28.1973 29.8927 28.1873 29.8717 28.1736 29.8533C28.1598 29.8348 28.1426 29.8192 28.1228 29.8075C28.0822 29.7863 28.0035 29.7788 27.8863 29.7849C27.3414 29.8187 26.9864 29.8086 26.822 29.7545C26.5947 29.6791 26.4481 29.5253 26.382 29.2937C26.322 29.0858 26.3538 28.8866 26.4776 28.6976C26.6014 28.5077 26.8362 28.3634 27.181 28.2642C27.5105 28.1695 27.7708 28.1537 27.9611 28.2143C28.1519 28.2759 28.3069 28.4033 28.4271 28.5962L27.8596 28.879C27.8073 28.7926 27.7381 28.7349 27.6517 28.7058C27.5653 28.6762 27.4566 28.6807 27.324 28.7191C27.1562 28.7671 27.043 28.8248 26.9839 28.8927C26.9456 28.9399 26.9341 28.9901 26.9492 29.0429C26.9625 29.0883 26.9941 29.1205 27.0457 29.1399C27.115 29.1658 27.3299 29.169 27.691 29.1487C28.0513 29.1284 28.3148 29.1548 28.4812 29.2285C28.6463 29.3039 28.7579 29.443 28.8159 29.6448C28.8788 29.8656 28.8414 30.0821 28.7022 30.2941C28.564 30.5057 28.3145 30.6624 27.9539 30.7659C27.6267 30.8602 27.3486 30.8681 27.1193 30.7896C26.8908 30.7127 26.7147 30.5668 26.5904 30.3555ZM30.8515 29.0977L31.5188 29.0567C31.4902 29.3117 31.4015 29.5215 31.2513 29.6861C31.1025 29.8512 30.8932 29.964 30.6255 30.0258C30.2022 30.1241 29.8574 30.0585 29.5894 29.8275C29.3779 29.6426 29.2326 29.3805 29.1546 29.0427C29.0612 28.6379 29.0937 28.2964 29.2525 28.0186C29.4101 27.7407 29.6512 27.5644 29.9735 27.4895C30.3359 27.4058 30.6492 27.46 30.9144 27.6512C31.1787 27.8429 31.3636 28.1868 31.469 28.6837L29.8542 29.0576C29.9031 29.2479 29.9891 29.3848 30.1126 29.4676C30.1715 29.5084 30.2384 29.5362 30.3089 29.5489C30.3794 29.5617 30.4519 29.5592 30.5213 29.5416C30.6221 29.5181 30.7006 29.4712 30.757 29.4006C30.8131 29.3291 30.8449 29.2283 30.8515 29.0977ZM30.7378 28.4367C30.6898 28.2504 30.6093 28.1196 30.4956 28.0434C30.4424 28.0064 30.382 27.9812 30.3184 27.9694C30.2547 27.9576 30.1893 27.9595 30.1264 27.9751C30.0601 27.9888 29.9977 28.017 29.9437 28.0577C29.8896 28.0983 29.8452 28.1504 29.8136 28.2103C29.7457 28.3332 29.7326 28.4834 29.7748 28.6595L30.7378 28.4367Z" fill="black"/>
<path fill-rule="evenodd" clip-rule="evenodd" d="M22.1058 6.42456C19.3431 6.42456 17.0714 7.72719 17.0714 7.70126C17.0714 7.67532 15.244 2.95034 15.1346 2.6222C15.1346 2.6222 18.4514 1.0327 22.1207 1.00271L22.0939 1C25.7632 1.02999 29.0773 2.6222 29.0773 2.6222C28.9676 2.95034 27.14 7.67532 27.14 7.70126C27.14 7.72719 24.868 6.42456 22.1058 6.42456ZM22.102 27.6474C20.0308 27.577 18.8853 27.1519 17.0259 26.4616C14.4506 25.5164 8.83501 24.4661 5.89146 25.3741C5.59309 25.4661 5.57008 25.6731 5.67337 25.9722C5.81297 26.3756 6.76379 29.7445 6.97037 30.4351C7.07366 30.8029 7.16026 31.0778 7.67063 30.9637C12.6177 29.8598 14.753 33 22.1018 33C29.4509 33 31.5855 29.8598 36.5336 30.9637C37.0437 31.0778 37.1303 30.8029 37.2336 30.4351C37.4402 29.7445 38.3912 26.3756 38.5308 25.9722C38.6339 25.6731 38.6109 25.4661 38.3123 25.3741C35.369 24.4663 29.7538 25.5164 27.1783 26.4616C25.3186 27.1519 24.173 27.5768 22.102 27.6474Z" fill="#FFF22D" stroke="black" stroke-width="0.3" stroke-miterlimit="2.613" stroke-linecap="round" stroke-linejoin="round"/>
<path fill-rule="evenodd" clip-rule="evenodd" d="M6.46552 11.5481C6.46552 11.6521 6.39854 12.2071 6.2118 12.478C6.02462 12.7488 5.224 14.2596 4.94435 14.652C4.31514 15.5347 3.97031 16.1928 4.12389 16.9774C4.12389 16.9774 2.56258 17.1919 1.97689 15.5873C1.49968 14.2806 2.51319 12.8061 3.0213 12.0515C4.06232 10.5055 3.5055 8.47333 3.47821 8.45529C3.47821 8.45529 3.92768 8.2805 3.97031 7.59739C3.99218 7.24895 3.87423 6.86172 3.52715 6.49953C3.18593 6.14388 2.69 6.06246 2.19204 6.08547C1.7764 6.10464 1.45908 6.33805 1.20853 6.48329C0.958193 6.6283 0.96744 6.76813 1.05923 6.81684C1.15102 6.86533 1.34068 7.14273 1.47262 7.3112C1.60455 7.48034 1.61357 7.61137 1.68213 7.91605C1.77099 8.31117 2.30796 8.52317 2.71571 8.50197C2.71571 8.50197 3.34763 10.1986 2.28609 11.8104C1.87834 12.429 0.718234 13.8855 1.14425 15.5961C1.79354 18.2041 4.49916 17.8631 4.49916 17.8631C4.71494 18.0851 4.92593 18.3117 5.13199 18.5428C5.11147 18.6889 5.62386 19.7223 4.34581 20.6808C3.92881 20.9936 3.81605 21.409 4.2998 21.7622C7.60555 24.1778 6.76096 24.9412 7.33018 24.9985C7.47971 25.0133 7.80446 24.9601 8.12583 24.7605C8.60801 25.1209 9.28571 25.0388 9.50312 24.8142C10.5362 25.3128 10.8272 24.5535 10.6648 24.2375C10.6648 24.2375 11.7606 23.8476 10.824 22.7962C10.5338 22.4703 9.96341 22.3715 9.67294 22.4311C9.34277 22.4981 7.47903 21.1357 7.71966 20.7744C7.89986 20.5035 8.92013 20.084 9.2609 19.8283C9.55499 19.6073 10.2426 18.9769 10.2516 18.3461C10.262 17.6515 10.0162 16.7625 8.56245 16.6829C8.6389 16.1466 8.721 15.1076 9.90974 14.2477C10.5674 13.7718 11.1434 12.773 11.1641 12.6063C11.9142 12.6063 13.1826 10.0207 13.4512 9.54953C13.5452 9.3849 14.1257 8.29381 14.1257 8.29381C14.5447 8.29674 15.1742 7.97469 15.1742 7.97469C15.1742 7.97469 16.1737 8.63503 16.2914 7.63708C17.0575 7.93319 16.874 6.87503 16.5057 6.64026C16.5057 6.64026 16.5668 5.96571 16.1232 5.78146C15.7227 5.61547 15.549 5.72012 15.1751 5.84506C14.8009 5.97 14.0689 6.4312 13.7365 6.68108C13.9505 5.79409 14.5671 4.98874 14.5671 4.98874C14.5671 4.98874 14.8986 5.26004 15.2346 5.01197C15.3363 4.93687 15.5582 4.80155 15.7711 4.75396C15.8715 4.73164 16.3986 4.12497 16.1277 3.93012C15.7614 3.66581 15.5422 3.62476 15.5422 3.62476C15.5167 3.39315 15.3749 3.14417 15.4498 2.94413C15.5246 2.74454 15.9089 2.48405 15.9058 2.26552C15.8997 1.82259 15.3122 1.85529 14.9599 2.08533C14.5312 1.59458 14.1178 2.03932 14.1178 2.03932C13.4291 1.87063 13.0899 2.71274 13.0326 2.98495C12.6749 2.87579 12.1706 2.73394 11.9661 2.73394C11.6339 2.73394 11.4467 2.60899 11.4467 2.60899L10.969 2.27589L10.1587 2.19268C10.1587 2.19268 10.1932 1.93219 10.1172 1.7971C10.0101 1.60744 9.82629 1.65141 9.61859 1.54722C9.4111 1.44325 9.18242 1.29734 9.26564 1.1309C9.34841 0.964465 9.09153 1.02288 8.86308 1.08535C8.63439 1.14759 8.57982 1.19337 8.49682 1.29734C8.4136 1.40131 8.59403 1.72088 8.59403 1.72088C8.59403 1.72088 8.28889 1.71343 8.18515 1.71343C8.08141 1.71343 7.8525 1.79688 7.70726 1.81763C7.56157 1.8386 7.32522 1.74636 7.32522 1.66269C7.32522 1.5797 7.3365 1.42769 7.34416 1.41258C7.39558 1.3129 7.06293 1.42206 6.8347 1.60947C6.60579 1.79688 6.54355 2.08848 6.62677 2.19245C6.70999 2.29664 6.8347 2.5048 6.8347 2.5048C6.8347 2.5048 6.79276 2.56727 6.66827 2.69221C6.54355 2.81715 6.54355 2.98359 6.54355 2.98359C6.54355 2.98359 6.22939 2.97299 6.15249 2.8573C6.10648 2.78784 6.15745 2.65523 6.09498 2.52984C6.05664 2.45271 5.67212 2.79956 5.57605 3.03073C5.51944 3.16649 5.58823 3.40014 5.65047 3.54583C5.71294 3.69152 5.96215 3.75399 5.96215 3.75399C5.96215 3.75399 5.8999 3.89968 5.85841 4.12858C5.81691 4.35749 5.79593 4.52415 5.83743 4.69082C5.87915 4.85726 5.76819 4.93799 5.5465 4.94047C5.37533 4.94273 5.16988 4.65902 5.1144 4.64887C5.04178 4.63534 4.88368 4.96551 4.88368 5.1112C4.88368 5.25689 4.97164 5.54127 5.15138 5.66915C5.26505 5.74989 5.53455 5.65156 5.59522 5.70839C5.6516 5.76161 5.61168 6.08321 5.55913 6.3146C5.5226 6.4754 5.60897 6.71017 5.50501 6.81436C5.40104 6.91833 5.31805 6.98103 5.17258 6.9393C5.02689 6.89758 4.9315 6.77084 4.86474 6.76791C4.8167 6.76588 4.70755 7.04282 4.74905 7.23023C4.79077 7.41764 4.84828 7.57348 5.09771 7.63595C5.34669 7.69842 5.5129 7.58927 5.5659 7.6682C5.60288 7.72323 5.63671 8.14384 5.79571 8.37613C5.91682 8.55271 5.81894 8.69118 5.6525 8.73313C5.48651 8.77463 5.27971 8.66232 5.19311 8.6675C5.14935 8.67021 5.14259 9.13479 5.24655 9.25973C5.35052 9.38467 5.45336 9.58178 5.71723 9.58178C5.98222 9.58178 6.12994 9.34836 6.15903 9.58201C6.16918 9.66275 6.22759 10.3371 6.12633 10.6397C6.06521 10.8238 5.85435 10.9311 5.61371 10.893C5.3963 10.8589 6.00409 11.5901 6.46552 11.5481Z" fill="#CF4037" stroke="black" stroke-width="0.3" stroke-miterlimit="2.613" stroke-linecap="round" stroke-linejoin="round"/>
<path d="M15.728 7.15601C15.8525 7.25997 16.2095 7.3556 16.2555 7.59713" stroke="black" stroke-width="0.3" stroke-miterlimit="2.613" stroke-linecap="round" stroke-linejoin="round"/>
<path fill-rule="evenodd" clip-rule="evenodd" d="M10.7401 3.19618C10.7401 3.19618 10.4675 2.91089 10.3509 2.91089C10.3105 2.91089 10.1682 3.13687 10.08 3.29902C9.9916 3.46162 10.7401 3.19618 10.7401 3.19618Z" fill="black" stroke="black" stroke-width="0.3" stroke-miterlimit="2.613" stroke-linecap="round" stroke-linejoin="round"/>
<path d="M9.02352 23.8486C9.36339 24.167 9.58824 24.6339 9.50299 24.7834M10.0636 23.4548C10.4425 23.6772 10.6649 24.2376 10.6649 24.2376M12.1434 8.11009C12.2472 8.00589 13.4034 6.93059 13.7361 6.68093M15.9081 6.50209C16.1077 6.50209 16.5049 6.64011 16.5049 6.64011M14.6975 2.69478C14.7891 2.34115 14.8213 2.38671 15.0771 2.0527M14.1581 2.01685C13.9582 2.2744 13.9788 2.53195 13.9788 2.53195M7.74863 16.7457C7.74863 16.7457 8.10563 16.6638 8.56187 16.6828M6.46539 11.548C6.97057 11.502 7.07566 11.0223 7.13204 10.7208C7.1661 10.5379 7.43402 10.0672 7.54746 10.076C7.63316 10.083 7.91484 10.2916 7.83207 10.5207C7.74885 10.7499 7.64737 11.0085 7.66789 11.2582C7.68864 11.5083 7.77524 12.064 8.21704 12.1666C8.49083 12.23 8.90895 12.0383 8.85596 11.9745C8.74928 11.8464 8.59141 11.7374 8.61216 11.4041C8.63291 11.0712 8.88189 10.2832 9.0357 10.2785C9.09321 10.2767 9.27047 10.4143 9.33272 10.5597C9.39519 10.7054 9.30656 11.1872 9.36903 11.4161C9.43104 11.6452 9.44751 11.9515 9.5932 12.1046C9.74092 12.2595 9.95832 12.3743 10.3237 12.2972C10.6146 12.2356 10.7474 12.1337 10.7817 11.8948C10.8011 11.7577 10.5041 11.8152 10.4004 11.5029C10.2964 11.1905 10.3009 11.0451 10.3219 10.8577C10.3426 10.6705 10.291 10.2009 10.3521 10.1946C10.7479 10.1527 10.8952 10.0365 11.0199 10.3696C11.1448 10.7027 10.9915 10.7886 11.1635 11.103C11.2995 11.3513 11.3663 11.5151 11.7817 11.3901C12.2183 11.2586 12.2713 10.8225 12.2713 10.8225C12.2713 10.8225 11.9416 10.7708 11.9096 10.4666C11.8877 10.2584 12.1051 10.0735 12.1258 9.8446C12.1466 9.61547 12.1897 9.46955 12.0072 9.21381C11.8618 9.00971 12.5151 9.73003 12.9118 9.05707C13.0076 8.89469 13.092 8.36718 13.0284 8.24021C12.9217 8.02845 12.8178 8.43868 12.4438 8.29276C12.0699 8.14707 11.9247 7.91794 11.883 7.52237C11.8415 7.1268 11.7167 6.7522 11.613 6.62726C11.509 6.50232 11.3013 6.37738 11.3013 6.37738C11.3013 6.37738 10.1378 6.39948 9.88841 6.29551C9.63921 6.19132 9.21499 5.72245 9.04788 5.72245C8.93669 5.72245 8.18479 5.37785 8.08105 5.12819C7.97708 4.87831 7.87334 4.50349 7.97708 4.35757C8.08105 4.21188 8.21682 3.5538 8.21682 3.5538C8.21682 3.5538 7.91461 3.35827 7.83185 3.15011C7.74863 2.94195 7.77749 2.68034 7.96445 2.57615C8.15141 2.47218 8.57969 2.48391 8.68343 2.50488C8.68343 2.50488 9.11982 2.23403 9.26551 2.19253C9.41097 2.15081 10.1076 2.18351 10.1076 2.18351M8.1257 24.7604C7.8756 24.4257 7.54385 23.8006 7.395 23.557C7.03687 22.9715 6.23468 22.3042 5.60794 21.8696C4.81206 21.3177 4.88265 21.1321 5.62328 20.5045C5.94059 20.2359 6.28136 19.1087 5.13141 18.5427M11.1635 12.6062C10.4973 12.7313 10.2594 12.3371 10.093 12.3371M13.0325 2.9848C13.2564 3.05313 13.4231 3.10839 13.4231 3.10839C13.4231 3.10839 13.4697 3.33617 13.4697 3.50283C13.4697 3.66949 13.2237 3.99605 13.2237 3.99605C13.2237 3.99605 13.2255 4.73442 13.1008 4.85937C12.9761 4.98408 12.7345 4.87944 12.4856 4.90041C12.2361 4.92139 11.3246 4.93424 11.3246 4.93424L11.3221 5.59728L12.7566 5.59232C12.8254 5.67306 12.4646 6.20733 12.3193 6.24905C12.1739 6.291 11.2495 6.37061 11.2495 6.37061M4.12354 16.9771C4.16932 17.1767 4.49881 17.8629 4.49881 17.8629" stroke="black" stroke-width="0.3" stroke-miterlimit="2.613" stroke-linecap="round" stroke-linejoin="round"/>
<path fill-rule="evenodd" clip-rule="evenodd" d="M37.7277 11.5481C37.7277 11.6521 37.7947 12.2071 37.9819 12.478C38.1686 12.7488 38.9695 14.2596 39.2487 14.652C39.8781 15.5347 40.2225 16.1928 40.0694 16.9774C40.0694 16.9774 41.6304 17.1919 42.2166 15.5873C42.6931 14.2806 41.6796 12.8061 41.1713 12.0515C40.1305 10.5055 40.6875 8.47333 40.715 8.45529C40.715 8.45529 40.2653 8.2805 40.2225 7.59739C40.2008 7.24895 40.3186 6.86172 40.6661 6.49953C41.0071 6.14388 41.503 6.06246 42.0012 6.08547C42.4166 6.10464 42.7342 6.33805 42.9847 6.48329C43.2353 6.6283 43.2251 6.76813 43.134 6.81684C43.042 6.86533 42.8521 7.14273 42.7204 7.3112C42.5887 7.48034 42.5799 7.61137 42.5111 7.91605C42.422 8.31117 41.8848 8.52317 41.4769 8.50197C41.4769 8.50197 40.8452 10.1986 41.9067 11.8104C42.3142 12.429 43.4748 13.8855 43.0488 15.5961C42.399 18.2041 39.6936 17.8631 39.6936 17.8631C39.4778 18.0851 39.2668 18.3118 39.0606 18.5428C39.0813 18.6889 38.5694 19.7223 39.8472 20.6808C40.2635 20.9936 40.3763 21.409 39.893 21.7622C36.5868 24.1778 37.4316 24.9412 36.8624 24.9985C36.7126 25.0133 36.3879 24.9601 36.0665 24.7605C35.5841 25.1209 34.9066 25.0388 34.6888 24.8142C33.6563 25.3128 33.3652 24.5535 33.5278 24.2375C33.5278 24.2375 32.432 23.8476 33.3688 22.7962C33.659 22.4703 34.2294 22.3715 34.5199 22.4311C34.8503 22.4981 36.714 21.1357 36.4734 20.7744C36.2927 20.5035 35.2727 20.084 34.9321 19.8283C34.6378 19.6073 33.9502 18.9769 33.9409 18.3461C33.9303 17.6515 34.1762 16.7625 35.6301 16.6829C35.5539 16.1466 35.472 15.1076 34.2831 14.2477C33.6254 13.7718 33.0492 12.773 33.0287 12.6063C32.2786 12.6063 31.0105 10.0207 30.7412 9.54953C30.6478 9.3849 30.0673 8.29381 30.0673 8.29381C29.6485 8.29674 29.0186 7.97469 29.0186 7.97469C29.0186 7.97469 28.0191 8.63503 27.9016 7.63708C27.1357 7.93319 27.3193 6.87503 27.6871 6.64026C27.6871 6.64026 27.626 5.96571 28.0698 5.78146C28.4706 5.61547 28.6438 5.72012 29.0182 5.84506C29.3921 5.97 30.1242 6.4312 30.4564 6.68108C30.2423 5.79409 29.6255 4.98874 29.6255 4.98874C29.6255 4.98874 29.2942 5.26004 28.9582 5.01197C28.8565 4.93687 28.6343 4.80155 28.4217 4.75396C28.3218 4.73164 27.794 4.12497 28.0653 3.93012C28.4314 3.66581 28.6503 3.62476 28.6503 3.62476C28.6763 3.39315 28.8181 3.14417 28.7433 2.94413C28.6684 2.74454 28.2843 2.48405 28.287 2.26552C28.2931 1.82259 28.8808 1.85529 29.2331 2.08533C29.6616 1.59458 30.0748 2.03932 30.0748 2.03932C30.7633 1.87063 31.1029 2.71274 31.16 2.98495C31.5177 2.87579 32.0215 2.73394 32.226 2.73394C32.5587 2.73394 32.7459 2.60899 32.7459 2.60899L33.2233 2.27589L34.0339 2.19268C34.0339 2.19268 33.9991 1.93219 34.0754 1.7971C34.1825 1.60744 34.3661 1.65141 34.574 1.54722C34.7815 1.44325 35.0102 1.29734 34.9272 1.1309C34.8442 0.964465 35.1008 1.02288 35.3293 1.08535C35.558 1.14759 35.6125 1.19337 35.6958 1.29734C35.779 1.40131 35.5983 1.72088 35.5983 1.72088C35.5983 1.72088 35.9032 1.71343 36.0074 1.71343C36.1109 1.71343 36.3396 1.79688 36.4849 1.81763C36.6303 1.8386 36.8671 1.74636 36.8671 1.66269C36.8671 1.5797 36.8552 1.42769 36.8477 1.41258C36.7965 1.3129 37.1287 1.42206 37.3574 1.60947C37.5861 1.79688 37.6481 2.08848 37.5654 2.19245C37.4821 2.29664 37.3574 2.5048 37.3574 2.5048C37.3574 2.5048 37.3989 2.56727 37.5234 2.69221C37.6481 2.81715 37.6481 2.98359 37.6481 2.98359C37.6481 2.98359 37.9627 2.97299 38.0392 2.8573C38.0859 2.78784 38.0347 2.65523 38.0969 2.52984C38.1357 2.45271 38.5202 2.79956 38.6163 3.03073C38.6731 3.16649 38.6039 3.40014 38.5419 3.54583C38.4794 3.69152 38.23 3.75399 38.23 3.75399C38.23 3.75399 38.2925 3.89968 38.3339 4.12858C38.3759 4.35749 38.396 4.52415 38.3547 4.69082C38.3134 4.85748 38.4239 4.93799 38.6458 4.94047C38.8172 4.94273 39.0225 4.65902 39.078 4.64887C39.1501 4.63534 39.3082 4.96551 39.3082 5.1112C39.3082 5.25689 39.2205 5.54127 39.0403 5.66915C38.9266 5.74989 38.6571 5.65156 38.5967 5.70839C38.5403 5.76161 38.5804 6.08321 38.6328 6.3146C38.6693 6.4754 38.5829 6.71017 38.6864 6.81436C38.7904 6.91833 38.8736 6.98103 39.0195 6.9393C39.165 6.89758 39.26 6.77084 39.3269 6.76791C39.375 6.76588 39.4841 7.04282 39.4424 7.23023C39.4009 7.41764 39.3436 7.57348 39.0944 7.63595C38.8452 7.69842 38.679 7.58927 38.6258 7.6682C38.5888 7.72323 38.555 8.14384 38.3957 8.37613C38.2746 8.55271 38.3727 8.69118 38.5389 8.73313C38.7054 8.77463 38.912 8.66232 38.9983 8.6675C39.0423 8.67021 39.0491 9.13479 38.9451 9.25973C38.8416 9.38467 38.7385 9.58178 38.4742 9.58178C38.2095 9.58178 38.0615 9.34836 38.0324 9.58201C38.0227 9.66275 37.9641 10.3371 38.0653 10.6397C38.1262 10.8238 38.3371 10.9311 38.578 10.893C38.7967 10.8589 38.1887 11.5901 37.7277 11.5481Z" fill="#CF4037" stroke="black" stroke-width="0.3" stroke-miterlimit="2.613" stroke-linecap="round" stroke-linejoin="round"/>
<circle cx="22" cy="17" r="10" fill="white"/>
<path d="M28.4653 7.15601C28.3406 7.25997 27.9833 7.3556 27.938 7.59713" stroke="black" stroke-width="0.3" stroke-miterlimit="2.613" stroke-linecap="round" stroke-linejoin="round"/>
<path fill-rule="evenodd" clip-rule="evenodd" d="M33.4531 3.19618C33.4531 3.19618 33.7253 2.91089 33.8422 2.91089C33.8823 2.91089 34.0246 3.13687 34.1126 3.29902C34.2016 3.46162 33.4531 3.19618 33.4531 3.19618Z" fill="black" stroke="black" stroke-width="0.3" stroke-miterlimit="2.613" stroke-linecap="round" stroke-linejoin="round"/>
<path d="M35.169 23.8486C34.8289 24.167 34.6043 24.6339 34.6889 24.7834M34.1289 23.4548C33.7496 23.6772 33.5277 24.2376 33.5277 24.2376M32.0491 8.11009C31.9456 8.00589 30.7889 6.93059 30.4565 6.68093M28.2842 6.50209C28.0842 6.50209 27.687 6.64011 27.687 6.64011M29.4948 2.69478C29.4033 2.34115 29.3715 2.38671 29.1159 2.0527M30.0338 2.01685C30.2339 2.2744 30.2131 2.53195 30.2131 2.53195M36.4433 16.7457C36.4433 16.7457 36.0865 16.6638 35.6302 16.6828M32.8908 6.37738C32.8908 6.37738 32.6833 6.50232 32.5793 6.62726C32.4754 6.7522 32.3511 7.1268 32.3094 7.52237C32.2674 7.91794 32.1222 8.14707 31.7483 8.29276C31.3743 8.43868 31.2704 8.02845 31.1642 8.24021C31.0999 8.36718 31.1845 8.89469 31.2805 9.05707C31.677 9.73003 32.3306 9.00971 32.1849 9.21381C32.0029 9.46955 32.0457 9.61547 32.0665 9.8446C32.0872 10.0735 32.3044 10.2584 32.2828 10.4666C32.2505 10.7708 31.921 10.8225 31.921 10.8225C31.921 10.8225 31.9738 11.2586 32.4109 11.3901C32.8267 11.5151 32.8928 11.3513 33.0288 11.103C33.2011 10.7886 33.0477 10.7027 33.1725 10.3696C33.2972 10.0365 33.4442 10.1527 33.8402 10.1946C33.9011 10.2009 33.8495 10.6705 33.8707 10.8577C33.8914 11.0451 33.8962 11.1905 33.7922 11.5029C33.6878 11.8152 33.391 11.7577 33.4108 11.8948C33.4447 12.1337 33.5773 12.2356 33.8684 12.2972C34.2336 12.3743 34.4516 12.2595 34.5987 12.1046C34.7444 11.9515 34.7608 11.6452 34.8233 11.4161C34.8853 11.1872 34.7969 10.7054 34.8594 10.5597C34.9219 10.4143 35.0987 10.2767 35.1566 10.2785C35.31 10.2832 35.5592 11.0712 35.5799 11.4041C35.6007 11.7374 35.4426 11.8464 35.3364 11.9745C35.2836 12.0383 35.7015 12.23 35.9751 12.1666C36.4173 12.064 36.5041 11.5083 36.5249 11.2582C36.5452 11.0085 36.4435 10.7499 36.3605 10.5207C36.2777 10.2916 36.5596 10.083 36.6456 10.076C36.7588 10.0672 37.0265 10.5379 37.061 10.7208C37.1173 11.0223 37.2227 11.502 37.7274 11.548M36.0666 24.7604C36.3167 24.4257 36.6485 23.8006 36.7978 23.557C37.1555 22.9715 37.9577 22.3042 38.5844 21.8696C39.3798 21.3177 39.3095 21.1321 38.5695 20.5045C38.2515 20.2359 37.9114 19.1087 39.0607 18.5427M33.0288 12.6062C33.6952 12.7313 33.9332 12.3371 34.0991 12.3371M31.1601 2.9848C30.9355 3.05313 30.769 3.10839 30.769 3.10839C30.769 3.10839 30.7224 3.33617 30.7224 3.50283C30.7224 3.66949 30.9686 3.99605 30.9686 3.99605C30.9686 3.99605 30.9673 4.73442 31.092 4.85937C31.2163 4.98408 31.4576 4.87944 31.707 4.90041C31.9562 4.92139 32.868 4.93424 32.868 4.93424L32.8707 5.59728L31.4361 5.59232M31.4359 5.59232C31.3667 5.67306 31.7275 6.20733 31.873 6.24905C32.0185 6.29077 32.9429 6.37061 32.9429 6.37061" stroke="black" stroke-width="0.3" stroke-miterlimit="2.613" stroke-linecap="round" stroke-linejoin="round"/>
<path d="M32.8911 6.37744C32.8911 6.37744 34.0548 6.39954 34.3043 6.29558C34.5535 6.19138 34.9777 5.72252 35.1448 5.72252C35.2562 5.72252 36.0081 5.37791 36.1116 5.12826C36.2156 4.87838 36.3195 4.50355 36.2156 4.35764C36.1116 4.21195 35.9761 3.55387 35.9761 3.55387C35.9761 3.55387 36.2783 3.35834 36.361 3.15018C36.4438 2.94202 36.4156 2.68041 36.2284 2.57622C36.0417 2.47225 35.613 2.48398 35.5092 2.50495C35.5092 2.50495 35.0731 2.23409 34.9278 2.1926C34.7821 2.15087 34.0857 2.18358 34.0857 2.18358M40.0691 16.9771C40.0229 17.1767 39.6939 17.863 39.6939 17.863" stroke="black" stroke-width="0.3" stroke-miterlimit="2.613" stroke-linecap="round" stroke-linejoin="round"/>
<path fill-rule="evenodd" clip-rule="evenodd" d="M19.1788 5.47338L18.619 5.64974L18.0557 3.85682L17.3622 4.07558L17.2294 3.65294C17.6222 3.53793 17.9384 3.29052 17.8651 2.84917L18.3103 2.70867L19.1788 5.47338ZM19.9756 4.51828C20.0417 4.70524 20.2137 4.84642 20.414 4.81575C20.8346 4.75125 20.8603 4.18157 20.8281 3.85997L20.8186 3.85321C20.6939 4.10264 20.4997 4.22893 20.2219 4.27133C19.9767 4.30877 19.7101 4.23232 19.5191 4.07738C19.3412 3.9247 19.2354 3.6976 19.2011 3.47275C19.112 2.88728 19.4458 2.36294 20.0421 2.2716C20.9081 2.13899 21.2563 2.86045 21.3668 3.58483C21.4735 4.28486 21.285 5.13058 20.4722 5.25507C19.9781 5.33062 19.566 5.09653 19.4239 4.60286L19.9756 4.51828ZM20.6745 3.20911C20.6337 2.94299 20.4217 2.70326 20.1316 2.74768C19.854 2.79031 19.7352 3.08079 19.7746 3.33856C19.8159 3.60897 19.9959 3.85749 20.2942 3.81194C20.6046 3.76413 20.7176 3.49147 20.6745 3.20911ZM23.0425 2.15252C23.6192 2.19763 24.0768 2.59884 23.9895 3.72601C23.9002 4.87755 23.3855 5.2032 22.8091 5.1581C22.2405 5.11367 21.7827 4.71246 21.8722 3.5607C21.9595 2.43375 22.4735 2.10855 23.0425 2.15252ZM22.8465 4.67525C23.3244 4.71246 23.3794 4.00657 23.4047 3.68046C23.4281 3.37916 23.4827 2.67326 23.0053 2.63605C22.5353 2.59951 22.4803 3.30518 22.4568 3.60671C22.4315 3.93259 22.377 4.63849 22.8465 4.67525ZM25.4114 4.90574L24.2321 4.58098L24.3744 4.06182L26.0325 2.76663L26.5386 2.906L26.0774 4.58662L26.4479 4.68901L26.3198 5.15584L25.9493 5.05391L25.7723 5.70071L25.2344 5.55254L25.4114 4.90574ZM25.8061 3.46846L25.7937 3.46485L24.8066 4.23638L25.5395 4.43845L25.8061 3.46846ZM8.20361 26.1128L8.96002 26.0868L9.05497 28.8971L10.4965 28.8513L10.5182 29.4891L8.32021 29.5599L8.20361 26.1128ZM11.3826 28.5006C11.3427 28.9345 11.5263 29.1596 11.9036 29.211C12.176 29.2485 12.4185 29.1107 12.4825 28.9634L13.0795 29.0453C12.8086 29.603 12.3688 29.7963 11.81 29.7196C11.0312 29.6129 10.6219 29.0108 10.7263 28.2449C10.8276 27.5031 11.4158 27.0081 12.1656 27.1112C13.0064 27.2266 13.3156 27.9903 13.164 28.7444L11.3826 28.5006ZM12.5447 28.2214C12.5296 27.8683 12.4063 27.6655 12.0768 27.6211C11.6469 27.562 11.4769 27.88 11.4415 28.0703L12.5447 28.2214ZM14.7299 30.2868L13.994 30.0904L13.8104 27.4567L14.5046 27.6416L14.5747 29.4253L14.5839 29.4278L15.5296 27.9152L16.1865 28.0902L14.7299 30.2868ZM16.8205 29.767C16.7228 30.1907 16.8744 30.4388 17.2415 30.541C17.5061 30.6145 17.765 30.511 17.8482 30.3736L18.4287 30.5353C18.0857 31.0516 17.6236 31.1837 17.0801 31.0326C16.3232 30.8215 15.9984 30.1697 16.2048 29.4253C16.4048 28.7034 17.0541 28.2929 17.7835 28.4959C18.601 28.7237 18.8047 29.5223 18.5532 30.2489L16.8205 29.767ZM18.0094 29.6468C18.0422 29.2945 17.9472 29.0778 17.6267 28.9882C17.2086 28.8719 16.9975 29.1644 16.9364 29.3482L18.0094 29.6468ZM19.5054 29.004L20.1479 29.1066L20.0753 29.5647L20.0847 29.566C20.2579 29.2758 20.6251 29.1141 20.9537 29.1666C21.0013 29.1741 21.057 29.1925 21.0976 29.2142L20.9977 29.8441C20.9203 29.8153 20.8402 29.7944 20.7586 29.7816C20.2633 29.7027 20.0351 30.0326 19.9661 30.467L19.7895 31.5793L19.1134 31.471L19.5054 29.004ZM21.55 28.3588L22.2335 28.3227L22.3298 30.1704L23.1447 29.228L23.9538 29.1851L23.0628 30.1515L24.19 31.6742L23.3618 31.7175L22.6201 30.6391L22.3686 30.9088L22.4135 31.7676L21.7299 31.8035L21.55 28.3588ZM27.3284 30.9106L26.6971 31.0696L26.6126 30.7322L26.5986 30.7358C26.4987 31.0504 26.2413 31.2543 25.9612 31.3242C25.2551 31.5021 24.9773 31.149 24.8275 30.5489L24.4536 29.0588L25.1178 28.8919L25.4608 30.26C25.5603 30.6582 25.7265 30.8256 26.0357 30.748C26.3956 30.6578 26.4991 30.4171 26.3758 29.9253L26.0578 28.6558L26.7215 28.4885L27.3284 30.9106ZM28.3662 29.7442C28.4522 30.0306 28.7266 30.0784 28.986 30.0044C29.1763 29.9508 29.396 29.8076 29.3304 29.5755C29.274 29.3754 28.9806 29.3838 28.4786 29.4156C28.0746 29.4397 27.6563 29.4133 27.5368 28.9905C27.3629 28.3768 27.8469 28.0685 28.3617 27.9224C28.8859 27.7735 29.4185 27.8132 29.6359 28.3888L29.0101 28.5663C28.9195 28.3162 28.7045 28.3015 28.468 28.3689C28.3196 28.4113 28.1098 28.5011 28.1648 28.6962C28.2318 28.9336 28.6123 28.8606 29.0128 28.8419C29.4224 28.8207 29.8378 28.8538 29.9643 29.2994C30.1432 29.9316 29.6538 30.2913 29.1062 30.4474C28.5494 30.6055 27.9481 30.5504 27.7397 29.9214L28.3662 29.7442ZM31.0448 28.7692C31.1377 29.1943 31.3804 29.3533 31.7561 29.2882C32.0265 29.241 32.2164 29.0367 32.2326 28.8768L32.8265 28.7737C32.7371 29.3874 32.3759 29.7054 31.8204 29.8019C31.0455 29.9368 30.4738 29.4866 30.3421 28.725C30.2144 27.9873 30.6253 27.3376 31.3709 27.2075C32.2069 27.062 32.7324 27.6969 32.8165 28.4618L31.0448 28.7692ZM32.0676 28.1504C31.9465 27.8182 31.7681 27.6628 31.4408 27.7205C31.0128 27.7945 30.9474 28.149 30.9708 28.3412L32.0676 28.1504ZM33.4994 26.9937L34.1501 27.0095L34.1417 27.357L34.1562 27.3574C34.3363 27.0816 34.6385 26.954 34.9279 26.9605C35.6552 26.9786 35.8286 27.3935 35.8138 28.0115L35.7763 29.5475L35.0919 29.5308L35.1261 28.1204C35.1363 27.7099 35.0204 27.5047 34.7024 27.4966C34.3312 27.4874 34.1672 27.6908 34.1548 28.1982L34.123 29.5069L33.439 29.4902L33.4994 26.9937ZM11.3844 16.9889C11.3844 11.0574 16.1829 6.24874 22.1018 6.24874C28.021 6.24874 32.8195 11.0574 32.8195 16.9889C32.8195 22.9202 28.021 27.7284 22.1018 27.7284C16.1829 27.7284 11.3844 22.9202 11.3844 16.9889ZM22.1018 27.0282C27.6355 27.0282 32.1208 22.5335 32.1208 16.9889C32.1208 11.4442 27.6353 6.94922 22.1018 6.94922C16.569 6.94922 12.0833 11.4442 12.0833 16.9889C12.0833 22.5335 16.569 27.0282 22.1018 27.0282Z" fill="black"/>
<path fill-rule="evenodd" clip-rule="evenodd" d="M20.0265 14.8858L21.6208 11.5275H22.561L24.2017 14.8894H23.3684L23.0998 14.3292H21.1244L20.8262 14.8858H20.0265ZM21.4604 13.5868H22.7441L22.0998 12.2745L21.4604 13.5868ZM21.077 19.8783H23.6942V19.1386H20.3382V22.4955H23.6911V21.7578H21.0657V21.1881H23.6924V20.4482H21.077V19.8783ZM23.8774 10.0619C23.8774 10.6137 23.4211 11.0672 22.9523 11.0672H20.3317V7.70557H22.858C23.3183 7.70557 23.779 7.98635 23.779 8.7193C23.779 8.89251 23.6839 9.21456 23.5028 9.37941C23.717 9.53615 23.8774 9.80656 23.8774 10.0619ZM22.7617 8.45115H21.0718V9.00662H22.7761C23.1374 9.00685 23.1286 8.45115 22.7617 8.45115L22.8851 9.74747H21.0761V10.3266H22.8783C23.273 10.3266 23.2851 9.74747 22.8851 9.74747L22.7617 8.45115ZM16.4091 17.656C16.4091 18.2078 15.9529 18.6611 15.484 18.6611H12.77V15.2995H15.3897C15.8502 15.2995 16.3103 15.5802 16.3103 16.3134C16.3103 16.4864 16.2156 16.8087 16.0345 16.9733C16.2483 17.13 16.4091 17.4004 16.4091 17.656ZM15.2932 16.0455H13.51V16.601H15.3076C15.6691 16.601 15.6601 16.0455 15.2932 16.0455L15.4163 17.342H13.514V17.9207H15.4098C15.8045 17.9207 15.8162 17.342 15.4163 17.342L15.2932 16.0455ZM16.5167 18.658L18.1109 15.2997H19.0513L20.692 18.6618H19.8585L19.5899 18.1016H17.6148L17.3164 18.658H16.5167ZM17.9508 17.3592H19.2347L18.5904 16.0468L17.9508 17.3592ZM31.4061 16.363C31.4074 16.9189 31.0515 17.4255 30.522 17.4264L31.4185 18.6598L30.5031 18.6634L29.624 17.4455H28.7898V18.6591H28.0559V15.3015H30.5173C31.047 15.301 31.4056 15.7661 31.4061 16.363ZM30.3251 16.0378H28.7895V16.6977H30.3369C30.7816 16.6977 30.7816 16.0378 30.3251 16.0378ZM19.7845 15.3024H20.8122L22.0084 16.6686L23.2071 15.3024H24.2409L22.3785 17.3596V18.6602H21.6388V17.3565L19.7845 15.3024ZM25.088 16.0401H27.3243V15.3004H24.3492V18.6577H27.3207V17.9198H25.0769V17.3499H27.3225V16.6104H25.088V16.0401ZM23.7824 24.0293C23.7833 24.5852 23.4274 25.0922 22.8984 25.0927L23.7944 26.3265L22.8794 26.3297L22.0003 25.1123H21.073V26.3258H20.3391V22.9678H22.8929C23.4234 22.9673 23.782 23.4323 23.7824 24.0293ZM22.7015 23.7041H21.073V24.364H22.713C23.1577 24.364 23.1577 23.7041 22.7015 23.7041Z" fill="black"/>
</svg>
