<svg width="24" height="32" viewBox="0 0 24 32" fill="none" xmlns="http://www.w3.org/2000/svg">
<path fill-rule="evenodd" clip-rule="evenodd" d="M11.9205 32.0001C6.79723 30.2756 2.92209 26.9898 1.11605 22.5062H6.697C6.33952 21.998 6.03849 21.4589 5.80655 20.882H0.570599C0.424078 20.3495 0.306852 19.8094 0.219449 19.2641H5.32387C5.22607 18.7281 5.17365 18.1847 5.1672 17.6399H0.0376305C0.0124051 17.2684 -0.000145148 16.8962 1.26631e-06 16.5238C1.26631e-06 16.3545 0.00632995 16.1852 0.00632995 16.022H5.2298C5.26127 15.652 5.31138 15.2947 5.37399 14.9436C5.40546 14.7618 5.44309 14.5798 5.48072 14.3979H0.0689314C0.231935 11.8959 0.714788 9.81418 1.58642 7.70078C4.48354 7.63184 5.43676 7.15515 6.60942 6.56574C7.93877 5.90107 9.08629 5.18628 11.9206 5.18628C14.7552 5.18628 15.9027 5.90124 17.2322 6.56574C18.4047 7.15515 19.3579 7.63184 22.2549 7.70078C23.1265 9.81401 23.6095 11.8959 23.7725 14.3979H18.3606C18.3984 14.5798 18.436 14.7616 18.4671 14.9436C18.5299 15.2947 18.58 15.6522 18.6115 16.022H23.8349C23.8349 16.185 23.8413 16.3543 23.8413 16.5238C23.8413 16.9 23.829 17.2764 23.8035 17.6399H18.6743C18.6676 18.1847 18.6152 18.728 18.5176 19.2641H23.6218C23.5344 19.8094 23.4172 20.3495 23.2707 20.882H18.0346C17.8028 21.4589 17.5018 21.998 17.1443 22.5062H22.7252C20.9192 26.9898 17.0437 30.2756 11.9205 32.0001Z" fill="#438765"/>
<path fill-rule="evenodd" clip-rule="evenodd" d="M23.2709 20.882C23.1162 21.4321 22.9342 21.9742 22.7254 22.5062H17.1445C17.5019 21.998 17.803 21.4589 18.0347 20.882H23.2709ZM18.6744 17.6398C18.6678 18.1847 18.6154 18.728 18.5178 19.2641H23.622C23.7099 18.7373 23.7664 18.1916 23.8037 17.6398H18.6744ZM18.3607 14.3979C18.3985 14.5797 18.4362 14.7615 18.4673 14.9435C18.5301 15.2947 18.5802 15.6522 18.6117 16.022H23.8351C23.8291 15.4577 23.8102 14.9184 23.7727 14.3979H18.3607ZM5.22981 16.022C5.26129 15.652 5.3114 15.2947 5.374 14.9435C5.40548 14.7617 5.44311 14.5797 5.48073 14.3979H0.0689494C0.0313201 14.9184 0.0125052 15.4577 0.00634766 16.022H5.22981ZM5.32389 19.2641C5.22608 18.728 5.17367 18.1847 5.16721 17.6398H0.0376485C0.0752779 18.1918 0.131722 18.7373 0.219467 19.2641H5.32389ZM6.69719 22.5062C6.33971 21.998 6.03867 21.4589 5.80674 20.882H0.570788C0.725275 21.4322 0.907323 21.9743 1.11624 22.5062H6.69719ZM11.9709 25.7794H11.8705C9.91416 25.1146 8.29626 24.0298 7.18004 22.5874C6.1141 21.2016 5.51204 19.4837 5.51204 17.5083C5.51204 16.5802 5.57464 15.7651 5.71267 15.0063C5.84724 14.2582 6.06164 13.5266 6.3522 12.8241L6.39615 12.7237C6.97308 12.7049 7.56249 12.6798 8.1206 12.5293C8.51571 12.4227 8.87302 12.2407 9.23683 12.0589C9.88268 11.7266 10.5224 11.4004 11.9207 11.4004C13.3193 11.4004 13.9588 11.7266 14.6045 12.0589C14.9683 12.2407 15.3258 12.4225 15.7209 12.5293C16.2792 12.6798 16.8684 12.7049 17.4453 12.7237L17.4891 12.8241C17.7797 13.5266 17.9942 14.2581 18.1288 15.0063C18.2668 15.7651 18.3293 16.5804 18.3293 17.5083C18.3293 19.4837 17.7272 21.2018 16.6613 22.5874C15.5452 24.0298 13.9273 25.1146 11.9709 25.7794Z" fill="white"/>
<path fill-rule="evenodd" clip-rule="evenodd" d="M11.9206 25.4346C13.7832 24.7949 15.3257 23.7539 16.3853 22.3741C17.4076 21.0513 17.9845 19.4079 17.9845 17.5081C17.9845 16.5989 17.9281 15.8025 17.7901 15.0626C17.6649 14.3664 17.4767 13.7206 17.2131 13.062C16.5045 13.0371 16.0155 12.968 15.633 12.8614C15.2128 12.7485 14.8367 12.5604 14.4477 12.3661C13.8397 12.0526 13.2378 11.7454 11.9206 11.7454C10.6037 11.7454 10.0018 12.0526 9.39358 12.3661C9.0048 12.5606 8.62851 12.7485 8.20843 12.8614C7.82598 12.968 7.33679 13.0371 6.62816 13.062C6.36476 13.7206 6.17661 14.3664 6.05124 15.0626C5.91321 15.8025 5.85693 16.5987 5.85693 17.5081C5.85693 19.4079 6.43386 21.0513 7.45601 22.3741C8.51562 23.7539 10.0583 24.7949 11.9206 25.4346Z" fill="#438765"/>
<path fill-rule="evenodd" clip-rule="evenodd" d="M4.62765 11.2814C4.80314 11.4131 4.88473 11.6074 4.85958 11.8708C4.83461 12.1342 4.70924 12.4227 4.47713 12.7424C4.34543 12.9242 4.22006 13.0748 4.09468 13.1876C3.96931 13.3069 3.91919 13.3506 3.79365 13.4384L3.33594 13.1562C3.5116 13.0559 3.62449 12.987 3.79365 12.8553C3.93534 12.7494 4.06008 12.6225 4.16361 12.479C4.19626 12.4353 4.22559 12.3891 4.25136 12.341C4.28916 12.2784 4.31413 12.2281 4.32662 12.1841C4.34543 12.134 4.35159 12.0839 4.35159 12.0399C4.35159 11.996 4.33277 11.9584 4.28899 11.9271C4.24503 11.8958 4.20107 11.8958 4.13847 11.9146C4.08203 11.9334 4.01942 11.9773 3.94416 12.0463C3.86891 12.1152 3.78749 12.1968 3.7059 12.2784C3.62432 12.3598 3.54906 12.4289 3.46764 12.4978C3.27949 12.6483 3.11649 12.7298 2.97846 12.7549C2.83427 12.7737 2.69624 12.7361 2.57719 12.6483C2.40786 12.523 2.33876 12.3348 2.3639 12.0776C2.39538 11.8142 2.51442 11.5384 2.72138 11.2499C2.82794 11.1057 2.94716 10.9677 3.07253 10.8423C3.16837 10.7452 3.27103 10.6551 3.37972 10.5727L3.71839 10.8989C3.47363 11.0368 3.22305 11.2626 3.0662 11.4758C3.02857 11.5198 2.99727 11.5699 2.97213 11.62C2.94083 11.6701 2.91569 11.7203 2.9032 11.7769C2.88439 11.827 2.87823 11.871 2.88439 11.9149C2.89054 11.9589 2.90936 11.9965 2.94083 12.0216C2.98462 12.0529 3.04106 12.0593 3.09768 12.0341C3.15412 12.0028 3.23554 11.9401 3.34842 11.8273C3.41753 11.7584 3.49261 11.6893 3.55539 11.6267C3.62432 11.5578 3.69957 11.495 3.78116 11.4261C3.95049 11.288 4.10101 11.2066 4.23887 11.1815C4.37673 11.156 4.50228 11.1936 4.62765 11.2814ZM5.85043 8.92355C5.74046 8.89089 5.62402 8.88659 5.51194 8.91106C5.41154 8.92988 5.30498 8.97384 5.19825 9.03011C5.09169 9.08655 4.97264 9.1743 4.84094 9.28719L3.95682 10.0271L5.38024 11.7266L5.89439 11.2939L5.43035 10.7421L5.78766 10.441C5.94451 10.3093 6.05739 10.1901 6.12633 10.0647C6.20141 9.9457 6.2517 9.82015 6.27684 9.68229C6.30182 9.58206 6.29566 9.48166 6.26436 9.38126C6.23884 9.28416 6.19164 9.1941 6.12633 9.11785C6.04474 9.01762 5.95084 8.95485 5.85043 8.92355ZM5.67477 9.72625C5.68743 9.77021 5.68743 9.82032 5.67477 9.87677C5.65596 9.93937 5.62466 9.99581 5.56804 10.0586C5.50293 10.1315 5.43162 10.1986 5.35492 10.2592L5.16045 10.4222L4.73404 9.91423L4.86591 9.80134C4.95366 9.72608 5.02892 9.66964 5.0792 9.62568C5.13565 9.58189 5.19825 9.55059 5.27351 9.51912C5.32362 9.5003 5.38007 9.49415 5.44284 9.5003C5.50544 9.50663 5.55573 9.53793 5.59319 9.58189C5.63714 9.63201 5.66246 9.68229 5.67477 9.72625ZM8.47782 7.70077C8.1643 7.60669 7.80066 7.65065 7.39289 7.81981C6.97914 7.99547 6.69692 8.22741 6.54641 8.51595C6.39589 8.81066 6.38956 9.11785 6.52759 9.44403C6.66545 9.77021 6.89123 9.977 7.20475 10.0712C7.51827 10.1653 7.88191 10.1214 8.29583 9.94587C8.70975 9.77038 8.99197 9.53828 9.14249 9.2499C9.29301 8.96152 9.29934 8.65416 9.1613 8.32798C9.02344 7.99547 8.79767 7.78851 8.47782 7.70077ZM8.37759 9.41273C8.30866 9.46917 8.22074 9.52562 8.133 9.56325C8.04531 9.60082 7.95216 9.62409 7.8571 9.63218C7.76936 9.63851 7.68161 9.63218 7.60003 9.60088C7.51501 9.56717 7.43807 9.51587 7.37425 9.45036C7.29899 9.38143 7.23639 9.28736 7.1861 9.16181C7.13599 9.04277 7.11102 8.93621 7.11102 8.82948C7.11102 8.72275 7.1235 8.62884 7.16113 8.55358C7.20509 8.47217 7.25521 8.40307 7.31798 8.34679C7.38691 8.29668 7.47482 8.24006 7.55624 8.20876C7.64251 8.17209 7.73318 8.14679 7.82598 8.1335C7.91287 8.1281 8.00002 8.13877 8.08305 8.16498C8.16464 8.19645 8.23973 8.24656 8.31498 8.31549C8.39007 8.38442 8.44669 8.48482 8.50313 8.60404C8.54709 8.71693 8.57839 8.82349 8.57839 8.92389C8.58455 9.01796 8.56573 9.11204 8.5281 9.20611C8.4968 9.28719 8.44019 9.35629 8.37759 9.41273ZM11.4629 8.35928C11.6322 8.27769 11.7576 8.17746 11.8391 8.0644C11.9206 7.95784 11.952 7.81981 11.9394 7.65681C11.9269 7.53776 11.8954 7.44369 11.8328 7.36826C11.7639 7.293 11.676 7.23656 11.5694 7.1991C11.4629 7.15514 11.3561 7.13633 11.2371 7.13C11.1179 7.12367 10.98 7.13 10.8233 7.14248L9.66314 7.24306L9.85745 9.45652L10.5096 9.39374L10.4407 8.58488L10.7857 8.55358C11.1055 8.79817 11.3501 9.04892 11.488 9.31233L12.2529 9.26837C12.0519 8.92355 11.8516 8.6037 11.4629 8.35928ZM11.2058 7.93903C11.187 7.97666 11.1557 8.01429 11.1117 8.05192C11.0616 8.08955 10.9988 8.11469 10.9236 8.12717C10.8546 8.14582 10.7606 8.15848 10.6477 8.1648L10.4094 8.18978L10.353 7.59404L10.6352 7.56906C10.7168 7.56273 10.792 7.55641 10.8546 7.55641C10.9174 7.55025 10.9738 7.55641 11.024 7.56906C11.0929 7.58788 11.143 7.61302 11.1745 7.65065C11.2059 7.68828 11.2246 7.73224 11.2309 7.78868C11.2369 7.84017 11.2282 7.89231 11.2058 7.93903ZM14.6105 7.27436L12.2218 7.02344L12.1713 7.48132L13.0493 7.57539L12.8611 9.31866L13.5072 9.38759L13.689 7.63799L14.5604 7.73207L14.6105 7.27436ZM15.821 7.65681L15.194 7.47499L14.5792 9.60703L15.2126 9.78252L15.821 7.65681ZM19.1256 9.29984L18.5739 8.97366L17.834 10.115L17.2567 8.27136L16.6675 8.0018L15.7581 10.021L16.3227 10.2655L16.8746 9.06158L17.4326 10.8674L17.9153 11.1998L19.1256 9.29984ZM20.6369 12.6295L20.054 11.7203L19.7276 11.9587L19.9407 12.2972L19.6211 12.523C19.4266 12.3035 19.1257 11.852 19.1384 11.5509C19.1444 11.3441 19.2513 11.1685 19.4457 11.0241C19.5311 10.9545 19.6323 10.9071 19.7405 10.8861C19.8407 10.8673 19.9349 10.8673 20.0288 10.8924C20.236 10.9489 20.4304 11.1244 20.5556 11.2875C20.6184 11.3753 20.6685 11.463 20.7123 11.5509C20.8002 11.7516 20.863 12.0651 20.9005 12.3285L21.3207 12.015C21.2583 11.808 21.189 11.5509 21.1139 11.4066C21.0323 11.2624 20.9446 11.1119 20.8317 10.9738C20.5495 10.5914 20.2425 10.3593 19.9163 10.2779C19.5899 10.1963 19.2889 10.2529 19.013 10.4597C18.7246 10.6791 18.5745 10.955 18.568 11.2874C18.568 11.6197 18.6997 11.9708 18.9819 12.3408C19.1008 12.5038 19.2388 12.6482 19.3895 12.786C19.5398 12.9241 19.7593 13.1372 19.8658 13.2124L20.6369 12.6295ZM5.73755 25.6915C5.6811 25.7543 5.6185 25.7981 5.54307 25.8296C5.4676 25.8603 5.38608 25.8732 5.30481 25.8674C5.19371 25.8625 5.08481 25.8347 4.98496 25.7858C4.87823 25.7416 4.77167 25.6606 4.65262 25.5537L4.37057 25.2904L3.97547 25.7107L3.59284 25.3532L4.80314 24.0613L5.4868 24.6694C5.5732 24.7488 5.65095 24.8372 5.71873 24.933C5.81896 25.0647 5.89422 25.2904 5.86292 25.4534C5.85043 25.5408 5.80648 25.6164 5.73755 25.6915ZM5.31747 25.3217C5.35509 25.2839 5.37391 25.2401 5.37391 25.19C5.3741 25.1434 5.36105 25.0977 5.33628 25.0582C5.31114 25.0017 5.27351 24.9579 5.23605 24.9201C5.19825 24.8763 5.14198 24.8262 5.07287 24.7635L4.95999 24.6569L4.59618 25.0457L4.75935 25.196C4.82828 25.2588 4.89106 25.3089 4.94117 25.3467C4.99129 25.3845 5.04157 25.4032 5.09169 25.4091C5.13565 25.4155 5.17961 25.4155 5.21706 25.3968C5.24854 25.3845 5.28599 25.3592 5.31747 25.3217ZM7.68144 27.0525C7.53726 27.2968 7.34278 27.441 7.0857 27.4851C6.82863 27.5289 6.54641 27.4664 6.24537 27.2906C5.94434 27.1148 5.7437 26.9018 5.65596 26.6572C5.56804 26.4186 5.59319 26.1746 5.73755 25.93C5.87558 25.679 6.07604 25.5347 6.33329 25.4911C6.58404 25.4469 6.86625 25.516 7.16729 25.6852C7.46832 25.8609 7.66896 26.074 7.7567 26.3126C7.85078 26.5568 7.8258 26.8016 7.68144 27.0525ZM6.8223 27.0712C6.8914 27.0525 6.96033 27.0147 7.02293 26.9646C7.07937 26.9145 7.13582 26.8517 7.18593 26.7638C7.23622 26.6699 7.26752 26.5821 7.28001 26.5065C7.29208 26.4334 7.28782 26.3584 7.26752 26.2871C7.24884 26.2227 7.21678 26.163 7.17345 26.1118C7.12295 26.0607 7.06603 26.0165 7.00412 25.9801C6.9441 25.9442 6.87838 25.9188 6.80981 25.905C6.74428 25.886 6.67471 25.886 6.60918 25.905C6.54025 25.9173 6.47748 25.9488 6.40855 26.0052C6.34577 26.0553 6.2895 26.1244 6.23288 26.2183C6.18277 26.3063 6.1513 26.394 6.13898 26.4693C6.12691 26.5424 6.13117 26.6174 6.15147 26.6887C6.17028 26.7511 6.20158 26.8139 6.24554 26.8644C6.29566 26.9145 6.3521 26.9646 6.41487 26.9961C6.47765 27.0335 6.55291 27.0648 6.62184 27.0777C6.68444 27.09 6.75337 27.09 6.8223 27.0712ZM9.6693 28.4884L9.04226 28.2876C9.01712 28.0181 8.87908 27.7548 8.70359 27.4916L8.43403 27.4037L8.2334 28.0244L7.7254 27.8614L8.27086 26.1747L9.16763 26.4631C9.29301 26.5009 9.39341 26.5447 9.47482 26.5823C9.56274 26.6261 9.63783 26.6762 9.7006 26.739C9.76953 26.8018 9.81349 26.8707 9.83863 26.9458C9.8636 27.0212 9.8636 27.1028 9.83863 27.1907C9.79467 27.3159 9.72574 27.4102 9.63167 27.4603C9.53144 27.5167 9.41222 27.5479 9.26171 27.5605C9.43737 27.8049 9.5754 28.1121 9.6693 28.4884ZM9.28052 27.0712C9.29191 27.0325 9.29408 26.9916 9.28685 26.9519C9.27436 26.9145 9.24289 26.8769 9.19893 26.8454C9.16763 26.8204 9.12384 26.8016 9.07989 26.783C9.02977 26.764 8.97333 26.7452 8.91055 26.7202L8.68495 26.6511L8.53443 27.1028L8.73506 27.1652C8.81665 27.197 8.89191 27.2157 8.95451 27.228C9.01096 27.2407 9.0674 27.2407 9.11136 27.228C9.15515 27.2157 9.19295 27.1969 9.21792 27.1779C9.24854 27.149 9.27026 27.112 9.28052 27.0712ZM11.9204 26.8391L10.008 26.6761L9.97666 27.0399L10.6851 27.1026L10.5661 28.5011L11.0551 28.5449L11.1743 27.1464L11.8893 27.2092L11.9204 26.8391ZM14.1215 26.6259L13.5761 26.6824L13.67 27.7924C13.6826 27.9242 13.6577 28.0179 13.5949 28.0808C13.5385 28.1436 13.4196 28.1811 13.2815 28.1937C13.1372 28.2064 13.0116 28.1874 12.9429 28.1373C12.8738 28.0808 12.8363 27.9929 12.824 27.8677L12.7298 26.7703L12.1903 26.8078L12.2845 27.943C12.3035 28.1624 12.4038 28.3191 12.5733 28.4197C12.7486 28.5262 12.9932 28.5637 13.3132 28.5325C13.6265 28.5072 13.8651 28.426 14.0153 28.2939C14.172 28.1622 14.2348 27.9929 14.2158 27.7735L14.1215 26.6259ZM16.6548 26.6947L15.8775 26.9333L15.9714 27.253L16.2727 27.1587L16.373 27.4914C16.1409 27.5853 15.7897 27.6796 15.5515 27.5853C15.3948 27.5225 15.2942 27.3972 15.2314 27.2092C15.2065 27.1149 15.2003 27.0335 15.2128 26.9519C15.2378 26.783 15.3383 26.6572 15.4764 26.5632C15.5451 26.5194 15.6454 26.4756 15.7396 26.4443C15.8192 26.4204 15.9013 26.4056 15.9842 26.4002C16.1535 26.3942 16.3791 26.4188 16.5548 26.4506L16.4296 26.049C16.279 26.0372 16.1276 26.0414 15.9779 26.0617C15.8527 26.0803 15.7146 26.1055 15.5829 26.1492C15.2191 26.2625 14.9619 26.4251 14.8052 26.6511C14.6548 26.8705 14.617 27.1151 14.6986 27.3787C14.7802 27.6546 14.9496 27.8427 15.2005 27.9366C15.4451 28.0309 15.7459 28.0246 16.1034 27.918C16.2538 27.8742 16.4044 27.8114 16.5488 27.7363C16.6728 27.6724 16.794 27.6033 16.9123 27.5292L16.6548 26.6947ZM19.2762 26.2561L18.7744 26.5508L18.4607 26.3126L17.7649 26.7202L17.8087 27.1026L17.3197 27.3845L17.1315 25.4469L17.6898 25.1273L19.2762 26.2561ZM18.1788 26.0991L17.6334 25.6852L17.715 26.3687L18.1788 26.0991ZM20.4679 24.6256L19.7275 25.3154L18.7621 24.2808L18.3796 24.6383L19.5836 25.9361L20.712 24.8892L20.4679 24.6256Z" fill="white"/>
<path fill-rule="evenodd" clip-rule="evenodd" d="M4.24513 4.95408C4.45825 4.95408 5.31757 4.97922 6.02603 4.78474C6.54018 4.64055 7.03552 4.33319 6.91648 4.04481C6.80359 3.78774 6.31441 3.78141 5.73748 3.91311C5.01004 4.08244 4.27643 4.026 4.02552 3.91311C3.7433 3.78774 3.51136 3.56196 3.39847 3.26093C3.28559 2.9474 3.42345 2.50218 3.73081 2.16352C4.03817 1.82502 4.49588 1.54896 5.09795 1.32951C5.67488 1.11622 6.25796 1.00966 6.86003 0.947062L7.24881 1.78107C6.91648 1.77474 6.52154 1.78722 6.10129 1.86881C5.67488 1.9439 5.21717 2.08826 4.95376 2.33285C4.70934 2.56478 4.82839 2.8848 5.17321 2.847C5.39704 2.82566 5.62071 2.80268 5.84421 2.77807C6.40865 2.72796 7.00439 2.64004 7.55617 2.80304C8.65991 3.12905 8.39018 4.19516 7.71918 4.80339C7.4621 5.03532 7.15491 5.21714 6.88518 5.34268C6.20802 5.6562 5.4178 5.77542 4.69669 5.83187L4.24513 4.95408ZM14.3474 0.388951C14.0322 0.259144 13.7044 0.162442 13.3692 0.100402C13.0306 0.0314718 12.6668 0 12.2968 0C11.8264 0 11.3749 0.056444 10.9485 0.163003C10.2463 0.344822 9.48741 0.708458 9.07982 1.342C8.91049 1.61156 8.8289 1.89378 8.8289 2.20097C8.8289 2.55213 8.94179 2.88463 9.16757 3.17917C9.6316 3.78757 10.4343 4.13854 11.1618 4.29522C11.5192 4.37048 11.8954 4.39562 12.2841 4.39562C12.6543 4.39562 13.0054 4.36432 13.3437 4.30155C13.6824 4.23895 14.1092 4.07577 14.391 3.95673L14.385 2.93458C13.7577 3.26058 13.0742 3.45506 12.3655 3.45506C11.5943 3.45506 10.3903 3.1855 10.3903 2.18832C10.3903 1.19764 11.588 0.927905 12.3655 0.927905C13.0241 0.927905 13.7953 1.08475 14.3472 1.42957L14.3474 0.388951ZM16.6676 5.06696L17.1566 3.53066L18.279 3.88797C18.6491 4.00086 19.2447 4.0886 19.7525 3.91311C20.4738 3.65603 20.6933 2.86582 20.2544 2.25143C20.0727 1.99436 19.7967 1.78739 19.5331 1.65569C19.2512 1.51783 18.6993 1.35466 18.1974 1.18532L16.6048 0.658514L15.3504 4.63423L16.6676 5.06696ZM19.132 2.83452C19.0318 3.16685 18.3921 3.09159 18.1475 3.01633L17.4012 2.7844L17.6834 1.85632L18.5299 2.12606C18.8186 2.21996 19.2449 2.48337 19.132 2.83452Z" fill="#438765"/>
<path fill-rule="evenodd" clip-rule="evenodd" d="M13.1808 13.0682C13.0241 13.1875 12.8989 13.2877 12.7672 13.3253C12.7546 13.3253 12.7546 13.3441 12.7609 13.3441C12.8611 13.3879 12.9927 13.3818 13.1307 13.3818C13.2624 13.3754 13.4066 13.3754 13.5323 13.4069C13.6199 13.4256 13.6827 13.4697 13.7328 13.5196C13.7769 13.5762 13.8082 13.6388 13.8144 13.6953C13.6577 13.6137 13.5073 13.5762 13.3758 13.5824C13.3194 13.5824 13.2626 13.5951 13.2188 13.62C13.1713 13.6435 13.132 13.6807 13.1059 13.7268C13.0744 13.7769 13.0621 13.8395 13.0621 13.9149C13.0681 13.9212 13.0744 13.9274 13.0808 13.9212C13.1387 13.8855 13.2023 13.86 13.2689 13.846C13.3254 13.8272 13.3818 13.821 13.4382 13.8272C13.5699 13.8335 13.6828 13.8838 13.7706 13.959C13.8585 14.0341 13.9149 14.1345 13.9149 14.2349C13.9213 14.3227 13.9272 14.4167 13.9461 14.4982C13.9587 14.5673 13.9839 14.6299 14.0152 14.6926C13.9272 14.6552 13.8708 14.5736 13.8144 14.492C13.7328 14.3854 13.6514 14.2726 13.501 14.2476C13.4382 14.2351 13.3693 14.2476 13.3065 14.2789C13.2438 14.3102 13.1936 14.3666 13.1558 14.4357C13.1495 14.4482 13.1558 14.4545 13.1685 14.4545C13.2874 14.4482 13.3943 14.4734 13.4819 14.5235C13.5824 14.5736 13.6638 14.6554 13.7268 14.7493C13.8585 14.9562 13.8708 15.138 13.8771 15.2949C13.8835 15.4203 13.8894 15.5268 13.9522 15.6272C13.8019 15.5708 13.714 15.4078 13.6389 15.2573C13.5947 15.1695 13.5573 15.0942 13.5072 15.0378C13.4826 15.0135 13.4551 14.9925 13.4252 14.9752C13.3773 14.9493 13.3228 14.9383 13.2686 14.9437C13.2121 14.9562 13.162 14.9814 13.1182 15.0253C13.0828 15.0537 13.0548 15.0903 13.0366 15.1319C13.0303 15.1382 13.0366 15.1507 13.043 15.1507C13.1682 15.1507 13.2872 15.2008 13.3815 15.2949C13.4694 15.3763 13.5321 15.5017 13.5571 15.6522C13.5694 15.7714 13.5694 15.9093 13.5634 16.0471C13.5571 16.323 13.5508 16.6054 13.7138 16.7807C13.4191 16.731 13.3563 16.4674 13.2935 16.2101C13.2765 16.138 13.2556 16.0669 13.2311 15.997C13.2014 15.9045 13.1497 15.8207 13.0804 15.7526C13.0053 15.6837 12.9237 15.6459 12.8487 15.6334C12.8423 15.6334 12.836 15.6459 12.8423 15.6585C12.9615 15.7839 13.0053 15.9344 13.0053 16.0972C13.0053 16.2606 12.9675 16.4424 12.9174 16.6367C12.8796 16.7807 12.8673 16.9251 12.8924 17.0506C12.9111 17.1695 12.9552 17.2701 13.0368 17.3517C13.0431 17.358 13.0554 17.3517 13.0554 17.3453C13.0678 17.2388 13.0869 17.1509 13.1245 17.0821C13.162 17.0193 13.2058 16.9629 13.2622 16.9128V17.032C13.2686 17.3453 13.2749 17.6777 13.3064 17.9159C13.325 18.0666 13.4252 18.3112 13.5446 18.543C13.689 18.8252 13.8583 19.0949 13.9522 19.195C14.1092 19.3583 14.2782 19.4522 14.4476 19.49C14.5919 19.5215 14.7363 19.5087 14.8552 19.4586C14.9807 19.4144 15.0809 19.3269 15.1499 19.2203C15.219 19.1197 15.2568 18.9945 15.2504 18.8565C15.2378 18.662 15.2063 18.5117 15.1061 18.2796C15.0058 18.0538 14.8428 17.7464 14.5856 17.2446C14.4539 16.994 14.3473 16.7308 14.3034 16.4672C14.2596 16.1976 14.2784 15.9279 14.3976 15.6583C14.4792 15.4575 14.6107 15.3009 14.7801 15.1943C14.9474 15.0927 15.1441 15.0507 15.3383 15.0751C15.3383 15.0751 15.3447 15.0689 15.3507 15.0689C15.3821 14.9937 15.4323 14.9436 15.495 14.9058C15.5638 14.8683 15.6454 14.8495 15.7271 14.8432C15.8397 14.8432 15.9526 14.862 16.0531 14.8996C16.0969 14.9121 16.1407 14.9372 16.1783 14.956C16.2534 14.9937 16.329 15.0313 16.4229 15.0313C16.5295 15.0376 16.636 14.9812 16.7366 15.0313C16.6675 15.0376 16.6111 15.0751 16.5546 15.1066C16.4859 15.1442 16.4166 15.1817 16.31 15.1882C16.1912 15.1945 16.0969 15.1632 15.984 15.1192C15.9777 15.1131 15.9714 15.1192 15.965 15.1255V15.138C15.965 15.3074 16.2728 15.3325 16.398 15.3074C16.4671 15.2886 16.5486 15.2759 16.5924 15.2886C16.5297 15.2886 16.4732 15.3262 16.4108 15.3575C16.3354 15.3951 16.1787 15.4327 16.047 15.4327C15.9715 15.4327 15.8963 15.4139 15.8588 15.37C15.8525 15.3636 15.8335 15.3636 15.8335 15.3763C15.8335 15.389 15.8335 15.4014 15.8398 15.4139C15.8462 15.483 15.9089 15.5268 15.9715 15.5456C16.0406 15.5646 16.1159 15.552 16.1724 15.5456C16.2603 15.5331 16.3294 15.527 16.4296 15.5456C16.3294 15.5708 16.2476 15.6084 16.1597 15.646C15.9652 15.7338 15.7713 15.7965 15.5576 15.7528C15.4196 15.7213 15.307 15.6399 15.2692 15.5082C15.2443 15.4221 15.2443 15.3308 15.2692 15.2448C15.2692 15.2384 15.2692 15.2321 15.2569 15.2321C15.1597 15.2137 15.0592 15.2247 14.9682 15.2636C14.868 15.3075 14.7801 15.3765 14.705 15.4579C14.5794 15.6022 14.5105 15.7714 14.4855 15.9534C14.4606 16.1542 14.4855 16.3733 14.548 16.5804C14.5984 16.7561 14.6797 16.9316 14.7801 17.1072C14.8743 17.2889 14.9872 17.4584 15.0934 17.6341C15.1625 17.7406 15.2251 17.8472 15.2879 17.9537C15.3507 18.054 15.4071 18.1545 15.4636 18.2544C15.5327 18.3677 15.5638 18.4742 15.5828 18.5808C15.6014 18.681 15.6014 18.7812 15.6014 18.8755C15.5951 19.0636 15.545 19.2393 15.4511 19.3896C15.3568 19.534 15.2249 19.6592 15.0431 19.7661C15.0308 19.7724 15.0308 19.7847 15.0431 19.7847C15.0996 19.8097 15.1623 19.8222 15.2248 19.8034C15.2816 19.7911 15.338 19.7596 15.3945 19.7158C15.3317 19.8538 15.2188 19.9476 15.0808 20.0042C14.9051 20.073 14.692 20.0793 14.4724 20.0357C14.4664 20.0357 14.46 20.042 14.46 20.0543C14.4787 20.1482 14.5165 20.236 14.5729 20.3052C14.6104 20.349 14.6605 20.3868 14.717 20.4118C14.7734 20.4304 14.8425 20.4368 14.9114 20.4241C14.9993 20.4055 15.1059 20.3553 15.2125 20.2674C15.2629 20.6126 14.987 20.7628 14.692 20.9198C14.6545 20.9384 14.6232 20.9572 14.5917 20.9699C14.4912 21.0323 14.3909 21.1266 14.3348 21.2331C14.2844 21.3337 14.2594 21.4463 14.2907 21.5532C14.2907 21.5655 14.303 21.5655 14.3094 21.5591C14.3721 21.4964 14.46 21.4589 14.5539 21.4148C14.7046 21.346 14.874 21.2644 14.9869 21.0763C15.037 21.1579 15.0556 21.2393 15.043 21.3145C15.0293 21.4105 14.98 21.4978 14.9049 21.5591C14.7045 21.7411 14.5415 21.7849 14.4599 21.8164C14.4349 21.8227 14.4157 21.8227 14.4034 21.8287C14.353 21.8537 14.3092 21.8851 14.2591 21.9229C14.2026 21.9667 14.1525 22.0172 14.1087 22.061L14.1024 22.0673C14.0771 22.1174 14.0586 22.1675 14.0523 22.2177C14.046 22.2678 14.0586 22.3179 14.0834 22.362C14.0897 22.368 14.0961 22.368 14.1024 22.368C14.1399 22.3432 14.2026 22.3369 14.2654 22.3305C14.3155 22.3242 14.3656 22.3179 14.4094 22.3056C14.3783 22.3998 14.3218 22.4686 14.2591 22.525C14.184 22.5815 14.0961 22.6316 14.0018 22.6757C13.9517 22.7005 13.8889 22.7633 13.8451 22.8384C13.7937 22.924 13.7556 23.0171 13.7323 23.1143C13.7011 23.2271 13.7263 23.3337 13.7509 23.4343C13.7699 23.503 13.7887 23.5723 13.795 23.6411C13.795 23.729 13.7386 23.7977 13.657 23.8479C13.5568 23.9106 13.4124 23.9484 13.2869 23.9548C13.3496 23.8292 13.3247 23.7413 13.3059 23.6534C13.2932 23.6096 13.2809 23.5658 13.2809 23.5157C13.2806 23.5124 13.2792 23.5093 13.2769 23.507C13.2746 23.5047 13.2715 23.5033 13.2682 23.503C13.2118 23.503 13.149 23.5781 13.0866 23.6534C13.0551 23.6915 13.0238 23.7225 12.9923 23.754C12.8921 23.8479 12.7541 23.8542 12.6289 23.8605C12.5784 23.8605 12.5283 23.8605 12.4845 23.8732C12.4845 23.8668 12.4845 23.8605 12.4908 23.8479C12.522 23.7162 12.5473 23.6224 12.5911 23.5535C12.6097 23.5157 12.6475 23.4844 12.6853 23.4529C12.7228 23.4215 12.7669 23.3902 12.7919 23.3464C12.7979 23.3464 12.7979 23.34 12.7919 23.3337C12.7414 23.2148 12.5784 23.2458 12.4094 23.2776C12.334 23.2899 12.2587 23.3026 12.196 23.3026C12.1896 23.2398 12.1896 23.1834 12.2023 23.1396C12.2086 23.0831 12.2273 23.0453 12.2524 23.0267C12.3593 22.9075 12.516 22.9324 12.679 22.9576C12.7919 22.9699 12.9107 22.9891 13.0175 22.9576C13.1322 22.8682 13.2354 22.7649 13.3248 22.6502C13.4064 22.5313 13.4815 22.412 13.538 22.2741C13.5944 22.1111 13.6071 21.9667 13.5821 21.8602C13.5634 21.7851 13.532 21.7285 13.4878 21.6908V21.6972C13.4632 21.6757 13.4342 21.6595 13.403 21.6498C13.3717 21.6401 13.3387 21.637 13.3062 21.6407C13.2056 21.6471 13.0804 21.6908 12.9424 21.7788C12.9865 21.4213 12.8673 21.2897 12.6915 21.0889C12.6817 21.0798 12.6733 21.0693 12.6665 21.0578C12.6164 21.0014 12.5348 20.9135 12.472 20.8257C12.4033 20.7378 12.3468 20.6504 12.3468 20.5939V20.5498C12.3405 20.2926 12.3405 20.1236 12.4347 19.9477C12.4722 19.8727 12.5163 19.8034 12.5599 19.7346C12.6037 19.6592 12.6479 19.5903 12.6792 19.5275C12.7293 19.4336 12.7479 19.3522 12.6855 19.3144C12.7293 19.2265 12.7041 19.1577 12.6164 19.1013C12.5285 19.0385 12.3781 18.9947 12.1838 18.9506C11.9832 18.9131 11.8451 18.8818 11.7134 18.8444C11.5881 18.8066 11.4815 18.7564 11.3686 18.6937C11.2557 18.6246 11.1304 18.5243 11.03 18.4178C10.9359 18.3299 10.867 18.2361 10.8418 18.1605C10.9547 18.1167 11.0488 18.0603 11.1177 17.9852C11.124 17.9789 11.1177 17.9666 11.1114 17.9666C10.848 17.9789 10.6034 17.8285 10.3903 17.703C10.2334 17.6151 10.0956 17.5337 9.98882 17.5337C9.90724 17.5337 9.82582 17.5463 9.76305 17.5715C9.70045 17.5964 9.65016 17.6342 9.61253 17.6907C9.61253 17.6967 9.61886 17.7093 9.62502 17.7093C9.81949 17.6715 9.92605 17.7594 10.0389 17.8597C10.1267 17.9348 10.2208 18.0167 10.3774 18.0605C10.2081 18.1484 10.0764 18.1734 9.95735 18.1607C9.83198 18.1421 9.71276 18.0728 9.56224 17.9914C9.44936 17.9289 9.33014 17.8662 9.21109 17.8473C9.09821 17.8224 8.98532 17.841 8.88492 17.9289C8.87243 17.9349 8.87859 17.9476 8.88492 17.9476C8.97899 17.9791 9.06058 18.023 9.12335 18.0728C9.17979 18.1232 9.22358 18.1797 9.24872 18.2484C9.12951 18.2106 9.01029 18.1734 8.8974 18.1482C8.77836 18.1167 8.66547 18.0981 8.55891 18.0981C8.43353 18.0981 8.31432 18.1419 8.18894 18.1857C8.13883 18.2047 8.08238 18.2171 8.0321 18.2361C7.75621 18.3049 7.67479 18.3678 7.58687 18.4243C7.56806 18.4429 7.54309 18.4617 7.51162 18.4807C7.49297 18.4867 7.4615 18.4994 7.4302 18.5057C7.38008 18.5243 7.31731 18.5368 7.26087 18.5873C7.25454 18.5686 7.25454 18.5431 7.24821 18.5245C7.24188 18.4243 7.25454 18.3237 7.30465 18.2486C7.34861 18.1735 7.43636 18.1106 7.56173 18.0856C7.5867 18.0793 7.61818 18.0793 7.64315 18.073C7.6558 18.073 7.66196 18.0606 7.64948 18.0543C7.50529 17.885 7.4237 17.9163 7.27318 17.9727C7.24171 17.9854 7.19792 18.0042 7.15397 18.0169C7.13515 18.0232 7.11634 18.0418 7.10385 18.067C7.09082 18.0908 7.08033 18.116 7.07255 18.1421C6.97215 17.9163 7.06006 17.8034 7.19792 17.7468C7.34844 17.6907 7.55523 17.6907 7.66179 17.6907C7.66812 17.6907 7.67445 17.6843 7.67445 17.6717C7.63682 17.6029 7.59919 17.5591 7.56156 17.5337C7.5176 17.5087 7.46749 17.5022 7.39839 17.4962C7.3859 17.4962 7.37341 17.4899 7.36076 17.4899C7.32277 17.4748 7.2809 17.4726 7.24154 17.4835C7.24787 17.4148 7.26668 17.3583 7.29798 17.3205C7.32945 17.2831 7.37324 17.2641 7.43601 17.2641C7.58653 17.2704 7.71191 17.3392 7.84361 17.4148C7.9878 17.4964 8.13832 17.5778 8.33895 17.5778C8.48571 17.5732 8.63033 17.5412 8.76536 17.4835C8.89993 17.4261 9.02812 17.3546 9.14781 17.2704C9.20425 17.2326 9.24821 17.2013 9.29833 17.1698C9.48014 17.0381 9.6558 16.9189 9.81881 16.8692C9.86259 16.9129 9.9317 16.9316 10.0194 16.9379C10.1074 16.9379 10.2201 16.9189 10.3518 16.8815C10.3831 16.8692 10.4145 16.8628 10.4458 16.8565C10.5964 16.8187 10.7406 16.7811 10.8158 16.7185C10.9036 16.6494 10.9727 16.5804 11.0228 16.499C11.0667 16.4239 11.098 16.3423 11.1168 16.2418C11.1168 16.2354 11.098 16.2295 11.0919 16.2354C10.9225 16.4239 10.7784 16.4552 10.6467 16.4804C10.5743 16.4917 10.5044 16.5149 10.4397 16.5491C10.3017 16.6434 10.1763 16.7121 10.0761 16.7499C9.98198 16.7874 9.90672 16.8001 9.85045 16.7874C9.87542 16.6494 9.92554 16.5178 10.0008 16.4176C10.0716 16.3102 10.1718 16.2253 10.2893 16.173C10.421 16.1102 10.5654 16.0601 10.6969 16.0162C10.9916 15.9158 11.2424 15.8343 11.2802 15.6589C11.2802 15.6525 11.2739 15.64 11.2675 15.6462C11.0229 15.7215 10.8788 15.7215 10.7282 15.7215C10.6593 15.7215 10.5841 15.7215 10.5025 15.7339C10.515 15.665 10.5652 15.6086 10.653 15.5521C10.7407 15.4959 10.8724 15.4519 11.0105 15.4018C11.0606 15.383 11.117 15.3703 11.1735 15.3517C11.3428 15.3016 11.5434 15.2451 11.6438 15.1384C11.6876 15.1007 11.7064 15.0506 11.7128 15.0067C11.7191 14.982 11.7191 14.9562 11.7128 14.9316C11.7064 14.9128 11.6939 14.8878 11.6751 14.8751C11.6565 14.8563 11.6375 14.8437 11.6062 14.8437C11.5561 14.8375 11.4745 14.8562 11.3868 14.9001C11.3052 14.9441 11.2113 15.0067 11.117 15.0819C10.9853 15.0067 10.8851 14.9251 10.8223 14.8373C10.7722 14.7558 10.7532 14.6742 10.7847 14.5989C11.142 14.649 11.3679 14.6555 11.5058 14.6177C11.6563 14.5738 11.7128 14.4922 11.7316 14.3606C11.7441 14.2791 11.7128 14.2038 11.65 14.1285C11.6042 14.0826 11.5512 14.0445 11.4931 14.0157C11.4284 13.9816 11.3585 13.9583 11.2862 13.9467C11.0729 13.9091 10.8095 13.9654 10.5774 14.1723C10.5261 14.1529 10.4822 14.1177 10.452 14.0719C10.4332 14.0406 10.427 14.0032 10.427 13.9654C10.4334 13.9277 10.4458 13.8901 10.4708 13.8651C10.5023 13.8212 10.5461 13.7899 10.6025 13.7774C10.6152 13.7711 10.6152 13.7522 10.6025 13.7522C10.5774 13.7459 10.5587 13.7459 10.5398 13.7459C10.4647 13.7334 10.4144 13.7271 10.3829 13.7083C10.3641 13.6958 10.3641 13.677 10.3829 13.6455L10.4394 13.539C10.7028 13.47 10.8782 13.4386 11.0163 13.4449C11.148 13.4575 11.2357 13.5077 11.3173 13.6079C11.3236 13.6142 11.3298 13.6142 11.3361 13.6142C11.4051 13.5578 11.4991 13.5265 11.587 13.5013C11.7061 13.4575 11.8126 13.4261 11.8566 13.3445C11.8629 13.3382 11.8566 13.3257 11.8503 13.3257C11.7061 13.3445 11.5805 13.3506 11.4678 13.3571C11.3549 13.3571 11.2672 13.3508 11.1919 13.3383C11.1228 13.3258 11.0727 13.2882 11.0476 13.2506C11.0356 13.2296 11.0291 13.2059 11.0288 13.1817C11.0288 13.1628 11.0414 13.1379 11.0537 13.1189C11.0789 13.0812 11.129 13.0499 11.1981 13.0436C11.2607 13.0311 11.336 13.0375 11.4237 13.0436C11.5114 13.0561 11.6118 13.0751 11.7184 13.0937H11.7311C12.0506 12.8618 12.2577 12.9181 12.5023 12.9872C12.6843 13.0373 12.8976 13.0937 13.1921 13.0561C13.1889 13.0607 13.1851 13.0647 13.1808 13.0682Z" fill="#E3BB54"/>
<path fill-rule="evenodd" clip-rule="evenodd" d="M7.31774 14.3538C7.3617 14.3601 7.38667 14.3789 7.41181 14.3976C7.4243 14.4101 7.43678 14.4164 7.44311 14.4227C7.49956 14.4415 7.556 14.4728 7.59996 14.5168C7.63759 14.5544 7.66889 14.6047 7.69403 14.661C7.69403 14.6735 7.6877 14.6798 7.68137 14.6798C7.6186 14.6861 7.56849 14.6548 7.51204 14.6172C7.43063 14.5671 7.34271 14.5105 7.18604 14.5671C7.37418 14.9683 7.51204 14.9935 7.85071 15.0499C7.92597 15.0687 8.02004 15.0814 8.1266 15.1064C8.25197 15.1313 8.35237 15.1753 8.42763 15.2381C8.47775 15.2757 8.51538 15.3195 8.53436 15.3698C8.55301 15.4199 8.55934 15.4765 8.54685 15.5328C8.53436 15.5956 8.50289 15.652 8.45278 15.7209C8.55301 15.7209 8.67222 15.6895 8.77878 15.6583C8.9293 15.6207 9.061 15.5894 9.14242 15.6269C9.14875 15.6332 9.14875 15.6457 9.14242 15.6518C9.06083 15.677 9.01705 15.7146 8.95427 15.771C8.87269 15.8463 8.7598 15.9465 8.49656 16.0782C8.59047 16.1224 8.67821 16.1347 8.77245 16.1287C8.87269 16.1224 8.97309 16.0846 9.07965 16.0281C9.09213 16.0218 9.11112 16.0095 9.13609 15.9966C9.25514 15.9216 9.46843 15.7835 9.61894 15.8964C9.6251 15.9026 9.61894 15.9214 9.60629 15.9214C9.44328 15.9151 9.3617 16.0155 9.26779 16.1345C9.19869 16.2288 9.11728 16.329 8.97924 16.4104C9.25514 16.4482 9.4621 16.4044 9.61894 16.3102C9.78195 16.2096 9.90099 16.0593 10.0077 15.8962C10.1016 15.7457 10.1895 15.6705 10.2585 15.6077C10.2899 15.5826 10.3149 15.5576 10.3337 15.5388C10.2333 15.5136 10.1143 15.5136 10.0014 15.5073C9.88851 15.5073 9.78195 15.501 9.68155 15.4885C9.5625 15.4635 9.44961 15.4384 9.34921 15.4007C9.24777 15.3641 9.15098 15.3157 9.06083 15.2565C8.8915 15.1437 8.77228 15.0308 8.68454 14.9242C8.6045 14.8335 8.54084 14.7295 8.49639 14.617C8.47758 14.5792 8.46492 14.5418 8.45243 14.5103C8.36452 14.2908 8.27677 14.0776 7.9571 14.1152C8.00721 14.1968 8.04484 14.272 8.07614 14.341C8.11377 14.4225 8.13258 14.4913 8.13891 14.5604C8.13891 14.5729 8.1201 14.579 8.11377 14.5667C8.03218 14.4099 7.91947 14.2782 7.80658 14.2156C7.75621 14.1867 7.70085 14.1675 7.6434 14.1591C7.58696 14.1591 7.53051 14.1653 7.4804 14.1968C7.41313 14.2336 7.35697 14.2879 7.31774 14.3538ZM8.50289 20.9382C8.52786 20.9382 8.55934 20.9319 8.59064 20.9319C8.61578 20.9319 8.63459 20.9256 8.65341 20.9256C8.78511 20.9006 8.87918 20.8941 8.94196 20.9196C9.00473 20.9382 9.04236 20.9884 9.04852 21.064C9.04852 21.0699 9.04236 21.0826 9.03603 21.0826C8.98592 21.0826 8.9358 21.0763 8.88551 21.0763C8.76647 21.0699 8.65358 21.0699 8.57832 21.1077C8.50306 21.1392 8.45295 21.1893 8.40899 21.2394C8.36901 21.2951 8.34318 21.3597 8.33373 21.4276C8.32757 21.4526 8.33373 21.484 8.34639 21.5218C8.35255 21.5593 8.36503 21.5969 8.37769 21.6281C8.45928 21.5092 8.55318 21.4339 8.65358 21.3838C8.76647 21.3337 8.88551 21.3274 9.01106 21.3585C9.02354 21.3585 9.02354 21.3711 9.01106 21.3775C8.9358 21.4213 8.82291 21.5027 8.7415 21.6092C8.68505 21.6847 8.63477 21.7663 8.62228 21.8478C8.72251 21.8289 8.81658 21.8478 8.9045 21.8602C9.01106 21.8791 9.10513 21.898 9.16791 21.8415C9.18672 21.8229 9.21802 21.7851 9.24949 21.7413C9.29961 21.6785 9.36854 21.5969 9.43131 21.5341C9.46261 21.5092 9.49391 21.484 9.51905 21.4717C9.55053 21.4591 9.58183 21.4527 9.6068 21.4464C9.88269 21.4341 10.1021 21.4341 10.2588 21.4591C10.4032 21.484 10.5097 21.5218 10.5662 21.572C10.5662 21.5218 10.5474 21.4717 10.5096 21.4276C10.4594 21.3711 10.3779 21.3147 10.265 21.2646C10.2619 21.2611 10.2602 21.2567 10.2602 21.2521C10.2602 21.2475 10.2619 21.2431 10.265 21.2396C10.4783 21.1267 10.7039 21.1958 10.9296 21.2711C11.193 21.3587 11.4501 21.4401 11.6947 21.227C11.6006 21.2206 11.5254 21.1705 11.4501 21.1081C11.3436 21.0262 11.2243 20.9324 11.0237 20.9574C11.0174 20.9574 11.0112 20.9451 11.0112 20.9388C11.0489 20.8696 11.1053 20.8195 11.1742 20.7821C11.2536 20.7406 11.3418 20.7191 11.4313 20.7193C11.5442 20.7193 11.6446 20.7508 11.7387 20.7821C11.8577 20.8195 11.9643 20.8508 12.0897 20.8382C11.9579 20.6251 11.9393 20.4119 11.9894 20.1988C12.0395 19.9917 12.1588 19.7849 12.2968 19.5781C12.2025 19.5463 12.096 19.5591 11.9833 19.6156C11.8704 19.672 11.7387 19.7726 11.6008 19.9106C11.5945 19.9229 11.582 19.9106 11.582 19.898C11.6321 19.735 11.7012 19.6033 11.789 19.5092C11.8579 19.4213 11.9395 19.3648 12.0397 19.321C11.9027 19.3125 11.7652 19.3253 11.6321 19.3588C11.4628 19.3963 11.2873 19.4714 11.1053 19.5843C11.0928 19.5843 11.0865 19.5783 11.0865 19.572C11.099 19.465 11.1554 19.3838 11.237 19.321C11.3186 19.2646 11.4188 19.2145 11.5129 19.1707C11.5818 19.1454 11.6321 19.1079 11.6759 19.0701C11.7135 19.0451 11.745 19.0263 11.7763 19.0073C11.6886 19.001 11.5818 19.02 11.4628 19.0388C11.3749 19.0515 11.281 19.0703 11.1742 19.0766C11.1178 19.0829 11.0613 19.0829 11.0049 19.0889C10.9108 19.0889 10.8106 19.0953 10.7165 19.1079C10.5723 19.139 10.4468 19.2081 10.359 19.3087C10.2838 19.3963 10.2462 19.5155 10.2586 19.6659C10.2713 19.8102 10.3402 19.9168 10.403 20.0233C10.4846 20.1485 10.5662 20.2743 10.5535 20.4751C10.5409 20.6632 10.4343 20.7761 10.2901 20.8385C10.1521 20.9013 9.97659 20.9139 9.82608 20.9139C9.73833 20.9139 9.65042 20.9076 9.57533 20.9013C9.50912 20.8905 9.44403 20.8737 9.38085 20.8512C9.32665 20.8278 9.27423 20.8006 9.22401 20.7696C9.14242 20.7258 9.061 20.6753 8.94812 20.663C8.84771 20.6567 8.74115 20.6753 8.65957 20.7321C8.58742 20.7831 8.53272 20.8551 8.50289 20.9382ZM9.51256 14.285C9.54386 14.3791 9.60663 14.4542 9.69437 14.5045C9.8011 14.5734 9.93897 14.611 10.0707 14.611C10.2024 14.6049 10.3466 14.5484 10.5096 14.4793C10.7415 14.3791 10.9987 14.266 11.3184 14.2787C10.9483 14.191 10.6474 14.2724 10.3967 14.3415C10.2713 14.3791 10.1584 14.4104 10.058 14.4104C9.92015 14.4167 9.80726 14.4041 9.71935 14.3791C9.64584 14.359 9.57603 14.3272 9.51256 14.285Z" fill="#E3BB54"/>
<path fill-rule="evenodd" clip-rule="evenodd" d="M12.836 19.7344C12.8423 19.7281 12.8547 19.7344 12.8547 19.7467C12.8294 19.8351 12.8105 19.9252 12.7982 20.0163C12.7859 20.1042 12.7859 20.1983 12.7859 20.2922C12.7922 20.4742 12.8487 20.5935 12.9051 20.7124C12.9739 20.8568 13.0368 20.9946 12.9927 21.2266C12.9927 21.2329 12.974 21.2392 12.9677 21.2266C12.899 21.0576 12.8237 20.9447 12.7609 20.8441C12.6793 20.7124 12.6102 20.6124 12.5853 20.4429C12.573 20.3549 12.5916 20.2107 12.6417 20.0667C12.6858 19.9412 12.7546 19.822 12.836 19.7344ZM11.6698 18.5805C11.7326 18.6556 11.8329 18.7122 11.9333 18.7499C12.0461 18.7937 12.1777 18.8123 12.2969 18.8063C12.5728 18.7937 12.7108 18.6871 12.8423 18.5869C12.8673 18.5682 12.8925 18.5491 12.9174 18.5364C12.9238 18.5301 12.9174 18.5116 12.9051 18.5116C12.6857 18.5681 12.4722 18.5992 12.2591 18.6055C12.052 18.6118 11.864 18.5992 11.6822 18.5617C11.6698 18.5617 11.6572 18.5746 11.6698 18.5805ZM11.1367 18.2542C11.212 18.3233 11.3122 18.3738 11.4251 18.4112C11.538 18.4487 11.6572 18.4677 11.7826 18.4677C11.9195 18.4603 12.0538 18.4263 12.1777 18.3674C12.2969 18.3047 12.3971 18.2167 12.4536 18.1228C12.4596 18.1102 12.4472 18.0979 12.4349 18.1042C12.3407 18.1666 12.2155 18.2167 12.0898 18.2482C11.9581 18.286 11.8264 18.311 11.6948 18.3173C11.6007 18.3233 11.5067 18.3173 11.4128 18.3047C11.3239 18.2921 11.2373 18.2668 11.1557 18.2296C11.143 18.2294 11.1306 18.2417 11.1367 18.2542ZM10.6162 17.5018C10.704 17.5018 10.7856 17.5646 10.8733 17.6337C11.0301 17.7462 11.2056 17.8842 11.5067 17.7777C11.513 17.7717 11.513 17.759 11.5067 17.7527C11.4189 17.7212 11.3373 17.6648 11.2559 17.6147C11.0741 17.4895 10.886 17.3578 10.6101 17.4766C10.6037 17.4831 10.6037 17.5018 10.6162 17.5018ZM11.5443 17.4267C11.7011 17.295 11.8453 17.2763 11.977 17.2574C12.0774 17.2447 12.1654 17.2387 12.2591 17.1886C12.4472 17.0884 12.5728 16.9628 12.6229 16.7998C12.6667 16.6431 12.6356 16.4423 12.4977 16.2042C12.4914 16.1916 12.4724 16.2042 12.4724 16.2166C12.5082 16.3292 12.506 16.4505 12.4661 16.5617C12.4204 16.6794 12.3394 16.7802 12.2343 16.8501C12.1527 16.9066 12.065 16.9507 11.9772 17.0008C11.7702 17.1133 11.5696 17.2139 11.5195 17.4147C11.5193 17.4267 11.5318 17.433 11.5443 17.4267ZM10.6289 17.2199C10.7919 17.1383 10.9299 17.1257 11.0678 17.107C11.1932 17.0944 11.3249 17.0755 11.4754 17.0128C11.6259 16.944 11.7639 16.8311 11.8329 16.6743C11.8893 16.5426 11.8955 16.3792 11.8204 16.1849C11.8204 16.1786 11.8016 16.1786 11.8016 16.1849C11.6574 16.5301 11.4631 16.6178 11.206 16.7244C11.137 16.7494 11.0679 16.7805 10.9927 16.8183C10.8736 16.8747 10.7544 16.9502 10.6792 17.0254C10.6166 17.0882 10.5851 17.1506 10.6102 17.2136C10.6101 17.2199 10.6226 17.2259 10.6289 17.2199Z" fill="#438765"/>
</svg>
