<svg width="27" height="31" viewBox="0 0 27 31" fill="none" xmlns="http://www.w3.org/2000/svg">
<path d="M0.00200799 0L0 22.1967C0 23.7025 0.421309 24.8859 1.25184 25.7104C2.05214 26.5046 3.1891 26.9138 4.72721 26.9561C8.40011 27.059 10.5894 27.8734 12.2827 29.7703L13.2916 31L14.3006 29.7703C15.9939 27.8734 18.1831 27.059 21.856 26.9561C23.3941 26.9138 24.5311 26.5046 25.3314 25.7104C26.1619 24.8859 26.5832 23.7025 26.5832 22.1967L26.5812 0H0.00200799Z" fill="#C88C28"/>
<path d="M0.663086 0.661133L0.665094 22.1966C0.665094 23.521 1.01989 24.5451 1.72142 25.2406C2.41689 25.932 3.4369 26.2586 4.74923 26.2949C8.53301 26.4017 10.9178 27.2403 12.7885 29.3408L13.2915 29.9577L13.7944 29.3408C15.6652 27.2403 18.0499 26.4017 21.8337 26.2949C23.146 26.2586 24.1661 25.932 24.8615 25.2406C25.5631 24.5451 25.9178 23.521 25.9178 22.1966L25.9199 0.661133H0.663086Z" fill="white"/>
<path d="M25.2659 1.31641H1.3194L1.31738 9.83344H25.2659V1.31641Z" fill="#F40043"/>
<path d="M23.9891 4.8602H22.2695V2.37061H23.977V2.802H22.7574V3.3866H23.8318V3.82001H22.7574V4.43284H23.987V4.8602H23.9891Z" fill="white"/>
<path d="M22.9491 8.8112C22.4613 8.8112 22.0985 8.68219 21.8062 8.45641L22.0944 7.99679C22.3585 8.20846 22.6488 8.30925 22.9572 8.30925C23.2193 8.30925 23.4168 8.19636 23.4168 7.95849C23.4168 7.72062 23.2495 7.61982 22.8121 7.49887C22.3162 7.36179 21.9271 7.16827 21.9271 6.65624C21.9271 6.14421 22.3525 5.80151 22.9834 5.80151C23.4128 5.80151 23.7333 5.92247 23.9631 6.10188L23.699 6.53529C23.4995 6.38813 23.2737 6.30145 22.9774 6.30145C22.7113 6.30145 22.5097 6.40224 22.5097 6.61794C22.5097 6.83364 22.7012 6.89815 23.1064 7.0191C23.6023 7.16424 23.9873 7.35776 23.9873 7.92019C23.9873 8.48262 23.5761 8.8112 22.9491 8.8112Z" fill="white"/>
<path d="M21.6648 3.78984C21.6648 4.5095 21.2294 4.89252 20.5702 4.89252C19.911 4.89252 19.4756 4.5095 19.4756 3.78984V2.36865H19.9654V3.83016C19.9654 4.1668 20.163 4.45104 20.5742 4.45104C20.9855 4.45104 21.181 4.1668 21.181 3.83016V2.37067H21.6668V3.78984H21.6648Z" fill="white"/>
<path d="M21.306 8.77494H20.7295V5.83984H21.306V8.77494Z" fill="white"/>
<path d="M18.6816 5.84204L17.3955 8.77513H18.0063L18.2402 8.20864H19.496L19.7299 8.77513H20.3367L19.0606 5.84204H18.6816ZM18.8691 6.65847L19.3106 7.7188H18.4236L18.8691 6.65847Z" fill="white"/>
<path d="M17.0123 8.80741H16.6857L14.938 6.84597V8.77314H14.3735V5.80981H14.7001L16.4438 7.76722V5.84005H17.0123V8.80741Z" fill="white"/>
<path d="M13.0977 2.37061V4.8602H13.5855V4.14457L13.9564 4.14658C14.5733 4.14254 14.9946 3.82205 14.9946 3.27172C14.9946 2.72139 14.5793 2.37061 13.9766 2.37061L13.0977 2.37061ZM13.5855 2.80201H13.9503C14.291 2.80201 14.4886 3.01571 14.4886 3.26164C14.4886 3.50758 14.2971 3.70915 13.9503 3.70915H13.5855V2.80201Z" fill="white"/>
<path d="M13.6197 8.80741H13.2932L11.5454 6.84597V8.77314H10.981V5.80981H11.3075L13.0513 7.76722V5.84005H13.6197V8.80741Z" fill="white"/>
<path d="M8.86813 5.80371C7.97108 5.80371 7.31592 6.46694 7.31592 7.3136C7.31592 8.16027 7.97108 8.81137 8.86813 8.81137C9.75713 8.81137 10.4042 8.18042 10.4042 7.3136C10.4042 6.44678 9.76519 5.80371 8.86813 5.80371ZM8.86813 6.33792C9.4104 6.33792 9.81559 6.75924 9.81559 7.3136C9.81559 7.86796 9.4225 8.28122 8.86813 8.28122C8.31377 8.28122 7.90454 7.86796 7.90454 7.3136C7.90454 6.75924 8.31377 6.33792 8.86813 6.33792Z" fill="white"/>
<path d="M6.13885 7.62993V8.77293H5.56231V7.62993L4.48584 5.83984H5.17325L5.87477 7.06146L6.57629 5.83984H7.22742L6.13885 7.62993Z" fill="white"/>
<path d="M4.77012 8.77494H2.77441V5.83984H3.35095V8.26896H4.77012V8.77494Z" fill="white"/>
<path d="M3.91116 2.33838C3.14916 2.33838 2.59277 2.9008 2.59277 3.62046C2.59277 4.34012 3.15521 4.89247 3.91116 4.89247C4.66711 4.89247 5.21545 4.35625 5.21545 3.62046C5.21545 2.88467 4.66711 2.33838 3.91116 2.33838ZM3.91116 2.79195C4.37279 2.79195 4.7155 3.14875 4.7155 3.62046C4.7155 4.09217 4.37279 4.44295 3.91116 4.44295C3.43945 4.44295 3.09272 4.09016 3.09272 3.62046C3.09272 3.15077 3.44952 2.79195 3.91116 2.79195Z" fill="white"/>
<path d="M5.70312 2.36865H6.19096V4.43088H7.39645V4.86026H5.70312V2.36865Z" fill="white"/>
<path d="M7.7414 2.36865L8.33608 3.40682L8.93076 2.36865H9.48311L8.55984 3.89063V4.86228H8.06999V3.89063L7.15479 2.37067H7.7414V2.36865Z" fill="white"/>
<path d="M9.89636 2.36865H10.2048L11.1482 4.00554L12.1118 2.36865H12.4162L12.4908 4.86026H12.009L11.9888 3.36449L11.3014 4.56998H10.997L10.3237 3.36449L10.2995 4.86026H9.82178L9.89636 2.36865Z" fill="white"/>
<path d="M15.4239 2.36865H15.9117V4.86026H15.4219L15.4239 2.36865Z" fill="white"/>
<path d="M17.7158 2.33838C16.9538 2.33838 16.3975 2.9008 16.3975 3.62046C16.3975 4.34012 16.9538 4.89247 17.7158 4.89247C17.8287 4.89247 17.9356 4.8824 18.0384 4.85821L18.6633 5.42466L18.9657 5.07389L18.502 4.65261C18.8246 4.42885 19.0201 4.05589 19.0201 3.62046C19.0201 2.88467 18.4718 2.33838 17.7158 2.33838ZM17.7179 2.79195C18.1795 2.79195 18.5222 3.15278 18.5222 3.62046C18.5222 4.08814 18.1795 4.44295 17.7179 4.44295C17.2461 4.44295 16.8994 4.08814 16.8994 3.62046C16.8994 3.15278 17.2562 2.79195 17.7179 2.79195Z" fill="white"/>
<path d="M1.31836 10.4885V22.1967C1.31836 24.5008 2.47547 25.5551 4.74533 25.6256C8.69844 25.7526 11.4047 26.6477 13.2916 28.8168C15.1784 26.6477 17.8848 25.7526 21.8379 25.6256C24.1077 25.5551 25.2648 24.5008 25.2648 22.1967V10.4885H1.31836Z" fill="#0F23AA"/>
<path d="M23.0443 23.4001H16.3496V12.3008H19.581V20.588H23.0443V23.4001Z" fill="white"/>
<path d="M8.92118 23.6641C5.71595 23.6641 3.10742 21.0556 3.10742 17.8504C3.10742 14.6452 5.71595 12.0366 8.92118 12.0366C12.1264 12.0366 14.7349 14.6452 14.7349 17.8504C14.7349 21.0556 12.1264 23.6641 8.92118 23.6641Z" fill="white"/>
<path d="M7.76036 15.5325C8.00025 15.4599 8.20183 15.3571 8.43769 15.4357C8.35101 15.2603 8.1474 15.1797 7.96194 15.2321C7.86518 15.2583 7.7785 15.3027 7.69988 15.3289C7.45999 15.4357 7.23422 15.4357 6.98828 15.3631C7.16971 15.5869 7.50636 15.6191 7.76036 15.5325Z" fill="#C88C28"/>
<path d="M12.6709 16.2541C12.3362 16.9233 11.0158 16.8004 11.0945 17.5644L10.9977 17.389C10.8848 17.1773 10.9715 16.9133 11.1832 16.8004L12.3967 16.1593C12.7838 15.9557 12.9249 15.4457 12.6689 15.0667C12.4653 14.7684 12.0782 14.6636 11.7436 14.7865C11.7436 14.7865 11.3908 14.9438 11.2416 14.5305C11.0662 14.716 11.1549 14.97 11.2678 15.0425C11.1549 15.0587 10.9332 15.2159 10.9251 15.5263C11.1811 15.5969 11.4614 15.5001 11.5138 15.4195C11.4976 15.5163 11.6629 15.7178 11.9028 15.6755C11.6992 15.4638 11.7537 15.226 11.9028 15.1655C12.0419 15.1131 12.2193 15.1554 12.3161 15.2784C12.4491 15.4538 12.3866 15.7017 12.1992 15.7965L10.9856 16.4375C10.5724 16.6492 10.4131 17.1693 10.6348 17.5825L11.1811 18.6126C11.2416 18.7255 11.2255 18.8767 11.1287 18.9654C11.0058 19.0964 10.7941 19.0702 10.6873 18.919C10.3546 18.4352 10.0724 17.9172 9.85269 17.3628C10.0382 17.4334 10.1793 17.3104 10.1793 17.3104C10.1793 17.3104 9.9676 17.1612 10.0825 16.8548C10.143 16.6693 10.1631 16.5101 10.1349 16.3609C10.1873 16.4073 10.268 16.4415 10.3647 16.4335C10.2841 16.0706 10.3808 16.0545 10.4091 15.738C10.4151 15.5949 10.3829 15.4901 10.3385 15.4114C10.4151 15.4195 10.5058 15.4114 10.5845 15.3308C10.2397 15.1877 10.3022 14.7059 9.88898 14.6515C10.0462 14.5809 10.0563 14.4418 10.0563 14.4156C9.70352 14.4418 9.4475 14.1858 9.06852 14.1858C8.65527 14.1858 8.54238 14.2926 8.3932 14.2926C8.18154 14.2926 8.07671 14.3975 8.10292 14.5023L7.75014 14.599C7.69773 14.6958 7.75014 14.7744 7.79449 14.8026C7.79449 14.8026 7.73402 14.8551 7.75821 14.9438C7.78441 15.0425 7.84691 15.2159 7.84691 15.2159L7.91746 15.1453C7.95375 15.1111 8.00414 15.0849 8.06663 15.0748L8.17952 15.0647C8.32265 15.0486 8.45166 15.1171 8.52424 15.2502L8.67341 15.5485H7.91544C7.91544 15.5485 7.96786 15.7158 7.986 15.7682C8.02229 15.8489 8.09284 15.8852 8.22589 15.8852C8.367 15.8852 8.44562 15.865 8.44562 15.865V16.0686C8.44562 16.1815 8.35692 16.3307 8.05051 16.244L7.40745 16.0585C7.02846 15.9618 6.843 15.7864 6.58699 15.4699L6.51039 15.3469C6.44789 15.2663 6.42169 15.1715 6.42975 15.0748C6.43781 14.9942 6.43781 14.8913 6.41967 14.7926C6.3854 14.5567 6.21002 14.4761 6.16366 14.466C6.17374 14.4922 6.25236 14.7059 6.16366 14.8974C6.0931 14.6877 5.95401 14.5285 5.62744 14.5023C5.62744 14.5023 5.86732 14.7059 5.87337 14.9679C5.58309 14.7744 5.23031 14.9075 5.23031 14.9075C5.23031 14.9075 5.79274 15.0204 5.79274 15.4699C5.79274 15.6372 5.70606 15.859 5.44198 16.0081C5.44198 16.0081 5.72218 16.0686 5.90764 15.9618C5.96005 15.9275 6.03061 15.9275 6.08302 15.9718C6.26647 16.1573 6.67165 16.5544 6.73213 16.6774C6.86518 16.9415 6.68778 17.1531 6.68778 17.1531C6.68778 17.1531 6.97 17.133 7.06676 16.9677C7.08289 16.9415 7.11918 16.9314 7.1474 16.9415L7.67354 17.258L7.31875 17.4958C7.00226 17.7055 6.63335 17.8123 6.26042 17.8123H5.90159C5.78871 17.8123 5.67179 17.7861 5.57502 17.7317C5.47826 17.6873 5.32909 17.6249 5.17991 17.6249C4.86342 17.6249 4.76666 17.7841 4.76666 17.7841C4.76666 17.7841 5.08315 17.768 5.20612 17.891C5.0126 17.8647 4.65982 17.9514 4.62354 18.2699C4.62354 18.2699 4.85334 18.1369 5.07307 18.1712C4.91584 18.2437 4.74046 18.4534 4.95011 18.79C4.95011 18.79 4.97026 18.4373 5.40972 18.4373C5.84918 18.4373 5.78871 18.8243 5.78871 18.8243C5.78871 18.8243 5.98223 18.7799 6.02456 18.534C6.03464 18.4816 6.06891 18.4373 6.12132 18.4373H7.04661C7.08289 18.4373 7.10708 18.4635 7.10708 18.4897C7.15345 18.6832 7.40946 18.7356 7.40946 18.7356C7.40946 18.7356 7.28448 18.5058 7.48002 18.4191L8.15533 18.1268L8.46376 18.532C7.95375 18.8223 7.23207 19.1468 7.03653 19.2275C6.63335 19.3867 6.51643 19.3867 6.34105 19.3766C6.34105 19.3766 6.55272 19.5702 6.94984 19.5258C6.98613 19.5258 7.0204 19.5157 7.06273 19.4996C7.09902 19.4835 7.14337 19.4996 7.15949 19.5359C7.22199 19.6589 7.31875 19.8524 7.34495 19.931C7.40745 20.0983 7.29254 20.1407 7.16957 20.1951C7.00226 20.2757 6.82688 20.3543 6.54466 20.4511C6.11528 20.2052 5.78871 20.435 5.78871 20.435C5.78871 20.435 6.0427 20.4793 6.16567 20.6285C5.91974 20.6083 5.65566 20.7515 5.56696 21.0317C5.62945 21.0055 5.90159 20.8926 6.13947 20.9268C6.06891 20.9873 5.97215 21.1204 5.97215 21.2957C5.98223 21.3824 5.99836 21.4268 5.99836 21.4268C5.99836 21.4268 6.21002 21.0942 6.59707 21.0942C6.76439 21.0942 6.843 21.1808 6.843 21.2695C6.843 21.3401 6.79059 21.4268 6.79059 21.4268C6.79059 21.4268 7.30262 21.3824 7.1353 20.9268L8.06663 20.5922C8.11098 20.5761 8.1634 20.5821 8.1896 20.6184C8.25209 20.6708 8.36498 20.7414 8.52424 20.7253L8.25209 20.1104C8.17952 19.9512 8.26822 19.7758 8.45166 19.7214L8.93749 19.5641C8.93749 19.5641 9.06852 19.6689 9.49185 20.0197C9.77206 20.2495 9.77206 20.6547 9.77206 20.6547C9.77206 20.6547 10.018 20.5579 10.018 20.3362C10.0644 20.3564 10.1168 20.3725 10.1672 20.3826C10.4131 20.443 10.5824 20.6547 10.4131 20.9974L10.2559 21.2877C10.1934 21.3945 10.1329 21.4207 10.0442 21.4207C9.94744 21.4107 9.82447 21.4046 9.7015 21.4207C9.24592 21.4651 9.23584 21.7735 9.23584 21.7735C9.23584 21.7735 9.38501 21.6848 9.56845 21.6848C9.64103 21.6848 9.71158 21.705 9.77206 21.7211C9.77206 21.7211 9.39307 21.7816 9.39307 22.1081C9.39307 22.2412 9.49992 22.3117 9.49992 22.3117C9.49992 22.3117 9.59668 21.969 9.98574 21.969C9.98574 21.969 9.77407 22.0658 9.77407 22.2674C9.77407 22.469 9.95953 22.5315 9.95953 22.5315C9.95953 22.5315 9.83656 22.2251 10.4252 22.2251H10.5845C10.6893 22.2251 10.778 22.1626 10.8143 22.0658L10.9271 21.7493C10.9977 21.5639 11.1126 21.5639 11.1832 21.58C11.2961 21.6062 11.2961 21.7654 11.2961 21.7654C11.2961 21.7654 11.4896 21.4752 11.2598 21.2111C11.2154 21.1587 11.1993 21.072 11.2255 21.0014L11.3848 20.562C11.7355 20.6487 11.9048 20.3584 11.9048 20.3584C11.5319 20.2777 11.3505 20.1628 10.8143 19.7234C10.5764 19.5299 10.4252 19.2839 10.4252 19.2396C10.5582 19.3807 10.7417 19.4593 10.9352 19.4593C11.0844 19.4593 11.2336 19.4069 11.3666 19.3101C11.4835 19.2134 11.5601 19.0904 11.5964 18.9573C11.7819 18.6409 12.2213 18.8949 12.2919 18.2457C12.1064 18.5078 11.7033 18.3324 11.6226 18.659C11.4553 17.9373 12.4935 18.4131 12.5036 17.3225C12.2475 17.7619 11.3404 17.6128 11.4029 18.157L11.3928 18.149C11.0421 17.0181 12.7676 17.7478 12.6709 16.2541ZM8.40127 14.72C8.27024 14.72 8.23395 14.5265 8.43755 14.5265C8.58068 14.5265 8.7097 14.5708 8.7097 14.5708C8.7097 14.5708 8.52625 14.72 8.40127 14.72Z" fill="#C88C28"/>
</svg>
