<svg width="25" height="32" viewBox="0 0 25 32" fill="none" xmlns="http://www.w3.org/2000/svg">
<path d="M12.2639 26.9844C11.1054 26.9819 9.95909 26.7477 8.89249 26.2954C7.82589 25.8431 6.86058 25.182 6.05341 24.3509L8.88376 16.2224C9.14971 17.2384 9.71502 19.346 9.71411 19.3419L9.83735 19.8916C9.96066 20.3372 10.0352 20.7948 10.0595 21.2564C10.0595 21.849 9.84171 22.3771 9.16437 23.0892L9.2739 23.4148C9.72138 23.6614 10.217 23.8079 10.7267 23.8441C10.8729 24.5468 11.6947 25.6168 12.2708 26.1115C12.848 25.6168 13.6701 24.5469 13.8162 23.8441C14.3259 23.8078 14.8217 23.6614 15.2694 23.4148L15.3792 23.0892C14.7017 22.3771 14.4837 21.849 14.4837 21.2564C14.5079 20.7948 14.5824 20.3371 14.7059 19.8916L14.8292 19.3419C14.8282 19.346 15.3936 17.2384 15.6595 16.2224L18.5134 24.3125C17.7048 25.155 16.7346 25.8259 15.6608 26.285C14.5871 26.744 13.4317 26.9819 12.2639 26.9844ZM3.38357 17.7609C3.3748 16.2837 3.71742 14.8256 4.38316 13.5069C5.04889 12.1882 6.01866 11.0468 7.21244 10.1767C6.99343 12.8708 5.33196 17.6842 4.0334 21.2245C3.60278 20.1206 3.38238 18.9458 3.38357 17.7609ZM14.5685 8.85298C14.5155 9.43599 14.4159 10.0138 14.2707 10.5809C14.2707 10.5809 14.1449 11.1502 14.1417 11.1625C14.1405 11.1663 12.5346 17.6219 12.2712 18.6289C12.0083 17.622 10.4021 11.1663 10.4012 11.1625C10.3989 11.1502 10.2729 10.5809 10.2729 10.5809C10.1268 10.0124 10.0269 9.43312 9.97412 8.84857C11.4775 8.43245 13.0659 8.43398 14.5685 8.85298ZM21.1442 17.7608C21.1451 18.9139 20.9363 20.0576 20.528 21.136C19.2192 17.6097 17.5572 12.8628 17.3322 10.189C18.5211 11.0597 19.4866 12.2 20.1492 13.5163C20.8119 14.8325 21.1529 16.2872 21.1442 17.7608ZM21.8523 24.6769C21.7804 24.4783 21.6966 24.2515 21.6029 24.0015C23.1293 22.2732 24.0374 20.1097 24.0374 17.7608C24.0374 13.7221 21.3536 10.2294 17.4541 8.55947C17.624 7.77148 17.901 7.01044 18.2772 6.29752C18.4094 6.07834 18.5571 5.86896 18.7193 5.67098C18.7262 5.66376 18.7647 5.62409 18.7647 5.62409L18.7614 5.6201C18.9631 5.37877 19.1892 5.15886 19.4361 4.96387L19.2749 4.58789C18.4912 4.93314 16.8391 5.72 15.8237 6.63796C15.3357 6.18372 14.4233 5.71923 13.7483 5.50553L13.6206 5.8151C13.6783 5.86847 13.7264 5.93138 13.7629 6.00107L13.7681 6.00828L13.7733 6.01509C14.1503 6.51008 14.4045 7.08751 14.5148 7.69989C13.03 7.45035 11.5139 7.44969 10.0289 7.69794C10.1392 7.08614 10.3934 6.50934 10.7705 6.01509L10.7753 6.00828L10.78 6.00107C10.8169 5.93164 10.865 5.86879 10.9224 5.8151L10.795 5.50553C10.1199 5.71923 9.20726 6.18373 8.71917 6.63796C7.70426 5.72001 6.05137 4.93314 5.26827 4.58789L5.10718 4.96387C5.35393 5.15902 5.58005 5.3789 5.78202 5.6201L5.77888 5.62409C5.77888 5.62409 5.81706 5.66377 5.82423 5.67098C5.98618 5.86904 6.13376 6.07842 6.26584 6.29752C6.64128 7.00918 6.91791 7.76871 7.08807 8.55513C3.18303 10.2232 0.494398 13.7183 0.494398 17.7609C0.494398 20.1361 1.4227 22.3224 2.98031 24.06C2.89611 24.2872 2.81995 24.4939 2.75349 24.6769C2.16388 26.0011 1.23405 27.1455 0.0585938 27.9936L0.21347 28.3166C3.06556 27.917 4.03839 28.2155 4.67306 28.3159L5.44053 26.1117C7.49478 27.3671 9.85854 28.0243 12.2659 28.0096C14.692 28.0247 17.0734 27.3568 19.1379 26.0824L19.926 28.3166C20.5605 28.2161 21.5376 27.917 24.39 28.3166L24.5473 27.9936C23.3719 27.1454 22.442 26.0011 21.8523 24.6769Z" fill="#0097D7"/>
<path d="M12.2707 0L11.7423 1.64222H10.0146L11.4151 2.66499L10.8919 4.31102L12.286 3.29134L13.6892 4.29727L13.1511 2.65723L14.5421 1.64223H12.8148L12.2707 0Z" fill="#C5A459"/>
<path d="M0.950773 30.4875H0.727264V31.5666H0.971107C1.17433 31.5666 1.33683 31.4993 1.33683 30.98C1.33683 30.5441 1.17029 30.4875 0.950773 30.4875ZM1.81634 31.7418C1.58917 31.9092 1.30941 31.9893 1.02807 31.9677H0V30.092H0.999567C1.23015 30.0817 1.46024 30.1212 1.67418 30.2078C1.99514 30.3558 2.13731 30.6139 2.13731 30.9962C2.14906 31.1373 2.12593 31.2791 2.06996 31.4091C2.01399 31.5391 1.92689 31.6534 1.81634 31.7418ZM3.22643 30.4875V30.8698H3.43368C3.68166 30.8698 3.76686 30.7916 3.76686 30.6652C3.76686 30.5306 3.65724 30.4875 3.42959 30.4875H3.22643ZM3.85623 31.9677L3.5596 31.443C3.44993 31.249 3.38489 31.2249 3.22643 31.2249V31.9677H2.49902V30.092H3.47435C4.30734 30.092 4.57546 30.3154 4.57546 30.6274C4.57546 30.9505 4.31959 31.1148 3.98637 31.1523C4.10162 31.1848 4.20209 31.2561 4.27075 31.3542C4.36417 31.4805 4.60397 31.8278 4.69752 31.9677L3.85623 31.9677ZM6.51792 31.0178C6.51792 30.5495 6.37979 30.4365 6.06691 30.4365C5.73777 30.4365 5.59951 30.6652 5.59951 31.0231C5.59951 31.5021 5.77426 31.6207 6.07503 31.6207C6.38383 31.6207 6.51792 31.4993 6.51792 31.0178ZM4.78682 31.077C4.78682 30.4096 5.33951 30.0598 6.08711 30.0598C7.05027 30.0598 7.33074 30.5466 7.33074 30.9583C7.33074 31.4968 7.07464 31.9999 6.06287 31.9999C5.24191 31.9999 4.78682 31.6395 4.78682 31.077ZM7.69241 31.9677V30.092H8.43597V31.9677H7.69241ZM10.7807 30.4903H10.1223V31.9677H9.38687V30.4903H8.7286V30.092H10.866L10.7807 30.4903ZM12.8855 30.8939C12.8573 30.8084 12.8397 30.7199 12.8328 30.6301C12.8197 30.7326 12.7937 30.833 12.7555 30.929L12.6417 31.2358H13.0074L12.8855 30.8939ZM13.3 31.9677L13.1538 31.6072H12.4832L12.3287 31.9677H11.5649L12.4752 30.092H13.2307L14.0883 31.9677H13.3ZM16.3312 31.3892C16.3482 31.4973 16.3236 31.6079 16.2624 31.6986C16.1445 31.8547 15.8273 31.9999 15.2667 31.9999C14.8198 31.9999 14.5109 31.9192 14.3402 31.7659C14.2346 31.6636 14.2019 31.6179 14.2019 31.3676V30.092H14.9334V31.3166C14.9334 31.4887 15.0147 31.6044 15.2706 31.6044C15.5309 31.6044 15.604 31.5074 15.604 31.3248V30.092H16.3312L16.3312 31.3892ZM18.7329 31.1956H18.4647V31.5666H18.7409C18.924 31.5666 19.0009 31.4887 19.0009 31.3729C19.0009 31.2787 18.9564 31.1956 18.7329 31.1956ZM18.4647 30.4875V30.8132H18.7531C18.9279 30.8132 18.989 30.7325 18.989 30.6355C18.989 30.5388 18.9158 30.4875 18.745 30.4875H18.4647ZM18.8873 31.9677H17.7373V30.092H18.9928C19.4033 30.092 19.7366 30.2078 19.7366 30.5522C19.7366 30.7216 19.6309 30.8992 19.3179 30.9665C19.5943 31.015 19.8381 31.163 19.8381 31.3892C19.8381 31.7308 19.5335 31.9677 18.8873 31.9677ZM22.3089 31.3892C22.3258 31.4974 22.3011 31.6079 22.2397 31.6986C22.1218 31.8547 21.8048 31.9999 21.2442 31.9999C20.7971 31.9999 20.4883 31.9192 20.3178 31.7659C20.2119 31.6636 20.1795 31.6179 20.1795 31.3676V30.092H20.911V31.3166C20.911 31.4887 20.9923 31.6044 21.2482 31.6044C21.5082 31.6044 21.5814 31.5074 21.5814 31.3248V30.092H22.3089V31.3892ZM24.6494 30.4903H23.9911V31.9677H23.2556V30.4903H22.5973V30.092H24.7348L24.6494 30.4903Z" fill="#C5A459"/>
</svg>
