<svg width="20" height="32" viewBox="0 0 20 32" fill="none" xmlns="http://www.w3.org/2000/svg">
<path fill-rule="evenodd" clip-rule="evenodd" d="M9.89652 31.1788C14.8438 31.1788 18.9715 24.383 18.9715 16C18.9715 7.61721 14.8438 0.821175 9.89652 0.821175C4.94912 0.821175 0.821175 7.61703 0.821175 16C0.821346 24.383 4.94929 31.1788 9.89652 31.1788Z" fill="white"/>
<path d="M9.89652 30.3576C12.0706 30.3576 14.0995 28.8008 15.6032 26.286C17.171 23.6632 18.1505 20.0296 18.1505 15.9998C18.1505 11.9702 17.171 8.33644 15.6032 5.71402C14.0995 3.19901 12.0708 1.64218 9.89652 1.64218C7.72223 1.64218 5.69366 3.19901 4.19003 5.71402C2.62208 8.33644 1.64235 11.9704 1.64235 15.9998C1.64235 20.0296 2.62208 23.6636 4.19003 26.286C5.69366 28.801 7.7224 30.3576 9.89652 30.3576ZM9.89652 32C7.10733 32 4.58479 30.1365 2.78508 27.1263C1.07107 24.2596 0 20.326 0 16C0 11.674 1.0709 7.74053 2.78508 4.87368C4.58496 1.86351 7.1075 0 9.89652 0C12.6857 0 15.2079 1.86351 17.008 4.87368C18.722 7.74053 19.7927 11.674 19.7927 16C19.7927 20.326 18.722 24.2593 17.008 27.1263C15.2081 30.1365 12.6859 32 9.89652 32Z" fill="black"/>
<path d="M9.89652 30.8855C12.2685 30.8855 14.4557 29.2301 16.0544 26.5561C17.6692 23.8551 18.6785 20.1249 18.6785 16C18.6785 11.8751 17.6694 8.14504 16.0544 5.44394C14.4557 2.76986 12.2685 1.11451 9.89652 1.11451C7.52467 1.11451 5.33721 2.76986 3.73848 5.44394C2.12349 8.14504 1.11451 11.8751 1.11451 16C1.11451 20.1249 2.12332 23.8551 3.73848 26.5561C5.33721 29.2303 7.52467 30.8855 9.89652 30.8855ZM9.89652 31.4722C7.30505 31.4722 4.94125 29.7073 3.23664 26.8564C1.56949 24.0679 0.527837 20.2309 0.527837 16C0.527837 11.7693 1.56949 7.93227 3.23664 5.14393C4.94125 2.29282 7.30505 0.528008 9.89652 0.528008C12.488 0.528008 14.8518 2.29282 16.5562 5.14393C18.2232 7.93227 19.2649 11.7693 19.2649 16C19.2649 20.2307 18.2232 24.0679 16.5562 26.8564C14.852 29.7073 12.488 31.4722 9.89652 31.4722Z" fill="#CA2E31"/>
<path fill-rule="evenodd" clip-rule="evenodd" d="M8.36979 24.3869V7.88677H6.84871V23.8006L8.36979 24.3869Z" fill="black"/>
<path fill-rule="evenodd" clip-rule="evenodd" d="M6.84478 23.8006V7.88677L5.3237 8.82511V23.2141L6.84478 23.8006Z" fill="#CA2E31"/>
<path fill-rule="evenodd" clip-rule="evenodd" d="M5.31993 23.2141V8.82511L3.79885 9.99829V22.0411L5.31993 23.2141Z" fill="black"/>
<path fill-rule="evenodd" clip-rule="evenodd" d="M3.79492 22.0411V9.99829L2.27401 12.3441V19.6949L3.79492 22.0411Z" fill="#CA2E31"/>
<path fill-rule="evenodd" clip-rule="evenodd" d="M2.27008 19.9295V11.9923L1.57017 13.7518V18.522L2.27008 19.9295Z" fill="black"/>
<path d="M13.1224 24.0936H12.5359V7.93569H13.1224V24.0936ZM15.2337 22.9796H14.6471V9.05003H15.2337V22.9796Z" fill="black"/>
<path d="M18.4447 16.7656V17.3517H9.89943V16.7656H18.4447ZM18.4447 14.6539V15.2406H9.89943V14.6539H18.4447Z" fill="black"/>
<path fill-rule="evenodd" clip-rule="evenodd" d="M18.4986 15.2356H14.6452V9.17711L13.1241 8.2386V15.2356H9.89464V7.4176L8.37356 7.6521V24.3869H9.89464V16.7565H13.1241V23.8006L14.6452 23.2141V16.7565H18.4986V15.2356Z" fill="#CA2E31"/>
<path d="M10.483 24.7097H9.89635V7.34918H10.483V24.7097Z" fill="black"/>
<path d="M9.89652 24.1671C12.1515 24.1671 14.1934 23.2527 15.6713 21.7749C17.1491 20.2971 18.0635 18.2552 18.0635 16C18.0635 13.7448 17.1491 11.7029 15.6713 10.2251C14.1934 8.74728 12.1515 7.83306 9.89652 7.83306C7.64115 7.83306 5.59942 8.74728 4.12144 10.2251C2.64363 11.7031 1.72941 13.7448 1.72941 16C1.72941 18.2555 2.64363 20.2973 4.12144 21.7749C5.59942 23.2527 7.64132 24.1671 9.89652 24.1671ZM9.89652 24.7538C7.47935 24.7538 5.29086 23.7739 3.70683 22.1899C2.12281 20.6058 1.14291 18.4172 1.14291 16.0002C1.14291 13.5832 2.12281 11.3947 3.70683 9.81048C5.29086 8.22629 7.47935 7.24656 9.89652 7.24656C12.3135 7.24656 14.502 8.22646 16.0862 9.81048C17.6701 11.3945 18.6498 13.583 18.6498 16.0002C18.6498 18.4173 17.6699 20.6058 16.0862 22.1899C14.5022 23.7739 12.3137 24.7538 9.89652 24.7538Z" fill="black"/>
<path fill-rule="evenodd" clip-rule="evenodd" d="M5.63961 24.9115L5.71727 24.9395C6.24134 25.1292 6.47054 24.9325 6.5499 24.7498L6.99632 24.9111L6.08997 27.4173L5.5464 27.2209L6.1707 25.4947L5.51458 25.2575L5.63961 24.9115ZM8.21209 26.287C7.96716 26.2499 7.86642 26.0602 7.88985 25.9042C7.9191 25.7115 8.07406 25.5982 8.33114 25.637C8.51501 25.6648 8.64688 25.8137 8.61661 26.0142C8.58787 26.2035 8.4365 26.3212 8.21209 26.287ZM9.09382 27.2214C9.14547 26.88 9.01548 26.6896 8.75721 26.5215C9.00676 26.4454 9.13795 26.2677 9.17215 26.041C9.22723 25.6776 8.95767 25.3064 8.35748 25.2156C7.85136 25.1391 7.41418 25.3502 7.34628 25.7992C7.30916 26.0441 7.40648 26.2299 7.61926 26.3681C7.15026 26.487 7.09758 26.8357 7.0774 26.9695C7.02301 27.3295 7.2132 27.81 7.96049 27.9232C8.72779 28.0393 9.04319 27.5556 9.09382 27.2214ZM8.50252 27.155C8.47498 27.3367 8.32532 27.5532 8.02737 27.5081C7.76601 27.4687 7.63209 27.2775 7.67023 27.0251C7.7135 26.7394 7.9321 26.6472 8.14025 26.6787C8.45874 26.7268 8.53057 26.9693 8.50252 27.155ZM10.1917 26.207C10.1603 25.8255 10.4223 25.7359 10.5703 25.7236C10.8665 25.6988 11.0259 25.8739 11.0512 26.1769C11.0772 26.4912 10.8658 26.6406 10.664 26.6573C10.4462 26.6753 10.2251 26.6072 10.1917 26.207ZM9.76978 27.4132C9.85427 27.8317 10.234 28.064 10.7319 28.0224C11.2587 27.979 11.7658 27.6015 11.6807 26.5728C11.6495 26.1986 11.551 25.2088 10.5388 25.2927C9.96665 25.3401 9.56812 25.6783 9.622 26.3294C9.65894 26.7745 10.0159 27.1328 10.5756 27.0865C10.7729 27.07 10.9955 27.0062 11.1125 26.8159L11.1215 26.8225C11.1636 27.3805 10.94 27.5835 10.7013 27.6032C10.5242 27.6179 10.3903 27.5498 10.3421 27.3694L10.3417 27.3658L9.76978 27.4132ZM12.6547 25.8054C12.5311 25.4429 12.7634 25.2922 12.904 25.2442C13.1855 25.1482 13.3827 25.2792 13.4809 25.5669C13.5828 25.8656 13.414 26.0617 13.2226 26.1271C13.0155 26.1979 12.7847 26.1852 12.6547 25.8054ZM12.5395 27.0781C12.7232 27.4636 13.1482 27.5962 13.6208 27.4349C14.1213 27.2642 14.5212 26.7745 14.188 25.7977C14.0667 25.4426 13.7296 24.5065 12.7685 24.8342C12.2253 25.0196 11.921 25.4448 12.1317 26.0629C12.2761 26.4859 12.7097 26.7464 13.2411 26.5651C13.4285 26.501 13.629 26.385 13.6957 26.1719L13.7061 26.1762C13.8828 26.7071 13.7156 26.9582 13.4889 27.0357C13.321 27.0928 13.1742 27.0598 13.0837 26.8964L13.0824 26.8928L12.5395 27.0781ZM10.0383 3.3018C9.22347 3.31532 8.50663 3.95638 8.51963 4.73446C8.53246 5.5074 9.264 6.12452 10.0848 6.11084C10.4894 6.10416 10.8682 5.95929 11.1342 5.70957L11.545 6.08672C11.1752 6.4288 10.6568 6.63987 10.0877 6.64928C8.91508 6.6686 7.93911 5.81562 7.92132 4.74421C7.90353 3.6728 8.83332 2.78303 10.0296 2.76319C10.5981 2.75378 11.1116 2.93731 11.4869 3.27769L11.0887 3.66818C10.8147 3.42769 10.4488 3.29513 10.0383 3.3018ZM12.477 3.4489L11.5387 6.71872L12.008 6.83588L12.5942 4.95903L13.0637 7.18772H13.2835L13.8847 5.78021L14.6033 7.90627L15.2779 8.37544L14.2218 4.73925L13.797 4.48987L13.3422 5.72154L12.9317 3.6834L12.477 3.4489ZM8.21038 6.73326L7.30129 3.44873L6.50953 3.90336L4.26614 8.47806L5.17523 7.89156L5.76174 6.70401L7.37467 6.08809L7.60934 6.87984L8.21038 6.73326ZM6.0549 6.00017L6.93475 4.22612L7.24262 5.531L6.0549 6.00017Z" fill="black"/>
</svg>
