<svg width="31" height="31" viewBox="0 0 31 31" fill="none" xmlns="http://www.w3.org/2000/svg">
<circle cx="15.4725" cy="15.4725" r="15.0892" fill="white"/>
<path d="M15.5 0C6.9394 0 0 6.9394 0 15.5C0 24.0606 6.9394 31 15.5 31C24.0606 31 31 24.0606 31 15.5C31 6.9394 24.0606 0 15.5 0ZM15.5 0.657244C19.4654 0.657244 23.1897 2.20179 25.994 5.00603C28.7982 7.81027 30.3428 11.5346 30.3428 15.5C30.3428 19.4654 28.7982 23.1897 25.994 25.994C23.1897 28.7982 19.4654 30.3428 15.5 30.3428C11.5346 30.3428 7.81029 28.7982 5.00057 25.994C2.20181 23.1897 0.657244 19.4654 0.657244 15.5C0.657244 11.5346 2.20179 7.81027 5.00603 5.00603C7.81027 2.20179 11.5346 0.657244 15.5 0.657244Z" fill="#000035" fill-opacity="0.985646"/>
<path d="M15.5 4.11865C9.22329 4.11865 4.11865 9.22329 4.11865 15.5C4.11865 21.7766 9.22329 26.8813 15.5 26.8813C21.7766 26.8813 26.8813 21.7766 26.8813 15.5C26.8813 9.22329 21.7766 4.11865 15.5 4.11865ZM15.5 4.55681C21.5357 4.55681 26.4431 9.46428 26.4431 15.5C26.4431 21.5357 21.5357 26.4431 15.5 26.4431C9.46428 26.4431 4.55681 21.5357 4.55681 15.5C4.55681 9.46428 9.46428 4.55681 15.5 4.55681Z" fill="#000035" fill-opacity="0.985646"/>
<path d="M9.03174 8.9879H13.03L19.5367 16.7653C19.5805 16.8146 19.6572 16.7872 19.6572 16.7215V10.8775C19.6572 10.1326 19.0547 9.53013 18.3098 9.53013H17.91V8.98242H21.963V9.53013H21.6946C21.0264 9.53013 20.4842 10.0724 20.4842 10.7405V21.9082H19.9529L11.6279 11.951C11.6059 11.9236 11.5567 11.94 11.5567 11.9784V19.6626C11.5567 20.4513 12.1975 21.0921 12.9862 21.0921H13.3093V21.5851H9.03722V21.0921H9.47538C10.1436 21.0921 10.6858 20.5499 10.6858 19.8817V10.8172L10.0779 10.0943L9.85329 9.82588C9.69446 9.63967 9.46442 9.53013 9.22343 9.53013H9.04269V8.9879H9.03174Z" fill="#000035" fill-opacity="0.985646"/>
</svg>
