<svg width="24" height="32" viewBox="0 0 24 32" fill="none" xmlns="http://www.w3.org/2000/svg">
<path d="M20.0916 11.9085C17.9617 9.7785 15.0203 8.45996 11.7701 8.45996C8.51981 8.45996 5.57845 9.7785 3.44849 11.9085C1.31854 14.0384 0 16.9798 0 20.23C0 23.4803 1.31854 26.4216 3.44849 28.5516C5.57845 30.6815 8.51981 32.0001 11.7701 32.0001C15.0203 32.0001 17.9617 30.6815 20.0916 28.5516C22.2216 26.4216 23.5401 23.4803 23.5401 20.23C23.5355 16.9798 22.2216 14.0384 20.0916 11.9085Z" fill="#22558C"/>
<path d="M11.7701 8.89331C13.2961 8.89331 14.7575 9.19759 16.0991 9.75543C17.4914 10.3317 18.7408 11.1754 19.7828 12.2127C20.8247 13.2546 21.6637 14.504 22.24 15.8963C22.7933 17.2379 23.1022 18.6994 23.1022 20.2254C23.1022 21.7514 22.7979 23.2129 22.24 24.5545C21.6637 25.9468 20.8201 27.1961 19.7828 28.2381C18.7408 29.28 17.4914 30.1191 16.0991 30.6954C14.7575 31.2486 13.2961 31.5575 11.7701 31.5575C10.2441 31.5575 8.778 31.2532 7.44101 30.6954C6.04871 30.1191 4.79932 29.2754 3.7574 28.2381C2.71547 27.1961 1.8764 25.9468 1.30011 24.5545C0.746877 23.2129 0.437988 21.7514 0.437988 20.2254C0.437988 18.6994 0.742267 17.2333 1.30011 15.8963C1.8764 14.504 2.72008 13.2546 3.7574 12.2127C4.79932 11.1708 6.04871 10.3317 7.44101 9.75543C8.778 9.2022 10.2441 8.89331 11.7701 8.89331Z" fill="#FED32C"/>
<path d="M21.272 16.2973C20.751 15.0387 19.9857 13.9046 19.0406 12.9595C18.0955 12.0144 16.9614 11.2491 15.7028 10.7281C14.4903 10.2256 13.1625 9.94897 11.7748 9.94897C10.3825 9.94897 9.05474 10.2256 7.84684 10.7281C6.58823 11.2491 5.4541 12.0144 4.509 12.9595C3.55928 13.9046 2.79858 15.0387 2.27762 16.2973C1.76588 17.5098 1.48926 18.8376 1.48926 20.2299C1.48926 21.6222 1.76587 22.95 2.2684 24.1579C2.78936 25.4165 3.55467 26.5506 4.49977 27.4957C5.44949 28.4408 6.57901 29.2061 7.83762 29.7271C9.05013 30.2296 10.3779 30.5062 11.7656 30.5062C13.1579 30.5062 14.4857 30.2296 15.6936 29.7271C16.9522 29.2061 18.0863 28.4408 19.0314 27.4957C19.9765 26.546 20.7418 25.4165 21.2628 24.1579C21.7653 22.9454 22.0419 21.6176 22.0419 20.2299C22.0511 18.8376 21.7745 17.5098 21.272 16.2973Z" fill="#22558C"/>
<path d="M16.6933 25.152C19.4119 22.4334 19.4119 18.0256 16.6933 15.307C13.9747 12.5884 9.5669 12.5884 6.84828 15.307C4.12966 18.0256 4.12966 22.4334 6.84828 25.152C9.5669 27.8706 13.9747 27.8706 16.6933 25.152Z" fill="#FED32C"/>
<path fill-rule="evenodd" clip-rule="evenodd" d="M6.00244 17.1779L6.42198 17.5236L6.64327 17.1548C6.68937 17.5421 6.80924 17.8002 6.94755 18.0077C7.12735 18.2797 7.35326 18.3719 7.44085 18.6946C7.47312 18.8145 7.67137 19.0681 7.89727 19.2755C8.18311 19.5337 8.38135 19.6444 8.53349 19.755V20.1423C8.39057 20.3313 8.23843 20.5526 8.44589 20.7324C8.59803 20.8661 8.67641 20.8753 8.92075 20.9306V21.2718C9.05906 21.3917 9.09594 21.4608 9.17893 21.6637C9.25269 21.8389 9.32185 22.0141 9.37717 22.2307C9.58002 22.2907 9.75061 22.3737 9.93041 22.5535V23.4617L10.1932 23.6046C10.2116 24.0841 10.4099 24.1486 10.5205 24.4206C10.7603 24.3653 11.0046 24.333 11.2443 24.3376V24.1394C11.4841 24.1302 11.5624 24.0887 11.6961 24.0426C12.0557 23.9227 12.0834 23.8213 12.2955 23.706C12.4983 23.5908 12.7657 23.5354 13.0147 23.4017C13.1991 23.3049 13.5126 23.1113 13.7339 22.973C13.8953 22.8716 14.0289 22.8024 14.0889 22.6595C14.1119 22.5996 14.1119 22.5304 14.1119 22.429C14.3194 22.4244 14.4761 22.4013 14.6098 22.3091C14.7297 22.2261 14.7989 22.2123 14.951 22.1662V21.8896H15.1861C15.2415 21.7282 15.2829 21.6406 15.3982 21.5761C15.4581 21.5392 15.5181 21.5115 15.5872 21.4839C15.7394 21.4193 15.6979 21.1658 15.9468 21.1565L16.0575 20.2391L16.6799 20.1192V19.1972C16.5231 19.1096 16.4862 18.9989 16.3157 18.939C16.1174 18.8744 15.8638 18.833 15.6195 18.7915C15.2737 18.7315 15.223 18.5702 15.2138 18.418C15.2092 18.3397 15.1954 18.2428 15.117 18.1921C15.0386 18.146 15.0386 18.1552 14.9602 18.1045C14.8081 18.0123 14.7435 18.1506 14.5684 18.2659C14.4531 18.3443 14.5776 18.5102 14.4577 18.6532C14.3286 18.8007 13.7062 18.8007 13.5264 18.833C13.4388 18.6993 13.425 18.6439 13.3835 18.4918C13.3466 18.3489 13.3743 18.2567 13.1438 18.2567C13.0239 18.2567 12.964 18.2797 12.8856 18.335C12.8856 18.1276 12.881 17.957 12.6735 17.7127C12.6274 17.6573 12.4338 17.5052 12.3923 17.4453C12.3093 17.33 12.3093 17.3023 12.2678 17.2194C12.2448 17.1825 12.1941 17.1225 12.1157 17.1225C12.065 17.1225 12.0511 17.058 12.0419 16.975C12.0281 16.7952 11.899 16.7583 11.8252 16.6154L12.1664 16.5924L12.1618 16.2466L12.7288 16.3065C12.7519 16.5601 12.8211 16.7168 12.9225 16.8874C13.0654 17.1225 13.1346 17.0211 13.236 17.0949C13.3051 17.1456 13.3328 17.2424 13.4066 17.2885C13.4619 17.3208 13.5864 17.3162 13.6463 17.3438C13.7247 17.3807 13.7616 17.4775 13.8399 17.5052C14.1212 17.6112 14.4024 17.6066 14.6974 17.6066C14.8726 17.6066 15.0386 17.3715 15.2092 17.4176C15.4074 17.4729 15.389 17.5928 15.4766 17.6942C15.5227 17.7495 15.5734 17.8141 15.6333 17.851C15.7255 17.9063 15.8592 17.9339 16.0206 17.9339C16.2465 17.9339 16.3341 17.8141 16.6753 17.8049C16.7352 17.6804 16.7721 17.3761 16.7859 17.2101C17.3069 18.2843 17.4406 19.1234 17.4267 20.0547C17.4083 21.2395 17.104 22.3137 16.5047 23.2588C15.8915 24.2316 14.9694 25.0661 13.7339 25.6377V24.7802C13.6186 24.605 13.6002 24.5866 12.8118 24.6742C12.5905 24.6972 12.3646 24.7526 12.1987 24.8402C11.9635 24.96 11.8022 25.1168 11.4795 25.1168C11.3273 25.1168 11.0738 25.4026 10.7095 25.3473V24.9001C10.5159 24.8632 10.2946 24.8678 10.0779 24.7249L10.1517 24.2731C9.90274 24.1394 9.76444 24.0564 9.63535 23.6277H9.41866C9.23425 23.4801 8.93458 23.3464 8.75478 23.1666C8.73173 23.1436 8.58881 22.9499 8.5381 22.8762L8.51505 22.1063C8.34447 21.9772 8.03097 21.885 7.80967 21.5392C7.68981 21.3502 7.6852 21.009 7.65292 20.8015C7.61604 20.5756 7.43624 20.0731 7.29793 20.0316C7.19651 20.004 7.12274 19.9302 7.05359 19.8426C6.96138 19.7273 6.91528 19.6766 6.87379 19.6121L6.78619 18.6117L6.32055 18.2935L6.40815 17.8464L6.00244 17.1779Z" fill="#22558C"/>
<path fill-rule="evenodd" clip-rule="evenodd" d="M10.0545 17.1227C9.86087 17.1273 9.69951 17.0951 9.55659 17.0351L9.00336 17.4224C8.74979 17.6022 8.49162 17.4086 8.47318 16.9106C8.29798 17.3117 8.40402 17.5008 8.54694 17.6252C8.68525 17.7497 8.97109 17.8834 9.32608 17.6345L12.4749 22.1203L13.6505 21.2904C13.4523 21.2858 13.2771 21.2674 13.1434 21.2074L12.5625 21.6177L12.2167 21.1244C12.5394 20.917 12.6409 20.4928 12.4104 20.1563L11.5621 18.953L11.871 18.7363C11.6635 18.7594 11.4929 18.7317 11.3546 18.6579L10.7737 19.0683L9.62114 17.427L10.0545 17.1227ZM10.9812 19.3633L11.2716 19.1605L12.1291 20.3776C12.2767 20.5897 12.1614 20.7326 12.0139 20.8248L10.9812 19.3633Z" fill="#22558C"/>
<path fill-rule="evenodd" clip-rule="evenodd" d="M13.9825 20.585C14.107 20.585 14.2038 20.6818 14.2038 20.8063C14.2038 20.9261 14.107 21.0275 13.9825 21.0275C13.8627 21.0275 13.7612 20.9307 13.7612 20.8063C13.7612 20.6818 13.8627 20.585 13.9825 20.585Z" fill="#22558C"/>
<path d="M17.5006 5.28339C18.1368 4.43971 17.8741 3.56836 17.5283 3.09811C17.1549 2.59098 16.1498 2.09307 15.3292 2.36047C15.2185 2.20372 15.0203 2.23138 14.9327 2.39274C14.633 1.88561 14.0844 1.64587 13.4436 1.65509C13.0701 1.6597 12.6506 1.75191 12.1757 1.93171C12.1066 1.78418 12.0144 1.60438 11.8853 1.37387L12.1481 0.843683L12.1757 0.788359L12.1481 0.733035L11.8761 0.212073L11.77 0L11.6594 0.212073L11.3874 0.733035L11.3597 0.788359L11.3874 0.843683L11.6502 1.37387C11.5211 1.60899 11.4289 1.78418 11.3597 1.93171C10.8849 1.75191 10.4653 1.6597 10.0919 1.65509C9.45106 1.65048 8.90244 1.89022 8.60277 2.39274C8.51517 2.23138 8.32154 2.20372 8.20628 2.36047C7.38565 2.09307 6.38061 2.59098 6.00718 3.09811C5.66602 3.56836 5.40323 4.43971 6.03945 5.27878C6.03945 5.27878 6.03945 5.27878 6.03484 5.27878C5.88731 5.3802 5.84121 5.49546 5.74439 5.63377C5.93802 5.61533 6.11782 5.59228 6.29302 5.70293C6.38522 5.76286 6.43132 5.84123 6.50509 5.9611C6.36678 6.06714 6.38061 6.542 6.79554 6.43135C6.92923 6.60193 7.06754 6.7218 7.21046 6.814C7.34416 6.9016 7.49169 6.94309 7.61617 6.95231C7.58851 6.96614 7.56545 6.98458 7.54701 7.01225C7.52857 7.04452 7.51935 7.08601 7.52857 7.1275C7.53779 7.169 7.56545 7.20127 7.59773 7.22432C7.63 7.24276 7.67149 7.25198 7.71298 7.24276C7.74064 7.23815 7.76831 7.22893 7.79136 7.22432L7.84668 7.3488L7.56545 7.65769L8.04031 7.796L8.07258 7.86976C8.06336 7.87437 8.05414 7.87898 8.04953 7.8882C8.02648 7.90664 8.00804 7.92508 7.9896 7.94352C7.96194 7.98041 7.94811 8.02651 7.95733 8.068C7.95733 8.07722 7.96194 8.09105 7.96655 8.10027C7.97116 8.1095 7.97577 8.11411 7.98038 8.12333C8.04031 8.2017 8.13252 8.18787 8.26161 8.16482C8.28927 8.16021 8.31693 8.1556 8.3492 8.15099C8.47368 8.13255 8.61199 8.11411 8.72264 8.09566C8.85172 8.07722 8.96698 8.05878 9.00386 8.05417C9.3358 7.99885 9.783 7.95735 10.244 7.92969C10.765 7.89742 11.3182 7.87898 11.7654 7.87898C12.2126 7.87898 12.7612 7.89742 13.2868 7.92969C13.7525 7.95735 14.195 8.00346 14.527 8.05417C14.5639 8.05878 14.6791 8.07722 14.8082 8.09566C14.9189 8.11411 15.0572 8.13255 15.1816 8.15099C15.2139 8.1556 15.2416 8.16021 15.2692 8.16482C15.3983 8.18787 15.4905 8.2017 15.5505 8.12333C15.5551 8.11411 15.5597 8.1095 15.5643 8.10027C15.5689 8.09105 15.5735 8.07722 15.5735 8.068C15.5827 8.02651 15.5689 7.98041 15.5412 7.94352C15.5274 7.92508 15.5044 7.90664 15.4813 7.8882C15.4721 7.88359 15.4675 7.87898 15.4583 7.86976L15.4905 7.796L15.9654 7.65769L15.6842 7.3488L15.7395 7.22432C15.7672 7.22893 15.7902 7.23815 15.8179 7.24276C15.8594 7.25198 15.9009 7.24737 15.9331 7.22432C15.9654 7.20588 15.9931 7.169 16.0023 7.1275C16.0115 7.08601 16.0069 7.04452 15.9838 7.01225C15.97 6.98458 15.947 6.96614 15.9147 6.95231C16.0392 6.94309 16.1867 6.9016 16.3204 6.814C16.4587 6.72641 16.6016 6.60654 16.7353 6.43135C17.1502 6.542 17.1641 6.06714 17.0258 5.9611C17.0995 5.83662 17.1456 5.75825 17.2378 5.70293C17.413 5.59228 17.5928 5.61533 17.7865 5.63377C17.6989 5.50007 17.6482 5.38482 17.5006 5.28339ZM16.9151 2.97363C17.2701 3.25947 17.5836 3.90952 17.0765 4.6149L17.2332 5.24651C17.1871 5.26495 17.1456 5.29261 17.1134 5.32027C17.0995 5.24651 17.0719 5.17735 17.0396 5.12664C16.8736 5.23729 16.7952 5.32488 16.6892 5.58306C16.6615 5.55079 16.6339 5.52312 16.6016 5.50007C16.5325 5.45397 16.431 5.44475 16.3527 5.44936C16.242 5.45397 16.2097 5.34332 16.1821 5.25573C16.0853 5.29261 16.0807 5.40787 16.1268 5.52773C16.0161 5.57384 15.8778 5.63838 15.7718 5.6937L15.8732 5.79052C15.947 5.87812 16.053 5.95649 16.1498 6.03486C16.053 6.07636 16.0392 6.04409 15.9377 6.03025C15.9147 6.17317 16.1221 6.3207 16.3803 6.26999C16.3388 6.32531 16.3066 6.38064 16.2512 6.42213C16.1175 6.53278 15.9792 6.60654 15.864 6.60193C15.7625 6.60193 15.6934 6.5005 15.6427 6.41291C15.698 6.39908 15.7487 6.37142 15.7856 6.32992C15.8363 6.2746 15.864 6.20084 15.864 6.11785C15.864 6.03487 15.8317 5.9611 15.7856 5.91039C15.7349 5.85506 15.6611 5.81818 15.5781 5.81818C15.4951 5.81818 15.426 5.85506 15.3707 5.91039C15.32 5.96571 15.2923 6.03948 15.2923 6.11785C15.2923 6.17778 15.3107 6.23772 15.3384 6.28382C15.2324 6.35758 15.1033 6.44057 14.9834 6.44057C14.8728 6.44057 14.7621 6.33914 14.7022 6.25155C14.6376 6.15934 14.6008 6.02565 14.6054 5.88734C14.6054 5.8689 14.6054 5.85045 14.61 5.83201C14.6284 5.88734 14.7529 5.88273 14.8267 5.88273C14.9926 5.88273 15.0387 5.92422 15.1125 6.12246C15.2001 5.99337 15.1909 5.83662 15.1309 5.70753C15.3661 5.72598 15.449 5.65221 15.5874 5.5554C15.3753 5.49546 15.3338 5.35715 15.2001 5.24651C15.2554 5.16813 15.2877 5.08976 15.3015 5.01599C15.1863 5.02521 15.071 5.03904 14.9557 5.04826C14.9834 4.84541 15.0894 4.77165 15.2554 4.66561C15.1171 4.58723 15.0018 4.55957 14.8405 4.65178C14.8267 4.50886 14.7759 4.37977 14.7114 4.2599C15.0065 3.83576 15.1678 3.41622 15.1125 2.89065C15.9562 2.5541 16.5924 2.71085 16.9151 2.97363ZM11.77 7.05835H12.1619C12.2126 7.05835 12.2541 7.09984 12.2541 7.15055C12.2541 7.20127 12.2126 7.24276 12.1619 7.24276H11.77H11.3782C11.3274 7.24276 11.286 7.20127 11.286 7.15055C11.286 7.09984 11.3274 7.05835 11.3782 7.05835H11.77ZM10.8618 7.15517C10.8618 7.25659 10.788 7.33497 10.6958 7.33497C10.6036 7.33497 10.5299 7.25198 10.5299 7.15517C10.5299 7.05374 10.6036 6.97536 10.6958 6.97536C10.788 6.97536 10.8618 7.05374 10.8618 7.15517ZM10.2071 7.2151C10.2164 7.26581 10.1795 7.31191 10.1288 7.32113L9.51099 7.41334C9.46028 7.42256 9.41418 7.38568 9.40496 7.33497C9.39574 7.28425 9.43262 7.23815 9.48333 7.22893L10.1011 7.13672C10.1518 7.13211 10.1979 7.16439 10.2071 7.2151ZM9.03614 7.38107C9.03614 7.4825 8.96237 7.56087 8.87017 7.56087C8.77796 7.56087 8.70419 7.47789 8.70419 7.38107C8.70419 7.27964 8.77796 7.20127 8.87017 7.20127C8.96237 7.20127 9.03614 7.27964 9.03614 7.38107ZM12.6783 7.15517C12.6783 7.05374 12.752 6.97536 12.8442 6.97536C12.9364 6.97536 13.0102 7.05835 13.0102 7.15517C13.0102 7.25659 12.9364 7.33497 12.8442 7.33497C12.752 7.33497 12.6783 7.25659 12.6783 7.15517ZM13.3329 7.2151C13.3421 7.16439 13.3882 7.1275 13.439 7.13672L14.0567 7.22893C14.1074 7.23815 14.1443 7.28425 14.1351 7.33497C14.1259 7.38568 14.0798 7.42256 14.0291 7.41334L13.4113 7.32113C13.3606 7.31191 13.3283 7.26581 13.3329 7.2151ZM14.5039 7.38107C14.5039 7.27964 14.5777 7.20127 14.6699 7.20127C14.7621 7.20127 14.8359 7.28425 14.8359 7.38107C14.8359 7.4825 14.7621 7.56087 14.6699 7.56087C14.5823 7.56087 14.5039 7.4825 14.5039 7.38107ZM11.2583 2.21755C11.2076 2.40196 11.1984 2.57715 11.203 2.82611V2.87221C11.2076 3.13961 11.2122 3.40239 11.0693 3.58219L11.0186 3.64213L11.0601 3.70667L11.3228 4.14004C11.2583 4.13082 11.1799 4.14926 11.0831 4.19997C11.2537 4.26452 11.12 4.3936 11.12 4.48581C10.9125 4.49042 10.8019 4.49964 10.6497 4.43049C10.6451 4.61029 10.6543 4.68405 10.7558 4.83619C10.765 4.85463 10.7788 4.86846 10.7927 4.8869C10.6359 4.98833 10.6497 5.04365 10.4607 5.08515C10.5068 5.2419 10.576 5.36176 10.8111 5.38481C10.765 5.49085 10.7512 5.60611 10.7558 5.72598C10.8802 5.6937 10.9125 5.56462 10.9955 5.53234C11.1799 5.45858 11.3643 5.51851 11.5441 5.45858C11.6271 5.82279 11.2998 6.18239 11.037 6.18701C10.8849 6.19162 10.6774 6.04409 10.5345 5.85967C10.5714 5.80896 10.599 5.74442 10.599 5.67065C10.599 5.58767 10.5668 5.5139 10.5206 5.46319C10.4699 5.40787 10.3962 5.37098 10.3132 5.37098C10.2302 5.37098 10.161 5.40787 10.1057 5.46319C10.055 5.51851 10.0273 5.59228 10.0273 5.67065C10.0273 5.75364 10.0596 5.8274 10.1057 5.88273C10.138 5.915 10.1749 5.94266 10.2164 5.95649C10.1242 6.07636 10.0735 6.12707 9.98124 6.18239C9.88904 6.23772 9.79222 6.26538 9.71846 6.26077C9.60781 6.26077 9.48333 6.19161 9.38652 6.07636C9.32658 6.00259 9.26665 5.89656 9.24821 5.76286C9.32658 5.76286 9.41418 5.75364 9.48794 5.74442C9.68158 5.71676 9.70924 5.67526 9.89365 5.81357C9.87982 5.67526 9.87982 5.56923 9.80605 5.47702C9.89826 5.46319 9.99968 5.43092 10.0781 5.31566L10.1841 5.14969C10.1149 5.13125 10.055 5.14508 9.99046 5.14508C9.95358 5.13586 9.9167 5.1082 9.87521 5.08976C9.8291 5.0667 9.78761 5.03443 9.73229 5.01599C9.77839 4.91457 9.78761 4.71171 9.66313 4.61029C9.60781 4.79931 9.54327 4.83619 9.3773 4.83619C9.36808 4.67022 9.40496 4.53652 9.46028 4.38438C9.30353 4.36594 9.1975 4.43049 9.12373 4.56418C9.09607 4.49042 9.0638 4.42588 9.03153 4.36133L9.23438 4.01095C8.59816 3.20415 8.91166 2.51261 9.26665 2.21294C9.60781 1.93171 10.2671 1.80723 11.2583 2.21755ZM14.2688 2.21755C14.6238 2.51261 14.9373 3.20876 14.3011 4.01556L14.5039 4.36594C14.4717 4.43049 14.4394 4.49503 14.4117 4.56879C14.3426 4.4351 14.2319 4.37055 14.0752 4.38899C14.1305 4.54113 14.1674 4.67483 14.1582 4.8408C13.9922 4.83619 13.9276 4.80392 13.8723 4.6149C13.7478 4.71632 13.7571 4.91918 13.8032 5.0206C13.7478 5.03904 13.7064 5.07132 13.6603 5.09437C13.6188 5.11281 13.5819 5.14508 13.545 5.14969C13.4805 5.14508 13.4205 5.13586 13.3514 5.1543L13.4574 5.32027C13.5358 5.43553 13.6372 5.4678 13.7294 5.48163C13.6603 5.56923 13.6603 5.67526 13.6418 5.81818C13.8262 5.67987 13.8539 5.72137 14.0475 5.74903C14.1213 5.75825 14.2089 5.76747 14.2873 5.76747C14.2688 5.90578 14.2089 6.0072 14.1489 6.08097C14.0521 6.20084 13.9277 6.26538 13.817 6.26538C13.7432 6.26538 13.6464 6.24233 13.5542 6.18701C13.462 6.13168 13.4113 6.08097 13.3191 5.9611C13.3606 5.94727 13.4021 5.91961 13.4297 5.88734C13.4805 5.83201 13.5081 5.75825 13.5081 5.67526C13.5081 5.59228 13.4758 5.51851 13.4297 5.4678C13.379 5.41248 13.3053 5.37559 13.2223 5.37559C13.1393 5.37559 13.0701 5.41248 13.0148 5.4678C12.9641 5.52312 12.9364 5.59689 12.9364 5.67526C12.9364 5.74442 12.9595 5.80896 13.001 5.86428C12.8627 6.0487 12.6506 6.19622 12.4985 6.19161C12.2357 6.18239 11.9083 5.82279 11.9913 5.46319C12.1757 5.52773 12.3602 5.46319 12.54 5.53695C12.6183 5.56923 12.6506 5.69831 12.7797 5.73059C12.7889 5.61072 12.7751 5.49546 12.729 5.38942C12.9641 5.36176 13.0333 5.24651 13.0794 5.08976C12.8903 5.04826 12.9088 4.99294 12.7474 4.89151C12.7612 4.87768 12.7705 4.85924 12.7843 4.8408C12.8857 4.68866 12.8949 4.6149 12.8903 4.4351C12.7336 4.50425 12.6275 4.49503 12.4201 4.49042C12.4201 4.39821 12.2864 4.26913 12.457 4.20458C12.3555 4.15387 12.2772 4.14004 12.2172 4.14465L12.48 3.71128L12.5215 3.64674L12.4708 3.5868C12.3279 3.41161 12.3325 3.14883 12.3371 2.87682V2.83072C12.3417 2.57715 12.3325 2.40657 12.2818 2.22216C13.273 1.80723 13.9323 1.93171 14.2688 2.21755ZM14.5178 5.16813C14.6054 5.16813 14.6745 5.2419 14.6745 5.3341C14.6745 5.42631 14.6054 5.50007 14.5178 5.50007C14.4302 5.50007 14.361 5.42631 14.361 5.3341C14.3564 5.2419 14.4302 5.16813 14.5178 5.16813ZM11.77 2.6002C11.687 2.6002 11.6225 2.53566 11.6225 2.45267C11.6225 2.3743 11.687 2.30514 11.77 2.30514C11.8484 2.30514 11.9176 2.36969 11.9176 2.45267C11.9176 2.53566 11.8484 2.6002 11.77 2.6002ZM11.77 3.29636C11.8484 3.29636 11.9176 3.3609 11.9176 3.44388C11.9176 3.52226 11.853 3.59141 11.77 3.59141C11.687 3.59141 11.6225 3.52687 11.6225 3.44388C11.6225 3.3609 11.687 3.29636 11.77 3.29636ZM11.77 4.82236C11.8576 4.82236 11.9268 4.89612 11.9268 4.98833C11.9268 5.08054 11.8576 5.1543 11.77 5.1543C11.6824 5.1543 11.6133 5.08054 11.6133 4.98833C11.6133 4.89612 11.6824 4.82236 11.77 4.82236ZM9.18366 5.3341C9.18366 5.42631 9.11451 5.50007 9.02691 5.50007C8.93932 5.50007 8.87017 5.42631 8.87017 5.3341C8.87017 5.2419 8.93932 5.16813 9.02691 5.16813C9.1099 5.16813 9.18366 5.2419 9.18366 5.3341ZM10.1242 6.48667C10.221 6.43596 10.3132 6.36681 10.4008 6.27921C10.4792 6.34837 10.5668 6.40369 10.6451 6.44518C10.7051 6.47745 10.765 6.5005 10.8249 6.51433C10.7696 6.51433 10.7143 6.51895 10.659 6.52356C10.4008 6.53739 10.1472 6.55583 9.89365 6.57888C9.97202 6.56044 10.0458 6.52817 10.1242 6.48667ZM11.475 6.37603C11.581 6.30687 11.6824 6.21006 11.77 6.09941C11.8576 6.21006 11.9637 6.30687 12.0651 6.37603C12.1481 6.43596 12.2311 6.47745 12.3187 6.50511C12.1342 6.5005 11.9544 6.5005 11.77 6.5005C11.5902 6.5005 11.4058 6.5005 11.2214 6.50511C11.3044 6.47284 11.3874 6.43135 11.475 6.37603ZM12.8949 6.44518C12.9733 6.40369 13.0609 6.34837 13.1393 6.27921C13.2269 6.36681 13.3191 6.43596 13.4159 6.48667C13.4943 6.52817 13.568 6.55583 13.6418 6.57427C13.3882 6.55122 13.1301 6.53278 12.8765 6.51895C12.8212 6.51433 12.7659 6.51434 12.7105 6.50973C12.7751 6.5005 12.835 6.47745 12.8949 6.44518ZM8.16479 6.68953C8.27083 6.73563 8.36303 6.76329 8.45063 6.77712C8.29388 6.80478 8.13713 6.83706 7.98499 6.87394C8.04492 6.82322 8.11408 6.75868 8.16479 6.68953ZM9.12834 6.38064C9.18367 6.43596 9.22516 6.48206 9.28509 6.51895C9.38191 6.57888 9.511 6.60193 9.63086 6.60654C9.61703 6.60654 9.60781 6.61115 9.59398 6.61115C9.32197 6.63881 9.05919 6.6757 8.7964 6.71719C8.92549 6.65264 9.03153 6.53739 9.12834 6.38064ZM14.255 6.51895C14.3149 6.48206 14.3564 6.43596 14.4117 6.38064C14.5085 6.53739 14.6192 6.65264 14.7483 6.71719C14.4855 6.6757 14.2181 6.63881 13.9507 6.61115C13.9369 6.61115 13.9276 6.60654 13.9138 6.60654C14.0245 6.59732 14.1582 6.57427 14.255 6.51895ZM15.3753 6.68953C15.426 6.75868 15.4951 6.82322 15.5551 6.86933C15.4029 6.83706 15.2462 6.80478 15.0894 6.77251C15.177 6.76329 15.2692 6.73563 15.3753 6.68953ZM8.41836 2.89987C8.36303 3.42544 8.52439 3.84037 8.81945 4.26913C8.75491 4.3936 8.7042 4.51808 8.69036 4.661C8.529 4.56879 8.41375 4.59646 8.27544 4.67483C8.44141 4.78087 8.54745 4.85463 8.57511 5.05749C8.45985 5.04826 8.34459 5.03443 8.22934 5.02521C8.24317 5.10359 8.27544 5.18196 8.33076 5.25573C8.19706 5.36637 8.16018 5.50468 7.9435 5.56462C8.08181 5.66143 8.16479 5.7352 8.39992 5.71676C8.33998 5.85045 8.33076 6.00259 8.41836 6.13168C8.49212 5.92883 8.53822 5.89195 8.70419 5.89195C8.77796 5.89195 8.90244 5.89656 8.92088 5.84123C8.92088 5.85967 8.92549 5.87812 8.92549 5.89656C8.92549 6.03486 8.89322 6.16856 8.82867 6.26077C8.76874 6.34836 8.65809 6.44979 8.54745 6.44979C8.42758 6.44979 8.29849 6.36681 8.19245 6.29304C8.22472 6.24694 8.23856 6.187 8.23856 6.12707C8.23856 6.04409 8.20628 5.97032 8.16018 5.91961C8.10947 5.86428 8.0357 5.8274 7.95272 5.8274C7.86973 5.8274 7.80058 5.86428 7.74526 5.91961C7.69454 5.97493 7.66688 6.0487 7.66688 6.12707C7.66688 6.21006 7.69915 6.28382 7.74526 6.33914C7.78214 6.38064 7.83285 6.41291 7.88817 6.42213C7.83746 6.50972 7.76831 6.61115 7.66688 6.61115C7.54701 6.61115 7.41331 6.542 7.27962 6.43135C7.2289 6.38986 7.19202 6.33453 7.15053 6.27921C7.4087 6.32531 7.61617 6.17778 7.59312 6.03948C7.49169 6.0487 7.47786 6.08558 7.38104 6.04409C7.47786 5.96571 7.58389 5.88273 7.65766 5.79974L7.75909 5.70293C7.65305 5.64299 7.51935 5.57845 7.40409 5.53695C7.4502 5.41709 7.4502 5.30183 7.34877 5.26495C7.32111 5.35254 7.28884 5.46319 7.17819 5.45858C7.09981 5.45397 6.99839 5.45858 6.92923 5.50929C6.89696 5.53234 6.8693 5.56001 6.84164 5.59228C6.7356 5.3341 6.66184 5.24651 6.49126 5.13586C6.45899 5.19118 6.43593 5.25573 6.41749 5.32949C6.38522 5.30183 6.34373 5.27417 6.29762 5.25573L6.45438 4.62412C5.94724 3.91874 6.26074 3.2733 6.61574 2.98286C6.94768 2.71085 7.58389 2.5541 8.41836 2.89987ZM6.74482 6.3207C6.6895 6.34836 6.62035 6.31609 6.58346 6.24694C6.55119 6.17778 6.56502 6.09941 6.62034 6.07175C6.67567 6.04409 6.74482 6.07636 6.7817 6.14551C6.81398 6.21928 6.80015 6.29765 6.74482 6.3207ZM7.8559 7.57931L8.01265 7.40873L8.27544 7.45483L8.10947 7.65308L7.8559 7.57931ZM15.426 7.65308L15.26 7.45483L15.5228 7.40873L15.6796 7.57931L15.426 7.65308ZM16.9566 6.24694C16.9243 6.31609 16.8506 6.34836 16.7952 6.3207C16.7399 6.29304 16.7261 6.21467 16.7584 6.14551C16.7906 6.07636 16.8644 6.04409 16.9197 6.07175C16.975 6.09941 16.9889 6.17778 16.9566 6.24694Z" fill="#22558C"/>
<path d="M6.0258 25.6378C5.91055 25.4856 5.51406 25.1952 5.11758 25.5087C4.71648 25.8222 4.83635 26.2371 4.97466 26.4307C5.11297 26.6244 5.56478 26.8918 5.93821 26.5321C6.30703 26.1772 6.14106 25.7899 6.0258 25.6378ZM5.73997 26.2509C5.45874 26.5045 5.17751 26.5736 5.0392 26.38C4.90089 26.1864 5.08531 25.9559 5.3527 25.7576C5.6201 25.5594 5.82295 25.5363 5.94282 25.6792C6.05808 25.8222 6.0212 25.9974 5.73997 26.2509Z" fill="#FED32C"/>
<path d="M8.62591 28.0813L8.79649 27.777L7.75918 27.2053L7.58859 27.5096L7.67158 27.5557C7.75918 27.4773 7.87904 27.3667 7.98508 27.4266L8.10495 27.4958L7.62087 28.3763C7.59321 28.4224 7.55632 28.4178 7.43185 28.3487L7.38574 28.4317L7.97125 28.7544L8.01735 28.6714C7.88365 28.5976 7.86982 28.57 7.90209 28.51L8.38156 27.6433L8.50604 27.7125C8.60747 27.7678 8.58903 27.9107 8.56137 28.0444L8.62591 28.0813Z" fill="#FED32C"/>
<path d="M14.3473 28.7959C14.3242 29.0172 14.2965 29.1324 14.1214 29.1785L13.9323 29.2293C13.8955 29.2385 13.8493 29.22 13.8355 29.1693L13.6096 28.3118C13.5866 28.2288 13.6373 28.1919 13.7664 28.1597L13.7433 28.0813L13.0933 28.2519L13.1163 28.3303C13.2408 28.298 13.2915 28.3072 13.3099 28.3717L13.5405 29.2431C13.5681 29.3399 13.4851 29.3537 13.3929 29.3768L13.416 29.4644L14.4994 29.1785L14.4072 28.7821L14.3473 28.7959Z" fill="#FED32C"/>
<path d="M17.5328 26.8502C17.6066 27.0577 17.6389 27.173 17.4959 27.2974L17.3484 27.4265C17.3208 27.4496 17.27 27.4588 17.2332 27.4127L16.6523 26.7396C16.5969 26.675 16.6292 26.6197 16.726 26.5367L16.6707 26.4768L16.1636 26.9148L16.2189 26.9747C16.3157 26.8917 16.3664 26.8779 16.4079 26.9286L16.998 27.6109C17.0626 27.6893 16.998 27.7308 16.9243 27.7954L16.9842 27.8645L17.8325 27.1315L17.5743 26.818L17.5328 26.8502Z" fill="#FED32C"/>
<path d="M18.5794 25.6656L18.0861 25.2645C18.0123 25.2045 18.0261 25.1308 18.1183 25.0155L18.0492 24.9602L17.7172 25.3705L17.7864 25.4258C17.8694 25.3244 17.9478 25.3106 17.9939 25.3475L18.5056 25.767C18.6531 25.8869 18.667 26.0621 18.5517 26.205C18.4549 26.3202 18.2935 26.3756 18.1229 26.2373L17.5928 25.8085C17.542 25.767 17.542 25.7255 17.625 25.6241L17.5559 25.5642L17.1548 26.0575L17.2239 26.1128C17.3069 26.0114 17.3576 26.0206 17.413 26.0667L17.9155 26.477C18.1875 26.6983 18.4318 26.5231 18.6255 26.2972C18.7361 26.1727 18.8283 25.8684 18.5794 25.6656Z" fill="#FED32C"/>
<path d="M11.3181 29.3582L11.0369 28.3209L10.8479 28.2979L10.3177 29.2891C10.2762 29.3674 10.2347 29.3905 10.101 29.372L10.0918 29.4643L10.5897 29.5196L10.5989 29.4274C10.4145 29.4043 10.3822 29.3767 10.4145 29.3121L10.5298 29.0954L10.9493 29.1415L11.0139 29.3674C11.0553 29.5011 10.9539 29.4689 10.8525 29.4596L10.8433 29.5519L11.5072 29.6256L11.5164 29.5334C11.3735 29.5196 11.3412 29.4458 11.3181 29.3582ZM10.5805 29.0124L10.7972 28.6067L10.9263 29.0493L10.5805 29.0124Z" fill="#FED32C"/>
<path d="M16.3804 27.8553C16.3804 28.1089 16.2928 28.2195 16.1638 28.2887C15.9517 28.3994 15.7304 28.238 15.5644 27.9475C15.3984 27.6571 15.4584 27.4174 15.5782 27.3482C15.6889 27.2837 15.8825 27.2422 16.1223 27.505L16.1868 27.4635L15.9332 27.0808L15.8641 27.1315L15.8964 27.1868C15.7073 27.1822 15.6013 27.2191 15.5321 27.2606C15.4722 27.2929 15.38 27.3574 15.3201 27.4542C15.2233 27.611 15.1357 27.9061 15.2924 28.155C15.4492 28.4132 15.6566 28.51 15.8549 28.51C16.0854 28.51 16.2283 28.4132 16.3574 28.2703C16.4588 28.1596 16.4634 27.9983 16.4496 27.8553H16.3804Z" fill="#FED32C"/>
<path d="M12.9227 29.1371C12.8582 29.3491 12.8121 29.4598 12.6276 29.4736L12.4294 29.4874C12.3925 29.4921 12.351 29.4644 12.3464 29.4091L12.2819 28.5239C12.2773 28.4363 12.3326 28.4133 12.4617 28.404L12.4571 28.321L11.7886 28.3671L11.7932 28.4501C11.9223 28.4409 11.9684 28.4594 11.973 28.5239L12.0375 29.4229C12.0468 29.5243 11.9638 29.5197 11.8669 29.5243L11.8716 29.6119L12.9919 29.5335L12.9734 29.1278L12.9227 29.1371Z" fill="#FED32C"/>
<path d="M7.13231 26.6936C6.98939 26.5645 6.5468 26.3524 6.21486 26.7397C5.88292 27.1223 6.07655 27.5096 6.24713 27.6756C6.41771 27.8415 6.91562 28.0167 7.21068 27.5972C7.51035 27.1731 7.27061 26.8227 7.13231 26.6936ZM6.96633 27.3529C6.73582 27.6525 6.47303 27.7724 6.30245 27.611C6.13187 27.4451 6.26557 27.1869 6.49148 26.9425C6.71738 26.6982 6.91101 26.6383 7.05393 26.7535C7.19685 26.8734 7.19685 27.0532 6.96633 27.3529Z" fill="#FED32C"/>
<path d="M9.65873 28.0628L8.98562 27.8416L8.95796 27.9245C9.08244 27.966 9.1101 28.0029 9.08705 28.0721L8.81043 28.9111C8.79199 28.9711 8.74589 28.9849 8.62141 28.9434L8.59375 29.0264L9.26685 29.2477C9.52042 29.3307 9.77859 29.2477 9.82931 29.0633C9.89385 28.8466 9.77859 28.7452 9.58957 28.6345C9.80626 28.6299 9.93534 28.5515 9.9584 28.4455C9.99528 28.2749 9.93995 28.1597 9.65873 28.0628ZM9.51581 28.9157C9.48354 29.0541 9.36367 29.1878 9.20231 29.1324L9.07783 29.0909L9.2438 28.5838L9.34062 28.6161C9.48353 28.6622 9.54347 28.7959 9.51581 28.9157ZM9.63106 28.3441C9.59879 28.4686 9.44665 28.5608 9.35906 28.5285L9.27146 28.5008L9.41438 28.0721L9.48815 28.0951C9.57574 28.1274 9.65873 28.2334 9.63106 28.3441Z" fill="#FED32C"/>
<path d="M4.98824 24.8726C4.86837 24.9417 4.7946 24.9464 4.73006 24.8357L4.6563 24.7066L5.07583 24.4623L5.23258 24.7297C5.29713 24.8173 5.21875 24.9325 5.13116 25.0293L5.18187 25.1215L5.47232 24.9556L4.92369 24.0059L4.84071 24.0566C4.9283 24.2041 4.90525 24.2179 4.8361 24.2594L4.05696 24.7112C3.99703 24.7435 3.97397 24.702 3.91404 24.596L3.83105 24.6467L4.15377 25.2045L4.23676 25.1538C4.18605 25.0662 4.17222 24.9971 4.22293 24.9648L4.60097 24.7435L4.67474 24.8726C4.73467 24.974 4.68857 25.0524 4.56409 25.1215L4.60558 25.1953L5.03895 24.9464L4.98824 24.8726Z" fill="#FED32C"/>
<path d="M19.5014 24.1947C19.3032 24.0933 19.1787 24.1855 19.0358 24.3515C19.0727 24.1394 19.0173 23.9965 18.9159 23.955C18.7592 23.8859 18.6347 23.9181 18.4872 24.1809L18.146 24.7987L18.2198 24.8402C18.2843 24.7249 18.3258 24.7065 18.3903 24.7388L19.1649 25.1675C19.2202 25.1998 19.2248 25.2413 19.1603 25.3611L19.234 25.4026L19.5798 24.7849C19.7043 24.5497 19.672 24.2777 19.5014 24.1947ZM18.8929 24.559L18.8468 24.6419L18.4503 24.4207L18.4872 24.3515C18.5333 24.2685 18.6531 24.2086 18.7592 24.2547C18.8744 24.3054 18.9344 24.476 18.8929 24.559ZM19.4507 24.8217L19.3862 24.937L18.9205 24.6788L18.9712 24.5912C19.045 24.4575 19.1833 24.4207 19.2986 24.4714C19.4277 24.5313 19.5337 24.6742 19.4507 24.8217Z" fill="#FED32C"/>
<path d="M9.04985 11.4059L9.28036 12.4662C9.31264 12.6184 9.31264 12.789 9.01758 12.8535L9.04524 12.978L9.88431 12.7982L9.85665 12.6737C9.60308 12.729 9.48783 12.5999 9.45095 12.4247L9.22504 11.3782L10.7649 12.5999L11.0138 12.5446L10.6727 10.9771C10.6358 10.8158 10.6819 10.6913 10.9355 10.636L10.9078 10.5115L10.0872 10.6913L10.1148 10.8158C10.3638 10.7604 10.4698 10.8849 10.4975 10.9956L10.7003 11.9222L9.35413 10.8526L8.62109 11.0094L8.64875 11.1339C8.91615 11.0785 9.01758 11.2676 9.04985 11.4059Z" fill="#FED32C"/>
<path d="M12.148 12.4201C11.8483 12.3879 11.7884 12.3464 11.8483 12.2311L12.0327 11.8761L12.7197 11.9453L12.8303 12.3095C12.8995 12.5308 12.7381 12.4755 12.5675 12.4616L12.5537 12.6092L13.6463 12.7198L13.6602 12.5723C13.4204 12.5492 13.3651 12.4248 13.3282 12.2864L12.8488 10.5853L12.5399 10.553L11.6916 12.1896C11.6224 12.3233 11.5579 12.3556 11.3366 12.3325L11.3228 12.4801L12.1434 12.5631L12.148 12.4201ZM12.4523 11.0647L12.6736 11.7885L12.1065 11.7332L12.4523 11.0647Z" fill="#FED32C"/>
<path d="M15.8226 12.9041L15.4077 13.4804L15.546 13.5772L15.6013 13.5035C15.8042 13.8446 16.067 14.1167 16.4081 14.2089C16.7816 14.3057 17.1181 14.0982 17.1919 13.817C17.2657 13.5311 17.0905 13.3191 16.9568 13.1116C16.8646 12.9733 16.6617 12.7658 16.717 12.563C16.7539 12.4293 16.9568 12.3417 17.0905 12.3786C17.3164 12.4385 17.5146 12.7428 17.3302 13.2822L17.427 13.356L17.8327 12.7935L17.6944 12.6967L17.6345 12.7797C17.5238 12.5123 17.2426 12.2264 16.9614 12.1527C16.5741 12.0512 16.2652 12.2587 16.1961 12.5261C16.1039 12.8719 16.3252 13.0886 16.505 13.3467C16.5926 13.4712 16.6986 13.6234 16.6571 13.7801C16.6202 13.9184 16.4496 14.0244 16.2837 13.9783C15.9425 13.8861 15.7765 13.4897 15.9287 12.9825L15.8226 12.9041Z" fill="#FED32C"/>
<path d="M5.18662 16.1728L5.30187 16.265L5.81361 15.6196L5.69375 15.5274C5.50472 15.7625 5.43557 15.7902 5.37103 15.6795L5.17278 15.3338L5.60154 14.7898L5.97036 14.8912C6.19166 14.9557 6.06257 15.0618 5.95653 15.1955L6.0764 15.2877L6.75872 14.4302L6.63886 14.3379C6.48672 14.527 6.35763 14.5085 6.21471 14.4624L4.52273 13.9507L4.3291 14.195L5.25116 15.7948C5.32953 15.9239 5.32492 15.9976 5.18662 16.1728ZM4.72098 14.5408L5.4494 14.7437L5.09441 15.1909L4.72098 14.5408Z" fill="#FED32C"/>
<path d="M15.4811 12.6323C15.4811 12.3372 15.2598 12.1759 15.0754 12.0099C14.9509 11.8992 14.7019 11.7471 14.7065 11.5396C14.7065 11.4013 14.8863 11.2676 15.0246 11.2676C15.2598 11.2676 15.5226 11.512 15.4857 12.079L15.6009 12.1251L15.8499 11.4797L15.6931 11.4198L15.6563 11.5166C15.4811 11.2861 15.1399 11.0786 14.8495 11.0786C14.453 11.0786 14.204 11.3552 14.1994 11.6318C14.1948 11.9868 14.4622 12.1436 14.7019 12.3511C14.8172 12.4525 14.9601 12.5723 14.9555 12.7337C14.9509 12.8766 14.8172 13.0195 14.642 13.0195C14.287 13.0195 14.0288 12.6738 14.0473 12.1436L13.932 12.0975L13.6738 12.7568L13.8306 12.8167L13.8629 12.7291C14.1441 13.0103 14.4668 13.204 14.8218 13.2086C15.2091 13.2086 15.4811 12.9227 15.4811 12.6323Z" fill="#FED32C"/>
<path d="M18.4594 13.8078L17.2515 14.7068C17.1685 14.7575 17.1363 14.7206 16.998 14.527L16.9058 14.5961L17.5512 15.4629L17.6434 15.3937C17.5374 15.2508 17.4867 15.1632 17.5743 15.1033L18.1183 14.7022L18.1413 14.7344C18.1644 14.7621 18.1644 14.8082 18.1505 14.8405L17.8416 15.8501L18.2888 16.4541L18.3811 16.3849C18.275 16.2005 18.2935 16.1682 18.3211 16.0438L18.5562 15.1448C18.8513 15.3614 19.1648 15.3292 19.34 15.1448C19.4875 14.988 19.506 14.716 19.2847 14.4163L18.524 13.3975L18.4041 13.4851C18.524 13.651 18.5655 13.7294 18.4594 13.8078ZM19.0265 14.3287C19.1325 14.4717 19.0634 14.6422 18.9251 14.7621C18.7591 14.9096 18.4825 14.9696 18.3718 14.8174L18.2243 14.6146L18.879 14.1259L19.0265 14.3287Z" fill="#FED32C"/>
<path d="M6.021 12.8487L6.8739 14.0244C6.97071 14.1581 6.85546 14.218 6.72637 14.3148L6.80935 14.4301L8.3077 13.342L7.93887 12.8026L7.86511 12.8626C7.95271 13.2083 7.98498 13.402 7.73602 13.5818L7.47324 13.7754C7.42252 13.8123 7.34415 13.8123 7.28882 13.7385L6.44975 12.5813C6.36677 12.4661 6.4267 12.3831 6.60189 12.2586L6.52352 12.1526L5.62451 12.8026L5.70289 12.9087C5.87347 12.7796 5.95645 12.7658 6.021 12.8487Z" fill="#FED32C"/>
</svg>
