<svg width="32" height="32" viewBox="0 0 32 32" fill="none" xmlns="http://www.w3.org/2000/svg">
<path d="M16 0C7.1808 0 0 7.1744 0 16C0 24.8192 7.1808 32 16 32C24.8192 32 32 24.8192 32 16C32 7.1744 24.8256 0 16 0Z" fill="#004071"/>
<path d="M15.9873 18.656C14.0801 18.656 12.5312 20.128 12.5312 21.9392C12.5312 22.5792 12.7233 23.1744 13.0561 23.68C13.9649 24.032 14.9569 24.224 15.9873 24.224C17.0241 24.224 18.0096 24.032 18.9184 23.68C19.2512 23.1744 19.4433 22.5792 19.4433 21.9392C19.4497 20.128 17.9009 18.656 15.9873 18.656Z" fill="#004071"/>
<path d="M19.0082 16.2176C20.013 17.8816 21.3058 19.3152 22.8226 20.5376C22.1698 21.5296 21.3058 22.3744 20.2946 23.0016C20.333 22.784 20.3522 22.5664 20.3522 22.3424C20.3522 20.0896 18.4002 18.2656 15.9938 18.2656C13.5874 18.2656 11.6354 20.0896 11.6354 22.3424C11.6354 22.5664 11.6546 22.7904 11.693 23.0016C10.6818 22.3744 9.81784 21.5296 9.16504 20.5376C10.6754 19.3152 11.9682 17.8816 12.973 16.2176H19.0082ZM18.8226 15.8976C17.5426 13.6576 16.7874 11.008 16.7298 7.91042C16.4866 7.89122 16.237 7.87842 15.9874 7.87842C15.7314 7.87842 15.4882 7.89122 15.2386 7.91682C15.181 11.008 14.4258 13.6576 13.1458 15.8976H18.8226Z" fill="#EC1C24"/>
<path d="M16.2814 22.912L16.2942 22.944C16.2366 23.0592 16.1406 23.2 16.019 23.296L15.9934 23.3088L15.9678 23.296C15.8462 23.2 15.7502 23.0592 15.6926 22.944L15.7054 22.912C15.8014 22.8544 15.8718 22.7584 15.8974 22.6496L15.9934 22.5728L16.0894 22.6496C16.115 22.7648 16.1854 22.8544 16.2814 22.912ZM16.5566 21.0816C16.5566 20.7488 16.1214 19.7056 15.987 19.7056L15.955 19.7184C15.795 19.8464 15.4174 20.768 15.4174 21.0816C15.4174 21.3312 15.9166 21.984 15.9166 22.3424L15.987 22.4064L16.051 22.3424C16.0574 21.984 16.5566 21.3312 16.5566 21.0816ZM15.7054 22.3104C15.4686 21.6896 15.059 21.3504 14.6366 21.3504C14.3166 21.3504 14.0542 21.6064 14.0542 21.9328C14.0542 22.2528 14.3166 22.5088 14.6366 22.5088C14.7326 22.5088 14.835 22.464 14.8798 22.4064C14.963 22.3104 14.9438 22.2144 14.9374 22.2016L14.899 22.1824H14.867C14.7582 22.1824 14.675 22.0928 14.675 21.9904C14.675 21.8816 14.7646 21.7984 14.867 21.7984C15.059 21.7984 15.3918 21.984 15.5774 22.3744L15.6414 22.4128L15.7118 22.3424L15.7054 22.3104ZM17.3182 21.3504C16.8958 21.3504 16.4862 21.6896 16.2494 22.3104L16.243 22.3424L16.3134 22.4128L16.3774 22.3744C16.5566 21.984 16.8958 21.7984 17.0814 21.7984C17.1902 21.7984 17.2734 21.888 17.2734 21.9904C17.2734 22.0992 17.1838 22.1824 17.0814 22.1824H17.0494L17.011 22.2016C17.0046 22.2208 16.9854 22.3168 17.0686 22.4064C17.1198 22.4576 17.2158 22.5088 17.3118 22.5088C17.6318 22.5088 17.8942 22.2528 17.8942 21.9328C17.9006 21.6064 17.6382 21.3504 17.3182 21.3504Z" fill="#C4A361"/>
<path d="M15.9809 1.14551C12.0129 1.14551 8.28167 2.68791 5.47847 5.49751C2.67526 8.30071 1.12646 12.0319 1.12646 15.9999C1.12646 19.9679 2.67526 23.6991 5.47847 26.5023C8.28167 29.3055 12.0129 30.8543 15.9809 30.8543C19.9489 30.8543 23.6801 29.3119 26.4833 26.5023C29.2865 23.6927 30.8353 19.9679 30.8353 15.9999C30.8353 12.0319 29.2929 8.30071 26.4833 5.49751C23.6801 2.68791 19.9489 1.14551 15.9809 1.14551ZM15.9809 1.73431C23.8593 1.73431 30.2465 8.12151 30.2465 15.9999C30.2465 23.8783 23.8593 30.2655 15.9809 30.2655C8.09607 30.2655 1.70886 23.8783 1.70886 15.9999C1.70886 8.12151 8.09607 1.73431 15.9809 1.73431ZM20.0001 7.25751C19.7697 7.14871 19.5329 7.05271 19.2961 6.96311L20.7041 3.57111C20.9409 3.66071 21.1777 3.75671 21.4081 3.85911L20.0001 7.25751ZM15.9297 3.38551V4.60151H17.2929C17.6257 4.60151 17.9009 4.32631 17.9009 3.99351C17.9009 3.66071 17.6257 3.38551 17.2929 3.38551H15.9297ZM15.9297 6.35511C15.6801 6.35511 15.4305 6.36791 15.1873 6.38711V2.73271H17.2993C17.9905 2.73271 18.6497 3.29591 18.6497 3.98711C18.6497 4.56311 18.1953 5.04951 17.6449 5.19671L18.6049 6.73271C18.2977 6.64311 17.9841 6.57271 17.6705 6.51511L16.8641 5.24791H15.9361V6.35511M7.07846 6.98231L7.97447 7.80151L8.97287 6.70071C9.19687 6.45111 9.17766 6.06711 8.93447 5.84311C8.68486 5.61911 8.30087 5.63831 8.07687 5.88151L7.07846 6.98231ZM9.28647 8.99831C9.10726 9.17111 8.92807 9.34391 8.76167 9.52951L6.09286 7.09751L7.62247 5.41431C8.08967 4.90231 8.92166 4.83831 9.43366 5.30551C9.94566 5.77271 9.94567 6.59831 9.47847 7.11031L8.44806 8.24951L9.28647 8.99831ZM23.2129 5.91351C23.7633 5.78551 24.7745 6.79031 24.9665 7.46871C25.1265 7.34711 25.4849 7.08471 25.4849 7.08471C25.0561 5.86871 23.3537 4.65271 22.5473 5.41431C22.0673 5.86871 22.3425 6.56631 22.7585 7.00151L23.1617 7.43031C23.5777 7.86551 23.9361 8.30071 23.6033 8.57591C23.2513 8.87031 22.2593 8.13431 21.6577 6.87351L21.1265 7.27671C21.2545 7.60951 21.5425 8.08951 21.9265 8.49911C22.3681 8.95991 22.8417 9.26071 23.2705 9.34391C23.6033 9.40791 23.9425 9.35671 24.1601 9.15191C24.7105 8.63991 24.5121 7.89751 23.6417 6.98231L23.2833 6.60471C22.8993 6.18871 23.0593 5.95191 23.2129 5.91351ZM11.6993 5.72151C12.0577 5.57431 12.4225 5.44631 12.7937 5.33751L11.7569 4.15351L11.6993 5.72151ZM11.9233 3.34071L14.7393 6.43191C14.4513 6.47031 14.1633 6.51511 13.8817 6.57911L13.2417 5.84311C12.7041 5.98391 12.1793 6.16951 11.6737 6.38711L11.6353 7.35991C11.3729 7.48791 11.1233 7.62871 10.8737 7.78231L11.1489 3.61591C11.4049 3.51991 11.6609 3.42391 11.9233 3.34071ZM17.1457 7.96151C21.1137 8.52471 24.1665 11.9295 24.1665 16.0511C24.1665 17.3695 23.8529 18.6175 23.2961 19.7247C19.6929 17.0175 17.5041 13.2159 17.1457 7.96151ZM20.2945 23.0015C20.3329 22.7839 20.3521 22.5663 20.3521 22.3359C20.3521 20.0831 18.4001 18.2591 15.9937 18.2591C13.5873 18.2591 11.6353 20.0831 11.6353 22.3359C11.6353 22.5599 11.6545 22.7839 11.6929 23.0015C10.6817 22.3743 9.81767 21.5295 9.16487 20.5311C10.6753 19.3087 11.9681 17.8751 12.9729 16.2111H19.0209C20.0257 17.8751 21.3185 19.3087 22.8353 20.5311C22.1697 21.5295 21.3057 22.3679 20.2945 23.0015ZM18.9249 23.6799C18.0161 24.0319 17.0241 24.2239 15.9937 24.2239C14.9569 24.2239 13.9713 24.0319 13.0625 23.6799C12.7297 23.1743 12.5377 22.5791 12.5377 21.9391C12.5377 20.1279 14.0865 18.6559 15.9937 18.6559C17.9009 18.6559 19.4497 20.1279 19.4497 21.9391C19.4497 22.5791 19.2577 23.1743 18.9249 23.6799ZM7.81447 16.0511C7.81447 11.9295 10.8673 8.51831 14.8353 7.96151C14.4769 13.2159 12.2881 17.0239 8.68486 19.7247C8.13447 18.6175 7.81447 17.3695 7.81447 16.0511ZM15.9873 7.87831C16.2369 7.87831 16.4865 7.89111 16.7297 7.91671C16.7873 11.0143 17.5425 13.6575 18.8225 15.8975H13.1521C14.4321 13.6575 15.1873 11.0079 15.2449 7.91671C15.4881 7.89111 15.7377 7.87831 15.9873 7.87831ZM15.9873 7.28951C11.1553 7.28951 7.22567 11.2191 7.22567 16.0511C7.22567 20.8831 11.1553 24.8127 15.9873 24.8127C20.8193 24.8127 24.7489 20.8831 24.7489 16.0511C24.7489 11.2191 20.8193 7.28951 15.9873 7.28951ZM8.86406 24.4543L8.39047 24.6783L8.71687 24.9599L8.86406 24.4543ZM8.69127 25.7919L8.51206 25.6575L8.65927 25.1711L8.19206 24.7743L7.73127 24.9983L7.57767 24.8511L8.94727 24.2047L9.11367 24.3455L8.69127 25.7919ZM9.11367 26.0927L9.88166 24.9279L10.0481 25.0367L9.28007 26.2015L9.11367 26.0927ZM10.6433 25.4143L10.8801 26.7135L11.3665 25.7919L11.5393 25.8815L10.9057 27.0975L10.7329 27.0271L10.4961 25.7151L9.99687 26.6431L9.82407 26.5471L10.4641 25.3247L10.6433 25.4143ZM13.0113 26.4319L12.9473 26.6175L12.4929 26.4575L12.1025 27.5775L11.9169 27.5135L12.3073 26.3935L11.8529 26.2399L11.9169 26.0543L13.0113 26.4319ZM16.0257 27.4559L16.6529 27.4687L16.6465 27.8335C16.6401 28.0831 16.3713 28.2367 16.0257 28.2303C15.6609 28.2239 15.2833 27.9679 15.2897 27.5007C15.2961 27.1103 15.6161 26.7967 16.0513 26.8031C16.3777 26.8095 16.5505 26.9823 16.6273 27.0591L16.4865 27.1999C16.4225 27.1359 16.3137 27.0079 16.0705 27.0015C15.7057 26.9951 15.4945 27.2319 15.4881 27.5135C15.4817 27.7823 15.6929 28.0255 16.0385 28.0319C16.2753 28.0383 16.4481 27.9295 16.4481 27.8143V27.6607L16.0193 27.6543L16.0257 27.4559ZM18.1633 26.6239L18.1889 26.8223L17.2737 26.9567L17.3249 27.3151L17.7857 27.2511L17.8113 27.4495L17.3505 27.5135L17.4081 27.9295L18.3553 27.7951L18.3809 27.9935L17.2353 28.1599L17.0433 26.8031L18.1633 26.6239ZM18.8801 26.6431L18.9953 27.0335L19.5777 26.8543C19.7185 26.8095 19.7761 26.7135 19.7377 26.5855C19.6929 26.4383 19.5713 26.4383 19.4625 26.4703L18.8801 26.6431ZM19.4049 26.2783C19.6161 26.2143 19.8465 26.2591 19.9297 26.5279C20.0129 26.8159 19.8529 26.9567 19.7441 27.0015L20.1729 27.4623L19.9681 27.5391L19.5457 27.0719L19.0529 27.2191L19.2193 27.7695L19.0273 27.8207L18.6305 26.5087L19.4049 26.2783ZM22.4193 24.9983L22.5217 25.5103L22.8737 25.2607L22.4193 24.9983ZM23.6545 25.4911L23.4817 25.6255L23.0593 25.3695L22.5601 25.7215L22.6561 26.2207L22.4769 26.3295L22.1889 24.8575L22.3681 24.7295L23.6545 25.4911ZM23.2257 24.0511L24.1601 25.0559L24.0129 25.1839L23.0849 24.1855L23.2257 24.0511ZM23.7697 23.5135L25.0881 23.6031L24.3137 22.9055L24.4481 22.7583L25.4657 23.6735L25.3505 23.8207L24.0193 23.7311L24.8001 24.4351L24.6593 24.5759L23.6353 23.6543L23.7697 23.5135ZM21.4465 25.3503L22.0929 26.5599L21.9201 26.6559L21.4529 25.8047L21.4209 26.7647L20.6273 26.2271L21.0433 27.1039L20.8641 27.1807L20.2689 25.9455L20.4481 25.8559L21.2545 26.3999L21.2801 25.4271L21.4465 25.3503ZM8.17286 23.5839V23.5903L8.03206 23.6735L8.02567 23.6799V23.6735C7.93607 23.3727 7.60327 22.9823 7.37287 22.9823H7.34726L7.23847 23.0655C7.21287 23.1167 7.21286 23.2063 7.31527 23.3471L7.44326 23.5199C7.63526 23.7759 7.72486 23.9935 7.69927 24.1535L7.55847 24.3711L7.37287 24.4223L7.21926 24.3967C7.05927 24.3455 6.88006 24.2047 6.73286 23.9999C6.58567 23.8015 6.50247 23.6031 6.47047 23.4751H6.47686L6.62406 23.3407V23.3471C6.79046 23.8527 7.12327 24.2047 7.32167 24.2047L7.41126 24.1791L7.49447 24.0575C7.52007 23.9359 7.41126 23.7759 7.29606 23.6223L7.14887 23.4239C7.04646 23.2895 6.99527 23.1359 7.01447 23.0143L7.12967 22.8223L7.32167 22.7583C7.63527 22.7583 8.06406 23.1679 8.17286 23.5839ZM13.7089 27.4047L13.7537 27.2063L14.2401 27.3151L14.1953 27.5135L13.7089 27.4047Z" fill="white"/>
</svg>
