<svg width="50" height="34" viewBox="0 0 50 34" fill="none" xmlns="http://www.w3.org/2000/svg">
<path d="M24.7352 32.0088C37.3572 32.0088 47.5894 25.2901 47.5894 17.0021C47.5894 8.7141 37.3572 1.99536 24.7352 1.99536C12.1131 1.99536 1.88086 8.7141 1.88086 17.0021C1.88086 25.2901 12.1131 32.0088 24.7352 32.0088Z" fill="#CC2229"/>
<path d="M5.95314 6.38208H42.8288V9.23371H5.95314V6.38208ZM2.60986 12.4787H45.9755V15.3306H2.60986V12.4787ZM2.60986 18.5753H45.9755V21.4272H2.60986V18.5753ZM5.95314 24.6722H43.6153V27.5238H5.95314V24.6722Z" fill="white"/>
<path d="M24.7352 32.0088C37.3572 32.0088 47.5894 25.2901 47.5894 17.0021C47.5894 8.7141 37.3572 1.99536 24.7352 1.99536C12.1131 1.99536 1.88086 8.7141 1.88086 17.0021C1.88086 25.2901 12.1131 32.0088 24.7352 32.0088Z" stroke="#B8A46F" stroke-width="3"/>
<path d="M28.0961 1.11936C28.0961 1.11936 28.0364 1.8879 27.2994 1.86217L26.0874 1.81979C26.0874 1.81979 25.8258 1.79428 25.8173 2.0401C25.8173 2.0401 25.7428 2.29991 26.0703 2.31122L27.2828 2.33718C27.2828 2.33718 28.0191 2.37933 28.028 3.06845C28.028 3.06845 28.0642 2.97127 25.8362 2.90981C25.8362 2.90981 24.9208 2.82861 24.951 1.96067C24.951 1.96067 25.0135 1.11004 26.0126 1.14488C26.0126 1.1451 27.8297 1.24139 28.0961 1.11936ZM31.8696 1.67913C31.8696 1.67913 31.7298 2.43724 30.9994 2.33474L29.7985 2.1659C29.7985 2.1659 29.5411 2.11332 29.507 2.3567C29.507 2.3567 29.4056 2.60719 29.7302 2.65267L30.9335 2.80531C30.9335 2.80531 31.6617 2.92423 31.5983 3.61024C31.5983 3.61024 31.6444 3.5175 29.4349 3.22353C29.4349 3.22353 28.533 3.04715 28.6537 2.18698C28.6537 2.18698 28.8048 1.34766 29.7947 1.48677C29.7947 1.48677 31.5916 1.77231 31.8696 1.67913ZM35.4727 2.78779C35.4727 2.78779 35.2036 3.51018 34.502 3.28232L33.3485 2.90759C33.3485 2.90759 33.104 2.81086 33.0282 3.04471C33.0282 3.04471 32.8848 3.27389 33.1966 3.37506L34.3549 3.73426C34.3549 3.73426 35.0514 3.97787 34.8699 4.64258C34.8699 4.64258 34.9313 4.55915 32.8065 3.88602C32.8065 3.88602 31.949 3.55566 32.2173 2.72966C32.2173 2.72966 32.5119 1.92939 33.4626 2.23823C33.4628 2.23801 35.1827 2.83127 35.4727 2.78779ZM38.9264 4.12674C38.9264 4.12674 38.5832 4.81718 37.9094 4.51722L36.8014 4.02379C36.8014 4.02379 36.5687 3.90221 36.4686 4.12674C36.4686 4.12674 36.302 4.33951 36.6015 4.47307L37.7162 4.95119C37.7162 4.95119 38.3831 5.26624 38.1331 5.90831C38.1331 5.90831 38.2029 5.83199 36.16 4.94032C36.16 4.94032 35.3418 4.5221 35.695 3.72871C35.695 3.72871 36.0715 2.9635 36.9847 3.37018C36.9851 3.37018 38.6336 4.14005 38.9264 4.12674ZM42.3245 6.17389C42.3245 6.17389 41.8668 6.794 41.2554 6.38177L40.2499 5.70353C40.2499 5.70353 40.0418 5.54335 39.904 5.74702C39.904 5.74702 39.703 5.92762 39.9748 6.1111L40.9893 6.77581C40.9893 6.77581 41.5915 7.20179 41.2338 7.79084C41.2338 7.79084 41.3159 7.72761 39.4589 6.49492C39.4589 6.49492 38.7254 5.94093 39.2111 5.22076C39.2111 5.22076 39.715 4.53253 40.5436 5.09141C40.5441 5.09163 42.0337 6.13595 42.3245 6.17389ZM45.1835 8.68029C45.1835 8.68029 44.6248 9.21166 44.0943 8.69915L43.222 7.85673C43.222 7.85673 43.0447 7.66282 42.8739 7.83965C42.8739 7.83965 42.6447 7.98275 42.8803 8.21038L43.7642 9.04105C43.7642 9.04105 44.2834 9.56509 43.8288 10.0831C43.8288 10.0831 43.9208 10.035 42.3059 8.49859C42.3059 8.49859 41.6798 7.82567 42.2833 7.2009C42.2833 7.2009 42.8987 6.61074 43.618 7.30517C43.618 7.30517 44.9037 8.59243 45.1835 8.68029ZM47.4154 11.7498C47.4154 11.7498 46.7587 12.1534 46.346 11.5419L45.6678 10.5364C45.6678 10.5364 45.5347 10.3099 45.331 10.4472C45.331 10.4472 45.077 10.5395 45.2602 10.8113L45.952 11.8075C45.952 11.8075 46.3509 12.4283 45.7987 12.8403C45.7987 12.8403 45.8985 12.8125 44.6386 10.9737C44.6386 10.9737 44.166 10.1854 44.8862 9.69954C44.8862 9.69954 45.611 9.25026 46.1701 10.0789C46.1701 10.0791 47.1601 11.6056 47.4154 11.7498ZM48.5791 15.5932C48.5791 15.5932 47.8237 15.7478 47.6453 15.0321L47.352 13.8553C47.352 13.8553 47.3045 13.5968 47.0658 13.6565C47.0658 13.6565 46.7955 13.6563 46.8748 13.9744L47.184 15.1472C47.184 15.1472 47.3467 15.8667 46.6866 16.0651C46.6866 16.0651 46.7898 16.073 46.2347 13.9143C46.2347 13.9143 46.0603 13.012 46.9032 12.8017C46.9032 12.8017 47.738 12.6273 47.9799 13.5973C47.9801 13.5973 48.3883 15.3704 48.5791 15.5932ZM48.4025 19.5463C48.4025 19.5463 47.6397 19.4332 47.717 18.6997L47.8436 17.4936C47.8436 17.4936 47.8873 17.2345 47.6428 17.2088C47.6428 17.2088 47.3888 17.1163 47.3546 17.4422L47.2442 18.65C47.2442 18.65 47.1508 19.3817 46.4627 19.3424C46.4627 19.3424 46.5573 19.3853 46.7738 17.1668C46.7738 17.1668 46.9185 16.2592 47.7824 16.3499C47.7824 16.3499 48.6266 16.4715 48.5219 17.4659C48.5221 17.4661 48.2993 19.2719 48.4025 19.5463ZM46.9045 23.048C46.9045 23.048 46.2396 22.6576 46.5859 22.0064L47.1552 20.9357C47.1552 20.9357 47.2927 20.7118 47.0758 20.5964C47.0758 20.5964 46.875 20.4156 46.721 20.7047L46.1661 21.7832C46.1661 21.7832 45.8056 22.4266 45.1821 22.1324C45.1821 22.1324 45.2536 22.2074 46.2857 20.2319C46.2857 20.2319 46.76 19.4447 47.5268 19.8525C47.5268 19.8525 48.2638 20.2816 47.7946 21.1644C47.7946 21.164 46.9118 22.755 46.9045 23.048ZM44.7018 25.8986C44.7018 25.8986 44.1329 25.3783 44.6068 24.8134L45.3863 23.8842C45.3863 23.8842 45.5673 23.6939 45.3792 23.5359C45.3792 23.5359 45.2203 23.3172 45.0098 23.5683L44.2425 24.5079C44.2425 24.5079 43.756 25.0623 43.2075 24.645C43.2075 24.645 43.2617 24.7333 44.6818 23.0154C44.6818 23.0154 45.3095 22.3441 45.9749 22.9023C45.9749 22.9023 46.6067 23.4751 45.964 24.241C45.9644 24.241 44.7699 25.6135 44.7018 25.8986ZM41.8513 28.1565C41.8513 28.1565 41.4251 27.514 42.0217 27.0806L43.0028 26.3678C43.0028 26.3678 43.2246 26.2269 43.0802 26.0279C43.0802 26.0279 42.979 25.7774 42.7139 25.97L41.7424 26.6962C41.7424 26.6962 41.1362 27.1164 40.7049 26.5788C40.7049 26.5788 40.7362 26.6775 42.5298 25.3541C42.5298 25.3541 43.3012 24.8545 43.8117 25.5573C43.8117 25.5573 44.286 26.266 43.4773 26.8537C43.4776 26.8535 41.9864 27.8962 41.8513 28.1565ZM38.7902 29.8C38.7902 29.8 38.4821 29.0934 39.145 28.7701L40.235 28.2386C40.235 28.2386 40.4779 28.1383 40.3701 27.9173C40.3701 27.9173 40.3142 27.6531 40.0196 27.7966L38.9367 28.3428C38.9367 28.3428 38.2666 28.6515 37.9354 28.0471C37.9354 28.0471 37.9491 28.1498 39.9452 27.1579C39.9452 27.1579 40.7917 26.7998 41.1724 27.5805C41.1724 27.5805 41.5167 28.361 40.6179 28.7992C40.6179 28.7992 38.9686 29.5671 38.7902 29.8ZM35.5073 31.2521C35.5073 31.2521 35.2748 30.5171 35.9677 30.2648L37.1074 29.8502C37.1074 29.8502 37.3594 29.7759 37.2753 29.5449C37.2753 29.5449 37.2474 29.2762 36.9392 29.388L35.8053 29.8182C35.8053 29.8182 35.1066 30.055 34.8404 29.4195C34.8404 29.4195 34.8432 29.5232 36.9321 28.7455C36.9321 28.7455 37.8111 28.4777 38.1084 29.294C38.1084 29.294 38.3691 30.106 37.4295 30.4479C37.4297 30.4479 35.709 31.0392 35.5073 31.2521ZM32.1134 32.1494C32.1134 32.1494 31.9854 31.389 32.7067 31.2357L33.893 30.9835C33.893 30.9835 34.1528 30.9451 34.1018 30.7046C34.1018 30.7046 34.1113 30.4344 33.7907 30.5025L32.608 30.7707C32.608 30.7707 31.8831 30.908 31.7079 30.2413C31.7079 30.2413 31.6963 30.3445 33.873 29.865C33.873 29.865 34.7809 29.7222 34.9615 30.5721C34.9615 30.5721 35.1066 31.4126 34.1288 31.6204C34.1291 31.6204 32.3428 31.9666 32.1134 32.1494ZM28.6084 32.7573C28.6084 32.7573 28.5336 31.9898 29.264 31.8873L30.465 31.7187C30.465 31.7187 30.727 31.6983 30.6928 31.4552C30.6928 31.4552 30.721 31.1865 30.3966 31.232L29.1981 31.417C29.1981 31.417 28.4655 31.5035 28.3373 30.8264C28.3373 30.8264 28.3184 30.9282 30.5235 30.6019C30.5235 30.6019 31.4392 30.5229 31.5601 31.383C31.5601 31.383 31.6462 32.2315 30.6562 32.3706C30.656 32.3701 28.8498 32.5909 28.6084 32.7573ZM24.9558 33C24.9558 33 24.9616 32.229 25.6989 32.2033L26.9107 32.1609C26.9107 32.1609 27.1734 32.168 27.165 31.9224C27.165 31.9224 27.2213 31.6582 26.8938 31.6695L25.6822 31.7283C25.6822 31.7283 24.9445 31.7376 24.888 31.0507C24.888 31.0507 24.8587 31.1501 27.0855 31.0558C27.0855 31.0558 28.0045 31.0731 28.0347 31.941C28.0347 31.941 28.0318 32.7939 27.0325 32.8287C27.0325 32.8289 25.2134 32.8598 24.9558 33ZM21.4828 32.8806C21.4828 32.8806 21.5425 32.1119 22.2795 32.1376L23.4915 32.1798C23.4915 32.1798 23.7531 32.2053 23.7615 31.9597C23.7615 31.9597 23.8361 31.6999 23.5086 31.6886L22.2959 31.6626C22.2959 31.6626 21.5595 31.6204 21.5509 30.9316C21.5509 30.9316 21.5147 31.0287 23.7429 31.09C23.7429 31.09 24.6583 31.1712 24.6282 32.0393C24.6282 32.0393 24.5656 32.8897 23.5663 32.8549C23.5663 32.8549 21.7495 32.7586 21.4828 32.8806ZM17.7095 32.3209C17.7095 32.3209 17.8491 31.5625 18.5795 31.6653L19.7804 31.8341C19.7804 31.8341 20.038 31.8869 20.0719 31.6435C20.0719 31.6435 20.1735 31.3928 19.8487 31.3473L18.6456 31.1949C18.6456 31.1949 17.9176 31.076 17.9809 30.3898C17.9809 30.3898 17.9347 30.4825 20.1443 30.7765C20.1443 30.7765 21.0461 30.9529 20.9255 31.813C20.9255 31.813 20.7744 32.6523 19.7844 32.5132C19.7844 32.513 17.9875 32.2275 17.7095 32.3209ZM14.1064 31.2122C14.1064 31.2122 14.3758 30.4896 15.0771 30.7177L16.2306 31.0922C16.2306 31.0922 16.4748 31.1889 16.5509 30.9551C16.5509 30.9551 16.6943 30.7259 16.3825 30.6245L15.224 30.2653C15.224 30.2653 14.5275 30.0217 14.709 29.357C14.709 29.357 14.6476 29.4404 16.7724 30.1138C16.7724 30.1138 17.6299 30.4441 17.3616 31.2701C17.3616 31.2701 17.067 32.0704 16.1163 31.7615C16.1163 31.762 14.3962 31.1685 14.1064 31.2122ZM10.6524 29.873C10.6524 29.873 10.9957 29.1826 11.6695 29.4826L12.7775 29.976C12.7775 29.976 13.0102 30.0976 13.1103 29.873C13.1103 29.873 13.2767 29.6603 12.9774 29.5267L11.8627 29.0486C11.8627 29.0486 11.1956 28.7335 11.4456 28.0915C11.4456 28.0915 11.3757 28.168 13.4187 29.0597C13.4187 29.0597 14.2371 29.4779 13.8839 30.2713C13.8839 30.2713 13.5074 31.0365 12.5942 30.63C12.594 30.6298 10.9453 29.8599 10.6524 29.873ZM7.25459 27.8259C7.25459 27.8259 7.7123 27.2058 8.32376 27.618L9.32925 28.2962C9.32925 28.2962 9.53758 28.4567 9.67491 28.2528C9.67491 28.2528 9.87592 28.0719 9.60414 27.8887L8.58955 27.224C8.58955 27.224 7.98719 26.798 8.34505 26.2089C8.34505 26.2089 8.26274 26.2722 10.12 27.5049C10.12 27.5049 10.8535 28.0589 10.3676 28.779C10.3676 28.779 9.86372 29.4672 9.03505 28.9082C9.03505 28.9082 7.54523 27.8638 7.25459 27.8259ZM4.39564 25.3195C4.39564 25.3195 4.9543 24.7881 5.48477 25.3006L6.35715 26.1428C6.35715 26.1428 6.53442 26.337 6.70503 26.1599C6.70503 26.1599 6.93444 26.0168 6.6986 25.7892L5.81491 24.9585C5.81491 24.9585 5.29575 24.4345 5.75035 23.9166C5.75035 23.9166 5.65849 23.9646 7.27323 25.501C7.27323 25.501 7.89911 26.1739 7.29586 26.7989C7.29586 26.7989 6.6804 27.3893 5.96112 26.6946C5.96112 26.6946 4.67541 25.4073 4.39564 25.3195ZM2.16346 22.25C2.16346 22.25 2.8204 21.8464 3.23262 22.4579L3.91087 23.4634C3.91087 23.4634 4.04398 23.6899 4.24766 23.5526C4.24766 23.5526 4.50169 23.4603 4.31843 23.1885L3.62666 22.1923C3.62666 22.1923 3.22774 21.5717 3.78019 21.1597C3.78019 21.1597 3.68035 21.1875 4.94032 23.0261C4.94032 23.0261 5.41267 23.8146 4.69272 24.3002C4.69272 24.3002 3.96788 24.7495 3.40879 23.9209C3.40901 23.9206 2.41883 22.394 2.16346 22.25ZM1 18.4068C1 18.4068 1.75523 18.2522 1.93361 18.9677L2.22691 20.1445C2.22691 20.1445 2.27439 20.403 2.51312 20.3435C2.51312 20.3435 2.78335 20.3435 2.70414 20.0256L2.39486 18.8528C2.39486 18.8528 2.23246 18.1333 2.89228 17.9349C2.89228 17.9349 2.7889 17.9267 3.34422 20.0855C3.34422 20.0855 3.51861 20.9878 2.67574 21.1981C2.67574 21.1981 1.84087 21.3725 1.59903 20.4025C1.59881 20.4025 1.19058 18.6294 1 18.4068ZM1.1766 14.4534C1.1766 14.4534 1.93938 14.5664 1.86217 15.2999L1.73548 16.5059C1.73548 16.5059 1.69177 16.765 1.93627 16.7908C1.93627 16.7908 2.1903 16.8833 2.22447 16.5574L2.33496 15.3495C2.33496 15.3495 2.42837 14.6178 3.11615 14.6571C3.11615 14.6571 3.02185 14.6141 2.80509 16.8325C2.80509 16.8325 2.66044 17.7401 1.79649 17.6494C1.79649 17.6494 0.952299 17.5278 1.05702 16.5334C1.0568 16.5336 1.27955 14.7279 1.1766 14.4534ZM2.67464 10.9517C2.67464 10.9517 3.33934 11.3424 2.99301 11.9934L2.42371 13.0643C2.42371 13.0643 2.28615 13.2882 2.50313 13.4036C2.50313 13.4036 2.70392 13.5846 2.8579 13.2951L3.41278 12.2166C3.41278 12.2166 3.77331 11.5732 4.39675 11.8674C4.39675 11.8674 4.32531 11.7924 3.29342 13.7679C3.29342 13.7679 2.81907 14.5551 2.05208 14.1473C2.05208 14.1473 1.31505 13.7182 1.78429 12.8354C1.78429 12.8358 2.66709 11.2448 2.67464 10.9517ZM4.87709 8.10145C4.87709 8.10145 5.44595 8.62172 4.97204 9.18659L4.19241 10.1158C4.19241 10.1158 4.01137 10.3061 4.19951 10.4641C4.19951 10.4641 4.35814 10.6828 4.56892 10.4319L5.3359 9.49232C5.3359 9.49232 5.82245 8.93766 6.3709 9.35521C6.3709 9.35521 6.31654 9.2669 4.89639 10.9848C4.89639 10.9848 4.26873 11.6562 3.60336 11.098C3.60336 11.098 2.97149 10.5249 3.61423 9.75922C3.61445 9.759 4.8092 8.38654 4.87709 8.10145ZM7.72761 5.84331C7.72761 5.84331 8.15381 6.48583 7.55721 6.91935L6.57613 7.6322C6.57613 7.6322 6.35426 7.77309 6.4987 7.97188C6.4987 7.97188 6.59987 8.22259 6.86499 8.03001L7.83654 7.30384C7.83654 7.30384 8.4429 6.88363 8.87398 7.42121C8.87398 7.42121 8.8427 7.32248 7.04914 8.6459C7.04914 8.6459 6.27772 9.14554 5.76721 8.44268C5.76721 8.44268 5.29286 7.73404 6.10156 7.14632C6.10156 7.14632 7.59249 6.10356 7.72761 5.84331ZM10.7887 4.19996C10.7887 4.19996 11.0968 4.90659 10.4339 5.23007L9.34389 5.76166C9.34389 5.76166 9.10095 5.86194 9.20877 6.08292C9.20877 6.08292 9.26468 6.34738 9.55954 6.20362L10.6422 5.65716C10.6422 5.65716 11.3123 5.34855 11.6435 5.95291C11.6435 5.95291 11.63 5.85019 9.63387 6.84192C9.63387 6.84192 8.78745 7.20001 8.40651 6.41927C8.40651 6.41927 8.0624 5.63897 8.96117 5.20079C8.96117 5.20057 10.6105 4.43269 10.7887 4.19996ZM14.0716 2.74785C14.0716 2.74785 14.3041 3.48289 13.6112 3.73515L12.4715 4.14981C12.4715 4.14981 12.2195 4.22392 12.3036 4.4551C12.3036 4.4551 12.3317 4.72378 12.6397 4.61196L13.7736 4.18176C13.7736 4.18176 14.4721 3.94503 14.7385 4.58045C14.7385 4.58045 14.7356 4.47684 12.6468 5.25448C12.6468 5.25448 11.7675 5.52227 11.4705 4.70603C11.4705 4.70603 11.2098 3.894 12.1494 3.55211C12.1494 3.55211 13.8702 2.96062 14.0716 2.74785ZM17.4655 1.85041C17.4655 1.85041 17.5935 2.61074 16.8722 2.76405L15.6859 3.01631C15.6859 3.01631 15.4261 3.05469 15.4771 3.29519C15.4771 3.29519 15.4676 3.5652 15.7882 3.49709L16.9712 3.22908C16.9712 3.22908 17.696 3.09174 17.871 3.75822C17.871 3.75822 17.8828 3.65528 15.7061 4.13473C15.7061 4.13473 14.798 4.27739 14.6174 3.42764C14.6174 3.42764 14.4723 2.58722 15.4501 2.37956C15.4501 2.37933 17.2363 2.03322 17.4655 1.85041ZM20.9705 1.2425C20.9705 1.2425 21.0453 2.00993 20.3149 2.11243L19.1139 2.28127C19.1139 2.28127 18.8519 2.30146 18.8863 2.54484C18.8863 2.54484 18.8579 2.81352 19.1825 2.76804L20.381 2.58323C20.381 2.58323 21.1136 2.4967 21.2418 3.17383C21.2418 3.17383 21.2607 3.072 19.0558 3.39836C19.0558 3.39836 18.1402 3.47712 18.0192 2.61717C18.0192 2.61717 17.9332 1.76876 18.9231 1.62965C18.9231 1.62965 20.7291 1.4089 20.9705 1.2425ZM24.623 1C24.623 1 24.6171 1.77098 23.88 1.79672L22.668 1.83909C22.668 1.83909 22.4053 1.83177 22.4139 2.0776C22.4139 2.0776 22.3576 2.34184 22.6851 2.33052L23.8964 2.27173C23.8964 2.27173 24.6339 2.26241 24.6907 2.94908C24.6907 2.94908 24.7202 2.84969 22.4931 2.94376C22.4931 2.94376 21.5742 2.92667 21.5438 2.05852C21.5438 2.05852 21.5469 1.20567 22.546 1.17084C22.5464 1.17084 24.3655 1.14022 24.623 1Z" fill="white"/>
<path d="M7.91943 25.2622C7.91943 25.2622 16.1795 22.4104 14.3114 4.1203L48.7286 16.3138L7.91943 25.2622ZM13.2295 2.79266L14.9996 3.3826C14.9996 3.3826 15.442 2.44855 14.4094 2.20273C14.4094 2.20273 13.5739 1.92406 13.2295 2.79266Z" fill="white" stroke="black" stroke-width="0.3"/>
<path d="M14.2954 3.13681L15.0003 3.38263C15.0003 3.38263 15.4263 2.38291 14.2954 2.16992C14.2954 2.16992 14.6724 2.76807 14.2954 3.13681Z" fill="black"/>
<path d="M14.4755 3.20231L7.15263 28.114L6.36279 27.8681L13.7542 2.9729L14.4755 3.20231Z" fill="white" stroke="black" stroke-width="0.4"/>
<path d="M14.1808 3.104L6.83838 27.9662" stroke="black"/>
<path d="M18.7147 13.4988H19.1012C19.5587 13.4988 19.8609 13.5588 20.0075 13.6786C20.1537 13.7984 20.187 13.9996 20.1071 14.2825C20.0248 14.5744 19.8755 14.781 19.6599 14.9024C19.4442 15.0237 19.1076 15.0843 18.6493 15.0843H18.2863L18.7147 13.4988ZM16.2778 13.4372H17.1381L15.5742 18.7965H17.2974L17.8878 16.5717H18.549C19.1287 16.5717 19.5594 16.5393 19.8407 16.4747C20.1161 16.4128 20.3791 16.3051 20.619 16.1563C20.9336 15.9597 21.207 15.7037 21.4239 15.4027C21.6464 15.0969 21.8177 14.7424 21.9369 14.3397C22.0489 13.9617 22.0826 13.6182 22.0378 13.3092C21.9923 13.0003 21.869 12.7427 21.668 12.5368C21.4969 12.3587 21.2613 12.2324 20.9618 12.1586C20.6618 12.0847 20.1145 12.0479 19.32 12.0479H17.1006L16.2778 13.4372ZM31.0741 12.0483H33.6276L29.6041 18.7965H27.8072L27.2392 12.0483H29.0101L29.1659 16.5302L30.9002 13.6457L30.2413 13.634L31.0741 12.0483Z" fill="black"/>
<path d="M25.8908 12.2574L26.063 12.0116L27.0463 12.5525L26.1366 13.9784C26.1366 13.9784 25.3992 13.3883 24.5878 13.2656C24.5878 13.2656 23.924 13.2656 23.924 13.8801C23.924 13.8801 23.9486 14.2981 24.8827 14.8634C24.8827 14.8634 25.866 15.429 25.866 16.4369C25.866 16.4369 25.9399 18.7969 23.1373 18.7969C23.1373 18.7969 21.8098 18.9198 20.728 17.4692L21.8342 16.363C21.8342 16.363 22.3259 17.1988 23.1373 17.1988C23.1373 17.1988 23.9976 17.2971 23.9976 16.535C23.9976 16.535 24.0223 16.1662 23.2848 15.6746C23.2848 15.6746 22.2769 15.0354 22.2769 14.0274C22.2769 14.0274 22.3261 11.8887 24.6615 11.8887C24.6617 11.8887 25.3992 11.8887 25.8908 12.2574Z" fill="black"/>
</svg>
