<svg width="25" height="33" viewBox="0 0 25 33" fill="none" xmlns="http://www.w3.org/2000/svg">
<path d="M24.2154 7.68985L24.1294 7.23059L23.6741 7.13497C23.6431 7.12917 20.6284 6.4946 17.9454 4.99221C14.1229 2.84512 12.8345 1.48978 12.8237 1.47747L12.3128 0.92041L11.8019 1.47457C11.7889 1.48833 10.4977 2.84657 6.6773 4.99004C3.99576 6.49026 0.978208 7.12555 0.947137 7.13134L0.491181 7.22696L0.405911 7.68623C-0.127363 10.5534 -0.135308 13.443 0.382792 16.2782L0.614018 17.4076L0.67833 17.6691C1.40743 20.6441 2.69653 23.4229 4.51241 25.9308C6.48148 28.6516 8.98527 30.9312 11.9515 32.7074L12.307 32.9204L12.664 32.7074C15.6302 30.932 18.1333 28.6537 20.1045 25.9329C21.9211 23.4258 23.2102 20.6485 23.9408 17.6727L24.237 16.2826C24.7544 13.4466 24.7479 10.5584 24.2154 7.68985Z" fill="black"/>
<path d="M23.5338 7.81653C23.5338 7.81653 20.41 7.17037 17.6071 5.59917C13.5757 3.33617 12.3119 1.94751 12.3119 1.94751C12.3119 1.94751 11.0459 3.33617 7.01532 5.59772C4.21021 7.1682 1.08716 7.81291 1.08716 7.81291C0.510532 10.9126 0.577731 14.0166 1.22951 16.9728L23.3878 16.9765C24.0411 14.0202 24.1083 10.9169 23.5338 7.81653Z" fill="#F89728"/>
<path d="M12.3073 32.1093C18.1748 28.5989 22.0378 23.1029 23.3876 16.9768L1.22852 16.9731C2.57904 23.0993 6.43842 28.5967 12.3073 32.1093Z" fill="#B30838"/>
<path d="M9.71766 26.6183V26.2685C9.71766 26.2047 9.71766 26.1736 9.67792 26.1736C9.62806 26.1736 9.43007 26.2757 9.37298 26.2996C9.35998 26.3054 9.34625 26.3112 9.33541 26.3112C9.32746 26.3112 9.31445 26.296 9.31445 26.2801C9.31445 26.2641 9.32746 26.2518 9.34047 26.2438C9.35203 26.2366 9.85857 25.9019 9.95106 25.8324C9.9749 25.8172 9.99803 25.7976 10.019 25.7976C10.0435 25.7976 10.0508 25.828 10.0508 25.8541C10.0508 25.8751 10.0342 26.1388 10.0342 26.5481V27.0421C10.0342 27.2985 10.0342 27.5253 10.045 27.6434C10.0529 27.7288 10.066 27.7672 10.1498 27.7868C10.1902 27.794 10.303 27.8027 10.3246 27.8027C10.3348 27.8027 10.3485 27.8107 10.3485 27.8295C10.3485 27.8484 10.3355 27.8534 10.3066 27.8534C10.1057 27.8534 9.93733 27.8455 9.86579 27.8455C9.80654 27.8455 9.58398 27.8534 9.41417 27.8534C9.38599 27.8534 9.37009 27.8484 9.37009 27.8295C9.37009 27.8107 9.38021 27.8027 9.39105 27.8027C9.41995 27.8027 9.55435 27.794 9.60204 27.7832C9.68659 27.7651 9.6996 27.7288 9.70754 27.6434C9.71766 27.5246 9.72344 27.2985 9.72055 27.0421L9.71766 26.6183Z" fill="#010101"/>
<path d="M9.71766 26.6183V26.2685C9.71766 26.2047 9.71766 26.1736 9.67792 26.1736C9.62806 26.1736 9.43007 26.2757 9.37298 26.2996C9.35998 26.3054 9.34625 26.3112 9.33541 26.3112C9.32746 26.3112 9.31445 26.296 9.31445 26.2801C9.31445 26.2641 9.32746 26.2518 9.34047 26.2438C9.35203 26.2366 9.85857 25.9019 9.95106 25.8324C9.9749 25.8172 9.99803 25.7976 10.019 25.7976C10.0435 25.7976 10.0508 25.828 10.0508 25.8541C10.0508 25.8751 10.0342 26.1388 10.0342 26.5481V27.0421C10.0342 27.2985 10.0342 27.5253 10.045 27.6434C10.0529 27.7288 10.066 27.7672 10.1498 27.7868C10.1902 27.794 10.303 27.8027 10.3246 27.8027C10.3348 27.8027 10.3485 27.8107 10.3485 27.8302C10.3485 27.8484 10.3355 27.8534 10.3066 27.8534C10.1057 27.8534 9.93733 27.8455 9.86579 27.8455C9.80654 27.8455 9.58398 27.8534 9.41417 27.8534C9.38599 27.8534 9.37009 27.8484 9.37009 27.8302C9.37009 27.8107 9.38021 27.8027 9.39105 27.8027C9.41995 27.8027 9.55435 27.794 9.60204 27.7832C9.68659 27.7651 9.6996 27.7288 9.70754 27.6434C9.71766 27.5246 9.72344 27.2985 9.72055 27.0421L9.71766 26.6183Z" stroke="black" stroke-width="0.38" stroke-miterlimit="10"/>
<path d="M12.0721 26.5242C12.0721 27.2718 11.4254 27.7419 11.0995 27.8969C11.0865 27.9041 11.0735 27.9078 11.0533 27.9078C11.0417 27.9078 11.0287 27.894 11.0287 27.8802C11.0287 27.8607 11.0475 27.8455 11.0605 27.8361C11.3344 27.6673 11.7463 27.2283 11.7463 26.5995C11.7463 26.1272 11.549 25.9193 11.3452 25.9193C11.1559 25.9193 11.0294 26.0903 11.0294 26.317C11.0294 26.7248 11.2903 26.8212 11.3806 26.8212C11.4731 26.8212 11.5259 26.8052 11.5598 26.7893C11.588 26.7734 11.6025 26.7611 11.6126 26.7611C11.6227 26.7611 11.6335 26.7719 11.6335 26.7842C11.6335 26.7922 11.6256 26.8096 11.6205 26.8132C11.5447 26.8965 11.4074 26.9356 11.273 26.9356C10.8929 26.9356 10.7354 26.6444 10.7354 26.4206C10.7354 26.0598 11.0042 25.7983 11.4103 25.7983C11.838 25.7983 12.0721 26.1192 12.0721 26.5242Z" fill="#010101"/>
<path d="M12.0721 26.5242C12.0721 27.2718 11.4254 27.7419 11.0995 27.8969C11.0865 27.9042 11.0735 27.9078 11.0533 27.9078C11.0417 27.9078 11.0287 27.894 11.0287 27.8802C11.0287 27.8607 11.0475 27.8455 11.0605 27.8361C11.3344 27.6673 11.7463 27.2283 11.7463 26.5995C11.7463 26.1272 11.549 25.9193 11.3452 25.9193C11.1559 25.9193 11.0294 26.0903 11.0294 26.317C11.0294 26.7248 11.2903 26.8212 11.3806 26.8212C11.4731 26.8212 11.5259 26.8053 11.5598 26.7893C11.588 26.7734 11.6025 26.7611 11.6126 26.7611C11.6227 26.7611 11.6335 26.7719 11.6335 26.7842C11.6335 26.7922 11.6256 26.8096 11.6205 26.8132C11.5447 26.8965 11.4074 26.9356 11.273 26.9356C10.8929 26.9356 10.7354 26.6444 10.7354 26.4206C10.7354 26.0599 11.0042 25.7991 11.4103 25.7991C11.838 25.7983 12.0721 26.1193 12.0721 26.5242Z" stroke="black" stroke-width="0.38" stroke-miterlimit="10"/>
<path d="M12.3437 27.8462C12.325 27.8462 12.3076 27.8303 12.3076 27.8093C12.3076 27.7883 12.3336 27.7636 12.3596 27.7397C12.7282 27.4123 13.2535 26.9951 13.2535 26.4322C13.2535 26.0106 13.0237 25.9244 12.8922 25.9244C12.7795 25.9244 12.692 25.9461 12.6126 26.0207C12.5504 26.083 12.502 26.2076 12.502 26.2765C12.502 26.304 12.494 26.3286 12.4688 26.3286C12.455 26.3286 12.4471 26.3091 12.4442 26.2765C12.442 26.2533 12.429 26.0316 12.429 25.9548C12.429 25.9309 12.4319 25.9201 12.4608 25.9005C12.5627 25.8469 12.7058 25.7998 12.9377 25.7998C13.4016 25.7998 13.5989 26.0562 13.5989 26.3685C13.5989 26.8864 13.0331 27.3377 12.692 27.613C12.679 27.6216 12.6841 27.6303 12.6971 27.6303H12.877C12.9218 27.6303 13.2325 27.6282 13.3308 27.6159C13.5129 27.5934 13.5989 27.5036 13.6314 27.3783C13.6386 27.3464 13.6466 27.3355 13.6632 27.3355C13.6805 27.3355 13.6842 27.3594 13.6842 27.3862C13.6842 27.429 13.6343 27.6782 13.6076 27.7673C13.5866 27.839 13.544 27.8477 13.3778 27.8477L12.3437 27.8462Z" fill="#010101"/>
<path d="M12.3437 27.8462C12.325 27.8462 12.3076 27.8303 12.3076 27.8093C12.3076 27.7883 12.3336 27.7636 12.3596 27.7397C12.7282 27.4123 13.2535 26.9951 13.2535 26.4322C13.2535 26.0106 13.0237 25.9251 12.8922 25.9251C12.7795 25.9251 12.692 25.9461 12.6126 26.0207C12.5504 26.083 12.502 26.2076 12.502 26.2765C12.502 26.304 12.494 26.3286 12.4688 26.3286C12.455 26.3286 12.4471 26.3091 12.4442 26.2765C12.442 26.2533 12.429 26.0316 12.429 25.9548C12.429 25.9309 12.4319 25.9201 12.4608 25.9005C12.5627 25.8476 12.7058 25.7998 12.9377 25.7998C13.4016 25.7998 13.5989 26.0562 13.5989 26.3677C13.5989 26.8857 13.0331 27.337 12.692 27.6122C12.679 27.6209 12.6841 27.6296 12.6971 27.6296H12.877C12.9218 27.6296 13.2325 27.6282 13.3308 27.6151C13.5129 27.5927 13.5989 27.5021 13.6314 27.3768C13.6386 27.3449 13.6466 27.3341 13.6632 27.3341C13.6805 27.3341 13.6842 27.3587 13.6842 27.3848C13.6842 27.4275 13.6343 27.6767 13.6076 27.7658C13.5866 27.8375 13.544 27.8462 13.3778 27.8462H12.3437Z" stroke="black" stroke-width="0.38" stroke-miterlimit="10"/>
<path d="M15.2369 25.8437C15.2868 25.8437 15.2998 25.8524 15.2998 25.8647C15.2998 25.8814 15.2897 25.9024 15.2817 25.9132C15.0628 26.2283 14.6516 27.2881 14.6119 27.6293C14.6076 27.675 14.6119 27.6923 14.6119 27.7293C14.6119 27.7814 14.3995 27.8901 14.2802 27.8901C14.2499 27.8901 14.2434 27.8821 14.2434 27.859C14.2434 27.8307 14.2484 27.7909 14.2622 27.7488C14.3359 27.4924 14.6733 26.705 15.0368 26.0893H14.3539C14.2802 26.0893 14.1704 26.0943 14.1068 26.1371C14.0584 26.1689 14.0244 26.2544 14.0186 26.2964C14.0165 26.3174 14.0085 26.3327 13.9926 26.3327C13.9746 26.3327 13.9717 26.3182 13.9717 26.2906C13.9717 26.1936 14.0114 25.8806 14.0114 25.8538C14.0114 25.8292 14.0215 25.8169 14.0374 25.8169C14.0533 25.8169 14.114 25.843 14.3937 25.843L15.2369 25.8437Z" fill="#010101"/>
<path d="M15.2369 25.8437C15.2868 25.8437 15.2998 25.8524 15.2998 25.8647C15.2998 25.8814 15.2897 25.9024 15.2817 25.9132C15.0628 26.2283 14.6516 27.2881 14.6119 27.6293C14.6076 27.675 14.6119 27.6923 14.6119 27.7293C14.6119 27.7814 14.3995 27.8901 14.2802 27.8901C14.2499 27.8901 14.2434 27.8821 14.2434 27.859C14.2434 27.8307 14.2484 27.7909 14.2622 27.7488C14.3359 27.4924 14.6733 26.705 15.0368 26.0893H14.3539C14.2802 26.0893 14.1704 26.0943 14.1068 26.1371C14.0584 26.1689 14.0244 26.2544 14.0186 26.2964C14.0165 26.3174 14.0085 26.3327 13.9926 26.3327C13.9746 26.3327 13.9717 26.3182 13.9717 26.2906C13.9717 26.1936 14.0114 25.8806 14.0114 25.8538C14.0114 25.8292 14.0215 25.8169 14.0374 25.8169C14.0533 25.8169 14.114 25.843 14.3937 25.843L15.2369 25.8437Z" stroke="black" stroke-width="0.38" stroke-miterlimit="10"/>
<path d="M9.71766 26.5219V26.1735C9.71766 26.109 9.71766 26.0771 9.67792 26.0771C9.62806 26.0771 9.43079 26.18 9.37298 26.2046C9.35998 26.2104 9.34625 26.2162 9.33541 26.2162C9.32818 26.2162 9.31445 26.2025 9.31445 26.1858C9.31445 26.1699 9.3289 26.1568 9.34047 26.1489C9.35203 26.1423 9.85857 25.8069 9.95106 25.7381C9.97346 25.7215 9.99803 25.7019 10.019 25.7019C10.0435 25.7019 10.0508 25.7323 10.0508 25.7591C10.0508 25.7794 10.0342 26.0438 10.0342 26.4531V26.9464C10.0342 27.2028 10.0342 27.4303 10.045 27.5462C10.0529 27.6331 10.066 27.6722 10.1498 27.6918C10.1902 27.6991 10.303 27.707 10.3246 27.707C10.3348 27.707 10.3485 27.7157 10.3485 27.736C10.3485 27.7534 10.3355 27.757 10.3066 27.757C10.1057 27.757 9.93733 27.7498 9.86579 27.7498C9.80654 27.7498 9.58398 27.757 9.41561 27.7563C9.38599 27.7563 9.37081 27.7527 9.37081 27.7353C9.37081 27.715 9.38093 27.7063 9.39177 27.7063C9.42067 27.7063 9.55508 27.6983 9.60277 27.6889C9.68731 27.6693 9.70032 27.6331 9.70827 27.5462C9.71838 27.4303 9.72416 27.2028 9.72127 26.9464L9.71766 26.5219Z" fill="#C9CACC"/>
<path d="M12.0726 26.4285C12.0726 27.176 11.4259 27.6462 11.1 27.8012C11.0863 27.8084 11.074 27.812 11.0523 27.812C11.0415 27.812 11.0285 27.7968 11.0285 27.7838C11.0285 27.765 11.0473 27.7497 11.0603 27.7389C11.3341 27.5701 11.746 27.1326 11.746 26.5031C11.746 26.0308 11.5487 25.8214 11.3457 25.8214C11.1556 25.8214 11.0285 25.9924 11.0285 26.2198C11.0285 26.6277 11.2893 26.7247 11.3797 26.7247C11.4721 26.7247 11.5249 26.7081 11.5589 26.6929C11.587 26.6755 11.6015 26.6624 11.6116 26.6624C11.6217 26.6624 11.6326 26.674 11.6326 26.6863C11.6326 26.6936 11.6246 26.7095 11.6196 26.7153C11.5437 26.7979 11.4064 26.8363 11.272 26.8363C10.8919 26.8363 10.7344 26.5465 10.7344 26.322C10.7344 25.9619 11.0032 25.7004 11.4093 25.7004C11.8385 25.7026 12.0726 26.0235 12.0726 26.4285Z" fill="#C9CACC"/>
<path d="M12.3438 27.7505C12.3389 27.7505 12.3341 27.7495 12.3296 27.7476C12.3251 27.7457 12.3211 27.7429 12.3177 27.7394C12.3143 27.7359 12.3117 27.7317 12.31 27.7271C12.3082 27.7226 12.3075 27.7177 12.3076 27.7128C12.3076 27.6925 12.3337 27.6672 12.3597 27.644C12.7282 27.3159 13.2535 26.9001 13.2535 26.3365C13.2535 25.9149 13.0237 25.8294 12.8922 25.8294C12.7795 25.8294 12.6921 25.8504 12.6126 25.9243C12.5504 25.9866 12.502 26.1119 12.502 26.1807C12.502 26.209 12.4941 26.2322 12.4688 26.2322C12.4551 26.2322 12.4471 26.2126 12.4442 26.1807C12.4413 26.1576 12.429 25.9359 12.429 25.8577C12.429 25.8338 12.4319 25.8229 12.4608 25.8041C12.5627 25.7512 12.7058 25.7034 12.9377 25.7034C13.4017 25.7034 13.5989 25.9598 13.5989 26.2727C13.5989 26.7892 13.0331 27.2405 12.6921 27.5165C12.6791 27.5252 12.6841 27.5346 12.6971 27.5354H12.8771C12.9219 27.5354 13.2326 27.5317 13.3308 27.5194C13.5129 27.4977 13.5989 27.4064 13.6314 27.2825C13.6387 27.2492 13.6473 27.2398 13.6632 27.2398C13.6813 27.2398 13.6842 27.2644 13.6842 27.2891C13.6842 27.3333 13.6343 27.5817 13.6076 27.6708C13.5866 27.7425 13.544 27.7512 13.3778 27.7512L12.3438 27.7505Z" fill="#C9CACC"/>
<path d="M15.2369 25.7482C15.2868 25.7482 15.2998 25.7577 15.2998 25.7692C15.2998 25.7859 15.2897 25.8076 15.2817 25.8171C15.0628 26.1329 14.6516 27.1919 14.6119 27.5353C14.6076 27.5795 14.6119 27.5983 14.6119 27.6346C14.6119 27.686 14.3995 27.7954 14.2802 27.7954C14.2499 27.7954 14.2434 27.7874 14.2434 27.7635C14.2434 27.736 14.2484 27.6976 14.2622 27.6548C14.3359 27.3984 14.6733 26.6103 15.0368 25.9945H14.3539C14.2802 25.9945 14.1704 25.9989 14.1068 26.0423C14.0584 26.0742 14.0244 26.1611 14.0186 26.2032C14.0165 26.2242 14.0085 26.2372 13.9926 26.2372C13.9746 26.2372 13.9717 26.2242 13.9717 26.1974C13.9717 26.0967 14.0107 25.7859 14.0107 25.7591C14.0107 25.733 14.0215 25.7214 14.0374 25.7214C14.0533 25.7214 14.114 25.749 14.3937 25.749L15.2369 25.7482Z" fill="#C9CACC"/>
<path d="M4.46781 21.1398C4.46781 20.3857 4.46781 20.2466 4.45769 20.0887C4.44757 19.9206 4.40856 19.841 4.24453 19.8047C4.20406 19.7946 4.12024 19.7903 4.05159 19.7903C3.9974 19.7903 3.96777 19.7808 3.96777 19.7453C3.96777 19.7113 4.00246 19.7012 4.07689 19.7012C4.33919 19.7012 4.65134 19.7171 4.7554 19.7171C4.92304 19.7171 5.29951 19.7012 5.45343 19.7012C5.76486 19.7012 6.09653 19.7316 6.36317 19.9149C6.50191 20.009 6.69918 20.2633 6.69918 20.5943C6.69918 20.9616 6.54598 21.2984 6.0474 21.7048C6.48673 22.2604 6.82852 22.7023 7.11973 23.0102C7.3972 23.2985 7.60097 23.3333 7.67395 23.3477C7.72887 23.3586 7.77367 23.363 7.81197 23.363C7.85244 23.363 7.87194 23.3789 7.87194 23.4021C7.87194 23.4419 7.83871 23.4528 7.77873 23.4528H7.30905C7.03157 23.4528 6.90801 23.4289 6.77794 23.3586C6.5655 23.2434 6.37762 23.0109 6.10087 22.6299C5.90215 22.3553 5.67454 22.0185 5.61095 21.9446C5.58638 21.9142 5.55603 21.9091 5.52207 21.9091L5.09141 21.899C5.06684 21.899 5.05239 21.9084 5.05239 21.9381V22.0083C5.05239 22.4698 5.05238 22.8624 5.07623 23.0696C5.0914 23.2137 5.12103 23.3231 5.26917 23.3427C5.34431 23.3535 5.4527 23.363 5.51196 23.363C5.5517 23.363 5.57121 23.3789 5.57121 23.4021C5.57121 23.4383 5.5358 23.4528 5.47294 23.4528C5.1839 23.4528 4.81827 23.4383 4.74456 23.4383C4.65062 23.4383 4.33846 23.4528 4.14119 23.4528C4.07616 23.4528 4.04147 23.4383 4.04147 23.4021C4.04147 23.3789 4.06099 23.363 4.12024 23.363C4.19539 23.363 4.25392 23.3535 4.29944 23.3427C4.39771 23.3231 4.42301 23.2145 4.44252 23.0696C4.46781 22.8624 4.46781 22.4698 4.46781 22.0141V21.1398ZM5.05094 21.5317C5.05094 21.586 5.06106 21.607 5.09502 21.6201C5.19835 21.657 5.3472 21.6715 5.47149 21.6715C5.66876 21.6715 5.73234 21.6505 5.82195 21.586C5.97008 21.4781 6.1146 21.2485 6.1146 20.8421C6.1146 20.138 5.64997 19.9344 5.3566 19.9344C5.23376 19.9344 5.14415 19.9395 5.09502 19.954C5.06033 19.9634 5.05094 19.9829 5.05094 20.0228V21.5317ZM7.66384 21.5766C7.66384 20.7298 8.22385 19.6338 9.70733 19.6338C10.9394 19.6338 11.7067 20.3538 11.7067 21.4875C11.7067 22.6241 10.9148 23.5216 9.65747 23.5209C8.23758 23.5216 7.66384 22.4546 7.66384 21.5766ZM11.0138 21.673C11.0138 20.5603 10.3757 19.8714 9.56498 19.8714C8.99413 19.8714 8.34669 20.188 8.34597 21.4238C8.34597 22.4546 8.91465 23.2739 9.86413 23.2739C10.2124 23.2739 11.0138 23.1058 11.0138 21.673ZM12.4792 19.7627C12.4937 19.6787 12.5233 19.6345 12.563 19.6345C12.6028 19.6345 12.6324 19.657 12.6967 19.7866L14.0472 22.5451L15.3934 19.7526C15.4332 19.6736 15.457 19.6352 15.5025 19.6352C15.5459 19.6352 15.5762 19.683 15.5907 19.7874L16.0409 22.8233C16.0864 23.1348 16.1348 23.2789 16.2837 23.3246C16.4275 23.3695 16.5264 23.3745 16.5908 23.3745C16.6348 23.3745 16.6702 23.3789 16.6702 23.4086C16.6702 23.4484 16.6103 23.4636 16.5416 23.4636C16.4173 23.4636 15.7345 23.4535 15.5365 23.4383C15.423 23.4289 15.3934 23.4129 15.3934 23.384C15.3934 23.3593 15.4122 23.3441 15.4469 23.3296C15.4772 23.3188 15.4917 23.255 15.4722 23.1145L15.1759 20.9587H15.1557L14.0769 23.171C13.9634 23.4028 13.9381 23.4477 13.894 23.4477C13.8485 23.4477 13.8001 23.3485 13.7206 23.2C13.6014 22.9725 13.2119 22.2133 13.1512 22.0735C13.1071 21.9692 12.8101 21.3846 12.6374 21.0123H12.6179L12.36 22.9464C12.3506 23.0355 12.3455 23.1015 12.3455 23.1797C12.3455 23.2739 12.4106 23.3188 12.4937 23.3391C12.5833 23.3586 12.6519 23.3644 12.7018 23.3644C12.7415 23.3644 12.7762 23.3745 12.7762 23.3985C12.7762 23.4434 12.7307 23.4535 12.657 23.4535C12.4496 23.4535 12.2263 23.4383 12.1374 23.4383C12.0428 23.4383 11.8057 23.4528 11.6468 23.4528C11.5976 23.4528 11.5579 23.4426 11.5579 23.3977C11.5579 23.3738 11.5875 23.3637 11.6374 23.3637C11.6771 23.3637 11.7118 23.3637 11.7862 23.3485C11.9243 23.318 11.964 23.1246 11.9893 22.9566L12.4792 19.7627Z" fill="#010101"/>
<path d="M17.9029 22.1892C17.8768 22.1892 17.8674 22.1979 17.8573 22.2283L17.59 22.9086C17.5408 23.0317 17.5163 23.1519 17.5163 23.2121C17.5163 23.3004 17.5603 23.3656 17.7135 23.3656H17.788C17.8472 23.3656 17.8617 23.3751 17.8617 23.4048C17.8617 23.4446 17.8328 23.454 17.7786 23.454C17.6203 23.454 17.4079 23.4395 17.254 23.4395C17.1998 23.4395 16.9281 23.454 16.6701 23.454C16.6058 23.454 16.5762 23.4446 16.5762 23.4048C16.5762 23.3758 16.5964 23.3656 16.6361 23.3656C16.6802 23.3656 16.7496 23.3598 16.7893 23.3548C17.0162 23.3258 17.1102 23.157 17.2099 22.9086L18.4513 19.8335C18.5113 19.6894 18.5409 19.6365 18.5908 19.6365C18.6348 19.6365 18.6659 19.6799 18.7143 19.7937C18.8328 20.0668 19.6241 22.0509 19.9406 22.805C20.1284 23.2512 20.273 23.32 20.3763 23.3454C20.4507 23.3598 20.5244 23.3656 20.5844 23.3656C20.6234 23.3656 20.648 23.3707 20.648 23.4048C20.648 23.4446 20.6039 23.454 20.4204 23.454C20.2419 23.454 19.8806 23.454 19.4853 23.4439C19.3957 23.4395 19.3365 23.4395 19.3365 23.404C19.3365 23.3751 19.356 23.3649 19.4058 23.3598C19.4398 23.3504 19.4752 23.3055 19.4514 23.2461L19.0554 22.2247C19.0446 22.1986 19.0301 22.19 19.0055 22.19L17.9029 22.1892ZM18.9123 21.9408C18.9362 21.9408 18.9412 21.927 18.9362 21.9118L18.4903 20.6912C18.4867 20.6709 18.4809 20.6463 18.4665 20.6463C18.4506 20.6463 18.4419 20.6709 18.4376 20.6912L17.9823 21.9067C17.9766 21.927 17.9823 21.9408 18.0004 21.9408H18.9123Z" fill="#010101"/>
<path d="M4.46781 21.0294C4.46781 20.2753 4.46781 20.1363 4.45769 19.9783C4.44757 19.8096 4.40856 19.7306 4.24453 19.6944C4.20406 19.6857 4.12024 19.6792 4.05159 19.6792C3.9974 19.6792 3.96777 19.6705 3.96777 19.6343C3.96777 19.6017 4.00246 19.5908 4.07689 19.5908C4.33919 19.5908 4.65134 19.6053 4.7554 19.6053C4.92304 19.6053 5.29951 19.5908 5.45343 19.5908C5.76486 19.5908 6.09653 19.6219 6.36317 19.8038C6.50191 19.8979 6.69918 20.1522 6.69918 20.484C6.69918 20.8512 6.54598 21.1881 6.0474 21.5945C6.48673 22.1501 6.82852 22.592 7.11973 22.8998C7.3972 23.1874 7.60097 23.2222 7.67395 23.2381C7.72887 23.2475 7.77367 23.2519 7.81197 23.2519C7.85244 23.2519 7.87194 23.2678 7.87194 23.2917C7.87194 23.3316 7.83871 23.3424 7.77873 23.3424H7.30905C7.03157 23.3424 6.90801 23.3171 6.77794 23.2483C6.5655 23.1323 6.37762 22.9005 6.10087 22.5195C5.90215 22.2464 5.67454 21.9081 5.61095 21.8342C5.58638 21.8045 5.55603 21.7995 5.52207 21.7987L5.09141 21.7879C5.06684 21.7879 5.05239 21.7987 5.05239 21.8277V21.898C5.05239 22.3594 5.05238 22.7506 5.07623 22.9592C5.0914 23.1026 5.12103 23.2128 5.26917 23.2309C5.34431 23.2417 5.4527 23.2511 5.51196 23.2511C5.5517 23.2511 5.57121 23.2671 5.57121 23.291C5.57121 23.3272 5.5358 23.3417 5.47294 23.3417C5.1839 23.3417 4.81827 23.3272 4.74456 23.3272C4.65062 23.3272 4.33846 23.3417 4.14119 23.3417C4.07616 23.3417 4.04147 23.3272 4.04147 23.291C4.04147 23.2671 4.06099 23.2511 4.12024 23.2511C4.19539 23.2511 4.25392 23.2417 4.29944 23.2309C4.39771 23.212 4.42301 23.1026 4.44252 22.9592C4.46781 22.7506 4.46781 22.3594 4.46781 21.9031V21.0294ZM5.05094 21.4213C5.05094 21.4771 5.06106 21.4952 5.09502 21.5112C5.19835 21.5445 5.3472 21.5604 5.47149 21.5604C5.66876 21.5604 5.73234 21.5409 5.82195 21.4771C5.97008 21.367 6.1146 21.1381 6.1146 20.7317C6.1146 20.0283 5.64997 19.8241 5.3566 19.8241C5.23376 19.8241 5.14415 19.8298 5.09502 19.8436C5.06033 19.853 5.05094 19.874 5.05094 19.9132V21.4213ZM7.66384 21.4662C7.66384 20.618 8.22385 19.522 9.70733 19.5227C10.9394 19.5227 11.7067 20.2428 11.7067 21.3779C11.7067 22.5137 10.9148 23.4112 9.65747 23.4112C8.23758 23.4112 7.66384 22.3442 7.66384 21.4662ZM11.0138 21.5611C11.0138 20.4499 10.3757 19.7596 9.56498 19.7596C8.99413 19.7596 8.34669 20.0783 8.34597 21.3134C8.34597 22.3442 8.91465 23.1628 9.86413 23.1628C10.2124 23.1628 11.0138 22.994 11.0138 21.5611ZM12.4792 19.6509C12.4937 19.5669 12.5233 19.5227 12.563 19.5227C12.6028 19.5227 12.6324 19.5481 12.6967 19.6763L14.0472 22.434L15.3934 19.6422C15.4332 19.5625 15.457 19.5227 15.5025 19.5227C15.5459 19.5227 15.577 19.572 15.5907 19.6763L16.0416 22.7122C16.0857 23.0244 16.1348 23.1686 16.2829 23.2149C16.4267 23.2584 16.5257 23.2635 16.59 23.2635C16.6341 23.2635 16.6695 23.2678 16.6695 23.2975C16.6695 23.3381 16.6095 23.3533 16.5409 23.3533C16.4166 23.3533 15.7338 23.3431 15.5365 23.3287C15.423 23.3178 15.3934 23.3033 15.3934 23.2743C15.3934 23.249 15.4122 23.2338 15.4469 23.2186C15.4772 23.2091 15.4917 23.1439 15.4722 23.0049L15.1759 20.8462H15.1557L14.0769 23.0599C13.9634 23.2932 13.9381 23.3381 13.894 23.3381C13.8485 23.3381 13.8001 23.2388 13.7206 23.0896C13.6014 22.8622 13.2119 22.103 13.1512 21.9646C13.1071 21.8596 12.8101 21.2743 12.6374 20.9034H12.6172L12.36 22.8368C12.3506 22.9266 12.3448 22.9918 12.3448 23.0701C12.3448 23.1635 12.4098 23.2091 12.4929 23.2294C12.5825 23.249 12.6512 23.254 12.701 23.254C12.7408 23.254 12.7755 23.2635 12.7755 23.2888C12.7755 23.3337 12.7299 23.3431 12.6562 23.3431C12.4489 23.3431 12.2256 23.3279 12.1367 23.3279C12.042 23.3279 11.805 23.3424 11.6461 23.3424C11.5969 23.3424 11.5572 23.333 11.5572 23.2881C11.5572 23.2627 11.5868 23.2533 11.6367 23.2533C11.6764 23.2533 11.7111 23.2533 11.7855 23.2388C11.9235 23.2084 11.9633 23.015 11.9886 22.8469L12.4792 19.6509Z" fill="#F89728"/>
<path d="M17.9029 22.0777C17.8768 22.0777 17.8674 22.0885 17.8573 22.1168L17.59 22.7977C17.5408 22.9216 17.5163 23.0404 17.5163 23.0998C17.5163 23.1889 17.5603 23.2533 17.7135 23.2533H17.788C17.8472 23.2533 17.8617 23.2635 17.8617 23.2932C17.8617 23.333 17.8328 23.3424 17.7786 23.3424C17.6203 23.3424 17.4079 23.3279 17.254 23.3279C17.1998 23.3279 16.9281 23.3424 16.6701 23.3424C16.6058 23.3424 16.5762 23.333 16.5762 23.2932C16.5762 23.2635 16.5964 23.2533 16.6361 23.2533C16.6802 23.2533 16.7496 23.249 16.7893 23.2425C17.0162 23.2142 17.1102 23.0454 17.2099 22.7977L18.4513 19.7227C18.5113 19.5785 18.5409 19.5242 18.5908 19.5242C18.6348 19.5242 18.6659 19.5684 18.7143 19.6814C18.8328 19.9552 19.6241 21.9393 19.9406 22.6927C20.1284 23.1396 20.273 23.2091 20.3763 23.2331C20.4507 23.249 20.5244 23.2533 20.5844 23.2533C20.6234 23.2533 20.648 23.2591 20.648 23.2932C20.648 23.333 20.6039 23.3424 20.4204 23.3424C20.2419 23.3424 19.8806 23.3424 19.4853 23.3323C19.3957 23.3279 19.3365 23.3279 19.3365 23.2925C19.3365 23.2628 19.356 23.2526 19.4058 23.2483C19.4398 23.2396 19.4752 23.1939 19.4514 23.1338L19.0554 22.1124C19.0446 22.0885 19.0301 22.0777 19.0055 22.0777H17.9029ZM18.9123 21.8299C18.9362 21.8299 18.9412 21.8154 18.9362 21.8009L18.4903 20.5789C18.4867 20.5593 18.4809 20.5354 18.4665 20.5354C18.4506 20.5354 18.4419 20.5593 18.4376 20.5789L17.9823 21.7951C17.9766 21.8147 17.9823 21.8292 18.0004 21.8292L18.9123 21.8299Z" fill="#F89728"/>
<path d="M1.05273 16.9736L23.5644 16.9766" stroke="black" stroke-width="0.5" stroke-miterlimit="10" stroke-linecap="round"/>
<path d="M21.4545 15.0375C21.3938 14.96 21.3244 14.876 21.2529 14.7898C20.935 14.4029 20.2268 13.4496 20.2268 13.4496C20.2275 10.3536 19.6748 9.77625 19.1061 9.29018C18.6046 8.86207 17.8047 8.64258 16.9455 8.51001C16.7121 8.47307 16.4556 8.45713 16.1608 8.45713C15.8754 8.45713 15.5856 8.47162 15.3074 8.48756C15.0769 8.5006 11.0492 8.66938 9.75716 8.45061C9.19353 8.35499 8.41313 8.4651 7.9485 8.52088C7.73534 8.54551 6.57269 8.73168 6.43612 8.51146C6.4101 8.46945 6.41155 8.37817 6.42311 8.27458C6.43901 8.11232 6.50476 7.91529 6.37903 7.73781C6.20489 7.49442 6.01485 7.23291 5.91007 7.23291C5.87683 7.23291 5.58924 7.46906 5.51914 7.54005C5.40208 7.65885 5.36523 7.85299 5.37029 8.079C5.37318 8.21808 5.36451 8.19056 5.35367 8.20142C5.33633 8.21881 4.59567 8.21881 4.40779 8.23257C4.40707 8.1949 4.40129 8.00221 4.27556 7.81822C4.19391 7.70087 4.1267 7.30752 4.1267 7.30752C4.1267 7.30752 3.85863 7.77331 3.7683 7.89863C3.66714 8.03554 3.56309 8.17824 3.50239 8.34268C3.47926 8.40498 3.4742 8.48031 3.46915 8.55348C3.46698 8.60636 3.45903 8.71646 3.43735 8.73385C3.295 8.83816 3.21624 8.98087 3.20179 9.16052C3.1989 9.21267 3.21335 9.28294 3.22852 9.36407C3.23864 9.41623 3.25598 9.49736 3.25598 9.53648C3.24153 9.54662 3.2278 9.55603 3.21335 9.56545C3.0869 9.64586 2.91347 9.75959 2.92431 9.95952C2.94093 10.2623 3.0103 10.3797 3.10568 10.5441C3.13242 10.5905 3.15988 10.6368 3.19023 10.6933C3.23286 10.7745 3.25092 10.8904 3.26899 11.0026C3.29428 11.1598 3.14759 11.3322 3.24803 11.4315C3.37954 11.5604 3.71916 11.5677 3.86657 11.5677C3.90632 11.5677 4.06095 11.5633 4.0978 11.5633C4.15489 11.5633 4.19969 11.5669 4.23726 11.5742C4.52052 11.63 4.80522 11.6524 5.07909 11.6756C5.457 11.7053 5.81324 11.7343 6.17237 11.84C6.83426 12.0356 7.48749 12.3087 8.16745 12.6724C8.2043 12.6919 8.23971 12.71 8.27223 12.7274C8.52441 12.8578 8.57861 12.8404 8.69639 13.1874C8.81489 13.5358 8.59595 16.253 8.54825 16.5341C8.47238 16.9876 8.32786 17.2621 8.09302 17.3483C7.77869 17.462 7.64935 17.7083 7.52506 17.9481C7.48532 18.0256 7.4911 18.1191 7.44269 18.1966C7.44269 18.1966 7.34008 18.3096 7.37476 18.3386C7.40873 18.3683 7.72811 18.2915 7.72811 18.2915C7.83722 18.298 7.71944 18.3552 7.82855 18.3552C8.09736 18.3552 8.42252 18.353 8.75347 18.1633C8.89221 18.1633 8.79899 18.34 8.92762 18.3168C9.32287 18.2451 9.35973 17.9401 9.40742 17.6482C9.48835 17.1585 9.47679 17.073 9.53098 17.0274C9.58518 16.9818 9.76077 17.0564 9.80774 17.0028C9.84387 16.9629 9.80412 16.6051 9.82436 16.2827C9.85326 15.8227 9.97899 15.2824 10.1163 14.8383L10.1235 14.8151C10.1531 14.7173 10.1979 14.5978 10.2456 14.4725C10.375 14.1327 10.5318 13.7213 10.5137 13.3902C10.6546 13.4141 10.6777 13.4228 10.7587 13.5351C10.7702 13.5525 10.7926 13.588 10.8158 13.6249C10.9711 13.8807 11.0513 13.9524 11.1532 13.9524C11.1633 13.9524 11.1749 13.9516 11.1843 13.9487C11.3519 13.9053 11.443 13.7626 11.5376 13.5742C11.6323 13.391 11.7291 13.2004 11.8874 13.165C11.8931 13.1635 11.9004 13.1621 11.909 13.1621C12.0369 13.1621 12.2624 13.2772 12.3903 13.4757C12.6735 13.9161 12.9149 13.6083 12.938 13.5721C12.9705 13.5214 13.1981 13.1454 13.2538 13.0577C13.3224 12.9527 13.3643 12.9433 13.3802 12.9433H13.3839C13.5226 12.9643 14.1238 13.6887 14.3384 13.6402C14.5465 13.617 14.7777 12.823 14.9049 12.823C14.9107 12.823 14.9172 12.8238 14.9244 12.8259C14.9548 12.8513 15.0263 12.9592 15.0747 13.0317C15.2344 13.2758 15.2698 13.4373 15.3956 13.4373C15.436 13.4373 15.5061 13.4026 15.5487 13.2968C15.5603 13.2678 15.6087 13.149 15.6159 13.136C15.6239 13.1454 15.7301 13.5061 15.991 13.186C15.9881 13.1823 15.9866 13.1765 15.9845 13.1715C15.9837 13.1744 15.9823 13.1765 15.9816 13.178C15.9823 13.1758 15.9837 13.1744 15.9845 13.1715C15.9837 13.1693 15.9823 13.1686 15.9816 13.1664C15.9823 13.1686 15.9837 13.17 15.9845 13.1715C16.0199 13.0896 16.5018 13.5663 16.7316 13.7532C16.9405 13.9458 17.1168 14.1154 17.1319 14.1284C17.6284 14.5717 18.2447 15.1237 18.3647 15.7213C18.4333 16.0669 18.4167 16.4653 18.3199 16.8441C18.2989 16.9231 18.278 16.9702 18.2592 16.9825C18.2397 16.997 18.1855 16.9992 18.1176 16.9999C18.0865 17.0006 18.0532 17.0021 18.0142 17.0057C17.8444 17.0151 17.7288 17.1969 17.6255 17.357C17.5792 17.4309 17.5185 17.4925 17.4867 17.5468C17.4557 17.6011 17.5062 17.6924 17.5366 17.7112C17.5677 17.7308 17.874 17.8025 17.9651 17.8025C17.9918 17.8025 18.0178 17.8011 18.0381 17.7938C18.1038 17.8184 18.1819 17.8322 18.2729 17.8322C18.541 17.8322 18.8727 17.7207 18.9681 17.5352C19.1292 17.2201 19.2383 16.8775 19.3445 16.545C19.3554 16.508 19.3684 16.4696 19.3807 16.4327C19.4031 16.3595 19.4363 16.2784 19.4688 16.1929C19.5851 15.8887 19.7824 15.5634 19.6943 15.2635C19.6487 15.1056 19.489 14.952 19.3879 14.8166C19.2983 14.6963 18.9601 14.2537 18.8575 14.0994C19.1733 14.4066 20.0505 14.86 20.2731 15.3917C20.3518 15.5779 20.2702 16.3588 20.2564 16.5674C20.2492 16.6659 20.2449 16.7674 20.2413 16.8688C20.2319 17.1882 20.1387 17.2455 19.8185 17.278C19.5411 17.3063 19.4132 17.7178 19.3452 17.9394C19.3416 17.9517 19.338 17.9633 19.3344 17.9742L19.3019 18.0771L19.4096 18.0959C19.4507 18.1024 19.497 18.1111 19.5461 18.1212C19.7463 18.1582 20.083 18.2842 20.3186 18.2842C20.5989 18.2842 20.7955 18.2169 20.9205 18.08C21.0816 17.9046 21.1431 17.5895 21.1987 17.3114C21.2189 17.2078 21.3345 16.8354 21.3765 16.7007C21.638 15.8503 21.8989 15.5257 21.4545 15.0375ZM3.58187 10.9432C3.48504 11.0034 3.44819 10.8339 3.44819 10.8339C3.42218 10.7658 3.41857 10.6955 3.45759 10.668C3.53129 10.7136 3.61872 10.7129 3.64401 10.7556C3.67219 10.8027 3.63245 10.9121 3.58187 10.9432Z" fill="black"/>
<path d="M20.1521 17.4989C20.121 17.5568 20.0133 17.5691 19.975 17.5822C19.8963 17.6155 19.8233 17.6633 19.8276 17.7176C19.8276 17.7387 19.8146 17.9987 19.8276 18.0212C19.8435 18.0501 19.9483 18.0871 19.9714 18.0509C19.988 18.0277 19.9707 17.8444 19.9909 17.7191C19.9945 17.7017 20.0068 17.6271 20.043 17.6104C20.056 17.6075 20.1803 17.5503 20.1521 17.4989ZM11.1464 12.9736C11.2418 12.9642 11.3755 12.9403 11.421 12.9729C11.4672 13.0069 11.5323 13.1257 11.5294 13.1982C11.525 13.2699 11.2887 13.6509 11.2736 13.6683C11.2584 13.6857 11.2345 13.7407 11.1919 13.6842C11.1493 13.6256 11.0748 13.0417 11.0748 13.0417C11.0748 13.0417 11.0626 12.983 11.1464 12.9736Z" fill="#C9CACC"/>
<path d="M21.3538 15.2315C21.2252 15.0439 20.9022 14.7128 20.7736 14.5535C20.6016 14.3427 19.8147 13.4162 19.8147 13.4162C19.8147 13.4162 19.5885 12.0159 19.4917 11.6979C19.431 11.4944 19.2605 10.0188 18.121 9.21688C18.1824 9.11329 18.9201 9.69425 19.1868 10.1463C19.6709 10.9663 19.8769 13.1069 19.8769 13.1069C19.8769 13.1069 20.1847 9.83696 18.4591 9.14517C17.2213 8.6265 16.6035 8.70981 16.6035 8.70981C16.6035 8.70981 15.7458 9.22557 16.2632 10.2064C16.3622 10.3976 17.4901 12.1311 17.5617 12.2673C18.2033 13.4734 20.2425 14.878 20.6139 15.2598C20.6334 15.2808 20.9846 15.5104 21.0084 15.7661C21.0128 15.8132 20.5315 15.4894 20.538 15.5495C20.6038 16.1544 20.5322 17.3149 20.5229 17.4474C20.512 17.601 20.5033 17.6234 20.4101 17.6575C20.3176 17.6901 20.2208 17.6017 20.1644 17.7604C20.1016 17.9364 20.1247 18.066 20.2866 18.066C20.4484 18.066 20.6941 18.1515 20.8502 17.5561C21.0063 16.9541 21.3466 15.8849 21.4492 15.4908C21.4731 15.3974 21.3986 15.2953 21.3538 15.2315ZM4.1077 7.83691C4.1077 7.83691 4.24354 8.23678 4.24065 8.34906C4.23848 8.46279 4.2038 8.47148 4.2038 8.47148L3.80132 8.64751C3.80132 8.64751 3.88875 8.54537 3.93427 8.41788C3.98124 8.28893 4.10986 7.95861 4.1077 7.83691ZM8.90788 17.9089C8.89921 17.9147 8.88837 17.9161 8.88548 17.911L8.85947 17.8763C8.85658 17.8712 8.86019 17.8618 8.86958 17.8545L8.88982 17.8415C8.89849 17.835 8.90933 17.8342 8.91294 17.8393L8.93823 17.8741C8.94257 17.8792 8.93751 17.8878 8.92884 17.8958L8.90788 17.9089ZM18.1997 17.267C18.1997 17.267 18.1499 17.2511 18.1224 17.2873C18.0848 17.3388 18.0668 17.5343 18.0668 17.5343C18.0668 17.5343 18.1137 17.5937 18.1997 17.5583C18.2857 17.5257 18.4598 17.3945 18.4049 17.3518C18.3486 17.3091 18.1997 17.267 18.1997 17.267ZM18.0458 17.1729C18.0458 17.1729 17.9685 17.1722 17.9331 17.2105C17.8955 17.2533 17.8276 17.3677 17.8312 17.4155C17.837 17.4619 17.9042 17.5387 17.9381 17.4916C17.9728 17.4445 18.1318 17.1685 18.0458 17.1729ZM3.28466 9.89419C3.19361 10.0369 3.45519 10.1615 3.52095 10.0847C3.57009 9.89057 3.37282 9.81957 3.28466 9.89419Z" fill="#C9CACC"/>
<path d="M5.38561 10.1463C5.25337 9.98978 5.15654 9.72828 5.24326 9.67974C5.32997 9.63193 5.41307 9.69858 5.46582 9.729C5.54458 9.77247 5.58432 9.74349 5.57854 9.63845C5.57493 9.5566 5.56553 9.47981 5.55686 9.40592C5.53085 9.18281 5.41307 8.93724 5.3213 8.83872C5.16955 8.67574 4.73455 8.4845 4.46286 8.66922C4.38409 8.72282 4.32484 8.81047 4.27426 8.91334C4.25547 8.95101 4.30967 9.00244 4.29232 9.04518C4.19261 9.28857 4.04086 9.57036 3.8631 9.75146C3.85515 9.76088 4.46647 9.81158 5.32924 10.4469C5.40584 10.5019 5.25988 10.8105 5.21002 10.796C5.18401 10.7924 5.29745 10.536 5.21218 10.4874C4.81693 10.2651 4.58209 10.2354 4.28438 10.1289C4.21284 10.1042 4.00545 10.2354 3.9527 10.1854C3.87828 10.0883 3.65211 9.97747 3.62898 9.9666C3.63765 9.97095 3.66583 9.99268 3.67595 10.0883C3.70413 10.3331 3.2489 10.0883 3.63477 10.4809C3.74388 10.5896 3.84793 10.6736 3.92814 10.6381C4.05242 10.6359 3.99606 10.6541 4.00835 10.6823L4.0741 10.8388C4.08566 10.8685 4.10084 10.8663 4.10662 10.8351L4.13696 10.67C4.14202 10.6388 4.17382 10.6135 4.20561 10.6149C4.20561 10.6149 4.79019 10.628 4.90798 10.6403C5.02648 10.6533 5.03371 10.6961 5.03371 10.6961C5.03949 10.7279 5.08573 10.7953 4.98674 10.875C4.91448 10.9322 4.7425 10.812 4.60376 10.9242C4.46502 11.0358 4.18827 11.0865 4.18827 11.0865C4.15575 11.0923 4.12035 11.0749 4.10734 11.0445L4.03725 10.8859C4.02496 10.8562 4.01268 10.8569 4.00979 10.8902L3.99245 11.0967C3.98956 11.1285 3.98016 11.1539 3.97222 11.1561C3.96282 11.1561 3.94548 11.1329 3.93175 11.1039L3.92669 11.0938C3.91296 11.0641 3.88406 11.0619 3.86383 11.0843L3.82842 11.1256C3.80747 11.151 3.77712 11.1474 3.7605 11.1198L3.74677 11.0981C3.73087 11.0691 3.70413 11.0691 3.68679 11.0981L3.66511 11.1321C3.64849 11.1604 3.62609 11.1575 3.6167 11.1278L3.60875 11.1053C3.59936 11.0749 3.57984 11.0742 3.56756 11.1017C3.55817 11.1227 3.54444 11.1278 3.53432 11.1148C3.51481 11.135 3.50036 11.1488 3.49386 11.1553C3.47652 11.172 3.43677 11.2082 3.43461 11.2415C3.43316 11.2749 3.47507 11.293 3.67667 11.335C3.87828 11.3763 4.81548 10.9923 5.11102 11.0554C5.45281 11.1264 5.58505 10.8453 5.60817 10.4802C5.60817 10.4708 5.60528 10.4505 5.60094 10.4215C5.54024 10.3259 5.45353 10.2267 5.38561 10.1463Z" fill="#C9CACC"/>
<path d="M4.46484 9.04458C4.46484 9.04458 4.5819 8.83958 4.72642 8.79901C4.83337 8.76859 4.94392 8.83016 5.10867 8.94099C5.27487 9.05182 5.36158 9.22423 5.52344 9.17932C5.5798 9.16338 5.39843 9.36766 5.23946 9.30898C5.20116 9.29449 4.96271 8.89753 4.73076 8.90332C4.73148 8.90332 4.58263 8.9323 4.46484 9.04458Z" fill="black"/>
<path d="M4.89011 8.85396C4.69573 8.79891 4.58301 8.93147 4.58301 8.93147C4.63359 8.80108 4.86554 8.88366 4.96598 8.92495C5.02162 8.94958 5.09966 9.07707 5.15458 9.18284C5.09171 9.12054 5.00645 9.05389 4.93274 9.04665C4.78533 9.03361 4.7716 9.22847 4.7716 9.22847L4.69717 9.3212C4.69717 9.3212 4.70657 9.3451 4.82002 9.3451C4.93274 9.3451 5.328 9.34075 5.38075 9.29294C5.43278 9.24658 5.10328 8.91626 4.89011 8.85396ZM4.93202 9.27628C4.89661 9.27628 4.86843 9.24006 4.86843 9.19587C4.86843 9.15314 4.89733 9.11619 4.93202 9.11619C4.96742 9.11619 5.01367 9.15314 5.01367 9.19877C5.01295 9.24151 4.96742 9.27628 4.93202 9.27628Z" fill="black"/>
<path d="M7.91813 17.7247C7.91813 17.7247 7.76855 18.0268 7.76494 18.0579C7.76133 18.0891 7.76855 18.1094 7.78589 18.1094C7.80324 18.1094 7.85671 18.1246 7.89501 18.0978C7.93258 18.0702 8.07493 17.7718 8.09372 17.7298C8.09805 17.7189 7.98099 17.6523 7.91813 17.7247ZM19.5598 15.5088C19.6357 15.2415 19.3864 15.2125 19.2997 15.5588C19.2708 15.6783 18.9254 16.9344 18.8893 17.2633C18.8857 17.2799 18.8987 17.2959 18.9138 17.2763C18.9189 17.39 19.5273 15.6283 19.5598 15.5088ZM17.6038 11.3001C17.6023 11.308 17.5879 11.3109 17.5705 11.3088L17.447 11.2878C17.4289 11.2841 17.4166 11.2754 17.4173 11.2682L17.421 11.2508C17.4217 11.2436 17.4376 11.2407 17.4549 11.2428L17.5778 11.2653C17.5937 11.2682 17.6081 11.2776 17.6067 11.2841L17.6038 11.3001ZM17.5575 11.3522C17.5568 11.3602 17.5467 11.3638 17.5351 11.3624L17.452 11.3479C17.4397 11.3457 17.4311 11.3385 17.434 11.3312L17.4361 11.3146C17.4383 11.3059 17.4484 11.303 17.4607 11.3051L17.5416 11.3196C17.5539 11.3218 17.5619 11.3291 17.5604 11.3363L17.5575 11.3522ZM8.40154 8.67923C7.79601 8.79513 6.94769 8.84584 6.48667 8.78281C6.12176 8.73211 6.10587 8.50827 6.17162 8.30834C5.83417 8.64228 5.65352 8.51189 5.64557 8.4706C5.63256 8.41772 5.77058 8.4706 5.86018 8.3815C5.95051 8.29385 6.00398 7.97729 5.93244 7.82517C5.86091 7.67305 5.93822 7.70057 5.93822 7.70057C5.93822 7.70057 6.1261 7.71941 6.20919 7.94542C6.26194 7.71941 5.95051 7.43907 5.84934 7.50354C5.7489 7.56801 5.54441 7.73534 5.57331 7.98019C5.60944 8.28298 5.58777 8.43293 5.48949 8.43003C4.82832 8.40033 4.08694 8.31123 3.67578 8.7408C3.67578 8.7408 4.17437 8.4112 4.55807 8.44742C4.94032 8.48291 5.72506 8.56042 5.77203 9.48257C5.77203 9.48257 5.76335 9.69048 5.7807 9.93097C5.78937 10.0585 5.66797 9.97661 5.66942 10.0331C5.67375 10.2888 5.85512 10.2497 5.84067 10.4699C5.77781 11.3769 5.36015 11.358 5.36015 11.358C5.36015 11.358 5.8638 11.429 6.11382 10.5815C6.11309 11.0675 6.06178 11.19 5.86596 11.379C6.2511 11.4037 6.55315 11.0386 6.56254 10.9835C6.61963 11.0755 6.72874 11.374 7.01633 11.4957C6.87398 11.2602 6.90939 10.9755 6.93829 10.7235C7.02428 11.2892 7.16808 11.5007 7.45928 11.6239C7.34222 11.5051 7.10449 11.2486 7.17531 10.7894C7.23022 11.182 7.68834 11.5319 7.68834 11.5319C7.68834 11.5319 7.54238 11.2957 7.50408 10.8799C7.70063 11.303 7.9109 11.3377 7.9109 11.3377C7.9109 11.3377 7.58574 10.9944 7.5301 10.5489C7.52359 10.5409 7.75844 10.8524 7.94992 10.8524C7.80251 10.6756 7.56984 10.4236 7.54383 10.1056C7.69051 10.2953 7.79674 10.4199 7.96582 10.4388C7.82347 10.2736 7.70569 10.0114 7.66161 9.69337C7.82492 9.8991 7.79673 9.96647 8.10384 10.0512C7.98533 9.93532 7.90368 9.61514 7.96293 9.46084C8.01568 9.56878 8.21945 9.67889 8.46296 9.71003C8.3842 9.66005 8.25847 9.35653 8.27654 9.23556C8.38709 9.28989 8.62483 9.37102 8.8127 9.34494C8.7231 9.29206 8.66023 9.02548 8.68769 8.96246C8.73755 8.99434 9.09668 8.98926 9.17327 8.96246C9.05694 8.89002 8.95577 8.78064 8.98251 8.79078C9.06922 8.82193 9.21085 8.74732 9.39511 8.71762C9.59166 8.68647 9.62562 8.6843 9.74918 8.68647C9.63068 8.63069 8.87557 8.56187 8.40154 8.67923ZM14.5002 12.4656C14.5002 12.4656 14.1122 12.4395 14.0826 12.5591C14.0537 12.6786 14.2596 13.3117 14.29 13.387C14.3384 13.5066 14.4692 13.2299 14.4692 13.2299C14.5104 13.1538 14.67 12.7829 14.67 12.7322C14.6715 12.6685 14.6758 12.4649 14.5002 12.4656ZM16.3645 13.2255C16.34 13.2364 16.3154 13.2414 16.2973 13.248C16.3161 13.2545 16.3342 13.2603 16.3508 13.261C16.3522 13.2494 16.3573 13.2371 16.3645 13.2255ZM12.9842 12.5257C12.9842 12.5257 12.5976 12.5018 12.5673 12.6199C12.5369 12.7394 12.7031 13.2936 12.7292 13.3704C12.7682 13.4856 12.8506 13.311 12.8506 13.311C12.8925 13.2356 13.201 12.8423 13.2025 12.7923C13.2017 12.7307 13.1605 12.525 12.9842 12.5257Z" fill="#C9CACC"/>
<path d="M15.6997 8.69404C15.5797 8.70056 14.5681 8.81429 13.8939 8.81574C13.3563 8.81791 12.7884 8.79184 12.4849 8.8027C12.461 8.79908 12.4227 8.8027 12.388 8.80777C11.9364 8.78821 10.492 8.76503 10.492 8.76503C10.3843 8.7433 8.91888 9.12361 8.70571 10.7571C8.5742 11.764 8.63851 12.0856 8.8654 12.5637C9.00053 12.8484 9.27222 13.3729 9.26283 13.7836C9.25921 13.9553 8.95501 13.065 8.95934 13.1664C9.00342 14.2009 8.82349 16.5298 8.72088 17.0245C8.59804 17.6142 8.48026 17.3158 8.34224 17.562C8.32057 17.6012 8.01997 18.1488 8.02647 18.156C8.03297 18.1604 8.17749 18.1387 8.33068 18.1242C8.50844 18.1184 8.65513 17.633 8.77652 17.633C8.79603 17.633 8.64284 18.0235 8.66596 18.017C8.79242 17.9858 8.99764 17.9322 8.98391 18.0336C9.02943 18.0481 9.06556 18.0242 9.09374 17.9909C9.1306 17.9467 9.29751 17.1926 9.40012 16.8014C9.42325 16.737 9.59089 16.7746 9.63641 16.792C9.72746 16.6073 9.58221 15.9923 9.84524 15.1368C10.1061 14.2965 10.3807 13.5678 10.2578 13.3512C10.2448 13.3265 9.80044 13.9184 9.7896 13.8945C9.76214 13.8271 11.2384 11.341 10.9523 10.0537C10.9465 10.0074 10.9262 9.95593 10.9262 9.91826C10.9255 9.90812 11.0968 9.98056 11.3099 10.0371C11.5867 10.1225 11.8302 10.1675 11.9133 10.4884C12.013 11.107 12.2992 11.9842 12.8809 12.0371C12.6164 11.7944 12.2782 10.5608 12.3208 10.0537C12.4841 10.881 12.9864 12.0784 13.4011 12.0248C13.3159 11.8915 12.9705 11.1374 12.9705 10.6629C13.12 11.0563 13.477 11.919 13.7458 11.9256C14.4503 11.94 14.6295 11.6184 15.1505 11.5011C16.3168 11.2367 16.6224 11.6858 16.8009 11.7785C16.6586 11.6401 16.1723 10.7883 15.8485 10.1233C15.5906 9.59664 16.0263 9.07073 16.7648 8.74403C16.9108 8.67811 15.9302 8.68752 15.6997 8.69404Z" fill="#C9CACC"/>
<path d="M16.2019 13.2385C16.2019 13.2385 16.1629 13.2045 16.1304 13.1987C16.1195 13.1965 16.113 13.1958 16.1065 13.1958C16.0921 13.1958 16.0841 13.1987 16.0841 13.1987L16.0682 13.2067L16.0726 13.1908C16.0747 13.1799 16.0892 13.1597 16.1188 13.1597C16.1297 13.1597 16.1412 13.1626 16.1542 13.1676C16.1998 13.1843 16.2142 13.2298 16.2142 13.2312L16.2229 13.258L16.2019 13.2385ZM15.8666 13.1749C15.8695 13.1648 15.8833 13.1438 15.9136 13.1438C15.9244 13.1438 15.936 13.146 15.949 13.1503C15.9562 13.1539 15.9692 13.1619 15.9692 13.1619L15.9786 13.1669L15.9476 13.1915L15.944 13.1893C15.944 13.1893 15.9317 13.185 15.9252 13.1843C15.9158 13.1821 15.9071 13.1814 15.9006 13.1814C15.8854 13.1814 15.8782 13.1843 15.8782 13.1843L15.8623 13.1915L15.8666 13.1749Z" fill="black"/>
<path d="M15.9453 13.1569C15.9518 13.1598 15.9632 13.1663 15.9632 13.1663L15.9446 13.1807C15.9446 13.1807 15.931 13.175 15.9246 13.1742C15.8888 13.1677 15.873 13.1764 15.873 13.1764C15.873 13.1764 15.8859 13.1359 15.9453 13.1569Z" fill="black"/>
<path d="M16.5842 17.6576C16.1709 17.6576 16.1174 16.9839 16.1081 16.8636C16.0083 16.8564 15.8999 16.7876 15.8262 16.7296C15.8226 16.7267 15.8154 16.7217 15.8067 16.718C15.8089 16.768 15.8111 16.8195 15.8118 16.868C15.8161 16.9455 15.8313 17.1469 15.8371 17.2005L15.8385 17.2063C15.8472 17.2823 15.8689 17.4598 15.6947 17.5569C15.6427 17.5837 15.5863 17.5996 15.5242 17.5996C15.4714 17.5996 15.4245 17.5888 15.3934 17.5822C15.3862 17.5815 15.3797 17.5793 15.3739 17.5786L15.3435 17.5757C15.2995 17.5692 15.238 17.562 15.1918 17.5591H15.1788C15.0921 17.5591 14.8464 17.575 14.8074 17.5786C14.798 17.5793 14.79 17.5808 14.7806 17.5808C14.6419 17.5808 14.5292 17.47 14.5277 17.4678C14.4576 17.399 14.4519 17.2903 14.514 17.2027L14.5299 17.1795L14.553 17.1621C14.5668 17.1527 14.6101 17.123 14.6723 17.1143C14.7228 17.0817 14.8038 17.0346 14.9252 16.9672C14.8182 16.7593 14.3485 16.0371 14.7582 15.8097C14.9093 15.7271 15.1427 15.6438 15.3623 15.5923C15.3645 15.5779 15.3681 15.5641 15.3717 15.5518C15.3761 15.5351 15.3811 15.4793 15.3746 15.4344C15.311 15.4692 15.246 15.488 15.1925 15.488C15.1745 15.488 15.1578 15.4859 15.1405 15.4822C15.001 15.4525 14.8211 15.2461 14.7994 15.2186C14.7684 15.1758 14.6499 14.9592 14.54 14.7535C14.2416 14.7397 14.2141 14.731 14.1932 14.7252C14.1628 14.7151 14.1281 14.7042 13.9345 14.5412C13.8709 14.4862 13.8384 14.4123 13.8485 14.3391C13.8564 14.279 13.8947 14.2261 13.9489 14.1986L13.9619 14.1921C13.9865 14.1588 14.0284 14.124 14.0985 14.1095L14.118 14.1044H14.1419C14.1896 14.1044 14.23 14.1211 14.264 14.1421C14.2669 14.1189 14.2727 14.0957 14.2842 14.074C14.3204 14.0037 14.3933 13.961 14.4808 13.961C14.5292 13.961 14.5805 13.974 14.6397 14.0001L14.6477 14.0045L14.6571 14.0103C14.6766 14.0219 14.6795 14.0219 14.6795 14.0219C14.7163 14.0298 14.8023 14.0559 14.8312 14.0675C14.8811 14.0892 14.9172 14.1168 15.0112 14.279L15.1593 14.429C15.2272 14.2703 15.3089 14.1993 15.3392 14.1733C15.3818 14.1363 15.4339 14.1204 15.4888 14.1044C15.4996 14.1008 15.5148 14.0957 15.5271 14.0928C15.548 14.0733 15.5741 14.0552 15.6022 14.04C15.6037 14.032 15.6066 14.0233 15.6095 14.0168C15.5871 13.9856 15.5603 13.9451 15.5386 13.9103C15.4779 13.8082 15.4859 13.7169 15.4902 13.6597L15.491 13.6416C15.4996 13.4844 15.6976 13.3503 15.6991 13.3489C15.7215 13.3344 15.746 13.3221 15.767 13.3134C15.8067 13.267 15.8761 13.1895 15.9252 13.1453C15.965 13.1077 16.0184 13.0823 16.069 13.0635C16.1117 12.9751 16.2013 12.9324 16.3386 12.9324C16.3819 12.9324 16.525 12.9425 16.5727 12.9498C16.6746 12.9664 16.7432 13.0309 16.7786 13.1084C16.8668 13.1381 16.9224 13.2178 16.9333 13.325L16.9643 13.359C16.9867 13.3815 17.0351 13.4394 17.0518 13.5271C17.106 13.6307 17.0973 13.7553 17.0908 13.8103C17.0879 13.9791 17.0445 14.0784 16.9976 14.1341C16.9918 14.1544 16.9867 14.1704 16.9802 14.1841C17.1414 14.2841 17.1912 14.5079 17.2064 14.5963C17.2201 14.6477 17.283 14.8679 17.3155 15.0107C17.361 15.2149 17.2902 15.4069 17.283 15.4286L17.2736 15.4511L17.2599 15.4706C17.2469 15.488 17.1775 15.5786 17.1493 15.6141C17.0951 15.6785 17.0359 15.7075 16.986 15.7184C17.0033 15.7872 17.0207 15.8611 17.0322 15.9299C17.1616 16.0914 17.2317 16.3153 17.2317 16.3942C17.2317 16.4457 17.2158 16.5022 17.1992 16.542H17.1999C17.2136 16.5819 17.2158 16.6318 17.2136 16.7405C17.2693 16.8013 17.3162 16.8883 17.3661 16.9853C17.3719 16.9969 17.3755 17.0056 17.3784 17.0092C17.6233 17.546 17.0077 17.5873 16.9701 17.5743C16.8892 17.6482 16.6276 17.6576 16.5842 17.6576Z" fill="black"/>
<path d="M16.5449 13.1221C16.508 13.1156 16.3758 13.1055 16.3382 13.1055C16.1561 13.1055 16.2508 13.1982 16.2508 13.1982C16.2508 13.1982 16.1055 13.2177 16.0448 13.2728C15.9841 13.3286 15.8729 13.4582 15.8729 13.4582C15.8729 13.4582 15.8237 13.4756 15.7941 13.4952C15.7645 13.514 15.6799 13.5785 15.6676 13.6495C15.6583 13.6966 15.6518 13.7552 15.69 13.8183C15.7269 13.8813 15.7905 13.9653 15.7905 13.9653C15.7905 13.9653 15.8064 13.995 15.7905 14.0305C15.7753 14.0667 15.75 14.1566 15.75 14.1566C15.75 14.1566 15.6619 14.1993 15.6359 14.2297C15.6098 14.2601 15.4863 14.2783 15.4552 14.3036C15.4256 14.3297 15.3461 14.4 15.2919 14.5869C15.2283 14.6426 15.1951 14.7136 15.1951 14.7136L14.8685 14.384C14.8685 14.384 14.8258 14.2515 14.7651 14.229C14.7442 14.221 14.5997 14.1732 14.5657 14.1587C14.445 14.1131 14.4233 14.1486 14.4472 14.1826C14.4725 14.2167 14.5462 14.2515 14.5657 14.2616C14.583 14.2717 14.5917 14.4014 14.2853 14.3521C14.2716 14.3485 14.1885 14.2993 14.1372 14.2775C14.005 14.2348 14.0281 14.3616 14.0548 14.3847C14.0837 14.4072 14.216 14.5441 14.247 14.5543C14.2759 14.5637 14.6488 14.5796 14.6488 14.5796C14.6488 14.5796 14.9053 15.0642 14.9407 15.1113C14.9776 15.1598 15.1199 15.296 15.177 15.3076C15.2355 15.3207 15.4068 15.2576 15.4913 15.1012L15.5253 15.7336C15.5253 15.7336 14.9393 15.8647 14.8316 15.9538C14.6112 16.1284 15.0007 16.7955 15.1322 16.9723C15.1741 17.0309 15.1445 17.0433 15.1445 17.0433C15.1445 17.0433 14.7341 17.2693 14.729 17.2881C14.69 17.2772 14.6575 17.3011 14.6575 17.3011C14.6575 17.3011 14.638 17.3294 14.651 17.3424C14.6647 17.3555 14.7333 17.4076 14.7868 17.4026C14.8374 17.3968 15.1279 17.3801 15.1958 17.383C15.2644 17.3859 15.349 17.3975 15.3938 17.4026C15.4371 17.4076 15.5296 17.4431 15.6055 17.4026C15.6792 17.3613 15.6676 17.2896 15.6597 17.22C15.651 17.1497 15.6322 16.8752 15.6322 16.8752C15.6322 16.8752 15.6257 16.5572 15.6185 16.5188C15.698 16.5289 15.8288 16.5594 15.8526 16.5449C15.8938 16.5217 15.9357 16.592 15.9357 16.592C15.9357 16.592 16.0694 16.6977 16.1308 16.6869C16.1901 16.6753 16.2016 16.6709 16.232 16.5811C16.2544 16.5492 16.2739 16.5572 16.2739 16.6405C16.2739 16.726 16.232 17.4975 16.5976 17.4822C16.8231 17.4728 16.9849 17.3649 16.9849 17.3649C16.9849 17.3649 17.0478 17.4518 17.1352 17.4214C17.3672 17.3374 17.2407 17.128 17.2205 17.0954C17.2032 17.0628 17.0969 16.831 17.0305 16.8267C17.0341 16.7282 17.0175 16.5811 17.0008 16.542C17.0131 16.521 17.0514 16.434 17.0514 16.3935C17.0514 16.3529 16.9857 16.1356 16.8614 16.0045C16.8339 15.8002 16.732 15.4931 16.732 15.4931C16.732 15.4931 16.8672 15.5416 16.9076 15.5467C16.9488 15.5525 16.9828 15.5329 17.0095 15.501C17.0377 15.4684 17.1143 15.3648 17.1143 15.3648C17.1143 15.3648 17.175 15.2069 17.1388 15.0483C17.1034 14.8918 17.029 14.6332 17.029 14.6332C17.029 14.6332 16.9943 14.3818 16.87 14.3246C16.7465 14.2681 16.7212 14.2725 16.7212 14.2725C16.7212 14.2725 16.6814 14.2196 16.7111 14.208C16.7414 14.1979 16.7877 14.1624 16.8007 14.1457C16.8151 14.1298 16.8361 14.0414 16.8361 14.0414C16.8361 14.0414 16.9098 14.0059 16.9098 13.7965C16.9098 13.7965 16.9336 13.6509 16.878 13.5814C16.878 13.5191 16.8339 13.4785 16.8339 13.4785L16.7544 13.3931C16.7544 13.3931 16.7653 13.2851 16.7169 13.2728C16.667 13.2612 16.6309 13.2482 16.6309 13.2482C16.6309 13.2482 16.6309 13.1344 16.5449 13.1221Z" fill="#C9CACC"/>
<path d="M15.8849 13.5064C15.9246 13.5043 15.9535 13.5702 15.9557 13.5854C15.9579 13.5984 15.9485 13.5984 15.9282 13.5941C15.9087 13.5912 15.8914 13.5484 15.8502 13.5521C15.8097 13.5542 15.8083 13.5832 15.7946 13.5803C15.7787 13.5789 15.8444 13.5086 15.8849 13.5064ZM16.1949 13.3992C16.2382 13.4137 16.2512 13.4579 16.2512 13.4579C16.2512 13.4579 16.2108 13.4239 16.1754 13.4173C16.1392 13.4094 16.1233 13.4181 16.1233 13.4181C16.1233 13.4181 16.1349 13.3775 16.1949 13.3992ZM16.6089 13.7346C16.6031 13.7209 16.5966 13.7136 16.5865 13.7136L16.5793 13.7143L16.575 13.718C16.5583 13.7404 16.5396 13.7491 16.5164 13.7491C16.4897 13.7491 16.4673 13.7324 16.4673 13.7324C16.4673 13.7324 16.463 13.7918 16.5273 13.7918C16.5764 13.7918 16.606 13.7484 16.6068 13.7462L16.6111 13.7411L16.6089 13.7346ZM16.8026 15.7216L16.7643 15.5485L16.7462 15.4862L16.4319 14.8973L16.4203 14.8748C16.4095 14.8647 16.4001 14.8524 16.3755 14.8284C16.3683 14.8227 16.3726 14.8132 16.3828 14.814C16.4919 14.8277 16.6834 14.7748 16.7289 14.7575C16.7419 14.7734 17.0461 15.132 17.0685 15.1168C17.0923 15.1015 16.7621 14.664 16.7592 14.6626C16.7592 14.6597 16.7903 14.4822 16.7831 14.4605C16.7686 14.4177 16.6797 14.3525 16.6436 14.3525L16.6378 14.354C16.6313 14.3409 16.6248 14.3315 16.6234 14.3286L16.6183 14.3199C16.5945 14.2772 16.5757 14.2489 16.5627 14.2279C16.6234 14.2489 16.6848 14.2678 16.6891 14.2699L16.7224 14.2721L16.7585 14.2229L16.5013 14.1367C16.4789 14.1294 16.4536 14.0802 16.4521 14.0396C16.45 14.0113 16.6299 13.8346 16.5952 13.8237C16.5258 13.7991 16.3618 13.9773 16.3575 14.0294C16.3539 14.0635 16.3734 14.1396 16.403 14.1693C16.3929 14.1837 16.3849 14.1997 16.3849 14.2185C16.0663 14.2395 15.9521 14.3547 15.9384 14.4134C15.9384 14.4134 16.1934 14.3127 16.2838 14.2982C16.2245 14.3547 16.3184 14.4619 16.3184 14.4619C16.3069 14.4583 16.2773 14.438 16.2447 14.4612C16.1848 14.5083 16.2462 14.6068 16.2578 14.6292C16.2339 14.63 16.2166 14.6343 16.2079 14.6437C16.1768 14.6799 16.2361 14.756 16.2787 14.8031C16.2989 14.8256 16.2064 14.8198 15.9376 14.6184C15.9456 14.814 16.2679 14.9306 16.3712 14.9313C16.3755 14.9364 16.7889 15.6955 16.8026 15.7216ZM16.2671 14.6785C16.2859 14.6582 16.3358 14.7068 16.351 14.6944C16.3654 14.6814 16.244 14.5423 16.2823 14.5133C16.3278 14.4829 16.3799 14.5908 16.4037 14.5727C16.429 14.5525 16.4196 14.5423 16.4131 14.5249C16.4095 14.517 16.3575 14.4221 16.3567 14.4213C16.3539 14.417 16.2975 14.3301 16.3343 14.3112C16.3719 14.2982 16.4117 14.3619 16.4196 14.3728C16.4225 14.3757 16.494 14.5025 16.5237 14.4887C16.5526 14.4713 16.4702 14.2808 16.4702 14.2808C16.4651 14.2634 16.4304 14.2142 16.4478 14.2004C16.4651 14.1866 16.4832 14.1903 16.5323 14.2555C16.5367 14.2613 16.6682 14.5003 16.6848 14.4916C16.6848 14.4916 16.6877 14.4438 16.6675 14.4069C16.6935 14.4271 16.7441 14.4431 16.7412 14.4778C16.7404 14.4902 16.7368 14.5923 16.7173 14.6177C16.6602 14.6879 16.39 14.7785 16.3054 14.7654C16.2982 14.7575 16.2455 14.7046 16.2671 14.6785ZM15.5178 15.6934L15.4737 15.7202L15.4065 15.7622C15.4181 15.7897 15.6826 16.4337 15.9514 16.6365L15.9586 16.6119C15.5987 16.1244 15.5178 15.6934 15.5178 15.6934ZM16.5085 16.0244C16.3473 16.0476 16.2339 16.5808 16.2339 16.5808C16.2729 16.5308 16.2744 16.6177 16.2744 16.6177C16.2744 16.6177 16.4044 16.1642 16.5157 16.1171C16.6299 16.0701 16.799 16.0911 16.799 16.0911C16.799 16.0911 16.6711 15.9991 16.5085 16.0244ZM15.2678 15.182C15.2866 15.1704 15.2237 14.664 15.2237 14.664L15.2006 14.6894L15.1608 14.664C15.1399 14.7082 15.2497 15.1943 15.2678 15.182ZM15.3863 14.7756L15.4253 15.1885L15.4961 15.1486L15.4766 14.8444C15.4766 14.8444 15.5128 14.8603 15.525 14.8502C15.5373 14.8393 15.468 14.777 15.4643 14.701C15.4614 14.6452 15.5243 14.5735 15.5135 14.5669C15.5026 14.5604 15.481 14.5814 15.481 14.5814C15.4846 14.5314 15.4882 14.4757 15.4918 14.4409C15.4961 14.3916 15.5619 14.2917 15.5619 14.2917C15.4152 14.3438 15.3885 14.5112 15.3885 14.5112L15.3791 14.6423C15.3791 14.6445 15.3661 14.6843 15.3661 14.7118C15.3661 14.7408 15.3841 14.7756 15.3841 14.7756H15.3863ZM17.0374 16.7734C17.0374 16.7734 17.0338 17.2754 16.9269 17.4022H16.9861C17.0071 17.3827 17.0497 17.2211 17.0649 17.1603C17.0808 17.0929 17.0786 16.8176 17.0786 16.8176L17.0374 16.7734ZM15.2107 16.0845C15.1919 16.1903 15.6255 16.5952 15.6255 16.5952L15.7447 16.5395C15.7447 16.5395 15.3335 16.2374 15.2107 16.0845Z" fill="black"/>
<path d="M16.398 13.3053C16.4038 13.3118 16.4016 13.348 16.3959 13.3741C16.3959 13.3755 16.3836 13.4255 16.4508 13.4603C16.4949 13.4813 16.5209 13.519 16.5382 13.5443C16.5425 13.5501 16.5462 13.5566 16.5476 13.5603C16.5599 13.574 16.5635 13.5863 16.5541 13.6189C16.5505 13.6327 16.544 13.6414 16.5382 13.6486C16.5324 13.6544 16.5245 13.6639 16.5295 13.6762L16.5303 13.6798C16.5339 13.6943 16.5462 13.7298 16.578 13.7435C16.5845 13.7486 16.6011 13.7711 16.5823 13.8261L16.5765 13.8413C16.5563 13.9007 16.5736 14.0427 16.6076 14.0333C16.6423 14.0246 16.6365 13.9007 16.6452 13.8862C16.6654 13.8594 16.6791 13.7841 16.6719 13.7435C16.6697 13.729 16.6647 13.7189 16.6553 13.7138C16.6242 13.6935 16.6141 13.6769 16.6141 13.6718C16.6141 13.6704 16.6184 13.6639 16.622 13.6588C16.6293 13.6508 16.6365 13.6392 16.643 13.6255C16.6538 13.5987 16.6466 13.5595 16.6358 13.5342C16.6256 13.5117 16.5635 13.4335 16.5274 13.4205C16.4963 13.411 16.4775 13.3937 16.4775 13.3755C16.4768 13.3676 16.4782 13.3553 16.4797 13.3437C16.484 13.3154 16.4862 13.2901 16.4746 13.2741C16.3698 13.1285 16.2159 13.1459 16.2159 13.1459L16.1487 13.2191C16.1509 13.2198 16.2701 13.1597 16.398 13.3053ZM15.5663 14.2564C15.5858 14.2694 15.6884 14.2832 15.8727 14.4013C15.9002 14.3549 15.7065 14.2463 15.6162 14.2166C15.5627 14.2166 15.5591 14.2282 15.5569 14.2332C15.5548 14.239 15.5548 14.247 15.5663 14.2564ZM15.0099 17.1091C14.8481 16.8867 14.4962 16.878 14.3791 16.9903C14.3726 16.9837 14.3675 16.9794 14.3618 16.9743C14.3126 16.9359 14.1703 16.8504 14.1009 16.8113C13.9932 16.6976 13.9477 16.6694 13.9253 16.6578C13.8364 16.6042 13.6674 16.544 13.5221 16.5093C13.4947 16.2014 13.4708 16.129 13.4542 16.0971C13.4556 16.0869 13.4889 15.8146 13.4831 15.6429C13.5749 15.6595 13.6955 15.6791 13.7938 15.6791C13.848 15.6791 13.8914 15.6733 13.9275 15.6603C14.0214 15.6356 14.1775 15.5813 14.2411 15.4785L14.2555 15.456L14.262 15.4299C14.2678 15.4075 14.3097 15.2054 14.1898 15.0148C14.1074 14.8852 13.8776 14.6425 13.749 14.5194C13.7548 14.4484 13.7584 14.3767 13.7584 14.3759C13.7635 14.318 13.7476 14.2571 13.6796 14.1876C13.6594 14.1666 13.5048 13.9906 13.4607 13.9637C13.4188 13.9391 13.3509 13.9203 13.2952 13.9203C13.275 13.9203 13.2569 13.9232 13.2381 13.929C13.0878 13.9623 13.1023 14.1941 13.1081 14.2137C13.0886 14.2021 13.0683 14.1927 13.0474 14.1825C12.9953 14.1253 12.9195 14.092 12.8443 14.076C12.8053 14.0478 12.7482 14.0188 12.6752 14.0188C12.6702 14.0188 12.6644 14.0188 12.6586 14.0195C12.5611 14.0253 12.5589 14.0355 12.5112 14.0739C12.4382 14.0891 12.3725 14.1325 12.3226 14.1941C12.2807 14.218 12.2294 14.2607 12.1896 14.331C12.1448 14.3665 12.0972 14.4259 12.0581 14.5302L12.0437 14.5679C12.009 14.6584 11.9707 14.7606 11.9982 14.8663C11.9996 14.8678 12.0003 14.8729 12.0011 14.8758C11.9165 14.8989 11.798 14.9475 11.7322 15.0764C11.7033 15.1351 11.6723 15.2119 11.647 15.2792C11.6101 15.2814 11.1874 15.3336 11.1961 15.5342C11.199 15.5973 11.2293 15.6595 11.2864 15.6994C11.2467 15.7675 11.2438 15.8385 11.2792 15.8986C11.3095 15.9515 11.3514 15.9899 11.3991 16.008C11.415 16.0587 11.4389 16.1116 11.4743 16.1565C11.5162 16.2101 11.5617 16.2492 11.6 16.2767C11.5212 16.3028 11.4367 16.3405 11.3565 16.3992C11.2394 16.4788 11.0646 16.6541 11.2163 16.9251C11.2402 16.9671 11.3146 17.0489 11.686 17.4147C11.673 17.43 11.3811 17.9682 11.8587 17.9906C11.9678 18.1746 12.3399 17.9102 12.3522 17.903C12.3804 17.9095 12.8804 17.911 12.7475 17.5256C12.7822 17.5198 12.9549 17.472 12.9635 17.4713C13.0192 17.4959 13.142 17.5459 13.215 17.5531C13.2475 17.556 13.301 17.5582 13.3415 17.5582C13.392 17.5582 13.5163 17.556 13.5756 17.5444C13.5915 17.5415 13.6088 17.5364 13.6283 17.5336C13.6804 17.6176 13.762 17.7226 13.8668 17.7813C13.9925 17.8537 14.2801 17.9827 14.3762 18.0254C14.395 18.045 14.5973 18.213 14.7303 18.213C15.1545 18.213 15.0229 17.8262 15.0302 17.8045C15.0656 17.7045 15.1284 17.2691 15.0099 17.1091Z" fill="black"/>
<path d="M13.5269 15.0641C13.5096 15.0431 13.3455 15.0004 13.2783 14.9932C13.2552 14.97 13.1793 14.9468 13.1793 14.9468C13.1793 14.9468 13.2827 14.8693 13.2798 14.8157C13.2083 14.4477 13.084 14.4194 13.084 14.4194C13.084 14.4194 13.0449 14.3361 12.9402 14.3231C12.9221 14.2441 12.7689 14.2311 12.7689 14.2311C12.7689 14.2311 12.7306 14.1804 12.6692 14.1833C12.6251 14.1869 12.6107 14.2043 12.5875 14.2318C12.5875 14.2318 12.4958 14.2173 12.4344 14.3231C12.4344 14.3231 12.3614 14.3383 12.3173 14.4448C12.3173 14.4448 12.2638 14.4586 12.2147 14.586C12.1814 14.673 12.1424 14.7592 12.159 14.8244C12.1771 14.8888 12.2299 14.9569 12.2299 14.9569C12.2299 14.9569 12.18 14.9975 12.1251 15.0149C12.0694 15.0316 11.9358 15.0417 11.8809 15.1511C11.8252 15.2605 11.7573 15.4698 11.7573 15.4698C11.7573 15.4698 11.724 15.4502 11.6836 15.4466C11.6482 15.443 11.4863 15.4495 11.4502 15.4763C11.4307 15.4894 11.3599 15.4988 11.362 15.5256C11.3664 15.6045 11.4906 15.5763 11.4906 15.5763L11.4625 15.7429C11.4625 15.7429 11.4104 15.7936 11.4242 15.8182C11.4379 15.8429 11.4625 15.8516 11.4791 15.8465C11.5 15.8429 11.534 15.803 11.534 15.803C11.534 15.803 11.534 15.966 11.6063 16.058C11.6778 16.15 11.7616 16.1826 11.7616 16.1826C11.7616 16.1826 11.8158 16.2043 11.8635 16.1826C11.9119 16.1645 12.0008 16.0928 12.0087 16.0653C12.0152 16.0385 12.0391 15.9457 12.0391 15.9457C12.0391 15.9457 12.0774 15.7994 12.0947 15.7958C12.1114 15.7929 12.1287 15.8161 12.1287 15.8161V16.1131C12.1287 16.1131 12.0116 16.3347 12.0116 16.392C11.9495 16.3999 11.6821 16.371 11.4516 16.5376C11.2623 16.6672 11.3288 16.7868 11.3627 16.8476C11.3967 16.9099 11.9741 17.4677 11.9914 17.488C11.9835 17.5075 12.0015 17.5322 11.9741 17.5322H11.9119C11.9119 17.5322 11.8238 17.4981 11.8086 17.5322C11.7717 17.6162 11.8649 17.6089 11.8686 17.6234C11.8707 17.6394 11.7934 17.6118 11.7819 17.6567C11.766 17.7111 11.7833 17.7625 11.8202 17.8074C11.8433 17.8386 11.9032 17.8241 11.9206 17.8299C11.9394 17.8371 11.9452 17.8661 11.9907 17.8755C12.0918 17.9154 12.3159 17.7328 12.3448 17.7379C12.4539 17.7929 12.5803 17.6922 12.5883 17.6314C12.5969 17.5691 12.5875 17.5387 12.5651 17.4916C12.5427 17.4459 12.4727 17.3706 12.4727 17.3706C12.4727 17.3706 12.5594 17.3438 12.5774 17.3351C12.5774 17.3351 12.5897 17.3257 12.6186 17.3402C12.6475 17.3547 12.7754 17.3779 12.813 17.3764C12.8513 17.375 12.9936 17.3061 13.016 17.3185C13.0384 17.3308 13.1801 17.3902 13.2328 17.3945C13.2848 17.4003 13.4872 17.3996 13.5435 17.3887C13.5992 17.3786 13.7126 17.3438 13.7126 17.3438C13.7126 17.3438 13.8066 17.5633 13.9489 17.6452C14.092 17.7256 14.475 17.8943 14.475 17.8943C14.475 17.8943 14.6289 18.0537 14.73 18.0537C14.8305 18.0537 14.8565 17.9668 14.8565 17.9465C14.8558 17.9255 14.8529 17.8154 14.8731 17.7589C14.8933 17.6995 14.9121 17.5256 14.9165 17.4438C14.9222 17.3619 14.9504 17.1352 14.7329 17.1019C14.699 17.0961 14.6238 17.083 14.6108 17.083C14.579 17.0859 14.5942 17.1605 14.5848 17.1323C14.5725 17.0975 14.5357 17.0895 14.5212 17.0946C14.4815 17.1127 14.4641 17.1468 14.4648 17.1656C14.4677 17.1989 14.4822 17.2888 14.4822 17.2888C14.4822 17.2888 14.3052 17.1468 14.256 17.1069C14.2076 17.0671 13.9966 16.9461 13.9966 16.9461C13.9966 16.9461 13.8824 16.8259 13.8477 16.8107C13.8282 16.7875 13.5291 16.6506 13.3672 16.6535C13.3643 16.5303 13.3578 16.2427 13.2877 16.1022C13.2885 16.0638 13.3318 15.6596 13.3065 15.5531C13.2957 15.5068 13.3665 15.4705 13.4026 15.4705C13.4388 15.4705 13.7834 15.5495 13.8767 15.5089C13.8767 15.5089 14.0595 15.4626 14.0999 15.3959C14.0999 15.3959 14.1368 15.2452 14.0493 15.1083C13.9619 14.97 13.6548 14.6556 13.5753 14.5904C13.5854 14.5107 13.5927 14.3673 13.5927 14.3673C13.5927 14.3673 13.5927 14.3361 13.5724 14.3173C13.55 14.2948 13.4106 14.1348 13.3911 14.1181C13.3752 14.1036 13.3116 14.0819 13.2856 14.0898C13.2596 14.0978 13.2682 14.1536 13.2827 14.1674C13.2986 14.184 13.3412 14.2188 13.3412 14.2188L13.3636 14.2811C13.3636 14.2811 13.3347 14.2956 13.3296 14.3093C13.3253 14.3216 13.3253 14.3926 13.3354 14.4093C13.3455 14.4238 13.3795 14.4303 13.3795 14.4303C13.3795 14.4303 13.3484 14.4998 13.3174 14.502C13.2906 14.4644 13.2466 14.3499 13.209 14.3868C13.1909 14.405 13.1815 14.4368 13.1916 14.468C13.2003 14.4977 13.2509 14.644 13.2769 14.6708C13.3036 14.6969 13.3231 14.7114 13.3231 14.7114C13.3231 14.7114 13.5175 15.0091 13.5269 15.0641Z" fill="#C9CACC"/>
<path d="M11.6775 16.523C11.9543 16.494 12.4587 17.3517 12.4753 17.3706C12.4926 17.3894 12.5237 17.3495 12.5237 17.3495C12.5035 17.3126 12.0627 16.4006 11.6775 16.523ZM11.6414 15.6146C11.6906 15.6067 11.7708 15.5125 11.7578 15.5081C11.7455 15.5031 11.7043 15.5654 11.6299 15.5654C11.606 15.5654 11.5771 15.5596 11.5468 15.5538L11.5395 15.5516C11.5301 15.5683 11.4658 15.5784 11.4658 15.5784L11.4738 15.6183L11.5374 15.603C11.5475 15.6067 11.5923 15.6219 11.6414 15.6146ZM12.0591 15.0967C12.0005 15.1032 12.0677 15.8913 12.0677 15.8913L12.1284 15.8124C12.1205 15.7682 12.1125 15.5378 12.114 15.5045C12.1342 15.5176 12.4023 15.4618 12.4616 15.3604C12.4616 15.3604 12.2744 15.3944 12.2267 15.3843C12.1422 15.3705 12.1205 15.3343 12.1162 15.3082C12.1162 15.301 12.0844 15.0952 12.0591 15.0967Z" fill="black"/>
<path d="M12.0236 16.3388L11.9708 16.3765C12.3517 16.5786 12.5829 17.324 12.585 17.3312L12.5872 17.3392L12.7101 17.3819C12.7101 17.3827 12.4189 16.5163 12.0236 16.3388ZM12.9239 17.3399C12.9406 17.366 13.0273 17.3196 13.0273 17.3196V17.311C13.0273 17.3073 13.0179 16.9488 13.3055 16.6742C13.3055 16.6742 12.9911 16.7372 12.9239 17.3399ZM14.4826 17.2755L14.411 17.2262C14.411 17.2262 14.445 17.387 14.4428 17.458C14.4414 17.4703 14.4385 17.4732 14.4334 17.4776C14.4306 17.4805 14.4298 17.4826 14.4269 17.4834C14.4002 17.5123 14.419 17.6253 14.419 17.6253C14.419 17.6253 14.4501 17.5609 14.4826 17.5246C14.4855 17.521 14.4876 17.5189 14.4913 17.516C14.5064 17.5015 14.51 17.4899 14.5014 17.4254C14.4999 17.4037 14.4826 17.2755 14.4826 17.2755ZM13.3459 15.0892C13.3322 15.0914 13.3062 15.2798 13.3069 15.3051C13.3069 15.3087 13.2997 15.4319 13.1617 15.4109C13.0244 15.3884 12.968 15.3631 12.968 15.3631C13.0164 15.4601 13.2455 15.5072 13.3019 15.5869C13.3141 15.6036 13.3228 15.6919 13.325 15.7028H13.3705V15.5456L13.416 15.5318C13.3951 15.2022 13.3597 15.0863 13.3459 15.0892ZM12.4145 14.9444C12.3321 14.9444 12.2107 14.9567 12.2064 14.9581L12.0684 14.9878L12.1089 15.0183C12.1117 15.0175 12.2917 14.9813 12.4109 14.9813C12.4311 14.9813 12.447 14.982 12.4593 14.9857C12.5626 15.0081 12.6869 15.0523 12.6884 15.0349C12.6891 15.0183 12.5417 14.961 12.4716 14.948C12.4579 14.9465 12.4391 14.9444 12.4145 14.9444ZM13.3076 14.9965L13.317 14.9907L13.3206 14.9864L13.3243 14.9784L13.3199 14.9683L13.2643 14.9357L12.994 14.9349C12.929 14.9371 12.7238 15.019 12.7375 15.0349C12.7505 15.0494 12.8994 14.9864 13.002 14.9741C13.1096 14.9603 13.299 14.9965 13.3076 14.9965ZM13.0952 14.488C13.1479 14.4322 13.0461 14.3692 13.0446 14.362C13.0446 14.362 13.1154 14.4547 13.0583 14.4286C13.0099 14.3511 12.8177 14.2946 12.8112 14.2866C12.8011 14.2743 12.8358 14.2417 12.9413 14.3214C12.9478 14.3076 12.8842 14.2446 12.7917 14.2511C12.7895 14.2381 12.7816 14.2243 12.7729 14.2192C12.7715 14.2185 12.77 14.2185 12.77 14.2185C12.7664 14.2185 12.7606 14.2185 12.7621 14.2207C12.77 14.2301 12.7838 14.2518 12.7686 14.254C12.7505 14.2562 12.7397 14.2243 12.7361 14.2192C12.7267 14.2019 12.6826 14.2265 12.7079 14.246C12.7144 14.2526 12.7267 14.2562 12.7375 14.2642C12.7505 14.2721 12.7447 14.2765 12.7332 14.2721C12.718 14.2678 12.7028 14.2642 12.6819 14.2642C12.6609 14.2642 12.6421 14.2692 12.6241 14.2765C12.6161 14.2786 12.6089 14.2743 12.6183 14.2671C12.6262 14.2598 12.6385 14.2569 12.6457 14.2526C12.6826 14.2265 12.6212 14.1838 12.6111 14.2446C12.6038 14.2562 12.5966 14.2642 12.5916 14.2663C12.5634 14.2685 12.5937 14.2243 12.5923 14.2243L12.5872 14.2294C12.5785 14.2352 12.567 14.2461 12.5648 14.2584C12.5576 14.2576 12.4506 14.2642 12.4355 14.3228C12.5142 14.2649 12.5561 14.2685 12.5511 14.291C12.5496 14.3004 12.455 14.3547 12.4167 14.3909C12.3871 14.4134 12.3423 14.4677 12.3336 14.4699C12.3184 14.4728 12.3162 14.4416 12.3365 14.4011C12.2866 14.4503 12.296 14.4894 12.3097 14.5097C12.2845 14.5699 12.2902 14.6459 12.3227 14.706C12.3509 14.756 12.5244 14.9031 12.5395 14.8937C12.554 14.8835 12.3596 14.7118 12.3451 14.6387C12.3141 14.4626 12.5511 14.3083 12.6277 14.2989C12.6313 14.2989 12.6414 14.3214 12.6848 14.3185C12.739 14.3163 12.7447 14.2989 12.7447 14.2989C12.8062 14.291 13.0945 14.4011 13.0641 14.6148C13.0533 14.6821 13.0273 14.7625 13.0388 14.7712C13.0504 14.7785 13.0627 14.7423 13.0916 14.6836C13.1219 14.6213 13.1234 14.5452 13.0952 14.488ZM13.8496 15.4456C13.8127 15.4051 13.5049 15.0335 13.5035 15.0327C13.5006 15.0269 13.4933 15.0154 13.4825 15.0154C13.4767 15.0154 13.4377 15.0175 13.4363 15.0262C13.5013 15.1349 13.648 15.3073 13.752 15.3913C13.7976 15.4333 13.8366 15.458 13.8496 15.4456ZM11.9448 17.4638C11.9607 17.4841 11.9875 17.5239 11.9875 17.5239C11.9875 17.5239 12.025 17.4305 12.0915 17.3935C12.1558 17.3566 12.2693 17.3066 12.3184 17.3044C12.132 17.2573 11.9528 17.3943 11.9448 17.4638ZM11.8523 15.9505C11.887 15.9513 11.8979 15.9172 11.8986 15.8803L11.9058 15.8738C11.9065 15.873 11.9398 15.8426 11.9615 15.776C11.9773 15.8658 12.0221 16.044 11.9896 16.0911L11.9383 16.1447L11.9918 16.1143C12.0128 16.107 12.046 16.0686 12.0359 16.0056C12.0301 15.9716 11.9781 15.6869 11.9781 15.6869L11.9752 15.6753C11.9723 15.6383 11.9615 15.6036 11.9405 15.576C11.9058 15.5282 11.8509 15.5043 11.814 15.5007C11.814 15.5007 11.9607 15.5985 11.9419 15.7028C11.9246 15.802 11.9058 15.81 11.9058 15.8107L11.8856 15.7876L11.8834 15.8462C11.8805 15.8752 11.8704 15.8868 11.8516 15.8861C11.7953 15.8853 11.7533 15.9621 11.6934 15.9447C11.637 15.9281 11.6074 15.881 11.572 15.8542C11.5402 15.8288 11.5893 15.7789 11.5893 15.7789C11.5893 15.7789 11.5871 15.7593 11.5727 15.7492C11.5575 15.739 11.5322 15.802 11.5322 15.802C11.5322 15.802 11.4983 15.889 11.546 15.9194C11.6298 15.9744 11.603 15.9737 11.6934 16.0013C11.7844 16.0288 11.7772 15.9484 11.8523 15.9505ZM15.8338 13.229C15.7717 13.229 15.6929 13.1899 15.6734 13.0812C15.6662 13.0602 15.612 12.9327 15.5657 12.8226C15.2998 12.1989 15.3208 12.4271 15.3461 12.3279C15.3902 12.1489 15.6344 12.1279 15.8158 12.1279C15.8577 12.1279 15.8895 12.1301 15.901 12.1308C15.9885 12.1316 16.0658 12.1641 16.1258 12.2221C16.2248 12.3199 16.2493 12.4648 16.2493 12.5321C16.2493 12.5394 16.1164 12.9421 16.0492 13.0631L16.0463 13.0682C15.948 13.2268 15.8635 13.2283 15.8346 13.2283H15.8338V13.229Z" fill="black"/>
<path d="M15.8961 12.2657C15.8961 12.2657 15.5088 12.2403 15.4777 12.3591C15.4488 12.4787 15.7241 12.9314 15.8079 13.0575C15.8679 13.1473 15.93 12.9981 15.93 12.9981C15.972 12.9242 16.1121 12.5823 16.1129 12.5315C16.1129 12.4693 16.071 12.265 15.8961 12.2657Z" fill="#C9CACC"/>
<path d="M4.88281 8.40339C4.88281 8.40339 5.96381 8.47148 6.15313 9.69498C6.21383 9.4697 5.96887 8.72864 5.65888 8.54827C5.62347 8.52799 5.48979 8.46207 5.58879 8.2433C5.22532 8.19042 4.88281 8.40339 4.88281 8.40339ZM10.0414 8.89815C10.0414 8.89815 10.7019 8.64823 10.8579 9.71164C10.9295 9.32264 10.8399 8.86048 10.5725 8.72067C10.3052 8.58087 10.0414 8.89815 10.0414 8.89815ZM6.93136 10.0354C6.93136 10.0354 6.99712 10.2586 7.06721 10.3027C7.13803 10.3455 7.32157 10.0702 7.32157 10.0702C7.32157 10.0702 7.19367 10.4013 7.08094 10.486C6.98989 10.4172 6.95449 10.3324 6.93136 10.0354Z" fill="black"/>
<path d="M7.20035 10.2854C7.20035 10.2854 7.30658 10.5071 7.37667 10.5505C7.44748 10.5925 7.61079 10.331 7.61079 10.331C7.61079 10.331 7.46555 10.6701 7.3904 10.7345C7.32247 10.6729 7.18952 10.5933 7.20035 10.2854ZM6.58398 10.6635C6.58398 10.6635 6.71333 10.9019 6.79065 10.933C6.92288 10.9866 6.93227 10.6375 6.93227 10.6375C6.93227 10.6375 6.98791 11.0236 6.84267 11.1503C6.72055 11.0801 6.65624 11.033 6.58398 10.6635Z" fill="black"/>
<path d="M6.91211 10.5225C6.91211 10.5225 6.9822 10.7325 7.04868 10.7825C7.11444 10.8325 7.25173 10.4573 7.25173 10.4573C7.25173 10.4573 7.20693 10.8282 7.10215 11.0129C7.03423 10.9361 6.92078 10.8195 6.91211 10.5225Z" fill="black"/>
<path d="M7.17969 10.6918C7.18041 10.7019 7.30686 10.8888 7.38418 10.9251C7.46366 10.9591 7.51497 10.6375 7.51497 10.6375C7.51497 10.6375 7.53737 11.0047 7.44271 11.112C7.38779 11.0728 7.20642 10.9801 7.17969 10.6918ZM7.25195 9.80298C7.25195 9.80298 7.37551 10.0848 7.45788 10.1282C7.54026 10.1702 7.6631 9.86817 7.6631 9.86817C7.6631 9.86817 7.60023 10.1978 7.45283 10.3006C7.35239 10.213 7.32204 10.155 7.25195 9.80298Z" fill="black"/>
<path d="M7.04425 9.56095C7.04425 9.56095 7.12156 9.77103 7.19165 9.80797C7.26174 9.84564 7.38386 9.56095 7.38386 9.56095C7.38386 9.56095 7.3116 9.9246 7.1996 10.0354C7.12373 9.97385 7.08905 9.87316 7.04425 9.56095ZM7.47202 9.48706C7.47202 9.48706 7.53633 9.66889 7.59775 9.70728C7.657 9.7464 7.75094 9.58703 7.75094 9.58703C7.75094 9.58703 7.71337 9.83912 7.60209 9.87316C7.55584 9.83187 7.50526 9.75002 7.47202 9.48706ZM7.80152 9.27409C7.80152 9.27409 7.83765 9.44505 7.88896 9.48127C7.93737 9.51821 8.02914 9.36102 8.02914 9.36102C8.02914 9.36102 8.01758 9.55154 7.88318 9.63629C7.83476 9.57689 7.77551 9.50445 7.80152 9.27409ZM8.10935 9.0249C8.10935 9.0249 8.14548 9.19513 8.19534 9.23208C8.2452 9.2683 8.33696 9.11183 8.33696 9.11183C8.33696 9.11183 8.31962 9.34436 8.19534 9.37044C8.21051 9.39144 8.0855 9.23208 8.10935 9.0249ZM6.65332 10.2513C6.65332 10.2513 6.76605 10.4512 6.81807 10.457C6.8701 10.4621 6.97054 10.2513 6.97054 10.2513C6.97054 10.2513 6.92285 10.5353 6.81807 10.5925C6.77111 10.5345 6.67861 10.444 6.65332 10.2513Z" fill="black"/>
<path d="M7.32271 9.29883C7.32271 9.29883 7.3704 9.46647 7.4217 9.49971C7.47373 9.53367 7.55538 9.37109 7.55538 9.37109C7.55538 9.37109 7.52864 9.61171 7.4376 9.67891C7.38051 9.62688 7.31042 9.54017 7.32271 9.29883Z" fill="black"/>
<path d="M12.1692 11.9383C11.9864 11.8753 11.7624 11.4942 11.6945 11.332C11.6266 11.1675 11.503 10.6865 11.5781 10.5112C11.6172 10.6851 11.7227 11.0567 11.8021 11.2248C11.9206 11.4747 12.0709 11.8021 12.1692 11.9383Z" fill="#C9CACC"/>
</svg>
