<svg width="27" height="32" viewBox="0 0 27 32" fill="none" xmlns="http://www.w3.org/2000/svg">
<path fill-rule="evenodd" clip-rule="evenodd" d="M19.5127 1.7088C17.9547 1.66146 16.3843 1.32917 14.8135 0.729404C14.2683 0.517084 13.7327 0.280945 13.2083 0.0216673V0C13.2003 0.000102799 13.1926 0.00314786 13.1866 0.00855765C13.1799 0.00451348 13.1726 0.00162079 13.165 0V0.0214852C12.5998 0.297697 12.0388 0.543684 11.4735 0.755077C9.91141 1.34628 8.35373 1.66547 6.80461 1.70862C4.50916 1.76907 2.23501 1.21664 0 0V5.05721C0.371075 13.9071 2.7745 20.7248 6.80461 25.9202C8.17675 27.6937 9.7388 29.2774 11.4735 30.6885C12.0224 31.1349 12.5866 31.5622 13.165 31.9698V32C13.1716 31.9948 13.1788 31.9905 13.1866 31.9873C13.1932 31.9924 13.2005 31.9967 13.2083 32V31.9698C13.7542 31.5788 14.2895 31.1731 14.8135 30.7531C16.5567 29.342 18.1319 27.7585 19.5127 25.9849C23.5685 20.7811 25.9936 13.9461 26.3691 5.05721V0.0129275V0C24.1124 1.22557 21.8253 1.77781 19.5127 1.7088Z" fill="#E09337"/>
<path fill-rule="evenodd" clip-rule="evenodd" d="M0.867188 5.35934C2.89098 4.40562 4.86707 3.92238 6.80456 3.93531C8.39246 3.94824 9.95014 4.28909 11.4734 4.97516C11.9006 5.16506 12.3233 5.38502 12.7419 5.62681V9.45427C12.2889 9.5018 11.8618 9.63981 11.4734 9.84264C11.0189 10.0858 10.6221 10.424 10.3101 10.8343C9.99813 11.2446 9.77822 11.7173 9.66537 12.2202H1.70001C1.24263 9.98922 0.97079 7.68939 0.867188 5.35934Z" fill="white"/>
<path fill-rule="evenodd" clip-rule="evenodd" d="M13.1263 10.054H13.1868C13.7711 10.0651 14.3384 10.2531 14.8136 10.5933C15.5558 11.124 16.0434 11.9914 16.0434 12.9752C16.0434 13.9546 15.5558 14.8264 14.8136 15.3572C14.3374 15.6955 13.7708 15.8833 13.1868 15.8965H13.1263C12.5353 15.8977 11.9583 15.7169 11.4736 15.3786C10.7098 14.8523 10.2051 13.9719 10.2051 12.9752C10.2051 11.9785 10.7098 11.0938 11.4736 10.5674C11.9596 10.2324 12.5361 10.0533 13.1263 10.054Z" fill="black"/>
<path fill-rule="evenodd" clip-rule="evenodd" d="M24.6649 12.2201H16.583C16.3629 11.2061 15.7025 10.3474 14.8137 9.86418C14.4326 9.65442 14.0155 9.51828 13.584 9.46288V5.67001C13.9734 5.39395 14.3847 5.15007 14.8137 4.94079C16.1555 4.28058 17.7565 3.88802 19.513 3.87928C21.364 3.87072 23.3878 4.2935 25.4458 5.29457C25.338 7.62462 25.1221 9.98926 24.6649 12.2201Z" fill="white"/>
<path fill-rule="evenodd" clip-rule="evenodd" d="M25.5275 4.66875C23.4866 3.68917 21.4628 3.25783 19.5125 3.28369C17.8813 3.30535 16.3063 3.65039 14.8133 4.2589C14.2567 4.48759 13.7172 4.75506 13.1864 5.05276C13.1787 5.05605 13.1714 5.0604 13.1648 5.06568V5.08298H13.1606C12.604 4.77654 12.043 4.50907 11.4734 4.28457C9.94163 3.67625 8.37521 3.36544 6.80461 3.35688C4.81104 3.34833 2.80891 3.82719 0.845565 4.81533C0.80236 3.6709 0.798048 2.52533 0.832638 1.38061L0.858493 1.39354C2.84332 2.22199 4.82834 2.61055 6.80443 2.57595C8.36647 2.54573 9.92415 2.25222 11.4733 1.69579C12.0572 1.48922 12.6291 1.25008 13.1863 0.979492C13.716 1.23681 14.2591 1.46582 14.8131 1.66556C16.3406 2.21362 17.9241 2.52861 19.5124 2.57595C21.5447 2.64059 23.59 2.26096 25.5317 1.38061C25.5619 2.48109 25.5619 3.57702 25.5275 4.66875Z" fill="#CD3529"/>
<path fill-rule="evenodd" clip-rule="evenodd" d="M4.00923 13.0483H1.88184C2.38838 15.2764 3.08938 17.434 4.00923 19.4883V13.0483ZM8.04371 13.0483H6.02866V23.2578C6.02866 23.2578 6.0343 23.3279 6.8054 24.4224C7.19844 24.9787 7.61154 25.5205 8.0439 26.0469L8.04371 13.0483ZM12.1343 16.3673C11.9057 16.3006 11.6845 16.2107 11.4742 16.0991C10.8862 15.7891 10.3973 15.3201 10.0631 14.7455V28.2535C10.5187 28.7011 10.9893 29.133 11.4742 29.5486C11.6906 29.7329 11.9112 29.9138 12.1343 30.0934V16.3673ZM16.2208 14.6881C16.2212 14.6874 16.2216 14.6863 16.2223 14.6856C15.8942 15.2747 15.406 15.7587 14.8141 16.0818C14.6025 16.1962 14.3798 16.2889 14.1495 16.3585V30.1613C14.8694 29.5868 15.5607 28.9774 16.221 28.3352V14.6881H16.2208ZM24.4879 13.0483H22.2702V19.6805C22.1995 19.836 23.7834 16.5198 24.4879 13.0483ZM20.2549 13.0483H18.2357V26.1528C18.0032 26.4338 18.9017 25.3533 19.5132 24.4917C19.7689 24.1299 20.0162 23.7622 20.2549 23.3889V13.0483Z" fill="white"/>
<path fill-rule="evenodd" clip-rule="evenodd" d="M6.02821 13.0483V23.2578C5.2659 22.052 4.59103 20.7931 4.00879 19.4908V13.0483H6.02821ZM10.0627 14.7398V28.2544C9.35029 27.5564 8.67616 26.8204 8.04327 26.0496V13.0483H9.58802C9.60048 13.6433 9.76381 14.2253 10.0627 14.7398ZM14.1489 16.3582V30.1617C13.8329 30.415 13.5121 30.6625 13.1868 30.9038C12.8297 30.6429 12.4786 30.3738 12.1338 30.0968V16.3667C12.4488 16.4616 12.7855 16.5093 13.1263 16.5093C13.4728 16.5099 13.8174 16.459 14.1489 16.3582ZM18.2353 13.0483V26.1528C17.6037 26.9167 16.9311 27.6456 16.2204 28.3363V14.6881C16.5004 14.1862 16.6529 13.6232 16.6645 13.0485L18.2353 13.0483ZM22.2697 13.0483V19.6805C21.6878 20.9642 21.0143 22.2044 20.2545 23.3915V13.0483H22.2697Z" fill="#CA2A2F"/>
<path fill-rule="evenodd" clip-rule="evenodd" d="M22.479 9.41438C22.479 9.42895 22.479 9.4437 22.4787 9.45844C22.4619 10.8929 21.6974 11.732 20.2673 11.8855H19.8744C19.4032 11.8682 18.4203 11.7375 18.2827 11.5125C18.2736 11.4986 18.2683 11.4825 18.2673 11.466C18.2663 11.4494 18.2697 11.4328 18.277 11.418C18.3673 11.2829 18.7717 11.4136 19.0673 11.509L19.1392 11.5319C19.3478 11.5988 19.6698 11.5798 19.8828 11.5671L19.8941 11.5665V10.2325L19.6057 10.2197L19.3251 10.1549C18.0875 9.80694 17.6494 9.0109 17.6494 8.36452C17.6494 8.34904 17.6498 8.33357 17.6501 8.31827C17.6762 7.51913 18.3284 6.8469 19.2746 6.6417L19.1878 6.56541C19.0323 6.4294 18.8852 6.30121 18.7987 6.09965C18.7113 5.89828 18.6674 5.70637 18.6674 5.52848C18.6674 5.34731 18.7126 5.18089 18.8032 5.03432C19.0028 4.71222 19.407 4.51212 19.9132 4.48535H19.9139L20.2684 4.53724C20.4658 4.56638 21.2194 4.96859 21.2624 5.27029C21.274 5.35441 21.228 5.42123 21.1244 5.46857L21.1202 5.47057L21.1169 5.46693C20.8818 5.19491 20.3613 4.86116 19.9917 4.81764L19.7843 4.83057C19.5403 4.84241 19.303 5.02139 19.1943 5.27539C19.1392 5.39975 19.1146 5.51336 19.1146 5.61806C19.1146 6.03283 19.499 6.30613 19.881 6.53409V5.76245L21.6619 5.76518L21.6768 5.7863C21.7048 5.82544 21.723 5.85075 21.723 5.8919C21.723 5.92304 21.7127 5.96346 21.6886 6.02591L21.6868 6.02992H20.429V6.57378C20.7864 6.57415 21.1666 6.60893 21.5617 6.67884L21.6367 6.74639L21.6628 6.82833C21.5859 7.03371 21.2986 6.95742 21.0674 6.89624L20.8928 6.85418L20.6502 6.84544L20.4962 6.82287L20.5506 6.86766C21.74 7.46506 22.479 8.10142 22.479 9.41438ZM19.8941 9.91273V6.99566C19.4207 6.88004 18.9545 7.02643 18.6142 7.39823C18.3497 7.68957 18.2018 8.06822 18.1989 8.46175C18.1989 8.61087 18.2217 8.75781 18.269 8.89564C18.4458 9.40855 18.9305 9.75632 19.6342 9.87486C19.6341 9.87504 19.8801 9.91072 19.8941 9.91273ZM20.4161 8.56462C20.665 8.6431 20.7464 8.63727 21.0082 8.57609C21.1597 8.53931 21.2163 8.58374 21.2362 8.6136C21.2642 8.65512 21.256 8.7152 21.2141 8.7742C21.1175 8.91021 20.8731 9.00835 20.5463 8.92095L20.4033 8.88417V9.95224L20.628 9.94641C20.9743 9.93239 21.4974 9.91109 21.585 9.99994L21.5985 10.0324C21.5976 10.0559 21.5919 10.079 21.5817 10.1002C21.5716 10.1215 21.5572 10.1405 21.5395 10.156C21.3642 10.3179 20.834 10.2964 20.5492 10.2847L20.4163 10.2805V11.5644C21.7392 11.2812 22.0663 10.3779 22.0663 9.55531C22.0663 9.43587 22.0592 9.31824 22.0473 9.20444C21.9537 8.33484 21.3592 7.62019 20.4161 7.24183V8.56462Z" fill="black"/>
<path fill-rule="evenodd" clip-rule="evenodd" d="M14.639 12.0361C14.6353 12.0346 14.6322 12.0334 14.633 12.0341C14.505 11.9481 14.3855 11.9194 14.2774 11.9485C14.1397 11.9858 14.0143 12.1197 13.9036 12.3451C14.1778 12.7509 14.3162 13.1633 14.3162 13.5772C14.3162 13.7676 14.287 13.9585 14.2288 14.1491C14.0627 14.7013 13.6545 15.2656 13.0176 15.8268L13.127 15.83C13.499 15.83 13.8571 15.7596 14.1918 15.6212C14.8074 14.8164 15.1153 14.0714 15.1153 13.3927C15.1153 12.9051 14.9565 12.4523 14.639 12.0361Z" fill="#936B3B"/>
<path fill-rule="evenodd" clip-rule="evenodd" d="M15.9536 13.1137C15.9536 12.9318 15.932 12.7506 15.8865 12.5735C15.8064 12.2625 15.6529 11.9752 15.4387 11.7359C15.2891 11.6218 15.156 11.5799 15.0429 11.6116C14.9167 11.6469 14.8093 11.7762 14.7228 11.9943C15.0453 12.4238 15.2071 12.8898 15.2071 13.3896C15.2071 14.0509 14.9229 14.7719 14.3594 15.5461C15.326 15.08 15.9536 14.0886 15.9536 13.1137Z" fill="#936B3B"/>
<path fill-rule="evenodd" clip-rule="evenodd" d="M13.2471 12.6621C13.3857 12.383 13.5798 12.2607 13.8252 12.2991C13.9458 12.05 14.0872 11.9 14.2462 11.8548C14.3693 11.8198 14.504 11.8488 14.6462 11.9367C14.7462 11.6964 14.8713 11.5527 15.0193 11.5129C15.1577 11.4755 15.3177 11.5265 15.4954 11.6645L15.5014 11.6705C15.6715 11.8581 15.806 12.075 15.8984 12.3107C15.8717 12.1925 15.837 12.0763 15.7946 11.9628C15.7838 11.9617 15.7715 11.9566 15.7622 11.9378C15.5879 11.6139 15.3308 11.3685 15.0182 11.2281C14.7939 11.1241 14.5477 11.0781 14.2873 11.0913C14.0353 11.1043 13.7895 11.1745 13.5687 11.2967C13.2271 11.481 12.9593 11.7725 12.7954 12.1356C12.7872 12.1946 12.7832 12.2485 12.7832 12.2967C12.7832 12.4083 12.8049 12.4904 12.848 12.5425C12.9172 12.6237 13.0441 12.6616 13.2471 12.6621Z" fill="#936B3B"/>
<path fill-rule="evenodd" clip-rule="evenodd" d="M15.0566 11.1449C15.2494 11.2305 15.4264 11.3612 15.579 11.5245C15.3947 11.2177 15.1558 10.9413 14.8738 10.7221C14.3386 10.3864 13.8379 10.2982 13.3858 10.4607C12.9519 10.6134 12.5424 10.9947 12.1692 11.591C12.1477 11.6427 12.1361 11.698 12.1348 11.754C12.1348 11.8042 12.1466 11.8494 12.1705 11.8891C12.2411 12.007 12.4221 12.0848 12.7065 12.121L12.71 12.1101L12.7056 12.1208L12.7069 12.1059C12.8755 11.729 13.1627 11.4175 13.5246 11.2186C13.7585 11.0891 14.019 11.0147 14.286 11.0011C14.5584 10.9878 14.8251 11.0375 15.0566 11.1449Z" fill="#936B3B"/>
<path fill-rule="evenodd" clip-rule="evenodd" d="M11.5498 11.2266C11.605 11.4027 11.788 11.5092 12.0933 11.5438C12.4728 10.9314 12.897 10.5372 13.354 10.3721C13.6308 10.2763 13.9141 10.2692 14.2125 10.3399C13.8637 10.1946 13.4999 10.1165 13.1261 10.1165C12.8715 10.1165 12.6115 10.1525 12.3533 10.2237L12.3599 10.2199C12.3599 10.2199 12.3366 10.2328 12.3431 10.2312C11.9378 10.4296 11.6785 10.7554 11.5498 11.2266Z" fill="#936B3B"/>
<path fill-rule="evenodd" clip-rule="evenodd" d="M10.9688 11.7418C10.9688 11.9368 11.0037 12.122 11.0734 12.2965C11.2426 12.709 11.6002 13.0461 12.1357 13.2981C12.295 13.3689 12.4286 13.423 12.5647 13.457C12.6924 13.4881 12.8241 13.4997 12.9552 13.4912C12.9552 13.4912 13.0075 13.4754 13.0042 13.4776C13.1446 13.3507 13.2089 13.2609 13.2327 13.1568C13.244 13.1151 13.2489 13.0706 13.2489 13.0233C13.2489 12.9428 13.2343 12.8531 13.213 12.7518C12.9989 12.7456 12.8598 12.6994 12.7782 12.6047C12.7182 12.5306 12.6894 12.4296 12.6894 12.2908C12.6894 12.267 12.6907 12.2413 12.6925 12.2149C12.3851 12.1746 12.1834 12.0863 12.0949 11.9512C12.0585 11.8951 12.0397 11.8293 12.0408 11.7624C12.0408 11.7218 12.049 11.6779 12.0609 11.6326C11.7235 11.5909 11.5206 11.4591 11.4587 11.236L11.4593 11.2149C11.5536 10.8538 11.7315 10.57 11.9807 10.3613C11.6699 10.5003 11.3912 10.6838 11.1541 10.9125C11.0307 11.2049 10.9688 11.482 10.9688 11.7418Z" fill="#936B3B"/>
<path fill-rule="evenodd" clip-rule="evenodd" d="M13.0734 14.1351C13.0879 14.0934 13.0952 14.0479 13.0952 13.9971C13.0952 13.9461 13.0877 13.8901 13.0728 13.8283C13.0521 13.7418 13.0191 13.6587 12.9747 13.5816C12.8225 13.5929 12.6815 13.5816 12.5446 13.5463C12.3855 13.509 12.2356 13.4449 12.0972 13.3813C11.5466 13.1241 11.1634 12.7603 10.9893 12.3293C10.9137 12.142 10.8754 11.9418 10.8766 11.7399C10.8766 11.5325 10.9161 11.3138 10.9909 11.0864C10.7062 11.412 10.4939 11.7927 10.3799 12.1962C10.3817 12.2044 10.3839 12.2153 10.3839 12.214C10.4835 12.9691 10.7475 13.5321 11.1683 13.8873C11.5588 14.2187 12.1056 14.3817 12.7913 14.3717C12.8338 14.3633 12.8745 14.3478 12.9119 14.326C12.9878 14.2833 13.0451 14.2158 13.0734 14.1351Z" fill="#936B3B"/>
<path fill-rule="evenodd" clip-rule="evenodd" d="M11.1056 13.9575C10.7081 13.6199 10.4474 13.1055 10.3268 12.4316C10.2924 12.6172 10.2715 12.8 10.2715 12.9753C10.2715 13.2408 10.3104 13.5106 10.3875 13.7776C10.5959 14.316 10.8629 14.7202 11.1806 14.9787C11.5213 15.2495 11.9255 15.3574 12.3825 15.2992C12.4614 15.2914 12.5383 15.2701 12.6099 15.2362C12.6926 15.1927 12.7528 15.1339 12.7891 15.0616C12.8195 15.0006 12.8348 14.9316 12.8348 14.8556C12.8348 14.8322 12.8334 14.8088 12.8308 14.7855C12.8177 14.6852 12.7825 14.5774 12.7277 14.466C12.0398 14.464 11.5091 14.2979 11.1056 13.9575Z" fill="#936B3B"/>
<path fill-rule="evenodd" clip-rule="evenodd" d="M12.395 15.3889C11.9974 15.4414 11.6388 15.37 11.3242 15.183C11.7692 15.5472 12.3164 15.7715 12.8886 15.8201C13.5518 15.2475 13.9727 14.6765 14.1391 14.1228C14.1958 13.9391 14.2242 13.7552 14.2242 13.5718C14.2242 13.174 14.0905 12.7781 13.8252 12.3896C13.6062 12.3552 13.4383 12.468 13.3141 12.7293L13.3063 12.7439C13.328 12.8471 13.3429 12.9394 13.3429 13.0243C13.3429 13.0795 13.3369 13.1314 13.3223 13.1816C13.293 13.3032 13.2167 13.4103 13.0625 13.5483C13.1069 13.6386 13.141 13.7262 13.1627 13.8085C13.1787 13.8713 13.1869 13.9316 13.1869 13.9889C13.1869 14.0518 13.1772 14.1111 13.1579 14.1667C13.1224 14.269 13.0549 14.35 12.9564 14.4083C12.9161 14.4283 12.8706 14.444 12.8231 14.4567C12.8748 14.5714 12.9088 14.6794 12.9214 14.7766C12.9256 14.8054 12.9276 14.834 12.9276 14.8622C12.9276 14.9467 12.9092 15.0281 12.8722 15.1054C12.8231 15.1959 12.747 15.2688 12.6547 15.3141C12.574 15.3561 12.4857 15.3816 12.395 15.3889Z" fill="#936B3B"/>
<path fill-rule="evenodd" clip-rule="evenodd" d="M11.1714 9.13913C11.098 8.88458 10.9729 8.63859 10.8001 8.38824C10.8174 8.3063 10.813 8.23292 10.8087 8.15099C10.8087 8.11639 10.8045 8.08198 10.8045 8.04302V7.97838C10.8087 7.90937 10.8087 7.84473 10.7915 7.78428C11.0029 7.42177 11.0634 7.09822 11.0117 6.66232C10.947 6.7011 10.8864 6.74007 10.8391 6.80034C10.8261 6.73133 10.8176 6.66232 10.8047 6.58894C10.8003 6.56309 10.7659 6.55435 10.7486 6.57602C10.6925 6.64502 10.6364 6.70984 10.576 6.77885C10.4034 6.97732 10.2437 7.18452 10.2566 7.47348V7.52519L10.2393 7.55104C10.0711 7.76681 9.99768 8.00423 9.91994 8.24567C9.89408 8.33197 9.86823 8.41828 9.838 8.50458V6.70966L9.82945 6.7011C9.78629 6.66232 9.75188 6.6321 9.72166 6.60187C9.62679 6.51994 9.54905 6.48097 9.54468 6.27377C9.54049 6.1789 9.60512 6.11845 9.64391 6.0926C9.67413 6.06674 9.71729 6.07111 9.78192 6.1099C9.79048 6.14449 9.79922 6.17035 9.79485 6.19201C9.78629 6.2998 9.68269 6.32584 9.8553 6.45093C9.90719 6.48534 9.96746 6.48115 10.0367 6.38629C10.0684 6.34343 10.0878 6.29267 10.0927 6.23954C10.101 6.15836 10.0876 6.07645 10.0539 6.00211C10.0201 5.92487 9.96828 5.85683 9.90282 5.80364C9.85967 5.77342 9.80796 5.74756 9.75188 5.74337H9.74314C9.58783 5.76049 9.48423 5.80801 9.41522 5.88139C9.34184 5.95477 9.30725 6.054 9.28139 6.17909C9.25972 6.30854 9.28576 6.42944 9.34603 6.54579C9.39792 6.65376 9.47986 6.75737 9.57035 6.84367V9.66988C9.56616 9.67407 9.55742 9.67407 9.55305 9.67844C9.46238 9.73889 9.45819 9.9288 9.39774 10.0322C9.32436 10.1487 9.16468 10.1704 9.06982 10.2609C8.93508 10.3842 8.76119 10.6527 8.76338 10.6449V4.1207C8.6415 4.09844 8.51925 4.07828 8.39667 4.06025V4.18952H8.12465C8.07713 3.95664 7.70605 3.96957 7.65853 4.13344H7.47736C7.36083 3.87453 7.05458 3.93498 6.96827 4.13344H6.7354C6.62324 3.90912 6.32973 3.92624 6.22194 4.13344H6.02784C6.01928 3.98669 5.8423 3.96939 5.71722 4.02128C5.63091 4.06006 5.57046 4.1247 5.58776 4.20245H5.33759V4.02128C5.21232 4.03421 5.08723 4.05151 4.96214 4.0688V6.01922C4.78097 5.54891 4.63859 5.06568 4.51769 4.57789C4.5135 4.54348 4.45305 4.5606 4.45724 4.59082L4.96196 6.91231V11.5553H8.55199C8.5529 11.5351 8.55199 11.5983 8.55199 11.6502C8.55199 11.7321 8.81946 11.7192 8.85405 11.7148C8.87918 11.7117 8.90394 11.709 8.92743 11.7072L8.91869 12.2197H9.66521C9.68032 12.1633 9.69234 12.1099 9.70654 12.0544L9.70399 12.06C9.70563 12.0536 9.708 12.0476 9.70964 12.0413L9.70636 12.0542C9.70938 12.0479 9.71117 12.0411 9.71164 12.0342C9.87314 11.4619 10.1716 10.9402 10.5754 10.5238C10.7801 10.3105 11.0105 10.1235 11.2615 9.96722C11.2748 9.66114 11.2489 9.39367 11.1714 9.13913ZM8.43546 9.13476C8.38375 9.07012 7.76232 8.31923 7.50777 8.00442C7.82714 7.80158 8.09461 7.56852 8.27596 7.2406C8.30181 7.19308 8.32767 7.14137 8.34933 7.08511C8.38375 7.07655 8.40978 7.06362 8.43564 7.04195L8.43546 9.13476ZM8.43546 6.6148C8.3897 6.57997 8.33345 6.56173 8.27596 6.56309C8.17672 6.56309 8.09042 6.6148 8.0429 6.69255L7.81421 6.80034C7.78817 6.70547 7.74083 6.61043 7.68038 6.5112C7.61392 6.41285 7.53565 6.32302 7.44732 6.24372C7.538 6.0926 7.54655 5.94166 7.5034 5.78197C7.45606 5.62666 7.35228 5.46261 7.22282 5.28563C7.24449 5.25122 7.2616 5.21662 7.27471 5.17784C7.28764 5.13469 7.29183 5.08298 7.27908 5.01379C7.27034 4.95352 7.21863 4.88451 7.15818 4.80677C7.07188 4.69461 6.96409 4.55641 6.93386 4.38817C6.92967 4.35794 6.88215 4.35794 6.87341 4.3838C6.86626 4.42903 6.85168 4.47278 6.83026 4.51326C6.78292 4.60812 6.7181 4.6815 6.65765 4.7505C6.57571 4.84118 6.51089 4.91874 6.50234 5.00942C6.49797 5.05694 6.50671 5.10865 6.524 5.16054C6.53693 5.2037 6.55423 5.24266 6.57571 5.28563C6.55851 5.30766 6.54264 5.33071 6.52819 5.35464C6.34702 5.61774 6.15712 5.89832 6.3341 6.24354C6.25653 6.31255 6.18297 6.39467 6.11415 6.48516C6.04112 6.57963 5.9748 6.67911 5.91568 6.78286L5.7387 6.68799C5.73014 6.67507 5.72578 6.66651 5.71722 6.65358C5.69047 6.62311 5.65715 6.59912 5.61977 6.58341C5.5824 6.5677 5.54194 6.56069 5.50145 6.56291C5.41078 6.56709 5.31592 6.61462 5.27276 6.70966V4.36668C5.35051 4.42276 5.43245 4.45736 5.50145 4.44862C5.54126 4.445 5.57824 4.42654 5.60506 4.39691C5.63947 4.44006 5.67406 4.47884 5.71722 4.51781C5.78185 4.58245 5.85523 4.63853 5.93298 4.69898C5.98906 4.44862 6.01491 4.31916 6.14874 4.29768C6.28676 4.27619 6.42495 4.48758 6.50689 4.6429C6.58882 4.44443 6.67932 4.29768 6.7831 4.207H6.94697C7.07643 4.31497 7.15418 4.47029 7.18859 4.65145C7.30512 4.44862 7.39998 4.25452 7.55966 4.27164C7.71516 4.28894 7.75813 4.50033 7.77542 4.69898C7.87029 4.57808 7.97389 4.46592 8.08623 4.36668C8.15961 4.42276 8.21569 4.44862 8.27614 4.44862C8.32785 4.44862 8.37537 4.42276 8.43564 4.37961L8.43546 6.6148Z" fill="black"/>
<path fill-rule="evenodd" clip-rule="evenodd" d="M7.43915 8.01733C7.71584 8.35873 7.99491 8.69819 8.27635 9.03569C8.3195 9.0874 8.36265 9.13911 8.40581 9.19519V9.73032L8.27635 9.63964L6.90421 8.72051C6.89306 8.71632 6.88077 8.71632 6.86962 8.72051L5.25586 9.84248V8.2675L5.45869 9.21249C5.46288 9.22978 5.48455 9.23834 5.50185 9.23415C5.50603 9.23415 5.51477 9.22978 5.51477 9.22123C5.57959 9.12636 5.64423 9.03132 5.71761 8.93646C5.89459 8.69047 6.10598 8.44903 6.34341 8.20724V8.20305C6.3476 8.20305 6.3476 8.19868 6.3476 8.19868C6.35001 8.19234 6.35089 8.18552 6.35016 8.17878C6.34943 8.17204 6.34712 8.16557 6.34341 8.1599C6.14913 8.00021 5.97652 7.81468 5.82121 7.61621H7.90964C7.77582 7.75004 7.62069 7.86657 7.44789 7.97436C7.4306 7.98273 7.4306 8.0044 7.43915 8.01733Z" fill="#936B3B"/>
<path fill-rule="evenodd" clip-rule="evenodd" d="M4.72949 5.54053C4.86751 5.97642 5.03593 6.40339 5.24295 6.81343V6.81762C5.23858 6.9083 5.29047 7.01609 5.37678 7.06361C5.41975 7.13262 5.45871 7.20162 5.50187 7.26644C5.57087 7.37423 5.63988 7.47784 5.71763 7.58144C5.8815 7.80139 6.06285 8.00859 6.27861 8.18557C6.27005 8.18976 5.82414 8.67154 5.50624 9.12619L5.50205 9.11326L4.72949 5.54053Z" fill="white"/>
<path fill-rule="evenodd" clip-rule="evenodd" d="M8.4358 10.2436H5.22559V9.93301C5.24288 9.92882 6.87394 8.78956 6.88686 8.78101C7.00776 8.8542 8.42742 9.81229 8.43598 9.81666L8.4358 10.2436Z" fill="#936B3B"/>
<path fill-rule="evenodd" clip-rule="evenodd" d="M8.27656 7.03797C8.17732 7.0336 8.08246 6.97333 8.06935 6.86099V6.85662V6.85225V6.84369C8.05661 6.70131 8.16877 6.62793 8.27656 6.62793C8.38016 6.62793 8.47939 6.69257 8.47939 6.83076C8.47939 6.97315 8.37579 7.03797 8.27656 7.03797Z" fill="black"/>
<path fill-rule="evenodd" clip-rule="evenodd" d="M8.27608 7.09804C8.23605 7.09826 8.19649 7.08952 8.16029 7.07243C8.1241 7.05535 8.0922 7.03036 8.06694 6.99932C8.04168 6.96828 8.0237 6.93196 8.01433 6.89305C8.00496 6.85414 8.00443 6.81362 8.01279 6.77448L7.80559 6.86935C7.80067 6.87262 7.7943 6.87281 7.78829 6.87153V7.137C7.78829 7.14993 7.77099 7.16723 7.75806 7.16723H7.36969C7.35676 7.16723 7.33947 7.14993 7.33947 7.137V6.95146H6.42908V7.137C6.42908 7.14993 6.41178 7.16723 6.39885 7.16723H6.01048C5.99755 7.16723 5.98026 7.14993 5.98026 7.137V6.79433C5.9717 6.80944 5.96296 6.82401 5.9544 6.8393C5.94584 6.85223 5.92418 6.86097 5.91125 6.85223L5.77305 6.77904C5.79035 6.86097 5.76886 6.94291 5.71697 7.00336C5.69005 7.03388 5.6568 7.05818 5.61954 7.07456C5.58228 7.09094 5.5419 7.09901 5.50121 7.09822H5.47954V7.09385H5.4668C5.47972 7.11115 5.48846 7.13263 5.50139 7.14993C5.5704 7.26209 5.63941 7.37006 5.71715 7.47785C5.73445 7.50371 5.75157 7.52956 5.77323 7.55542H7.96964C8.09255 7.42116 8.19573 7.2701 8.27608 7.10678C8.27608 7.10259 8.27608 7.10259 8.28045 7.09822L8.27608 7.09804ZM6.57583 5.38942C6.41032 5.63977 6.22897 5.90269 6.39539 6.21951L6.39885 6.21787C6.41178 6.21787 6.42908 6.2308 6.42908 6.2481V6.59769H7.35239V6.2481C7.35239 6.22971 7.37188 6.21769 7.39191 6.21514C7.47329 6.08186 7.48458 5.94457 7.44307 5.79927C7.39992 5.64378 7.2965 5.48428 7.16267 5.30748C7.15411 5.29874 7.15411 5.28145 7.1583 5.27289C7.18434 5.22974 7.20582 5.19951 7.21438 5.16073C7.22731 5.12631 7.22731 5.08316 7.21875 5.02271C7.21438 4.97956 7.16704 4.91492 7.10659 4.84136C7.03758 4.75069 6.95128 4.63853 6.90375 4.50488C6.88276 4.54991 6.85822 4.5932 6.83038 4.63434C6.79159 4.69479 6.74407 4.74213 6.7011 4.79384C6.63209 4.87159 6.57165 4.9406 6.56291 5.01379C6.55872 5.05694 6.56727 5.09591 6.5802 5.13906C6.59732 5.18221 6.61462 5.22973 6.63628 5.27708C6.64065 5.28145 6.64065 5.29874 6.63628 5.30748C6.6148 5.33316 6.5975 5.35919 6.57583 5.38942Z" fill="#936B3B"/>
<path fill-rule="evenodd" clip-rule="evenodd" d="M7.11544 5.41973C7.05936 5.32905 6.97742 5.27734 6.88675 5.27734C6.79625 5.27734 6.71414 5.32924 6.65806 5.41973C6.60198 5.50166 6.56738 5.61819 6.56738 5.74346C6.56738 5.86855 6.60198 5.98508 6.65806 6.07139C6.71414 6.15769 6.79625 6.21377 6.88675 6.21377C6.97742 6.21377 7.05936 6.15751 7.11544 6.07139C7.1717 5.98508 7.20611 5.86855 7.20611 5.74346C7.20611 5.61801 7.1717 5.50166 7.11544 5.41973Z" fill="black"/>
<path fill-rule="evenodd" clip-rule="evenodd" d="M7.06376 6.03683C7.01642 6.10583 6.95597 6.14899 6.88678 6.14899C6.81777 6.14899 6.7575 6.10583 6.70998 6.03683C6.65809 5.96345 6.62786 5.85985 6.62786 5.7435C6.62786 5.63134 6.65809 5.52755 6.70998 5.45436C6.7575 5.38098 6.81777 5.33765 6.88678 5.33765C6.95597 5.33765 7.01624 5.3808 7.06376 5.45436C7.11128 5.52755 7.1415 5.63134 7.1415 5.7435C7.1415 5.85985 7.11128 5.96327 7.06376 6.03683ZM5.51045 6.62366C5.39829 6.62366 5.30762 6.71434 5.30762 6.83068C5.30762 6.94284 5.39829 7.03789 5.51045 7.03789C5.62698 7.03789 5.71766 6.94284 5.71766 6.83068C5.71766 6.71416 5.62698 6.62366 5.51045 6.62366ZM8.2764 6.62366C8.15987 6.62366 8.06919 6.71434 8.06919 6.83068C8.06919 6.94284 8.15987 7.03789 8.2764 7.03789C8.38856 7.03789 8.47923 6.94284 8.47923 6.83068C8.47923 6.71416 8.38856 6.62366 8.2764 6.62366Z" fill="white"/>
<path fill-rule="evenodd" clip-rule="evenodd" d="M10.5766 7.53398C10.4962 7.49464 10.407 7.47677 10.3177 7.48209V7.47353C10.309 7.23192 10.4299 7.0462 10.5766 6.87377C10.6371 6.80039 10.6973 6.73576 10.7536 6.66675C10.7924 6.94278 10.9089 7.43912 10.7622 7.71533C10.7176 7.63939 10.6536 7.57677 10.5766 7.53398ZM8.61328 11.6331L8.67373 11.6548C8.71251 11.6721 8.78152 11.6633 8.85071 11.6548C8.92846 11.6462 9.00602 11.6331 9.05792 11.6591C9.12692 11.6979 9.17445 11.7325 9.20886 11.7627C9.28224 11.8188 9.32539 11.849 9.50219 11.8188C9.51093 11.8188 9.52385 11.823 9.53241 11.8317C9.57119 11.8878 9.59286 11.9181 9.61435 11.9354C9.63164 11.9526 9.6575 11.9656 9.69628 11.9872C9.81281 11.573 10.0071 11.1932 10.2573 10.8524C10.5166 10.5044 10.8368 10.2062 11.2022 9.97219C11.2152 9.67012 11.1893 9.40684 11.1159 9.15666C11.0469 8.9236 10.939 8.70784 10.788 8.47915C10.7449 8.75099 10.6846 8.97113 10.555 9.14373C10.4169 9.33346 10.2012 9.47166 9.85159 9.56652C9.84722 9.56652 9.84304 9.56652 9.83867 9.57071V10.2051C9.83779 10.2129 9.83483 10.2203 9.83011 10.2266C9.7957 10.2653 9.76547 10.3129 9.73088 10.3733C9.69628 10.4379 9.66187 10.5113 9.62727 10.602C9.61872 10.6279 9.57119 10.6193 9.57119 10.5891V9.74313H9.56701C9.55845 9.77336 9.54971 9.7994 9.54115 9.82944C9.51948 9.91156 9.49363 9.98912 9.45048 10.0625C9.39876 10.1444 9.32102 10.1834 9.24327 10.2264C9.19575 10.2524 9.14841 10.2739 9.10963 10.3083C8.92772 10.4715 8.79223 10.6799 8.71688 10.9124C8.64351 11.1326 8.61328 11.3742 8.61328 11.6331Z" fill="#936B3B"/>
<path fill-rule="evenodd" clip-rule="evenodd" d="M10.2868 7.86192C10.2652 7.85755 10.2481 7.86611 10.2308 7.8834C10.2091 7.9007 10.1962 7.93093 10.192 7.96115C10.1878 7.99556 10.192 8.02579 10.2049 8.04746C10.2178 8.06912 10.2351 8.08642 10.2524 8.08642C10.2739 8.09061 10.2912 8.08205 10.3085 8.06475C10.3302 8.04746 10.3431 8.01723 10.3473 7.98701C10.3517 7.95259 10.3473 7.92237 10.3344 7.9007C10.3304 7.89069 10.324 7.88187 10.3157 7.87507C10.3074 7.86828 10.2974 7.86375 10.2868 7.86192ZM9.77338 6.73577C9.73896 6.70135 9.70874 6.67532 9.6827 6.64946C9.57491 6.5546 9.52302 6.50708 9.47987 6.27839L9.48405 6.26546C9.51865 6.15749 9.55306 6.07992 9.60495 6.04114C9.73004 5.94628 9.86806 6.05844 9.85513 6.19663C9.85513 6.22686 9.8422 6.25271 9.8249 6.2915C9.8422 6.33465 9.86369 6.3778 9.89391 6.39929C9.91558 6.41658 9.9458 6.40803 9.98877 6.35176C10.0104 6.31735 10.0276 6.27857 10.0319 6.23524C10.0396 6.16296 10.0277 6.08996 9.99751 6.02384C9.96729 5.95921 9.92414 5.89439 9.86806 5.8556C9.82927 5.82975 9.79031 5.80808 9.74734 5.80371C9.60914 5.82101 9.51865 5.85997 9.4582 5.92461C9.39775 5.98506 9.36334 6.07555 9.34167 6.19208C9.32 6.30424 9.34586 6.4164 9.39775 6.52C9.45709 6.62737 9.53276 6.72486 9.62207 6.80896L9.63063 6.82189V10.4378C9.64355 10.4034 9.66085 10.3731 9.67378 10.3473C9.70819 10.2868 9.74279 10.2351 9.77301 10.1962V6.73577H9.77338Z" fill="white"/>
<path fill-rule="evenodd" clip-rule="evenodd" d="M4.91922 11.4735C4.89336 11.3138 4.86314 11.1542 4.84165 10.9903C4.81999 10.7743 4.81125 10.5544 4.80269 10.3343C4.79413 10.166 4.78976 9.99759 4.77246 9.82935C4.77152 9.82152 4.76858 9.81405 4.76391 9.80769C4.70783 9.75161 4.65593 9.69553 4.59985 9.63508C4.46603 9.48395 4.32801 9.33301 4.15977 9.23815V6.84346C4.24608 6.75716 4.32819 6.65355 4.38409 6.54558C4.44035 6.42905 4.4704 6.30833 4.44454 6.17888C4.42287 6.05361 4.38409 5.95456 4.31508 5.88118C4.25045 5.81654 4.16396 5.77321 4.04324 5.75172C4.0235 5.74652 4.00321 5.74365 3.98279 5.74316H3.97005C3.91712 5.7514 3.86689 5.77205 3.82347 5.80343C3.81473 5.81217 3.80181 5.82073 3.79307 5.83366C3.74136 5.87681 3.70239 5.93726 3.67235 6.0019C3.64194 6.07964 3.62483 6.16158 3.63357 6.23933C3.64213 6.29541 3.65942 6.34293 3.68965 6.38608C3.72843 6.43779 3.76302 6.45946 3.79325 6.46802C3.82366 6.47239 3.84933 6.46802 3.871 6.4509C3.91415 6.41631 3.94437 6.35604 3.96586 6.29978V6.27374C3.94437 6.23496 3.93563 6.21347 3.93145 6.1918C3.93145 6.17014 3.93582 6.14428 3.94874 6.10969C3.95748 6.1055 3.96167 6.10113 3.97041 6.09676C3.97041 6.09676 3.97478 6.09676 3.97478 6.09257H3.97897C3.99888 6.08187 4.02101 6.07595 4.04361 6.07527C4.0609 6.07527 4.07383 6.07964 4.08676 6.09257C4.12554 6.11861 4.15577 6.18325 4.18599 6.27374C4.15158 6.44635 4.11261 6.50243 4.04361 6.56725C4.03068 6.58018 4.01775 6.5931 4.00482 6.60184C3.99627 6.6104 3.98753 6.61914 3.97879 6.62351C3.97879 6.6277 3.9746 6.6277 3.9746 6.63207C3.9746 6.63207 3.97023 6.63207 3.97023 6.63644C3.94608 6.65673 3.92305 6.6783 3.90122 6.70108C3.8966 6.7074 3.89366 6.71479 3.89266 6.72256V8.37091H3.79343V8.35361C3.77622 8.22854 3.74133 8.10655 3.68983 7.99128C3.61576 7.82417 3.51366 7.67096 3.38794 7.53827L3.37065 7.47363C3.37065 7.42611 3.37065 7.38296 3.36628 7.33543C3.36209 7.24057 3.36209 7.1499 3.35335 7.05922C3.33605 6.91247 3.3102 6.77008 3.24119 6.6277L3.17164 6.48113C3.16308 6.45946 3.12848 6.45946 3.11993 6.48113L3.09407 6.51991C3.07677 6.55013 3.05948 6.58036 3.03799 6.6104L2.99921 6.67504C2.99094 6.65269 2.98083 6.63107 2.96898 6.6104C2.95169 6.57162 2.93457 6.53284 2.9129 6.49387C2.90435 6.47657 2.88268 6.47239 2.86975 6.48094C2.69277 6.60603 2.61084 6.82179 2.58917 7.05904C2.55894 7.36111 2.62358 7.70196 2.71444 7.91772C2.7057 8.01258 2.66255 8.04718 2.61084 8.09033C2.57205 8.12055 2.52872 8.15497 2.48994 8.2156C2.44678 8.28461 2.42949 8.36654 2.41656 8.44429L2.40363 8.496V8.50456C2.41219 8.5823 2.43823 8.64257 2.47701 8.69883C2.51142 8.7418 2.55039 8.78077 2.59791 8.81536L2.5289 8.97068C2.49423 9.078 2.45683 9.18443 2.41674 9.28986C2.32625 9.54877 2.23557 9.80332 2.18805 10.0795C2.10175 10.5842 2.07152 11.0979 2.05859 11.6114C2.05859 11.6114 2.06296 11.6286 2.06733 11.6286L2.11467 11.6891L2.11904 11.6933C2.20535 11.7579 2.23994 11.7579 2.19679 11.7408L2.14053 12.2197H4.74661C4.74661 12.2155 4.74661 12.2111 4.74242 12.2111L4.62589 11.9263L4.96255 11.9566C4.97985 11.9566 4.99715 11.9393 4.99278 11.9222C4.97456 11.7716 4.95002 11.622 4.91922 11.4735Z" fill="black"/>
<path fill-rule="evenodd" clip-rule="evenodd" d="M3.95267 8.40123V6.73577C3.95704 6.7314 3.96123 6.72703 3.96997 6.72284V6.71865L3.97433 6.71446L3.97852 6.71009C4.00456 6.68843 4.02605 6.66694 4.04316 6.65401C4.04316 6.64964 4.04316 6.64964 4.04753 6.64964C4.15532 6.55478 4.20703 6.50726 4.246 6.27857V6.26564C4.21158 6.15767 4.1728 6.0801 4.12528 6.04132C4.10123 6.02444 4.07255 6.01541 4.04316 6.01547C4.02168 6.01547 4.00438 6.01547 3.97852 6.02402L3.97433 6.02821H3.96997C3.94756 6.03806 3.92595 6.04963 3.90533 6.06281C3.90096 6.06699 3.8924 6.07573 3.8924 6.0801C3.8751 6.132 3.86636 6.16204 3.87073 6.19663C3.87492 6.22686 3.88366 6.25271 3.90515 6.2915C3.88366 6.33465 3.86199 6.3778 3.83614 6.39929C3.82339 6.40803 3.81028 6.40803 3.79299 6.39929C3.77569 6.3951 3.75857 6.3778 3.74128 6.35176C3.71627 6.31772 3.70132 6.27735 3.69812 6.23524C3.68957 6.16623 3.70249 6.09285 3.72835 6.02384C3.74565 5.98925 3.76713 5.95484 3.79299 5.92024C3.81465 5.89439 3.83614 5.8729 3.86199 5.8556C3.89222 5.82975 3.931 5.81245 3.96978 5.80808V5.80371H3.98253C4.0042 5.80808 4.02149 5.80808 4.04298 5.81245C4.14658 5.83394 4.21996 5.8729 4.27167 5.92461C4.33212 5.98506 4.36234 6.07555 4.38383 6.19208C4.4055 6.30424 4.37964 6.4164 4.32775 6.52C4.27586 6.62361 4.19392 6.72266 4.10762 6.80896C4.10229 6.81656 4.09932 6.82555 4.09906 6.83482V9.20365C4.07739 9.19509 4.06028 9.19072 4.04298 9.18216H4.03879V9.17798H4.02586V9.17361H4.01731C4.01294 9.16942 4.00438 9.16942 3.99582 9.16505C3.99145 9.16505 3.98708 9.16068 3.98271 9.16068H3.96141V9.16505H3.95285L3.95267 8.40123ZM3.35272 7.87922C3.36509 7.88312 3.37677 7.88896 3.38732 7.89651C3.4088 7.90944 3.4261 7.9353 3.43466 7.96552C3.44321 7.99575 3.43903 8.02597 3.43029 8.05183C3.41736 8.07349 3.40006 8.09061 3.37858 8.09498C3.37002 8.09935 3.36128 8.09935 3.35254 8.09935C3.33961 8.09498 3.32668 8.09079 3.31376 8.08205C3.30189 8.07346 3.29193 8.06251 3.2845 8.04988C3.27708 8.03725 3.27234 8.02322 3.2706 8.00867C3.26205 7.97845 3.26205 7.94822 3.27497 7.92674C3.27926 7.91601 3.28568 7.90626 3.29385 7.89809C3.30202 7.88992 3.31177 7.8835 3.3225 7.87922H3.35272Z" fill="white"/>
<path fill-rule="evenodd" clip-rule="evenodd" d="M3.0897 6.64517C3.09407 6.6408 3.09407 6.6408 3.09407 6.63661C3.11118 6.61057 3.12429 6.58909 3.14141 6.56323L3.18456 6.65391C3.28798 6.87386 3.29672 7.10273 3.30546 7.33998L3.31402 7.4911C3.22771 7.45669 3.15434 7.48236 3.09407 7.52988C3.04218 7.57304 2.99484 7.63349 2.96024 7.68538C2.95605 7.68957 2.95605 7.68957 2.95605 7.69394C2.95168 7.69394 2.95168 7.69812 2.95168 7.69812L2.94731 7.70249L2.93876 7.71105C2.80493 7.21908 2.8956 6.96872 3.0897 6.64517ZM3.3528 11.7887C3.2665 11.7801 2.22665 11.6938 2.15764 11.6463L2.12305 11.5988C2.13597 11.0982 2.1662 10.5892 2.24832 10.0928C2.29584 9.82097 2.38633 9.56642 2.47701 9.3117C2.51142 9.20828 2.55038 9.10467 2.58498 8.99251L2.64962 8.84576H2.65799C2.65799 8.84576 2.66236 8.84576 2.66236 8.84139H2.66673C2.75304 8.7895 2.79182 8.75509 2.81767 8.7336C2.83497 8.72067 2.84371 8.71193 2.85646 8.70756C2.90398 8.69464 3.00758 8.71193 3.09389 8.72923C3.13704 8.73779 3.17145 8.74653 3.19749 8.7509C3.2492 8.76819 3.30091 8.78112 3.3528 8.78968C3.48226 8.81572 3.61609 8.80261 3.71969 8.70338C3.75847 8.66896 3.78014 8.62563 3.79306 8.58266C3.80599 8.53514 3.80599 8.48324 3.80162 8.43153H3.8923V9.18661C3.8577 9.20373 3.82329 9.21684 3.79306 9.23413C3.63103 9.31759 3.48264 9.42522 3.35298 9.55331C3.25673 9.64185 3.17002 9.74023 3.09425 9.84682C2.80948 10.2308 2.61539 10.7097 2.46426 11.1973C2.46426 11.206 2.46426 11.2102 2.46007 11.219C2.46007 11.2233 2.45588 11.2319 2.45588 11.2363V11.2404C2.45152 11.2446 2.45152 11.2534 2.45152 11.2577C2.44715 11.2663 2.44715 11.2707 2.44715 11.2794C2.44296 11.2923 2.45589 11.3138 2.46881 11.3138C2.49922 11.3182 2.52926 11.3224 2.56368 11.3268C2.73629 11.3526 2.89597 11.3785 3.07714 11.3872C3.08364 11.3862 3.08968 11.3832 3.09443 11.3786C3.09862 11.3786 3.10299 11.3743 3.10299 11.3743C3.19366 11.2536 3.2756 11.1241 3.35316 10.9905V11.176C3.35753 11.3832 3.36609 11.5858 3.37483 11.7887H3.3528Z" fill="#936B3B"/>
<path fill-rule="evenodd" clip-rule="evenodd" d="M4.58249 11.8577C4.56082 11.8577 4.54352 11.8794 4.55208 11.9009L4.66861 12.19H4.47871L4.59524 11.0507C4.59524 11.0378 4.59961 11.0205 4.56938 11.0205C4.53916 11.0161 4.53497 11.0291 4.53497 11.0464L4.41844 12.1854V12.1898H4.25894L4.37547 11.2663C4.37547 11.2534 4.37966 11.2361 4.34943 11.2361C4.31921 11.2317 4.31502 11.2446 4.31502 11.2619L4.19849 12.1896H3.4476C3.4476 12.0687 3.44341 11.948 3.43904 11.8271V11.8227C3.4303 11.607 3.41737 11.3956 3.413 11.1798V11.0116L3.51661 10.7095C3.52098 10.7053 3.52098 10.701 3.52516 10.6966V10.6924V10.6882H3.52935V10.684V10.6797H3.53372V10.6713H3.53809V10.6669V10.6625V10.6584H3.54228L3.79264 10.2614L3.85309 10.1622C3.85727 10.1578 3.85727 10.1536 3.85727 10.1491C3.8702 10.0715 3.83561 10.093 3.79264 10.1362C3.74919 10.1854 3.70888 10.2372 3.67192 10.2915C3.67192 10.2915 3.67192 10.2958 3.66755 10.2958C3.66755 10.3 3.66755 10.3 3.66318 10.3044C3.66318 10.3044 3.66318 10.3086 3.65881 10.3086C3.65881 10.313 3.65881 10.313 3.65462 10.3173C3.65462 10.3173 3.65462 10.3215 3.65043 10.3215C3.65043 10.3257 3.65043 10.3301 3.64606 10.3301C3.64606 10.3344 3.64606 10.3344 3.64169 10.3386L3.63751 10.343C3.63751 10.3474 3.63332 10.3516 3.63332 10.3516C3.63332 10.3559 3.62895 10.3559 3.62895 10.3601C3.62895 10.3601 3.62476 10.3645 3.62476 10.3687C3.62039 10.3687 3.62039 10.373 3.62039 10.373C3.61602 10.3772 3.61602 10.3816 3.61602 10.3816C3.61183 10.3858 3.61183 10.3858 3.61183 10.3902L3.60328 10.3987C3.60328 10.4029 3.60328 10.4029 3.59891 10.4073C3.55575 10.4848 3.52134 10.5755 3.47382 10.6533L3.46945 10.6574C3.46089 10.6835 3.44778 10.7006 3.43504 10.7264V10.7308H3.43067C3.40481 10.7783 3.37896 10.8215 3.35292 10.8646C3.27098 11.007 3.18905 11.1494 3.09419 11.2832C3.0855 11.2972 3.07537 11.3102 3.06396 11.322C2.88454 11.3126 2.70584 11.2924 2.52883 11.2616H2.51609V11.2572H2.51172C2.64992 10.7956 2.82253 10.3683 3.09437 9.96282C3.09856 9.95845 3.10293 9.94989 3.1073 9.94552C3.18067 9.83755 3.26279 9.73413 3.35328 9.64345C3.48711 9.50107 3.63386 9.38017 3.79336 9.29823C3.83652 9.27656 3.88404 9.25508 3.93138 9.23778L3.96579 9.22485H3.98728C4.00894 9.23359 4.02606 9.24215 4.04336 9.24652C4.24619 9.33283 4.4015 9.50544 4.55682 9.67805C4.60871 9.73431 4.66024 9.79021 4.71231 9.8421C4.72524 10.0103 4.7338 10.1744 4.73817 10.3383C4.74672 10.5542 4.75546 10.7742 4.78132 10.9985C4.8028 11.1623 4.83303 11.322 4.85888 11.4861C4.88492 11.6199 4.91078 11.7537 4.92789 11.8917L4.58249 11.8577Z" fill="#936B3B"/>
<path fill-rule="evenodd" clip-rule="evenodd" d="M3.62024 11.6936C3.6288 11.6721 3.63317 11.6505 3.64173 11.629C3.65931 11.5891 3.67097 11.5469 3.67632 11.5037C3.68069 11.4605 3.67632 11.4261 3.67213 11.3915C3.66776 11.3355 3.65902 11.2838 3.68506 11.1974L3.68925 11.1889L4.06469 10.7444C4.07325 10.723 4.05614 10.6842 4.03884 10.6454C4.02154 10.6066 4.00861 10.5676 4.00861 10.5289C4.00443 10.4684 4.02591 10.3865 4.04303 10.326C4.05158 10.296 4.06032 10.2699 4.06032 10.257C4.06451 10.2441 4.06451 10.2268 4.09474 10.2312C4.12514 10.2353 4.12514 10.2485 4.12077 10.2656C4.12077 10.2829 4.11222 10.3131 4.10348 10.3433C4.08618 10.3994 4.06906 10.4728 4.06906 10.5289C4.06906 10.5549 4.08199 10.5849 4.09492 10.6195C4.12096 10.6756 4.14681 10.7317 4.11659 10.779V10.7834L3.74114 11.2235C3.72384 11.2925 3.72821 11.3356 3.73258 11.3832C3.73677 11.4219 3.74114 11.4607 3.73677 11.5084C3.73194 11.5573 3.72036 11.6052 3.70236 11.6508C3.6938 11.6725 3.68506 11.694 3.68087 11.7113C3.6765 11.7286 3.67232 11.7415 3.64191 11.7329C3.61168 11.7238 3.61587 11.7109 3.62024 11.6936Z" fill="black"/>
</svg>
