<svg width="27" height="31" viewBox="0 0 27 31" fill="none" xmlns="http://www.w3.org/2000/svg">
<path d="M12.6869 0.793333H13.2879V0H13.8288V0.793333H14.4298V1.33421H13.8288V1.72752C14.0212 1.79475 14.181 1.93162 14.2777 2.10799C14.3938 2.00905 14.5443 1.94921 14.7087 1.94921C15.0759 1.94921 15.3737 2.24699 15.3737 2.61419C15.3737 2.62943 15.3732 2.6445 15.3721 2.65946C15.4745 2.59525 15.5954 2.55816 15.725 2.55816C15.9356 2.55816 16.1233 2.6561 16.2452 2.80894C16.2927 2.48824 16.5691 2.24212 16.903 2.24212C17.2702 2.24212 17.5679 2.5399 17.5679 2.90709C17.5679 2.98407 17.5549 3.05792 17.5308 3.12666C17.6523 2.99511 17.8261 2.91275 18.0193 2.91275C18.369 2.91275 18.6558 3.18286 18.6822 3.52579C18.7356 3.51195 18.7916 3.50467 18.8493 3.50467C19.2165 3.50467 19.5143 3.80245 19.5143 4.16965C19.5143 4.23733 19.5041 4.30254 19.4853 4.36406C19.757 4.44771 19.9546 4.70072 19.9546 4.99979C19.9546 5.10462 19.9303 5.20378 19.887 5.29197C20.0588 5.4122 20.1711 5.6116 20.1711 5.83705C20.1711 5.99101 20.1187 6.13275 20.0308 6.24548C20.1657 6.36717 20.2505 6.54337 20.2505 6.7393C20.2505 6.99691 20.104 7.22028 19.8897 7.33071C19.9214 7.40657 19.9298 7.50181 19.9145 7.60995C19.8855 7.81623 19.7545 8.00359 19.4974 8.06578C19.2111 8.13536 18.9159 8.17475 18.6209 8.17077C18.6527 8.56413 18.3516 8.99223 17.9613 9.00024L18.3191 9.60924L17.6934 9.75049C17.9071 9.92742 17.948 10.2716 17.8547 10.5226C17.8088 10.6461 17.7304 10.7473 17.6344 10.8306C20.3655 12.2893 22.2246 15.1675 22.2246 18.4794C22.2246 19.0194 22.175 19.5478 22.0804 20.0605C22.1431 20.0996 22.2051 20.139 22.2657 20.1788C22.9737 20.6436 23.6091 21.209 24.1779 21.8352V21.8357C24.4046 22.0868 24.6384 22.3418 24.8842 22.6038C25.1241 22.8595 25.3675 23.1128 25.6158 23.3627C26.0488 23.7985 26.487 24.2254 26.9447 24.6357C25.4775 25.018 24.1937 25.6465 22.9517 26.395L26.3322 29.8234L25.0739 30.6504L21.6801 27.2041C21.4516 27.3557 21.2229 27.5099 20.993 27.666C20.166 28.2274 19.3339 28.7923 18.4494 29.3022C17.035 30.1176 15.6481 30.6809 14.3543 30.8999C13.2182 31.0921 12.0602 31.0274 11.0048 30.5315C10.0175 29.4626 9.01484 28.4508 7.75907 27.6916C6.75048 27.5005 5.87972 26.4767 5.38585 25.6638L5.38125 25.6551C5.21497 25.3231 4.99304 24.9807 4.71689 24.6292C4.06362 23.7976 3.28402 23.0303 2.39286 22.4561C1.81232 22.0819 1.50922 21.7956 1.27497 21.1327C1.10465 20.6506 0.882057 20.1891 0.706414 19.708C0.577834 19.3559 0.465053 19.0102 0.384319 18.7078C0.113207 17.6921 0.23837 16.6551 0.453007 15.638C0.538447 15.2332 0.625456 14.8209 0.671286 14.378C0.718796 13.9188 0.686189 13.4521 0.547075 13.0105C-0.175944 10.6682 0.39995 8.01115 0.977134 5.65619C0.119482 5.81934 -0.315898 4.71254 0.264983 4.09121L0.707143 3.61824C1.52227 2.74658 2.73143 3.75556 2.14125 4.67131L8.46802 11.466C8.79006 11.2318 9.12869 11.0191 9.48204 10.8304C9.38607 10.7472 9.30763 10.646 9.26175 10.5225C9.16841 10.2715 9.20942 9.92731 9.42305 9.75038L8.79735 9.60913L9.15513 9.00013C8.76485 8.99212 8.46382 8.56402 8.49559 8.17066C8.20061 8.17469 7.90535 8.13525 7.619 8.06566C7.36189 8.00353 7.23091 7.81612 7.20183 7.60983C7.18659 7.5017 7.19499 7.40646 7.22665 7.3306C7.0124 7.22017 6.86584 6.99679 6.86584 6.73918C6.86584 6.54326 6.95066 6.36706 7.08557 6.24537C6.99767 6.13264 6.94523 5.9909 6.94523 5.83694C6.94523 5.61143 7.05762 5.41209 7.22934 5.29186C7.18608 5.20361 7.16177 5.1045 7.16177 4.99968C7.16177 4.70061 7.35932 4.44759 7.63099 4.36395C7.61222 4.30243 7.60202 4.23722 7.60202 4.16954C7.60202 3.80234 7.8998 3.50456 8.267 3.50456C8.32471 3.50456 8.38068 3.5119 8.43407 3.52568C8.46057 3.18274 8.74731 2.91264 9.09703 2.91264C9.29015 2.91264 9.46406 2.99506 9.58552 3.12655C9.56143 3.05781 9.54838 2.98396 9.54838 2.90698C9.54838 2.53979 9.84616 2.24201 10.2134 2.24201C10.5472 2.24201 10.8237 2.48813 10.8711 2.80882C10.993 2.65598 11.1807 2.55805 11.3913 2.55805C11.521 2.55805 11.6419 2.59514 11.7441 2.65935C11.7431 2.64439 11.7426 2.62932 11.7426 2.61408C11.7426 2.24688 12.0404 1.9491 12.4076 1.9491C12.5721 1.9491 12.7227 2.00894 12.8387 2.10793C12.9355 1.93162 13.0952 1.79469 13.2875 1.72746V1.3341H12.6865V0.793333H12.6869ZM6.013 14.2144C6.38356 13.5606 6.83682 12.9597 7.35825 12.4259L1.27979 5.90792C1.58468 7.09159 2.01009 8.18337 2.59108 9.2913C3.52056 11.0638 4.72216 12.6886 6.013 14.2144Z" fill="black"/>
<path d="M3.09857 21.0342C2.06304 19.8655 2.3569 17.9905 2.59585 16.4669C2.63109 16.2421 2.66515 16.0251 2.69367 15.8179C2.75093 15.1319 2.75945 14.4037 2.69524 13.6931C2.6386 13.0668 2.52542 12.4538 2.33936 11.8953L2.33846 11.8917C2.28692 11.5267 2.26731 11.137 2.27258 10.7462C2.2784 10.3164 2.31432 9.88554 2.3709 9.48439L2.37662 9.44422L2.35975 9.41223C1.87053 8.47934 1.35599 7.4424 1.08812 6.4165C0.621985 8.50797 0.177976 10.8332 0.797403 12.9328C0.94733 13.4088 0.983018 13.9098 0.93181 14.4047C0.884468 14.8619 0.796114 15.2804 0.709386 15.6913C0.548142 16.4554 0.436537 17.106 0.545285 17.7642C0.694819 18.6696 1.27351 19.4851 1.92331 20.1078C2.28916 20.4655 2.68185 20.7765 3.09857 21.0342Z" fill="#143C8B"/>
<path d="M17.7224 8.95281C17.7168 8.95045 17.7112 8.94799 17.7056 8.94541C17.0763 8.66052 16.4104 8.44577 15.7187 8.30212C14.3164 8.01095 12.8 8.01095 11.3977 8.30212C10.706 8.44571 10.0402 8.66052 9.41085 8.94541C9.40519 8.94793 9.39965 8.95045 9.39404 8.95281L10.0552 9.03455L10.1052 9.04077L10.0736 9.07987L9.61753 9.64384C10.2144 9.37709 10.842 9.16912 11.4928 9.02755C12.8482 8.73257 14.2686 8.73352 15.6238 9.02844C16.2658 9.16817 16.8947 9.3739 17.4991 9.64389L17.043 9.07987L17.0113 9.04077L17.0614 9.03455L17.7224 8.95281Z" fill="#FFE24A"/>
<path d="M4.61596 21.7005C4.40973 21.3574 4.24355 20.9725 4.10718 20.577C3.96208 20.156 3.85047 19.7221 3.76027 19.3133C3.56378 18.4537 3.63869 17.5872 3.71405 16.7151C3.75892 16.1961 3.80391 15.6751 3.79198 15.1541C3.76895 14.9323 3.74043 14.7081 3.71158 14.482C3.59264 13.5474 3.46949 12.5791 3.71886 11.69C3.24555 10.9826 2.80558 10.2539 2.40869 9.50562C2.3581 9.88547 2.31877 10.3466 2.31333 10.7467C2.30807 11.1347 2.32756 11.5217 2.37871 11.8845C2.56545 12.4457 2.67902 13.061 2.73588 13.6895C2.80037 14.4032 2.79191 15.1337 2.73454 15.8214L2.73437 15.8224C2.70602 16.0284 2.67173 16.247 2.63627 16.4733C2.39138 18.0348 2.0885 19.9677 3.22847 21.1125C3.57841 21.3173 3.94471 21.4849 4.32563 21.6117C4.42155 21.6439 4.5183 21.6736 4.61596 21.7005Z" fill="white"/>
<path d="M5.5825 21.8746C5.13787 20.8319 4.89175 19.6843 4.89175 18.4794C4.89175 17.0476 5.2395 15.6968 5.85473 14.5068C5.10767 13.6255 4.39732 12.7001 3.74881 11.7349C3.51417 12.6069 3.63525 13.5582 3.75217 14.4768C3.78114 14.7043 3.80982 14.9298 3.83274 15.1503L3.83279 15.152C3.84495 15.6768 3.79985 16.1988 3.75492 16.7186C3.67984 17.5877 3.60522 18.451 3.80019 19.304V19.3042C3.89 19.7112 4.00115 20.1434 4.14604 20.5636C4.28655 20.9712 4.45855 21.3669 4.67325 21.7161C4.96862 21.7942 5.27189 21.8476 5.5825 21.8746Z" fill="#143C8B"/>
<path d="M12.2066 29.4365C12.1229 29.8151 12.0014 30.1923 11.8433 30.5652C12.6047 30.7747 13.4348 30.79 14.3115 30.6416C15.5739 30.428 16.9317 29.8758 18.3195 29.0758C19.1955 28.5707 20.0237 28.0085 20.8467 27.4498C22.5835 26.2707 24.2851 25.1114 26.4001 24.5111C26.1563 24.2858 25.9214 24.0464 25.6877 23.8081C22.9771 23.864 20.8344 25.3705 18.7051 26.8677C18.4881 27.0203 18.2712 27.1728 18.0513 27.3255L18.0503 27.3262C17.1555 27.8653 16.2396 28.3926 15.2735 28.7853C14.3104 29.1768 13.2977 29.4344 12.2066 29.4365Z" fill="#143C8B"/>
<path d="M12.3446 28.1689C12.3466 28.577 12.3032 28.9868 12.2158 29.3952C13.2976 29.3917 14.3024 29.1357 15.2582 28.7472C16.2216 28.3555 17.1358 27.8292 18.0291 27.291C18.2451 27.141 18.4633 26.9875 18.6817 26.834C20.8059 25.3403 22.9435 23.8376 25.6486 23.768C25.576 23.694 25.5035 23.6201 25.4308 23.547C25.1981 23.3128 24.9718 23.078 24.7502 22.8428C23.9816 22.8999 23.2702 23.0723 22.5885 23.3186C21.8946 23.5694 21.2315 23.8969 20.5702 24.2573C19.2774 25.0758 17.9642 25.897 16.5973 26.593C15.2436 27.2822 13.8369 27.8488 12.3446 28.1689Z" fill="white"/>
<path d="M12.0054 26.3097C12.1923 26.8133 12.3009 27.3296 12.3339 27.8509C12.3397 27.9428 12.3431 28.0349 12.3442 28.1271C13.8293 27.8076 15.2301 27.243 16.5786 26.5564C17.9447 25.8608 19.2568 25.0403 20.5486 24.2224L20.5497 24.2217C21.2129 23.8603 21.8781 23.5318 22.5745 23.28C23.2496 23.036 23.9541 22.8642 24.714 22.8043L24.694 22.783C24.4605 22.5342 24.2236 22.2754 23.9848 22.011L23.9845 22.0113C23.8645 21.8791 23.7413 21.7496 23.6149 21.6233C20.6219 21.7335 18.1126 23.2676 15.6694 24.7614L15.614 24.7953L15.6127 24.796L15.5675 24.8193C14.416 25.4115 13.2731 25.9991 12.0054 26.3097Z" fill="#143C8B"/>
<path d="M11.5796 25.4119C11.7434 25.6931 11.8803 25.9799 11.9908 26.271C13.2557 25.962 14.3979 25.3746 15.5487 24.7828L15.5933 24.7599L15.6481 24.7264C18.0854 23.2362 20.5883 21.7061 23.5753 21.5841C23.3477 21.3587 23.11 21.1436 22.8619 20.9413C22.0775 20.8046 21.2933 20.8302 20.5391 20.9687C19.6676 21.1286 18.8358 21.4392 18.0896 21.8239L18.0886 21.8244C17.1378 22.2476 16.2483 22.835 15.3578 23.423C14.153 24.2187 12.9461 25.0157 11.5796 25.4119Z" fill="white"/>
<path d="M10.1724 23.7797C10.6562 24.1609 11.0894 24.6344 11.4513 25.202C11.4879 25.2595 11.5234 25.3172 11.5577 25.3752C12.9224 24.9818 14.1296 24.1846 15.3348 23.3887C16.2263 22.7999 17.1168 22.2119 18.0704 21.7873L18.0705 21.7872C18.8199 21.4009 19.6555 21.0889 20.5312 20.9281C21.267 20.7931 22.0311 20.7647 22.7963 20.8885C22.5795 20.7147 22.3548 20.5507 22.1222 20.398C21.9244 20.2682 21.7273 20.1507 21.5327 20.0349C21.3219 19.9093 21.114 19.7854 20.9172 19.6539C20.8058 19.5795 20.6969 19.5042 20.59 19.4275C17.6076 19.1544 15.247 20.7338 12.953 22.2691C12.6352 22.4818 12.3187 22.6936 12.0022 22.8994L12.0011 22.9002C11.4121 23.231 10.8127 23.5581 10.1724 23.7797Z" fill="#143C8B"/>
<path d="M9.06592 23.1037C9.14906 23.1418 9.23142 23.1821 9.31283 23.2245C9.59856 23.3732 9.8732 23.5482 10.1336 23.7496C10.7812 23.5289 11.3862 23.1984 11.9808 22.8644C12.297 22.6588 12.6129 22.4473 12.9301 22.2351C15.2125 20.7076 17.5606 19.1364 20.525 19.3807C20.3672 19.2658 20.2134 19.1476 20.0615 19.0247C19.9155 18.9065 19.7699 18.783 19.6231 18.6528C18.9923 18.6373 18.3404 18.6838 17.7025 18.779C17.0031 18.8835 16.3208 19.0468 15.7018 19.2514L15.7006 19.2518C14.531 19.5578 13.5221 20.2671 12.5118 20.9773C11.963 21.3631 11.4138 21.7492 10.8379 22.0716C10.2665 22.448 9.63296 22.7207 9.06592 23.1037Z" fill="white"/>
<path d="M1.74181 20.2962C1.36694 19.937 1.02938 19.5199 0.766113 19.076C0.822252 19.2519 0.885169 19.4348 0.952401 19.6189C1.12832 20.1007 1.35136 20.5628 1.52196 21.0456C1.73632 21.6524 2.00177 21.8926 2.53436 22.2358C3.00717 22.5405 3.43067 22.8899 3.83776 23.2791C4.2523 23.0729 4.67328 22.9157 5.10586 22.7965C5.54538 22.6752 5.99006 22.6032 6.43239 22.5881C7.32736 22.5577 8.21325 22.7211 9.02238 23.0838C9.59486 22.6926 10.2381 22.418 10.8169 22.0365L10.8181 22.0356C11.3925 21.7141 11.9407 21.3287 12.4884 20.9436C13.5013 20.2316 14.5129 19.5205 15.6892 19.2123C16.3102 19.007 16.9949 18.8432 17.6968 18.7383C18.3202 18.6452 18.9575 18.5986 19.576 18.6107C19.4623 18.509 19.3478 18.4031 19.2314 18.2928C19.032 18.1036 18.8385 17.9082 18.6525 17.7054C18.4786 17.5159 18.3112 17.3203 18.1515 17.1176C16.8242 17.104 15.5256 17.4562 14.3378 18.0353C13.3925 18.4961 12.5074 19.0721 11.6873 19.7293C10.8191 20.4247 10.0077 21.0497 8.97263 21.5012C8.36396 21.7667 7.7196 21.965 7.03115 22.0767C6.04133 22.2373 5.10843 22.1513 4.24277 21.8595C3.30596 21.5627 2.46186 21.0288 1.74181 20.2962Z" fill="#143C8B"/>
<path d="M11.163 30.3169C11.3029 30.3816 11.4457 30.4385 11.5912 30.488C11.9616 29.624 12.1273 28.7378 12.0722 27.8673C12.0171 26.9985 11.7421 26.1441 11.2309 25.3424C10.6922 24.4975 9.9873 23.871 9.192 23.4569C8.34662 23.0168 7.39911 22.8167 6.44033 22.8494C6.01979 22.8637 5.59567 22.9326 5.17525 23.0486C4.78962 23.1549 4.41279 23.292 4.03809 23.4727C4.37917 23.8079 4.67029 24.1461 4.92274 24.4674C5.20646 24.8286 5.43656 25.1838 5.61153 25.532C6.07913 26.2728 6.90832 27.2343 7.85163 27.4409C9.12836 28.2005 10.1902 29.2229 11.163 30.3169Z" fill="white"/>
<path d="M22.6068 26.5925L25.7177 29.7586L25.1282 30.1461L22.0181 26.9879L22.6068 26.5925Z" fill="#FFE24A"/>
<path d="M1.61844 4.68579L8.15425 11.7049C7.97659 11.8469 7.80476 11.9958 7.63886 12.151L1.13286 5.17479C0.941868 5.30247 0.711768 5.32965 0.531811 5.14969C0.302439 4.92032 0.330957 4.5957 0.552485 4.35871L0.994645 3.88574C1.21617 3.64875 1.5502 3.58555 1.77963 3.81492C2.009 4.04429 1.93174 4.35064 1.71016 4.58764L1.61844 4.68579Z" fill="#FFE24A"/>
<path d="M17.2356 10.6307C17.3422 10.5744 17.4462 10.4962 17.4873 10.3858C17.5192 10.2998 17.53 10.0889 17.4243 10.0403C16.8214 9.76368 16.1893 9.55375 15.5408 9.41262C14.2377 9.12901 12.879 9.12811 11.5757 9.41172C10.9179 9.55492 10.2872 9.76715 9.69197 10.0403C9.5863 10.0889 9.59706 10.2998 9.629 10.3858C9.67001 10.4962 9.77405 10.5744 9.88061 10.6307C10.9971 10.1066 12.2433 9.81309 13.5581 9.81309C14.8729 9.81309 16.1192 10.1065 17.2356 10.6307Z" fill="#FFE24A"/>
<path d="M12.2496 8.43308C12.3061 8.53645 12.2523 8.65203 12.1663 8.71713C12.1101 8.75971 12.0433 8.78022 11.9732 8.79574L11.1365 8.98063C11.0508 8.99956 10.9606 9.00769 10.8729 8.96763C10.7305 8.90252 10.6961 8.75053 10.7979 8.63124C10.8587 8.55998 10.9423 8.52608 11.0306 8.50916L11.8774 8.32176C12.0062 8.29335 12.1778 8.30131 12.2496 8.43308Z" fill="black"/>
<path d="M11.8801 8.34991L11.0354 8.53597C10.9554 8.55356 10.8773 8.58045 10.819 8.64875C10.7292 8.75408 10.759 8.88518 10.8846 8.94266C10.9636 8.9788 11.0512 8.97359 11.1309 8.95594L11.9689 8.77038C12.0307 8.75739 12.092 8.73744 12.1432 8.70063C12.2208 8.645 12.2765 8.54409 12.2283 8.44997C12.1636 8.3238 11.9981 8.32391 11.8801 8.34991Z" fill="#EC1D24"/>
<path d="M7.60971 23.3375C7.61688 23.3305 7.62372 23.3241 7.63089 23.3174C7.81869 23.4966 8.01002 23.6769 8.20398 23.8612C8.4022 24.0489 8.60373 24.2402 8.80907 24.4346C8.79932 24.4462 8.78974 24.458 8.77993 24.4696C8.45806 24.1954 8.16818 24.0053 7.94016 23.9036C7.71213 23.8027 7.54136 23.7869 7.46091 23.8664C7.33558 23.9883 7.48315 24.2899 7.72798 24.5391C7.81034 24.6232 7.88245 24.6844 7.96072 24.7408C8.06246 24.8078 8.17418 24.8609 8.298 24.9026C8.39352 24.9395 8.55975 24.9656 8.808 25.0043C8.98622 25.0317 9.14999 25.0692 9.29728 25.114C9.44474 25.1594 9.57865 25.2152 9.69714 25.2803C9.93172 25.4196 10.1928 25.6152 10.4753 25.8863C10.8334 26.2291 11.1376 26.612 11.3359 26.9617C11.5421 27.3246 11.6364 27.6527 11.5553 27.8562C11.5026 27.9887 11.4156 28.0509 11.1644 28.0445C11.0944 28.0573 11.0558 28.0737 11.043 28.1033C11.0171 28.1621 11.0777 28.3257 11.2671 28.5801C11.2585 28.6014 11.2501 28.6221 11.2418 28.6434C10.9251 28.3144 10.6149 27.9909 10.3139 27.6776C10.0203 27.3714 9.73333 27.0719 9.45354 26.7819C9.46346 26.7643 9.47382 26.7481 9.48435 26.7302C9.98674 27.1823 10.4121 27.4818 10.7289 27.6308C11.0464 27.78 11.2471 27.7736 11.3097 27.6259C11.4011 27.4093 11.1244 26.941 10.7768 26.6016C10.5569 26.3868 10.3547 26.2592 10.1317 26.1714C10.0085 26.1208 9.86679 26.1011 9.6679 26.0733C9.38115 26.0335 9.16215 25.9832 8.96869 25.9107C8.77517 25.8372 8.60933 25.7437 8.42714 25.6207C8.26046 25.5006 8.06638 25.3373 7.89169 25.1551C7.59341 24.8449 7.37104 24.5226 7.2563 24.2545C7.14525 23.9943 7.13343 23.7835 7.24873 23.6757C7.28818 23.6385 7.34303 23.6172 7.40695 23.6159C7.51301 23.6041 7.75824 23.6656 7.78978 23.6343C7.82127 23.6037 7.8062 23.558 7.60971 23.3375Z" fill="#143C8B"/>
<path d="M13.5586 2.88786C13.7712 2.88786 13.9447 2.7144 13.9447 2.50167C13.9447 2.28894 13.7713 2.11548 13.5586 2.11548C13.3458 2.11548 13.1724 2.28894 13.1724 2.50167C13.1724 2.7144 13.3459 2.88786 13.5586 2.88786Z" fill="#FFE24A"/>
<path d="M8.12575 7.03718C8.19058 6.99757 8.26705 6.9755 8.3419 6.97381C8.44029 6.97157 8.5408 7.00362 8.6185 7.0755C8.63397 7.08984 8.64685 7.10329 8.65677 7.11567C8.6617 7.12184 8.66624 7.12828 8.67044 7.13478C8.6868 7.15719 8.69963 7.17848 8.70966 7.19876C8.87757 7.17383 9.03545 7.12088 9.18146 7.04402C9.33379 6.96379 9.47319 6.85795 9.59717 6.73094C9.50927 6.65872 9.44248 6.55928 9.41133 6.44112C9.3785 6.31629 9.39049 6.18995 9.43744 6.07941C9.48299 5.97206 9.56221 5.87956 9.6658 5.81765C9.67522 5.67501 9.735 5.55646 9.82301 5.46839C9.89551 5.39583 9.98633 5.34513 10.0828 5.31975C10.0872 5.31857 10.0916 5.31751 10.096 5.31644C10.0386 5.22495 10.0053 5.11665 10.0053 5.00068C10.0053 4.74066 10.1723 4.51964 10.4049 4.4389C10.3548 4.34545 10.3264 4.23855 10.3264 4.1251C10.3264 3.83034 10.5182 3.58041 10.7838 3.49323C10.7598 3.43934 10.7429 3.38163 10.7339 3.32129C10.612 3.47413 10.4243 3.57218 10.2137 3.57218C10.0206 3.57218 9.84666 3.4897 9.72514 3.35815C9.74917 3.42696 9.76234 3.50085 9.76234 3.57778C9.76234 3.94497 9.46456 4.24275 9.09736 4.24275C9.03965 4.24275 8.98363 4.23536 8.93024 4.22158C8.90889 4.49773 8.71879 4.72654 8.46298 4.80526C8.48174 4.86678 8.49194 4.9321 8.49194 4.99978C8.49194 5.22529 8.37955 5.42457 8.20778 5.54481C8.25097 5.63305 8.2754 5.73221 8.2754 5.8371C8.2754 6.03302 8.19052 6.20917 8.05566 6.33086C8.14351 6.44358 8.19601 6.58538 8.19601 6.73934C8.19612 6.84647 8.17074 6.94759 8.12575 7.03718Z" fill="#EC1D24"/>
<path d="M12.7816 5.40771C12.6152 5.31594 12.5024 5.13884 12.5024 4.93541C12.5024 4.71725 12.6321 4.52939 12.8186 4.44462C12.6321 4.3598 12.5024 4.17189 12.5024 3.95378C12.5024 3.6621 12.7342 3.42449 13.0237 3.41514C13.0343 3.3316 13.064 3.25406 13.1082 3.18694C13.041 3.14268 12.9806 3.08873 12.9291 3.0271C12.8072 3.18061 12.619 3.27911 12.4078 3.27911C12.2782 3.27911 12.1572 3.2419 12.055 3.17775C12.056 3.19271 12.0565 3.20784 12.0565 3.22308C12.0565 3.51783 11.8647 3.76782 11.599 3.855C11.6357 3.93753 11.6562 4.02885 11.6562 4.12494C11.6562 4.43795 11.4398 4.70049 11.1484 4.7712C11.1779 4.84174 11.1943 4.91922 11.1943 5.00052C11.1943 5.2588 11.0295 5.47864 10.7993 5.56072C10.8793 5.57848 10.954 5.61344 11.0181 5.66263C11.1135 5.7358 11.1862 5.8399 11.2191 5.96473C11.2548 6.10014 11.2376 6.23713 11.1804 6.35372C11.5013 6.47653 11.8515 6.52348 12.1852 6.48056C12.4337 6.44857 12.6729 6.36588 12.8829 6.22632C12.7412 6.12435 12.6488 5.95801 12.6488 5.77009C12.6488 5.63204 12.6988 5.50554 12.7816 5.40771Z" fill="#EC1D24"/>
<path d="M14.0929 3.41508C14.3823 3.42444 14.614 3.66205 14.614 3.95366C14.614 4.17183 14.4843 4.35974 14.2978 4.44451C14.4843 4.52933 14.614 4.71719 14.614 4.93536C14.614 5.13873 14.5013 5.31589 14.3349 5.40766C14.4176 5.50548 14.4675 5.63193 14.4675 5.77004C14.4675 5.95795 14.3752 6.12435 14.2335 6.22626C14.4435 6.36582 14.6826 6.44852 14.9311 6.48051C15.2649 6.52348 15.615 6.47647 15.9359 6.35366C15.8787 6.23707 15.8615 6.10003 15.8972 5.96467C15.93 5.83985 16.0028 5.73575 16.0982 5.66258C16.1623 5.61339 16.237 5.57843 16.317 5.56067C16.0868 5.47864 15.922 5.25874 15.922 5.00046C15.922 4.91916 15.9384 4.84168 15.9679 4.77114C15.6765 4.70044 15.4601 4.4379 15.4601 4.12488C15.4601 4.02879 15.4806 3.93747 15.5173 3.85494C15.2516 3.76777 15.0597 3.51772 15.0597 3.22302C15.0597 3.20778 15.0603 3.19266 15.0613 3.1777C14.959 3.24185 14.8381 3.27905 14.7085 3.27905C14.4973 3.27905 14.3092 3.18061 14.1874 3.0271C14.1359 3.08867 14.0755 3.14263 14.0083 3.18689C14.0526 3.25401 14.0824 3.33155 14.0929 3.41508Z" fill="#EC1D24"/>
<path d="M18.9911 7.03718C18.9262 6.99757 18.8498 6.9755 18.7749 6.97381C18.6765 6.97157 18.576 7.00362 18.4983 7.0755C18.4829 7.08984 18.47 7.10329 18.46 7.11567C18.4551 7.12184 18.4506 7.12828 18.4464 7.13478C18.43 7.15719 18.4172 7.17848 18.4072 7.19876C18.2392 7.17383 18.0814 7.12088 17.9354 7.04402C17.783 6.96379 17.6436 6.85795 17.5196 6.73094C17.6076 6.65872 17.6743 6.55928 17.7055 6.44112C17.7383 6.31629 17.7263 6.18995 17.6794 6.07941C17.6338 5.97206 17.5546 5.87956 17.451 5.81765C17.4416 5.67501 17.3818 5.55646 17.2938 5.46839C17.2214 5.39583 17.1305 5.34513 17.034 5.31975C17.0296 5.31857 17.0252 5.31751 17.0208 5.31644C17.0783 5.22495 17.1115 5.11665 17.1115 5.00068C17.1115 4.74066 16.9445 4.51964 16.7119 4.4389C16.7621 4.34545 16.7905 4.23855 16.7905 4.1251C16.7905 3.83034 16.5986 3.58041 16.333 3.49323C16.357 3.43934 16.374 3.38163 16.3829 3.32129C16.5048 3.47413 16.6925 3.57218 16.9031 3.57218C17.0962 3.57218 17.2702 3.4897 17.3917 3.35815C17.3676 3.42696 17.3545 3.50085 17.3545 3.57778C17.3545 3.94497 17.6523 4.24275 18.0195 4.24275C18.0772 4.24275 18.1332 4.23536 18.1866 4.22158C18.2079 4.49773 18.398 4.72654 18.6538 4.80526C18.635 4.86678 18.6248 4.9321 18.6248 4.99978C18.6248 5.22529 18.7372 5.42457 18.909 5.54481C18.8658 5.63305 18.8414 5.73221 18.8414 5.8371C18.8414 6.03302 18.9262 6.20917 19.0611 6.33086C18.9732 6.44358 18.9208 6.58538 18.9208 6.73934C18.9207 6.84647 18.9461 6.94759 18.9911 7.03718Z" fill="#EC1D24"/>
<path d="M13.5586 3.66594C13.6592 3.66594 13.7413 3.58386 13.7413 3.48324C13.7413 3.38262 13.6593 3.30054 13.5586 3.30054C13.458 3.30054 13.376 3.38262 13.376 3.48324C13.376 3.58386 13.458 3.66594 13.5586 3.66594Z" fill="#FFE24A"/>
<path d="M13.5586 4.51409C13.6592 4.51409 13.7413 4.43201 13.7413 4.33138C13.7413 4.23076 13.6593 4.14868 13.5586 4.14868C13.458 4.14868 13.376 4.23076 13.376 4.33138C13.376 4.43201 13.458 4.51409 13.5586 4.51409Z" fill="#FFE24A"/>
<path d="M13.0415 4.68237C13.1812 4.68237 13.2945 4.79566 13.2945 4.93533C13.2945 4.93797 13.2944 4.94054 13.2943 4.94318C13.1917 4.99797 13.1081 5.08369 13.056 5.18784C13.0512 5.18812 13.0464 5.18829 13.0415 5.18829C12.9018 5.18829 12.7886 5.07501 12.7886 4.93533C12.7886 4.79566 12.9019 4.68237 13.0415 4.68237Z" fill="#FFE24A"/>
<path d="M13.0415 3.70093C13.0497 3.70093 13.0578 3.70132 13.0658 3.7021C13.1018 3.78301 13.1571 3.85349 13.2259 3.9075C13.1316 3.98156 13.0627 4.08633 13.0341 4.20679C12.8978 4.20281 12.7886 4.09115 12.7886 3.95394C12.7886 3.81421 12.9019 3.70093 13.0415 3.70093Z" fill="#FFE24A"/>
<path d="M12.4082 3.00041C12.6208 3.00041 12.7944 2.82695 12.7944 2.61422C12.7944 2.40148 12.6209 2.22803 12.4082 2.22803C12.1954 2.22803 12.022 2.40148 12.022 2.61422C12.022 2.82695 12.1954 3.00041 12.4082 3.00041Z" fill="#FFE24A"/>
<path d="M7.53121 7.12541C7.74389 7.12541 7.9174 6.95195 7.9174 6.73922C7.9174 6.52654 7.74394 6.35303 7.53121 6.35303C7.31848 6.35303 7.14502 6.52654 7.14502 6.73922C7.14502 6.95195 7.31848 7.12541 7.53121 7.12541Z" fill="#FFE24A"/>
<path d="M7.61031 6.22301C7.82299 6.22301 7.99644 6.04955 7.99644 5.83687C7.99644 5.6242 7.82299 5.45068 7.61031 5.45068C7.39763 5.45068 7.22412 5.6242 7.22412 5.83687C7.22412 6.04955 7.39758 6.22301 7.61031 6.22301Z" fill="#FFE24A"/>
<path d="M7.82711 5.3859C8.03978 5.3859 8.2133 5.21245 8.2133 4.99971C8.2133 4.78698 8.03984 4.61353 7.82711 4.61353C7.61437 4.61353 7.44092 4.78698 7.44092 4.99971C7.44097 5.21245 7.61443 5.3859 7.82711 5.3859Z" fill="#FFE24A"/>
<path d="M8.26754 4.55583C8.48021 4.55583 8.65373 4.38237 8.65373 4.16964C8.65373 3.9569 8.48027 3.78345 8.26754 3.78345C8.0548 3.78345 7.88135 3.9569 7.88135 4.16964C7.88135 4.38237 8.0548 4.55583 8.26754 4.55583Z" fill="#FFE24A"/>
<path d="M9.09713 3.96379C9.3098 3.96379 9.48332 3.79033 9.48332 3.5776C9.48332 3.36486 9.30986 3.19141 9.09713 3.19141C8.8844 3.19141 8.71094 3.36486 8.71094 3.5776C8.71094 3.79033 8.8844 3.96379 9.09713 3.96379Z" fill="#FFE24A"/>
<path d="M10.2138 3.29313C10.4265 3.29313 10.6 3.11967 10.6 2.90694C10.6 2.69421 10.4266 2.52075 10.2138 2.52075C10.0011 2.52075 9.82764 2.69421 9.82764 2.90694C9.82764 3.11967 10.0011 3.29313 10.2138 3.29313Z" fill="#FFE24A"/>
<path d="M11.3916 3.60929C11.6043 3.60929 11.7778 3.43584 11.7778 3.2231C11.7778 3.01037 11.6043 2.83691 11.3916 2.83691C11.1789 2.83691 11.0054 3.01043 11.0054 3.2231C11.0054 3.43578 11.1789 3.60929 11.3916 3.60929Z" fill="#FFE24A"/>
<path d="M10.9912 4.51109C11.2038 4.51109 11.3774 4.33763 11.3774 4.12496C11.3774 3.91223 11.2039 3.73877 10.9912 3.73877C10.7784 3.73877 10.605 3.91223 10.605 4.12496C10.605 4.33769 10.7785 4.51109 10.9912 4.51109Z" fill="#FFE24A"/>
<path d="M10.5999 5.31634C10.7738 5.31634 10.9157 5.17454 10.9157 5.00058C10.9157 4.82667 10.7738 4.68481 10.5999 4.68481C10.426 4.68481 10.2842 4.82667 10.2842 5.00058C10.2842 5.17454 10.426 5.31634 10.5999 5.31634Z" fill="#FFE24A"/>
<path d="M19.5854 7.12541C19.7981 7.12541 19.9716 6.95195 19.9716 6.73922C19.9716 6.52654 19.7981 6.35303 19.5854 6.35303C19.3727 6.35303 19.1992 6.52654 19.1992 6.73922C19.1993 6.95195 19.3727 7.12541 19.5854 7.12541Z" fill="#FFE24A"/>
<path d="M19.5063 6.22301C19.719 6.22301 19.8925 6.04955 19.8925 5.83687C19.8925 5.6242 19.719 5.45068 19.5063 5.45068C19.2936 5.45068 19.1201 5.6242 19.1201 5.83687C19.1201 6.04955 19.2936 6.22301 19.5063 6.22301Z" fill="#FFE24A"/>
<path d="M19.2895 5.3859C19.5022 5.3859 19.6757 5.21245 19.6757 4.99971C19.6757 4.78698 19.5022 4.61353 19.2895 4.61353C19.0768 4.61353 18.9033 4.78698 18.9033 4.99971C18.9034 5.21245 19.0768 5.3859 19.2895 5.3859Z" fill="#FFE24A"/>
<path d="M18.8495 4.55583C19.0622 4.55583 19.2357 4.38237 19.2357 4.16964C19.2357 3.9569 19.0622 3.78345 18.8495 3.78345C18.6368 3.78345 18.4634 3.9569 18.4634 4.16964C18.4634 4.38237 18.6368 4.55583 18.8495 4.55583Z" fill="#FFE24A"/>
<path d="M18.0195 3.96379C18.2322 3.96379 18.4057 3.79033 18.4057 3.5776C18.4057 3.36486 18.2322 3.19141 18.0195 3.19141C17.8068 3.19141 17.6333 3.36486 17.6333 3.5776C17.6333 3.79033 17.8068 3.96379 18.0195 3.96379Z" fill="#FFE24A"/>
<path d="M16.9033 3.29313C17.116 3.29313 17.2895 3.11967 17.2895 2.90694C17.2895 2.69421 17.116 2.52075 16.9033 2.52075C16.6906 2.52075 16.5171 2.69421 16.5171 2.90694C16.5171 3.11967 16.6905 3.29313 16.9033 3.29313Z" fill="#FFE24A"/>
<path d="M14.7089 3.00041C14.9216 3.00041 15.0951 2.82695 15.0951 2.61422C15.0951 2.40148 14.9217 2.22803 14.7089 2.22803C14.4962 2.22803 14.3228 2.40148 14.3228 2.61422C14.3228 2.82695 14.4963 3.00041 14.7089 3.00041Z" fill="#FFE24A"/>
<path d="M15.7251 3.60929C15.9377 3.60929 16.1112 3.43584 16.1112 3.2231C16.1112 3.01037 15.9378 2.83691 15.7251 2.83691C15.5123 2.83691 15.3389 3.01043 15.3389 3.2231C15.3389 3.43578 15.5123 3.60929 15.7251 3.60929Z" fill="#FFE24A"/>
<path d="M16.1254 4.51109C16.3381 4.51109 16.5116 4.33763 16.5116 4.12496C16.5116 3.91223 16.3382 3.73877 16.1254 3.73877C15.9127 3.73877 15.7393 3.91223 15.7393 4.12496C15.7393 4.33769 15.9127 4.51109 16.1254 4.51109Z" fill="#FFE24A"/>
<path d="M16.5169 5.31634C16.6908 5.31634 16.8327 5.17454 16.8327 5.00058C16.8327 4.82667 16.6908 4.68481 16.5169 4.68481C16.343 4.68481 16.2012 4.82667 16.2012 5.00058C16.2012 5.17454 16.343 5.31634 16.5169 5.31634Z" fill="#FFE24A"/>
<path d="M14.0752 4.68237C13.9356 4.68237 13.8223 4.79566 13.8223 4.93533C13.8223 4.93797 13.8223 4.94054 13.8224 4.94318C13.925 4.99797 14.0086 5.08369 14.0608 5.18784C14.0655 5.18812 14.0704 5.18829 14.0752 5.18829C14.2148 5.18829 14.3281 5.07501 14.3281 4.93533C14.3281 4.79566 14.215 4.68237 14.0752 4.68237Z" fill="#FFE24A"/>
<path d="M14.075 3.70093C14.0668 3.70093 14.0588 3.70132 14.0507 3.7021C14.0148 3.78301 13.9594 3.85349 13.8906 3.9075C13.9849 3.98156 14.0539 4.08633 14.0825 4.20679C14.2187 4.20281 14.328 4.09115 14.328 3.95394C14.328 3.81421 14.2147 3.70093 14.075 3.70093Z" fill="#FFE24A"/>
<path d="M11.2187 7.29612C10.4843 7.44705 9.77527 7.67094 9.10138 7.96524C8.70623 8.13769 8.94215 8.7263 9.24946 8.58719C9.9039 8.29092 10.5969 8.06749 11.3177 7.91779C12.7725 7.61569 14.344 7.61569 15.7987 7.91779C16.5194 8.06743 17.2125 8.29092 17.8669 8.58719C18.1742 8.7263 18.4102 8.13769 18.015 7.96524C17.3412 7.67094 16.6322 7.44705 15.8978 7.29612C14.3758 6.98332 12.7407 6.98332 11.2187 7.29612Z" fill="#FFE24A"/>
<path d="M13.5582 8.16187L14.277 8.44917L13.5582 8.73647L12.8394 8.44917L13.5582 8.16187Z" fill="black"/>
<path d="M14.204 8.44916L13.5586 8.19116L12.9131 8.44916L13.5586 8.70711L14.204 8.44916Z" fill="#143C8B"/>
<path d="M14.8669 8.43308C14.8105 8.53645 14.8644 8.65203 14.9504 8.71713C15.0065 8.75971 15.0733 8.78022 15.1435 8.79574L15.9801 8.98063C16.0658 8.99956 16.156 9.00769 16.2438 8.96763C16.3861 8.90252 16.4205 8.75053 16.3187 8.63124C16.258 8.55998 16.1744 8.52608 16.086 8.50916L15.2392 8.32176C15.1105 8.29335 14.9389 8.30131 14.8669 8.43308Z" fill="black"/>
<path d="M15.2368 8.34991L16.0815 8.53597C16.1615 8.55356 16.2395 8.58045 16.2978 8.64875C16.3877 8.75408 16.3579 8.88518 16.2322 8.94266C16.1533 8.9788 16.0657 8.97359 15.986 8.95594L15.148 8.77038C15.0862 8.75739 15.0249 8.73744 14.9737 8.70063C14.8961 8.645 14.8404 8.54409 14.8886 8.44997C14.9532 8.3238 15.1188 8.32391 15.2368 8.34991Z" fill="#EC1D24"/>
<path d="M9.38662 28.294C9.20885 28.1295 9.02458 27.957 8.83415 27.78C8.63732 27.5969 8.43305 27.4071 8.22211 27.2103C8.24144 27.2052 8.26111 27.2006 8.28044 27.1951C8.6957 27.5424 9.01517 27.7722 9.25978 27.9123C9.50187 28.0513 9.68098 28.1073 9.80222 28.0951C10.0493 28.0707 9.88996 27.7919 9.64378 27.5397C9.49285 27.3859 9.34371 27.2639 9.19075 27.182C9.08598 27.1275 8.9169 27.0489 8.71823 26.9794C8.60186 26.9355 8.48701 26.8923 8.37243 26.849C8.20592 26.7838 8.0542 26.7186 7.91419 26.6504C7.77435 26.5825 7.64398 26.5102 7.51859 26.4304C7.28367 26.2857 7.01906 26.0724 6.72935 25.8019C6.39666 25.4915 6.07003 25.1344 5.84609 24.8105C5.60529 24.4623 5.47974 24.1498 5.59991 23.9889C5.66221 23.9045 5.8071 23.8847 5.9387 23.8822C6.07384 23.8792 6.19542 23.8969 6.20483 23.8853C6.24976 23.8323 6.15513 23.7037 5.97495 23.4843C5.99585 23.4557 6.01731 23.4276 6.03849 23.3987C6.36983 23.75 6.6871 24.086 6.98981 24.4056C7.27801 24.7112 7.55574 25.0046 7.82046 25.2845C7.79626 25.3001 7.7725 25.3153 7.74813 25.3302C7.34889 24.9722 6.93356 24.6524 6.58979 24.4452C6.24169 24.2349 5.98078 24.149 5.89136 24.2545C5.77466 24.3922 6.0349 24.7937 6.41706 25.1614C6.6541 25.3887 6.83871 25.537 6.97827 25.612C7.11739 25.6867 7.36917 25.7899 7.70577 25.9112C7.85268 25.9636 8.00176 26.0166 8.1518 26.0709C8.334 26.1278 8.52152 26.214 8.70187 26.328C9.05069 26.534 9.36539 26.7941 9.66154 27.11C9.92022 27.3864 10.122 27.6737 10.1861 27.8906C10.2461 28.092 10.1872 28.2318 9.94408 28.251C9.84139 28.2586 9.69544 28.23 9.52635 28.1773C9.5026 28.1703 9.47929 28.1633 9.45615 28.1563C9.42097 28.1462 9.38651 28.1359 9.3725 28.1377C9.32303 28.1423 9.36107 28.1926 9.44931 28.2888C9.42853 28.2906 9.40735 28.2925 9.38662 28.294Z" fill="#143C8B"/>
<path d="M10.7432 20.1344C11.0031 19.9399 11.2604 19.7359 11.5233 19.5253C12.358 18.8564 13.2608 18.2685 14.223 17.7995C14.2792 17.7721 14.3356 17.7453 14.3922 17.719C13.3755 16.7524 12.398 15.6444 11.908 14.32C11.7661 13.9362 11.7029 13.6122 11.7528 13.2334C10.8615 13.3898 9.65593 13.6826 8.85498 14.2944C7.95463 14.982 7.96562 15.9944 8.34391 17.0191C8.82702 18.3276 9.73986 19.2423 10.7432 20.1344Z" fill="#E6A514"/>
<path d="M5.47602 16.7102C5.35176 17.2803 5.28564 17.8721 5.28564 18.4794C5.28564 19.6973 5.54902 20.8537 6.02177 21.895C6.33765 21.897 6.66059 21.8721 6.9903 21.8186C7.65528 21.7107 8.27863 21.5188 8.8683 21.2616C9.43966 21.0123 9.94026 20.7089 10.4205 20.3698C9.41198 19.4597 8.57742 18.5645 8.04326 17.2344C7.7461 16.4944 7.59225 15.7057 7.81277 15.0481C6.90245 15.4462 6.14677 16.0066 5.47602 16.7102Z" fill="#E6A514"/>
<path d="M13.9344 10.2155C13.8096 10.2098 13.6842 10.2065 13.5581 10.2065C9.86527 10.2065 6.73715 12.6277 5.67383 15.9686C6.40318 15.3058 7.23909 14.7675 8.17764 14.4355C9.03849 13.4189 10.5714 13.0382 11.8398 12.828C11.9337 12.5436 12.105 12.1991 12.3258 11.8879C12.6045 11.4951 12.9082 11.1267 13.2561 10.789C13.4654 10.586 13.6901 10.3943 13.9344 10.2155Z" fill="#E6A514"/>
<path d="M17.6985 11.3161C17.3738 11.128 17.035 10.9616 16.6843 10.8184C16.1725 11.0096 15.7288 11.2949 15.3297 11.6386C14.9641 11.9534 14.6336 12.3194 14.3213 12.7082C14.8703 13.0506 15.402 13.4197 15.9206 13.8089L16.1968 13.4216C16.0011 13.244 15.8138 13.114 15.6161 12.9876C15.5272 12.9174 15.5005 12.7594 15.5707 12.6706C15.6408 12.5817 15.7988 12.5608 15.8876 12.631C16.0647 12.8261 16.2513 12.9588 16.441 13.0792L16.8075 12.5653C16.6744 12.4509 16.5297 12.3568 16.3797 12.2729C16.2931 12.2131 16.2713 12.0944 16.3311 12.0077C16.391 11.9211 16.5097 11.8993 16.5963 11.9592C16.7234 12.0811 16.8614 12.1884 17.01 12.2814L17.2958 11.8806C17.2153 11.8118 17.1293 11.7591 17.0363 11.7256C16.9493 11.6667 16.9265 11.5483 16.9855 11.4613C17.0444 11.3743 17.1628 11.3515 17.2498 11.4104C17.3218 11.4913 17.4034 11.5548 17.4885 11.6103L17.6985 11.3161Z" fill="#E6A514"/>
<path d="M18.9722 12.2244C18.6769 11.9687 18.3633 11.7336 18.0337 11.5212L17.7934 11.8582C17.8769 11.9367 17.9704 12.0016 18.0668 12.0639C18.143 12.1364 18.1461 12.2571 18.0735 12.3334C18.0009 12.4097 17.8803 12.4127 17.804 12.3401C17.7456 12.255 17.678 12.1842 17.603 12.1252L17.321 12.5206C17.4332 12.6199 17.55 12.7152 17.6786 12.8001C17.7578 12.8699 17.7655 12.9906 17.6958 13.0698C17.6261 13.149 17.5053 13.1567 17.4261 13.087C17.3299 12.9661 17.2266 12.877 17.1211 12.8008L16.7453 13.3277C16.9145 13.487 17.0955 13.6276 17.2942 13.7727C17.379 13.8477 17.3811 14.0297 17.3061 14.1145C17.231 14.1994 17.0723 14.1782 16.9874 14.1032C16.8369 13.931 16.6846 13.7908 16.507 13.6617L16.2324 14.0467C16.7072 14.4139 17.1746 14.7996 17.6369 15.1977C17.9855 14.8158 18.2762 14.4273 18.4979 13.9822C18.7428 13.4908 18.9055 12.9278 18.9722 12.2244Z" fill="#E6A514"/>
<path d="M20.3362 13.7358C20.0378 13.3103 19.7002 12.9142 19.3289 12.5526C19.243 13.1768 19.0801 13.6956 18.8501 14.1572C18.55 14.7593 18.1245 15.2572 17.6648 15.7407C17.0466 15.2036 16.4194 14.6785 15.7662 14.1842C15.1137 13.6905 14.4391 13.2365 13.7402 12.8117C14.1479 12.2877 14.5676 11.7768 15.0729 11.3417C15.3997 11.0603 15.755 10.8146 16.1499 10.6212C15.6404 10.4531 15.1091 10.3333 14.5613 10.2671C14.1725 10.5062 13.8334 10.7755 13.53 11.0701C13.2005 11.39 12.9116 11.7406 12.6458 12.1152C12.3696 12.5044 12.2129 12.8532 12.1583 13.1887C12.1048 13.518 12.15 13.8415 12.2769 14.1848C12.7643 15.5021 13.7681 16.5971 14.7824 17.5474C15.8079 17.1219 16.8888 16.8755 18.0041 16.858C18.4633 16.4697 18.8985 16.0341 19.2928 15.5235C19.6874 15.0126 20.0409 14.4261 20.3362 13.7358Z" fill="#E6A514"/>
<path d="M21.8314 18.4794C21.8314 16.8815 21.3777 15.3894 20.5927 14.1245C20.3056 14.7472 19.9715 15.2866 19.6034 15.7633C19.2362 16.2388 18.8351 16.6518 18.4126 17.0231C19.3174 18.1425 20.4322 19.0748 21.6673 19.8105L21.7198 19.8417C21.7932 19.3985 21.8314 18.9434 21.8314 18.4794Z" fill="#E6A514"/>
<path d="M17.6109 9.73797L17.0646 9.06241L17.9012 8.95898L18.2764 9.59046L17.6109 9.73797ZM9.50538 9.73797L10.0516 9.06241L9.21505 8.95898L8.83984 9.59046L9.50538 9.73797Z" fill="#143C8B"/>
<path d="M13.2428 5.34484C13.218 5.44148 13.1969 5.44294 13.1025 5.4672C12.962 5.50339 12.8581 5.63108 12.8581 5.78285C12.8581 6.00959 13.1558 6.17761 13.3645 6.11206C12.7157 6.83262 11.5921 6.85351 10.772 6.41937C10.9392 6.36905 11.0376 6.19464 10.9928 6.02444C10.9542 5.87759 10.8212 5.78061 10.676 5.78145C10.5786 5.78207 10.5578 5.78604 10.5091 5.69892C10.3474 5.40932 9.89678 5.52804 9.89868 5.85983C9.89935 5.9595 9.8793 5.96628 9.79419 6.01385C9.6674 6.08461 9.59956 6.23454 9.63816 6.38138C9.67979 6.53926 9.83022 6.63949 9.98771 6.62252C9.93594 6.69849 9.87974 6.76925 9.82069 6.83469C9.52924 7.19645 9.143 7.42863 8.67137 7.43966C8.43483 7.46437 8.57147 7.38436 8.47332 7.26155C8.41158 7.18435 8.27818 7.19466 8.21369 7.26436C8.0971 7.39041 8.00247 7.41899 7.78845 7.367C7.58121 7.31685 7.50434 7.63447 7.71158 7.68461C8.57926 7.89544 9.47708 7.81084 10.0628 7.05364C10.19 6.91279 10.3058 6.75104 10.3988 6.56991C11.3274 7.14737 12.7188 7.17998 13.5585 6.3862C14.3983 7.17992 15.7898 7.14732 16.7183 6.56991C16.8113 6.75104 16.9271 6.91285 17.0543 7.05364C17.64 7.81089 18.5378 7.89544 19.4055 7.68461C19.6128 7.63447 19.5359 7.31685 19.3286 7.367C19.1146 7.41899 19.02 7.39041 18.9035 7.26436C18.8389 7.1946 18.7055 7.18429 18.6438 7.26155C18.5456 7.38431 18.6823 7.46437 18.4457 7.43966C17.9741 7.42857 17.5878 7.1964 17.2964 6.83469C17.2373 6.76925 17.1811 6.69849 17.1294 6.62252C17.2869 6.63949 17.4373 6.53926 17.4789 6.38138C17.5175 6.23454 17.4497 6.08467 17.3229 6.01385C17.2378 5.96634 17.2178 5.9595 17.2185 5.85983C17.2203 5.5281 16.7697 5.40932 16.608 5.69892C16.5594 5.78604 16.5386 5.78207 16.4411 5.78145C16.296 5.78061 16.163 5.87759 16.1243 6.02444C16.0795 6.19464 16.178 6.369 16.3452 6.41937C15.525 6.85357 14.4014 6.83262 13.7527 6.11206C13.9613 6.17761 14.259 6.00959 14.259 5.78285C14.259 5.63108 14.1552 5.50334 14.0146 5.4672C13.9202 5.44294 13.8991 5.44148 13.8743 5.34484C13.7918 5.0247 13.3251 5.0247 13.2428 5.34484Z" fill="#FFE24A"/>
<path d="M13.5491 5.90431C13.6455 5.90431 13.7241 5.82565 13.7241 5.72923C13.7241 5.63286 13.6455 5.5542 13.5491 5.5542C13.4527 5.5542 13.374 5.63286 13.374 5.72923C13.3741 5.8257 13.4527 5.90431 13.5491 5.90431Z" fill="black"/>
<path d="M10.302 6.32613C10.3986 6.32613 10.477 6.24776 10.477 6.1511C10.477 6.05444 10.3986 5.97607 10.302 5.97607C10.2053 5.97607 10.127 6.05444 10.127 6.1511C10.127 6.24776 10.2053 6.32613 10.302 6.32613Z" fill="black"/>
<path d="M16.8147 6.32613C16.9113 6.32613 16.9897 6.24776 16.9897 6.1511C16.9897 6.05444 16.9113 5.97607 16.8147 5.97607C16.718 5.97607 16.6396 6.05444 16.6396 6.1511C16.6396 6.24776 16.718 6.32613 16.8147 6.32613Z" fill="black"/>
</svg>
