<svg width="16" height="32" viewBox="0 0 16 32" fill="none" xmlns="http://www.w3.org/2000/svg">
<path d="M4.27257 21.5963C4.18396 21.574 4.10743 21.5189 4.04836 21.4362C3.74875 21.9 3.62242 22.3147 3.73258 22.6869C4.1935 24.2486 5.56649 25.4021 7.21086 25.5557C5.6393 25.0766 4.47621 23.4332 4.27257 21.5963ZM3.95079 20.6733C3.85176 20.6026 3.76699 20.5362 3.70668 20.4784C3.60159 20.8669 3.55309 21.278 3.57029 21.7015C3.57366 21.7871 3.57978 21.8718 3.58822 21.9558C3.64906 21.7055 3.7688 21.4441 3.94047 21.1774C3.90726 21.0213 3.91249 20.8438 3.95079 20.6733ZM4.02825 20.4349C4.06976 20.3403 4.12178 20.2529 4.1837 20.1793C4.2335 20.1204 4.28656 20.0736 4.34289 20.0388C4.49243 19.3393 4.80478 18.7163 5.26134 18.2454C4.57964 18.7318 4.05717 19.4253 3.78248 20.2301C3.81896 20.2801 3.91591 20.3558 4.02825 20.4349ZM9.92555 24.0258C9.58522 23.9878 9.12995 23.8976 8.93123 23.8285C8.70935 23.7515 8.51193 23.5655 8.40348 23.3305C8.35855 23.2333 8.31793 23.1041 8.31145 22.9475C8.30777 22.8538 8.31668 22.7506 8.34399 22.6388C7.09634 22.2569 5.7748 21.7265 4.85479 21.2335C4.8224 21.293 4.7854 21.3483 4.74385 21.3976C4.67467 21.4797 4.59695 21.5393 4.51694 21.5733C4.60332 22.3416 4.86914 23.0944 5.29243 23.7503C5.85392 24.6203 6.61864 25.2166 7.44471 25.4043C7.73758 25.4705 8.1204 25.5532 8.46286 25.477C9.73264 25.1948 10.7677 24.3134 11.2736 23.1539C11.2143 23.1645 11.1477 23.1705 11.0761 23.173C10.7865 24.0237 10.1772 24.0537 9.92555 24.0258ZM11.6057 21.3733C11.5876 20.9253 11.4976 20.4975 11.347 20.1005C11.1618 19.6137 10.5428 19.2684 9.72746 19.0831C8.2201 18.7411 6.24012 19.306 4.98018 20.3698C5.02858 20.5638 5.01423 20.7953 4.94925 21.0064C5.85708 21.4962 7.17738 22.0264 8.42301 22.407C8.71619 21.7314 9.27748 21.6025 9.71523 21.7123C10.0288 21.7909 10.2304 21.8321 10.3776 21.8618L10.5395 21.8961C10.7476 21.9449 10.9301 22.0836 11.0396 22.277C11.1171 22.4136 11.1884 22.6295 11.1398 22.927C11.2928 22.918 11.3669 22.8923 11.3841 22.872C11.5476 22.4042 11.6272 21.8983 11.6057 21.3733ZM10.8914 22.927C10.9415 22.6777 10.8873 22.5042 10.827 22.3982C10.7513 22.2643 10.626 22.1684 10.4841 22.135L10.3291 22.1023C10.1879 22.0737 9.97504 22.0302 9.65605 21.9503C9.22877 21.8432 8.86221 22.0396 8.65971 22.4775C8.86786 22.5382 9.07285 22.5943 9.27261 22.6451C9.30478 22.4892 9.31168 22.381 9.31168 22.3791C9.31582 22.3115 9.37365 22.2599 9.44106 22.2638C9.50842 22.2678 9.55988 22.3256 9.55584 22.3935C9.55542 22.4023 9.54755 22.5263 9.51045 22.7034C9.54998 22.7127 9.58962 22.722 9.62848 22.7308C9.66854 22.74 9.70802 22.7488 9.74668 22.7569C9.7815 22.5844 9.80394 22.4377 9.80456 22.4348C9.81466 22.3678 9.87705 22.3219 9.94364 22.332C10.0106 22.342 10.0564 22.4046 10.0465 22.4717C10.0447 22.4835 10.022 22.6304 9.98618 22.8064C10.0682 22.8225 10.1459 22.8364 10.2196 22.8491C10.2467 22.7002 10.2533 22.5819 10.2533 22.5797C10.2566 22.512 10.3141 22.4598 10.3815 22.4632C10.4491 22.4664 10.5012 22.524 10.4977 22.5915C10.4972 22.6015 10.4906 22.7258 10.4616 22.8858C10.631 22.9089 10.7733 22.9215 10.8914 22.927ZM8.62536 23.227C8.72091 23.434 8.88729 23.5537 9.01124 23.5965C9.17224 23.6526 9.59833 23.7424 9.95224 23.7813C10.3405 23.8244 10.6439 23.6077 10.817 23.1697C10.6871 23.1622 10.548 23.1469 10.404 23.1268C10.377 23.215 10.3427 23.3029 10.2984 23.381C10.265 23.4399 10.1905 23.4602 10.1318 23.4269C10.0731 23.3934 10.0526 23.3184 10.086 23.2593C10.1154 23.2075 10.1397 23.1488 10.1598 23.0882C10.0839 23.0752 10.0075 23.0608 9.93187 23.0462C9.90591 23.1479 9.87622 23.2446 9.84503 23.3169C9.81803 23.379 9.7458 23.4073 9.68388 23.3803C9.6219 23.3533 9.59382 23.281 9.62071 23.2189C9.64595 23.1607 9.67009 23.0819 9.69238 22.9965C9.65268 22.9877 9.61346 22.979 9.5746 22.9702C9.5335 22.9609 9.49143 22.951 9.44946 22.9408C9.42743 23.012 9.40153 23.0859 9.36997 23.1608C9.34385 23.2232 9.27172 23.2524 9.2096 23.2261C9.14752 23.1998 9.11814 23.1277 9.14446 23.0654C9.17078 23.0036 9.19265 22.9421 9.21125 22.8828C9.00518 22.8303 8.79345 22.772 8.57877 22.7091C8.52696 22.9351 8.57188 23.1119 8.62536 23.227ZM4.59669 20.1688C4.54249 20.1589 4.43491 20.1597 4.32744 20.277C4.15723 20.4621 4.07732 20.7131 4.0896 21.0222C4.09302 21.101 4.10401 21.1451 4.12624 21.2087C4.16593 21.321 4.26127 21.3953 4.33092 21.408C4.41372 21.4232 4.5072 21.3746 4.59446 21.2709C4.78509 21.044 4.86733 20.6277 4.7738 20.3621C4.73493 20.2514 4.67218 20.1827 4.59669 20.1688Z" fill="#001C58"/>
<path d="M5.84569 0C4.27029 0 3.8969 0.810622 3.8969 0.810622C3.8969 0.810622 5.71459 0.678795 5.71459 2.48044C5.71459 3.29127 5.27492 3.84083 4.80955 4.42244C4.26889 5.0979 3.65642 5.86354 3.65642 7.14791C3.65642 9.274 5.01744 10.2714 6.21815 11.1513C7.26428 11.9181 8.25228 12.6422 8.25228 14.0056C8.25228 15.3765 7.65312 16.4394 7.37963 16.7137C6.92094 17.174 6.50765 17.2578 6.17586 17.3251C5.83501 17.3941 5.51297 17.4605 5.44535 17.9518C4.18407 18.7121 3.41992 20.0661 3.41992 21.5352C3.41992 21.5925 3.42111 21.65 3.42339 21.7075C3.46873 22.824 3.94457 23.8559 4.76318 24.6131C5.58173 25.3704 6.64522 25.7623 7.75753 25.7167C8.86994 25.6713 9.89804 25.1936 10.6526 24.3723C11.4073 23.5508 11.7978 22.4834 11.7522 21.3673C11.6833 19.663 10.6057 18.1859 9.00699 17.6043L9.01316 17.6066C9.01212 17.6061 8.99129 17.5978 8.99129 17.5978C8.99108 17.5975 8.95362 17.5845 8.95362 17.5845C8.75143 17.5144 8.52204 17.4349 8.52204 16.913C8.52204 16.4072 8.75081 16.3653 9.20602 16.2814C9.47666 16.2315 9.80777 16.1706 10.1325 15.9715C10.7104 15.6175 10.8189 15.1904 10.7137 15.085C10.5705 14.941 10.4126 15.2433 9.83088 15.4192C9.62118 15.4827 9.41013 15.5197 9.26758 15.5197C9.14897 15.5197 9.06047 15.5097 8.99554 15.4978C9.30105 14.9234 9.64331 14.4531 9.64709 14.4482L9.72165 14.3464L9.63248 14.2569C9.51428 14.1384 9.44625 13.8917 9.44625 13.5609C9.44625 13.1527 9.54967 12.6168 9.78974 12.0348C10.0737 11.3472 11.2008 9.10307 13.786 9.10307H13.9328V8.95579C13.9328 8.02827 13.8484 7.17516 13.682 6.42029L13.6496 6.27364C13.6496 6.27364 13.3986 6.34514 13.1895 6.39194C13.1646 6.39746 12.9691 6.44566 12.9602 6.40427C12.9523 6.36766 13.1033 6.29158 13.1555 6.26526C13.3519 6.16729 13.5966 6.06412 13.5966 6.06412L13.5628 5.94607C13.3784 5.30019 13.1928 4.99156 13.1849 4.97861L13.125 4.88022L13.0158 4.9149C10.863 5.59552 10.4026 7.02924 10.1276 7.88568C9.99374 8.30186 9.91094 8.53733 9.76124 8.53733C9.31691 8.53733 8.94932 8.16852 8.82848 8.0473C7.48632 6.70017 7.58907 5.72896 7.74494 4.25868C7.80012 3.73985 7.86251 3.1519 7.86251 2.48044C7.86235 0.788157 7.22158 0 5.84569 0Z" fill="white"/>
<path d="M8.39907 14.0055C8.39907 15.3709 7.81877 16.4813 7.48352 16.8177C6.44453 17.8605 5.58758 17.1011 5.57826 18.1473C5.10677 18.5758 4.76758 19.2273 4.60114 19.9714C4.61151 19.9724 4.62177 19.9739 4.63192 19.9758C4.72949 19.9936 4.81328 20.0496 4.87722 20.1379C6.19685 19.0586 8.22859 18.4911 9.78155 18.8435C10.2753 18.9555 10.6941 19.1385 11.0112 19.4183C10.5343 18.6442 9.80528 18.0468 8.94352 17.7368C8.73899 17.6632 8.37534 17.5789 8.37534 16.9128C8.37534 15.6697 9.73056 16.6362 10.6234 15.2822C10.6672 15.2153 10.6043 15.157 10.5518 15.2096C10.2817 15.4804 9.61843 15.6668 9.26763 15.6668C8.91641 15.6668 8.78433 15.5865 8.78433 15.5865C9.11586 14.9244 9.52879 14.3608 9.52879 14.3608C8.69992 13.529 10.0949 8.95555 13.7862 8.95555C13.7862 7.89469 13.6745 7.06716 13.5388 6.45181C13.451 6.47329 12.7557 6.63783 12.7239 6.49107C12.6957 6.36107 13.236 6.07921 13.4221 5.98649C13.2407 5.35237 13.06 5.05517 13.06 5.05517C9.89617 6.05555 10.532 8.68435 9.76129 8.68435C9.2596 8.68435 8.86558 8.29246 8.72485 8.15122C6.83513 6.25503 7.71587 5.00004 7.71587 2.48019C7.71587 0.782709 7.05898 0.146973 5.84589 0.146973C4.63285 0.146973 4.19946 0.674127 4.19946 0.674127C4.19946 0.674127 5.86154 0.728157 5.86154 2.48019C5.86154 4.31444 3.80331 4.82074 3.80331 7.14761C3.80321 11.0213 8.39907 10.9485 8.39907 14.0055ZM6.20809 2.4804C6.20809 2.25554 6.184 2.05247 6.14026 1.86921C6.14026 1.86921 6.502 1.85023 6.502 1.40841C6.502 1.04418 6.25991 0.795866 6.19498 0.795866C6.1426 0.795866 6.12959 0.851665 6.01621 0.851665C5.73993 0.851665 5.71972 0.497369 5.71972 0.497369C5.7606 0.495965 5.80262 0.495341 5.84574 0.495341C6.63678 0.495341 7.36895 0.73575 7.36895 2.4805C7.36895 3.1257 7.30801 3.69987 7.25438 4.20638C7.20117 4.70664 7.15199 5.17197 7.16614 5.62637C7.16614 5.62637 5.78863 5.46344 5.78863 4.42338C5.78863 3.74797 6.20809 3.58364 6.20809 2.4804ZM4.27257 21.5963C4.18396 21.574 4.10743 21.5189 4.04836 21.4362C3.74875 21.9 3.62242 22.3147 3.73258 22.6869C4.1935 24.2486 5.56649 25.4021 7.21086 25.5557C5.6393 25.0766 4.47621 23.4332 4.27257 21.5963ZM3.95079 20.6733C3.85176 20.6025 3.76699 20.5362 3.70668 20.4784C3.60159 20.8669 3.55309 21.278 3.57029 21.7015C3.57366 21.7871 3.57978 21.8718 3.58822 21.9558C3.64906 21.7055 3.7688 21.4441 3.94047 21.1774C3.90726 21.0213 3.91249 20.8438 3.95079 20.6733ZM4.02825 20.4349C4.06976 20.3403 4.12178 20.2529 4.1837 20.1793C4.2335 20.1204 4.28656 20.0736 4.34289 20.0388C4.49243 19.3393 4.80478 18.7163 5.26134 18.2454C4.57964 18.7318 4.05717 19.4252 3.78248 20.23C3.81896 20.2801 3.91591 20.3558 4.02825 20.4349ZM9.92555 24.0257C9.58522 23.9878 9.12995 23.8976 8.93123 23.8285C8.70935 23.7515 8.51193 23.5655 8.40348 23.3305C8.35855 23.2333 8.31793 23.1041 8.31145 22.9475C8.30777 22.8538 8.31668 22.7506 8.34399 22.6388C7.09634 22.2569 5.7748 21.7265 4.85479 21.2335C4.8224 21.293 4.7854 21.3483 4.74385 21.3976C4.67467 21.4797 4.59695 21.5393 4.51694 21.5733C4.60332 22.3416 4.86914 23.0944 5.29243 23.7503C5.85392 24.6203 6.61864 25.2166 7.44471 25.4043C7.73758 25.4705 8.1204 25.5532 8.46286 25.477C9.73264 25.1948 10.7677 24.3134 11.2736 23.1539C11.2143 23.1645 11.1477 23.1705 11.0761 23.173C10.7865 24.0237 10.1772 24.0537 9.92555 24.0257ZM11.347 20.1005C11.1618 19.6137 10.5428 19.2684 9.72746 19.0831C8.2201 18.7411 6.24012 19.306 4.98018 20.3698C5.02858 20.5638 5.01423 20.7953 4.94925 21.0063C5.85708 21.4962 7.17738 22.0264 8.42301 22.407C8.71619 21.7314 9.27748 21.6025 9.71523 21.7123C10.0288 21.7909 10.2304 21.8321 10.3776 21.8617L10.5395 21.8961C10.7476 21.9449 10.9301 22.0836 11.0396 22.277C11.1171 22.4135 11.1884 22.6295 11.1398 22.927C11.2928 22.918 11.3669 22.8923 11.3841 22.872C11.5474 22.4042 11.627 21.8983 11.6056 21.3733C11.5877 20.9253 11.4976 20.4974 11.347 20.1005ZM8.62536 23.227C8.72091 23.434 8.88729 23.5537 9.01124 23.5965C9.17224 23.6526 9.59833 23.7424 9.95224 23.7813C10.3405 23.8244 10.6439 23.6077 10.817 23.1697C10.6871 23.1622 10.548 23.1469 10.404 23.1268C10.377 23.215 10.3427 23.3029 10.2984 23.381C10.265 23.4399 10.1905 23.4602 10.1318 23.4269C10.0731 23.3934 10.0526 23.3184 10.086 23.2593C10.1154 23.2075 10.1397 23.1488 10.1598 23.0882C10.0839 23.0752 10.0075 23.0608 9.93187 23.0462C9.90591 23.1479 9.87622 23.2446 9.84503 23.3169C9.81803 23.379 9.7458 23.4073 9.68388 23.3803C9.6219 23.3533 9.59382 23.281 9.62071 23.2189C9.64595 23.1607 9.67009 23.0819 9.69238 22.9964C9.65268 22.9877 9.61346 22.979 9.5746 22.9702C9.5335 22.9609 9.49143 22.9509 9.44946 22.9408C9.42743 23.0119 9.40153 23.0859 9.36997 23.1608C9.34385 23.2232 9.27172 23.2524 9.2096 23.2261C9.14752 23.1998 9.11814 23.1277 9.14446 23.0654C9.17078 23.0036 9.19265 22.9421 9.21125 22.8828C9.00518 22.8303 8.79345 22.772 8.57877 22.7091C8.52696 22.9351 8.57188 23.1118 8.62536 23.227ZM10.8914 22.927C10.9415 22.6777 10.8873 22.5042 10.827 22.3982C10.7513 22.2643 10.626 22.1684 10.4841 22.135L10.3291 22.1023C10.1879 22.0737 9.97504 22.0302 9.65605 21.9503C9.22877 21.8432 8.86221 22.0396 8.65971 22.4775C8.86786 22.5382 9.07285 22.5943 9.27261 22.6451C9.30478 22.4892 9.31168 22.381 9.31168 22.3791C9.31582 22.3115 9.37365 22.2599 9.44106 22.2638C9.50842 22.2678 9.55988 22.3256 9.55584 22.3935C9.55542 22.4023 9.54755 22.5263 9.51045 22.7034C9.54998 22.7127 9.58962 22.722 9.62848 22.7308C9.66854 22.74 9.70802 22.7488 9.74668 22.7569C9.7815 22.5844 9.80394 22.4377 9.80456 22.4348C9.81466 22.3678 9.87705 22.3219 9.94364 22.332C10.0106 22.342 10.0564 22.4046 10.0465 22.4717C10.0447 22.4835 10.022 22.6303 9.98618 22.8064C10.0682 22.8224 10.1459 22.8364 10.2196 22.8491C10.2467 22.7002 10.2533 22.5819 10.2533 22.5796C10.2566 22.512 10.3141 22.4598 10.3815 22.4632C10.4491 22.4664 10.5012 22.5239 10.4977 22.5914C10.4972 22.6015 10.4906 22.7258 10.4616 22.8858C10.631 22.9089 10.7733 22.9215 10.8914 22.927ZM4.59669 20.1688C4.54249 20.1589 4.43491 20.1597 4.32744 20.277C4.15723 20.4621 4.07732 20.713 4.0896 21.0222C4.09302 21.101 4.10401 21.1451 4.12624 21.2087C4.16593 21.321 4.26127 21.3953 4.33092 21.408C4.41372 21.4232 4.5072 21.3746 4.59446 21.2709C4.78509 21.0439 4.86733 20.6277 4.7738 20.3621C4.73493 20.2514 4.67218 20.1827 4.59669 20.1688Z" fill="#001C58"/>
<path d="M1.43362 25.0682C1.74209 25.2725 2.06874 25.4561 2.06874 25.4561L1.95438 25.7535C1.91169 25.5733 1.73359 25.4755 1.50378 25.3328L0.751399 26.4246C0.659527 26.5563 0.480396 26.8445 0.465939 26.9568C0.465939 26.9568 0.342459 26.8781 0.229757 26.7939C0.111977 26.7057 0 26.624 0 26.624C0.112132 26.5967 0.305772 26.31 0.422568 26.151L1.15454 25.1029C0.880372 24.8902 0.773369 24.8485 0.579626 24.8384L0.840162 24.6423C0.840317 24.6425 1.0907 24.8413 1.43362 25.0682Z" fill="#001C58"/>
<path d="M13.3559 28.7668L13.3786 28.7919C13.3573 28.7907 13.3397 28.8017 13.3169 28.8146L13.3829 28.942C13.3958 28.9655 13.414 29.0014 13.4259 29.004C13.4259 29.004 13.4118 29.012 13.3949 29.0206C13.3802 29.0279 13.3662 29.0336 13.3662 29.0336C13.3664 29.0178 13.3613 29.0052 13.3437 28.969L13.2746 28.8353C13.2514 28.8471 13.226 28.8586 13.2192 28.8776L13.2134 28.8406C13.2134 28.8406 13.2475 28.824 13.2844 28.8049C13.3272 28.7827 13.3559 28.7668 13.3559 28.7668Z" fill="#001C58"/>
<path d="M1.92069 27.7767C1.39806 27.5264 1.32863 26.9484 1.58595 26.4075C1.84441 25.8643 2.33709 25.5586 2.85733 25.8081C3.37737 26.0573 3.45064 26.6338 3.19197 27.1772C2.93459 27.7181 2.44326 28.0271 1.92069 27.7767ZM2.78251 25.9649C2.44834 25.8048 2.18558 26.1836 1.98743 26.6001C1.78928 27.0165 1.65969 27.4626 1.99391 27.6227C2.32813 27.7826 2.59224 27.4012 2.79044 26.9848C2.98859 26.5683 3.11673 26.1249 2.78251 25.9649Z" fill="#001C58"/>
<path d="M4.25919 26.3666C4.61264 26.4668 4.90027 26.5338 4.90027 26.5338L4.86965 26.8513C4.77493 26.7139 4.73145 26.6804 4.42977 26.6032L4.064 27.8374C4.03467 27.9504 3.8887 28.3778 3.93549 28.4582C3.93549 28.4582 3.83393 28.4365 3.66993 28.3908C3.48556 28.3395 3.39893 28.3049 3.39893 28.3049C3.49349 28.2424 3.61246 27.8771 3.65138 27.7286L4.01897 26.4861C3.70641 26.3815 3.63376 26.3742 3.48442 26.4438L3.66558 26.1731C3.66552 26.1732 3.86958 26.2558 4.25919 26.3666Z" fill="#001C58"/>
<path d="M5.71712 26.6945C6.06548 26.7473 6.39364 26.7772 6.39364 26.7772L6.4068 27.0958C6.27664 26.9796 6.22762 26.9419 5.88371 26.8985L5.68452 28.1659C5.67053 28.2821 5.59649 28.7229 5.65375 28.7961C5.65375 28.7961 5.53312 28.7826 5.36652 28.7592C5.19993 28.7355 5.09759 28.712 5.09759 28.712C5.17895 28.6482 5.24657 28.2307 5.26071 28.1145L5.46477 26.8313C5.16677 26.7716 5.10552 26.7945 4.9624 26.8778L5.09215 26.5764C5.09215 26.5764 5.37046 26.642 5.71712 26.6945Z" fill="#001C58"/>
<path d="M7.00882 27.8996L6.9826 28.7514C7.4276 28.7573 7.73229 28.729 7.86789 28.5353L7.79985 28.9223C7.79985 28.9223 7.55336 28.9273 7.1924 28.9223C6.79574 28.9166 6.48438 28.8906 6.48438 28.8906C6.55039 28.825 6.56676 28.4099 6.56754 28.2933L6.60381 27.4573C6.60542 27.2347 6.62563 26.8749 6.55117 26.7993C6.87357 26.8217 6.83253 26.8213 7.12862 26.8329C7.51631 26.8483 7.73586 26.8367 7.73586 26.8367L7.78462 27.1563C7.63326 27.0295 7.40636 27.0146 7.03592 27.0124L7.0155 27.7273L7.58445 27.7306C7.6357 27.7312 7.63891 27.7598 7.63876 27.8171C7.63813 27.8735 7.63736 27.9036 7.58331 27.903L7.00882 27.8996Z" fill="#001C58"/>
<path d="M9.49373 28.1559C9.52653 28.4659 9.55912 28.6885 9.62954 28.7292C9.61192 28.7612 9.55611 28.8033 9.48202 28.8112C9.39279 28.8208 9.32532 28.7767 9.26335 28.7048L8.25452 27.5433L8.29245 28.2823C8.30468 28.3984 8.318 28.8386 8.39002 28.8974L8.05389 28.9127C8.11239 28.8401 8.09684 28.4207 8.08441 28.3043L8.03694 27.4705C8.02461 27.3543 8.00295 26.8931 7.93066 26.8348L8.23892 26.8236L9.27283 28.056L9.18681 27.3469C9.17448 27.2303 9.11158 26.8078 9.04198 26.7491C9.04198 26.7491 9.07914 26.7455 9.20464 26.7284C9.32988 26.7113 9.37548 26.7021 9.37548 26.7021C9.31739 26.7748 9.38481 27.2083 9.39729 27.3246L9.49373 28.1559Z" fill="#001C58"/>
<path d="M11.3895 27.7165C11.4253 27.8607 11.4964 28.231 11.6018 28.3035C11.6018 28.3035 11.4423 28.3499 11.3447 28.3799C11.2579 28.4067 11.0667 28.4565 11.0667 28.4565C11.1118 28.3765 11.0112 27.932 10.9835 27.821L10.8875 27.4343L10.2465 27.5921L10.3194 27.9854C10.3404 28.1125 10.4072 28.5404 10.4936 28.5926C10.4936 28.5926 10.404 28.6112 10.2171 28.6497C10.0606 28.682 9.95168 28.6993 9.95168 28.6993C9.99971 28.6192 9.93535 28.2225 9.91546 28.0959L9.76011 27.2644C9.73176 27.1095 9.66046 26.7173 9.57471 26.6715C9.57471 26.6715 9.65787 26.6557 9.84094 26.6199C10.0241 26.5841 10.1138 26.5598 10.1138 26.5598C10.0687 26.6528 10.1482 27.0291 10.1698 27.1609L10.2192 27.4248L10.85 27.2704L10.7819 27.0008C10.7449 26.858 10.6665 26.5153 10.5789 26.4517C10.5789 26.4517 10.6655 26.4266 10.841 26.3765C11.0166 26.3268 11.0923 26.2983 11.0923 26.2983C11.0575 26.3934 11.1551 26.7272 11.1955 26.8992L11.3895 27.7165Z" fill="#001C58"/>
<path d="M12.5606 27.2236L11.9351 27.4695L11.9568 27.8142C11.9708 27.9319 11.9712 28.0399 11.9969 28.1009C12.0095 28.1311 12.0311 28.1512 12.0518 28.162C12.0518 28.162 11.9865 28.1858 11.8791 28.2208C11.7716 28.2557 11.7125 28.2728 11.7125 28.2728C11.75 28.2079 11.759 28.1186 11.7558 28.0071L11.7007 26.3728C11.6955 26.3134 11.6884 26.2577 11.6688 26.2111C11.6514 26.1694 11.622 26.146 11.6016 26.1286C11.6728 26.0822 11.7619 26.0315 11.8526 25.9933C11.9963 25.9325 12.0569 25.935 12.1617 26.0576L13.0794 27.1999C13.2463 27.4179 13.3938 27.5646 13.4898 27.5938C13.4898 27.5938 13.3959 27.6372 13.2196 27.7161C13.0432 27.7947 12.9265 27.8394 12.9265 27.8394C12.9369 27.8024 12.9381 27.7632 12.9151 27.7043C12.8906 27.6407 12.8003 27.5331 12.7421 27.4514L12.5606 27.2236ZM12.4471 27.0883L11.8913 26.3153L11.9304 27.2861L12.4471 27.0883Z" fill="#001C58"/>
<path d="M15.1814 26.631C15.0556 26.7162 14.9614 26.7813 14.9614 26.7813C14.9522 26.657 14.7132 26.3499 14.6429 26.2566L14.1038 25.5509L14.5375 26.9422C14.5206 26.9698 14.4899 27.0085 14.4613 27.0302C14.3758 27.0954 14.2925 27.0826 14.2164 27.0225L13.1899 26.1685L13.5492 26.8326C13.6371 27.0008 13.8065 27.3508 13.9205 27.3853C13.9205 27.3853 13.8496 27.4233 13.7599 27.4669C13.6708 27.5102 13.6163 27.5356 13.6163 27.5356C13.6362 27.4379 13.4694 27.1474 13.3723 26.9615L12.9725 26.2068C12.8512 25.9798 12.7174 25.7486 12.6025 25.7025C12.6914 25.6592 12.7182 25.646 12.8455 25.583C12.9514 25.5306 13.0449 25.4792 13.0449 25.4792L14.2006 26.4659L13.746 25.0689C13.746 25.0689 13.807 25.0274 13.9225 24.9501C14.0378 24.8726 14.1417 24.7957 14.1417 24.7957C14.1505 24.9206 14.3912 25.2391 14.4788 25.3531L14.9765 25.9958C15.0821 26.1281 15.2795 26.4225 15.42 26.4562C15.42 26.4561 15.3074 26.5455 15.1814 26.631Z" fill="#001C58"/>
<path d="M13.6133 28.7044L13.67 28.7773C13.6866 28.7977 13.7034 28.8228 13.7212 28.8303C13.7212 28.8303 13.7064 28.8409 13.692 28.8507C13.6777 28.8602 13.667 28.8678 13.667 28.8678C13.6631 28.8481 13.639 28.8176 13.6311 28.807L13.5708 28.727L13.6202 28.8849C13.6182 28.8881 13.6148 28.8924 13.6114 28.8947C13.5985 28.9047 13.589 28.899 13.5803 28.8921L13.4614 28.7968L13.5078 28.8723C13.5189 28.8919 13.5388 28.9278 13.5546 28.9352C13.5546 28.9352 13.5458 28.9404 13.5351 28.9467C13.5258 28.9522 13.5167 28.9569 13.5167 28.9569C13.5188 28.9378 13.4949 28.9002 13.4877 28.8872L13.4367 28.8015C13.425 28.7821 13.4066 28.7536 13.3901 28.7487C13.3901 28.7487 13.4061 28.7404 13.4218 28.7316C13.4316 28.7262 13.4415 28.7198 13.4474 28.7165L13.579 28.8264L13.5283 28.6698C13.5332 28.6675 13.5408 28.6628 13.5526 28.6555C13.5678 28.6462 13.5804 28.6377 13.5804 28.6377C13.5803 28.6568 13.6024 28.6896 13.6133 28.7044Z" fill="#001C58"/>
<path d="M3.3534 29.1713C3.4605 29.2108 3.5987 29.2589 3.5987 29.2589C3.48232 29.3436 3.37542 29.6803 3.30603 29.8632L3.03762 30.6106C2.9658 30.8134 2.84331 31.1075 2.88435 31.2124C2.88435 31.2124 2.73667 31.1612 2.61718 31.1186C2.51494 31.082 2.45691 31.0625 2.34861 31.016C2.48017 30.981 2.60422 30.5419 2.64454 30.4314L2.7674 30.0826L2.12409 29.8134L1.93806 30.2124C1.87749 30.351 1.73261 30.6648 1.76707 30.7631C1.76707 30.7631 1.65343 30.7166 1.4871 30.6398C1.29118 30.5493 1.24854 30.5253 1.24854 30.5253C1.38658 30.4572 1.46834 30.2336 1.57343 30.0076L1.90982 29.2599C2.02351 29.0039 2.12616 28.7821 2.11844 28.6362C2.11844 28.6362 2.1785 28.6722 2.34395 28.7468C2.47577 28.8063 2.54308 28.836 2.61708 28.8658C2.51235 28.9076 2.36664 29.2849 2.28975 29.4541L2.19119 29.6654L2.81963 29.9252L2.91601 29.6857C2.96114 29.5633 3.11701 29.1978 3.08338 29.0726C3.08338 29.0726 3.21235 29.1196 3.3534 29.1713Z" fill="#001C58"/>
<path d="M4.0803 31.5969C3.52005 31.4491 3.3419 30.9046 3.49046 30.3374C3.6398 29.7672 4.06408 29.3851 4.62158 29.5325C5.17882 29.6795 5.36075 30.2217 5.21162 30.7919C5.06285 31.3592 4.64064 31.7448 4.0803 31.5969ZM4.57852 29.6968C4.22041 29.6023 4.03542 30.0142 3.92091 30.4511C3.80608 30.8876 3.76478 31.3408 4.12268 31.4355C4.48079 31.5298 4.66676 31.1149 4.78117 30.6783C4.8959 30.2415 4.93652 29.7914 4.57852 29.6968Z" fill="#001C58"/>
<path d="M5.59788 31.7976C5.59788 31.7976 5.63353 31.7589 5.65784 31.6801C5.69209 31.5694 5.71411 31.3566 5.74048 31.1906L5.89733 29.9733C5.56317 29.9313 5.47829 29.9554 5.33154 30.0426L5.46922 29.731C5.57327 29.7541 5.80386 29.7791 6.08434 29.8146C6.27202 29.8382 6.83108 29.8888 6.83108 29.8888L6.85009 30.2006C6.72682 30.0574 6.59888 30.0444 6.32037 30.0225L6.16414 31.2438C6.15015 31.3575 6.08797 31.752 6.14963 31.8688C6.08242 31.8612 5.97112 31.8485 5.87775 31.8392C5.7809 31.8292 5.65353 31.8071 5.59788 31.7976Z" fill="#001C58"/>
<path d="M8.2605 31.3748C8.26433 31.7412 7.96737 32.0065 7.51055 31.9998C7.15529 31.9946 6.96953 31.8479 6.89844 31.7882L6.97238 31.4404C7.08265 31.662 7.26546 31.8231 7.47127 31.8264C7.68626 31.8294 7.85545 31.7024 7.85892 31.4886C7.86115 31.3331 7.77591 31.2393 7.41728 31.0519C7.07358 30.8738 6.94564 30.6961 6.94564 30.4311C6.94564 30.0703 7.25836 29.8871 7.62574 29.887C7.89592 29.8867 8.08437 29.9698 8.20278 30.0333L8.12645 30.352C7.96255 30.1323 7.81415 30.0509 7.63517 30.0484C7.45889 30.0455 7.33401 30.142 7.3352 30.3238C7.3364 30.522 7.55361 30.6292 7.84653 30.7933C8.18334 30.9825 8.25848 31.1721 8.2605 31.3748Z" fill="#001C58"/>
<path d="M9.92385 30.2524C9.93691 30.2954 9.94473 30.3476 9.94877 30.3886C9.95225 30.4265 9.95411 30.4766 9.9496 30.524C9.93991 30.6428 9.88374 30.7808 9.79089 30.8778C9.64906 31.0265 9.46413 31.1004 9.21903 31.1119C9.12452 31.1178 9.10188 31.0888 9.09555 31.0203L9.09498 31.0054C9.09498 31.0054 9.09296 30.979 9.11359 30.9776L9.13732 30.9752C9.20971 30.9662 9.31723 30.9435 9.4034 30.8383C9.4861 30.73 9.51434 30.5861 9.49993 30.4313C9.4846 30.2705 9.43646 30.1547 9.32873 30.0714C9.2352 29.9993 9.1253 29.9758 9.01218 29.9848C9.01218 29.9848 8.96679 29.9887 8.91642 29.9967C8.91642 29.9967 8.88694 29.9993 8.88943 30.0283L9.01088 31.2908C9.0214 31.4019 9.05156 31.7931 9.14245 31.8738C9.14245 31.8738 9.03902 31.8848 8.84424 31.9009C8.69573 31.913 8.57992 31.9161 8.57992 31.9161C8.61899 31.8192 8.61252 31.6759 8.60277 31.5091L8.50867 30.5136C8.49795 30.3997 8.47878 30.0091 8.38623 29.9126C8.38623 29.9126 8.63521 29.8757 9.09586 29.832C9.33676 29.8091 9.53408 29.8399 9.7043 29.9555C9.81576 30.0307 9.89229 30.1404 9.92385 30.2524Z" fill="#001C58"/>
<path d="M11.809 30.6593C11.9076 31.0969 11.7029 31.4694 11.2492 31.5832C10.9305 31.6632 10.4714 31.5459 10.3433 30.9846L10.1872 30.3219C10.1461 30.1364 10.0789 29.808 9.97168 29.7224C9.97168 29.7224 10.0915 29.7054 10.2792 29.6703C10.4668 29.6351 10.554 29.6142 10.554 29.6142C10.5047 29.6921 10.5565 29.9991 10.6055 30.2247L10.8047 31.067C10.8402 31.2214 10.8904 31.3271 10.9767 31.3894C11.0406 31.4358 11.126 31.4484 11.215 31.4321C11.2959 31.417 11.3802 31.3711 11.4243 31.2889C11.471 31.2025 11.4708 31.0776 11.4348 30.9234L11.2112 30.0811C11.15 29.8492 11.0796 29.559 11.0039 29.5104C11.0039 29.5104 11.095 29.4856 11.2676 29.436C11.3984 29.3987 11.4761 29.3759 11.5326 29.356C11.481 29.4827 11.6038 29.8716 11.6298 29.9829L11.809 30.6593Z" fill="#001C58"/>
<path d="M13.846 30.4867C13.89 30.5036 13.9373 30.5152 13.9771 30.4983C13.9725 30.5257 13.9468 30.5806 13.9038 30.6249C13.7203 30.8136 13.5482 30.7811 13.4898 30.758C13.1735 30.6369 12.6445 30.1664 12.6228 30.115C12.6228 30.115 12.6173 30.1016 12.6311 30.096L12.6502 30.0874C12.7328 30.053 12.8266 29.9592 12.8635 29.8705C12.9227 29.7405 12.9127 29.6237 12.8526 29.4807C12.7904 29.332 12.6816 29.2383 12.5964 29.2131C12.4703 29.1757 12.3762 29.2054 12.3189 29.2283C12.3189 29.2283 12.2432 29.2582 12.2207 29.281C12.2207 29.281 12.2055 29.2936 12.2232 29.3454L12.6228 30.4908C12.6835 30.6593 12.7889 30.988 12.8845 31.0434C12.8845 31.0434 12.7765 31.086 12.6128 31.1454C12.4491 31.2047 12.3495 31.2323 12.3495 31.2323C12.3829 31.1044 12.2567 30.7566 12.225 30.6591L11.9666 29.8856C11.9019 29.6991 11.7841 29.3649 11.688 29.3114C11.688 29.3114 11.8767 29.2584 12.3007 29.0797C12.5263 28.9846 12.7447 28.9439 12.9419 29.0019C13.0616 29.0372 13.1424 29.0975 13.2086 29.1937C13.2338 29.2309 13.2524 29.2675 13.2685 29.3053C13.2832 29.3405 13.2933 29.3809 13.3 29.4185C13.3209 29.5354 13.3034 29.6597 13.236 29.7769C13.236 29.7769 13.1753 29.8949 13.0456 29.9875C13.0454 29.9874 13.462 30.3415 13.846 30.4867Z" fill="#001C58"/>
</svg>
