<svg width="32" height="32" viewBox="0 0 32 32" fill="none" xmlns="http://www.w3.org/2000/svg">
<path fill-rule="evenodd" clip-rule="evenodd" d="M17.3598 30.7039C17.2345 31.0796 16.8262 32 15.8409 32C14.7218 32 14.3313 30.7876 14.3123 30.7378L14.2803 30.6216C14.2803 30.6216 15.2448 30.7017 15.7758 30.7017C16.3069 30.7017 17.2141 30.6502 17.3627 30.6216L17.3598 30.7039Z" fill="black"/>
<path fill-rule="evenodd" clip-rule="evenodd" d="M20.2977 30.106L20.529 30.1367C20.2545 30.8518 19.7619 31.6536 18.7942 31.6536C17.8575 31.6536 17.3932 31.1108 17.195 30.7457L17.0332 30.6464C17.0333 30.6463 18.6533 30.5929 20.2977 30.106ZM11.4179 30.106L11.187 30.1367C11.461 30.8518 11.9539 31.6536 12.922 31.6536C13.8585 31.6536 14.3644 31.0804 14.572 30.7457L14.6825 30.6464C14.6823 30.6463 13.0627 30.5929 11.4179 30.106Z" fill="black"/>
<path fill-rule="evenodd" clip-rule="evenodd" d="M16.6261 30.7784C16.4746 30.9981 16.3733 30.9878 16.1903 30.9878C16.0988 30.9878 15.9614 31.0638 15.9657 31.2012C15.9686 31.309 16.0565 31.399 16.2059 31.399C16.5364 31.399 16.7883 30.937 16.8592 30.7417C16.8592 30.7417 17.0548 30.7332 17.112 30.7276C17.112 30.7276 16.7613 31.7712 15.8529 31.7712C14.9425 31.7712 14.5718 30.7388 14.5718 30.7388C14.5718 30.7388 15.3377 30.7862 15.7768 30.7862C16.2158 30.7862 16.4946 30.7842 16.6261 30.7784ZM20.1763 30.3193C19.5823 30.4794 19.1607 30.6087 18.1636 30.73C18.1636 30.73 18.1947 30.8331 18.4115 30.8215C18.4949 30.8173 18.5056 30.7967 18.5365 30.7911C18.598 30.7799 18.6925 30.8444 18.6813 30.9529C18.6732 31.0285 18.6083 31.1242 18.3875 31.1242C18.1667 31.1242 17.9087 30.9434 17.779 30.7759C17.779 30.7759 17.6463 30.8063 17.5092 30.8141C17.5092 30.8141 17.9334 31.4084 18.7705 31.4084C19.6916 31.4086 20.0315 30.5857 20.1763 30.3193Z" fill="#FFF22D"/>
<path fill-rule="evenodd" clip-rule="evenodd" d="M19.5587 30.9003C19.5587 30.7561 19.5142 30.6227 19.4387 30.5122C19.1163 30.5882 18.7476 30.6578 18.2074 30.7249C18.2036 30.7409 18.2 30.7571 18.1968 30.7733C18.2293 30.7997 18.2924 30.8281 18.4116 30.8218C18.495 30.8176 18.5056 30.797 18.5365 30.7914C18.598 30.7802 18.6926 30.8447 18.6814 30.9532C18.6732 31.0288 18.6083 31.1245 18.3875 31.1245C18.3308 31.1245 18.2709 31.1125 18.212 31.0916C18.2409 31.1919 18.2921 31.2827 18.3599 31.3583C18.4941 31.3922 18.632 31.4091 18.7703 31.4087C19.0656 31.4087 19.3009 31.3243 19.4895 31.2004C19.5352 31.107 19.5588 31.0043 19.5587 30.9003Z" fill="#FADE2F"/>
<path fill-rule="evenodd" clip-rule="evenodd" d="M19.5493 30.9003C19.5495 30.7625 19.5074 30.6279 19.4288 30.5146C19.1106 30.5888 18.7469 30.6573 18.2179 30.7233C18.2128 30.7418 18.2087 30.7606 18.2056 30.7796C18.2401 30.804 18.3023 30.8277 18.4119 30.8215C18.4952 30.8173 18.5059 30.7967 18.5368 30.7911C18.5983 30.7799 18.6929 30.8445 18.6817 30.953C18.6735 31.0285 18.6086 31.1242 18.3878 31.1242C18.3345 31.1242 18.2786 31.1135 18.2233 31.0953C18.2537 31.1963 18.3066 31.2871 18.377 31.3623C18.496 31.3913 18.6274 31.4086 18.7708 31.4086C19.058 31.4086 19.2885 31.3289 19.4744 31.2105C19.5236 31.1145 19.5492 31.0082 19.5493 30.9003Z" fill="#FBE02F"/>
<path fill-rule="evenodd" clip-rule="evenodd" d="M19.5397 30.9001C19.5397 30.7575 19.4952 30.6251 19.4189 30.5166C19.1053 30.5897 18.7457 30.6571 18.228 30.7222C18.2224 30.7426 18.2173 30.7638 18.2139 30.7851C18.2499 30.8074 18.3106 30.8267 18.4117 30.8215C18.495 30.8173 18.5057 30.7967 18.5366 30.7911C18.5981 30.7799 18.6927 30.8444 18.6815 30.9529C18.6733 31.0285 18.6084 31.1242 18.3876 31.1242C18.3354 31.1234 18.2836 31.1148 18.2339 31.0987C18.2654 31.2001 18.3206 31.2914 18.3932 31.3661C18.5081 31.3925 18.6337 31.4084 18.7704 31.4084C19.0494 31.4084 19.2751 31.3328 19.4581 31.2202C19.5119 31.1221 19.5399 31.012 19.5397 30.9001Z" fill="#FCE22F"/>
<path fill-rule="evenodd" clip-rule="evenodd" d="M11.5395 30.3193C12.1332 30.4793 12.555 30.6086 13.5521 30.7299C13.5521 30.7299 13.521 30.833 13.3042 30.8214C13.2206 30.8172 13.21 30.7966 13.179 30.791C13.1177 30.7798 13.023 30.8444 13.0346 30.9529C13.0425 31.0284 13.1073 31.1241 13.328 31.1241C13.5488 31.1241 13.8069 30.9433 13.9363 30.7758C13.9363 30.7758 14.0696 30.8062 14.2066 30.814C14.2066 30.814 13.7823 31.4083 12.9452 31.4083C12.0241 31.4085 11.684 30.5856 11.5395 30.3193ZM15.7652 25.4233C18.9388 25.4233 22.4552 23.4753 24.9207 20.6668C25.1874 20.3634 25.6402 19.7878 26.7134 19.7878C27.7864 19.7878 29.213 20.7657 29.045 22.5465C28.9228 23.8448 27.067 26.7706 23.8934 28.5743C20.7198 30.378 17.7974 30.7661 15.7653 30.7661C13.7333 30.7661 10.8108 30.378 7.63704 28.5743C4.46344 26.7706 2.60785 23.8448 2.48525 22.5465C2.31727 20.7657 3.74395 19.7878 4.81713 19.7878C5.8903 19.7878 6.34326 20.3636 6.60979 20.6668C9.07529 23.4753 12.5916 25.4233 15.7652 25.4233Z" fill="#FFF22D"/>
<path d="M15.765 25.3093C17.3027 25.3093 18.9238 24.8453 20.4649 24.0446C22.0708 23.2105 23.5882 22.0122 24.835 20.592C24.9724 20.436 25.157 20.2096 25.4523 20.0185C25.7494 19.8261 26.1508 19.6738 26.7132 19.6738C26.7714 19.6738 26.8336 19.6771 26.8989 19.6831C27.4162 19.7321 27.9849 19.9821 28.4236 20.4175C28.8626 20.8533 29.1727 21.4739 29.1727 22.2625C29.1727 22.3554 29.1682 22.4536 29.1583 22.5574C29.0879 23.3029 28.4686 24.5623 27.3741 25.8433C26.5152 26.8481 25.3617 27.8708 23.9497 28.6731C22.352 29.581 20.8175 30.1331 19.427 30.4577C17.0182 31.0206 14.512 31.0206 12.1032 30.4577C10.7128 30.1331 9.17837 29.581 7.58063 28.6731C6.1686 27.8707 5.01514 26.8479 4.15623 25.8433C3.06172 24.5623 2.44223 23.3029 2.37189 22.5574C2.36246 22.4594 2.35763 22.3609 2.35742 22.2625C2.35742 21.4739 2.66753 20.8533 3.10675 20.4175C3.54524 19.9821 4.11374 19.7321 4.63089 19.6831C4.69653 19.6771 4.75873 19.6738 4.81696 19.6738C5.37895 19.6738 5.78092 19.8261 6.07765 20.0185C6.37311 20.2096 6.55791 20.436 6.69515 20.592C7.94192 22.0122 9.45973 23.2103 11.0652 24.0446C12.6064 24.8453 14.2271 25.3093 15.765 25.3093ZM15.765 25.5375C14.1897 25.5375 12.5328 25.0643 10.9598 24.2474C9.33044 23.4007 7.78984 22.1838 6.52373 20.7421C6.39444 20.5949 6.21959 20.3816 5.9536 20.2092C5.68906 20.038 5.32796 19.9024 4.81678 19.9024C4.76184 19.9023 4.70693 19.9048 4.65223 19.9098C4.18354 19.9539 3.66711 20.1821 3.26714 20.579C2.8677 20.9756 2.58562 21.5414 2.58562 22.2627C2.58562 22.3541 2.58978 22.4453 2.59828 22.5361C2.66482 23.2416 3.26551 24.451 4.3291 25.6955C5.17281 26.6827 6.30602 27.6875 7.69292 28.4757C9.26897 29.3713 10.7828 29.9156 12.1549 30.2358C13.3383 30.5124 14.5496 30.6521 15.765 30.6522C16.9803 30.6521 18.1916 30.5124 19.3751 30.2358C20.7475 29.9156 22.2612 29.3713 23.837 28.4757C25.2239 27.6875 26.3573 26.6827 27.201 25.6952C28.2648 24.4506 28.8655 23.2418 28.9319 22.5361C28.9404 22.4456 28.9445 22.3541 28.9445 22.2627C28.9445 21.5415 28.6623 20.9757 28.2628 20.579C27.863 20.1821 27.3464 19.9539 26.8777 19.9098C26.823 19.9048 26.7681 19.9023 26.7132 19.9024C26.2022 19.9024 25.8409 20.038 25.5764 20.2092C25.3104 20.3816 25.1353 20.5949 25.0064 20.7421C23.7403 22.1838 22.1999 23.4007 20.5703 24.247C18.9975 25.0643 17.3405 25.5375 15.765 25.5375Z" fill="black"/>
<path fill-rule="evenodd" clip-rule="evenodd" d="M6.2531 20.9459L6.21604 20.904C5.96343 20.6139 5.61734 20.2163 4.7908 20.2163C4.30873 20.2163 3.76283 20.4742 3.4001 20.8729C3.12887 21.1705 2.82129 21.694 2.89688 22.4943C2.99994 23.5877 4.73619 26.4236 7.82806 28.181C10.3201 29.5972 12.9817 30.3156 15.739 30.3156C18.4964 30.3156 21.1577 29.5972 23.65 28.181C26.7416 26.4236 28.4781 23.5877 28.5811 22.4943C28.6564 21.694 28.3491 21.1707 28.0775 20.8729C27.7152 20.4742 27.1689 20.2163 26.6872 20.2163C25.8609 20.2163 25.5148 20.6139 25.2618 20.904L25.2251 20.9459C22.5679 23.9722 18.933 25.8518 15.739 25.8518C12.5452 25.8518 8.9101 23.9723 6.2531 20.9459Z" fill="#C23227"/>
<path fill-rule="evenodd" clip-rule="evenodd" d="M25.9604 17.3763C25.9604 15.8536 27.1944 14.6191 28.7173 14.6191C30.2401 14.6191 31.4744 15.8536 31.4744 17.3763C31.4744 18.8988 30.2401 20.1331 28.7173 20.1331C27.1944 20.1331 25.9604 18.8988 25.9604 17.3763Z" fill="#FFF22D"/>
<path d="M25.8457 17.3763C25.8457 16.5834 26.167 15.8656 26.6869 15.3459C27.206 14.8262 27.9241 14.5049 28.717 14.5049C29.5099 14.5049 30.2277 14.8262 30.7474 15.3459C31.2671 15.8656 31.5882 16.5834 31.5882 17.3763C31.5882 18.1692 31.2669 18.8869 30.7474 19.4064C30.2279 19.9259 29.5099 20.2472 28.717 20.2472C27.9241 20.2472 27.2064 19.9259 26.6869 19.4064C26.4198 19.1402 26.208 18.8238 26.0636 18.4754C25.9192 18.127 25.8452 17.7535 25.8457 17.3763ZM26.0741 17.3763C26.0741 18.1059 26.3701 18.7667 26.8482 19.2449C27.3263 19.7232 27.9872 20.019 28.7168 20.019C29.4464 20.019 30.1071 19.723 30.5858 19.2449C30.8315 18.9998 31.0264 18.7086 31.1593 18.3879C31.2921 18.0672 31.3603 17.7234 31.3599 17.3763C31.3603 17.0292 31.2922 16.6854 31.1593 16.3647C31.0265 16.044 30.8315 15.7527 30.5858 15.5075C30.1073 15.0293 29.4464 14.7334 28.7168 14.7334C27.9872 14.7334 27.3265 15.0293 26.8482 15.5075C26.6023 15.7526 26.4074 16.0439 26.2745 16.3646C26.1417 16.6854 26.0736 17.0292 26.0741 17.3763Z" fill="black"/>
<path fill-rule="evenodd" clip-rule="evenodd" d="M0.114258 17.3808C0.114258 15.8585 1.34873 14.624 2.87143 14.624C4.39394 14.624 5.62841 15.8585 5.62841 17.3808C5.62841 18.9037 4.39394 20.138 2.87143 20.138C1.34873 20.138 0.114258 18.9037 0.114258 17.3808Z" fill="#FFF22D"/>
<path d="M0 17.3807C0 16.5881 0.32132 15.8703 0.841001 15.3506C1.10735 15.0836 1.42382 14.8719 1.77224 14.7276C2.12066 14.5833 2.49415 14.5093 2.87127 14.5098C3.66399 14.5098 4.38185 14.8313 4.90135 15.3506C5.16833 15.6169 5.38005 15.9333 5.52434 16.2817C5.66864 16.6301 5.74267 17.0036 5.74217 17.3807C5.74217 18.1736 5.42085 18.8914 4.90135 19.4111C4.63506 19.6781 4.31863 19.8899 3.97025 20.0343C3.62186 20.1786 3.24838 20.2527 2.87127 20.2523C2.07836 20.2523 1.36068 19.9306 0.841001 19.4111C0.32132 18.8916 0 18.1734 0 17.3807ZM0.228197 17.3807C0.227722 17.7278 0.295867 18.0717 0.428713 18.3924C0.56156 18.7132 0.756488 19.0045 1.00229 19.2496C1.24743 19.4954 1.53873 19.6903 1.85944 19.8232C2.18015 19.956 2.52395 20.0242 2.87109 20.0237C3.60088 20.0237 4.26142 19.7277 4.7397 19.2496C4.9855 19.0045 5.18043 18.7132 5.31328 18.3924C5.44612 18.0717 5.51427 17.7278 5.51379 17.3807C5.51379 16.6511 5.21797 15.9903 4.7397 15.5121C4.26142 15.0338 3.60088 14.738 2.87109 14.738C2.52395 14.7375 2.18015 14.8057 1.85944 14.9385C1.53873 15.0714 1.24743 15.2663 1.00229 15.5121C0.756548 15.7572 0.561654 16.0485 0.42881 16.3691C0.295966 16.6898 0.22779 17.0336 0.228197 17.3807Z" fill="black"/>
<path fill-rule="evenodd" clip-rule="evenodd" d="M29.4719 9.96087L29.4871 9.22257C29.7124 9.39273 30.1415 9.39942 30.3926 9.13108C30.5082 9.00848 30.5727 8.82133 30.5624 8.62568C30.5482 8.39687 30.4507 8.18117 30.2883 8.01939C29.3598 7.11455 28.539 6.21009 28.539 6.21009C28.456 6.07628 28.3193 5.97737 28.2448 5.9441C28.1286 5.89238 27.7271 5.70867 27.4208 6.17446C27.1433 6.59668 27.1845 7.19412 27.2344 7.4111L28.1056 8.59476C28.4027 8.97141 29.2401 9.77426 29.4719 9.96087ZM10.9082 2.28336C12.0029 1.91648 13.0019 1.6136 14.3489 1.4939L10.9082 2.28336Z" fill="black"/>
<path fill-rule="evenodd" clip-rule="evenodd" d="M10.908 2.28648C12.0027 1.91906 13.0017 1.61672 14.3487 1.49684L14.5539 1.38093C13.8008 0.78892 13.0536 0.38623 12.3099 0.38623C11.8429 0.38623 10.8935 0.70303 10.6802 2.37744L10.908 2.28648ZM20.6248 2.28648C19.5299 1.91906 18.5313 1.61672 17.1843 1.49684L16.9791 1.38093C17.732 0.78892 18.479 0.38623 19.2227 0.38623C19.69 0.38623 20.6396 0.70303 20.8527 2.37744L20.6248 2.28648ZM14.868 1.32849C15.0906 1.3171 15.6043 1.30571 15.8099 1.30571C16.0151 1.30571 16.5827 1.33283 16.707 1.34223L14.868 1.32849Z" fill="black"/>
<path fill-rule="evenodd" clip-rule="evenodd" d="M14.5288 1.43988C15.0794 0.384427 15.5839 0 15.8629 0C16.2119 0 16.6206 0.555484 16.9408 1.27027L17.0086 1.4312L16.73 1.40824C16.5403 1.37424 16.0152 1.36846 15.8099 1.36846C15.6043 1.36846 15.1592 1.36846 14.8908 1.39124L14.5288 1.43988Z" fill="black"/>
<path fill-rule="evenodd" clip-rule="evenodd" d="M13.4515 26.4316L12.9586 28.2706L12.0397 26.0535L11.4677 25.9002L10.7708 28.5006L11.3912 28.6669L11.8879 26.8132L12.8215 29.0501L13.3788 29.1995L14.0755 26.5987L13.4515 26.4316ZM15.5935 26.7602L14.8867 26.7231L14.746 29.4114L15.4527 29.4485L15.5935 26.7602ZM16.2282 26.7372L16.2778 27.0914L17.0318 26.9851L17.3567 29.2969L18.0576 29.1984L17.7325 26.8869L18.4751 26.7824L18.4257 26.4286L16.2282 26.7372ZM23.5211 25.6413C23.8634 26.2412 23.7945 26.6777 23.2665 26.9826L23.0161 27.1271L22.0261 25.4131L22.2966 25.2567C22.9286 24.8919 23.285 25.2165 23.5211 25.6413ZM22.1441 24.9305L21.2319 25.457L22.5825 27.7965L23.488 27.2737C24.4303 26.7294 24.5174 25.9083 24.148 25.2525C23.7019 24.4722 22.9696 24.454 22.1441 24.9305ZM20.4352 28.2427L20.1665 27.416L20.9643 27.1567L20.8524 26.8128L20.0548 27.0719L19.8253 26.366L20.645 26.1L20.5345 25.7597L19.0384 26.2459L19.8701 28.806L21.5201 28.2702L21.4082 27.9263L20.4352 28.2427ZM10.1931 25.2765L9.39586 26.7146C9.15537 27.1482 8.90746 27.4227 8.50188 27.1886C8.09937 26.9658 8.1925 26.6331 8.43878 26.1884L9.23765 24.7467L8.59392 24.39L7.75003 25.9121C7.28459 26.752 7.87154 27.2694 8.32649 27.5214C8.81633 27.793 9.52768 27.995 9.98914 27.1623L10.8367 25.6331L10.1931 25.2765ZM9.73707 9.46351V22.0686L15.7648 25.9432L21.7923 22.0686L21.8 9.4834C21.6089 9.31235 21.2075 8.93786 20.8914 8.74438H10.6104C10.3477 8.92846 9.82622 9.36659 9.73707 9.46351Z" fill="#FFF22D"/>
<path d="M9.85142 9.46338V22.0064L15.765 25.8078L21.6786 22.0064L21.686 9.48327H21.9146L21.9068 22.0685V22.1303L21.8542 22.1643L15.8265 26.0391L15.765 26.0787L15.7034 26.0391L9.67585 22.1643L9.62305 22.1303V9.46338H9.85142Z" fill="black"/>
<path d="M21.7242 9.56868C21.6698 9.51986 21.7108 9.55621 21.6531 9.50413H21.6524C21.4468 9.31825 21.1022 9.00687 20.832 8.8416L20.951 8.64722C21.2427 8.82605 21.5955 9.14466 21.8061 9.3347H21.8054L21.8768 9.39835L21.7242 9.56868Z" fill="black"/>
<path d="M20.8913 8.85857H10.6104V8.63037H20.8913V8.85857Z" fill="black"/>
<path d="M10.676 8.83797C10.5529 8.9244 10.3791 9.0611 10.2202 9.19183C10.0341 9.34517 9.86615 9.49127 9.82094 9.54064L9.65332 9.3864C9.70359 9.33125 9.88116 9.17628 10.0757 9.01608C10.2448 8.87684 10.4251 8.73454 10.5448 8.65063L10.676 8.83797Z" fill="black"/>
<path fill-rule="evenodd" clip-rule="evenodd" d="M16.1911 14.855C16.1491 14.8365 15.999 14.9575 15.9305 15.066C15.862 15.1745 15.8419 15.3143 15.939 15.3656C16.0361 15.417 16.1583 15.3504 16.1876 15.1803C16.2044 15.0803 16.237 14.8749 16.1911 14.855ZM15.0372 15.1801C15.0624 15.3512 15.1884 15.417 15.2855 15.3654C15.3826 15.3141 15.3627 15.1743 15.2942 15.0658C15.2255 14.9573 15.0842 14.8364 15.0421 14.8548C14.9964 14.8749 15.0229 15.0832 15.0372 15.1801ZM15.6423 16.8569C15.8448 16.5245 15.929 16.1791 15.929 16.1791H15.3497C15.3497 16.1791 15.4425 16.533 15.6423 16.8569ZM15.7421 14.3601L16.21 13.5457L16.5753 14.3601H17.1807C16.8152 14.7027 16.6668 15.2201 16.6668 15.5627V15.9394C16.6668 16.0994 16.5871 16.3618 16.5871 16.3618C16.5871 16.3618 17.1111 16.7623 17.1921 16.8297C17.2263 16.8583 17.2624 16.8749 17.2376 16.9442C17.1961 17.0621 16.8418 17.2199 16.804 17.2521C16.7243 17.3207 16.7026 17.3655 16.7259 17.4351C16.7489 17.5033 16.8152 17.5149 16.9523 17.4691C17.0894 17.4236 17.3747 17.2753 17.6148 17.1724C17.8542 17.0697 18.1739 17.0923 18.1739 17.0923V16.6361H17.2724V15.1747L17.1123 14.9195L17.5121 14.2116L17.9112 14.9235L17.7515 15.1745V15.9394H18.2139V15.1745L18.0542 14.9235L18.4537 14.2154L18.8531 14.9235L18.6934 15.1745V15.9394H19.1558V15.1745L18.9961 14.9235L19.3956 14.2154L19.795 14.9235L19.635 15.1745L19.6399 16.6348L18.7332 16.6352V17.3062C18.9388 17.5 19.133 17.9373 19.133 18.1996C19.133 18.4624 18.9618 18.5765 18.9618 18.5765C19.0186 18.7821 19.0073 18.8674 18.9844 19.056C18.9611 19.2484 18.7216 19.5466 18.7216 19.5466V23.0274C18.7216 23.2645 18.1739 23.2419 18.1739 23.039V19.6267C17.8656 19.2844 17.0208 19.0217 17.0208 19.0217C16.7125 19.3296 16.5187 19.8665 16.5187 19.8665C16.6558 19.958 16.8614 19.8665 16.9411 19.775C17.0208 19.6838 17.1809 19.6609 17.2724 19.7178C17.3635 19.775 17.3865 19.7979 17.3521 19.935C17.3179 20.0717 17.2606 20.2992 17.2606 20.4586C17.2606 20.6187 17.4436 20.584 17.5803 20.5957C17.8544 20.6187 17.9 20.9266 17.8774 21.0978C17.8544 21.2691 17.7747 21.6347 17.7747 21.8627C17.7747 22.0907 17.7859 22.3193 17.8089 22.4452C17.8315 22.5705 17.8774 22.7075 17.8656 22.8676C17.8501 23.084 17.7174 23.1187 17.5803 22.9816C17.4436 22.8446 15.5368 20.8125 15.5368 20.8125C15.4113 21.2232 15.9363 21.9314 16.1077 22.1482C16.2789 22.3654 16.2674 22.5251 16.1193 22.6733C15.9706 22.8216 15.6853 22.9015 15.6283 23.0388C15.5712 23.1758 15.7654 23.5865 16.1648 24.1C16.5643 24.6139 15.7081 24.9564 15.1944 25.0593C14.6806 25.162 14.6806 24.8078 14.715 24.6139C14.749 24.4197 14.749 24.3056 14.7378 24.1344C14.7264 23.9635 14.5666 23.7237 14.3496 23.4379C14.1326 23.1529 14.1326 22.8902 14.2241 22.228C14.3154 21.5662 14.2926 21.1434 14.2926 21.1434C14.2926 21.1434 14.0642 21.155 13.7331 21.1434C13.4021 21.1322 13.1281 20.9393 13.1053 20.14C13.0825 19.3408 13.0636 17.4348 13.0102 17.2366C12.9571 17.0388 12.7439 17.0006 12.6526 16.978C12.5612 16.955 12.5545 16.818 12.6459 16.7724C12.8836 16.6534 13.1701 16.3614 13.0636 16.1788C12.9571 15.996 12.5385 16.0339 12.2569 16.171C11.9754 16.3081 11.6785 16.6046 11.6023 16.6887C11.5262 16.7724 11.4653 16.7724 11.4729 16.6809C11.4805 16.5894 11.4197 16.1558 11.3817 16.0036C11.3438 15.8513 11.2065 15.5624 11.161 15.4862C11.1154 15.4101 11.161 15.3797 11.2371 15.4101C11.3132 15.4407 11.4806 15.5092 11.6405 15.5548C11.8003 15.6003 11.9524 15.5244 12.0285 15.3721C12.1047 15.2199 12.2491 14.8928 12.3253 14.7481C12.4014 14.6035 12.5233 14.6338 12.6222 14.6568C12.7213 14.6796 12.8126 14.7405 12.9037 14.7785C12.995 14.8166 13.0712 14.8091 13.1015 14.7633C13.1321 14.7177 13.1702 14.7024 13.2234 14.5881C13.2766 14.474 13.3451 14.5273 13.3527 14.5729C13.6256 16.2102 14.3346 16.2855 14.3346 16.2855C14.2281 16.5592 13.9769 16.9932 13.9161 17.0999C13.8552 17.2062 13.8324 17.3507 13.8172 17.4651C13.802 17.5792 13.8552 18.6595 13.9313 19.0558C14.0076 19.4515 14.2512 19.2996 14.3271 19.1777C14.4031 19.0558 14.6392 18.5537 14.6392 18.5537C14.6392 18.5537 14.7002 18.4166 14.7002 18.3022C14.7002 18.1881 14.5022 17.9369 14.4564 17.8608C14.4109 17.7848 14.2434 17.6326 14.2434 17.252C14.2434 16.8715 14.5859 16.605 14.7078 16.5061C14.8295 16.4072 14.8295 16.2705 14.8143 16.1867C14.7608 15.8922 14.4488 15.2732 14.2968 15.0373C14.1445 14.8015 13.8478 14.3523 13.8478 14.3523H14.4642L14.86 13.5303L15.2938 14.3561L15.7421 14.3601ZM18.1738 18.5079V18.04C18.1738 18.04 18.0481 17.8458 17.7398 17.8458C17.4318 17.8458 17.2492 17.9373 17.2492 18.017C17.2492 18.1429 17.5232 18.5079 18.1738 18.5079ZM10.2095 12.6076H21.33V13.3661H10.2095V12.6076ZM10.2095 12.2177V9.19653H21.33V12.2177H10.2095Z" fill="#C23227"/>
<path fill-rule="evenodd" clip-rule="evenodd" d="M19.1411 12.3075V11.7918H18.3334V11.4593H18.9927V9.99807H18.3875L18.1819 9.59863L17.9763 9.99807H17.3714V11.4593H18.0304V11.7918H16.4482V11.4593H17.1073V9.99807H16.5022L16.2966 9.59863L16.0912 9.99807H15.4862V11.4593H16.1451V11.7918H14.532V11.4593H15.1911V9.99807H14.5859L14.3805 9.59863L14.1751 9.99807H13.5699V11.4593H14.2288V11.7918L12.9534 11.7953L11.6826 11.4983L11.9388 12.3075H19.1411Z" fill="#FFF22D"/>
<path fill-rule="evenodd" clip-rule="evenodd" d="M12.1213 11.4328L12.9735 11.6422L13.4306 10.3591L13.4308 10.0356L12.1213 11.4328ZM14.1778 1.41241C12.8576 1.52976 12.0452 1.81039 10.9722 2.17005C11.0519 1.70841 11.1593 1.43483 11.3457 1.16305C11.3307 1.40174 11.5257 1.65597 11.9135 1.65597C12.3014 1.65597 12.5173 1.4323 12.5173 1.29795C12.5173 1.16396 12.4357 0.969755 12.2269 0.969755C12.018 0.969755 11.9734 1.11893 11.9882 1.1786C12.0032 1.23846 11.9584 1.25328 11.8989 1.26829C11.839 1.28312 11.675 1.19343 11.7347 0.984764C11.8002 0.755301 12.0777 0.630534 12.4057 0.630534C12.4055 0.630172 13.1863 0.599071 14.1778 1.41241ZM20.5705 2.17927C19.4975 1.81926 18.6486 1.5388 17.3284 1.42127C17.9362 0.997783 18.5037 0.638129 19.1274 0.638129C19.4554 0.638129 19.7332 0.762895 19.7984 0.992358C19.8581 1.20121 19.6939 1.29053 19.6342 1.27552C19.5749 1.26052 19.5301 1.24569 19.5449 1.18602C19.5597 1.12653 19.5149 0.977169 19.3062 0.977169C19.0976 0.977169 19.016 1.17101 19.016 1.30536C19.016 1.43971 19.2317 1.66339 19.6196 1.66339C20.0075 1.66339 20.2024 1.40897 20.1876 1.17047C20.3738 1.44242 20.4908 1.71763 20.5705 2.17927ZM14.9913 1.16703C14.9558 1.22363 14.9247 1.26576 14.8868 1.32887C15.1943 1.31584 15.5019 1.30831 15.8097 1.30626C16.0113 1.30626 16.5672 1.33321 16.689 1.34207C16.4923 0.886577 16.1211 0.25768 15.8618 0.25768C15.8106 0.25768 15.6974 0.231099 15.4844 0.476293C15.4844 0.476293 15.4513 0.584605 15.5866 0.563811C15.758 0.537592 15.8229 0.714616 15.8102 0.802676C15.7802 1.00755 15.5417 1.20537 15.3028 1.20537C15.0643 1.20537 14.9913 1.16703 14.9913 1.16703Z" fill="#FFF22D"/>
<path fill-rule="evenodd" clip-rule="evenodd" d="M3.49234 8.5947L4.36354 7.41104C4.41363 7.19405 4.45486 6.59662 4.17712 6.1744C3.8708 5.7086 3.46902 5.89232 3.35275 5.94403C3.27825 5.9773 3.14191 6.07621 3.05855 6.21002C3.05855 6.21002 2.2228 7.13366 1.29807 8.04265C1.16951 8.16886 1.02449 8.40791 1.01274 8.62544C1.00189 8.82109 1.07874 9.01619 1.19374 9.13879C1.44526 9.40677 1.88574 9.39266 2.11069 9.22251L2.12588 9.9608C2.35841 9.7742 3.19543 8.97135 3.49234 8.5947Z" fill="black"/>
<path fill-rule="evenodd" clip-rule="evenodd" d="M15.7652 6.86988C20.7274 6.86988 23.5531 11.5296 24.1674 12.3482C25.2635 13.8094 26.6021 14.9944 28.1554 14.6009C30.4383 14.0226 30.3168 10.6398 30.3168 10.6398C29.7691 10.2438 28.8292 9.7453 27.1202 7.32139C25.4458 4.94702 21.6556 1.42407 15.7652 1.42407C9.87434 1.42407 6.08414 4.94702 4.40991 7.32139C2.70097 9.74512 1.76142 10.2438 1.21353 10.6398C1.21353 10.6398 1.09184 14.0226 3.37507 14.6009C4.92815 14.9944 6.26713 13.8094 7.36309 12.3482C7.97698 11.5296 10.803 6.86988 15.7652 6.86988Z" fill="#FFF22D"/>
<path d="M15.7651 6.75586C20.3793 6.75586 23.1598 10.7188 24.0644 12.0082C24.1464 12.125 24.2131 12.2199 24.2583 12.28C24.7986 13.0007 25.398 13.6528 26.0513 14.0743C26.6916 14.4876 27.3856 14.6784 28.1275 14.4905C30.1547 13.977 30.207 11.1332 30.2032 10.6989C30.1598 10.6679 30.1117 10.6348 30.0612 10.6001C29.4869 10.2038 28.5638 9.56692 27.0268 7.38693C26.066 6.0239 24.4013 4.27915 22.0369 3.05119C20.3169 2.15793 18.2263 1.53826 15.7649 1.53826C13.3036 1.53826 11.2125 2.15793 9.49275 3.05119C7.12833 4.27915 5.46405 6.02372 4.50298 7.38693C2.96564 9.56728 2.04272 10.2039 1.46807 10.6003C1.4178 10.635 1.37007 10.6679 1.32649 10.6987C1.32269 11.1328 1.37495 13.9766 3.40232 14.4903C4.14441 14.6784 4.83804 14.4874 5.47851 14.0741C6.13164 13.6526 6.73107 13.0005 7.27172 12.2798C7.31675 12.2197 7.38347 12.1248 7.46538 12.0082C8.37039 10.7189 11.1511 6.75586 15.7651 6.75586ZM15.7651 6.98424C11.2693 6.98424 8.53982 10.8739 7.65199 12.1395C7.58726 12.2327 7.52125 12.3251 7.45399 12.4165C6.89869 13.1569 6.28046 13.8282 5.60202 14.2661C4.91074 14.7122 4.15834 14.9172 3.34735 14.7117C0.973887 14.1104 1.09902 10.6468 1.09938 10.6367L1.101 10.5808L1.14711 10.5473C1.2095 10.5023 1.2717 10.4593 1.33915 10.413C1.9006 10.0255 2.80272 9.40345 4.31692 7.25584C5.2939 5.87038 6.98566 4.09688 9.38878 2.84885C11.1382 1.94022 13.2643 1.31006 15.7653 1.31006C18.266 1.31006 20.3921 1.94022 22.1418 2.84885C24.5447 4.09688 26.2367 5.8702 27.2136 7.25584C28.7277 9.40291 29.6296 10.0255 30.1909 10.4126C30.2583 10.4591 30.3209 10.5023 30.3833 10.5473L30.4295 10.5808L30.431 10.6367C30.4314 10.6466 30.5563 14.1104 28.183 14.7117C27.3722 14.9171 26.6198 14.712 25.9287 14.2661C25.2499 13.8282 24.6319 13.1569 24.0764 12.4165C24.0205 12.3422 23.957 12.251 23.8782 12.1395C22.9902 10.8739 20.2609 6.98424 15.7651 6.98424Z" fill="black"/>
<path fill-rule="evenodd" clip-rule="evenodd" d="M15.7649 6.43048C20.5486 6.43048 23.3954 10.4883 24.3317 11.8217C24.3928 11.9102 24.455 11.9978 24.5185 12.0846C25.7843 13.772 26.9388 14.4559 28.0471 14.1751C29.6501 13.7689 29.8472 11.5629 29.8694 10.8964L29.8701 10.8713L29.8497 10.8572C29.2861 10.4682 28.3416 9.81745 26.7609 7.5749C25.8161 6.2352 22.2311 1.86401 15.7649 1.86401C9.29877 1.86401 5.71398 6.2352 4.76919 7.5749C3.19893 9.80154 2.21363 10.4818 1.68419 10.8474L1.66357 10.8615L1.6643 10.8866C1.68726 11.5557 1.88635 13.7704 3.48264 14.1751C4.59126 14.4561 5.74544 13.772 7.01083 12.0846C7.05712 12.0231 7.1224 11.93 7.19816 11.8219C8.13391 10.4883 10.9809 6.43048 15.7649 6.43048Z" fill="#C23227"/>
<path fill-rule="evenodd" clip-rule="evenodd" d="M5.47281 8.29948L4.97338 8.89456L5.90986 10.8303L3.90039 10.1735L3.47021 10.686L5.53267 12.4164L5.84422 12.0452L4.38825 10.8187L6.34112 11.4532L6.54635 11.2087L5.61584 9.34354L7.08032 10.572L7.53508 10.0299L5.47281 8.29948ZM8.08008 7.89425L7.61302 8.39495L7.13456 7.47023L8.08008 7.89425ZM6.99208 6.67226L6.53297 7.16446L7.82259 9.72923L8.1374 9.39182L7.78715 8.71283L8.41135 8.04343L9.11565 8.34251L9.63515 7.78558L6.99208 6.67226ZM10.1411 4.23551L11.1501 5.85007L8.90173 5.00997L8.39923 5.32387L9.82609 7.60693L10.3707 7.2668L9.35379 5.63905L11.6265 6.48204L12.1157 6.17609L10.6892 3.89321L10.1411 4.23551ZM18.6614 5.5575L18.9444 4.73566L19.7373 5.00888L19.8552 4.66677L19.0623 4.39391L19.3035 3.69196L20.1183 3.9726L20.2349 3.63428L18.7473 3.12237L17.871 5.66762L19.5113 6.23232L19.6288 5.89057L18.6614 5.5575ZM23.2664 5.38734L23.0237 5.65044L23.5899 6.15999L22.0279 7.89516L22.5538 8.36855L24.1157 6.63375L24.6734 7.13535L24.9126 6.86972L23.2664 5.38734ZM24.0392 9.42961L24.7048 8.87141L25.2438 9.51351L25.5207 9.28098L24.982 8.6387L25.5503 8.16169L26.1044 8.82187L26.3781 8.59186L25.3673 7.38669L23.3049 9.11733L24.4198 10.446L24.6967 10.2137L24.0392 9.42961ZM27.1587 10.1153C27.3463 10.3238 27.347 10.5719 27.1325 10.7648C26.9181 10.9577 26.6483 10.9163 26.4425 10.6876L26.3214 10.5532L27.0016 9.94097L27.1587 10.1153ZM26.8002 11.4418C26.8054 11.4476 27.217 11.6515 27.6714 11.2422C28.0515 10.8999 27.9236 10.4303 27.5273 9.98998L26.7937 9.17574L24.7931 10.9771L25.2666 11.5029L26.061 10.7874L26.2955 11.0474L25.789 12.181L26.3904 12.6647L26.8002 11.4418ZM16.6749 2.89671L16.6555 3.99628L15.5979 3.97802L15.6173 2.87808L14.9097 2.86597L14.8629 5.5575L15.5703 5.56997L15.5918 4.3393L16.649 4.35793L16.6275 5.58824L17.3356 5.60071L17.3823 2.90882L16.6749 2.89671ZM20.507 6.89757C21.0088 7.199 21.5574 7.15072 21.8128 6.72579C22.0006 6.42888 22.0021 6.1835 21.7786 5.74447C21.7186 5.61717 21.6448 5.52748 21.5941 5.41483C21.4963 5.22858 21.4048 5.07796 21.4914 4.9342C21.584 4.78014 21.8001 4.76911 21.9976 4.88773C22.2048 5.01232 22.2903 5.21864 22.3321 5.36203L22.6581 5.22099C22.5581 4.95572 22.4102 4.7165 22.0757 4.5156C21.4999 4.16969 21.0307 4.26101 20.8358 4.58576C20.6387 4.91359 20.6946 5.18428 20.841 5.46347C20.841 5.46347 20.9352 5.62494 20.99 5.73072C21.1186 5.94916 21.269 6.22165 21.1645 6.3956C21.0359 6.6097 20.8117 6.65725 20.5958 6.52308C20.319 6.34733 20.2543 6.14462 20.196 5.9459L19.8389 6.10014C19.9177 6.37029 20.1024 6.65436 20.507 6.89757ZM13.168 3.03775C12.2865 3.22544 11.7092 3.87224 11.8996 4.74904C12.0081 5.22225 12.4323 6.09725 13.7698 5.81282C14.1398 5.74212 14.3423 5.59203 14.5374 5.40741L14.2911 5.12642C14.2016 5.22876 14.0624 5.37758 13.7548 5.44286C13.1089 5.58028 12.723 5.05463 12.627 4.6024C12.4849 3.9339 12.8746 3.46973 13.3192 3.37534C13.6309 3.30898 13.8232 3.39143 13.9447 3.4408L13.9485 3.44008L14.0304 3.09688C13.8175 3.01099 13.5633 2.95403 13.168 3.03775ZM27.4397 7.51471C27.4027 7.35504 27.3504 6.67317 27.6094 6.31333C27.8484 5.9817 28.0663 6.09399 28.1833 6.14589C28.2359 6.16922 28.3938 6.27156 28.4249 6.47336C28.4415 6.58167 28.4075 6.74188 28.3238 6.85941C28.16 7.07224 27.7873 7.21346 27.7873 7.21346C27.7873 7.21346 28.2648 8.14903 29.2769 9.07809L29.2733 9.70952C27.8876 8.37325 27.4397 7.51471 27.4397 7.51471Z" fill="#FFF22D"/>
<path fill-rule="evenodd" clip-rule="evenodd" d="M28.1346 7.32159C28.2716 7.55775 28.6195 8.13547 29.4904 8.95152C29.6349 9.08696 29.9951 9.19979 30.1985 8.97141C30.2766 8.88353 30.3263 8.75822 30.3185 8.61248C30.3093 8.44504 30.2063 8.24957 30.107 8.1644C29.9332 8.01541 29.1844 7.25921 28.6478 6.66521C28.6362 6.77352 28.5414 6.95453 28.5414 6.95453C28.4695 7.05615 28.3794 7.20207 28.1346 7.32159ZM2.32393 9.67155L2.32031 9.0752C3.33273 8.14596 3.81082 7.21346 3.81082 7.21346C3.81082 7.21346 3.43815 7.07224 3.27433 6.85941C3.19043 6.74188 3.15625 6.58149 3.17307 6.47336C3.20453 6.27156 3.36203 6.1694 3.41446 6.14589C3.53146 6.094 3.74935 5.98153 3.98803 6.31333C4.24715 6.67317 4.17934 7.35035 4.14245 7.51001C4.14281 7.51001 3.67087 8.33203 2.32393 9.67155Z" fill="#FFF22D"/>
<path fill-rule="evenodd" clip-rule="evenodd" d="M3.4463 7.32167C3.3096 7.55782 2.96151 8.13554 2.09068 8.95159C1.9462 9.08703 1.586 9.19986 1.38294 8.97148C1.30465 8.8836 1.25474 8.75829 1.26251 8.61255C1.27156 8.44511 1.3748 8.24964 1.47408 8.16447C1.64784 8.01548 2.39663 7.25928 2.93294 6.66528C2.9447 6.7736 3.03945 6.9546 3.03945 6.9546C3.1116 7.05622 3.20183 7.20214 3.4463 7.32167Z" fill="#FFF22D"/>
<path fill-rule="evenodd" clip-rule="evenodd" d="M0.632812 17.4036C0.632812 16.165 1.63691 15.1609 2.87536 15.1609C4.11417 15.1609 5.11809 16.165 5.11809 17.4036C5.11809 18.6426 4.11399 19.6462 2.87536 19.6462C1.63691 19.6462 0.632812 18.6424 0.632812 17.4036Z" fill="#C23227"/>
<path fill-rule="evenodd" clip-rule="evenodd" d="M4.08203 15.7796C4.12054 15.8103 4.21783 15.8903 4.21783 15.8903C4.41221 16.0642 4.58724 16.2676 4.68868 16.511C4.81707 16.8172 4.42161 17.2774 4.30589 17.3855C3.78277 17.8735 3.45765 17.8654 3.27086 17.8923C3.08389 17.9187 2.96618 17.8034 2.97016 17.6634C2.98209 17.2517 3.27394 16.5499 3.35621 16.4203C3.4101 16.3355 3.50286 16.2814 3.50286 16.2814C3.69579 16.2273 3.88294 16.1443 3.98005 16.0344C4.07751 15.9246 4.08203 15.7796 4.08203 15.7796ZM2.20546 15.4836C2.41811 15.412 2.64089 15.375 2.86528 15.374C3.21571 15.374 3.54951 15.4395 3.8334 15.6192C3.90537 15.6646 3.92706 15.7223 3.92706 15.8037C3.92706 16.0675 3.51099 16.1573 3.23398 16.1573C2.95732 16.1573 2.61755 16.0472 2.37706 15.9724C2.13639 15.897 2.08286 15.7565 2.08286 15.6944C2.0825 15.6328 2.12879 15.5093 2.20546 15.4836ZM1.31835 18.7151C1.03591 18.4361 0.834473 17.9346 0.834473 17.4052C0.834473 17.2 0.86467 17.0021 0.921086 16.8154C0.921086 16.8154 0.968642 16.7302 1.01493 16.8031C1.04784 16.8546 1.09251 16.9076 1.13265 16.9783C1.17315 17.049 1.39249 17.2155 1.37206 17.347C1.29484 17.8428 1.36446 18.5046 1.38761 18.6131C1.41093 18.721 1.37694 18.7729 1.31835 18.7151ZM1.37224 17.0144C1.27224 16.9593 1.15308 16.7047 1.1142 16.6287C1.08654 16.5743 1.08817 16.4224 1.12596 16.3557C1.29105 16.0637 1.5263 15.7977 1.83116 15.6565C1.86606 15.6404 1.92013 15.6387 1.92013 15.7252C1.92013 15.7733 1.94399 15.8492 1.9449 15.8961C1.94598 15.942 1.96678 16.0416 1.90476 16.119C1.8431 16.196 1.56987 16.6745 1.50333 16.945C1.48832 17.0067 1.47223 17.0699 1.37224 17.0144ZM2.90868 19.4355C2.89421 19.4347 2.87975 19.4358 2.86528 19.4358C2.49152 19.4358 2.0825 19.2942 1.84002 19.1586C1.58958 19.0185 1.49574 18.3775 1.49574 18.0496C1.49574 16.9918 1.9317 16.3559 2.00113 16.2322C2.07057 16.1089 2.22499 16.0933 2.3409 16.1241C2.4568 16.1552 2.50147 16.1785 2.63437 16.2186C2.70634 16.2405 2.85045 16.2705 2.95858 16.2939C3.06672 16.3172 3.18226 16.3402 3.11301 16.541C3.04357 16.7416 2.81067 17.2276 2.78518 17.8023C2.76203 18.3211 2.83147 18.8384 2.94918 19.1555C3.02567 19.3613 3.0244 19.4393 2.90868 19.4355ZM3.4412 19.3532C3.32511 19.3906 3.27159 19.308 3.21752 19.2458C3.00903 19.0078 2.95515 18.3672 2.95515 18.2824C2.95515 18.1968 2.98589 18.1044 3.0452 18.103C3.55204 18.0903 3.91242 17.9422 4.24278 17.6706C4.57314 17.399 4.71617 17.0922 4.74637 17.0322C4.77638 16.9721 4.84148 16.9828 4.85721 17.0696C4.87005 17.1403 4.89627 17.2685 4.89627 17.405C4.89609 18.3265 4.27533 19.0827 3.4412 19.3532Z" fill="#FFF22D"/>
<path fill-rule="evenodd" clip-rule="evenodd" d="M30.9846 17.4036C30.9846 16.165 29.9805 15.1609 28.7421 15.1609C27.5031 15.1609 26.4995 16.165 26.4995 17.4036C26.4995 18.6426 27.5033 19.6462 28.7421 19.6462C29.9805 19.6462 30.9846 18.6424 30.9846 17.4036Z" fill="#C23227"/>
<path fill-rule="evenodd" clip-rule="evenodd" d="M27.6374 16.0342C27.7345 16.1441 27.9216 16.2271 28.1145 16.2812C28.1145 16.2812 28.2075 16.3353 28.2612 16.4201C28.3435 16.5497 28.6351 17.2515 28.6476 17.6632C28.6514 17.803 28.5339 17.9185 28.3467 17.8921C28.1599 17.8654 27.8346 17.8733 27.3119 17.3853C27.196 17.2772 26.8005 16.817 26.9291 16.5108C27.0302 16.2675 27.2056 16.064 27.4001 15.8901C27.4001 15.8901 27.4969 15.8102 27.5357 15.7794C27.5356 15.7796 27.5403 15.9246 27.6374 16.0342ZM29.5353 15.6944C29.5353 15.7565 29.4816 15.897 29.2411 15.9724C29.0002 16.0472 28.6608 16.1573 28.384 16.1573C28.1068 16.1573 27.6907 16.0677 27.6907 15.8037C27.6907 15.7223 27.7126 15.6646 27.7844 15.6192C28.0683 15.4395 28.4021 15.374 28.7525 15.374C28.9838 15.374 29.2049 15.4149 29.4125 15.4836C29.4886 15.5093 29.5353 15.6328 29.5353 15.6944ZM30.23 18.6129C30.2529 18.5044 30.3226 17.8426 30.2455 17.3468C30.2251 17.2153 30.4444 17.0488 30.4849 16.9781C30.5253 16.9074 30.5697 16.8544 30.6025 16.8029C30.6488 16.7302 30.6965 16.8152 30.6965 16.8152C30.7542 17.0065 30.7835 17.2052 30.7833 17.405C30.7833 17.9345 30.5817 18.4359 30.2991 18.7149C30.2408 18.7729 30.2067 18.721 30.23 18.6129ZM30.1141 16.9452C30.0477 16.6747 29.7743 16.196 29.7125 16.1192C29.6506 16.0418 29.6714 15.9422 29.6721 15.8962C29.6736 15.8494 29.6973 15.7735 29.6973 15.7254C29.6973 15.6389 29.7513 15.6406 29.7859 15.6566C30.0911 15.7977 30.3265 16.0637 30.4914 16.3559C30.5292 16.4226 30.531 16.5745 30.503 16.6289C30.4645 16.7049 30.3452 16.9595 30.2452 17.0146C30.1455 17.0699 30.1293 17.0067 30.1141 16.9452ZM28.6686 19.1557C28.7861 18.8386 28.8557 18.3212 28.8324 17.8025C28.8069 17.2278 28.5742 16.7419 28.5048 16.5412C28.4351 16.3403 28.5511 16.3174 28.6592 16.294C28.7673 16.2707 28.9114 16.2407 28.9838 16.2188C29.1161 16.1785 29.1608 16.1552 29.2769 16.1243C29.3924 16.0935 29.547 16.1091 29.6166 16.2324C29.6862 16.3561 30.122 16.992 30.122 18.0498C30.122 18.3775 30.0284 19.0185 29.7777 19.1588C29.5354 19.2944 29.1264 19.436 28.7525 19.436C28.738 19.436 28.7236 19.4349 28.7095 19.4356C28.5934 19.4393 28.5919 19.3613 28.6686 19.1557ZM26.7217 17.405C26.7217 17.2683 26.7479 17.1401 26.7609 17.0696C26.7765 16.9828 26.8414 16.9721 26.8714 17.0322C26.9018 17.0922 27.0448 17.399 27.375 17.6706C27.7055 17.9422 28.0657 18.0901 28.5726 18.103C28.6315 18.1044 28.6626 18.197 28.6626 18.2824C28.6626 18.3672 28.6089 19.0078 28.4002 19.2458C28.3462 19.308 28.2928 19.3906 28.1764 19.3532C27.3421 19.0827 26.7217 18.3265 26.7217 17.405Z" fill="#FFF22D"/>
<path d="M26.5093 17.3921C26.5089 17.096 26.5671 16.8027 26.6804 16.5292C26.7938 16.2557 26.96 16.0072 27.1696 15.7981C27.5776 15.3902 28.1412 15.1379 28.7634 15.1379C29.3856 15.1379 29.9494 15.3902 30.3572 15.7981C30.7651 16.2059 31.0172 16.7695 31.0172 17.3921C31.0172 18.0146 30.7649 18.5781 30.3572 18.9858C29.9494 19.3936 29.386 19.6458 28.7634 19.6458C28.4673 19.6462 28.1741 19.588 27.9005 19.4748C27.627 19.3615 27.3785 19.1954 27.1693 18.9858C26.9597 18.7767 26.7936 18.5283 26.6803 18.2548C26.567 17.9813 26.5089 17.6881 26.5093 17.3921ZM26.5322 17.3921C26.5322 18.0083 26.782 18.566 27.1856 18.9697C27.5895 19.3737 28.1472 19.6234 28.7636 19.6234C29.38 19.6234 29.9375 19.3737 30.3416 18.9701C30.7452 18.5661 30.9949 18.0085 30.9949 17.3921C30.9949 16.7756 30.7452 16.2182 30.3413 15.8142C30.1343 15.6067 29.8884 15.4422 29.6176 15.33C29.3469 15.2179 29.0566 15.1603 28.7636 15.1607C28.4705 15.1604 28.1803 15.218 27.9095 15.3301C27.6388 15.4423 27.3929 15.6069 27.1859 15.8144C26.9784 16.0213 26.8138 16.2672 26.7016 16.538C26.5894 16.8087 26.5319 17.099 26.5322 17.3921Z" fill="#FDE62F"/>
</svg>
