<svg width="28" height="31" viewBox="0 0 28 31" fill="none" xmlns="http://www.w3.org/2000/svg">
<path d="M27.8697 1.00504V1.00314C23.636 0.359417 18.9142 9.45196e-07 13.9348 9.45196e-07C8.95545 9.45196e-07 4.23364 0.359417 0 1.00314V1.02604L0.000361751 12.6318C0.00307637 22.4604 5.70207 27.988 13.7082 30.9267L13.9358 30.9997L13.9365 31L14.1637 30.9267C22.1701 27.988 27.8684 22.4604 27.8714 12.6318V1.02848V1.00504H27.8697ZM13.9358 14.9618L13.9329 14.9589L13.9509 14.9769L13.9358 14.9618Z" fill="#2DAFE5"/>
<path d="M26.9071 1.96726V1.96545C22.966 1.36624 18.5702 1.03162 13.9348 1.03162C9.29928 1.03162 4.90358 1.36624 0.962402 1.96545V1.9868L0.962764 12.9853C0.965207 22.1351 6.27067 27.281 13.7238 30.0167L13.9357 30.0847L13.9363 30.085L14.1479 30.0167C21.6012 27.281 26.906 22.1351 26.9088 12.9853V1.98916V1.96726H26.9071Z" fill="#7C2C3B"/>
<path d="M20.3382 25.0367C20.5435 25.2424 20.8723 25.0247 21.2093 24.6878C21.5462 24.3508 21.7638 24.0221 21.5584 23.8164L8.69411 11.2758C8.48862 11.0701 8.12124 11.1044 7.87366 11.352C7.62609 11.5996 7.59189 11.9669 7.79729 12.1724L20.3382 25.0367Z" fill="#D6A93A"/>
<path d="M9.09271 11.0839L10.1449 9.84633C10.1449 9.84633 10.2443 9.71395 10.0897 9.52592C9.68386 9.03195 8.87011 8.3113 8.87011 8.3113C8.75266 8.22317 8.67266 8.24462 8.54236 8.36976C7.89818 8.98734 6.259 10.5715 6.16037 10.6742C6.0364 10.8019 5.97958 10.8879 6.01921 11.1068C6.05903 11.3275 6.17657 11.6944 5.97361 12.0505L4.86595 13.7938C4.72723 14.0065 4.68678 14.1946 4.79148 14.2968C4.84749 14.3516 4.9882 14.4151 5.27423 14.2166C5.41114 14.1218 6.91721 13.1079 7.39715 12.7131C7.6783 12.4818 7.89284 12.2714 7.89284 12.2714L8.80179 11.38C8.80179 11.38 8.99308 11.1922 9.09271 11.0839Z" fill="#F8D742"/>
<path d="M5.28174 14.1049C4.96721 14.318 4.96811 14.3492 5.012 14.3434C5.0814 14.3281 5.16782 14.2908 5.27459 14.2166C5.41132 14.1218 6.91748 13.1079 7.39743 12.713C7.59569 12.5501 7.76038 12.3976 7.84046 12.3217C7.59279 12.3743 7.27708 12.4948 7.08552 12.6548C6.82845 12.8696 5.73183 13.7998 5.28174 14.1049Z" fill="#D6A93A"/>
<path d="M9.09292 11.084L10.1452 9.8464C10.1452 9.8464 10.2063 9.76406 10.1571 9.63737C10.1571 9.63737 10.0704 9.53947 9.76705 9.89336C9.51197 10.1908 9.39144 10.3069 9.17653 10.5639C9.01076 10.7621 8.88797 11.093 8.83838 11.3442C8.89864 11.2846 9.02017 11.1632 9.09292 11.084Z" fill="#D6A93A"/>
<path d="M7.56175 25.0367C7.35653 25.2424 7.02769 25.0247 6.69054 24.6878C6.35374 24.3508 6.13612 24.0221 6.34162 23.8164L19.2107 11.2709C19.4161 11.0653 19.7835 11.0996 20.0312 11.3471C20.2788 11.5948 20.313 11.9621 20.1075 12.1675L7.56175 25.0367Z" fill="#D6A93A"/>
<path d="M7.43665 24.9129L19.4439 12.5822C19.6494 12.3767 19.6152 12.0094 19.3676 11.7619C19.2381 11.6324 19.0761 11.5619 18.9213 11.5528L6.34157 23.8163C6.14558 24.0125 6.3347 24.3207 6.64498 24.6412C6.95363 24.9326 7.24762 25.1024 7.43665 24.9129Z" fill="#F8D742"/>
<path d="M18.8111 11.079L17.759 9.84145C17.759 9.84145 17.6597 9.70907 17.814 9.52103C18.22 9.02706 19.0336 8.30642 19.0336 8.30642C19.1512 8.21829 19.2313 8.23973 19.3614 8.36488C20.0056 8.98245 21.6447 10.5666 21.7434 10.6693C21.8674 10.797 21.9243 10.8831 21.8845 11.1019C21.8448 11.3226 21.7272 11.6896 21.9302 12.0456L23.0379 13.7889C23.1765 14.0016 23.217 14.1897 23.1124 14.2919C23.0563 14.3467 22.9158 14.4103 22.6296 14.2117C22.4928 14.1169 20.9867 13.103 20.5067 12.7082C20.2255 12.4769 20.011 12.2665 20.011 12.2665L19.1021 11.3751C19.1021 11.3751 18.9107 11.1873 18.8111 11.079Z" fill="#F8D742"/>
<path d="M22.6227 14.1C22.9371 14.3131 22.9363 14.3444 22.8923 14.3385C22.8229 14.3232 22.7365 14.2859 22.6298 14.2117C22.4931 14.1169 20.9869 13.103 20.507 12.7082C20.3087 12.5452 20.144 12.3927 20.064 12.3168C20.3116 12.3694 20.6272 12.4899 20.8189 12.6499C21.0759 12.8647 22.1725 13.7949 22.6227 14.1Z" fill="#D6A93A"/>
<path d="M18.8117 11.0791L17.7596 9.84152C17.7596 9.84152 17.6984 9.75917 17.7477 9.63249C17.7477 9.63249 17.8344 9.53458 18.1377 9.88848C18.3927 10.1859 18.5134 10.302 18.7281 10.559C18.894 10.7572 19.0168 11.0881 19.0664 11.3394C19.0061 11.2797 18.8846 11.1583 18.8117 11.0791Z" fill="#D6A93A"/>
<path d="M20.8381 11.4379C20.7389 11.537 20.5782 11.537 20.479 11.4379L19.9401 10.8987C19.8409 10.7998 19.8409 10.639 19.9402 10.54C20.0394 10.4406 20.2 10.4406 20.2991 10.5398L20.8381 11.0788C20.9374 11.1778 20.9374 11.3386 20.8381 11.4379Z" fill="#D6A93A"/>
<path d="M20.0125 10.8987C19.9134 10.7997 19.9134 10.639 20.0126 10.5399C20.0528 10.4994 20.1035 10.4758 20.1558 10.4683C20.0794 10.4574 19.9989 10.481 19.9402 10.5399C19.8409 10.639 19.8409 10.7997 19.9401 10.8987L20.479 11.4379C20.5379 11.4967 20.6183 11.5203 20.6948 11.5094C20.6424 11.5018 20.5918 11.4781 20.5514 11.4379L20.0125 10.8987Z" fill="#CDA938"/>
<path d="M20.25 11.0966C20.2392 11.107 20.2219 11.1072 20.2111 11.0966C20.2005 11.0857 20.2005 11.0684 20.2111 11.0576L20.4583 10.8105C20.4691 10.7998 20.4864 10.7997 20.4971 10.8103C20.5078 10.8212 20.5078 10.8384 20.4971 10.8492L20.25 11.0966Z" fill="#D6A93A"/>
<path d="M20.3308 11.1785C20.3204 11.1892 20.3033 11.1892 20.2925 11.1785C20.282 11.1681 20.2821 11.1508 20.2925 11.1403C20.3031 11.1299 20.3203 11.1297 20.3309 11.1403C20.3415 11.1509 20.3415 11.1681 20.3308 11.1785Z" fill="#D6A93A"/>
<path d="M20.1612 11.009C20.1509 11.0194 20.1335 11.0195 20.1231 11.009C20.1126 10.9984 20.1126 10.9812 20.1229 10.9708C20.1335 10.9602 20.1508 10.9602 20.1612 10.9708C20.1719 10.9812 20.1718 10.9984 20.1612 11.009Z" fill="#D6A93A"/>
<path d="M20.3604 10.6746L20.2757 10.5898C20.2649 10.5791 20.2475 10.5792 20.2368 10.59C20.226 10.6008 20.226 10.618 20.2368 10.6288L20.2503 10.6424C20.2552 10.6474 20.2553 10.6552 20.2508 10.6606L20.0319 10.8794C20.0213 10.8902 20.0213 10.9077 20.0319 10.9182C20.0427 10.9289 20.0602 10.9289 20.0708 10.9184L20.2905 10.6986C20.2957 10.6949 20.3029 10.6953 20.3077 10.6998L20.3214 10.7135C20.3323 10.7243 20.3497 10.7241 20.3604 10.7135C20.3711 10.7027 20.3713 10.6855 20.3604 10.6746Z" fill="#D6A93A"/>
<path d="M20.8125 11.1305C20.8037 11.1182 20.7864 11.1155 20.774 11.1244L20.6307 11.2282C20.6249 11.2328 20.6164 11.2324 20.6111 11.2268C20.6064 11.2222 20.6055 11.2152 20.6083 11.2096L20.6376 11.1507C20.6425 11.1411 20.6408 11.1297 20.6345 11.1215C20.6343 11.1214 20.6342 11.1212 20.6342 11.1212C20.6338 11.1208 20.6335 11.1201 20.633 11.1198C20.6327 11.1195 20.6324 11.1192 20.6322 11.1189C20.6319 11.1186 20.6316 11.1184 20.6314 11.1181C20.631 11.1179 20.6306 11.1174 20.63 11.117C20.63 11.117 20.6297 11.1169 20.6296 11.1167C20.6215 11.1105 20.6103 11.1089 20.6004 11.1137L20.5418 11.1429C20.5361 11.1459 20.5289 11.1449 20.5243 11.1402C20.519 11.1346 20.5185 11.1263 20.5228 11.1205L20.6268 10.9771C20.6358 10.9647 20.633 10.9477 20.6208 10.9386C20.6084 10.9297 20.5913 10.9325 20.5825 10.9448L20.3772 11.2278C20.3694 11.2387 20.3707 11.2535 20.3796 11.2628C20.38 11.2631 20.3804 11.2636 20.3808 11.2641C20.3808 11.2641 20.381 11.2642 20.3813 11.2643C20.3894 11.2718 20.4014 11.274 20.412 11.2687L20.5126 11.2186C20.5182 11.2161 20.5249 11.2171 20.5294 11.2217C20.5343 11.2266 20.5351 11.2338 20.5319 11.2395L20.4825 11.3392C20.4771 11.3496 20.4794 11.3618 20.4867 11.37C20.4868 11.3702 20.4872 11.3705 20.4872 11.3705C20.4876 11.3708 20.488 11.3711 20.4883 11.3715C20.4977 11.3806 20.5125 11.3819 20.5235 11.3738L20.8064 11.1688C20.8186 11.16 20.8215 11.1427 20.8125 11.1305Z" fill="#D6A93A"/>
<path d="M9.05629 11.6288C8.9002 11.6254 8.73135 11.6918 8.59906 11.824C8.36895 12.0542 8.3371 12.3957 8.52812 12.5868L13.6688 17.8545L14.5435 16.9797L9.05629 11.6288Z" fill="#F8D742"/>
<path d="M21.5579 23.8162L15.073 17.496C14.9712 17.5414 14.8758 17.6057 14.7922 17.6892C14.4547 18.0267 14.4283 18.5574 14.7128 18.9253L20.5132 24.8726C20.704 25.0639 21.0096 24.8614 21.323 24.5483C21.376 24.4953 21.4256 24.4426 21.4708 24.3906C21.6379 24.165 21.7019 23.9604 21.5579 23.8162Z" fill="#F8D742"/>
<path d="M20.2373 11.0846C20.2266 11.0951 20.2093 11.0953 20.1984 11.0846C20.1878 11.0737 20.1878 11.0564 20.1984 11.0457L20.4456 10.7986C20.4564 10.7878 20.4737 10.7877 20.4845 10.7984C20.4951 10.8091 20.4951 10.8264 20.4845 10.8373L20.2373 11.0846Z" fill="#F8D742"/>
<path d="M20.3185 11.1668C20.3081 11.1773 20.291 11.1776 20.2803 11.1668C20.2697 11.1563 20.2699 11.1391 20.2803 11.1286C20.2909 11.1181 20.308 11.1181 20.3186 11.1286C20.3292 11.1392 20.3292 11.1563 20.3185 11.1668Z" fill="#F8D742"/>
<path d="M20.1495 10.9971C20.1391 11.0074 20.1219 11.0076 20.1114 10.9971C20.1009 10.9865 20.101 10.9693 20.1113 10.9588C20.1219 10.9483 20.1391 10.9483 20.1495 10.9588C20.1601 10.9693 20.16 10.9865 20.1495 10.9971Z" fill="#F8D742"/>
<path d="M20.3481 10.6624L20.2635 10.5776C20.2528 10.567 20.2352 10.5671 20.2245 10.5778C20.2138 10.5886 20.2138 10.6058 20.2245 10.6166L20.238 10.6301C20.2429 10.6353 20.2431 10.643 20.2385 10.6483L20.0197 10.8672C20.0091 10.878 20.0091 10.8955 20.0197 10.906C20.0304 10.9167 20.0479 10.9167 20.0587 10.9061L20.2782 10.6864C20.2835 10.6827 20.2908 10.6831 20.2956 10.6876L20.3092 10.7013C20.32 10.712 20.3375 10.7119 20.3481 10.7013C20.3589 10.6906 20.359 10.6733 20.3481 10.6624Z" fill="#F8D742"/>
<path d="M20.8017 11.1185C20.7929 11.1062 20.7757 11.1034 20.7633 11.1124L20.62 11.2162C20.6141 11.2208 20.6056 11.2203 20.6004 11.2148C20.5956 11.2103 20.5947 11.2032 20.5976 11.1975L20.6268 11.1387C20.6317 11.129 20.6301 11.1176 20.6238 11.1096C20.6236 11.1095 20.6235 11.1092 20.6235 11.1092C20.623 11.1087 20.6227 11.1081 20.6222 11.1078C20.622 11.1074 20.6217 11.1071 20.6215 11.1069C20.6211 11.1067 20.6209 11.1065 20.6206 11.1061C20.6202 11.1059 20.6198 11.1053 20.6192 11.105C20.6192 11.105 20.6189 11.1049 20.6188 11.1047C20.6107 11.0985 20.5995 11.0968 20.5896 11.1017L20.531 11.1309C20.5253 11.1339 20.5182 11.1328 20.5136 11.1281C20.5083 11.1227 20.5078 11.1143 20.5121 11.1086L20.616 10.9651C20.625 10.9529 20.6222 10.9356 20.6101 10.9266C20.5977 10.9178 20.5805 10.9205 20.5718 10.9328L20.3665 11.2159C20.3587 11.2267 20.36 11.2414 20.3688 11.2507C20.3692 11.2511 20.3696 11.2516 20.3701 11.2521C20.3701 11.2521 20.3703 11.2522 20.3705 11.2524C20.3786 11.2599 20.3907 11.262 20.4012 11.2566L20.5019 11.2066C20.5074 11.2041 20.5142 11.2051 20.5188 11.2098C20.5236 11.2146 20.5244 11.2218 20.5212 11.2276L20.4717 11.3273C20.4665 11.3376 20.4686 11.3497 20.476 11.358C20.4761 11.3582 20.4764 11.3583 20.4764 11.3585C20.4768 11.3589 20.4772 11.3591 20.4776 11.3595C20.487 11.3687 20.5018 11.3698 20.5127 11.362L20.7957 11.1568C20.808 11.148 20.8107 11.1307 20.8017 11.1185Z" fill="#F8D742"/>
<path d="M7.96463 10.5447C8.06372 10.6439 8.06372 10.8046 7.96463 10.9038L7.42551 11.4427C7.32652 11.5419 7.16572 11.5419 7.06673 11.4426C6.96737 11.3435 6.96737 11.1828 7.06655 11.0837L7.60558 10.5447C7.70457 10.4455 7.86537 10.4455 7.96463 10.5447Z" fill="#D6A93A"/>
<path d="M7.11172 11.1289L7.65076 10.59C7.74224 10.4985 7.88593 10.4916 7.98565 10.569C7.97913 10.5606 7.97235 10.5524 7.96466 10.5446C7.86539 10.4455 7.70469 10.4455 7.60551 10.5446L7.06648 11.0837C6.96739 11.1828 6.96739 11.3435 7.06666 11.4427C7.07426 11.4503 7.0824 11.4571 7.09073 11.4636C7.01336 11.3641 7.02024 11.2204 7.11172 11.1289Z" fill="#CDA938"/>
<path d="M7.61149 11.1722C7.62217 11.1829 7.62217 11.2002 7.61149 11.211C7.60081 11.2217 7.58335 11.2217 7.57258 11.2109L7.32546 10.9638C7.31469 10.953 7.31469 10.9356 7.32546 10.925C7.33614 10.9142 7.35351 10.9142 7.36428 10.925L7.61149 11.1722Z" fill="#D6A93A"/>
<path d="M7.69355 11.0907C7.70396 11.1011 7.70423 11.1183 7.69355 11.1289C7.68297 11.1394 7.66568 11.1393 7.65546 11.1289C7.64487 11.1184 7.64478 11.1012 7.65528 11.0907C7.66595 11.08 7.68306 11.0801 7.69355 11.0907Z" fill="#D6A93A"/>
<path d="M7.52361 11.2604C7.53401 11.2708 7.5342 11.288 7.52361 11.2985C7.51311 11.3091 7.49583 11.309 7.48542 11.2986C7.47493 11.288 7.47493 11.2708 7.48533 11.2604C7.49592 11.2496 7.51311 11.2499 7.52361 11.2604Z" fill="#D6A93A"/>
<path d="M7.18895 11.0612L7.10426 11.1457C7.09349 11.1566 7.09349 11.174 7.10435 11.1847C7.11511 11.1954 7.1324 11.1954 7.14317 11.1847L7.15674 11.1711C7.16181 11.1663 7.16968 11.1661 7.17511 11.1707L7.39382 11.3895C7.40458 11.4001 7.42196 11.4001 7.43264 11.3895C7.4434 11.3788 7.44349 11.3613 7.43273 11.3505L7.21311 11.131C7.20931 11.1258 7.20958 11.1184 7.2142 11.1136L7.22786 11.1001C7.23863 11.0892 7.23854 11.0718 7.22786 11.0612C7.21718 11.0503 7.19981 11.0503 7.18895 11.0612Z" fill="#D6A93A"/>
<path d="M7.64528 10.6086C7.63297 10.6174 7.63017 10.6348 7.63913 10.647L7.7431 10.7902C7.74744 10.7962 7.74708 10.8048 7.74174 10.81C7.73703 10.8148 7.72988 10.8156 7.72436 10.8128L7.66555 10.7836C7.65568 10.7786 7.64446 10.7803 7.63641 10.7865C7.63623 10.7866 7.63605 10.7869 7.63587 10.787C7.63551 10.7872 7.63496 10.7876 7.6346 10.7881C7.63424 10.7884 7.63397 10.7886 7.63379 10.7889C7.63352 10.7891 7.63315 10.7894 7.63297 10.7897C7.63252 10.7901 7.63216 10.7906 7.63171 10.7911C7.63171 10.7911 7.63152 10.7914 7.63143 10.7916C7.62519 10.7995 7.62365 10.8108 7.62854 10.8206L7.65768 10.8794C7.66048 10.885 7.65958 10.8921 7.65487 10.8967C7.64953 10.9023 7.64112 10.9025 7.63523 10.8983L7.49181 10.7943C7.47951 10.7853 7.46231 10.7881 7.45354 10.8002C7.44449 10.8126 7.44738 10.8298 7.4596 10.8386L7.74255 11.0439C7.7535 11.0517 7.76816 11.0505 7.77766 11.0415C7.77793 11.0411 7.77848 11.0407 7.77866 11.0402C7.77866 11.0402 7.77902 11.04 7.77929 11.0397C7.78653 11.0317 7.7887 11.0196 7.78345 11.0091L7.73341 10.9084C7.73097 10.9029 7.73188 10.8962 7.73649 10.8918C7.74129 10.8868 7.74871 10.886 7.75432 10.8891L7.85403 10.9384C7.86444 10.9438 7.87656 10.9417 7.8848 10.9344C7.88489 10.9342 7.88498 10.934 7.88516 10.9339C7.88561 10.9335 7.88588 10.9332 7.88634 10.9327C7.89539 10.9233 7.89665 10.9085 7.88878 10.8977L7.68346 10.6146C7.67478 10.6025 7.65749 10.5998 7.64528 10.6086Z" fill="#D6A93A"/>
<path d="M7.61149 11.1451C7.62217 11.1557 7.62217 11.173 7.61149 11.184C7.60081 11.1946 7.58335 11.1946 7.57258 11.1838L7.32546 10.9368C7.31469 10.9259 7.31469 10.9084 7.32546 10.8979C7.33614 10.8872 7.35351 10.8872 7.36428 10.8979L7.61149 11.1451Z" fill="#F8D742"/>
<path d="M7.69355 11.0635C7.70396 11.074 7.70423 11.0912 7.69355 11.1018C7.68297 11.1123 7.66568 11.1122 7.65546 11.1018C7.64487 11.0912 7.64478 11.0741 7.65528 11.0634C7.66595 11.0528 7.68306 11.053 7.69355 11.0635Z" fill="#F8D742"/>
<path d="M7.52361 11.233C7.53401 11.2433 7.5342 11.2607 7.52361 11.2712C7.51311 11.2818 7.49583 11.2816 7.48542 11.2713C7.47493 11.2607 7.47493 11.2435 7.48533 11.233C7.49592 11.2223 7.51311 11.2225 7.52361 11.233Z" fill="#F8D742"/>
<path d="M7.18895 11.0337L7.10426 11.1183C7.09349 11.1292 7.09349 11.1466 7.10435 11.1572C7.11511 11.1679 7.1324 11.168 7.14317 11.1572L7.15674 11.1438C7.16181 11.1389 7.16968 11.1388 7.17511 11.1432L7.39382 11.3621C7.40458 11.3728 7.42196 11.3728 7.43264 11.3621C7.4434 11.3513 7.44349 11.334 7.43273 11.3233L7.21311 11.1036C7.20931 11.0984 7.20958 11.0911 7.2142 11.0863L7.22786 11.0727C7.23863 11.0618 7.23854 11.0444 7.22786 11.0337C7.21718 11.0229 7.19981 11.0229 7.18895 11.0337Z" fill="#F8D742"/>
<path d="M7.64528 10.5815C7.63297 10.5903 7.63017 10.6077 7.63913 10.6198L7.7431 10.7632C7.74744 10.7691 7.74708 10.7777 7.74174 10.783C7.73703 10.7876 7.72988 10.7885 7.72436 10.7856L7.66555 10.7565C7.65568 10.7515 7.64446 10.7532 7.63641 10.7595C7.63623 10.7596 7.63605 10.7597 7.63587 10.7598C7.63551 10.7601 7.63496 10.7605 7.6346 10.761C7.63424 10.7613 7.63397 10.7615 7.63379 10.7617C7.63352 10.762 7.63315 10.7623 7.63297 10.7626C7.63252 10.763 7.63216 10.7635 7.63171 10.764C7.63171 10.764 7.63152 10.7644 7.63143 10.7645C7.62519 10.7726 7.62365 10.7837 7.62854 10.7935L7.65768 10.8522C7.66048 10.858 7.65958 10.865 7.65487 10.8697C7.64953 10.8751 7.64112 10.8754 7.63523 10.8713L7.49181 10.7672C7.47951 10.7582 7.46231 10.761 7.45354 10.7731C7.44449 10.7855 7.44738 10.8027 7.4596 10.8115L7.74255 11.0167C7.7535 11.0247 7.76816 11.0233 7.77766 11.0145C7.77793 11.014 7.77848 11.0136 7.77866 11.0132C7.77884 11.0131 7.77902 11.0129 7.77929 11.0126C7.78653 11.0047 7.7887 10.9925 7.78345 10.9821L7.73341 10.8814C7.73097 10.8757 7.73188 10.869 7.73649 10.8646C7.74129 10.8597 7.74871 10.8588 7.75432 10.862L7.85403 10.9114C7.86444 10.9167 7.87656 10.9146 7.8848 10.9072C7.88489 10.907 7.88498 10.9069 7.88516 10.9069C7.88561 10.9064 7.88588 10.906 7.88634 10.9055C7.89539 10.8962 7.89665 10.8814 7.88878 10.8706L7.68346 10.5875C7.67478 10.5753 7.65749 10.5726 7.64528 10.5815Z" fill="#F8D742"/>
<path d="M8.87688 7.45881C8.39069 7.50487 7.92803 7.17876 7.91446 6.66777C7.89971 6.19724 7.88487 5.72679 7.87012 5.25635C8.09082 5.23907 8.2013 5.23083 8.42218 5.21518C8.43557 5.68571 8.44906 6.15625 8.46245 6.62678C8.46914 6.86096 8.62587 6.9748 8.8605 6.95932C8.89308 6.95715 8.90937 6.95607 8.94194 6.95399C9.17657 6.93878 9.32687 6.80495 9.32126 6.57068C9.30986 6.10006 9.29855 5.62952 9.28724 5.15899C9.5083 5.14587 9.61888 5.13971 9.84003 5.12822C9.84998 5.59875 9.86003 6.06938 9.86998 6.54C9.87803 7.05352 9.45365 7.43031 8.95814 7.45348C8.92565 7.45565 8.90937 7.45664 8.87688 7.45881Z" fill="white"/>
<path d="M10.2627 5.11132C10.5193 5.0991 10.6477 5.09358 10.9045 5.08354C11.193 5.54774 11.4795 6.0132 11.764 6.47985C11.7665 6.47985 11.7678 6.47976 11.7702 6.47967C11.7656 6.00488 11.7609 5.53 11.7563 5.05512C11.9776 5.04897 12.0884 5.04626 12.3098 5.04173C12.3161 5.78635 12.3224 6.53088 12.3287 7.2755C12.076 7.28066 11.9497 7.28383 11.697 7.29116C11.4125 6.82587 11.1259 6.36176 10.8374 5.89892C10.8348 5.89901 10.8336 5.8991 10.8311 5.89919C10.838 6.37298 10.845 6.84677 10.8519 7.32057C10.6332 7.32943 10.5238 7.33423 10.3052 7.34473C10.291 6.60029 10.2769 5.85576 10.2627 5.11132Z" fill="white"/>
<path d="M12.7163 5.03527C12.9377 5.03174 13.0485 5.03038 13.27 5.02848C13.2726 5.7731 13.2752 6.51773 13.2778 7.26235C13.0589 7.26416 12.9494 7.26551 12.7305 7.26904C12.7258 6.52442 12.721 5.77989 12.7163 5.03527Z" fill="white"/>
<path d="M14.3839 5.49575C14.099 5.49422 13.9566 5.49412 13.6716 5.49521C13.6714 5.30781 13.6712 5.21407 13.6709 5.02658C14.3317 5.02612 14.992 5.0321 15.6527 5.04458C15.651 5.23198 15.6502 5.32573 15.6485 5.51322C15.3636 5.50688 15.2212 5.50444 14.9363 5.50073C14.9333 6.08917 14.9302 6.67752 14.9272 7.26587C14.7083 7.26306 14.5988 7.26207 14.38 7.26089C14.3812 6.67254 14.3826 6.0841 14.3839 5.49575Z" fill="white"/>
<path d="M16.0536 5.05293C16.5534 5.06795 17.0529 5.08614 17.5525 5.10777C17.5489 5.29517 17.5472 5.38891 17.5437 5.57631C17.1666 5.55876 16.978 5.55116 16.6006 5.53831C16.5984 5.70073 16.5973 5.78199 16.595 5.94442C16.9023 5.95491 17.056 5.96089 17.3631 5.97455C17.3597 6.16195 17.3581 6.25569 17.3548 6.44309C17.0484 6.42952 16.8952 6.42346 16.5886 6.41305C16.5862 6.58172 16.5852 6.66605 16.5828 6.83472C16.9752 6.84811 17.1712 6.85617 17.5634 6.87472C17.5599 7.06212 17.5581 7.15586 17.5546 7.34326C17.0462 7.32091 16.5379 7.302 16.0293 7.28662C16.0374 6.54209 16.0455 5.79746 16.0536 5.05293Z" fill="white"/>
<path d="M17.9728 5.12405C18.3268 5.14206 18.5037 5.15211 18.8573 5.17427C19.4995 5.19825 20.0044 5.72344 19.9868 6.36789C19.9695 7.00022 19.4283 7.46786 18.8006 7.40732C18.451 7.38533 18.2762 7.37529 17.9263 7.35737C17.9418 6.61293 17.9573 5.86849 17.9728 5.12405ZM18.7906 6.93751C19.1692 6.96122 19.4069 6.75337 19.419 6.32555C19.4312 5.9008 19.195 5.66463 18.8234 5.64137C18.6998 5.63368 18.638 5.62997 18.5145 5.62273C18.5043 6.05481 18.4941 6.48689 18.4839 6.91896C18.6066 6.92611 18.6679 6.92982 18.7906 6.93751Z" fill="white"/>
<path d="M3.23926 2.51092C3.52701 2.47454 3.67097 2.45699 3.95899 2.42324C4.08821 3.05737 4.21734 3.69151 4.34655 4.32574C4.34963 4.32537 4.35126 4.32519 4.35433 4.32483C4.50219 3.65957 4.65005 2.9943 4.79808 2.32904C5.0462 2.30244 5.17035 2.28968 5.41856 2.26498C5.56279 2.90011 5.70694 3.53515 5.851 4.17028C5.85416 4.16992 5.8557 4.16983 5.85887 4.16946C5.99858 3.50764 6.13848 2.84581 6.27846 2.18408C6.56241 2.15883 6.70447 2.1468 6.9886 2.12409C6.75162 3.07963 6.5149 4.03536 6.27846 4.99109C5.94528 5.02068 5.77879 5.03633 5.44588 5.06927C5.33268 4.5325 5.21958 3.99573 5.10638 3.45887C5.10321 3.45923 5.10167 3.45941 5.0985 3.45968C4.9853 4.01989 4.87219 4.58001 4.75918 5.14021C4.42329 5.17641 4.25543 5.19532 3.9199 5.23486C3.69314 4.32682 3.4662 3.41887 3.23926 2.51092Z" fill="white"/>
<path d="M21.3196 2.1639C21.6287 2.19051 21.7833 2.20453 22.0922 2.23403C22.2963 2.8365 22.5002 3.43905 22.7039 4.04179C22.7071 4.04206 22.7086 4.04224 22.7118 4.04251C22.9154 3.48194 23.1191 2.92137 23.3231 2.3609C23.6285 2.39465 23.7812 2.41229 24.0864 2.44894C24.2546 3.4053 24.4226 4.36166 24.5907 5.31812C24.3075 5.28228 24.1659 5.265 23.8826 5.2317C23.7996 4.60716 23.7166 3.98261 23.6337 3.35798C23.6305 3.35761 23.629 3.35743 23.6258 3.35707C23.425 3.94976 23.2244 4.54255 23.0239 5.13533C22.7757 5.10882 22.6517 5.09606 22.4034 5.07136C22.1988 4.43677 21.994 3.80227 21.789 3.16777C21.7859 3.1675 21.7843 3.16741 21.7812 3.16705C21.7084 3.77549 21.6358 4.38383 21.5631 4.99227C21.2745 4.96657 21.1301 4.95436 20.8413 4.93119C21.0007 4.00876 21.1601 3.08633 21.3196 2.1639Z" fill="white"/>
<path d="M7.26367 2.10803C7.89527 2.06061 8.52706 2.01881 9.15947 1.98279C9.14581 2.21906 9.13893 2.33723 9.12527 2.5735C8.73364 2.59603 8.3421 2.62037 7.95065 2.64643C7.95065 2.85066 7.95065 2.95273 7.95065 3.15687C8.33396 3.13026 8.5257 3.11814 8.90919 3.09606V3.68495C8.5257 3.70703 8.33396 3.71916 7.95065 3.74576C7.95065 3.95768 7.95065 4.06373 7.95065 4.27575C8.36038 4.24733 8.77029 4.222 9.18029 4.19983C9.18029 4.43537 9.18029 4.55309 9.18038 4.78863C8.54099 4.825 7.90224 4.86708 7.26367 4.91504C7.26367 3.9794 7.26367 3.04367 7.26367 2.10803Z" fill="white"/>
<path d="M12.3915 2.46132C12.0364 2.46739 11.8589 2.47128 11.5039 2.48114C11.5039 2.2456 11.5039 2.12779 11.5039 1.89225C12.3252 1.87144 13.1462 1.86094 13.9676 1.86067C13.9676 2.0963 13.9676 2.21402 13.9676 2.44965C13.6125 2.44884 13.4349 2.44947 13.0798 2.45255C13.0798 3.19192 13.0798 3.93129 13.0798 4.67067C12.8045 4.67302 12.6669 4.67474 12.3915 4.67944C12.3915 3.94007 12.3915 3.2007 12.3915 2.46132Z" fill="white"/>
<path d="M15.1104 1.8664C15.3857 1.86975 15.5233 1.87201 15.7987 1.87762V3.00039C16.1965 3.00962 16.5941 3.02057 16.9918 3.03351V1.91074C17.267 1.92033 17.4047 1.92567 17.6798 1.93762V4.74463C17.4047 4.73278 17.267 4.72735 16.9918 4.71775V3.61851C16.5941 3.60557 16.1965 3.59453 15.7987 3.58539V4.68464C15.5233 4.67903 15.3857 4.67676 15.1104 4.67342C15.1104 3.73778 15.1104 2.80204 15.1104 1.8664Z" fill="white"/>
<path d="M19.7385 4.26847C19.361 4.24277 19.1721 4.23109 18.7943 4.20974C18.7267 4.44148 18.693 4.55739 18.6254 4.78922C18.3424 4.77384 18.201 4.76678 17.918 4.75384C18.2019 3.8325 18.4861 2.91133 18.7706 1.99026C19.1416 2.01108 19.3271 2.02257 19.6979 2.04754C20.0051 3.00553 20.3117 3.96361 20.6178 4.92188C20.3353 4.89962 20.194 4.88912 19.9113 4.8693C19.8422 4.62888 19.8076 4.50871 19.7385 4.26847ZM19.2645 2.65942C19.1614 2.99603 19.0584 3.33264 18.9554 3.66935C19.2043 3.68392 19.3287 3.69161 19.5775 3.70808C19.4758 3.35861 19.3742 3.00924 19.2724 2.65987C19.2692 2.65969 19.2677 2.6596 19.2645 2.65942Z" fill="white"/>
<path d="M10.4606 1.8763C9.94803 1.89448 9.3671 2.2101 9.3633 2.78633C9.35742 3.66596 10.6784 3.42988 10.7599 3.91054C10.7825 4.04356 10.6327 4.15522 10.443 4.15495C10.0897 4.15459 9.81112 4.08573 9.52247 3.9376C9.50844 4.18002 9.49686 4.30751 9.48745 4.52758C9.78533 4.72728 10.0932 4.77027 10.4259 4.77895C10.92 4.79171 11.5142 4.44913 11.5192 3.87136C11.5267 2.99852 10.2171 3.19606 10.1222 2.74217C10.0979 2.62589 10.2399 2.51143 10.4519 2.4993C10.7757 2.48084 11.0086 2.56111 11.186 2.63404C11.2001 2.35488 11.2044 2.31498 11.2201 2.04325C11.0641 1.95375 10.8184 1.86354 10.4606 1.8763Z" fill="white"/>
</svg>
